<svg xmlns="http://www.w3.org/2000/svg" width="601" height="152" viewBox="0 0 601 152">
  <g fill="none">
    <polygon fill="#B5050E" points="463.5 .9 600.9 .9 600.9 120.1 463.5 120.1"/>
    <path fill="#253276" d="M16.4,82.3 L16.4,151.7 L0.9,151.7 L0.9,82.3 L16.4,82.3 L16.4,82.3 Z M47.6,82.3 L47.6,151.7 L32.2,151.7 L32.2,82.3 L47.6,82.3 L47.6,82.3 Z M79.5,82.3 L79.5,151.7 L64,151.7 L64,82.3 L79.5,82.3 L79.5,82.3 Z M1,53.3 L95.9,53.3 L95.9,68.7 L1,68.7 L1,53.3 L1,53.3 Z M175,151.7 L159.6,151.7 L159.6,83 L142.9,83 L142.9,151.7 L127.5,151.7 L127.5,83 L112.1,83 L112.1,151.7 L96.7,151.7 L96.7,68.8 L175.8,68.8 L175.8,52.7 L127.2,52.7 L127.2,1 L464.2,1 L464.2,120.2 L175.3,120.2 L175,151.7 L175,151.7 Z M76.9,33.1 C76.9,26.8 81.9,22.1 87.9,22.1 C94.2,22.1 98.9,27.1 98.9,33.1 C98.9,39.4 93.9,44.1 87.9,44.1 C82,44.5 76.9,39.4 76.9,33.1 L76.9,33.1 Z"/>
    <path fill="#FFF" d="M452.8 81.7C452.8 75.7 457.8 70.7 463.8 70.7 469.8 70.7 474.8 75.7 474.8 81.7 474.8 87.7 469.8 92.7 463.8 92.7 457.8 92.7 452.8 87.7 452.8 81.7L452.8 81.7zM250.7 71.9C250.7 79.5 246 91.1 226.1 91.1 222.3 91.1 216 90.8 210 90.8L201.8 90.8 201.8 85.8C204.3 85.2 207.2 84.5 210 84.5L210 33.7C207.2 33.4 204.3 33.1 201.8 32.4L201.8 27.4 209.7 27.4C214.1 27.4 221.1 27.1 228.6 27.1 242.5 27.1 249.1 32.8 249.1 42.2 249.1 48.8 244.4 54.8 237.7 57L237.7 57.3C246.6 59 250.7 65.3 250.7 71.9L250.7 71.9zM240.3 43.8C240.3 38.1 237.5 34 227.4 34 224.2 34 221.4 34 218.9 34.3L218.9 54.8C220.8 54.8 222.7 54.8 224.6 54.8 234.9 54.9 240.3 50.8 240.3 43.8L240.3 43.8zM241.5 72.2C241.5 64 234.2 61.5 224.5 61.5 223.6 61.5 220.1 61.5 218.5 61.5L218.5 83.6C220.1 83.9 222.9 83.9 226.7 83.9 237.1 84.2 241.5 79.1 241.5 72.2L241.5 72.2zM297.3 63.1C297.3 64.4 297.3 65.6 297 67.2L266.4 67.2C266.1 79.8 271.1 84.9 281.2 84.9 285.9 84.9 291 83.6 294.8 82.1L295.4 89C291 90.9 285.3 91.8 279.6 91.8 265.4 91.8 257.5 84.2 257.5 67.8 257.5 53.9 265.1 43.5 278.3 43.5 292 43.5 297.3 52.3 297.3 63.1L297.3 63.1zM288.8 60.9C289.1 54 285 49.5 278.4 49.5 272.4 49.5 268 54.2 267 60.9L288.8 60.9 288.8 60.9zM532.8 90.2C528.4 90.8 522.1 91.1 516.7 90.8 516.7 88.3 517 84.2 517.3 81.3L517 81.3C514.5 87.6 508.8 91.7 501.2 91.7 489.8 91.7 484.2 83.5 484.2 69.6 484.2 53.2 493.7 43.4 508.2 43.4 510.7 43.4 513.2 43.7 516.1 43.7L516.1 28.6C513.9 28.3 510.7 28 507.9 27.7L507.9 22.7C512.6 22.1 518.9 21.8 524.6 22.1L524.6 83.9C526.8 84.2 530 84.5 532.5 84.8L532.8 90.2 532.8 90.2zM516.5 66.8L516.5 51.4C513.7 50.8 510.8 50.5 508.3 50.5 499.5 50.5 493.5 55.9 493.5 69.1 493.5 79.2 496.7 84.9 503.9 84.9 512 84.8 516.5 74.7 516.5 66.8L516.5 66.8zM575.1 63.1C575.1 52.4 569.4 43.6 556.5 43.6 543.3 43.6 535.7 54 535.7 67.9 535.7 84.3 543.3 91.9 557.8 91.9 563.5 91.9 569.2 91 573.6 89.1L573 82.2C569.2 84.1 564.2 85 559.4 85 549.3 85 544.3 79.6 544.6 67.3L575.2 67.3C575.1 65.3 575.1 64 575.1 63.1L575.1 63.1zM566.6 60.9L544.8 60.9C545.7 54 550.2 49.5 556.2 49.5 562.8 49.5 566.9 54.2 566.6 60.9L566.6 60.9zM334.5 43.5L334.2 51.7C323.5 50.1 318.8 57.4 318.8 72.2L319.1 90.8 310 91.1 310 50.7C307.8 50.4 304.6 50.1 302.1 49.8L302.1 44.8C306.8 44.2 313.1 43.9 318.5 44.2 318.5 47 318.2 51.5 317.6 55.2L317.6 55.2C319.4 48.9 324.1 42.2 334.5 43.5L334.5 43.5zM351.9 84.5C354.7 84.8 357.6 85.1 359.8 85.8L359.8 90.8 335.2 90.8 335.2 85.8C337.7 85.2 340.6 84.5 343.4 84.5L343.4 29C341.2 28.7 338 28.4 335.2 28.1L335.2 23.1C339.9 22.5 346.2 22.2 351.6 22.5L351.6 84.6 351.9 84.6 351.9 84.5zM391.3 90.8L366.7 90.8 366.7 85.8C369.2 85.2 372.1 84.5 374.9 84.5L374.9 50.8C372.7 50.5 369.5 50.2 366.7 49.9L366.4 43.9C371.1 43.9 378.1 44.2 383.4 43.9L383.4 84.6C386.2 84.9 389.1 85.2 391.3 85.9L391.3 90.8 391.3 90.8zM385 30.9C385 34.1 382.5 36.6 379.3 36.6 376.1 36.6 373.6 34.1 373.6 30.9 373.6 27.7 376.1 25.5 379.3 25.5 382.5 25.5 385 27.7 385 30.9L385 30.9zM435.1 90.8L435.1 60.8C435.1 54.2 433.2 50.4 427.2 50.4 419.3 50.4 414 58.3 414 68.4L414.3 90.8 404.5 90.8 405.4 50.8C403.2 50.5 400 50.2 397.2 49.9L397.2 44.9C401.9 44.3 408.2 44 413.6 44.3 413.6 47.1 413.3 51.2 413 54.1L413 54.1C415.8 47.5 421.5 43.4 429.4 43.4 440.1 43.4 443.3 50 443.3 58.2L443.6 91 435.1 90.8 435.1 90.8z"/>
  </g>
</svg>
