<?xml version="1.0" encoding="UTF-8"?>
<svg width="32px" height="31px" viewBox="0 0 32 31" version="1.1" xmlns="http://www.w3.org/2000/svg" xmlns:xlink="http://www.w3.org/1999/xlink">
    <title>arrow_down_out</title>
    <defs>
        <path d="M7,10.8925893 C7,10.8182961 7.00773547,10.7913555 7.02226106,10.764195 C7.03678665,10.7370346 7.05810236,10.7157188 7.08526286,10.7011932 C7.11242335,10.6866677 7.13936387,10.6789322 7.2136571,10.6789322 L8.0363429,10.6789322 C8.11063613,10.6789322 8.13757665,10.6866677 8.16473714,10.7011932 C8.19189764,10.7157188 8.21321335,10.7370346 8.22773894,10.764195 C8.24226453,10.7913555 8.25,10.8182961 8.25,10.8925893 L8.249,19.4289322 L16.7863429,19.4289322 C16.8606361,19.4289322 16.8875766,19.4366677 16.9147371,19.4511932 C16.9418976,19.4657188 16.9632134,19.4870346 16.9777389,19.514195 C16.9922645,19.5413555 17,19.5682961 17,19.6425893 L17,20.4652751 C17,20.5395683 16.9922645,20.5665088 16.9777389,20.5936693 C16.9632134,20.6208298 16.9418976,20.6421455 16.9147371,20.6566711 C16.8875766,20.6711967 16.8606361,20.6789322 16.7863429,20.6789322 L7.2136571,20.6789322 C7.13936387,20.6789322 7.11242335,20.6711967 7.08526286,20.6566711 C7.05810236,20.6421455 7.03678665,20.6208298 7.02226106,20.5936693 C7.00773547,20.5665088 7,20.5395683 7,20.4652751 L7,10.8925893 Z" id="path-1"></path>
    </defs>
    <g id="01_Design" stroke="none" stroke-width="1" fill="none" fill-rule="evenodd">
        <g id="05_Reisepass_beantragen_01" transform="translate(-261.000000, -232.000000)">
            <g id="arrow_down_out" transform="translate(277.000000, 247.500000) rotate(-270.000000) translate(-277.000000, -247.500000) translate(262.000000, 232.000000)">
                <g id="Group-36-Copy-3" transform="translate(15.000000, 15.500000) rotate(-360.000000) translate(-15.000000, -15.500000) ">
                    <g id="Group" transform="translate(0.000000, 0.500000)" stroke="#DEDEDE">
                        <circle id="Oval" cx="15" cy="15" r="14.5"></circle>
                    </g>
                    <g id="Combined-Shape-Copy-3" transform="translate(12.000000, 15.678932) rotate(-135.000000) translate(-12.000000, -15.678932) ">
                        <use fill="#DEDEDE" fill-rule="evenodd" style="mix-blend-mode: darken;" xlink:href="#path-1"></use>
                        <path stroke="#DEDEDE" stroke-width="0.5" d="M7.79368861,10.9842166 L8.00500209,19.6789322 L16.5826263,19.6789322 L16.6945637,20.2218839 L7.4581408,20.423535 L7.25448695,11.0953808 L7.79368861,10.9842166 Z" stroke-linejoin="square"></path>
                    </g>
                </g>
            </g>
        </g>
    </g>
</svg>