<?xml version="1.0" encoding="UTF-8"?>
<svg width="32px" height="31px" viewBox="0 0 32 31" version="1.1" xmlns="http://www.w3.org/2000/svg" xmlns:xlink="http://www.w3.org/1999/xlink">
    <title>Group 36 Copy</title>
    <defs>
        <path d="M8,10.8925893 C8,10.8182961 8.00773547,10.7913555 8.02226106,10.764195 C8.03678665,10.7370346 8.05810236,10.7157188 8.08526286,10.7011932 C8.11242335,10.6866677 8.13936387,10.6789322 8.2136571,10.6789322 L9.0363429,10.6789322 C9.11063613,10.6789322 9.13757665,10.6866677 9.16473714,10.7011932 C9.19189764,10.7157188 9.21321335,10.7370346 9.22773894,10.764195 C9.24226453,10.7913555 9.25,10.8182961 9.25,10.8925893 L9.249,19.4289322 L17.7863429,19.4289322 C17.8606361,19.4289322 17.8875766,19.4366677 17.9147371,19.4511932 C17.9418976,19.4657188 17.9632134,19.4870346 17.9777389,19.514195 C17.9922645,19.5413555 18,19.5682961 18,19.6425893 L18,20.4652751 C18,20.5395683 17.9922645,20.5665088 17.9777389,20.5936693 C17.9632134,20.6208298 17.9418976,20.6421455 17.9147371,20.6566711 C17.8875766,20.6711967 17.8606361,20.6789322 17.7863429,20.6789322 L8.2136571,20.6789322 C8.13936387,20.6789322 8.11242335,20.6711967 8.08526286,20.6566711 C8.05810236,20.6421455 8.03678665,20.6208298 8.02226106,20.5936693 C8.00773547,20.5665088 8,20.5395683 8,20.4652751 L8,10.8925893 Z" id="path-1"></path>
    </defs>
    <g id="01_Design" stroke="none" stroke-width="1" fill="none" fill-rule="evenodd">
        <g id="00_Home" transform="translate(-1269.000000, -473.000000)">
            <g id="Group-36-Copy" transform="translate(1285.000000, 488.500000) rotate(-90.000000) translate(-1285.000000, -488.500000) translate(1270.000000, 473.000000)">
                <g id="Group" transform="translate(0.000000, 0.500000)" stroke="#FF5300">
                    <circle id="Oval" cx="15" cy="15" r="14.5"></circle>
                </g>
                <g id="Combined-Shape-Copy-3" transform="translate(13.000000, 15.678932) rotate(-135.000000) translate(-13.000000, -15.678932) ">
                    <use fill="#FF5300" fill-rule="evenodd" style="mix-blend-mode: darken;" xlink:href="#path-1"></use>
                    <path stroke="#FF5300" stroke-width="0.5" d="M9.27899719,10.3736478 L9.49299791,19.1789322 L17.9900595,19.1789322 L18.3054363,20.7086663 L7.9691734,20.9343294 L7.74551305,10.6897978 L9.27899719,10.3736478 Z"></path>
                </g>
            </g>
        </g>
    </g>
</svg>