<?xml version="1.0" encoding="UTF-8"?>
<svg width="30px" height="30px" viewBox="0 0 30 30" version="1.1" xmlns="http://www.w3.org/2000/svg" xmlns:xlink="http://www.w3.org/1999/xlink">
    <title>arrow_right_on</title>
    <g id="arrow_right_on" stroke="none" stroke-width="1" fill="none" fill-rule="evenodd">
        <g id="Group-12" transform="translate(-0.000000, 0.000000)">
            <g id="arrow_list-copy-5" transform="translate(11.000000, 8.000000)" fill="#00ADB2">
                <path d="M-2.30184307,2.33333333 C-2.21269119,2.33333333 -2.18036257,2.34261589 -2.14776998,2.3600466 C-2.11517738,2.37747731 -2.08959853,2.40305617 -2.07216782,2.43564876 C-2.05473711,2.46824136 -2.04545455,2.50056998 -2.04545455,2.58972185 L-2.04572727,10.4993333 L6.28906603,10.5 C6.3782179,10.5 6.41054652,10.5092826 6.44313912,10.5267133 C6.47573171,10.544144 6.50131057,10.5697228 6.51874128,10.6023154 C6.53617198,10.634908 6.54545455,10.6672366 6.54545455,10.7563885 L6.54545455,11.4102781 C6.54545455,11.49943 6.53617198,11.5317586 6.51874128,11.5643512 C6.50131057,11.5969438 6.47573171,11.6225227 6.44313912,11.6399534 C6.41054652,11.6573841 6.3782179,11.6666667 6.28906603,11.6666667 L-3.01633875,11.6666667 C-3.10549063,11.6666667 -3.13781925,11.6573841 -3.17041184,11.6399534 C-3.20300444,11.6225227 -3.22858329,11.5969438 -3.246014,11.5643512 C-3.26344471,11.5317586 -3.27272727,11.49943 -3.27272727,11.4102781 L-3.27272727,2.58972185 C-3.27272727,2.50056998 -3.26344471,2.46824136 -3.246014,2.43564876 C-3.22858329,2.40305617 -3.20300444,2.37747731 -3.17041184,2.3600466 C-3.13781925,2.34261589 -3.10549063,2.33333333 -3.01633875,2.33333333 L-2.30184307,2.33333333 Z" id="Combined-Shape-Copy-3" style="mix-blend-mode: darken;" transform="translate(1.636364, 7.000000) rotate(-135.000000) translate(-1.636364, -7.000000) "></path>
            </g>
            <circle id="Oval-Copy-6" stroke="#00ADB2" cx="15" cy="15" r="14.5"></circle>
        </g>
    </g>
</svg>