<?xml version="1.0" encoding="UTF-8"?>
<svg width="38px" height="39px" viewBox="0 0 38 39" version="1.1" xmlns="http://www.w3.org/2000/svg" xmlns:xlink="http://www.w3.org/1999/xlink">
    <title>arrow_up_off</title>
    <defs>
        <path d="M10.0454286,13.4347857 C10.1382952,13.4347857 10.1719708,13.444455 10.2059214,13.462612 C10.239872,13.480769 10.2665167,13.5074136 10.2846737,13.5413642 C10.3028307,13.5753148 10.3125,13.6089905 10.3125,13.701857 L10.312,24.4427857 L20.9829286,24.4428502 C21.0757952,24.4428502 21.1094708,24.4525195 21.1434214,24.4706765 C21.177372,24.4888335 21.2040167,24.5154781 21.2221737,24.5494287 C21.2403307,24.5833794 21.25,24.617055 21.25,24.7099215 L21.25,25.7483594 C21.25,25.841226 21.2403307,25.8749016 21.2221737,25.9088522 C21.2040167,25.9428029 21.177372,25.9694475 21.1434214,25.9876045 C21.1094708,26.0057615 21.0757952,26.0154308 20.9829286,26.0154308 L9.01707137,26.0154308 C8.92420484,26.0154308 8.89052919,26.0057615 8.85657857,25.9876045 C8.82262796,25.9694475 8.79598331,25.9428029 8.77782632,25.9088522 C8.75966933,25.8749016 8.75,25.841226 8.75,25.7483594 L8.75,13.701857 C8.75,13.6089905 8.75966933,13.5753148 8.77782632,13.5413642 C8.79598331,13.5074136 8.82262796,13.480769 8.85657857,13.462612 C8.89052919,13.444455 8.92420484,13.4347857 9.01707137,13.4347857 L10.0454286,13.4347857 Z" id="path-1"></path>
    </defs>
    <g id="01_Design" stroke="none" stroke-width="1" fill="none" fill-rule="evenodd">
        <g id="05_Reisepass_beantragen_01" transform="translate(-1238.000000, -1949.000000)">
            <g id="Group-10" transform="translate(1164.000000, 1949.000000)">
                <g id="Group" transform="translate(73.000000, 0.000000)">
                    <g id="Group-36-Copy" transform="translate(20.125000, 19.248387) rotate(-90.000000) translate(-20.125000, -19.248387) translate(1.125000, -0.377419)">
                        <g id="Group-34" transform="translate(0.000000, 0.629032)" stroke="#242424" stroke-width="1.25">
                            <g id="Group">
                                <ellipse id="Oval" cx="18.75" cy="18.8709677" rx="18.125" ry="18.2459677"></ellipse>
                            </g>
                        </g>
                        <g id="Combined-Shape-Copy-3" transform="translate(15.000000, 19.725108) rotate(-135.000000) translate(-15.000000, -19.725108) ">
                            <use fill="#242424" fill-rule="evenodd" style="mix-blend-mode: darken;" xlink:href="#path-1"></use>
                            <path stroke="#242424" stroke-width="0.625" d="M9.74207819,13.8163979 L10.0069759,24.7552838 L20.7278852,24.7553486 L20.8687864,25.4441077 L9.32272065,25.6961834 L9.06807164,13.9553541 L9.74207819,13.8163979 Z" stroke-linejoin="square"></path>
                        </g>
                    </g>
                </g>
            </g>
        </g>
    </g>
</svg>