<?xml version="1.0" encoding="UTF-8"?>
<svg width="14px" height="14px" viewBox="0 0 14 14" version="1.1" xmlns="http://www.w3.org/2000/svg" xmlns:xlink="http://www.w3.org/1999/xlink">
    <title>bahn_logo</title>
    <g id="01_Design" stroke="none" stroke-width="1" fill="none" fill-rule="evenodd">
        <g id="10_termin_lichtenberg-copy" transform="translate(-36.000000, -980.000000)" fill-rule="nonzero">
            <g id="VBB_Bahn-Regionalverkehr" transform="translate(36.000000, 980.000000)">
                <polyline id="Path" fill="#DA251D" points="14 6.99989075 7.00037818 0 0 6.99989075 7.00037818 14 14 6.99989075"></polyline>
                <path d="M3.84149602,7.3914172 C3.84149602,7.61406078 3.71393063,7.72713165 3.49175935,7.72713165 L3.28605553,7.72713165 L3.28605553,7.04331691 L3.52475167,7.04331691 C3.72618281,7.04333365 3.84149602,7.17347688 3.84149602,7.3914172 M3.79617771,6.19212615 C3.79617771,6.43994309 3.62765689,6.5152623 3.43831392,6.5152623 L3.28605553,6.5152623 L3.28605553,5.87345058 L3.4833698,5.87345058 C3.66455285,5.87345058 3.79617771,5.97447874 3.79617771,6.19212615 Z M4.58181818,7.4506432 C4.58181818,7.05643919 4.35553004,6.82140142 3.99758424,6.75846803 L3.99758424,6.74992349 C4.28549414,6.67845392 4.53654907,6.50671776 4.53654907,6.0374205 C4.53654907,5.60112979 4.24028243,5.34545455 3.63174095,5.34545455 L2.54545455,5.34545455 L2.54545455,8.27272727 L3.64779836,8.27272727 C4.19493952,8.27272727 4.58181818,8.02908637 4.58181818,7.4506432 Z" id="Shape" fill="#FFFFFF"></path>
                <path d="M6.16842461,7.36170399 C6.16842461,7.56701918 6.13031739,7.92113817 5.77819144,7.92113817 C5.62095791,7.92113817 5.51530659,7.84463471 5.51530659,7.65142551 C5.51530659,7.39511081 5.73965282,7.29035166 6.0794119,7.29035166 L6.16842461,7.29035166 L6.16842461,7.36170399 M6.87272727,8.34991494 C6.8600728,8.21898907 6.84746908,8.04281886 6.84746908,7.86579292 L6.84746908,6.91999907 C6.84746908,6.47058423 6.69443961,6.10909091 5.91798277,6.10909091 C5.54878681,6.10909091 5.27310369,6.18467153 5.09079807,6.25206404 L5.11607318,6.79415721 C5.27747693,6.69333271 5.51535735,6.58809536 5.75256951,6.58809536 C6.05420446,6.58809536 6.16847537,6.74783063 6.16847537,6.88683554 L6.16847537,6.95378341 L5.97337147,6.95378341 C5.20552576,6.95378341 4.83636364,7.21435156 4.83636364,7.70195521 C4.83636364,8.12234252 5.11607318,8.4 5.50675467,8.4 C5.77379283,8.4 5.94791872,8.29060987 6.16848383,8.04679546 C6.16848383,8.14778775 6.18549462,8.24836895 6.1937251,8.34988977 L6.87272727,8.34991494 L6.87272727,8.34991494 Z" id="Shape" fill="#FFFFFF"></path>
                <path d="M9.29090909,8.4 L9.29090909,6.85164832 C9.29090909,6.36390552 8.99393047,6.1392095 8.61226112,6.1392095 C8.34985434,6.1392095 8.15251389,6.24484126 8.02335774,6.47000281 L8.01078305,6.47000281 C8.01933179,6.38913695 8.02779486,6.28743253 8.02779486,6.19851733 L8.02779486,5.21818182 L7.25454545,5.21818182 L7.25454545,8.4 L8.02777773,8.4 L8.02777773,7.18652977 C8.02777773,6.95739011 8.11393322,6.75816252 8.30720489,6.75816252 C8.45303021,6.75816252 8.51756546,6.85988387 8.51756546,7.07169756 L8.51756546,8.4 L9.29090909,8.4" id="Path" fill="#FFFFFF"></path>
                <path d="M11.7090909,8.4 L11.7090909,6.83102094 C11.7090909,6.33678036 11.4163146,6.10909091 11.0388813,6.10909091 C10.606087,6.10909091 10.4572794,6.41398053 10.4151497,6.53438225 L10.4063176,6.53438225 C10.4063176,6.40976072 10.4018932,6.2505059 10.3895165,6.16049193 L9.67272727,6.16049193 C9.68468095,6.26360274 9.69798819,6.44834794 9.69798819,6.61632541 L9.69798819,8.39996569 L10.4616616,8.39996569 L10.4616616,7.17036374 C10.4616616,6.93817144 10.5462848,6.73628971 10.7372476,6.73628971 C10.8820537,6.73628971 10.9454598,6.83936621 10.9454598,7.05400171 L10.9454598,8.4 L11.7090909,8.4" id="Path" fill="#FFFFFF"></path>
            </g>
        </g>
    </g>
</svg>