<?xml version="1.0" encoding="UTF-8"?>
<svg width="14px" height="14px" viewBox="0 0 14 14" version="1.1" xmlns="http://www.w3.org/2000/svg" xmlns:xlink="http://www.w3.org/1999/xlink">
    <title>bus_logo</title>
    <g id="01_Design" stroke="none" stroke-width="1" fill="none" fill-rule="evenodd">
        <g id="10_termin_lichtenberg-copy" transform="translate(-34.000000, -1004.000000)" fill-rule="nonzero">
            <g id="Group" transform="translate(34.000000, 1004.000000)">
                <g id="BUS-Logo-BVG" transform="translate(0.000000, 0.000000)">
                    <path d="M13.4215569,9.70219561 C13.055489,10.5516966 12.5552894,11.29501 11.9237525,11.9265469 C11.2922156,12.5580838 10.5516966,13.0582834 9.6994012,13.4243513 C8.8499002,13.7876248 7.94451098,13.9720559 6.98602794,13.9720559 C6.02754491,13.9720559 5.11936128,13.7876248 4.26986028,13.4215569 C3.42035928,13.055489 2.67704591,12.5580838 2.04550898,11.9237525 C1.41397206,11.2894212 0.916566866,10.5516966 0.547704591,9.6994012 C0.181636727,8.85269461 0,7.94730539 0,6.98602794 C0,6.02754491 0.181636727,5.12215569 0.550499002,4.26986028 C0.919361277,3.41756487 1.41397206,2.67704591 2.04830339,2.04550898 C2.67984032,1.41397206 3.42035928,0.913772455 4.27265469,0.547704591 C5.1249501,0.181636727 6.0247505,0 6.98602794,0 C7.94451098,0 8.8499002,0.181636727 9.70219561,0.550499002 C10.5516966,0.916566866 11.29501,1.41676647 11.9265469,2.04830339 C12.5580838,2.67984032 13.055489,3.42035928 13.4243513,4.27265469 C13.7904192,5.12215569 13.9748503,6.02754491 13.9748503,6.98882236 C13.9720559,7.94730539 13.7876248,8.85269461 13.4215569,9.70219561" id="Path" fill="#A81581"></path>
                    <path d="M3.09341317,8.5508982 L2.74131737,8.5508982 L2.74131737,7.42754491 L3.11856287,7.42754491 C3.31417166,7.42754491 3.44830339,7.4750499 3.52934132,7.57285429 C3.61037924,7.67065868 3.649501,7.81037924 3.649501,7.99481038 C3.649501,8.36646707 3.46506986,8.5508982 3.09341317,8.5508982 M3.42315369,6.51377246 C3.31417166,6.61157685 3.16606786,6.65908184 2.98163673,6.65908184 L2.74131737,6.65908184 L2.74131737,5.61117764 L2.98163673,5.61117764 C3.16606786,5.61117764 3.31417166,5.6502994 3.42315369,5.73133733 C3.53213573,5.81237525 3.58802395,5.9493014 3.58802395,6.14211577 C3.58802395,6.29021956 3.53213573,6.41596806 3.42315369,6.51377246 M3.95409182,6.98602794 C4.23073852,6.89381238 4.44031936,6.76526946 4.58003992,6.6003992 C4.71976048,6.43552894 4.78682635,6.20638723 4.78682635,5.91297405 C4.78682635,5.5748503 4.66107784,5.29540918 4.40678643,5.0746507 C4.15528942,4.8510978 3.73612774,4.73932136 3.15768463,4.73932136 L1.53972056,4.73932136 L1.53972056,9.4003992 L3.04311377,9.4003992 C4.23073852,9.4003992 4.82317365,8.96167665 4.82317365,8.08702595 C4.8259481,7.44431138 4.53532934,7.07824351 3.95409182,6.98602794" id="Shape" fill="#FFFFFF"></path>
                    <path d="M9.05668663,4.73652695 L7.88303393,4.73652695 L7.88303393,7.62874251 C7.88303393,7.94171657 7.83832335,8.15968064 7.75169661,8.28542914 C7.66227545,8.41117764 7.51696607,8.4754491 7.31576846,8.4754491 C6.95249501,8.4754491 6.77365269,8.2239521 6.77365269,7.71816367 L6.77365269,4.73652695 L5.51057884,4.73652695 L5.51057884,7.86906188 C5.51057884,8.3497006 5.65588822,8.73253493 5.94650699,9.01756487 C6.23712575,9.30259481 6.68702595,9.44790419 7.29061876,9.44790419 C7.87185629,9.44790419 8.31337325,9.29421158 8.60958084,8.98682635 C8.90858283,8.67944112 9.05948104,8.24630739 9.05948104,7.69301397 L9.05948104,4.73652695 L9.05668663,4.73652695 Z" id="Path" fill="#FFFFFF"></path>
                    <path d="M12.5944112,7.13692615 C12.4351297,6.92734531 12.1556886,6.74570858 11.7588822,6.59481038 C11.4487026,6.47744511 11.2419162,6.36846307 11.1413174,6.27345309 C11.0407186,6.1756487 10.9876248,6.06946108 10.9876248,5.95209581 C10.9876248,5.82634731 11.0351297,5.72295409 11.1329341,5.64191617 C11.2279441,5.56087824 11.3816367,5.52175649 11.594012,5.52175649 C11.7365269,5.52175649 11.8958084,5.54411178 12.0690619,5.58602794 C12.2423154,5.62794411 12.3988024,5.68383234 12.5413174,5.7508982 L12.5916168,4.84271457 C12.3708583,4.79241517 12.1640719,4.75329341 11.9656687,4.72814371 C11.7672655,4.70299401 11.5716567,4.69181637 11.3788423,4.69181637 C10.8730539,4.69181637 10.4678643,4.81477046 10.160479,5.05788423 C9.85309381,5.300998 9.6994012,5.63353293 9.6994012,6.05548902 C9.6994012,6.73732535 10.0319361,7.19281437 10.697006,7.41916168 C11.0407186,7.53652695 11.2670659,7.64271457 11.3732535,7.73493014 C11.4794411,7.82714571 11.5325349,7.94171657 11.5325349,8.0758483 C11.5325349,8.21836327 11.4710579,8.32175649 11.3481038,8.38602794 C11.2251497,8.44750499 11.0686627,8.48103792 10.8758483,8.48103792 C10.7053892,8.48103792 10.5433134,8.46706587 10.3840319,8.44191617 C10.2247505,8.41676647 10.0459082,8.36087824 9.85309381,8.27704591 L9.78882236,9.2998004 C10.0347305,9.3500998 10.255489,9.38922156 10.459481,9.41437126 C10.6606786,9.43952096 10.8646707,9.4506986 11.0658683,9.4506986 C11.6219561,9.4506986 12.0550898,9.31097804 12.3680639,9.03433134 C12.6810379,8.75768463 12.8347305,8.38882236 12.8347305,7.93333333 C12.8347305,7.61197605 12.7536926,7.34650699 12.5944112,7.13692615" id="Path" fill="#FFFFFF"></path>
                </g>
            </g>
        </g>
    </g>
</svg>