<svg xmlns="http://www.w3.org/2000/svg" width="208" height="166" viewBox="0 0 208 166">
  <g fill="none" fill-rule="evenodd" stroke-width="1.5" transform="translate(53 49)">
    <rect width="79.72" height="58.663" x="12.772" y="4.848" fill="#DEDEDE" stroke="#DEDEDE" rx="4.011"/>
    <path fill="#DEDEDE" stroke="#DEDEDE" d="M43.8750479,56.487712 L4.75,56.4881382 L4.75,61.2531156 C4.75,62.7073725 5.33945407,64.023955 6.29247236,64.9769733 C7.24549065,65.9299916 8.56207315,66.5194456 10.01633,66.5194456 L95.7490331,66.5194456 C97.20329,66.5194456 98.5198725,65.9299916 99.4728908,64.9769733 C100.425909,64.023955 101.015363,62.7073725 101.015363,61.2531156 L101.015363,56.4970927 L62.3687538,56.955368 C62.2999277,57.7215067 62.1400999,58.1449177 61.9160665,58.5638238 C61.5829605,59.1866778 61.0941409,59.6754974 60.4712869,60.0086034 C59.9034928,60.312263 59.3280402,60.4990331 57.8824466,60.4990331 L48.139647,60.4971539 C46.8746051,60.4767299 46.3313349,60.2952046 45.7954371,60.0086034 C45.172583,59.6754974 44.6837635,59.1866778 44.2922731,58.4508767 C44.0723051,58.00924 43.9214019,57.5313023 43.8750479,56.487712 Z"/>
    <rect width="79.72" height="58.663" x="8.772" y=".848" fill="#F8F8F8" stroke="#242424" rx="4.011"/>
    <rect width="72.5" height="44.5" x="12.382" y="4.75" fill="#DEDEDE" stroke="#242424" rx="4.011"/>
    <g stroke="#242424" transform="translate(28.076 11)">
      <rect width="39.612" height="26.817" x=".75" y="1.673" fill="#FF9D6D" rx="3.443"/>
      <path stroke-linecap="round" stroke-linejoin="round" d="M1.532079 25.9515721C3.54110946 23.840477 6.14744727 21.1017295 9.35109244 17.7353296M31.8938149 17.9126918C35.0127954 21.1901257 37.5612146 23.8680122 39.5390725 25.9463511M39.5390725 5.95601941C36.0697509 9.60876055 30.835153 15.1451417 23.8352788 22.5651627 21.9927588 24.5050949 18.9024989 24.3967076 16.9329901 22.3230729 10.091249 15.1196159 4.95994308 9.71702305 1.53907251 6.11529452"/>
    </g>
    <path fill="#F8F8F8" stroke="#242424" d="M39.8750479,52.487712 L0.75,52.4881382 L0.75,57.2531156 C0.75,58.7073725 1.33945407,60.023955 2.29247236,60.9769733 C3.24549065,61.9299916 4.56207315,62.5194456 6.01633004,62.5194456 L91.7490331,62.5194456 C93.20329,62.5194456 94.5198725,61.9299916 95.4728908,60.9769733 C96.4259091,60.023955 97.0153631,58.7073725 97.0153631,57.2531156 L97.0153631,52.4970927 L58.3687538,52.955368 C58.2999277,53.7215067 58.1400999,54.1449177 57.9160665,54.5638238 C57.5829605,55.1866778 57.0941409,55.6754974 56.4712869,56.0086034 C55.9034928,56.312263 55.3280402,56.4990331 53.8824466,56.4990331 L44.139647,56.4971539 C42.8746051,56.4767299 42.3313349,56.2952046 41.7954371,56.0086034 C41.172583,55.6754974 40.6837635,55.1866778 40.2922731,54.4508767 C40.0723051,54.00924 39.9214019,53.5313023 39.8750479,52.487712 Z"/>
  </g>
</svg>
