<?xml version="1.0" encoding="UTF-8"?>
<svg width="208px" height="166px" viewBox="0 0 208 166" version="1.1" xmlns="http://www.w3.org/2000/svg" xmlns:xlink="http://www.w3.org/1999/xlink">
    <title>icon_perso_vorlaeufig</title>
    <defs>
        <path d="M43.6020703,8.9701865 C43.6020703,19.798323 38.0080641,28.9777176 30.2679674,32.1574289 C30.0950792,32.5699178 30,33.0238554 30,33.5 C30,33.8447281 30.0498381,34.1778159 30.1427021,34.4924513 C37.9482123,37.6247509 43.6020703,46.8442776 43.6020703,57.7301865 C43.6020703,60.043204 43.3468159,62.2809894 42.8699141,64.4011337 L5.6942265,64.4011337 C5.21732477,62.2809894 4.96207031,60.043204 4.96207031,57.7301865 C4.96207031,46.6204238 10.8508468,37.2462817 18.9043983,34.3070953 C18.9675532,34.0487254 19,33.7781519 19,33.5 C19,33.0993836 18.9326922,32.7144877 18.8087682,32.356004 C10.803525,29.3785813 4.96207031,20.0352205 4.96207031,8.9701865 C4.96207031,6.65746882 5.21725861,4.41996371 5.69404107,2.30006377 L42.8700996,2.30006377 C43.346882,4.41996371 43.6020703,6.65746882 43.6020703,8.9701865 Z" id="path-1"></path>
        <path d="M38.7622352,6.6701865 C38.7622352,15.990809 34.6174183,24.0898146 28.52681,28.1922425 L28.6283626,28.1917291 C28.5269475,28.2293161 28.4280776,28.2721459 28.3320819,28.3198893 C28.1586734,28.4352304 27.9828711,28.5461534 27.8055665,28.6537613 C27.0956916,29.2110375 26.6398822,30.077382 26.6398822,31.0501865 C26.6398822,32.0228943 27.095601,32.8891634 27.805179,33.447134 C27.9832112,33.554426 28.1593479,33.6655682 28.3339258,33.7799742 C28.4282961,33.8282813 28.5260789,33.8706534 28.6263537,33.9078985 L28.525814,33.9074597 C34.6169664,38.0096754 38.7622352,46.1090559 38.7622352,55.4301865 C38.7622352,57.743204 38.5069807,59.9809894 38.030079,62.1011337 L0.854391362,62.1011337 C0.377489636,59.9809894 0.122235176,57.743204 0.122235176,55.4301865 C0.122235176,46.1090559 4.26750394,38.0096754 10.3586564,33.9074597 L10.2583264,33.9078206 C10.3589411,33.8704407 10.4570464,33.8278991 10.5523206,33.7805174 C10.7254677,33.6653584 10.9009349,33.5546389 11.0778987,33.4472218 C11.788489,32.8898863 12.2445881,32.0233002 12.2445881,31.0501865 C12.2445881,30.0774371 11.7888304,29.2111355 11.0792003,28.6531674 C10.9015993,28.5461534 10.725797,28.4352304 10.5515473,28.3210559 C10.4565719,28.2722275 10.3577109,28.2293938 10.2563048,28.1918021 L10.3576603,28.1922425 C4.26705203,24.0898146 0.122235176,15.990809 0.122235176,6.6701865 C0.122235176,4.35746882 0.377423469,2.11996371 0.854205929,6.37689521e-05 L38.0302644,6.37689521e-05 C38.5070469,2.11996371 38.7622352,4.35746882 38.7622352,6.6701865 Z" id="path-3"></path>
    </defs>
    <g id="icon_perso_vorlaeufig" stroke="none" stroke-width="1" fill="none" fill-rule="evenodd">
        <g id="Group-15" transform="translate(55.000000, 45.000000)">
            <g id="Group-8">
                <rect id="Rectangle" fill="#DEDEDE" opacity="0.659999967" x="4.57142857" y="4.57142857" width="75.4285714" height="50.2857143" rx="8"></rect>
                <g id="Group" stroke="#242424" stroke-width="1.5">
                    <path d="M74.8571429,17.1428571 L74.8571429,24 M75.4285714,30.1233738 C75.4285714,33.3961245 75.4285714,35.1198046 75.4285714,41.6653061 C75.4285714,46.4262261 71.7445145,50.2857143 67.2,50.2857143 L8.22857143,50.2857143 C3.68405692,50.2857143 -3.90798505e-13,46.4262261 -3.90798505e-13,41.6653061 L-3.90798505e-13,8.62040816 C-3.90798505e-13,3.8594882 3.68405692,-2.55795385e-13 8.22857143,-2.55795385e-13 L65.077679,-2.55795385e-13 L67.2,-2.55795385e-13 C71.7445145,-2.55795385e-13 75.4285714,3.8594882 75.4285714,8.62040816 L75.4285714,10.2574893 L75.4285714,12.8219751" id="Shape" fill="#CCEFF0" stroke-linecap="round" stroke-linejoin="round"></path>
                    <rect id="Rectangle-Copy-3" x="41.1251841" y="14.8571429" width="18.2857143" height="1" rx="0.5"></rect>
                    <rect id="Rectangle-Copy-12" x="41.1251841" y="28.5714286" width="18.2857143" height="1" rx="0.5"></rect>
                    <rect id="Rectangle-Copy-5" x="41.1251841" y="21.7142857" width="18.2857143" height="1" rx="0.5"></rect>
                    <rect id="Rectangle-Copy-13" x="41.1251841" y="34.8689249" width="18.2857143" height="1" rx="0.5"></rect>
                    <rect id="Rectangle" fill="#FFFFFF" x="13.3214286" y="14.7117084" width="19.0714286" height="22.5" rx="2.4742268"></rect>
                    <circle id="Oval" fill="#00ADB2" cx="22.6863034" cy="25.1428571" r="3.82142857"></circle>
                    <path d="M22.6863034,29.3214286 C24.3095233,29.3214286 25.6150139,29.9856154 26.6061595,31.3071429 C27.581062,32.6070128 28.2587513,34.4979211 28.6714478,36.9642857 L28.6714478,36.9642857 L16.7011589,36.9642857 C17.1138555,34.4979211 17.7915448,32.6070128 18.7664472,31.3071429 C19.7575928,29.9856154 21.0630835,29.3214286 22.6863034,29.3214286 Z" id="Oval" fill="#00ADB2"></path>
                </g>
            </g>
            <g id="Group-12" transform="translate(47.000000, 8.998579)">
                <path d="M47.885,0.00142114485 C49.2187677,0.00142114485 50.3,1.08265347 50.3,2.41642114 C50.3,3.75018882 49.2187677,4.83142114 47.885,4.83142114 L45.3246792,4.83181214 C45.5070628,6.17732192 45.6020703,7.56046382 45.6020703,8.97160765 C45.6020703,18.2922302 41.4572535,26.3912357 35.3666452,30.4936636 L35.4681978,30.4931502 C35.3667827,30.5307372 35.2679127,30.573567 35.1719171,30.6213105 C34.9985085,30.7366515 34.8227062,30.8475745 34.6454016,30.9551824 C33.9355267,31.5124586 33.4797174,32.3788031 33.4797174,33.3516076 C33.4797174,34.3243155 33.9354361,35.1905845 34.6450141,35.7485552 C34.8230463,35.8558472 34.999183,35.9669894 35.1737609,36.0813953 C35.2681312,36.1297025 35.365914,36.1720745 35.4661888,36.2093197 L35.3656491,36.2088808 C41.4568015,40.3110966 45.6020703,48.410477 45.6020703,57.7316076 C45.6020703,59.2236619 45.4958556,60.684411 45.292447,62.1024717 L47.885,62.1014211 C49.2187677,62.1014211 50.3,63.1826535 50.3,64.5164211 C50.3,65.8501888 49.2187677,66.9314211 47.885,66.9314211 L4.415,66.9314211 C3.60992909,66.9314211 2.89686712,66.537484 2.45805994,65.9318556 L41.885,65.9314211 C43.2187677,65.9314211 44.3,64.8501888 44.3,63.5164211 C44.3,62.1826535 43.2187677,61.1014211 41.885,61.1014211 L41.885,61.1014211 L39.292447,61.1024717 C39.4958556,59.684411 39.6020703,58.2236619 39.6020703,56.7316076 C39.6020703,47.410477 35.4568015,39.3110966 29.3656491,35.2088808 L29.3656491,35.2088808 L29.4661888,35.2093197 C29.365914,35.1720745 29.2681312,35.1297025 29.1737609,35.0813953 C28.999183,34.9669894 28.8230463,34.8558472 28.6450141,34.7485552 C27.9354361,34.1905845 27.4797174,33.3243155 27.4797174,32.3516076 C27.4797174,31.3788031 27.9355267,30.5124586 28.6454016,29.9551824 C28.8227062,29.8475745 28.9985085,29.7366515 29.1719171,29.6213105 C29.2679127,29.573567 29.3667827,29.5307372 29.4681978,29.4931502 L29.4681978,29.4931502 L29.3666452,29.4936636 C35.4572535,25.3912357 39.6020703,17.2922302 39.6020703,7.97160765 C39.6020703,6.56046382 39.5070628,5.17732192 39.3246792,3.83181214 L39.3246792,3.83181214 L41.885,3.83142114 C43.2187677,3.83142114 44.3,2.75018882 44.3,1.41642114 C44.3,0.887323226 44.1298505,0.397965859 43.8412839,8.15323938e-05 L47.885,0.00142114485 Z" id="Combined-Shape" fill-opacity="0.15" fill="#000000"></path>
                <g id="Group-11" transform="translate(0.000000, 0.001421)">
                    <g id="Group-10">
                        <mask id="mask-2" fill="white">
                            <use xlink:href="#path-1"></use>
                        </mask>
                        <path stroke="#1B1B1B" stroke-width="1.5" d="M42.2636217,3.05006377 C42.6479042,4.94270709 42.8520703,6.9263467 42.8520703,8.9701865 C42.8520703,14.1735793 41.5290851,18.9873491 39.279039,22.9000507 C36.9962907,26.8696194 33.7593998,29.9122918 29.9829713,31.4636875 C29.3660455,32.3690755 29.25,32.9209769 29.25,33.5 C29.25,33.9184876 29.3106493,34.3228154 29.4233789,34.7047581 C33.6704199,36.7162366 36.9367032,39.756256 39.2414115,43.7353581 C41.5143884,47.6596758 42.8520703,52.4979618 42.8520703,57.7301865 C42.8520703,59.7743231 42.6478449,61.758242 42.2634543,63.6511337 L42.2634543,63.6511337 L6.3006863,63.6511337 C5.91629574,61.758242 5.71207031,59.7743231 5.71207031,57.7301865 C5.71207031,52.3864524 7.10735528,47.4535692 9.46916407,43.4857338 C11.8589652,39.4708713 15.2385149,36.4433652 19.1615261,35.0116414 C19.7100389,34.1698007 19.75,33.8395547 19.75,33.5 C19.75,33.0135507 19.6680775,32.5462345 19.5176095,32.1109651 C15.1699083,30.2023922 11.8128841,27.1726087 9.44005389,23.1651135 C7.09582431,19.2059223 5.71207031,14.2917871 5.71207031,8.9701865 C5.71207031,6.9263467 5.91623645,4.94270709 6.30051889,3.05006377 L6.30051889,3.05006377 Z"></path>
                        <g id="Path-2" transform="translate(4.839835, 2.300000)">
                            <mask id="mask-4" fill="white">
                                <use xlink:href="#path-3"></use>
                            </mask>
                            <g id="Mask"></g>
                            <path d="M-6.67,48.6606677 C4.90608011,50.086488 12.8285082,49.8672692 17.0972842,48.0030114 C23.5004483,45.2066247 38.8542502,43.5713446 43.0718358,46.6337927 C47.2894214,49.6962407 41.0930272,53.54405 33.693496,60.0537536 C26.2939647,66.5634572 21.9652928,64.3915364 21.2847366,68.8394992 C20.6041803,73.287462 17.0972842,73.5390245 15.9957999,68.8394992 C14.8943155,64.1399739 10.5942186,67.1647517 2.45617175,59.9838635 C-2.96919283,55.1966047 -6.01125008,51.4222061 -6.67,48.6606677 Z" fill="#00ADB2" mask="url(#mask-4)" transform="translate(18.886000, 58.627025) rotate(-180.000000) translate(-18.886000, -58.627025) "></path>
                        </g>
                        <path d="M8.88562002,16.8245274 C13.7444254,18.366746 18.3082161,18.2057264 22.5769922,16.3414686 C26.8457682,14.4772107 32.663151,14.0208045 40.0291406,14.9722498 C38.0622633,22.2512143 34.7192164,27.0069204 30,29.2393681 C27.6248236,30.3629565 26.7017187,31.4053221 26.7644445,34.8793787 C26.8271703,38.3534353 27.392168,41.2403162 24.1452148,41.2021326 C20.8982617,41.163949 21.5553608,38.6821066 21.4755078,36 C21.3956548,33.3178934 22.1795348,30.2041656 17.0844233,28.5180877 C13.6876822,27.3940357 10.9547478,23.4961823 8.88562002,16.8245274 Z" id="Path-2" fill="#00ADB2"></path>
                        <rect id="Rectangle" stroke="#1B1B1B" stroke-width="1.5" fill="#008A8E" x="0" y="0" width="48.3" height="4.83" rx="2.415"></rect>
                        <rect id="Rectangle-Copy-3" stroke="#1B1B1B" stroke-width="1.5" fill="#008A8E" x="0" y="62.1" width="48.3" height="4.83" rx="2.415"></rect>
                    </g>
                    <path d="M31.697939,7.98887623 C31.7256875,6.23162927 39.8761712,5.36178354 39.9664739,9.15426544 C40.0567766,12.9467473 37.9334442,18.0867779 35.4979809,21.8975306 C33.0625176,25.7082834 26.2122552,31.3671881 25.4320703,29.3026865 C24.6518854,27.2381849 30.0371101,24.6305634 31.6329125,18.6516677 C33.228715,12.6727721 31.6393249,11.7007673 31.697939,7.98887623 Z" id="Path-3" fill-opacity="0.4" fill="#CCEFF0"></path>
                    <path d="M8.63234543,46.8716062 C8.65133311,45.6625214 14.2285217,45.0640186 14.2903137,47.6734595 C14.3521058,50.2829004 14.1632479,53.8195305 12.4967164,56.4415427 C10.8301849,59.063555 8.74044295,61.56871 7.8033099,60.4831662 C6.86617684,59.3976225 7.49587839,58.322023 8.58784932,54.2082065 C9.67982025,50.09439 8.59223713,49.425596 8.63234543,46.8716062 Z" id="Path-3-Copy" fill-opacity="0.4" fill="#CCEFF0" transform="translate(10.823752, 53.291208) rotate(-180.000000) translate(-10.823752, -53.291208) "></path>
                </g>
            </g>
        </g>
    </g>
</svg>