<?xml version="1.0" encoding="UTF-8"?>
<svg width="137px" height="107px" viewBox="0 0 137 107" version="1.1" xmlns="http://www.w3.org/2000/svg" xmlns:xlink="http://www.w3.org/1999/xlink">
    <title>icon_gebuehren</title>
    <g id="icon_gebuehren" stroke="none" stroke-width="1" fill="none" fill-rule="evenodd">
        <g id="Group-22" transform="translate(8.000000, 0.000000)">
            <g id="Group-4" transform="translate(24.000000, 0.000000)">
                <path d="M86.5932243,1 L91.0131562,1 L97.6576577,1 C98.7323739,1 99.6036036,1.87122968 99.6036036,2.94594595 L99.6036036,47.0540541 C99.6036036,48.1287703 98.7323739,49 97.6576577,49 L5.54954955,49 C4.47483328,49 3.6036036,48.1287703 3.6036036,47.0540541 L3.6036036,2.94594595 C3.6036036,1.87122968 4.47483328,1 5.54954955,1 L73.3619441,1 L73.3619441,1 M77.8976671,1 L82.2164979,1" id="Shape" fill-opacity="0.2" fill="#1B1B1B"></path>
                <g id="Group-22-Copy" transform="translate(0.000000, 4.504505)" stroke="#1B1B1B" stroke-linejoin="round" stroke-width="1.5">
                    <path d="M82.9896207,1 L87.4095526,1 L94.0540541,1 C95.1287703,1 96,1.87122968 96,2.94594595 L96,47.0540541 C96,48.1287703 95.1287703,49 94.0540541,49 L1.94594595,49 C0.871229676,49 0,48.1287703 0,47.0540541 L0,2.94594595 C0,1.87122968 0.871229676,1 1.94594595,1 L69.7583405,1 L69.7583405,1 M74.2940635,1 L78.6128943,1" id="Shape" fill="#FFFFFF" stroke-linecap="round"></path>
                    <rect id="Rectangle-Copy-2" fill="#CCEFF0" x="3.89189189" y="4.89189189" width="88.2162162" height="40.2162162" rx="1.94594595"></rect>
                    <g id="Group-21" transform="translate(33.081081, 10.081081)" stroke-linecap="round">
                        <path d="M3.07821629,24.8624606 C3.58789575,25.5461923 4.15239783,26.1866526 4.76521243,26.7773312 M6.01229858,27.8585494 C6.52509833,28.2577837 7.06353892,28.6256306 7.62473457,28.9592043 C8.47745629,29.4660605 9.38271489,29.8937867 10.3303867,30.2322592 C11.9669989,30.8167953 13.7301071,31.1351351 15.5675676,31.1351351 C24.1652977,31.1351351 31.1351351,24.1652977 31.1351351,15.5675676 C31.1351351,6.96983741 24.1652977,0 15.5675676,0 C6.96983741,0 0,6.96983741 0,15.5675676 C0,18.0602605 0.585858294,20.4161189 1.62739188,22.5049597" id="Shape" fill="#FFFFFF"></path>
                        <path d="M15.8897611,11.9585877 L13.2762543,11.9585877 C13.7557431,10.3031574 14.7269729,9.21743528 16.1899436,8.70142128 C17.6529143,8.18540728 19.4119382,8.2351789 21.4670155,8.85073617 L22.4134588,5.88833216 C18.9964748,4.93350459 16.2214461,4.95669124 14.0883727,5.95789211 C11.9552993,6.95909299 10.5350931,8.95932487 9.82775399,11.9585877 L8.06081117,11.9585877 L7.13513514,14.6259679 L9.39971815,14.6259679 L9.39971815,16.3508412 L7.96111341,16.3508412 L7.13513514,18.9487666 L9.68015695,18.9487666 C10.256603,22.179965 11.8080557,24.3216117 14.3345152,25.3737066 C16.3315673,26.2053402 19.6586378,26.0116821 20.9852467,25.5424366 C21.8696526,25.2296063 22.4421379,24.983146 22.7027027,24.8030556 L21.9514789,21.8984689 C19.8998101,22.8601928 18.0829803,23.0813483 16.5009895,22.5619355 C14.9189987,22.0425226 13.844087,20.838133 13.2762543,18.9487666 L18.5848315,18.9487666 L19.3788899,16.3508412 L12.8479615,16.3508412 C12.8479615,16.0220651 12.8479615,15.7609739 12.8479615,15.5675676 C12.8479615,15.3741613 12.8479615,15.0602947 12.8479615,14.6259679 L19.8935459,14.6259679 L20.6269427,11.9585877 L17.6031911,11.9585877" id="Path" fill="#00ADB2"></path>
                    </g>
                </g>
            </g>
            <path d="M60,21 C61.6568542,21 63,22.3431458 63,24 L63,38 C64.6568542,38 66,39.3431458 66,41 L66,51 C66,52.6568542 64.6568542,54 63,54 L63,62 C63,63.6568542 61.6568542,65 60,65 L8,65 C6.34314575,65 5,63.6568542 5,62 L5,24 C5,22.3431458 6.34314575,21 8,21 L60,21 Z" id="Combined-Shape" fill-opacity="0.2" fill="#1B1B1B"></path>
            <g id="Group-23" transform="translate(0.000000, 25.000000)" stroke="#1B1B1B" stroke-width="1.5">
                <rect id="Rectangle" fill="#99DEE0" stroke-linejoin="round" x="0" y="0" width="59" height="44" rx="3"></rect>
                <rect id="Rectangle" fill="#99DEE0" stroke-linejoin="round" x="34" y="16" width="28" height="16" rx="3"></rect>
                <circle id="Oval" fill="#008A8E" cx="43" cy="24" r="3.75"></circle>
            </g>
            <g id="Group-26" transform="translate(0.000000, 38.000000)">
                <path d="M33.4192715,8.00658972 C31.3883774,7.22759675 29.1830451,6.80073111 26.8780129,6.80073111 C16.7877706,6.80073111 8.60801293,14.9804887 8.60801293,25.0707311 C8.60801293,35.1609735 16.7877706,43.3407311 26.8780129,43.3407311 C36.9682553,43.3407311 45.1480129,35.1609735 45.1480129,25.0707311 C45.1480129,21.3839497 44.0559893,17.952224 42.1777542,15.0813662 C41.4960221,14.0393476 40.7107122,13.0712195 39.8364477,12.1916051 M37.9347185,10.5250099 C37.1964019,9.96292609 36.4140017,9.45577264 35.5936121,9.00964361" id="Shape" fill-opacity="0.2" fill="#1B1B1B" transform="translate(26.878013, 25.070731) rotate(154.000000) translate(-26.878013, -25.070731) "></path>
                <g id="Group-18" transform="translate(25.500000, 28.000000) rotate(-10.000000) translate(-25.500000, -28.000000) translate(4.000000, 6.000000)" stroke="#1B1B1B" stroke-linecap="round" stroke-linejoin="round" stroke-width="1.5">
                    <path d="M27.3312586,4.77585861 C25.3003644,3.99686564 23.0950321,3.57 20.79,3.57 C10.6997576,3.57 2.52,11.7497576 2.52,21.84 C2.52,31.9302424 10.6997576,40.11 20.79,40.11 C30.8802424,40.11 39.06,31.9302424 39.06,21.84 C39.06,18.1532186 37.9679764,14.7214929 36.0897412,11.8506351 C35.4080092,10.8086165 34.6226993,9.8404884 33.7484348,8.96087398 M31.8467056,7.29427874 C31.108389,6.73219497 30.3259888,6.22504153 29.5055991,5.7789125" id="Shape" fill="#CCEFF0"></path>
                    <g id="Group-21" transform="translate(21.274968, 21.842236) rotate(-30.000000) translate(-21.274968, -21.842236) translate(5.774968, 6.342236)">
                        <path d="M2.98971757,24.1476649 C3.48474375,24.8117393 4.03301639,25.4337863 4.62821257,26.0074829 M5.83944499,27.0576161 C6.33750175,27.4453724 6.86046217,27.8026437 7.40552346,28.1266272 C8.23372942,28.6189113 9.11296184,29.0343403 10.0333881,29.3630818 C11.6229477,29.9308124 13.3353665,30.24 15.12,30.24 C23.4705454,30.24 30.24,23.4705454 30.24,15.12 C30.24,6.76945458 23.4705454,1.90993887e-12 15.12,1.90993887e-12 C6.76945458,1.90993887e-12 -1.90993887e-12,6.76945458 -1.90993887e-12,15.12 C-1.90993887e-12,17.541028 0.569014868,19.8291554 1.58060436,21.8579421" id="Shape" fill="#FFFFFF"></path>
                        <path d="M15.4329305,11.6147783 L12.8945619,11.6147783 C13.3602655,10.0069417 14.3035724,8.95243402 15.7244827,8.45125542 C17.145393,7.95007682 18.853845,7.99841751 20.8498388,8.5962775 L21.7690719,5.71904261 C18.4503261,4.79166633 15.7550795,4.81418637 13.683332,5.78660272 C11.6115845,6.75901907 10.2322091,8.70174428 9.54520607,11.6147783 L7.82906284,11.6147783 L6.93,14.2054713 L9.12947625,14.2054713 L9.12947625,15.8807545 L7.7322314,15.8807545 L6.93,18.4039895 L9.40185244,18.4039895 C9.96172563,21.542291 11.4685741,23.6223653 13.9223979,24.6442125 C15.8620348,25.4519367 19.093452,25.2638462 20.3819208,24.8080916 C21.2409,24.5042552 21.7969264,24.2648805 22.05,24.0899677 L21.3203739,21.2688879 C19.3276906,22.2029622 17.5630946,22.4177595 16.0265861,21.9132798 C14.4900775,21.4088001 13.4460695,20.2390367 12.8945619,18.4039895 L18.0505176,18.4039895 L18.8217468,15.8807545 L12.4785827,15.8807545 C12.4785827,15.5614307 12.4785827,15.3078459 12.4785827,15.12 C12.4785827,14.9321541 12.4785827,14.6273112 12.4785827,14.2054713 L19.3216064,14.2054713 L20.0339181,11.6147783 L17.0970994,11.6147783" id="Path" fill="#00ADB2"></path>
                    </g>
                </g>
            </g>
        </g>
    </g>
</svg>