<svg xmlns="http://www.w3.org/2000/svg" xmlns:xlink="http://www.w3.org/1999/xlink" width="208" height="166" viewBox="0 0 208 166">
  <defs>
    <path id="icon_archivformulare-a" d="M13.0472992,33 L93.8493221,33 C96.0584611,33 97.8493221,34.790861 97.8493221,37 C97.8493221,37.292236 97.8172967,37.583592 97.7538193,37.8688507 L87.0725887,85.8688507 C86.6654537,87.6984605 85.042453,89 83.1680915,89 L9.32243152,89 C7.11329252,89 5.32243152,87.209139 5.32243152,85 C5.32243152,84.8967255 5.32643113,84.7934897 5.33442136,84.6905248 L9.05928908,36.6905248 C9.22092088,34.6076787 10.9581911,33 13.0472992,33 Z"/>
  </defs>
  <g fill="none" fill-rule="evenodd" transform="translate(55 39)">
    <use fill="#DEDEDE" xlink:href="#icon_archivformulare-a" style="mix-blend-mode:multiply"/>
    <path stroke="#DEDEDE" stroke-width="1.5" d="M93.8493221,32.25 L13.0472992,32.25 C11.8068913,32.25 10.6709352,32.7272796 9.82108891,33.5137317 C8.9712426,34.3001838 8.40750606,35.3958083 8.31153718,36.6324982 L4.57252528,84.9698241 C4.56430253,86.2934574 5.09750641,87.4925893 5.96367431,88.3587572 C6.82325524,89.2183381 8.01075524,89.75 9.32243152,89.75 L83.1680915,89.75 C84.2809937,89.75 85.319273,89.3636055 86.139761,88.7056282 C86.960249,88.047651 87.5629455,87.1180911 87.804682,86.0317602 L98.4859125,38.0317602 C98.5612919,37.6930155 98.5993221,37.3470303 98.5993221,37 C98.5993221,35.6883237 98.0676603,34.5008237 97.2080793,33.6412428 C96.3484984,32.7816619 95.1609984,32.25 93.8493221,32.25 Z"/>
    <path fill="#FF5300" stroke="#242424" stroke-width="1.5" d="M88.2390197,31.25 L8.28326802,31.25 C7.04555479,31.25 5.91159197,31.7252725 5.06220679,32.5089737 C4.21282161,33.292675 3.64801407,34.384805 3.54861142,35.6185202 L-0.414649145,84.9686745 C-0.423187853,86.2927631 0.110073971,87.4923386 0.976492615,88.3587572 C1.83607354,89.2183381 3.02357354,89.75 4.33524983,89.75 L79.6620115,89.75 C80.8157024,89.75 81.8859586,89.3354546 82.7175217,88.6368059 C83.5490847,87.9381573 84.1419548,86.9554055 84.3408736,85.8189926 L92.9178819,36.8189926 C92.965218,36.5485639 92.9890197,36.2745404 92.9890197,36 C92.9890197,34.6883237 92.4573578,33.5008237 91.5977769,32.6412428 C90.738196,31.7816619 89.550696,31.25 88.2390197,31.25 Z"/>
    <rect width="25" height="1" x="39" y="38" fill="#F2F2F2" stroke="#242424" stroke-linejoin="round"/>
    <g transform="translate(24)">
      <polygon fill="#DEDEDE" points="5 1 57 1 57 29.061 46 39 5 39" transform="matrix(1 0 0 -1 0 40)" style="mix-blend-mode:multiply"/>
      <path fill="#FFF" stroke="#242424" stroke-linecap="round" stroke-linejoin="round" stroke-width="1.5" d="M52,20.4978539 L52,28.0606663 L41,38 L0,38 L0,-3.55271368e-15 L52,-3.55271368e-15 L52,12.7387592 M52,16.3035926 L52,17.1848986" transform="matrix(1 0 0 -1 0 38)"/>
      <path fill="#C8C8C8" stroke="#242424" stroke-width="1.5" d="M52,3.9571691 L41.6226483,13.8965028 L39,13.8965028 C40.7481233,13.8965028 41.6213072,12.6203638 41.6195518,10.0680858 C41.6192978,9.69873142 41.6259989,9.61755752 41.6226483,7.33212863 C41.6192978,5.04669974 42.3195371,3.40493782 44.5542972,3.40493782 C46.191848,3.40493782 47.7568617,3.40493782 49.2493383,3.40493782 C51.0831128,3.15744664 52,2.25260235 52,0.690404952 C52,-0.871792447 52,0.217128936 52,3.9571691 Z" transform="matrix(1 0 0 -1 0 13.897)"/>
      <rect width="16.5" height="6.5" x="14.75" y="8.75" fill="#F2F2F2" stroke="#242424" stroke-width="1.5"/>
      <rect width="25" height="1" x="15" y="22" fill="#F2F2F2" stroke="#242424" stroke-linejoin="round"/>
      <rect width="25" height="1" x="15" y="29" fill="#F2F2F2" stroke="#242424" stroke-linejoin="round"/>
    </g>
    <path fill="#DEDEDE" d="M0,31 C-1.3527075e-16,29.8954305 0.8954305,29 2,29 L30.6705143,29 C31.3812721,29 32.0386325,29.3772156 32.3972582,29.990864 L37.078,38 L87.4299824,38 C88.5345519,38 89.4299824,38.8954305 89.4299824,40 C89.4299824,40.0802214 89.4251558,40.1603701 89.4155288,40.2400117 L83.7341958,87.2400117 C83.612781,88.2444411 82.7603905,89 81.7486494,89 L2,89 C0.8954305,89 1.3527075e-16,88.1045695 0,87 L0,31 Z" style="mix-blend-mode:normal"/>
    <path fill="#FFC9AE" stroke="#242424" stroke-width="1.5" d="M29.0500948,28.25 L2,28.25 C1.24060847,28.25 0.553108469,28.5578042 0.0554563517,29.0554564 C-0.442195766,29.5531085 -0.75,30.2406085 -0.75,31 L-0.75,87 C-0.75,87.7593915 -0.442195766,88.4468915 0.0554563517,88.9445436 C0.553108469,89.4421958 1.24060847,89.75 2,89.75 L81,89.75 C81.7593915,89.75 82.4468915,89.4421958 82.9445436,88.9445436 C83.4421958,88.4468915 83.75,87.7593915 83.75,87 L83.75,39 C83.75,38.2406085 83.4421958,37.5531085 82.9445436,37.0554564 C82.4468915,36.5578042 81.7593915,36.25 81,36.25 L35.1094877,36.25 L31.4544286,29.6652045 C31.2119418,29.2284446 30.8606119,28.8746584 30.4450228,28.6300473 C30.0294337,28.3854361 29.5495854,28.25 29.0500948,28.25 Z"/>
  </g>
</svg>
