<?xml version="1.0" encoding="UTF-8"?>
<svg width="71px" height="94px" viewBox="0 0 71 94" version="1.1" xmlns="http://www.w3.org/2000/svg" xmlns:xlink="http://www.w3.org/1999/xlink">
    <title>Group 9</title>
    <defs>
        <linearGradient x1="50%" y1="0%" x2="50%" y2="161.684949%" id="linearGradient-1">
            <stop stop-color="#FFF6E4" offset="0%"></stop>
            <stop stop-color="#FF5300" offset="100%"></stop>
        </linearGradient>
    </defs>
    <g id="01_Design" stroke="none" stroke-width="1" fill="none" fill-rule="evenodd">
        <g id="03_Andere_dienstleistungen-Copy" transform="translate(-692.000000, -687.000000)">
            <g id="eID_service-Button_off" transform="translate(616.000000, 646.000000)">
                <g id="Group-9" transform="translate(77.000000, 42.000000)">
                    <rect id="Rectangle" fill="#DEDEDE" x="4.38095238" y="4.38095238" width="52" height="52" rx="9.93124523"></rect>
                    <path d="M51.5,29 L51.5,33 M52,37.3584726 L52,41.1550802 C52,47.144564 47.144564,52 41.1550802,52 L10.8449198,52 C4.85543598,52 0,47.144564 0,41.1550802 L0,10.8449198 C0,4.85543598 4.85543598,0 10.8449198,0 L41.1550802,0 C47.144564,0 52,4.85543598 52,10.8449198 L52,25.4753857 L52,25.4753857" id="Shape" stroke="#242424" stroke-width="1.5" fill="#F8F8F8" stroke-linecap="round" stroke-linejoin="round"></path>
                    <path d="M44.5261013,25.7950363 C44.5261013,35.0756831 37.7483514,42.7733015 28.8726886,44.2080544 L28.8733965,37.1869115 C33.9247228,35.8601679 37.6506239,31.2627175 37.6506239,25.7950363 C37.6506239,20.327355 33.9247228,15.7299046 28.8733965,14.403161 L28.8726886,7.38201814 C37.7483514,8.81677103 44.5261013,16.5143895 44.5261013,25.7950363 Z M22.8726787,7.38218046 L22.8719735,14.4034241 C17.8211561,15.7305122 14.0957474,20.3277163 14.0957474,25.7950363 C14.0957474,31.2623562 17.8211561,35.8595604 22.8719735,37.1866485 L22.8726787,44.2078921 C13.9975088,42.772721 7.22026993,35.0753331 7.22026993,25.7950363 C7.22026993,16.5147394 13.9975088,8.81735151 22.8726787,7.38218046 Z" id="Combined-Shape" stroke="#242424" stroke-width="1.5" fill="url(#linearGradient-1)" stroke-linejoin="round"></path>
                    <g id="Group-11" transform="translate(26.000000, 42.000000)">
                        <path d="M18.4297042,2 C20.2489951,2 21.7238218,3.57595768 21.7238218,5.52 L21.7232171,27.8001638 C22.0483749,27.6304064 22.3818912,27.4713532 22.7231086,27.3235709 L22.7238219,15.5 C22.7238219,13.5670034 24.2908253,12 26.2238219,12 C28.1568185,12 29.7238219,13.5670034 29.7238219,15.5 L29.7238104,26.007292 C30.0601917,26.0171183 30.3936667,26.0368219 30.7238577,26.066077 L30.7238219,17 C30.7238219,15.3431458 32.0669677,14 33.7238219,14 C35.3806762,14 36.7238219,15.3431458 36.7238219,17 L36.7241084,27.7999976 C37.0668371,27.9789179 37.4002799,28.1697304 37.7236672,28.3717713 L37.7238219,21 C37.7238219,19.3431458 39.0669677,18 40.7238219,18 C42.3806762,18 43.7238219,19.3431458 43.7238219,21 L43.7238219,38 L43.7188707,38.1701224 C43.7221647,38.2797362 43.7238219,38.3897013 43.7238219,38.5 C43.7238219,45.4035594 37.2319508,51 29.2238219,51 C24.0247118,51 19.4647019,48.6411093 16.9053639,45.0970965 C16.7146546,44.9544393 16.5398908,44.7922218 16.3844761,44.6120137 L4.42684434,30.7467824 C2.73922075,28.7899324 2.52740026,25.960457 3.90485828,23.7741486 C4.85200498,22.2708325 6.83849757,21.8199681 8.34181367,22.7671148 C8.61171681,22.9371641 8.85482768,23.1464105 9.0631674,23.3879867 L14.723,29.951 L14.7238218,5.52 C14.7238218,3.57595768 16.1986485,2 18.0179395,2 L18.4297042,2 Z" id="Combined-Shape-Copy" fill="#DEDEDE" style="mix-blend-mode: darken;"></path>
                        <path d="M15.4297042,0 C17.2489951,0 18.7238218,1.57595768 18.7238218,3.52 L18.7235769,23.8719749 C19.0486909,23.6954626 19.3821607,23.5300794 19.723329,23.3764145 L19.7238219,13.5 C19.7238219,11.5670034 21.2908253,10 23.2238219,10 C25.1568185,10 26.7238219,11.5670034 26.7238219,13.5 L26.7235205,22.0075749 C27.0599705,22.0177903 27.3935133,22.0382824 27.7237707,22.068712 L27.7238219,16 C27.7238219,14.3431458 29.0669677,13 30.7238219,13 C32.3806762,13 33.7238219,14.3431458 33.7238219,16 L33.7230578,23.8714271 C34.0662858,24.0577398 34.4002028,24.2564557 34.7240357,24.4668816 L34.7238219,20 C34.7238219,18.3431458 36.0669677,17 37.7238219,17 C39.3806762,17 40.7238219,18.3431458 40.7238219,20 L40.7238219,35 C40.7238219,36.9139246 40.2624972,38.7312474 39.4341022,40.3674645 C39.0435986,41.1387734 38.5715263,41.8698378 38.0277585,42.5518057 C37.3699481,43.3768004 36.6072157,44.1299454 35.7570408,44.7955694 C33.2082294,46.7911 29.8734922,48 26.2238219,48 C21.2380114,48 16.8399372,45.7439191 14.2303717,42.3083121 C14.1885387,42.2837184 14.1470031,42.2588263 14.1058299,42.2328856 C13.8359267,42.0628363 13.5928158,41.8535899 13.3844761,41.6120137 L1.42684434,27.7467824 C-0.260779251,25.7899324 -0.472599742,22.960457 0.904858282,20.7741486 C1.85200498,19.2708325 3.83849757,18.8199681 5.34181367,19.7671148 C5.61171681,19.9371641 5.85482768,20.1464105 6.0631674,20.3879867 L11.723,26.951 L11.7238218,3.52 C11.7238218,1.57595768 13.1986485,0 15.0179395,0 L15.4297042,0 Z" id="Combined-Shape" stroke="#242424" stroke-width="1.5" fill="#F8F8F8" stroke-linejoin="round"></path>
                    </g>
                </g>
            </g>
        </g>
    </g>
</svg>