<?xml version="1.0" encoding="UTF-8"?>
<svg width="137px" height="107px" viewBox="0 0 137 107" version="1.1" xmlns="http://www.w3.org/2000/svg" xmlns:xlink="http://www.w3.org/1999/xlink">
    <title>icon_zeit</title>
    <g id="icon_zeit" stroke="none" stroke-width="1" fill="none" fill-rule="evenodd">
        <g id="Group-24" transform="translate(29.000000, 0.000000)">
            <circle id="Oval" fill="#00ADB2" transform="translate(47.000000, 47.000000) rotate(-140.000000) translate(-47.000000, -47.000000) " cx="47" cy="47" r="32"></circle>
            <path d="M58.0823563,78.9 C69.8719579,74.1610429 78.2,62.5797252 78.2,49.0445052 C78.2,31.2915852 63.873112,16.9 46.2,16.9 C28.526888,16.9 14.2,31.2915852 14.2,49.0445052 C14.2,56.8828262 16.9929192,64.0658803 21.6336345,69.6442764 C21.6357412,69.6468087 29.8245297,62.7802183 46.2,49.0445052 L58.0823563,78.9 Z" id="Path" fill="#99DEE0" transform="translate(46.200000, 47.900000) rotate(-140.000000) translate(-46.200000, -47.900000) "></path>
            <polyline id="Path-3-Copy-2" stroke="#1B1B1B" stroke-width="2.184" stroke-linecap="round" stroke-linejoin="round" transform="translate(56.552256, 38.419213) scale(1, -1) rotate(338.000000) translate(-56.552256, -38.419213) " points="49.4815781 49.6867482 51.5571701 27.1516776 63.6229346 32.0265629"></polyline>
            <line x1="61.7577957" y1="7.43640807" x2="55.7324023" y2="1.96359193" id="Path-3" stroke="#1B1B1B" stroke-width="2.4" stroke-linecap="round" stroke-linejoin="round" transform="translate(58.745099, 4.700000) rotate(-338.000000) translate(-58.745099, -4.700000) "></line>
            <line x1="59.2725288" y1="14.3204631" x2="55.1015031" y2="7.7424924" id="Path-3-Copy" stroke="#1B1B1B" stroke-width="2.4" stroke-linecap="round" stroke-linejoin="round" transform="translate(57.187016, 11.031478) scale(1, -1) rotate(338.000000) translate(-57.187016, -11.031478) "></line>
            <path d="M84.2342719,65.9391608 C86.9880112,60.406677 88.5366765,54.1688916 88.5366765,47.569396 C88.5366765,24.7710815 70.054991,6.28939597 47.2566765,6.28939597 C24.4583621,6.28939597 5.97667655,24.7710815 5.97667655,47.569396 C5.97667655,66.7433976 19.0492658,82.8641324 36.767922,87.5050781 C37.7075705,87.7511948 38.6602853,87.9650263 39.6248097,88.1453159 M44.608616,88.7658287 C44.8276417,88.7796951 45.0471312,88.7918535 45.2670715,88.8022906 M49.3132489,88.7990589 C49.3505743,88.7972276 49.3878866,88.7953467 49.4251858,88.7934163 C49.658694,88.7813313 49.8916889,88.7673059 50.1241549,88.7513558 M53.604049,88.3644156 C53.8301665,88.3295198 54.0556783,88.292789 54.2805687,88.2542389 M56.8377918,87.7317722 C57.1605292,87.6550665 57.4817985,87.5745714 57.8015503,87.4903366 M61.2840218,86.404949 C61.5162886,86.3210393 61.747587,86.2351052 61.9778958,86.147168 C62.2007383,86.0620816 62.4226543,85.9751199 62.6436245,85.8863021" id="Shape" stroke="#1B1B1B" stroke-width="2.4" stroke-linecap="round" stroke-linejoin="round" transform="translate(47.256677, 47.545843) rotate(-98.000000) translate(-47.256677, -47.545843) "></path>
        </g>
    </g>
</svg>