<svg xmlns="http://www.w3.org/2000/svg" width="208" height="166" viewBox="0 0 208 166">
  <g fill="none" fill-rule="evenodd" transform="translate(51 35)">
    <rect width="79.72" height="58.663" x="17.772" y="11.848" fill="#DEDEDE" stroke="#DEDEDE" stroke-width="1.5" rx="4.011"/>
    <path fill="#F8F8F8" stroke="#242424" stroke-width="1.5" d="M63.1504133,68.75 L42.8495867,68.75 L45.0854464,86.6368778 C45.2501603,87.9545895 45.8925929,89.10787 46.8258385,89.9317227 C47.7590841,90.7555753 48.9831428,91.25 50.3111092,91.25 L55.6888908,91.25 C57.0168572,91.25 58.2409159,90.7555753 59.1741615,89.9317227 C60.1074071,89.10787 60.7498397,87.9545895 60.9145536,86.6368778 L63.1504133,68.75 Z" transform="rotate(-180 53 80)"/>
    <path fill="#DEDEDE" stroke="#DEDEDE" stroke-width="1.5" d="M48.8750479,63.487712 L9.75,63.4881382 L9.75,68.2531156 C9.75,69.7073725 10.3394541,71.023955 11.2924724,71.9769733 C12.2454906,72.9299916 13.5620732,73.5194456 15.01633,73.5194456 L100.749033,73.5194456 C102.20329,73.5194456 103.519872,72.9299916 104.472891,71.9769733 C105.425909,71.023955 106.015363,69.7073725 106.015363,68.2531156 L106.015363,63.4970927 L67.3687538,63.955368 C67.2999277,64.7215067 67.1400999,65.1449177 66.9160665,65.5638238 C66.5829605,66.1866778 66.0941409,66.6754974 65.4712869,67.0086034 C64.9034928,67.312263 64.3280402,67.4990331 62.8824466,67.4990331 L53.139647,67.4971539 C51.8746051,67.4767299 51.3313349,67.2952046 50.7954371,67.0086034 C50.172583,66.6754974 49.6837635,66.1866778 49.2922731,65.4508767 C49.0723051,65.00924 48.9214019,64.5313023 48.8750479,63.487712 Z"/>
    <rect width="104.5" height="72.5" x=".75" y=".93" fill="#F8F8F8" stroke="#242424" stroke-width="1.5" rx="9"/>
    <path fill="#FFC9AE" stroke="#242424" stroke-linecap="round" stroke-linejoin="round" stroke-width="1.5" d="M101,23 L101,26 M101,30.2805315 L101,52.0961538 C101,54.8044733 98.807109,57 96.1020408,57 L9.89795918,57 C7.19289102,57 5,54.8044733 5,52.0961538 L5,10.9038462 C5,8.19552671 7.19289102,6 9.89795918,6 L96.1020408,6 C98.807109,6 101,8.19552671 101,10.9038462 L101,17.0483266 L101,19.0483266"/>
    <g stroke="#242424" transform="translate(27 19)">
      <g stroke-width="1.5" transform="matrix(1 0 0 -1 0 38)">
        <polygon fill="#FFF" stroke-linejoin="round" points="0 0 52 0 52 28.061 41 38 0 38"/>
        <path fill="#C8C8C8" d="M52,28.0606663 L41.6226483,38 L39,38 C40.7481233,38 41.6213072,36.723861 41.6195518,34.1715829 C41.6192978,33.8022286 41.6259989,33.7210547 41.6226483,31.4356258 C41.6192978,29.1501969 42.3195371,27.508435 44.5542972,27.508435 C46.191848,27.508435 47.7568617,27.508435 49.2493383,27.508435 C51.0831128,27.2609438 52,26.3560995 52,24.7939021 C52,23.2317047 52,24.3206261 52,28.0606663 Z"/>
      </g>
      <g transform="translate(7 5)">
        <rect width="25.5" height="5.5" x=".75" y=".75" fill="#FF7735" stroke-width="1.5"/>
        <rect width="35" height="1" y="26" fill="#F2F2F2" stroke-linejoin="round"/>
        <rect width="35" height="1" y="12" fill="#F2F2F2" stroke-linejoin="round"/>
        <rect width="35" height="1" y="19" fill="#F2F2F2" stroke-linejoin="round"/>
      </g>
    </g>
    <path fill="#F8F8F8" stroke="#242424" stroke-width="1.5" d="M67.5,90.75 L38.5,90.75 C38.0167508,90.75 37.5792508,90.9458754 37.2625631,91.2625631 C36.9458754,91.5792508 36.75,92.0167508 36.75,92.5 C36.75,92.9832492 36.9458754,93.4207492 37.2625631,93.7374369 C37.5792508,94.0541246 38.0167508,94.25 38.5,94.25 L67.5,94.25 C67.9832492,94.25 68.4207492,94.0541246 68.7374369,93.7374369 C69.0541246,93.4207492 69.25,92.9832492 69.25,92.5 C69.25,92.0167508 69.0541246,91.5792508 68.7374369,91.2625631 C68.4207492,90.9458754 67.9832492,90.75 67.5,90.75 Z"/>
  </g>
</svg>
