<?xml version="1.0" encoding="UTF-8"?>
<svg width="208px" height="166px" viewBox="0 0 208 166" version="1.1" xmlns="http://www.w3.org/2000/svg" xmlns:xlink="http://www.w3.org/1999/xlink">
    <title>icon_expresstermin</title>
    <defs>
        <linearGradient x1="61.3506288%" y1="59.07259%" x2="42.8878201%" y2="41.3757984%" id="linearGradient-1">
            <stop stop-color="#008A8E" offset="0%"></stop>
            <stop stop-color="#66CED1" offset="100%"></stop>
        </linearGradient>
    </defs>
    <g id="icon_expresstermin" stroke="none" stroke-width="1" fill="none" fill-rule="evenodd">
        <g id="icon_terminbuchung" transform="translate(67.000000, 42.000000)">
            <rect id="Rectangle" fill="#F2F2F2" x="7" y="9" width="75" height="81" rx="5"></rect>
            <path d="M21.9661546,84 L5.84615385,84 C2.61741223,84 0,81.2346999 0,77.8235294 L0,15.1764706 C0,11.7653001 2.61741223,9 5.84615385,9 L70.1538462,9 C73.3825878,9 76,11.7653001 76,15.1764706 L76,77.8235294 C76,81.2346999 73.3825878,84 70.1538462,84 L41.607383,84 L36.9561774,84 M30,84.5 L28,84.5" id="Shape" stroke="#242424" stroke-width="1.5" fill="#F2F2F2" stroke-linecap="round" stroke-linejoin="round"></path>
            <path d="M3.73333333,3 L72.2666667,3 C74.3285297,3 76,4.67147027 76,6.73333333 L76,62.5357389 L76,62.5357389 L60.4339725,79 L3.73333333,79 C1.67147027,79 9.82563329e-15,77.3285297 0,75.2666667 L0,6.73333333 C-2.525054e-16,4.67147027 1.67147027,3 3.73333333,3 Z" id="Rectangle" stroke="#242424" stroke-width="1.5" fill="#99DEE0" stroke-linejoin="round"></path>
            <rect id="Rectangle-Copy-8" stroke="#242424" stroke-width="1.5" fill="#D8D8D8" x="32.75" y="0.75" width="1.5" height="4.9" rx="0.75"></rect>
            <rect id="Rectangle-Copy-11" stroke="#242424" stroke-width="1.5" fill="#D8D8D8" x="22.75" y="0.75" width="1.5" height="4.9" rx="0.75"></rect>
            <rect id="Rectangle-Copy-20" stroke="#242424" stroke-width="1.5" fill="#D8D8D8" x="13.75" y="0.75" width="1.5" height="4.9" rx="0.75"></rect>
            <rect id="Rectangle-Copy-9" stroke="#242424" stroke-width="1.5" fill="#D8D8D8" x="41.75" y="0.75" width="1.5" height="4.9" rx="0.75"></rect>
            <rect id="Rectangle-Copy-10" stroke="#242424" stroke-width="1.5" fill="#D8D8D8" x="51.75" y="0.75" width="1.5" height="4.9" rx="0.75"></rect>
            <rect id="Rectangle-Copy-14" stroke="#242424" stroke-width="1.5" fill="#D8D8D8" x="60.75" y="0.75" width="1.5" height="4.9" rx="0.75"></rect>
            <g id="Group-2" transform="translate(10.000000, 30.000000)" fill="#EFEFEF" stroke="#242424" stroke-width="1.5">
                <circle id="Oval" cx="11.6853933" cy="5.39325843" r="4.64325843"></circle>
                <path d="M11.6853933,10.738764 C14.0828361,10.738764 16.1027268,11.515287 17.7393435,13.0821228 C19.4359435,14.7063845 20.7191897,17.1523144 21.6239332,20.3966486 C21.7031969,20.6808814 21.7433826,20.9745849 21.7433826,21.2696629 C21.7433826,22.1671271 21.3796133,22.9796285 20.7914779,23.5677632 C20.2033431,24.1558973 19.3908425,24.519665 18.4933774,24.5196629 L18.4933774,24.5196629 L4.87740475,24.5196629 C4.58232679,24.5196629 4.28862333,24.4794772 4.00439055,24.4002135 C3.1399118,24.1591373 2.45498862,23.5904845 2.04645465,22.8659811 C1.63792098,22.1414782 1.50577617,21.261125 1.74685401,20.396646 C2.65159765,17.1523127 3.93484375,14.7063835 5.63144369,13.0821222 C7.26806025,11.5152868 9.28795073,10.738764 11.6853933,10.738764 Z" id="Oval"></path>
            </g>
            <g id="Group-2-Copy" transform="translate(43.000000, 30.000000)" fill="#F2F2F2" stroke="#242424" stroke-width="1.5">
                <circle id="Oval" cx="11.6853933" cy="5.39325843" r="4.64325843"></circle>
                <path d="M11.6853933,10.738764 C14.0828361,10.738764 16.1027268,11.515287 17.7393435,13.0821228 C19.4359435,14.7063845 20.7191897,17.1523144 21.6239332,20.3966486 C21.7031969,20.6808814 21.7433826,20.9745849 21.7433826,21.2696629 C21.7433826,22.1671271 21.3796133,22.9796285 20.7914779,23.5677632 C20.2033431,24.1558973 19.3908425,24.519665 18.4933774,24.5196629 L18.4933774,24.5196629 L4.87740475,24.5196629 C4.58232679,24.5196629 4.28862333,24.4794772 4.00439055,24.4002135 C3.1399118,24.1591373 2.45498862,23.5904845 2.04645465,22.8659811 C1.63792098,22.1414782 1.50577617,21.261125 1.74685401,20.396646 C2.65159765,17.1523127 3.93484375,14.7063835 5.63144369,13.0821222 C7.26806025,11.5152868 9.28795073,10.738764 11.6853933,10.738764 Z" id="Oval"></path>
            </g>
            <path d="M37.8333335,17.25 C39.9267308,17.25 41.8216838,18.0922811 43.1934597,19.4532556 C44.56739,20.8163675 45.416667,22.6996322 45.416667,24.7795277 C45.416667,26.8594233 44.56739,28.7426879 43.1934597,30.1057998 C41.8216838,31.4667744 39.9267308,32.3090554 37.8333335,32.3090554 C37.3305324,32.3090554 36.8391836,32.2603878 36.3637854,32.1676389 L36.3637854,32.1676389 L31.2769394,36.14545 L32.2614503,29.8871305 C31.0125349,28.5446565 30.25,26.7503584 30.25,24.7795277 C30.25,22.6996322 31.099277,20.8163675 32.4732073,19.4532556 C33.8449832,18.0922811 35.7399362,17.25 37.8333335,17.25 Z" id="Combined-Shape" stroke="#242424" stroke-width="1.5" fill="#F8F8F8" stroke-linejoin="round" transform="translate(37.833333, 26.191420) rotate(-90.000000) translate(-37.833333, -26.191420) "></path>
            <path d="M76,63.023112 L60.3320313,79 L49,79 C53.657095,79 55.9839497,77.3592498 55.9805642,74.0777494 C55.9800742,73.6028653 55.9929978,73.4984989 55.986536,70.5600903 C55.9800742,67.6216817 57.3305357,65.510845 61.6404304,65.510845 C64.7985639,65.510845 67.8168046,65.510845 70.6951524,65.510845 C74.2317175,63.9495326 76,62.1646066 76,60.1560671 C76,58.1475276 76,59.1032092 76,63.023112 Z" id="Path-4" fill-opacity="0.2" fill="#000000"></path>
            <path d="M76,62.5357389 L60.4339725,79 L55,79 C58.622185,79 60.4319609,77.0857915 60.4293277,73.2573744 C60.4289466,72.7033429 60.4389983,72.581582 60.4339725,69.1534387 C60.4289466,65.7252953 61.4793056,63.2626525 64.8314459,63.2626525 C67.287772,63.2626525 69.6352925,63.2626525 71.8740074,63.2626525 C74.6246691,62.8914157 76,61.5341493 76,59.1908532 C76,56.8475571 76,57.962519 76,62.5357389 Z" id="Path-4" stroke="#242424" stroke-width="1.5" fill="url(#linearGradient-1)"></path>
        </g>
    </g>
</svg>