<svg xmlns="http://www.w3.org/2000/svg" width="208" height="166" viewBox="0 0 208 166">
  <g fill="none" fill-rule="evenodd" transform="translate(49 43)">
    <path fill="#DEDEDE" d="M89.2313422,4 C91.4464938,4 93.2422289,5.79573514 93.2422289,8.01088669 L93.242,55.64 L101.765363,55.6401662 L101.765363,61.1551354 C101.765363,64.4778627 99.0717604,67.1714654 95.7490331,67.1714654 L10.01633,67.1714654 C6.69360271,67.1714654 4,64.4778627 4,61.1551354 L4,55.6401662 L12.021,55.64 L12.0217734,8.01088669 C12.0217734,5.79573514 13.8175085,4 16.0326601,4 L89.2313422,4 Z"/>
    <rect width="79.72" height="58.663" x="8.772" y=".75" fill="#F8F8F8" stroke="#242424" stroke-width="1.5" rx="4.011"/>
    <rect width="72.5" height="44.5" x="12.25" y="4.75" fill="#FFB692" stroke="#242424" stroke-width="1.5" rx="4.011"/>
    <path fill="#F8F8F8" stroke="#242424" stroke-width="1.5" d="M39.8750479,52.3897318 L0.75,52.390158 L0.75,57.1551354 C0.75,58.6093923 1.33945407,59.9259748 2.29247236,60.878993 C3.24549065,61.8320113 4.56207315,62.4214654 6.01633004,62.4214654 L91.7490331,62.4214654 C93.20329,62.4214654 94.5198725,61.8320113 95.4728908,60.878993 C96.4259091,59.9259748 97.0153631,58.6093923 97.0153631,57.1551354 L97.0153631,52.3991125 L58.3687538,52.8573877 C58.2999277,53.6235265 58.1400999,54.0469374 57.9160665,54.4658435 C57.5829605,55.0886976 57.0941409,55.5775171 56.4712869,55.9106231 C55.9034928,56.2142827 55.3280402,56.4010529 53.8824466,56.4010529 L44.139647,56.3991737 C42.8746051,56.3787496 42.3313349,56.1972244 41.7954371,55.9106231 C41.172583,55.5775171 40.6837635,55.0886976 40.2922731,54.3528965 C40.0723051,53.9112598 39.9214019,53.4333221 39.8750479,52.3897318 Z"/>
    <g transform="translate(77 25)">
      <path fill="#DEDEDE" d="M43.25,23.75 L43.25,26.75 M43.75,32.1222866 C43.75,34.0096968 43.75,35.003751 43.75,38.7785714 C43.75,41.5242156 41.3079168,43.75 38.2954545,43.75 L-0.795454545,43.75 C-3.80791682,43.75 -6.25,41.5242156 -6.25,38.7785714 L-6.25,19.7214286 C-6.25,16.9757844 -3.80791682,14.75 -0.795454545,14.75 L36.888613,14.75 L38.2954545,14.75 C41.3079168,14.75 43.75,16.9757844 43.75,19.7214286 L43.75,20.6655407 L43.75,22.1444913" transform="rotate(-90 19 29.25)" style="mix-blend-mode:darken"/>
      <path fill="#F8F8F8" stroke="#242424" stroke-linecap="round" stroke-linejoin="round" stroke-width="1.5" d="M39.25,32.1222866 C39.25,34.0096968 39.25,31.003751 39.25,34.7785714 C39.25,37.5242156 36.8079168,39.75 33.7954545,39.75 L-5.29545455,39.75 C-8.30791682,39.75 -10.75,37.5242156 -10.75,34.7785714 L-10.75,15.7214286 C-10.75,12.9757844 -8.30791682,10.75 -5.29545455,10.75 L32.388613,10.75 L33.7954545,10.75 C36.8079168,10.75 39.25,12.9757844 39.25,15.7214286 L39.25,24.6655407 M39.25,28.25 L39.25,29.25" transform="rotate(-90 14.5 25.25)"/>
      <rect width="25" height="34" x="2" y="6" fill="#FFE2D4"/>
      <line x1=".5" x2="25.5" y1="41.5" y2="41.5" stroke="#242424" stroke-linecap="round" stroke-width="1.5"/>
      <line x1="12" x2="17.5" y1="4" y2="4" stroke="#242424" stroke-linecap="round" stroke-width="1.5"/>
      <circle cx="14.5" cy="46.5" r="1.5" fill="#242424" transform="rotate(-90 14.5 46.5)"/>
    </g>
  </g>
</svg>
