<?xml version="1.0" encoding="UTF-8"?>
<svg width="111px" height="106px" viewBox="0 0 111 106" version="1.1" xmlns="http://www.w3.org/2000/svg" xmlns:xlink="http://www.w3.org/1999/xlink">
    <title>ICON-Behörden</title>
    <g id="01_Design" stroke="none" stroke-width="1" fill="none" fill-rule="evenodd">
        <g id="03_Andere_dienstleistungen-Copy" transform="translate(-663.000000, -961.000000)">
            <g id="behoerde-Button_off" transform="translate(616.000000, 926.000000)">
                <g id="ICON-Behörden" transform="translate(48.000000, 36.000000)">
                    <g id="Group-23" transform="translate(69.000000, 0.000000)">
                        <path d="M40.6844106,24.7148289 L40.6844106,25.095057 L38.3987218,25.0956847 C38.3988972,25.1033831 38.3990673,25.1110827 38.399232,25.1187837 L38.4030418,25.4752852 L38.4030418,90.1140684 L5.70342205,90.1140684 L5.70342205,25.4752852 L5.70645239,25.1573071 L5.70805323,25.095 L38.3987218,25.0956847 C38.3958155,24.9681129 38.3914479,24.840902 38.3856352,24.7140681 L40.6844106,24.7148289 Z M22.4334601,-3.83693077e-13 L22.4341743,5.72438655 C24.1448382,5.91385355 25.4752852,7.36429315 25.4752852,9.12547529 C25.4752852,9.24534225 25.4691222,9.36376977 25.4570959,9.48045829 C32.6125285,10.9949714 38.0408789,17.1914334 38.3856352,24.7140681 L5.72080492,24.7145882 C5.71406923,24.8616626 5.70927669,25.009244 5.70645239,25.1573071 L5.70805323,25.095 L3.42205323,25.095057 L3.42205323,24.7148289 L5.72080492,24.7145882 C6.06532034,17.1920628 11.4933136,10.9955599 18.6496192,9.48024498 C18.6373416,9.36376977 18.6311787,9.24534225 18.6311787,9.12547529 C18.6311787,7.363947 19.9621487,5.91328342 21.6732982,5.72427498 L21.6730038,-3.83693077e-13 L22.4334601,-3.83693077e-13 Z" id="Combined-Shape" fill="#DEDEDE" style="mix-blend-mode: multiply;"></path>
                        <path d="M37.2623574,24.7148289 L37.2623574,25.095057 L34.9766686,25.0956847 C34.976844,25.1033831 34.9770141,25.1110827 34.9771788,25.1187837 L34.9809886,25.4752852 L34.9809886,90.1140684 L2.28136882,90.1140684 L2.28136882,25.4752852 L2.28439916,25.1573071 L2.286,25.095 L34.9766686,25.0956847 C34.9737622,24.9681129 34.9693946,24.840902 34.9635819,24.7140681 L37.2623574,24.7148289 Z M19.0114068,-3.83693077e-13 L19.0121211,5.72438655 C20.722785,5.91385355 22.0532319,7.36429315 22.0532319,9.12547529 C22.0532319,9.24534225 22.047069,9.36376977 22.0350427,9.48045829 C29.1904753,10.9949714 34.6188257,17.1914334 34.9635819,24.7140681 L2.29875169,24.7145882 C2.29201599,24.8616626 2.28722346,25.009244 2.28439916,25.1573071 L2.286,25.095 L1.98951966e-13,25.095057 L1.98951966e-13,24.7148289 L2.29875169,24.7145882 C2.64326711,17.1920628 8.07126036,10.9955599 15.2275659,9.48024498 C15.2152884,9.36376977 15.2091255,9.24534225 15.2091255,9.12547529 C15.2091255,7.363947 16.5400955,5.91328342 18.251245,5.72427498 L18.2509506,-3.83693077e-13 L19.0114068,-3.83693077e-13 Z" id="Combined-Shape" stroke="#242424" stroke-width="1.5" fill="#FFC9AE"></path>
                        <rect id="Rectangle-Copy-24" stroke="#242424" stroke-width="1.5" fill="#F8F8F8" x="21.9543726" y="30.0380228" width="3.42205323" height="17.4904943"></rect>
                        <rect id="Rectangle-Copy-26" stroke="#242424" stroke-width="1.5" fill="#F8F8F8" x="21.9543726" y="71.1026616" width="3.42205323" height="4.94296578"></rect>
                        <rect id="Rectangle-Copy-32" stroke="#242424" stroke-width="1.5" fill="#F8F8F8" x="21.9543726" y="62.7376426" width="3.42205323" height="4.94296578"></rect>
                        <rect id="Rectangle-Copy-34" stroke="#242424" stroke-width="1.5" fill="#F8F8F8" x="21.9543726" y="54.3726236" width="3.42205323" height="4.94296578"></rect>
                        <rect id="Rectangle-Copy-28" stroke="#242424" stroke-width="1.5" fill="#F8F8F8" x="21.9543726" y="79.4676806" width="3.42205323" height="10.6463878"></rect>
                        <rect id="Rectangle-Copy-25" stroke="#242424" stroke-width="1.5" fill="#F8F8F8" x="11.8859316" y="30.0380228" width="3.42205323" height="17.4904943"></rect>
                        <rect id="Rectangle-Copy-27" stroke="#242424" stroke-width="1.5" fill="#F8F8F8" x="11.8859316" y="71.1026616" width="3.42205323" height="4.94296578"></rect>
                        <rect id="Rectangle-Copy-33" stroke="#242424" stroke-width="1.5" fill="#F8F8F8" x="11.8859316" y="62.7376426" width="3.42205323" height="4.94296578"></rect>
                        <rect id="Rectangle-Copy-35" stroke="#242424" stroke-width="1.5" fill="#F8F8F8" x="11.8859316" y="54.3726236" width="3.42205323" height="4.94296578"></rect>
                        <rect id="Rectangle-Copy-29" stroke="#242424" stroke-width="1.5" fill="#F8F8F8" x="11.8859316" y="79.4676806" width="3.42205323" height="10.6463878"></rect>
                    </g>
                    <g id="Group-22">
                        <path d="M18.6311787,4.97379915e-13 L19.6311787,4.97379915e-13 L19.6311787,9.88593156 L24.7148289,9.88593156 L24.7148289,19.391635 L31.1787072,19.391635 L31.1787072,28.8973384 L35.3612167,28.8973384 L35.3612167,94.6768061 L2.66159696,94.6768061 L2.66159696,28.8973384 L6.84410646,28.8973384 L6.84410646,19.391635 L13.3079848,19.391635 L13.3079848,9.88593156 L18.6311787,9.88593156 L18.6311787,4.97379915e-13 Z" id="Combined-Shape" fill="#DEDEDE" style="mix-blend-mode: multiply;"></path>
                        <g id="Group-2" stroke="#242424">
                            <rect id="Rectangle-Copy-2" stroke-width="1.5" fill="#FFE2D4" x="0" y="28.8973384" width="32.6996198" height="65.7794677"></rect>
                            <rect id="Rectangle-Copy-3" stroke-width="1.5" fill="#FFE2D4" x="4.18250951" y="19.391635" width="24.3346008" height="9.50570342"></rect>
                            <rect id="Rectangle-Copy-4" stroke-width="1.5" fill="#FFE2D4" x="10.6463878" y="9.88593156" width="11.4068441" height="9.50570342"></rect>
                            <rect id="Rectangle-Copy-13" stroke-width="1.5" fill="#F8F8F8" x="6.46387833" y="34.9809886" width="4.94296578" height="4.94296578"></rect>
                            <rect id="Rectangle-Copy-15" stroke-width="1.5" fill="#F8F8F8" x="6.46387833" y="44.8669202" width="4.94296578" height="4.94296578"></rect>
                            <rect id="Rectangle-Copy-17" stroke-width="1.5" fill="#F8F8F8" x="6.46387833" y="54.7528517" width="4.94296578" height="4.94296578"></rect>
                            <rect id="Rectangle-Copy-19" stroke-width="1.5" fill="#F8F8F8" x="6.46387833" y="64.6387833" width="4.94296578" height="4.94296578"></rect>
                            <rect id="Rectangle-Copy-21" stroke-width="1.5" fill="#F8F8F8" x="6.46387833" y="74.5247148" width="4.94296578" height="4.94296578"></rect>
                            <rect id="Rectangle-Copy-14" stroke-width="1.5" fill="#F8F8F8" x="21.2927757" y="34.9809886" width="4.94296578" height="4.94296578"></rect>
                            <rect id="Rectangle-Copy-16" stroke-width="1.5" fill="#F8F8F8" x="21.2927757" y="44.8669202" width="4.94296578" height="4.94296578"></rect>
                            <rect id="Rectangle-Copy-18" stroke-width="1.5" fill="#F8F8F8" x="21.2927757" y="54.7528517" width="4.94296578" height="4.94296578"></rect>
                            <rect id="Rectangle-Copy-20" stroke-width="1.5" fill="#F8F8F8" x="21.2927757" y="64.6387833" width="4.94296578" height="4.94296578"></rect>
                            <rect id="Rectangle-Copy-22" stroke-width="1.5" fill="#F8F8F8" x="21.2927757" y="74.5247148" width="4.94296578" height="4.94296578"></rect>
                            <rect id="Rectangle-Copy-30" stroke-width="1.25" fill="#F8F8F8" transform="translate(16.159696, 4.942966) scale(-1, 1) translate(-16.159696, -4.942966) " x="15.9695817" y="0" width="1" height="9.88593156"></rect>
                            <rect id="Rectangle-Copy-23" stroke-width="1.5" fill="#F8F8F8" x="12.1673004" y="84.7908745" width="8.36501901" height="9.50570342"></rect>
                        </g>
                    </g>
                    <g id="Group" transform="translate(30.095057, 29.000000)">
                        <polygon id="Rectangle" fill="#DEDEDE" style="mix-blend-mode: normal;" points="1.90114068 9.06844106 41.391628 10.1673004 41.1863118 0.431110879 57.904943 0.431110879 57.1558935 61.7539757 46.3764064 75.3780896 1.90114068 75.3780896"></polygon>
                        <path d="M45.6273764,31.9851014 L45.6273764,34.3154739 M45.6273764,38.142657 L45.6273764,50.603243 L45.6273764,74.8060837 L0,74.8060837 L0,10.1673004 L45.6273764,10.1673004 L45.6273764,26.4004024" id="Shape" stroke="#242424" stroke-width="1.5" fill="#FF7735" stroke-linecap="round" stroke-linejoin="round"></path>
                        <rect id="Rectangle-Copy-5" stroke="#242424" stroke-width="1.5" fill="#F8F8F8" x="6.46387833" y="15.8707224" width="32.6996198" height="4.94296578"></rect>
                        <rect id="Rectangle-Copy-6" stroke="#242424" stroke-width="1.5" fill="#F8F8F8" x="6.46387833" y="25.756654" width="32.6996198" height="4.94296578"></rect>
                        <rect id="Rectangle-Copy-7" stroke="#242424" stroke-width="1.5" fill="#F8F8F8" x="6.46387833" y="35.6425856" width="32.6996198" height="4.94296578"></rect>
                        <rect id="Rectangle-Copy-8" stroke="#242424" stroke-width="1.5" fill="#F8F8F8" x="6.46387833" y="45.5285171" width="32.6996198" height="4.94296578"></rect>
                        <rect id="Rectangle-Copy-9" stroke="#242424" stroke-width="1.5" fill="#F8F8F8" x="6.46387833" y="55.4144487" width="32.6996198" height="4.94296578"></rect>
                        <rect id="Rectangle-Copy-10" stroke="#242424" stroke-width="1.5" fill="#F8F8F8" x="22.8136882" y="65.3003802" width="8.36501901" height="9.50570342"></rect>
                        <rect id="Rectangle-Copy-11" stroke="#242424" stroke-width="1.5" fill="#F8F8F8" x="14.4486692" y="65.3003802" width="8.36501901" height="9.50570342"></rect>
                    </g>
                </g>
            </g>
        </g>
    </g>
</svg>