<svg xmlns="http://www.w3.org/2000/svg" width="208" height="166" viewBox="0 0 208 166">
  <defs>
    <linearGradient id="icon_expresstermin-a" x1="64.156%" x2="34.382%" y1="61.956%" y2="29.158%">
      <stop offset="0%" stop-color="#D04400"/>
      <stop offset="100%" stop-color="#FF7735"/>
    </linearGradient>
  </defs>
  <g fill="none" fill-rule="evenodd" transform="translate(63 38)">
    <rect width="75" height="81" x="7" y="9" fill="#DEDEDE" rx="5"/>
    <path fill="#F2F2F2" stroke="#242424" stroke-linecap="round" stroke-linejoin="round" stroke-width="1.5" d="M21.9661546,84 L5.84615385,84 C2.61741223,84 0,81.2346999 0,77.8235294 L0,15.1764706 C0,11.7653001 2.61741223,9 5.84615385,9 L70.1538462,9 C73.3825878,9 76,11.7653001 76,15.1764706 L76,77.8235294 C76,81.2346999 73.3825878,84 70.1538462,84 L41.607383,84 L36.9561774,84 M30,84.5 L28,84.5"/>
    <path fill="#FFC9AE" stroke="#242424" stroke-linejoin="round" stroke-width="1.5" d="M3.73333333,3 L72.2666667,3 C74.3285297,3 76,4.67147027 76,6.73333333 L76,62.5357389 L76,62.5357389 L60.4339725,79 L3.73333333,79 C1.67147027,79 2.02886224e-15,77.3285297 0,75.2666667 L0,6.73333333 C-2.525054e-16,4.67147027 1.67147027,3 3.73333333,3 Z"/>
    <rect width="1.5" height="4.9" x="32.75" y=".75" fill="#D8D8D8" stroke="#242424" stroke-width="1.5" rx=".75"/>
    <rect width="1.5" height="4.9" x="22.75" y=".75" fill="#D8D8D8" stroke="#242424" stroke-width="1.5" rx=".75"/>
    <rect width="1.5" height="4.9" x="13.75" y=".75" fill="#D8D8D8" stroke="#242424" stroke-width="1.5" rx=".75"/>
    <rect width="1.5" height="4.9" x="41.75" y=".75" fill="#D8D8D8" stroke="#242424" stroke-width="1.5" rx=".75"/>
    <rect width="1.5" height="4.9" x="51.75" y=".75" fill="#D8D8D8" stroke="#242424" stroke-width="1.5" rx=".75"/>
    <rect width="1.5" height="4.9" x="60.75" y=".75" fill="#D8D8D8" stroke="#242424" stroke-width="1.5" rx=".75"/>
    <g fill="#EFEFEF" stroke="#242424" stroke-width="1.5" transform="translate(10 30)">
      <circle cx="11.685" cy="5.393" r="4.643"/>
      <path d="M11.6853933,10.738764 C9.28795073,10.738764 7.26806025,11.5152868 5.63144369,13.0821222 C3.93484375,14.7063835 2.65159765,17.1523127 1.74685401,20.396646 C1.50577617,21.261125 1.63792098,22.1414782 2.04645465,22.8659811 C2.45498862,23.5904845 3.1399118,24.1591373 4.00439055,24.4002135 C4.28862333,24.4794772 4.58232679,24.5196629 4.87740475,24.5196629 L18.4933774,24.5196629 C19.3908425,24.519665 20.2033431,24.1558973 20.7914779,23.5677632 C21.3796133,22.9796285 21.7433826,22.1671271 21.7433826,21.2696629 C21.7433826,20.9745849 21.7031969,20.6808814 21.6239332,20.3966486 C20.7191897,17.1523144 19.4359435,14.7063845 17.7393435,13.0821228 C16.1027268,11.515287 14.0828361,10.738764 11.6853933,10.738764 Z"/>
    </g>
    <g fill="#F2F2F2" stroke="#242424" stroke-width="1.5" transform="translate(43 30)">
      <circle cx="11.685" cy="5.393" r="4.643"/>
      <path d="M11.6853933,10.738764 C9.28795073,10.738764 7.26806025,11.5152868 5.63144369,13.0821222 C3.93484375,14.7063835 2.65159765,17.1523127 1.74685401,20.396646 C1.50577617,21.261125 1.63792098,22.1414782 2.04645465,22.8659811 C2.45498862,23.5904845 3.1399118,24.1591373 4.00439055,24.4002135 C4.28862333,24.4794772 4.58232679,24.5196629 4.87740475,24.5196629 L18.4933774,24.5196629 C19.3908425,24.519665 20.2033431,24.1558973 20.7914779,23.5677632 C21.3796133,22.9796285 21.7433826,22.1671271 21.7433826,21.2696629 C21.7433826,20.9745849 21.7031969,20.6808814 21.6239332,20.3966486 C20.7191897,17.1523144 19.4359435,14.7063845 17.7393435,13.0821228 C16.1027268,11.515287 14.0828361,10.738764 11.6853933,10.738764 Z"/>
    </g>
    <path fill="#F8F8F8" stroke="#242424" stroke-linejoin="round" stroke-width="1.5" d="M37.8333335,17.25 C35.7399362,17.25 33.8449832,18.0922811 32.4732073,19.4532556 C31.099277,20.8163675 30.25,22.6996322 30.25,24.7795277 C30.25,26.7503584 31.0125349,28.5446565 32.2614503,29.8871305 L31.2769394,36.14545 L36.3637854,32.1676389 C36.8391836,32.2603878 37.3305324,32.3090554 37.8333335,32.3090554 C39.9267308,32.3090554 41.8216838,31.4667744 43.1934597,30.1057998 C44.56739,28.7426879 45.416667,26.8594233 45.416667,24.7795277 C45.416667,22.6996322 44.56739,20.8163675 43.1934597,19.4532556 C41.8216838,18.0922811 39.9267308,17.25 37.8333335,17.25 Z" transform="rotate(-90 37.833 26.191)"/>
    <path fill="#000" fill-opacity=".3" d="M76,64.8877762 L55.986536,79 L49,79 C53.657095,79 55.9839497,77.3592498 55.9805642,74.0777494 C55.9800742,73.6028653 55.9929978,73.4984989 55.986536,70.5600903 C55.9800742,67.6216817 57.3305357,65.510845 61.6404304,65.510845 C64.7985639,65.510845 67.8168046,65.510845 70.6951524,65.510845 C74.2317175,65.192642 76,64.0292708 76,62.0207313 C76,60.0121918 76,60.9678734 76,64.8877762 Z"/>
    <path fill="url(#icon_expresstermin-a)" stroke="#242424" stroke-width="1.5" d="M76,62.5357389 L60.4339725,79 L55,79 C58.622185,79 60.4319609,77.0857915 60.4293277,73.2573744 C60.4289466,72.7033429 60.4389983,72.581582 60.4339725,69.1534387 C60.4289466,65.7252953 61.4793056,63.2626525 64.8314459,63.2626525 C67.287772,63.2626525 69.6352925,63.2626525 71.8740074,63.2626525 C74.6246691,62.8914157 76,61.5341493 76,59.1908532 C76,56.8475571 76,57.962519 76,62.5357389 Z"/>
  </g>
</svg>
