<?xml version="1.0" encoding="UTF-8"?>
<svg width="208px" height="166px" viewBox="0 0 208 166" version="1.1" xmlns="http://www.w3.org/2000/svg" xmlns:xlink="http://www.w3.org/1999/xlink">
    <title>icon_reisepass_verloren</title>
    <g id="icon_reisepass_verloren" stroke="none" stroke-width="1" fill="none" fill-rule="evenodd">
        <g id="Group-21" transform="translate(56.000000, 33.000000)">
            <g id="Group" transform="translate(0.000000, 0.000000)">
                <g id="icon_passport_hp" transform="translate(0.000000, 0.000000)">
                    <path d="M59.6666667,48.9850434 L59.6666667,79.1331917 C59.6666667,84.7409811 56.40332,88.4917514 52.3777778,87.5107716 L5,82.0565153 L5,12.7515873 L52.3777778,1.20615077 C57.6070715,0.236172468 59.6666667,2.63335222 59.6666667,9.5837307" id="Path" fill="#DEDEDE"></path>
                    <path d="M49.9251068,46.1190077 L49.9251068,74.0480927 C49.9251068,79.0230945 46.9448092,82.3506247 43.2684259,81.4803396 L0,81.3730616 L0,10.4255284 L43.2684259,0.182888548 C48.0441524,-0.677636596 49.9251068,1.44904339 49.9251068,7.61513537" id="Path" stroke="#242424" stroke-width="1.5" fill="#008A8E" stroke-linecap="round"></path>
                    <line x1="49.9251068" y1="36.9506471" x2="49.9251068" y2="40.8549313" id="Path" stroke="#242424" stroke-width="1.5" fill="#D4D2D2" stroke-linecap="round"></line>
                    <path d="M54.3827056,49.2447519 L54.3827056,79.8847605 C54.3827056,83.8893923 51.1363101,87.1357879 47.1316782,87.1357879 L0,87.1357879 L0,11 L47.1316782,11 C51.1363101,11 54.3827056,14.2463956 54.3827056,18.2510274 L54.3827056,31.0192714 L54.3827056,36.457542" id="Path" stroke="#242424" stroke-width="1.5" fill="#CCEFF0" stroke-linecap="round"></path>
                    <g id="Bundesadler_Bundesorgane" transform="translate(14.000000, 37.000000)">
                        <path d="M21.5917199,15.866942 C21.9911246,16.4598388 22.6528564,17.3365534 23.590433,18.0583039 C22.2439471,18.0583039 21.3511477,18.0899336 20.2118623,16.2798258 L19.9556603,15.866942 L17.0546432,11.2010903 C16.8677193,11.2734246 16.6780496,11.3404518 16.4850005,11.4039765 L19.2595007,15.866942 L20.0538746,17.1442281 C20.4023768,17.7018865 21.1466931,18.805528 22.2553526,19.6603778 C20.9097116,19.6603778 20.0171234,19.6911583 18.8778379,17.8810505 L17.6259757,15.866942 L15.0745169,11.7621452 C14.855911,12.1141578 14.7838872,12.4229184 14.7838872,12.7307238 C14.7838872,13.865358 15.2202542,14.9229348 15.8881112,15.866942 C16.3515136,16.5216122 16.9283376,17.1240616 17.5452921,17.6613411 C17.4496124,17.7044339 17.2819089,17.7203549 17.1258222,17.7203549 C16.815972,17.7203549 16.6140519,17.7018865 16.473595,17.6781112 C16.8229421,18.4745842 17.5725387,19.50414 17.950822,20.0378108 C18.4442167,19.9488657 19.1612864,19.8790257 19.6316588,19.8790257 C20.1233638,19.8790257 20.1784905,20.1675137 20.1784905,20.425221 C20.1784905,20.8741923 19.9696004,21.2342185 19.7264937,21.433549 C19.6360943,21.1996169 19.451705,20.8954203 18.5441207,20.8954203 C18.7179493,21.1962204 19.5492856,21.8719063 19.5492856,22.4161911 C19.5492856,22.7762172 19.1568509,23.3160441 18.6381106,23.3160441 C18.6689478,23.1997149 18.6645123,23.0920892 18.6645123,23.0126966 C18.6645123,22.5732779 18.2765132,22.0580754 17.9491323,21.6982616 C17.9586369,21.8048259 17.9535678,21.794212 17.9535678,21.9177587 C17.9535678,22.9596268 17.8595778,23.4378926 17.2020702,23.4378926 C16.8799697,23.4378926 16.6571395,23.2604269 16.5806802,23.2084184 C17.0073314,22.8114556 17.0290864,22.5017397 17.0290864,21.9169095 L17.025707,21.4114719 C17.0248621,21.2792217 17.0273967,21.101756 17.0476732,20.9729023 C16.8123814,20.9404236 16.7175465,20.9412727 16.5359029,20.9412727 C16.5359029,20.9412727 15.6010721,20.866338 15.3763409,21.3558547 C15.1235184,21.1212857 14.7549509,20.7920401 14.7549509,20.4269193 C14.7549509,20.1870434 14.8681613,19.9144764 15.3493056,19.9144764 C15.5317941,19.9144764 16.1050274,20.0263478 16.5851157,20.0263478 C16.4560642,19.7378598 15.8811411,18.8946854 15.3852119,18.2822589 C15.3095975,18.5204365 15.1930076,18.7781439 14.932159,18.9863902 C14.8962527,18.593673 14.6662412,17.349927 14.053511,16.6220204 C13.9825432,17.1125985 13.8860187,17.617187 13.8860187,18.6811322 C13.8860187,21.2686077 14.505719,23.1793361 15.819678,23.5455183 C15.6485951,23.8463185 15.2867864,24.1135784 14.9120937,24.1135784 C14.4311607,24.1135784 14.1694672,23.5656849 13.9018597,23.0513315 C13.7630924,23.4325856 13.3786839,24.3640683 12.9941698,24.3640683 C12.6088636,24.3640683 12.2244023,23.4325856 12.0865855,23.0513315 C11.8188724,23.5656849 11.5573373,24.1135784 11.0762986,24.1135784 C10.7006026,24.1135784 10.3390052,23.8463185 10.1678167,23.5455183 C11.4826733,23.1793361 12.1023737,21.2686077 12.1023737,18.6811322 C12.1023737,17.617187 12.0058491,17.1125985 11.934723,16.6220204 C11.3220983,17.349927 11.0920868,18.593673 11.0569726,18.9863902 C10.7962824,18.7781439 10.6786893,18.5204365 10.6031804,18.2822589 C10.1064063,18.8946854 9.53322577,19.7378598 9.40327669,20.0263478 C9.88347052,20.0263478 10.4565983,19.9144764 10.6391923,19.9144764 C11.1201782,19.9144764 11.2334414,20.1870434 11.2334414,20.4269193 C11.2334414,20.7920401 10.8647683,21.1212857 10.6111009,21.3558547 C10.3872675,20.866338 9.45248942,20.9412727 9.45248942,20.9412727 C9.27079303,20.9412727 9.17595818,20.9404236 8.94071917,20.9729023 C8.96094286,21.101756 8.96442789,21.2792217 8.96268537,21.4114719 L8.95914755,21.9169095 C8.95914755,22.5017397 8.98021609,22.8114556 9.40855702,23.2084184 C9.33046084,23.2604269 9.10836987,23.4378926 8.78626933,23.4378926 C8.12881459,23.4378926 8.03403253,22.9596268 8.03403253,21.9177587 C8.03403253,21.794212 8.02964986,21.8048259 8.03931287,21.6982616 C7.71187918,22.0580754 7.32393283,22.5732779 7.32393283,23.0126966 C7.32393283,23.0920892 7.31955015,23.1997149 7.35022891,23.3160441 C6.83238627,23.3160441 6.43915958,22.7762172 6.43915958,22.4161911 C6.43915958,21.8719063 7.27039021,21.1962204 7.53546312,20.8998781 C6.5365818,20.8954203 6.35224523,21.1996169 6.26094822,21.433549 C6.01868636,21.2342185 5.80979623,20.8741923 5.80979623,20.425221 C5.80979623,20.1675137 5.86423651,19.8790257 6.35578306,19.8790257 C6.82626107,19.8790257 7.54422848,19.9488657 8.03751755,20.0378108 C8.41585369,19.50414 9.16455265,18.4745842 9.51479739,17.6781112 C9.37434043,17.7018865 9.17247316,17.7203549 8.86172533,17.7203549 C8.70637782,17.7203549 8.53872712,17.7044339 8.44214976,17.6613411 C9.06010759,17.1240616 9.63677317,16.5216122 10.1002283,15.8652438 C10.7673461,14.9195383 11.2044524,13.865358 11.2044524,12.7307238 C11.2044524,12.4229184 11.1315837,12.1141578 11.0280363,11.7841692 L8.36231106,15.866942 L7.11060721,17.8810505 C5.97132172,19.6911583 5.07862797,19.6603778 3.73219488,19.6603778 C4.84164645,18.805528 5.58596274,17.7018865 5.93441217,17.1442281 L6.72883885,15.866942 L9.50339186,11.4039765 C9.31028994,11.3404518 9.11982819,11.2734246 8.93369631,11.2010903 L6.03273204,15.866942 L5.77557964,16.2798258 C4.637139,18.0899336 3.74444525,18.0583039 2.39885701,18.0583039 C3.33453271,17.3365534 3.99721497,16.4598388 4.3957748,15.8599368 L4.60028225,15.5423666 L7.6671019,10.6099979 C7.49242836,10.5138352 7.3221903,10.4124187 7.15802463,10.3074464 L4.64500674,14.3495677 C4.11575857,15.1912562 3.63915537,15.6340713 3.14581349,15.866942 C2.57791326,16.1369616 1.98720197,16.128895 1.26743925,16.128895 L1.58779729,15.8660929 C2.52790846,15.0545481 3.15019616,14.122004 3.46970935,13.6112594 L6.04677776,9.4649619 C5.89491527,9.32644948 5.75097328,9.18528358 5.61495181,9.03886374 L3.78832488,11.9773967 C2.64988425,13.7885128 1.7572433,13.7558218 0.4107574,13.7558218 C1.52902714,12.8931176 2.26019539,11.804495 2.6130275,11.2372309 L4.7354589,7.82494308 C4.62135082,7.61324729 4.5238758,7.39619144 4.44403711,7.17388166 L3.37841232,8.88973736 C2.23912685,10.7008535 1.3464331,10.6682155 0,10.6682155 C1.11383426,9.8107653 1.85202536,8.71243086 2.20311495,8.15052685 L4.28430693,4.8052663 C4.4861742,3.77045651 5.01896019,2.80442529 5.81417893,2.0863366 C5.5473635,1.98401784 5.32442769,1.8772943 5.19009592,1.77497555 C6.54972986,1.77497555 7.8953181,1.08066217 8.63704702,1.08066217 C9.11365023,1.08066217 9.42086022,1.36739879 9.42086022,1.74674237 C9.38838615,2.16753353 8.95740506,2.59623211 8.15954616,2.59623211 C7.97874742,2.59623211 7.7478911,2.5724568 7.49422371,2.53100921 C7.06234496,3.13616517 6.71299787,3.68310347 6.71299787,4.46206331 C6.71299787,5.92742913 8.45709314,7.0698116 10.2161318,7.0698116 L10.5101409,7.0583485 C10.8585903,5.87090969 11.6003193,5.09285203 12.1928259,4.33241357 C11.4826734,4.07215882 10.6900948,3.39376641 10.6900948,3.0867571 C10.7796493,3.03474861 12.1418706,3.46350025 12.2823276,3.50139215 C12.5386351,3.45198409 12.6772968,3.20940162 12.6772968,3.18467105 C12.5316123,3.15999355 11.6775706,3.04971432 11.094727,2.83531195 C10.6505979,2.67212205 10.4258667,2.37657582 10.4258667,2.26454529 C10.5689639,2.24161909 11.1079279,2.5266044 11.9022489,2.5266044 C12.1954132,2.5266044 12.251596,2.5151413 12.5430178,2.47894764 C12.3385104,1.98847571 11.954049,1.57468978 11.5213254,1.57468978 C11.3475496,1.57468978 10.9665733,1.68321771 10.6488554,1.84465631 C10.4267644,1.49795071 10.2327648,1.04361938 10.2327648,0.794827731 C10.2327648,0.500183699 10.5215465,0.157033782 11.336144,0.157033782 C11.5643074,0.157033782 11.7767353,0.176457358 11.9742727,0.213500151 C12.1339501,0.244386829 12.267437,0.280580493 12.4104814,0.3360916 C12.3928978,0.119991022 12.4956004,0 12.8774215,0 C13.5480771,0 14.2353658,0.222309776 15.0778963,0.222309776 C15.2965023,0.222309776 15.4447741,0.213500173 15.5704461,0.159687303 C15.5159531,0.329033327 15.2789715,0.576922783 15.0631114,0.778959855 C15.1972319,0.96247554 15.5440444,1.40619289 15.5440444,2.12343246 C15.5440444,3.2764289 14.7891675,4.22738828 14.7891675,5.39190088 C14.7891675,6.08440988 15.3193133,6.69577501 15.4781458,7.05834851 L15.7713101,7.06981161 C17.531352,7.06981161 19.2744968,5.92742914 19.2744968,4.46206332 C19.2744968,3.68310347 18.9259946,3.13616517 18.494063,2.53100922 C18.2403957,2.57245681 18.0097505,2.59623212 17.8287406,2.59623212 C17.0309873,2.59623212 16.5990557,2.16753355 16.5684298,1.74674238 C16.5684298,1.3673988 16.8738445,1.08066218 17.3513981,1.08066218 C18.0929687,1.08066218 19.4386097,1.77497556 20.7981908,1.77497556 C20.6630142,1.87729431 20.4410288,1.98401785 20.1732102,2.08633661 C20.969485,2.8044253 21.5021653,3.77045652 21.7040854,4.80526631 L23.7851718,8.15052686 C24.1353637,8.71243087 24.8746109,9.81076532 25.9883395,10.6682155 C24.6418536,10.6682155 23.7492655,10.7008535 22.6108249,8.88973736 L21.5435632,7.17388166 C21.4645693,7.39619144 21.3661439,7.61324729 21.2529334,7.82494308 L23.3743616,11.2372309 C23.7281442,11.804495 24.4585203,12.8931176 25.5775293,13.7558218 C24.2310434,13.7558218 23.3384553,13.7885128 22.2000147,11.9773967 L20.3725957,9.03886376 C20.2374191,9.18528359 20.0925266,9.32644949 19.9406641,9.46496191 L22.5187358,13.6112594 C22.8380906,14.122004 23.4605367,15.0553973 24.4006479,15.8660929 L24.7208475,16.128895 C24.0012432,16.128895 23.4104791,16.1359002 22.8425261,15.866942 C22.3482865,15.6349205 21.8726338,15.1912562 21.3433328,14.3495677 L18.8303149,10.3074464 C18.6653572,10.4124187 18.495964,10.5138352 18.3212904,10.6099979 L21.3881101,15.5423666 L21.5917199,15.866942 L21.5917199,15.866942 Z" id="Path" fill="#66CED1" fill-rule="nonzero"></path>
                        <path d="M10.5834383,17.7019259 C10.5109847,17.4222269 10.4402439,17.2172749 10.163301,17.2172749 C10.0218194,17.2172749 9.95450397,17.2435789 9.8691271,17.2773357 C9.5705935,18.1536969 8.41969249,19.7996689 8.23850668,20.051968 C7.74155619,19.96648 7.04707112,19.8744161 6.48456987,19.8744161 C6.35341646,19.8744161 6.17223064,19.8608257 6.17223064,20.1951055 C6.17223064,20.3890974 6.25335165,20.7271037 6.35253415,20.8391148 C6.60015302,20.5302622 7.02636269,20.4381982 7.55434987,20.4381982 C7.75966957,20.4381982 8.00817078,20.5138222 8.10221509,20.5374958 C7.43009927,21.257129 6.79597488,21.8529143 6.79597488,22.2509813 C6.79597488,22.4741268 7.0151521,22.7685123 7.19893296,22.866933 C7.19893296,22.2792581 7.77523982,21.4675609 8.3394538,21.0140363 C8.3394538,21.0942635 8.36618273,21.4020202 8.36618273,21.7363 C8.36618273,22.8450131 8.46972489,23.0646513 8.87351338,23.0646513 C8.94679736,23.0646513 9.073643,23.0363746 9.12113226,23.006125 C8.90371966,22.7430851 8.8122704,22.3941189 8.8122704,21.7354232 C8.8122704,21.5460345 8.81740857,21.3673866 8.81740857,21.2126314 C8.81740857,20.9202188 8.78548956,20.7143901 8.76478113,20.553059 C8.92006842,20.5302622 9.27034716,20.477435 9.52834621,20.477435 C10.0778723,20.477435 10.418705,20.5339886 10.6671543,20.7952749 C10.8457451,20.6523565 11.0450443,20.3827407 11.0450443,20.1968591 C11.0450443,19.9289969 10.8741868,19.9108033 10.6947656,19.9108033 C10.4160581,19.9108033 10.1874868,20.0274176 9.13146053,20.0274176 C9.33937529,19.3989715 9.94848348,18.5162535 10.5834383,17.7019259 L10.5834383,17.7019259 L10.5834383,17.7019259 Z" id="Path" fill="#FFFFFF"></path>
                        <path d="M16.8572886,20.0274176 C15.8010417,20.0274176 15.5716033,19.9108033 15.2937857,19.9108033 C15.1150106,19.9108033 14.9432952,19.9289969 14.9432952,20.1968591 C14.9432952,20.3827407 15.1426263,20.6523565 15.3203631,20.7952749 C15.568904,20.5339886 15.9106738,20.477435 16.4602876,20.477435 C16.7173416,20.477435 17.0686626,20.5302622 17.2231442,20.553059 C17.2023805,20.7143901 17.171235,20.9202188 17.171235,21.2126314 C17.171235,21.3673866 17.1764259,21.5460345 17.1764259,21.7354232 C17.1764259,22.3941189 17.0850659,22.7430851 16.8676704,23.006125 C16.9150116,23.0363746 17.0418775,23.0646513 17.1151732,23.0646513 C17.5190262,23.0646513 17.6226368,22.845013 17.6226368,21.7363 C17.6226368,21.4020202 17.6494219,21.0942635 17.6494219,21.0140363 C18.213778,21.4675609 18.7891387,22.2792581 18.7891387,22.866933 C18.9739352,22.7685123 19.1929917,22.4741268 19.1929917,22.2509813 C19.1929917,21.8529143 18.5580393,21.257129 17.8865428,20.5374958 C17.9808098,20.5138222 18.229143,20.4381982 18.4344956,20.4381982 C18.9627228,20.4381982 19.3890006,20.5302622 19.6365033,20.8391148 C19.7357536,20.7271037 19.8161089,20.3890974 19.8161089,20.1951055 C19.8161089,19.8608257 19.6348422,19.8744161 19.503616,19.8744161 C18.9419592,19.8744161 18.2463769,19.96648 17.7503332,20.051968 C17.5690666,19.7996689 16.4179297,18.1536969 16.1195561,17.2773357 C16.0340098,17.2435789 15.9667356,17.2172749 15.8251275,17.2172749 C15.5481404,17.2172749 15.477544,17.4222269 15.4050788,17.7019259 C16.0400313,18.5162536 16.6492368,19.3989715 16.8572886,20.0274176 L16.8572886,20.0274176 Z" id="Path" fill="#FFFFFF" fill-rule="nonzero"></path>
                        <path d="M20.4658174,4.81815119 C20.4658174,3.55563752 19.5136684,2.55462012 19.1783341,2.27397971 L18.9374079,2.3273098 C19.2934554,2.74784967 19.9222618,3.44992403 19.9222618,4.3809917 C19.9222618,6.21257006 17.9152704,7.80290077 15.6254906,7.83345775 C15.6438054,8.02232202 15.6427152,8.18751908 15.6427152,8.33004822 C15.6427152,8.5923334 15.6237463,8.8485177 15.5930037,9.09591884 C18.1917359,9.05216081 20.4658174,7.01341554 20.4658174,4.81815119 L20.4658174,4.81815119 Z" id="Path" fill="#FFFFFF" fill-rule="nonzero"></path>
                        <path d="M6.05992244,4.38017982 C6.05992244,3.44947091 6.68068363,2.74766707 7.0335799,2.32728925 L6.79535201,2.27397971 C6.46390218,2.55451198 5.52252215,3.55514367 5.52252215,4.81717086 C5.52252215,7.0273088 7.80392729,9.07930561 10.3953358,9.09591884 C10.3675848,8.85560531 10.3514191,8.59951972 10.3514191,8.32771466 C10.3514191,8.15727133 10.359502,7.99129675 10.3746977,7.83305047 C8.08343148,7.83305047 6.05992244,6.22766566 6.05992244,4.38017982 L6.05992244,4.38017982 Z" id="Path" fill="#FFFFFF" fill-rule="nonzero"></path>
                        <path d="M13.023508,2.59883395 C13.1493388,2.34322386 13.319024,2.03755424 13.319024,1.70046971 C13.319024,0.769822176 12.4527121,0.324854244 11.2920879,0.324854244 C10.6964698,0.324854244 10.3953358,0.496435837 10.3953358,0.669600954 C10.3953358,0.841131464 10.5916777,1.21984714 10.6688386,1.3370273 C10.8832382,1.25294773 11.2692148,1.1519092 11.4931305,1.1519092 C12.2888168,1.1519092 12.8844349,1.94586357 13.023508,2.59883395 L13.023508,2.59883395 Z" id="Path" fill="#FFFFFF" fill-rule="nonzero"></path>
                        <path d="M13.2597006,1.61195858 C13.8566398,1.73071369 14.2648378,0.954744184 13.6972,0.816299381 C13.7760105,1.0718542 13.3930722,1.25384254 13.3930722,1.25384254 C13.3930722,1.25384254 13.247778,0.908630187 13.4351045,0.712915607 C13.0891466,0.541157677 13.0008384,0.750495686 12.9941698,0.970115517 C13.1303705,1.15472573 13.2200933,1.3717751 13.2597006,1.61195858 L13.2597006,1.61195858 L13.2597006,1.61195858 Z" id="Path" fill="#FFFFFF"></path>
                    </g>
                    <line x1="54.3827056" y1="41.7857982" x2="54.3827056" y2="44.9285551" id="Path" stroke="#242424" stroke-width="1.5" fill="#F2F2F2" stroke-linecap="round"></line>
                    <rect id="Rectangle" fill="#242424" x="12.689298" y="20.0116512" width="29.0041097" height="2" rx="1"></rect>
                    <rect id="Rectangle-Copy" fill="#242424" x="15.1913528" y="24.0116512" width="24" height="2" rx="1"></rect>
                    <rect id="Rectangle-Copy-2" fill="#242424" x="12.689298" y="77.0116512" width="29.0041097" height="2" rx="1"></rect>
                </g>
            </g>
            <g id="ICON-Search" transform="translate(63.500000, 55.500000) rotate(-90.000000) translate(-63.500000, -55.500000) translate(28.500000, 22.500000)">
                <path d="M16.6965367,32.0078603 C17.9543463,32.0210346 19.0149497,32.4956877 19.7850075,33.2646585 C20.5534499,34.0320162 21.0328782,35.0887965 21.0461741,36.2581313 L21.0461741,36.2581313 L21.3453647,62.5710154 C21.3582214,63.7017173 20.9115534,64.7305869 20.1789957,65.4799953 C19.4464381,66.2294036 18.4279908,66.6993506 17.303687,66.7121686 C16.0406045,66.7006248 14.983148,66.2226898 14.2147056,65.4553321 C13.4462633,64.6879745 12.966835,63.6311941 12.9535391,62.4618594 L12.9535391,62.4618594 L12.6543485,36.1489753 C12.6414918,35.0182734 13.0881598,33.9894037 13.8207175,33.2399954 C14.5519785,32.4919135 15.5681179,32.0223046 16.6965367,32.0078603 Z" id="Rectangle" stroke="#242424" stroke-width="1.20000002" fill="#00ADB2" transform="translate(16.999857, 49.359995) rotate(-315.000000) translate(-16.999857, -49.359995) "></path>
                <path d="M40.2032076,1.06666741 C45.6772212,1.06666741 51.1499356,3.25208923 55.3259716,7.61794503 C59.5121927,11.9944489 61.6032076,17.7310843 61.6032076,23.4666674 C61.6032076,29.2022506 59.5121927,34.9388859 55.3259716,39.3153898 C51.1499356,43.6812456 45.6772212,45.8666674 40.2032076,45.8666674 C34.7291939,45.8666674 29.2564795,43.6812456 25.0804435,39.3153898 C20.8942224,34.9388859 18.8032076,29.2022506 18.8032076,23.4666674 C18.8032076,17.7310843 20.8942224,11.9944489 25.0804435,7.61794503 C29.2564795,3.25208923 34.7291939,1.06666741 40.2032076,1.06666741 Z M40.2032076,8.55916005 C36.5445202,8.55916005 32.8845337,10.0161102 30.0925537,12.9349983 C27.3107589,15.8432385 25.9177657,19.6544268 25.9177657,23.4666674 C25.9177657,27.278908 27.3107589,31.0900964 30.0925537,33.9983365 C32.8845337,36.9172246 36.5445202,38.3741748 40.2032076,38.3741748 C43.8618949,38.3741748 47.5218814,36.9172246 50.3138614,33.9983365 C53.0956563,31.0900964 54.4886494,27.278908 54.4886494,23.4666674 C54.4886494,19.6544268 53.0956563,15.8432385 50.3138614,12.9349983 C47.5218814,10.0161102 43.8618949,8.55916005 40.2032076,8.55916005 Z" id="Combined-Shape" stroke="#242424" stroke-width="1.20000002" fill="#00ADB2"></path>
                <circle id="Oval" fill-opacity="0.7" fill="#FFFFFF" transform="translate(40.203208, 23.466667) rotate(-315.000000) translate(-40.203208, -23.466667) " cx="40.2032076" cy="23.4666674" r="14"></circle>
                <path d="M12.1003366,51.2955166 C12.8116979,51.7108306 13.5376976,51.93193 14.2746627,51.944615 C15.2428525,51.96128 16.1873792,51.6174999 17.1003366,50.9451933" id="Path" stroke="#242424" stroke-width="0.5" stroke-linecap="round" transform="translate(14.600337, 51.445193) rotate(-315.000000) translate(-14.600337, -51.445193) "></path>
                <text id="?" transform="translate(43.000000, 24.000000) rotate(-270.000000) translate(-43.000000, -24.000000) " font-family="PTSans-Bold, PT Sans" font-size="32" font-weight="bold" line-spacing="54" letter-spacing="0.8" fill="#007996">
                    <tspan x="35" y="26">?</tspan>
                </text>
            </g>
        </g>
    </g>
</svg>