<svg xmlns="http://www.w3.org/2000/svg" width="208" height="166" viewBox="0 0 208 166">
  <defs>
    <radialGradient id="icon_reisepass-a" cx="27.276%" cy="22.977%" r="80.38%" fx="27.276%" fy="22.977%" gradientTransform="matrix(.60049 .79963 -.86603 .65035 .309 -.138)">
      <stop offset="0%" stop-color="#FFC9AE"/>
      <stop offset="100%" stop-color="#FFB692"/>
    </radialGradient>
  </defs>
  <g fill="none" fill-rule="evenodd" transform="translate(74 39)">
    <path fill="#DEDEDE" d="M59.6666667,48.9850434 L59.6666667,79.1331917 C59.6666667,84.7409811 56.40332,88.4917514 52.3777778,87.5107716 L5,82.0565153 L5,12.7515873 L52.3777778,1.20615077 C57.6070715,0.236172468 59.6666667,2.63335222 59.6666667,9.5837307"/>
    <path fill="#D14000" stroke="#242424" stroke-linecap="round" stroke-width="1.5" d="M49.9251068,46.1190077 L49.9251068,74.0480927 C49.9251068,79.0230945 46.9448092,82.3506247 43.2684259,81.4803396 L0,81.3730616 L0,10.4255284 L43.2684259,0.182888548 C48.0441524,-0.677636596 49.9251068,1.44904339 49.9251068,7.61513537"/>
    <line x1="49.925" x2="49.925" y1="36.951" y2="40.855" fill="#D4D2D2" stroke="#242424" stroke-linecap="round" stroke-width="1.5"/>
    <path fill="#FFC9AE" stroke="#242424" stroke-linecap="round" stroke-width="1.5" d="M54.3827056,49.1658778 L54.3827056,79.8058864 C54.3827056,83.8105183 51.1363101,87.0569138 47.1316782,87.0569138 L1.89478063e-13,87.0569138 L1.89478063e-13,10.921126 L47.1316782,10.921126 C51.1363101,10.921126 54.3827056,14.1675215 54.3827056,18.1721534 L54.3827056,30.9403974 L54.3827056,36.3786679"/>
    <line x1="54.383" x2="54.383" y1="41.786" y2="44.929" fill="#F2F2F2" stroke="#242424" stroke-linecap="round" stroke-width="1.5"/>
    <circle cx="27.191" cy="39.925" r="11.939" fill="url(#icon_reisepass-a)" stroke="#242424" stroke-width="1.5"/>
    <ellipse cx="27.191" cy="39.925" stroke="#242424" stroke-width=".906" rx="6.798" ry="12.236"/>
    <line x1="27.191" x2="27.191" y1="29.049" y2="50.802" stroke="#242424" stroke-linecap="square" stroke-width=".906"/>
    <path stroke="#242424" stroke-linecap="round" stroke-linejoin="round" stroke-width=".906" d="M16.3998953,34.4869651 C21.1325553,34.4869651 24.7118731,34.4869651 27.1378485,34.4869651 C29.5638239,34.4869651 33.1423731,34.4869651 37.8734961,34.4869651 L16.3998953,34.4869651 Z"/>
    <path stroke="#242424" stroke-linecap="round" stroke-width=".906" d="M17.2211901,46.2698846 C21.4063203,46.2698846 24.7118731,46.2698846 27.1378485,46.2698846 C29.5638239,46.2698846 32.9050462,46.2698846 37.1615155,46.2698846"/>
    <line x1="15.752" x2="39.172" y1="39.925" y2="39.925" stroke="#242424" stroke-linecap="round" stroke-width=".906"/>
    <rect width="29.004" height="2" x="12.689" y="63.012" fill="#242424" rx="1"/>
    <rect width="29.004" height="2" x="12.689" y="67.012" fill="#242424" rx="1"/>
  </g>
</svg>
