<?xml version="1.0" encoding="UTF-8"?>
<svg width="21px" height="20px" viewBox="0 0 21 20" version="1.1" xmlns="http://www.w3.org/2000/svg" xmlns:xlink="http://www.w3.org/1999/xlink">
    <title>icon_search</title>
    <g id="01_Design" stroke="none" stroke-width="1" fill="none" fill-rule="evenodd" opacity="0.198730469">
        <g id="03_Andere_dienstleistungen-Copy" transform="translate(-1348.000000, -73.000000)" stroke="#242424">
            <g id="button_verzeichnis" transform="translate(1042.000000, 64.000000)">
                <g id="Group" transform="translate(303.000000, 6.000000)">
                    <g id="ICON-Search" transform="translate(12.000000, 12.000000) rotate(-90.000000) translate(-12.000000, -12.000000) ">
                        <path d="M6.52627422,12.4017356 C6.85350663,12.4062324 7.1308793,12.5279328 7.33180259,12.7288561 C7.53136028,12.9284138 7.65575534,13.2031341 7.65898888,13.5070181 L7.65898888,13.5070181 L7.76006415,23.0059429 C7.76314896,23.2958497 7.64843378,23.5595614 7.46047071,23.7515676 C7.27250763,23.9435738 7.01129665,24.0638746 6.72138984,24.0669594 C6.39516358,24.0637258 6.12044327,23.9393308 5.92088558,23.7397731 C5.72132789,23.5402154 5.59693284,23.2654951 5.59369929,22.961611 L5.59369929,22.961611 L5.49262403,13.4626863 C5.48953921,13.1727795 5.60425439,12.9090678 5.79221747,12.7170615 C5.97909067,12.5261686 6.23836481,12.4061521 6.52627422,12.4017356 Z" id="Rectangle" transform="translate(6.626344, 18.234315) rotate(-315.000000) translate(-6.626344, -18.234315) "></path>
                        <circle id="Oval" fill="#FFFFFF" transform="translate(13.904112, 10.400000) rotate(-315.000000) translate(-13.904112, -10.400000) " cx="13.9041117" cy="10.4" r="6.62460536"></circle>
                        <circle id="Oval" fill="#FFFFFF" transform="translate(13.904112, 10.400000) rotate(-315.000000) translate(-13.904112, -10.400000) " cx="13.9041117" cy="10.4" r="5.04135973"></circle>
                        <path d="M16.0693894,13.8757624 C16.1715896,13.7652991 16.2661707,13.6474025 16.352274,13.5229498 M16.9249089,11.67817 C16.9249089,11.3046705 16.8622673,10.9461165 16.7471305,10.6128726 C16.3174674,9.36928557 15.1567541,8.47817004 13.7922924,8.47817004" id="Shape" fill="#FFFFFF" stroke-linecap="round" transform="translate(15.358601, 11.176966) rotate(-315.000000) translate(-15.358601, -11.176966) "></path>
                        <path d="M6.73452013,16.7615533 C7.07218464,16.8834238 7.41679758,16.9483036 7.76661555,16.9520259 C8.22618976,16.9569161 8.67453174,16.8560367 9.10788858,16.6587538" id="Path" stroke-width="0.5" stroke-linecap="round" transform="translate(7.921204, 16.805475) rotate(-315.000000) translate(-7.921204, -16.805475) "></path>
                    </g>
                </g>
            </g>
        </g>
    </g>
</svg>