<?xml version="1.0" encoding="UTF-8"?>
<svg width="39px" height="39px" viewBox="0 0 39 39" version="1.1" xmlns="http://www.w3.org/2000/svg" xmlns:xlink="http://www.w3.org/1999/xlink">
    <title>icon_link</title>
    <g id="01_Design" stroke="none" stroke-width="1" fill="none" fill-rule="evenodd">
        <g id="05_Reisepass_beantragen_01" transform="translate(-1116.000000, -428.000000)">
            <g id="link_berlin_de" transform="translate(1116.000000, 405.000000)">
                <g id="icon_link" transform="translate(0.000000, 23.000000)">
                    <circle id="Oval" fill="#FF5300" cx="19.5" cy="19.5" r="19.5"></circle>
                    <g id="multimedia" transform="translate(9.000000, 9.000000)" fill="#FFFFFF" fill-rule="nonzero">
                        <path d="M16.8834727,0 C15.5170803,0 14.2322251,0.537908984 13.2658464,1.51413901 L9.28159259,5.53900873 C9.58609249,5.49606483 9.89030207,5.44943404 10.2015622,5.44943404 C11.0597774,5.44943404 11.9007396,5.61785792 12.6738508,5.93015433 L15.1555955,3.4231105 C15.617571,2.95705399 16.230967,2.69997715 16.8834727,2.69997715 C18.2309532,2.69997715 19.327186,3.80738507 19.327186,5.1686019 C19.327186,5.82780121 19.0727034,6.44740834 18.61135,6.9140933 L14.1442179,11.4268476 C13.2202253,12.3589187 11.6124145,12.3595891 10.6884219,11.427518 L8.8,13.3378301 C9.76575655,14.3127614 11.0505703,14.85 12.4162992,14.85 C13.7826916,14.85 15.0675054,14.312091 16.0339255,13.335861 L20.5011405,8.82310669 C21.4675192,7.84687667 22,6.54892353 22,5.1686019 C22,2.31834206 19.7050114,0 16.8834727,0 Z" id="Path"></path>
                        <path d="M9.30264583,15.5236748 L6.84434153,18.0154075 C6.38236745,18.483033 5.76897337,18.7409753 5.11646972,18.7409753 C3.76899348,18.7409753 2.67276412,17.6298393 2.67276412,16.2640398 C2.67276412,15.6026633 2.92724594,14.9809282 3.38859791,14.5126722 L7.85579892,9.98472551 C8.77978855,9.04951653 10.3875944,9.04884393 11.311584,9.98405291 L13.2,8.06730959 C11.2678709,6.11088285 7.89888995,6.11025228 5.96609724,8.06928536 L1.49885476,12.597232 C0.532437672,13.5767486 0,14.8790293 0,16.2639978 C0,19.1238952 2.29493991,21.45 5.11642825,21.45 C6.48281643,21.45 7.76762611,20.9102801 8.7340432,19.9307636 L12.6654057,15.9459418 C12.3783671,15.9850367 12.0928216,16.0318245 11.7982763,16.0318245 C10.9268337,16.0318666 10.0828051,15.8552669 9.30264583,15.5236748 Z" id="Path"></path>
                    </g>
                </g>
            </g>
        </g>
    </g>
</svg>