<svg xmlns="http://www.w3.org/2000/svg" width="208" height="166" viewBox="0 0 208 166">
  <g fill="none" fill-rule="evenodd" transform="translate(62 26)">
    <rect width="79" height="110" x="5.5" y="5" fill="#DEDEDE" rx="4"/>
    <path fill="#FFE2D4" stroke="#242424" stroke-linecap="round" stroke-width="1.5" d="M79.5,45.364347 L79.5,105.900621 C79.5,108.164646 77.6861792,110 75.4487179,110 L4.55128205,110 C2.31382076,110 0.5,108.164646 0.5,105.900621 L0.5,4.09937888 C0.5,1.83535444 2.31382076,0 4.55128205,0 L75.4487179,0 C77.6861792,0 79.5,1.83535444 79.5,4.09937888 L79.5,28.6478114 M79,34 L79,39"/>
    <rect width="17.288" height="1" x="15.085" y="19" stroke="#242424" stroke-width="1.25" rx=".254"/>
    <rect width="23.39" height="1" x="28.305" y="32" stroke="#242424" stroke-width="1.25" rx=".254"/>
    <rect width="23.39" height="1" x="28.305" y="97" stroke="#242424" stroke-width="1.25" rx=".254"/>
    <g transform="translate(18 42)">
      <path fill="#FFB692" fill-rule="nonzero" d="M37.1758262,27.319115 C37.8635065,28.3399429 39.0028519,29.8494377 40.6171367,31.0921211 C38.298807,31.0921211 36.761618,31.1465799 34.8000383,28.030003 L34.3589193,27.319115 L29.3640552,19.2856238 C29.0422164,19.4101663 28.7156501,19.5255714 28.3832653,19.6349458 L33.1602973,27.319115 L34.528021,29.5182991 C35.1280592,30.4784548 36.4095956,32.3786639 38.3184446,33.8505127 C36.0015695,33.8505127 34.4647442,33.9035095 32.5031645,30.7869327 L30.3477543,27.319115 L25.9547467,20.2516274 C25.5783591,20.8577096 25.4543512,21.3893223 25.4543512,21.9192902 C25.4543512,23.8728616 26.2056718,25.6937583 27.3555634,27.319115 C28.1534325,28.446302 29.1465867,29.4835771 30.2088363,30.4086452 C30.0440985,30.4828407 29.7553528,30.5102529 29.4866084,30.5102529 C28.9531198,30.5102529 28.6054613,30.4784548 28.3636277,30.4375193 C28.9651206,31.808857 30.2557484,33.5815083 30.9070627,34.500363 C31.7565714,34.3472206 32.9911957,34.2269727 33.8010655,34.2269727 C34.647665,34.2269727 34.7425801,34.7236806 34.7425801,35.1673916 C34.7425801,35.9404138 34.3829208,36.5602935 33.9643486,36.9034934 C33.8087024,36.5007178 33.4912276,35.9769633 31.9285824,35.9769633 C32.2278742,36.4948699 33.6592383,37.6582408 33.6592383,38.5953703 C33.6592383,39.21525 32.9835588,40.1447041 32.0904109,40.1447041 C32.1435052,39.9444128 32.1358683,39.7591067 32.1358683,39.6224116 C32.1358683,38.8658367 31.4678257,37.97878 30.9041534,37.3592658 C30.9205181,37.5427444 30.9117902,37.5244696 30.9117902,37.7371878 C30.9117902,39.5310378 30.7499617,40.3544983 29.6178895,40.3544983 C29.0633087,40.3544983 28.6796478,40.0489444 28.5480031,39.9593981 C29.2825954,39.2759222 29.3200523,38.7426648 29.3200523,37.7357258 L29.3142338,36.8654819 C29.3127791,36.6377785 29.317143,36.3322246 29.3520544,36.110369 C28.9469376,36.0544483 28.7836545,36.0559103 28.4709072,36.0559103 C28.4709072,36.0559103 26.86135,35.9268905 26.4744162,36.7697222 C26.0391157,36.3658501 25.4045298,35.7989672 25.4045298,35.1703156 C25.4045298,34.7573061 25.5994513,34.2880104 26.4278678,34.2880104 C26.7420696,34.2880104 27.7290417,34.4806263 28.5556399,34.4806263 C28.3334439,33.9839184 27.3435626,32.5321718 26.4896899,31.4777184 C26.3594998,31.887804 26.1587597,32.331515 25.7096402,32.6900657 C25.647818,32.0138998 25.2517928,29.8724639 24.1968164,28.6191811 C24.0746268,29.4638404 23.9084343,30.3326222 23.9084343,32.1644838 C23.9084343,36.6195037 24.9754115,39.9093252 27.2377377,40.5398043 C26.9431734,41.0577109 26.3202246,41.5178692 25.6750925,41.5178692 C24.8470397,41.5178692 24.3964655,40.5745263 23.9357088,39.6889317 C23.6967845,40.3453609 23.0349241,41.9491535 22.3728818,41.9491535 C21.7094759,41.9491535 21.0475246,40.3453609 20.8102367,39.6889317 C20.3492982,40.5745263 19.8989967,41.5178692 19.0707621,41.5178692 C18.4239026,41.5178692 17.8013175,41.0577109 17.5065714,40.5398043 C19.7704431,39.9093252 20.8374203,36.6195037 20.8374203,32.1644838 C20.8374203,30.3326222 20.6712278,29.4638404 20.5487655,28.6191811 C19.4939709,29.8724639 19.0979456,32.0138998 19.0374872,32.6900657 C18.5886404,32.331515 18.386173,31.887804 18.2561647,31.4777184 C17.4008374,32.5321718 16.4139562,33.9839184 16.1902147,34.4806263 C17.0169947,34.4806263 18.0037849,34.2880104 18.3181686,34.2880104 C19.1463124,34.2880104 19.3413248,34.7573061 19.3413248,35.1703156 C19.3413248,35.7989672 18.706557,36.3658501 18.2698019,36.7697222 C17.8844137,35.9268905 16.2749474,36.0559103 16.2749474,36.0559103 C15.9621092,36.0559103 15.7988261,36.0544483 15.3938002,36.110369 C15.4286206,36.3322246 15.434621,36.6377785 15.4316208,36.8654819 L15.4255295,37.7357258 C15.4255295,38.7426648 15.4618046,39.2759222 16.1993062,39.9593981 C16.064843,40.0489444 15.682455,40.3544983 15.1278742,40.3544983 C13.9958929,40.3544983 13.8327006,39.5310378 13.8327006,37.7371878 C13.8327006,37.5244696 13.8251547,37.5427444 13.8417921,37.3592658 C13.2780289,37.97878 12.6100772,38.8658367 12.6100772,39.6224116 C12.6100772,39.7591067 12.6025313,39.9444128 12.6553528,40.1447041 C11.7637505,40.1447041 11.0867073,39.21525 11.0867073,38.5953703 C11.0867073,37.6582408 12.5178895,36.4948699 12.9742822,35.9846387 C11.2544452,35.9769633 10.9370614,36.5007178 10.7798695,36.9034934 C10.362752,36.5602935 10.0030927,35.9404138 10.0030927,35.1673916 C10.0030927,34.7236805 10.0968259,34.2269727 10.9431527,34.2269727 C11.7532043,34.2269727 12.9893741,34.3472206 13.838701,34.500363 C14.4901062,33.5815083 15.7791884,31.808857 16.3822269,30.4375193 C16.1403933,30.4784548 15.7928257,30.5102529 15.2577915,30.5102529 C14.9903199,30.5102529 14.7016652,30.4828407 14.5353818,30.4086452 C15.5993588,29.4835771 16.5922403,28.446302 17.3902003,27.3161911 C18.538819,25.6879103 19.2914125,23.8728616 19.2914125,21.9192902 C19.2914125,21.3893223 19.16595,20.8577096 18.9876658,20.2895475 L14.3979185,27.319115 L12.242781,30.7869327 C10.2812013,33.9035095 8.74419417,33.8505127 6.42595536,33.8505127 C8.33616813,32.3786639 9.61770443,30.4784548 10.2176518,29.5182991 L11.5854663,27.319115 L16.3625893,19.6349458 C16.0301135,19.5255713 15.7021835,19.4101663 15.3817085,19.2856238 L10.3869353,27.319115 L9.94417981,28.030003 C7.98405475,31.1465799 6.44704761,31.0921211 4.13026344,31.0921211 C5.74127532,29.8494377 6.88225719,28.3399429 7.56848279,27.3070537 L7.92059616,26.760273 L13.200933,18.2679027 C12.9001866,18.1023334 12.607077,17.9277181 12.3244226,17.7469807 L7.99760113,24.706556 C7.08636117,26.1557441 6.26576338,26.9181669 5.41634553,27.319115 C4.43855589,27.7840248 3.42149099,27.770136 2.18223012,27.770136 L2.73381075,27.3176531 C4.35245948,25.9203652 5.42389146,24.3147452 5.97401748,23.4353639 L10.4111187,16.296422 C10.1496475,16.0579364 9.9018135,15.8148822 9.66761675,15.5627819 L6.52259794,20.6222394 C4.56247288,23.7405524 3.02555665,23.6842661 0.707226929,23.6842661 C2.63262249,22.198894 3.89152099,20.3245437 4.49901429,19.3478493 L8.15333832,13.4726981 C7.95687124,13.1082081 7.78904235,12.7344894 7.65157904,12.3517246 L5.81682563,15.3060216 C3.85524595,18.4243346 2.31823881,18.3681397 0,18.3681397 C1.91775871,16.8918135 3.18874889,15.0007418 3.793242,14.0332763 L7.37656151,8.27353013 C7.72412914,6.49183283 8.64146038,4.82855594 10.0106387,3.59217734 C9.5512457,3.41600868 9.16740304,3.23225603 8.93611556,3.05608738 C11.2770831,3.05608738 13.5938673,1.86064423 14.8709487,1.86064423 C15.6915465,1.86064423 16.2204894,2.35433676 16.2204894,3.00747653 C16.1645767,3.73197922 15.4225294,4.47009661 14.0488054,4.47009661 C13.7375128,4.47009661 13.3400329,4.42916116 12.9032777,4.35779823 C12.1596849,5.39973343 11.5581919,6.34143159 11.5581919,7.6826159 C11.5581919,10.2056287 14.5611108,12.1725406 17.5897585,12.1725406 L18.0959727,12.1528039 C18.69592,10.1083156 19.9730015,8.76868462 20.9931575,7.45938976 C19.7704431,7.01129274 18.4058106,5.84326173 18.4058106,5.31466443 C18.5600023,5.22511813 20.9054246,5.96332688 21.1472582,6.02856776 C21.5885591,5.94349878 21.8273016,5.52582923 21.8273016,5.48324905 C21.5764674,5.44076024 20.10601,5.25088553 19.1024914,4.88173546 C18.3378063,4.6007611 17.9508725,4.09190052 17.9508725,3.89901048 C18.1972519,3.85953701 19.1252201,4.35021419 20.4928529,4.35021419 C20.9976123,4.35021419 21.0943458,4.33047745 21.5961051,4.26816053 C21.2439917,3.42368408 20.5820404,2.71124273 19.8369928,2.71124273 C19.5377919,2.71124273 18.881841,2.89810211 18.3348061,3.17606113 C17.9524181,2.57911624 17.6183967,1.79686532 17.6183967,1.36850505 C17.6183967,0.861197828 18.1156103,0.27037497 19.5181543,0.27037497 C19.9109976,0.27037497 20.2767482,0.303817765 20.6168608,0.367596679 C20.8917874,0.420776221 21.1216202,0.483093135 21.3679087,0.57867011 C21.337634,0.206596112 21.5144635,0 22.171869,0 C23.3265791,0 24.5099273,0.382764766 25.9605653,0.382764766 C26.3369529,0.382764766 26.5922419,0.367596717 26.8086194,0.274943703 C26.7147952,0.566517436 26.3067692,0.993324352 25.9351091,1.34118432 C26.1660329,1.65715486 26.7631619,2.42113101 26.7631619,3.65604763 C26.7631619,5.64123433 25.4634426,7.27856108 25.4634426,9.28357589 C25.4634426,10.4759123 26.3762281,11.5285382 26.6497001,12.1528039 L27.1544596,12.1725406 C30.1848347,12.1725406 33.1861171,10.2056287 33.1861171,7.68261592 C33.1861171,6.34143159 32.5860789,5.39973343 31.842395,4.35779825 C31.4056399,4.42916118 31.0085237,4.47009663 30.6968674,4.47009663 C29.3233252,4.47009663 28.5796414,3.73197925 28.5269108,3.00747655 C28.5269108,2.35433678 29.0527625,1.86064425 29.8749968,1.86064425 C31.1518055,1.86064425 33.4686806,3.0560874 35.8095572,3.0560874 C35.5768151,3.23225605 35.1946089,3.4160087 34.7334886,3.59217736 C36.1044851,4.82855595 37.0216345,6.49183284 37.3692931,8.27353015 L40.9524308,14.0332763 C41.5553783,15.0007418 42.8281868,16.8918136 44.7457637,18.3681397 C42.427434,18.3681397 40.8906087,18.4243346 38.9304836,15.3060216 L37.0929118,12.3517246 C36.9569031,12.7344894 36.7874378,13.1082081 36.5925163,13.4726981 L40.2451129,19.3478493 C40.8542427,20.3245437 42.1117775,22.198894 44.0384458,23.6842661 C41.7201161,23.6842661 40.1832908,23.7405524 38.2231657,20.6222394 L35.0767832,15.5627819 C34.8440411,15.8148822 34.5945706,16.0579365 34.3330994,16.296422 L38.771928,23.435364 C39.3217813,24.3147452 40.393486,25.9218272 42.0121348,27.3176531 L42.5634427,27.770136 C41.3244545,27.770136 40.3072987,27.7821974 39.3294182,27.3191151 C38.4784548,26.9196289 37.6594934,26.1557441 36.7481626,24.706556 L32.4213411,17.7469808 C32.137323,17.9277181 31.845668,18.1023334 31.5449215,18.2679027 L36.8252584,26.760273 L37.1758262,27.319115 L37.1758262,27.319115 Z"/>
      <path fill="#FFF" d="M18.2221734,30.4785226 C18.0974255,29.9969471 17.9756265,29.6440684 17.4987965,29.6440684 C17.2551986,29.6440684 17.1392975,29.6893577 16.9922987,29.7474789 C16.4782946,31.2563652 14.4967157,34.090339 14.1847567,34.5247383 C13.3291257,34.3775483 12.1333869,34.2190359 11.164893,34.2190359 C10.9390779,34.2190359 10.6271189,34.1956365 10.6271189,34.7711872 C10.6271189,35.1051953 10.76679,35.687162 10.9375588,35.8800186 C11.3638998,35.3482475 12.0977319,35.1897352 13.0068007,35.1897352 C13.3603126,35.1897352 13.7881728,35.3199418 13.9500948,35.3607021 C12.7928707,36.59974 11.7010587,37.6255412 11.7010587,38.3109183 C11.7010587,38.6951219 12.0784299,39.2019839 12.394857,39.3714412 C12.394857,38.3596042 13.3871209,36.9620539 14.3585637,36.181192 C14.3585637,36.3193242 14.4045846,36.8492083 14.4045846,37.4247589 C14.4045846,39.3337002 14.5828597,39.7118653 15.2780878,39.7118653 C15.4042654,39.7118653 15.6226636,39.6631793 15.7044288,39.6110967 C15.3300958,39.1582044 15.1726419,38.5573672 15.1726419,37.4232493 C15.1726419,37.0971668 15.1814886,36.7895774 15.1814886,36.5231258 C15.1814886,36.0196604 15.1265316,35.6652722 15.0908766,35.3874982 C15.3582445,35.3482476 15.9613415,35.2572917 16.4055548,35.2572917 C17.3517084,35.2572917 17.9385417,35.3546635 18.3663125,35.8045366 C18.6738036,35.5584651 19.0169496,35.0942504 19.0169496,34.7742065 C19.0169496,34.3130111 18.7227733,34.2816861 18.4138526,34.2816861 C17.9339843,34.2816861 17.5404387,34.4824684 15.7222117,34.4824684 C16.0801916,33.400433 17.1289316,31.8806018 18.2221734,30.4785226 L18.2221734,30.4785226 L18.2221734,30.4785226 Z"/>
      <path fill="#FFF" fill-rule="nonzero" d="M29.0242573 34.4824684C27.2056503 34.4824684 26.8106118 34.2816861 26.3322756 34.2816861 26.0244674 34.2816861 25.7288141 34.3130112 25.7288141 34.7742065 25.7288141 35.0942504 26.072015 35.5584651 26.3780357 35.8045366 26.8059643 35.3546635 27.3944107 35.2572917 28.3407156 35.2572917 28.7833017 35.2572917 29.3881932 35.3482476 29.6541738 35.3874982 29.6184237 35.6652722 29.5647986 36.0196605 29.5647986 36.5231258 29.5647986 36.7895774 29.5737361 37.0971668 29.5737361 37.4232493 29.5737361 38.5573672 29.4164357 39.1582044 29.0421323 39.6110967 29.1236425 39.6631793 29.3420755 39.7118653 29.4682733 39.7118653 30.1636126 39.7118653 30.3420055 39.3337002 30.3420055 37.4247589 30.3420055 36.8492083 30.3881231 36.3193242 30.3881231 36.181192 31.3598105 36.9620539 32.3504455 38.3596042 32.3504455 39.3714412 32.6686212 39.201984 33.0457847 38.6951219 33.0457847 38.3109183 33.0457847 37.6255412 31.952547 36.59974 30.7963891 35.3607021 30.9586945 35.3199418 31.3862656 35.1897352 31.7398339 35.1897352 32.6493162 35.1897352 33.3832655 35.3482475 33.8094065 35.8800186 33.980292 35.687162 34.1186448 35.1051953 34.1186448 34.7711872 34.1186448 34.1956365 33.8065465 34.2190359 33.580606 34.2190359 32.6135661 34.2190359 31.4159381 34.3775483 30.5618685 34.5247383 30.2497703 34.090339 28.2677854 31.2563652 27.7540566 29.7474789 27.6067662 29.6893577 27.4909359 29.6440684 27.2471203 29.6440684 26.7702141 29.6440684 26.6486638 29.9969471 26.523896 30.4785226 27.6171338 31.8806018 28.6660414 33.4004331 29.0242573 34.4824684L29.0242573 34.4824684zM35.2372889 8.29571486C35.2372889 6.12196543 33.5979139 4.39845062 33.0205477 3.91525432L32.6057299 4.00707611C33.2187592 4.73114612 34.3014149 5.93995183 34.3014149 7.54302979 34.3014149 10.6965738 30.8458513 13.4347465 26.9033929 13.4873584 26.9349266 13.8125379 26.9330496 14.0969681 26.9330496 14.3423695 26.9330496 14.7939625 26.9003897 15.2350511 26.8474582 15.6610173 31.3218594 15.5856763 35.2372889 12.07544 35.2372889 8.29571486L35.2372889 8.29571486zM10.4337508 7.54163192C10.4337508 5.93917167 11.5025545 4.73083174 12.1101582 4.00704073L11.6999862 3.91525432C11.1293082 4.39826444 9.50847478 6.12111513 9.50847478 8.29402696 9.50847478 12.0993609 13.4365139 15.6324132 17.8983055 15.6610173 17.8505248 15.2472543 17.8226913 14.8063356 17.8226913 14.3383517 17.8226913 14.0448887 17.836608 13.7591197 17.8627715 13.4866571 13.9177539 13.4866571 10.4337508 10.7225648 10.4337508 7.54163192L10.4337508 7.54163192zM22.4233953 4.47457637C22.6400461 4.03447634 22.9322039 3.50818567 22.9322039 2.92780598 22.9322039 1.3254514 21.4406199.559322046 19.4423002.559322046 18.4167868.559322046 17.8983055.854744898 17.8983055 1.1528942 17.8983055 1.4482291 18.2363597 2.10028777 18.3692125 2.30204426 18.7383578 2.15727915 19.4029181 1.98331474 19.7884479 1.98331474 21.1584311 1.98331474 22.1839444 3.35031607 22.4233953 4.47457637L22.4233953 4.47457637z"/>
      <path fill="#FFF" d="M22.830063,2.77541078 C23.8578508,2.97987894 24.5606712,1.64384329 23.5833334,1.40547414 C23.7190264,1.84547899 23.0596974,2.1588198 23.0596974,2.1588198 C23.0596974,2.1588198 22.8095351,1.56444591 23.132067,1.22747177 C22.5364094,0.931745312 22.3843636,1.29217577 22.3728818,1.67030909 C22.6073873,1.98816413 22.7618686,2.36187173 22.830063,2.77541078 L22.830063,2.77541078 L22.830063,2.77541078 Z"/>
    </g>
  </g>
</svg>
