<?xml version="1.0" encoding="UTF-8"?>
<svg width="208px" height="166px" viewBox="0 0 208 166" version="1.1" xmlns="http://www.w3.org/2000/svg" xmlns:xlink="http://www.w3.org/1999/xlink">
    <title>icon_kfz_anmelden</title>
    <defs>
        <rect id="path-1" x="0.944622496" y="0.375" width="128" height="23.5" rx="3.15"></rect>
    </defs>
    <g id="icon_kfz_anmelden" stroke="none" stroke-width="1" fill="none" fill-rule="evenodd">
        <g id="icon_kfz" transform="translate(18.000000, 57.000000)">
            <g id="Auto" transform="translate(38.219622, 14.500000)" stroke="#1B1B1B">
                <path d="M72.4500852,-0.75 C75.6387367,-0.75 82.3654085,2.7169724 89.1125716,6.61699393 L89.1125716,6.61699393 L90.078431,7.17760704 C91.8865819,8.2312178 93.6840314,9.3003422 95.4001797,10.3211195 C99.1552095,12.5546382 102.517798,14.5562685 104.739711,15.6454613 C108.255565,17.3689501 112.592772,17.8553451 116.850784,18.34917 C121.23871,18.8580615 125.544852,19.3768785 128.88681,21.0851438 C130.86779,22.0977354 132.586771,23.6718229 133.795981,26.1378924 C134.818223,28.2226576 135.476826,30.9617855 135.592541,34.5720307 C135.713686,38.3517232 135.157213,41.4200305 134.173111,43.576615 C133.6193,44.79025 132.926329,45.7255637 132.145504,46.3641879 C131.301951,47.0541165 130.352286,47.409642 129.336548,47.4130005 L129.336548,47.4130005 L128.204588,47.4130926 C116.070305,47.3954438 31.8276722,46.9441262 17.2646246,46.6222962 C10.1059578,46.4640962 5.81961743,45.523727 3.25291333,43.9614686 C0.0701695212,42.0242495 -0.652898619,39.1510386 -0.70299147,35.3926185 C-0.733803053,33.0808541 -0.746945386,31.8792117 -0.749519379,31.030313 L-0.749212188,30.3548801 C-0.747364094,29.9290082 -0.74240766,29.5519797 -0.735884681,29.0567916 C-0.726591581,28.3513114 -0.714118525,27.4044174 -0.703041729,25.7267864 C-0.686969131,23.2925184 0.319922357,21.5476589 2.31504468,20.0355745 C4.54277771,18.3471965 8.08785498,16.9545845 12.8977847,15.0873336 C13.7746337,14.7469342 14.6940499,14.3900125 15.655598,14.0115437 C20.5188033,12.0973687 25.6477086,8.76848067 30.2351725,5.79706051 C35.56253,2.34639189 40.1954215,-0.562133789 42.9349722,-0.562133322 L42.9349722,-0.562133322 L43.4829891,-0.562744522 C46.1128741,-0.568127787 51.2221227,-0.608196486 56.5386906,-0.649883242 C62.3818992,-0.695699342 68.4753761,-0.743470001 71.8072244,-0.749387354 L71.8072244,-0.749387354 Z" id="Path-2" stroke-width="1.5" fill="#99DEE0"></path>
                <circle id="Oval" stroke-width="1.5" fill="#D8D8D8" cx="113.312964" cy="46.1256042" r="11.4"></circle>
                <circle id="Oval" stroke-width="0.5" fill="#D8D8D8" cx="113.312964" cy="46.1256042" r="4.559375"></circle>
                <circle id="Oval" stroke-width="1.5" fill="#FFFFFF" cx="113.312964" cy="46.1256042" r="4.059375"></circle>
                <circle id="Oval" stroke-width="1.5" fill="#D8D8D8" cx="28.2629637" cy="46.1256042" r="11.4"></circle>
                <circle id="Oval" stroke-width="0.5" fill="#D8D8D8" cx="28.2629637" cy="46.1256042" r="4.559375"></circle>
                <circle id="Oval" stroke-width="1.5" fill="#FFFFFF" cx="28.2629637" cy="46.1256042" r="4.059375"></circle>
                <path d="M19.0239012,19.5306702 C20.6266966,18.1083252 38.1140745,4.49272156 43.6951841,4.49272156 C49.2762937,4.49272156 66.0297575,4.30485535 72.0464201,4.30485535 C78.0630827,4.30485535 95.6697396,16.9310752 100.931344,20.7518005 C102.23479,21.6983002 101.658998,23.194436 99.2886434,23.1862874 C96.9182887,23.1779367 27.7081174,22.0164869 22.9992491,21.8876495 C17.4848793,21.7367731 17.4211057,20.9530151 19.0239012,19.5306702 Z" id="Path" stroke-width="1.5" fill="#FFFFFF"></path>
                <path d="M54.2829283,15 L54.2829283,22.1035156 M54.2829283,26.5703125 L54.2829283,28.3195957 M54.2829283,30.796875 C54.2829283,31.475177 54.2829283,31.9839035 54.2829283,32.3230545 C54.2829283,33.1068893 54.2829283,34.2826416 54.2829283,35.8503113 C54.584503,38.5661316 55.9424131,39.9240417 58.3566587,39.9240417 C59.9694743,39.9240417 66.412768,39.9240417 77.6865397,39.9240417 C78.3234831,39.9240417 79.0494331,39.9240417 79.8643897,39.9240417 M82.8763549,39.9240417 C83.6516561,39.9240417 84.4793272,39.9240417 85.3593682,39.9240417 M88.3564438,39.9240417 C89.7567008,39.9240417 92.3282466,39.9240417 96.0710813,39.9240417" id="Shape" stroke-width="1.5" stroke-linecap="round" stroke-linejoin="round"></path>
            </g>
            <g id="KFZ-Kennzeichen">
                <rect id="Rectangle" fill-opacity="0.1" fill="#000000" x="3.9446225" y="3.975" width="129" height="23.4" rx="3.15"></rect>
                <g id="Rectangle">
                    <use fill="#FFFFFF" fill-rule="evenodd" style="mix-blend-mode: normal;" xlink:href="#path-1"></use>
                    <rect stroke="#FFFFFF" stroke-width="0.5" stroke-linejoin="square" x="1.1946225" y="0.625" width="127.5" height="23" rx="3.15"></rect>
                </g>
                <path d="M3.5946225,0.5 L11.0446225,0.5 L11.0446225,0.5 L11.0446225,23.9 L3.5946225,23.9 C1.85492553,23.9 0.444622496,22.489697 0.444622496,20.75 L0.444622496,3.65 C0.444622496,1.91030304 1.85492553,0.5 3.5946225,0.5 Z" id="Rectangle" fill="#00ADB2"></path>
                <path d="M110.920316,0.5 L116.141089,0.5 L125.094622,0.5 C126.834319,0.5 128.244622,1.91030304 128.244622,3.65 L128.244622,20.75 C128.244622,22.489697 126.834319,23.9 125.094622,23.9 L3.15,23.9 C1.41030304,23.9 2.7000624e-13,22.489697 2.7000624e-13,20.75 L2.7000624e-13,3.65 C2.7000624e-13,1.91030304 1.41030304,0.5 3.15,0.5 L101.070727,0.5" id="Path" stroke="#1B1B1B" stroke-width="1.5" stroke-linecap="round" stroke-linejoin="round"></path>
                <line x1="104.465274" y1="0.5" x2="107.954386" y2="0.5" id="Path" stroke="#1B1B1B" stroke-width="1.5" stroke-linecap="round" stroke-linejoin="round"></line>
                <text id="B-ZLB-2020" font-family="PTSans-Bold, PT Sans" font-size="19.125" font-weight="bold" letter-spacing="0.683035737" fill="#242424">
                    <tspan x="15.0696225" y="18.625">B  ZLB-2020</tspan>
                </text>
                <circle id="Oval" stroke="#1B1B1B" stroke-width="0.5" fill="#99DEE0" cx="31.9446225" cy="14.9" r="3.35"></circle>
                <circle id="Oval-Copy-4" stroke="#1B1B1B" stroke-width="0.5" fill="#00ADB2" cx="31.9446225" cy="7.475" r="2"></circle>
            </g>
        </g>
    </g>
</svg>