<?xml version="1.0" encoding="UTF-8"?>
<svg width="63px" height="53px" viewBox="0 0 63 53" version="1.1" xmlns="http://www.w3.org/2000/svg" xmlns:xlink="http://www.w3.org/1999/xlink">
    <title>icon_chatbot</title>
    <defs>
        <path d="M23.0346171,0 C32.9757426,0 41.0346171,8.0588745 41.0346171,18 C41.0346171,27.9411255 32.9757426,36 23.0346171,36 C16.461598,36 10.7114584,32.4768344 7.56961305,27.2159179 L0.408096693,27.7197025 L5.53071464,22.214504 C5.20638986,20.8626029 5.03461707,19.4513613 5.03461707,18 C5.03461707,8.0588745 13.0934916,0 23.0346171,0 Z" id="path-1"></path>
    </defs>
    <g id="01_Design" stroke="none" stroke-width="1" fill="none" fill-rule="evenodd">
        <g id="05_Reisepass_beantragen_01" transform="translate(-1214.000000, -887.000000)">
            <g id="Button-Chatbot" transform="translate(1186.000000, 864.000000)">
                <g id="icon_chatbot" transform="translate(28.000000, 25.000000)">
                    <g id="Group-14" transform="translate(20.000000, 0.000000)">
                        <mask id="mask-2" fill="white">
                            <use xlink:href="#path-1"></use>
                        </mask>
                        <path stroke="#242424" stroke-width="1.5" d="M23.0346171,-0.75 C28.2122866,-0.75 32.8997866,1.34866524 36.2928692,4.74174785 C39.6859518,8.13483047 41.7846171,12.8223305 41.7846171,18 C41.7846171,23.1776695 39.6859518,27.8651695 36.2928692,31.2582521 C32.8997866,34.6513348 28.2122866,36.75 23.0346171,36.75 C16.354083,36.75 10.4894159,33.2562761 7.16859698,27.9959813 L7.16859698,27.9959813 L-1.43673325,28.6013325 L4.71114184,21.994306 C4.43181693,20.7071856 4.28461707,19.37078 4.28461707,18 C4.28461707,12.8223305 6.38328231,8.13483047 9.77636493,4.74174785 C13.1694475,1.34866524 17.8569475,-0.75 23.0346171,-0.75 Z"></path>
                        <g mask="url(#mask-2)">
                            <g transform="translate(6.034617, 0.000000)">
                                <g id="Group-2-Copy" stroke="none" stroke-width="1" fill="none" transform="translate(11.000000, 13.000000)">
                                    <circle id="Oval" stroke="#242424" stroke-width="1.5" fill="#F2F2F2" cx="11.6853933" cy="5.39325843" r="4.64325843"></circle>
                                    <path d="M11.6853933,10.738764 C14.0828361,10.738764 16.1027268,11.515287 17.7393435,13.0821228 C19.4359435,14.7063845 20.7191897,17.1523144 21.6239332,20.3966486 C21.7031969,20.6808814 21.7433826,20.9745849 21.7433826,21.2696629 C21.7433826,22.1671271 21.3796133,22.9796285 20.7914779,23.5677632 C20.2033431,24.1558973 19.3908425,24.519665 18.4933774,24.5196629 L18.4933774,24.5196629 L4.87740475,24.5196629 C4.58232679,24.5196629 4.28862333,24.4794772 4.00439055,24.4002135 C3.1399118,24.1591373 2.45498862,23.5904845 2.04645465,22.8659811 C1.63792098,22.1414782 1.50577617,21.261125 1.74685401,20.396646 C2.65159765,17.1523127 3.93484375,14.7063835 5.63144369,13.0821222 C7.26806025,11.5152868 9.28795073,10.738764 11.6853933,10.738764 Z" id="Oval" stroke="#242424" stroke-width="1.5" fill="#F2F2F2"></path>
                                </g>
                                <path d="M8.8333335,-1.75 C10.9267308,-1.75 12.8216838,-0.907718943 14.1934597,0.453255604 C15.56739,1.81636751 16.416667,3.69963218 16.416667,5.77952772 C16.416667,7.85942327 15.56739,9.74268794 14.1934597,11.1057998 C12.8216838,12.4667744 10.9267308,13.3090554 8.8333335,13.3090554 C8.33053242,13.3090554 7.83918363,13.2603878 7.36378539,13.1676389 L7.36378539,13.1676389 L2.27693937,17.14545 L3.26145034,10.8871305 C2.01253492,9.54465647 1.25,7.75035842 1.25,5.77952772 C1.25,3.69963218 2.099277,1.81636751 3.47320725,0.453255604 C4.84498318,-0.907718943 6.73993616,-1.75 8.8333335,-1.75 Z" id="Combined-Shape" stroke="#242424" stroke-width="1.5" fill="#F8F8F8" stroke-linejoin="round" transform="translate(8.833334, 7.191420) rotate(-90.000000) translate(-8.833334, -7.191420) "></path>
                            </g>
                        </g>
                    </g>
                    <g id="Group-2" transform="translate(0.000000, 25.000000)" fill="#EFEFEF" stroke="#242424" stroke-width="1.5">
                        <circle id="Oval" cx="11.6853933" cy="5.39325843" r="4.64325843"></circle>
                        <path d="M11.6853933,10.738764 C14.0828361,10.738764 16.1027268,11.515287 17.7393435,13.0821228 C19.4359435,14.7063845 20.7191897,17.1523144 21.6239332,20.3966486 C21.7031969,20.6808814 21.7433826,20.9745849 21.7433826,21.2696629 C21.7433826,22.1671271 21.3796133,22.9796285 20.7914779,23.5677632 C20.2033431,24.1558973 19.3908425,24.519665 18.4933774,24.5196629 L18.4933774,24.5196629 L4.87740475,24.5196629 C4.58232679,24.5196629 4.28862333,24.4794772 4.00439055,24.4002135 C3.1399118,24.1591373 2.45498862,23.5904845 2.04645465,22.8659811 C1.63792098,22.1414782 1.50577617,21.261125 1.74685401,20.396646 C2.65159765,17.1523127 3.93484375,14.7063835 5.63144369,13.0821222 C7.26806025,11.5152868 9.28795073,10.738764 11.6853933,10.738764 Z" id="Oval"></path>
                    </g>
                </g>
            </g>
        </g>
    </g>
</svg>