<?xml version="1.0" encoding="UTF-8"?>
<svg width="208px" height="166px" viewBox="0 0 208 166" version="1.1" xmlns="http://www.w3.org/2000/svg" xmlns:xlink="http://www.w3.org/1999/xlink">
    <title>icon_kita_umfang</title>
    <g id="icon_kita_umfang" stroke="none" stroke-width="1" fill="none" fill-rule="evenodd">
        <g id="Group-6" transform="translate(42.000000, 15.000000)">
            <g id="icon_kita" transform="translate(13.000000, 0.000000)">
                <path d="M45.5005243,18.63 L81.3087409,50.6312643 L81.5442536,92.7223077 C80.9750476,98.8966667 78.2355757,101.983846 73.3258378,101.983846 C68.4160998,101.983846 50.3427331,101.983846 19.1057374,101.983846 C12.5070407,101.160598 9.20769231,98.0734188 9.20769231,92.7223077 C9.20769231,87.3711966 9.20769231,73.5980738 9.20769231,51.4029394 L45.5005243,18.63 Z" id="Path-2" fill="#F8F8F8"></path>
                <path d="M81.3087409,89.3106876 L81.3087409,93.2241484 C81.3087409,98.0619959 76.8772352,101.983846 71.4106958,101.983846 L18.621122,101.983846 C13.1545827,101.983846 8.72307692,98.0619959 8.72307692,93.2241484 L8.72307692,53.2931111 M81.4996027,51.7188452 L81.3087409,76.2126853 M81.4153846,80.6607692 L81.4153846,84.5376923" id="Shape" stroke="#242424" stroke-width="1.5" stroke-linecap="round" stroke-linejoin="round"></path>
                <polyline id="Path" stroke="#242424" stroke-width="1.5" stroke-linecap="round" stroke-linejoin="round" points="0.969230769 59.6123077 45.5538462 18 90.1384615 59.6123077"></polyline>
                <g id="icon_baby_l" transform="translate(15.000000, 44.000000)">
                    <path d="M22.726273,3.76217866 C29.0386883,3.76217866 34.4163486,7.76434132 36.460245,13.369658 C36.7453203,13.3192043 37.039802,13.293116 37.3403769,13.293116 C40.1477322,13.293116 42.4235434,15.5689272 42.4235434,18.3762826 C42.4235434,21.1836379 40.1477322,23.4594491 37.3403769,23.4594491 C37.039802,23.4594491 36.7453203,23.4333608 36.4590728,23.3833249 C35.0507236,27.2483494 32.055983,30.3513076 28.2626347,31.9052588 C27.2664083,32.3408093 26.250889,32.6348392 25.2160767,32.7873484 L24.9490025,32.8211787 L24.5701739,32.8751739 L24.7670025,32.8431787 L24.32437,32.8834125 C23.3424176,32.9506767 21.9310733,32.894472 20.0903372,32.7147985 L19.6893215,32.6744072 C14.7305086,31.6263444 10.6993574,28.0638245 8.99251517,23.3834947 C8.70722556,23.4333608 8.41274394,23.4594491 8.11216905,23.4594491 C5.30481368,23.4594491 3.02900248,21.1836379 3.02900248,18.3762826 C3.02900248,15.5689272 5.30481368,13.293116 8.11216905,13.293116 C8.4123928,13.293116 8.70653751,13.3191434 8.99246987,13.369065 C11.0361973,7.76434132 16.4138576,3.76217866 22.726273,3.76217866 Z" id="Combined-Shape" fill-opacity="0.1" fill="#000000"></path>
                    <g id="Group-Copy" transform="translate(0.000000, 1.969727)" stroke="#242424">
                        <circle id="Oval-Copy" stroke-width="1.5" fill="#F8F8F8" cx="5.08316657" cy="14.6141039" r="4.33316657"></circle>
                        <circle id="Oval-Copy-2" stroke-width="1.5" fill="#F8F8F8" cx="34.3113744" cy="14.6141039" r="4.33316657"></circle>
                        <path d="M21.5411714,29.1129952 C21.8315108,29.0764422 22.1191983,29.0313713 22.4039756,28.9780407 M25.2336322,28.1430801 C30.5596696,25.9612605 34.3113744,20.725811 34.3113744,14.6141039 C34.3113744,6.54295718 27.7684172,0 19.6972705,0 C11.6261238,0 5.08316657,6.54295718 5.08316657,14.6141039 C5.08316657,21.6439045 10.0466847,27.5144134 16.660319,28.9122286" id="Shape" stroke-width="1.5" fill="#FFFFFF" stroke-linecap="round" stroke-linejoin="round"></path>
                        <circle id="Oval-Copy-6" stroke-width="1.27079164" cx="14.6141039" cy="13.9787081" r="1"></circle>
                        <circle id="Oval-Copy-7" stroke-width="1.27079164" cx="24.780437" cy="13.9787081" r="1"></circle>
                        <circle id="Oval-Copy-4" stroke-width="1.5" fill="#66CED1" cx="22.8742496" cy="21.6034579" r="3.06237493"></circle>
                        <circle id="Oval-Copy-5" stroke-width="1.5" fill="#66CED1" cx="16.5202914" cy="21.6034579" r="3.06237493"></circle>
                        <circle id="Oval-Copy-3" stroke-width="1.5" fill="#66CED1" cx="19.6972705" cy="21.6034579" r="2.42697911"></circle>
                    </g>
                    <g id="Group-4" transform="translate(5.296377, 0.000000)" fill="#CCEFF0" stroke="#242424" stroke-width="1.5">
                        <path d="M1.95337708,9.06373674 C-0.480050558,8.43092489 -0.656076507,2.17751265 1.95337708,0.835641778 C4.56283066,-0.506229094 12.5800913,1.40181698 12.5800913,3.59911442 C12.5800913,5.79641187 4.38680471,9.69654859 1.95337708,9.06373674 Z" id="Path-3"></path>
                        <path d="M17.5549845,9.06373674 C15.0699858,8.41751385 14.8273364,2.23829234 17.5549845,0.835641778 C20.2826327,-0.567008788 28.1816988,1.38246992 28.1816988,3.59911442 C28.1816988,5.81575892 20.0399833,9.70995964 17.5549845,9.06373674 Z" id="Path-3-Copy" transform="translate(21.890441, 4.748620) scale(-1, 1) translate(-21.890441, -4.748620) "></path>
                        <circle id="Oval" cx="13.9279006" cy="3.34256711" r="2.59256711"></circle>
                    </g>
                </g>
                <g id="Group-10" transform="translate(84.000000, 39.000000) rotate(-16.000000) translate(-84.000000, -39.000000) translate(52.000000, 8.000000)">
                    <circle id="Oval" fill="#FFFFFF" cx="31.1480099" cy="30.9214939" r="26"></circle>
                    <g id="Group-9" transform="translate(31.000000, 31.000000) rotate(-50.000000) translate(-31.000000, -31.000000) translate(9.000000, 9.000000)">
                        <circle id="Oval" fill="#CCEFF0" cx="22" cy="22" r="22"></circle>
                        <path d="M30.16912,42.4333799 C38.2744711,39.1899934 44,31.2636311 44,22 C44,9.8497355 34.1502645,7.95807864e-13 22,7.95807864e-13 C9.8497355,7.95807864e-13 0,9.8497355 0,22 C0,31.3519734 5.83525225,39.3410507 14.0634156,42.5248907 L22,22 L30.16912,42.4333799 Z" id="Path" fill="#33BDC1"></path>
                    </g>
                    <g id="Group-8" transform="translate(32.500000, 31.000000) rotate(-8.000000) translate(-32.500000, -31.000000) translate(5.000000, 5.000000)" stroke="#1B1B1B" stroke-linecap="round" stroke-linejoin="round" stroke-width="1.5">
                        <g id="Group-4" transform="translate(50.097114, 35.782051) rotate(-240.000000) translate(-50.097114, -35.782051) translate(48.097114, 31.282051)">
                            <line x1="4" y1="4.73205081" x2="0" y2="0.732050808" id="Path-3"></line>
                            <line x1="4" y1="9" x2="-4.54747004e-12" y2="5" id="Path-3-Copy" transform="translate(2.000000, 7.000000) scale(1, -1) translate(-2.000000, -7.000000) "></line>
                        </g>
                        <path d="M48.9109971,37.281103 C50.6320841,33.8233006 51.6,29.9246848 51.6,25.8 C51.6,11.5510535 40.0489465,0 25.8,0 C11.5510535,0 0,11.5510535 0,25.8 C0,40.0489465 11.5510535,51.6 25.8,51.6 C29.1992177,51.6 32.4448969,50.9426237 35.4168425,49.7480663" id="Path"></path>
                    </g>
                </g>
                <g id="icon_baby_m" transform="translate(34.000000, 60.000000)">
                    <circle id="Oval-Copy" stroke="#242424" stroke-width="1.5" fill="#FFFFFF" cx="5.08316657" cy="14.6141039" r="4.33316657"></circle>
                    <path d="M23.2252705,0.882 C29.5376859,0.882 34.9153461,4.88416266 36.9592426,10.4894794 C37.2443179,10.4390257 37.5387995,10.4129373 37.8393744,10.4129373 C40.6467297,10.4129373 42.9225409,12.6887485 42.9225409,15.4961039 C42.9225409,18.3034593 40.6467297,20.5792705 37.8393744,20.5792705 C37.5387995,20.5792705 37.2443179,20.5531821 36.9580703,20.5031462 C35.5497211,24.3681707 32.5549805,27.471129 28.7616322,29.0250801 C27.3646837,29.6135872 26.0313498,29.9658265 24.7616305,30.0817979 C23.4919112,30.1977692 21.967474,30.1019128 20.188319,29.7942286 C15.2295061,28.7461658 11.1983549,25.1836459 9.49151269,20.5033161 C9.20622308,20.5531821 8.91174146,20.5792705 8.61116657,20.5792705 C5.80381119,20.5792705 3.528,18.3034593 3.528,15.4961039 C3.528,12.6887485 5.80381119,10.4129373 8.61116657,10.4129373 C8.91139032,10.4129373 9.20553503,10.4389648 9.49146739,10.4888863 C11.5351949,4.88416266 16.9128551,0.882 23.2252705,0.882 Z" id="Combined-Shape" fill-opacity="0.1" fill="#000000"></path>
                    <circle id="Oval-Copy-2" stroke="#242424" stroke-width="1.5" fill="#FFFFFF" cx="34.3113744" cy="14.6141039" r="4.33316657"></circle>
                    <path d="M21.5411714,29.1129952 C21.8315108,29.0764422 22.1191983,29.0313713 22.4039756,28.9780407 M25.2336322,28.1430801 C30.5596696,25.9612605 34.3113744,20.725811 34.3113744,14.6141039 C34.3113744,6.54295718 27.7684172,0 19.6972705,0 C11.6261238,0 5.08316657,6.54295718 5.08316657,14.6141039 C5.08316657,21.6439045 10.0466847,27.5144134 16.660319,28.9122286" id="Shape" stroke="#242424" stroke-width="1.5" fill="#FFFFFF" stroke-linecap="round" stroke-linejoin="round"></path>
                    <path d="M19.6972705,0.635395822 C21.2420388,0.635395822 22.7283181,0.885824035 24.1174103,1.34867893 C24.0482171,2.35832634 23.7244965,3.24109616 23.2124405,3.94487427 C22.6098265,4.77311683 21.7481952,5.34993512 20.7554181,5.59207625 C20.2132815,6.37333437 20.0447725,6.65369161 19.810327,6.86653101 C19.734464,6.9354026 19.6516567,6.9971613 19.562838,7.0506008 L19.506,7.08 L19.5342573,7.03671436 C19.5962272,6.93129758 19.651543,6.82177675 19.6997183,6.70879328 L19.766565,6.53680126 C19.8604852,6.26985643 19.9136998,5.99145743 19.9257675,5.71136104 C19.6974257,5.72353441 19.4658522,5.71808484 19.2327156,5.69391168 C18.1076173,5.57725392 17.1076107,5.04127755 16.3909014,4.24554013 C15.7568425,3.54156651 15.3446697,2.63400022 15.2640695,1.63288736 C16.6618866,0.88522074 18.1508807,0.635395822 19.6972705,0.635395822 Z" id="Combined-Shape" stroke="#242424" stroke-width="1.27079164" fill="#242424"></path>
                    <circle id="Oval-Copy-6" stroke="#242424" stroke-width="1.27079164" cx="14.6141039" cy="13.9787081" r="1"></circle>
                    <circle id="Oval-Copy-7" stroke="#242424" stroke-width="1.27079164" cx="24.780437" cy="13.9787081" r="1"></circle>
                    <circle id="Oval-Copy-4" stroke="#242424" stroke-width="1.5" fill="#66CED1" cx="22.8742496" cy="21.6034579" r="3.06237493"></circle>
                    <circle id="Oval-Copy-5" stroke="#242424" stroke-width="1.5" fill="#66CED1" cx="16.5202914" cy="21.6034579" r="3.06237493"></circle>
                    <circle id="Oval-Copy-3" stroke="#242424" stroke-width="1.5" fill="#66CED1" cx="19.6972705" cy="21.6034579" r="2.42697911"></circle>
                </g>
                <polyline id="Path-4" stroke="#1B1B1B" stroke-width="1.5" stroke-linecap="round" stroke-linejoin="round" points="101.397612 39.9467943 82.9157797 39.429564 90.198479 46.6250417"></polyline>
            </g>
            <g id="Group-19" transform="translate(40.500000, 102.500000) scale(-1, 1) translate(-40.500000, -102.500000) translate(0.000000, 88.000000)" stroke="#1B1B1B" stroke-width="1.5">
                <path d="M46.4627582,26.0433068 L25.3904231,26.0433068 C11.8264653,18.1949624 4.10261931,13.7260814 2.21888511,12.6366635 C-0.606716192,11.0025368 -0.200887887,7.87596789 0.553759508,6.57079507 C1.24576349,5.37396489 3.24961896,3.19638103 6.17279058,4.61889703 C9.02455374,6.00666322 14.3942376,8.67925205 22.2818422,12.6366635 C24.298396,12.6366635 26.0879583,12.6366635 27.6505289,12.6366635 C30.0647986,12.6366635 34.2454401,12.6366635 40.1924536,12.6366635 C35.0930383,12.6366635 31.3098282,12.6366635 28.8428231,12.6366635 C23.1158807,12.6366635 23.0614549,9.29898698 23.0614549,7.79186627 C23.0614549,6.28474556 23.3579011,3.2564934 30.006024,3.2564934 C35.317059,3.2564934 38.4384239,3.2564934 39.3701186,3.2564934 C42.8830504,1.0854978 46.7524002,0 50.9781679,0 C55.2039357,0 58.7678168,1.53963234 61.6698113,4.61889703 L61.6698113,26.0433068 L50.4716414,26.0433068" id="Path-2" fill="#FFFFFF" stroke-linecap="round" stroke-linejoin="round"></path>
                <rect id="Rectangle" fill="#CCEFF0" x="61.5131642" y="3.10747571" width="17.8248731" height="24.6091371" rx="2.46700508"></rect>
                <circle id="Oval" fill="#00ADB2" cx="68.1641795" cy="21.0655975" r="1.71700508"></circle>
            </g>
        </g>
    </g>
</svg>