<svg xmlns="http://www.w3.org/2000/svg" xmlns:xlink="http://www.w3.org/1999/xlink" width="208" height="166" viewBox="0 0 208 166">
  <defs>
    <path id="icon_reisepass_verloren-a" d="M7.904,16.692 C7.904,15.796 8.05333333,15.06 8.352,14.484 C8.65066667,13.908 9.01333333,13.4013333 9.44,12.964 C9.86666667,12.5266667 10.336,12.116 10.848,11.732 C11.36,11.348 11.8293333,10.9053333 12.256,10.404 C12.6826667,9.90266667 13.04,9.29466667 13.328,8.58 C13.616,7.86533333 13.76,6.964 13.76,5.876 C13.76,4.23333333 13.1946667,2.92666667 12.064,1.956 C10.9333333,0.985333333 9.36533333,0.5 7.36,0.5 C5.86666667,0.5 4.592,0.681333333 3.536,1.044 C2.48,1.40666667 1.54666667,1.86533333 0.736,2.42 L0.736,2.42 L2.336,5.492 C2.61333333,5.3 2.928,5.11333333 3.28,4.932 C3.632,4.75066667 4,4.59066667 4.384,4.452 C4.768,4.31333333 5.152,4.20666667 5.536,4.132 C5.92,4.05733333 6.28266667,4.02 6.624,4.02 C7.69066667,4.02 8.432,4.244 8.848,4.692 C9.264,5.14 9.472,5.73733333 9.472,6.484 C9.472,7.06 9.33333333,7.556 9.056,7.972 C8.77866667,8.388 8.432,8.788 8.016,9.172 C7.6,9.556 7.152,9.956 6.672,10.372 C6.192,10.788 5.76533333,11.2786667 5.392,11.844 C5.01866667,12.4093333 4.72533333,13.0813333 4.512,13.86 C4.29866667,14.6386667 4.24533333,15.5826667 4.352,16.692 L4.352,16.692 L7.904,16.692 Z M6.272,23.7 C7.08266667,23.7 7.72266667,23.476 8.192,23.028 C8.66133333,22.58 8.896,21.9826667 8.896,21.236 C8.896,20.4893333 8.66133333,19.8973333 8.192,19.46 C7.72266667,19.0226667 7.08266667,18.804 6.272,18.804 C5.504,18.804 4.88533333,19.0226667 4.416,19.46 C3.94666667,19.8973333 3.712,20.4893333 3.712,21.236 C3.712,21.9826667 3.94666667,22.58 4.416,23.028 C4.88533333,23.476 5.504,23.7 6.272,23.7 Z"/>
  </defs>
  <g fill="none" fill-rule="evenodd" transform="translate(56 38)">
    <g fill-rule="nonzero">
      <path fill="#DEDEDE" d="M59.6666667,48.9850434 L59.6666667,79.1331917 C59.6666667,84.7409811 56.40332,88.4917514 52.3777778,87.5107716 L5,82.0565153 L5,12.7515873 L52.3777778,1.20615077 C57.6070715,0.236172468 59.6666667,2.63335222 59.6666667,9.5837307"/>
      <path fill="#008A8E" stroke="#242424" stroke-linecap="round" stroke-width="1.5" d="M49.9251068,46.1190077 L49.9251068,74.0480927 C49.9251068,79.0230945 46.9448092,82.3506247 43.2684259,81.4803396 L0,81.3730616 L0,10.4255284 L43.2684259,0.182888548 C48.0441524,-0.677636596 49.9251068,1.44904339 49.9251068,7.61513537"/>
      <line x1="49.925" x2="49.925" y1="36.951" y2="40.855" fill="#D4D2D2" stroke="#242424" stroke-linecap="round" stroke-width="1.5"/>
      <path fill="#CCEFF0" stroke="#242424" stroke-linecap="round" stroke-width="1.5" d="M54.3827056,49.2447519 L54.3827056,79.8847605 C54.3827056,83.8893923 51.1363101,87.1357879 47.1316782,87.1357879 L0,87.1357879 L0,11 L47.1316782,11 C51.1363101,11 54.3827056,14.2463956 54.3827056,18.2510274 L54.3827056,31.0192714 L54.3827056,36.457542"/>
      <g transform="translate(14 37)">
        <path fill="#66CED1" d="M21.5917199,15.866942 C21.9911246,16.4598388 22.6528564,17.3365534 23.590433,18.0583039 C22.2439471,18.0583039 21.3511477,18.0899336 20.2118623,16.2798258 L19.9556603,15.866942 L17.0546432,11.2010903 C16.8677193,11.2734246 16.6780496,11.3404518 16.4850005,11.4039765 L19.2595007,15.866942 L20.0538746,17.1442281 C20.4023768,17.7018865 21.1466931,18.805528 22.2553526,19.6603778 C20.9097116,19.6603778 20.0171234,19.6911583 18.8778379,17.8810505 L17.6259757,15.866942 L15.0745169,11.7621452 C14.855911,12.1141578 14.7838872,12.4229184 14.7838872,12.7307238 C14.7838872,13.865358 15.2202542,14.9229348 15.8881112,15.866942 C16.3515136,16.5216122 16.9283376,17.1240616 17.5452921,17.6613411 C17.4496124,17.7044339 17.2819089,17.7203549 17.1258222,17.7203549 C16.815972,17.7203549 16.6140519,17.7018865 16.473595,17.6781112 C16.8229421,18.4745842 17.5725387,19.50414 17.950822,20.0378108 C18.4442167,19.9488657 19.1612864,19.8790257 19.6316588,19.8790257 C20.1233638,19.8790257 20.1784905,20.1675137 20.1784905,20.425221 C20.1784905,20.8741923 19.9696004,21.2342185 19.7264937,21.433549 C19.6360943,21.1996169 19.451705,20.8954203 18.5441207,20.8954203 C18.7179493,21.1962204 19.5492856,21.8719063 19.5492856,22.4161911 C19.5492856,22.7762172 19.1568509,23.3160441 18.6381106,23.3160441 C18.6689478,23.1997149 18.6645123,23.0920892 18.6645123,23.0126966 C18.6645123,22.5732779 18.2765132,22.0580754 17.9491323,21.6982616 C17.9586369,21.8048259 17.9535678,21.794212 17.9535678,21.9177587 C17.9535678,22.9596268 17.8595778,23.4378926 17.2020702,23.4378926 C16.8799697,23.4378926 16.6571395,23.2604269 16.5806802,23.2084184 C17.0073314,22.8114556 17.0290864,22.5017397 17.0290864,21.9169095 L17.025707,21.4114719 C17.0248621,21.2792217 17.0273967,21.101756 17.0476732,20.9729023 C16.8123814,20.9404236 16.7175465,20.9412727 16.5359029,20.9412727 C16.5359029,20.9412727 15.6010721,20.866338 15.3763409,21.3558547 C15.1235184,21.1212857 14.7549509,20.7920401 14.7549509,20.4269193 C14.7549509,20.1870434 14.8681613,19.9144764 15.3493056,19.9144764 C15.5317941,19.9144764 16.1050274,20.0263478 16.5851157,20.0263478 C16.4560642,19.7378598 15.8811411,18.8946854 15.3852119,18.2822589 C15.3095975,18.5204365 15.1930076,18.7781439 14.932159,18.9863902 C14.8962527,18.593673 14.6662412,17.349927 14.053511,16.6220204 C13.9825432,17.1125985 13.8860187,17.617187 13.8860187,18.6811322 C13.8860187,21.2686077 14.505719,23.1793361 15.819678,23.5455183 C15.6485951,23.8463185 15.2867864,24.1135784 14.9120937,24.1135784 C14.4311607,24.1135784 14.1694672,23.5656849 13.9018597,23.0513315 C13.7630924,23.4325856 13.3786839,24.3640683 12.9941698,24.3640683 C12.6088636,24.3640683 12.2244023,23.4325856 12.0865855,23.0513315 C11.8188724,23.5656849 11.5573373,24.1135784 11.0762986,24.1135784 C10.7006026,24.1135784 10.3390052,23.8463185 10.1678167,23.5455183 C11.4826733,23.1793361 12.1023737,21.2686077 12.1023737,18.6811322 C12.1023737,17.617187 12.0058491,17.1125985 11.934723,16.6220204 C11.3220983,17.349927 11.0920868,18.593673 11.0569726,18.9863902 C10.7962824,18.7781439 10.6786893,18.5204365 10.6031804,18.2822589 C10.1064063,18.8946854 9.53322577,19.7378598 9.40327669,20.0263478 C9.88347052,20.0263478 10.4565983,19.9144764 10.6391923,19.9144764 C11.1201782,19.9144764 11.2334414,20.1870434 11.2334414,20.4269193 C11.2334414,20.7920401 10.8647683,21.1212857 10.6111009,21.3558547 C10.3872675,20.866338 9.45248942,20.9412727 9.45248942,20.9412727 C9.27079303,20.9412727 9.17595818,20.9404236 8.94071917,20.9729023 C8.96094286,21.101756 8.96442789,21.2792217 8.96268537,21.4114719 L8.95914755,21.9169095 C8.95914755,22.5017397 8.98021609,22.8114556 9.40855702,23.2084184 C9.33046084,23.2604269 9.10836987,23.4378926 8.78626933,23.4378926 C8.12881459,23.4378926 8.03403253,22.9596268 8.03403253,21.9177587 C8.03403253,21.794212 8.02964986,21.8048259 8.03931287,21.6982616 C7.71187918,22.0580754 7.32393283,22.5732779 7.32393283,23.0126966 C7.32393283,23.0920892 7.31955015,23.1997149 7.35022891,23.3160441 C6.83238627,23.3160441 6.43915958,22.7762172 6.43915958,22.4161911 C6.43915958,21.8719063 7.27039021,21.1962204 7.53546312,20.8998781 C6.5365818,20.8954203 6.35224523,21.1996169 6.26094822,21.433549 C6.01868636,21.2342185 5.80979623,20.8741923 5.80979623,20.425221 C5.80979623,20.1675137 5.86423651,19.8790257 6.35578306,19.8790257 C6.82626107,19.8790257 7.54422848,19.9488657 8.03751755,20.0378108 C8.41585369,19.50414 9.16455265,18.4745842 9.51479739,17.6781112 C9.37434043,17.7018865 9.17247316,17.7203549 8.86172533,17.7203549 C8.70637782,17.7203549 8.53872712,17.7044339 8.44214976,17.6613411 C9.06010759,17.1240616 9.63677317,16.5216122 10.1002283,15.8652438 C10.7673461,14.9195383 11.2044524,13.865358 11.2044524,12.7307238 C11.2044524,12.4229184 11.1315837,12.1141578 11.0280363,11.7841692 L8.36231106,15.866942 L7.11060721,17.8810505 C5.97132172,19.6911583 5.07862797,19.6603778 3.73219488,19.6603778 C4.84164645,18.805528 5.58596274,17.7018865 5.93441217,17.1442281 L6.72883885,15.866942 L9.50339186,11.4039765 C9.31028994,11.3404518 9.11982819,11.2734246 8.93369631,11.2010903 L6.03273204,15.866942 L5.77557964,16.2798258 C4.637139,18.0899336 3.74444525,18.0583039 2.39885701,18.0583039 C3.33453271,17.3365534 3.99721497,16.4598388 4.3957748,15.8599368 L4.60028225,15.5423666 L7.6671019,10.6099979 C7.49242836,10.5138352 7.3221903,10.4124187 7.15802463,10.3074464 L4.64500674,14.3495677 C4.11575857,15.1912562 3.63915537,15.6340713 3.14581349,15.866942 C2.57791326,16.1369616 1.98720197,16.128895 1.26743925,16.128895 L1.58779729,15.8660929 C2.52790846,15.0545481 3.15019616,14.122004 3.46970935,13.6112594 L6.04677776,9.4649619 C5.89491527,9.32644948 5.75097328,9.18528358 5.61495181,9.03886374 L3.78832488,11.9773967 C2.64988425,13.7885128 1.7572433,13.7558218 0.4107574,13.7558218 C1.52902714,12.8931176 2.26019539,11.804495 2.6130275,11.2372309 L4.7354589,7.82494308 C4.62135082,7.61324729 4.5238758,7.39619144 4.44403711,7.17388166 L3.37841232,8.88973736 C2.23912685,10.7008535 1.3464331,10.6682155 0,10.6682155 C1.11383426,9.8107653 1.85202536,8.71243086 2.20311495,8.15052685 L4.28430693,4.8052663 C4.4861742,3.77045651 5.01896019,2.80442529 5.81417893,2.0863366 C5.5473635,1.98401784 5.32442769,1.8772943 5.19009592,1.77497555 C6.54972986,1.77497555 7.8953181,1.08066217 8.63704702,1.08066217 C9.11365023,1.08066217 9.42086022,1.36739879 9.42086022,1.74674237 C9.38838615,2.16753353 8.95740506,2.59623211 8.15954616,2.59623211 C7.97874742,2.59623211 7.7478911,2.5724568 7.49422371,2.53100921 C7.06234496,3.13616517 6.71299787,3.68310347 6.71299787,4.46206331 C6.71299787,5.92742913 8.45709314,7.0698116 10.2161318,7.0698116 L10.5101409,7.0583485 C10.8585903,5.87090969 11.6003193,5.09285203 12.1928259,4.33241357 C11.4826734,4.07215882 10.6900948,3.39376641 10.6900948,3.0867571 C10.7796493,3.03474861 12.1418706,3.46350025 12.2823276,3.50139215 C12.5386351,3.45198409 12.6772968,3.20940162 12.6772968,3.18467105 C12.5316123,3.15999355 11.6775706,3.04971432 11.094727,2.83531195 C10.6505979,2.67212205 10.4258667,2.37657582 10.4258667,2.26454529 C10.5689639,2.24161909 11.1079279,2.5266044 11.9022489,2.5266044 C12.1954132,2.5266044 12.251596,2.5151413 12.5430178,2.47894764 C12.3385104,1.98847571 11.954049,1.57468978 11.5213254,1.57468978 C11.3475496,1.57468978 10.9665733,1.68321771 10.6488554,1.84465631 C10.4267644,1.49795071 10.2327648,1.04361938 10.2327648,0.794827731 C10.2327648,0.500183699 10.5215465,0.157033782 11.336144,0.157033782 C11.5643074,0.157033782 11.7767353,0.176457358 11.9742727,0.213500151 C12.1339501,0.244386829 12.267437,0.280580493 12.4104814,0.3360916 C12.3928978,0.119991022 12.4956004,0 12.8774215,0 C13.5480771,0 14.2353658,0.222309776 15.0778963,0.222309776 C15.2965023,0.222309776 15.4447741,0.213500173 15.5704461,0.159687303 C15.5159531,0.329033327 15.2789715,0.576922783 15.0631114,0.778959855 C15.1972319,0.96247554 15.5440444,1.40619289 15.5440444,2.12343246 C15.5440444,3.2764289 14.7891675,4.22738828 14.7891675,5.39190088 C14.7891675,6.08440988 15.3193133,6.69577501 15.4781458,7.05834851 L15.7713101,7.06981161 C17.531352,7.06981161 19.2744968,5.92742914 19.2744968,4.46206332 C19.2744968,3.68310347 18.9259946,3.13616517 18.494063,2.53100922 C18.2403957,2.57245681 18.0097505,2.59623212 17.8287406,2.59623212 C17.0309873,2.59623212 16.5990557,2.16753355 16.5684298,1.74674238 C16.5684298,1.3673988 16.8738445,1.08066218 17.3513981,1.08066218 C18.0929687,1.08066218 19.4386097,1.77497556 20.7981908,1.77497556 C20.6630142,1.87729431 20.4410288,1.98401785 20.1732102,2.08633661 C20.969485,2.8044253 21.5021653,3.77045652 21.7040854,4.80526631 L23.7851718,8.15052686 C24.1353637,8.71243087 24.8746109,9.81076532 25.9883395,10.6682155 C24.6418536,10.6682155 23.7492655,10.7008535 22.6108249,8.88973736 L21.5435632,7.17388166 C21.4645693,7.39619144 21.3661439,7.61324729 21.2529334,7.82494308 L23.3743616,11.2372309 C23.7281442,11.804495 24.4585203,12.8931176 25.5775293,13.7558218 C24.2310434,13.7558218 23.3384553,13.7885128 22.2000147,11.9773967 L20.3725957,9.03886376 C20.2374191,9.18528359 20.0925266,9.32644949 19.9406641,9.46496191 L22.5187358,13.6112594 C22.8380906,14.122004 23.4605367,15.0553973 24.4006479,15.8660929 L24.7208475,16.128895 C24.0012432,16.128895 23.4104791,16.1359002 22.8425261,15.866942 C22.3482865,15.6349205 21.8726338,15.1912562 21.3433328,14.3495677 L18.8303149,10.3074464 C18.6653572,10.4124187 18.495964,10.5138352 18.3212904,10.6099979 L21.3881101,15.5423666 L21.5917199,15.866942 L21.5917199,15.866942 Z"/>
        <path fill="#FFF" d="M10.5834383 17.7019259C10.5109847 17.4222269 10.4402439 17.2172749 10.163301 17.2172749 10.0218194 17.2172749 9.95450397 17.2435789 9.8691271 17.2773357 9.5705935 18.1536969 8.41969249 19.7996689 8.23850668 20.051968 7.74155619 19.96648 7.04707112 19.8744161 6.48456987 19.8744161 6.35341646 19.8744161 6.17223064 19.8608257 6.17223064 20.1951055 6.17223064 20.3890974 6.25335165 20.7271037 6.35253415 20.8391148 6.60015302 20.5302622 7.02636269 20.4381982 7.55434987 20.4381982 7.75966957 20.4381982 8.00817078 20.5138222 8.10221509 20.5374958 7.43009927 21.257129 6.79597488 21.8529143 6.79597488 22.2509813 6.79597488 22.4741268 7.0151521 22.7685123 7.19893296 22.866933 7.19893296 22.2792581 7.77523982 21.4675609 8.3394538 21.0140363 8.3394538 21.0942635 8.36618273 21.4020202 8.36618273 21.7363 8.36618273 22.8450131 8.46972489 23.0646513 8.87351338 23.0646513 8.94679736 23.0646513 9.073643 23.0363746 9.12113226 23.006125 8.90371966 22.7430851 8.8122704 22.3941189 8.8122704 21.7354232 8.8122704 21.5460345 8.81740857 21.3673866 8.81740857 21.2126314 8.81740857 20.9202188 8.78548956 20.7143901 8.76478113 20.553059 8.92006842 20.5302622 9.27034716 20.477435 9.52834621 20.477435 10.0778723 20.477435 10.418705 20.5339886 10.6671543 20.7952749 10.8457451 20.6523565 11.0450443 20.3827407 11.0450443 20.1968591 11.0450443 19.9289969 10.8741868 19.9108033 10.6947656 19.9108033 10.4160581 19.9108033 10.1874868 20.0274176 9.13146053 20.0274176 9.33937529 19.3989715 9.94848348 18.5162535 10.5834383 17.7019259L10.5834383 17.7019259 10.5834383 17.7019259zM16.8572886 20.0274176C15.8010417 20.0274176 15.5716033 19.9108033 15.2937857 19.9108033 15.1150106 19.9108033 14.9432952 19.9289969 14.9432952 20.1968591 14.9432952 20.3827407 15.1426263 20.6523565 15.3203631 20.7952749 15.568904 20.5339886 15.9106738 20.477435 16.4602876 20.477435 16.7173416 20.477435 17.0686626 20.5302622 17.2231442 20.553059 17.2023805 20.7143901 17.171235 20.9202188 17.171235 21.2126314 17.171235 21.3673866 17.1764259 21.5460345 17.1764259 21.7354232 17.1764259 22.3941189 17.0850659 22.7430851 16.8676704 23.006125 16.9150116 23.0363746 17.0418775 23.0646513 17.1151732 23.0646513 17.5190262 23.0646513 17.6226368 22.845013 17.6226368 21.7363 17.6226368 21.4020202 17.6494219 21.0942635 17.6494219 21.0140363 18.213778 21.4675609 18.7891387 22.2792581 18.7891387 22.866933 18.9739352 22.7685123 19.1929917 22.4741268 19.1929917 22.2509813 19.1929917 21.8529143 18.5580393 21.257129 17.8865428 20.5374958 17.9808098 20.5138222 18.229143 20.4381982 18.4344956 20.4381982 18.9627228 20.4381982 19.3890006 20.5302622 19.6365033 20.8391148 19.7357536 20.7271037 19.8161089 20.3890974 19.8161089 20.1951055 19.8161089 19.8608257 19.6348422 19.8744161 19.503616 19.8744161 18.9419592 19.8744161 18.2463769 19.96648 17.7503332 20.051968 17.5690666 19.7996689 16.4179297 18.1536969 16.1195561 17.2773357 16.0340098 17.2435789 15.9667356 17.2172749 15.8251275 17.2172749 15.5481404 17.2172749 15.477544 17.4222269 15.4050788 17.7019259 16.0400313 18.5162536 16.6492368 19.3989715 16.8572886 20.0274176L16.8572886 20.0274176zM20.4658174 4.81815119C20.4658174 3.55563752 19.5136684 2.55462012 19.1783341 2.27397971L18.9374079 2.3273098C19.2934554 2.74784967 19.9222618 3.44992403 19.9222618 4.3809917 19.9222618 6.21257006 17.9152704 7.80290077 15.6254906 7.83345775 15.6438054 8.02232202 15.6427152 8.18751908 15.6427152 8.33004822 15.6427152 8.5923334 15.6237463 8.8485177 15.5930037 9.09591884 18.1917359 9.05216081 20.4658174 7.01341554 20.4658174 4.81815119L20.4658174 4.81815119zM6.05992244 4.38017982C6.05992244 3.44947091 6.68068363 2.74766707 7.0335799 2.32728925L6.79535201 2.27397971C6.46390218 2.55451198 5.52252215 3.55514367 5.52252215 4.81717086 5.52252215 7.0273088 7.80392729 9.07930561 10.3953358 9.09591884 10.3675848 8.85560531 10.3514191 8.59951972 10.3514191 8.32771466 10.3514191 8.15727133 10.359502 7.99129675 10.3746977 7.83305047 8.08343148 7.83305047 6.05992244 6.22766566 6.05992244 4.38017982L6.05992244 4.38017982zM13.023508 2.59883395C13.1493388 2.34322386 13.319024 2.03755424 13.319024 1.70046971 13.319024.769822176 12.4527121.324854244 11.2920879.324854244 10.6964698.324854244 10.3953358.496435837 10.3953358.669600954 10.3953358.841131464 10.5916777 1.21984714 10.6688386 1.3370273 10.8832382 1.25294773 11.2692148 1.1519092 11.4931305 1.1519092 12.2888168 1.1519092 12.8844349 1.94586357 13.023508 2.59883395L13.023508 2.59883395z"/>
        <path fill="#FFF" d="M13.2597006,1.61195858 C13.8566398,1.73071369 14.2648378,0.954744184 13.6972,0.816299381 C13.7760105,1.0718542 13.3930722,1.25384254 13.3930722,1.25384254 C13.3930722,1.25384254 13.247778,0.908630187 13.4351045,0.712915607 C13.0891466,0.541157677 13.0008384,0.750495686 12.9941698,0.970115517 C13.1303705,1.15472573 13.2200933,1.3717751 13.2597006,1.61195858 L13.2597006,1.61195858 L13.2597006,1.61195858 Z"/>
      </g>
      <line x1="54.383" x2="54.383" y1="41.786" y2="44.929" fill="#F2F2F2" stroke="#242424" stroke-linecap="round" stroke-width="1.5"/>
      <rect width="29.004" height="2" x="12.689" y="20.012" fill="#242424" rx="1"/>
      <rect width="24" height="2" x="15.191" y="24.012" fill="#242424" rx="1"/>
      <rect width="29.004" height="2" x="12.689" y="77.012" fill="#242424" rx="1"/>
    </g>
    <g transform="rotate(-90 60.5 29)">
      <path fill="#00ADB2" fill-rule="nonzero" stroke="#242424" stroke-width="1.2" d="M15.6965231,31.0078543 C16.9543327,31.0210286 18.0149361,31.4956817 18.7849939,32.2646525 C19.5534363,33.0320102 20.0328646,34.0887905 20.0461605,35.2581253 L20.0461605,35.2581253 L20.3453511,61.5710094 C20.3582078,62.7017113 19.9115398,63.7305809 19.1789821,64.4799893 C18.4464245,65.2293976 17.4279772,65.6993446 16.3036734,65.7121626 C15.0405909,65.7006188 13.9831344,65.2226838 13.214692,64.4553261 C12.4462497,63.6879685 11.9668214,62.6311881 11.9535255,61.4618534 L11.9535255,61.4618534 L11.6543349,35.1489693 C11.6414782,34.0182674 12.0881462,32.9893977 12.8207039,32.2399894 C13.5519649,31.4919075 14.5681043,31.0222986 15.6965231,31.0078543 Z" transform="rotate(45 16 48.36)"/>
      <path fill="#00ADB2" fill-rule="nonzero" stroke="#242424" stroke-width="1.2" d="M39.2032076,0.06666741 C44.6772212,0.06666741 50.1499356,2.25208923 54.3259716,6.61794503 C58.5121927,10.9944489 60.6032076,16.7310843 60.6032076,22.4666674 C60.6032076,28.2022506 58.5121927,33.9388859 54.3259716,38.3153898 C50.1499356,42.6812456 44.6772212,44.8666674 39.2032076,44.8666674 C33.7291939,44.8666674 28.2564795,42.6812456 24.0804435,38.3153898 C19.8942224,33.9388859 17.8032076,28.2022506 17.8032076,22.4666674 C17.8032076,16.7310843 19.8942224,10.9944489 24.0804435,6.61794503 C28.2564795,2.25208923 33.7291939,0.06666741 39.2032076,0.06666741 Z M39.2032076,7.55916005 C35.5445202,7.55916005 31.8845337,9.0161102 29.0925537,11.9349983 C26.3107589,14.8432385 24.9177657,18.6544268 24.9177657,22.4666674 C24.9177657,26.278908 26.3107589,30.0900964 29.0925537,32.9983365 C31.8845337,35.9172246 35.5445202,37.3741748 39.2032076,37.3741748 C42.8618949,37.3741748 46.5218814,35.9172246 49.3138614,32.9983365 C52.0956563,30.0900964 53.4886494,26.278908 53.4886494,22.4666674 C53.4886494,18.6544268 52.0956563,14.8432385 49.3138614,11.9349983 C46.5218814,9.0161102 42.8618949,7.55916005 39.2032076,7.55916005 Z"/>
      <circle cx="39.203" cy="22.467" r="14" fill="#FFF" fill-opacity=".7" fill-rule="nonzero" transform="rotate(45 39.203 22.467)"/>
      <path stroke="#242424" stroke-linecap="round" stroke-width=".5" d="M11.1003365,50.2955162 C11.8116978,50.7108302 12.5376975,50.9319296 13.2746626,50.9446146 C14.2428524,50.9612796 15.1873791,50.6174995 16.1003365,49.9451929" transform="rotate(45 13.6 50.445)"/>
      <g fill-rule="nonzero" transform="rotate(90 18 33)">
        <use fill="#000" xlink:href="#icon_reisepass_verloren-a"/>
        <use fill="#007996" xlink:href="#icon_reisepass_verloren-a"/>
      </g>
    </g>
  </g>
</svg>
