<?xml version="1.0" encoding="UTF-8"?>
<svg width="208px" height="166px" viewBox="0 0 208 166" version="1.1" xmlns="http://www.w3.org/2000/svg" xmlns:xlink="http://www.w3.org/1999/xlink">
    <title>icon_onlineverfahren</title>
    <g id="icon_onlineverfahren" stroke="none" stroke-width="1" fill="none" fill-rule="evenodd">
        <g id="Group-8" transform="translate(51.000000, 42.000000)">
            <rect id="Rectangle" stroke="#DEDEDE" stroke-width="1.5" fill="#DEDEDE" x="17.7717734" y="11.8479802" width="79.7204555" height="58.6633004" rx="4.01088669"></rect>
            <path d="M63.1504133,68.75 L60.9145536,86.6368778 C60.7498397,87.9545895 60.1074071,89.10787 59.1741615,89.9317227 C58.2409159,90.7555753 57.0168572,91.25 55.6888908,91.25 L55.6888908,91.25 L50.3111092,91.25 C48.9831428,91.25 47.7590841,90.7555753 46.8258385,89.9317227 C45.8925929,89.10787 45.2501603,87.9545895 45.0854464,86.6368778 L45.0854464,86.6368778 L42.8495867,68.75 L63.1504133,68.75 Z" id="Combined-Shape-Copy-4" stroke="#242424" stroke-width="1.5" fill="#F8F8F8" transform="translate(53.000000, 80.000000) rotate(-180.000000) translate(-53.000000, -80.000000) "></path>
            <path d="M105.765363,63.7381848 L105.765363,70.2531156 C105.765363,73.5758429 103.07176,76.2694456 99.7490331,76.2694456 L14.01633,76.2694456 C10.6936027,76.2694456 8,73.5758429 8,70.2531156 L8,63.7381848 L48.61,63.737704 L48.6102278,64.2405893 C48.6102278,65.4976997 48.7329383,66.0036365 48.9643004,66.4658965 L49.0120174,66.5579757 C49.2741896,67.0481952 49.6589168,67.4329223 50.1491362,67.6950946 C50.6393557,67.9572668 51.1256049,68.0968842 52.4665226,68.0968842 L52.4665226,68.0968842 L61.8002013,68.0968842 C63.1411191,68.0968842 63.6273682,67.9572668 64.1175877,67.6950946 C64.6078072,67.4329223 64.9925343,67.0481952 65.2547066,66.5579757 C65.5168788,66.0677562 65.6564962,65.5815071 65.6564962,64.2405893 L65.6564962,64.2405893 L65.656,63.737704 L105.765363,63.7381848 Z" id="Combined-Shape" fill-opacity="0.1" fill="#000000"></path>
            <rect id="Rectangle" stroke="#242424" stroke-width="1.5" fill="#F8F8F8" x="0.75" y="0.929630425" width="104.5" height="72.5" rx="9"></rect>
            <path d="M101,23 L101,26 M101,30.2805315 L101,52.0961538 C101,54.8044733 98.807109,57 96.1020408,57 L9.89795918,57 C7.19289102,57 5,54.8044733 5,52.0961538 L5,10.9038462 C5,8.19552671 7.19289102,6 9.89795918,6 L96.1020408,6 C98.807109,6 101,8.19552671 101,10.9038462 L101,17.0483266 L101,19.0483266" id="Shape" stroke="#242424" stroke-width="1.5" fill="#CCEFF0" stroke-linecap="round" stroke-linejoin="round"></path>
            <g id="Group-20" transform="translate(27.000000, 19.000000)" stroke="#242424">
                <g id="Group-5" transform="translate(26.000000, 19.000000) scale(-1, 1) rotate(-180.000000) translate(-26.000000, -19.000000) translate(0.000000, -0.000000)" stroke-width="1.5">
                    <polygon id="Rectangle" fill="#FFFFFF" stroke-linejoin="round" points="-6.35935749e-13 0 52 1.51203494e-11 52 28.0606663 41 38 -4.79296602e-11 38"></polygon>
                    <path d="M52,28.0606663 L41.6226483,38 L39,38 C40.7481233,38 41.6213072,36.723861 41.6195518,34.1715829 C41.6192978,33.8022286 41.6259989,33.7210547 41.6226483,31.4356258 C41.6192978,29.1501969 42.3195371,27.508435 44.5542972,27.508435 C46.191848,27.508435 47.7568617,27.508435 49.2493383,27.508435 C51.0831128,27.2609438 52,26.3560995 52,24.7939021 C52,23.2317047 52,24.3206261 52,28.0606663 Z" id="Path-4" fill="#C8C8C8"></path>
                </g>
                <g id="Group-19" transform="translate(7.000000, 5.000000)">
                    <rect id="Rectangle" stroke-width="1.5" fill="#00ADB2" x="0.75" y="0.75" width="25.5" height="5.5"></rect>
                    <rect id="Rectangle-Copy-23" fill="#F2F2F2" stroke-linejoin="round" x="0" y="26" width="35" height="1"></rect>
                    <rect id="Rectangle-Copy-21" fill="#F2F2F2" stroke-linejoin="round" x="0" y="12" width="35" height="1"></rect>
                    <rect id="Rectangle-Copy-22" fill="#F2F2F2" stroke-linejoin="round" x="0" y="19" width="35" height="1"></rect>
                </g>
            </g>
            <path d="M67.5,90.75 C67.9832492,90.75 68.4207492,90.9458754 68.7374369,91.2625631 C69.0541246,91.5792508 69.25,92.0167508 69.25,92.5 C69.25,92.9832492 69.0541246,93.4207492 68.7374369,93.7374369 C68.4207492,94.0541246 67.9832492,94.25 67.5,94.25 L67.5,94.25 L38.5,94.25 C38.0167508,94.25 37.5792508,94.0541246 37.2625631,93.7374369 C36.9458754,93.4207492 36.75,92.9832492 36.75,92.5 C36.75,92.0167508 36.9458754,91.5792508 37.2625631,91.2625631 C37.5792508,90.9458754 38.0167508,90.75 38.5,90.75 L38.5,90.75 Z" id="Combined-Shape" stroke="#242424" stroke-width="1.5" fill="#F8F8F8" transform="translate(53.000000, 92.500000) rotate(-360.000000) translate(-53.000000, -92.500000) "></path>
        </g>
    </g>
</svg>