<svg xmlns="http://www.w3.org/2000/svg" width="208" height="166" viewBox="0 0 208 166">
  <g fill="none" fill-rule="evenodd" transform="translate(54 45)">
    <path fill="#D8D8D8" stroke="#242424" stroke-width="1.5" d="M45.9745763,6.4420904 L4.02542373,6.4420904 C3.12094044,6.4420904 2.30208451,6.80870468 1.7093494,7.40143979 C1.11661429,7.9941749 0.75,8.81303084 0.75,9.71751412 L0.75,68.1920904 C0.75,69.0965737 1.11661429,69.9154296 1.7093494,70.5081647 C2.30208451,71.1008998 3.12094044,71.4675141 4.02542373,71.4675141 L42.7793085,71.5757622 C42.5172561,72.7993388 42.9176888,73.9425861 43.6895288,74.714426 C44.3014338,75.3263311 45.1467728,75.7048023 46.0805085,75.7048023 L53.9194915,75.7048023 C54.856039,75.7048023 55.7036541,75.3235588 56.314933,74.6963309 C57.0788577,73.9124745 57.471512,72.7472984 57.2272539,71.4670227 L95.9745858,71.4675141 C96.8790596,71.4675141 97.6979155,71.1008998 98.2906506,70.5081647 C98.8833857,69.9154296 99.25,69.0965737 99.25,68.1920904 L99.25,9.71751412 C99.25,8.81303084 98.8833857,7.9941749 98.2906506,7.40143979 C97.6979155,6.80870468 96.8790596,6.4420904 95.9745763,6.4420904 L54.0254237,6.4420904 C53.1209404,6.4420904 52.3020845,6.80870468 51.7093494,7.40143979 C51.1166143,7.9941749 50.75,8.81303084 50.75,9.71751412 L49.25,9.71751412 C49.25,8.81303084 48.8833857,7.9941749 48.2906506,7.40143979 C47.6979155,6.80870468 46.8790596,6.4420904 45.9745763,6.4420904 Z"/>
    <g fill="#F8F8F8" stroke="#242424" stroke-width="1.5" transform="translate(8.16)">
      <path d="M41.8393915,4.43184836 C36.4362726,1.47728279 31.8587662,9.63447777e-14 28.1068723,9.63447777e-14 C19.7266154,9.63447777e-14 11.3463586,9.63447777e-14 2.96610169,9.63447777e-14 C1.32796896,9.66456978e-14 2.46392186e-15,1.32796896 0,2.96610169 L0,64.4691898 C6.86195155e-15,66.1073226 1.32796896,67.4352915 2.96610169,67.4352915 L24.6783745,67.4352915 L24.6783745,67.4352915 C28.5163806,67.609998 31.4891953,68.0112017 33.5968188,68.6389027 C35.7044423,69.2666037 38.4519665,70.5690545 41.8393915,72.5462551 L41.8393915,4.43184836 Z"/>
      <path stroke-linecap="round" stroke-linejoin="round" d="M42.3393915,41.8069948 L42.3393915,64.4691898 C42.3393915,66.1073226 43.6673604,67.4352915 45.3054932,67.4352915 L67.017766,67.4352915 C70.855772,67.609998 73.8285868,68.0112017 75.9362103,68.6389027 C78.0438337,69.2666037 80.7913579,70.5690545 84.1787829,72.5462551 L84.1787829,4.43184836 C78.7756641,1.47728279 74.1981577,9.9475983e-14 70.4462638,9.9475983e-14 C62.0660069,9.9475983e-14 53.68575,9.9475983e-14 45.3054932,9.9475983e-14 C43.6673604,9.9475983e-14 42.3393915,1.32796896 42.3393915,2.96610169 L42.3393915,20.4747205 L42.3393915,25.9690076 M42.3393915,33.2075764 L42.3393915,36.1743063" transform="matrix(-1 0 0 1 126.018 0)"/>
    </g>
    <g transform="translate(27 14)">
      <g transform="translate(18.029 14.165)">
        <path fill="#FF9D6D" stroke="#242424" stroke-linecap="round" stroke-linejoin="round" stroke-width="1.5" d="M7.37307452,1.23239284 C9.04211276,0.442071037 10.9082225,0 12.8775835,0 C19.9896764,0 25.7551669,5.7654905 25.7551669,12.8775835 C25.7551669,19.9896764 19.9896764,25.7551669 12.8775835,25.7551669 C10.3726478,25.7551669 8.03475873,25.0399553 6.05698437,23.8026001 L0.487647888,25.267519 L1.95256683,19.6981826 C0.715211635,17.7204082 0,15.3825191 0,12.8775835 C0,10.6010467 0.590732339,8.46248288 1.62727154,6.60681745 M3.83509214,3.70885638 C4.00050479,3.54570703 4.17031084,3.38700065 4.34431677,3.23293076" transform="matrix(-1 0 0 1 25.755 0)"/>
        <text fill="#242424" font-family="PTSans-Bold, PT Sans" font-size="18.462" font-weight="bold" letter-spacing=".659">
          <tspan x="7.356" y="20.142">A</tspan>
        </text>
      </g>
      <g transform="translate(0 3.863)">
        <path fill="#FFF" stroke="#242424" stroke-linecap="round" stroke-linejoin="round" stroke-width="1.5" d="M7.37307452,1.23239284 C9.04211276,0.442071037 10.9082225,0 12.8775835,0 C19.9896764,0 25.7551669,5.7654905 25.7551669,12.8775835 C25.7551669,19.9896764 19.9896764,25.7551669 12.8775835,25.7551669 C10.3726478,25.7551669 8.03475873,25.0399553 6.05698437,23.8026001 L0.487647888,25.267519 L1.95256683,19.6981826 C0.715211635,17.7204082 0,15.3825191 0,12.8775835 C0,10.6121639 0.584976899,8.48337296 1.61211805,6.63402337 M3.83509214,3.70885638 C4.00466944,3.54159937 4.17886416,3.37901186 4.35746777,3.22130237"/>
        <text fill="#242424" font-family="PTSans-Bold, PT Sans" font-size="18.462" font-weight="bold" letter-spacing=".659">
          <tspan x="7.727" y="20.06">ยง</tspan>
        </text>
      </g>
    </g>
  </g>
</svg>
