<?xml version="1.0" encoding="UTF-8"?>
<svg width="108px" height="74px" viewBox="0 0 108 74" version="1.1" xmlns="http://www.w3.org/2000/svg" xmlns:xlink="http://www.w3.org/1999/xlink">
    <title>kfz-einrichten</title>
    <defs>
        <rect id="path-1" x="6.57252031e-13" y="0.56" width="56.56" height="20" rx="2.8"></rect>
    </defs>
    <g id="01_Design" stroke="none" stroke-width="1" fill="none" fill-rule="evenodd">
        <g id="01_all-services-copy" transform="translate(-1142.000000, -693.000000)">
            <g id="Group-5" transform="translate(1143.000000, 694.000000)">
                <g id="Group-4">
                    <path d="M101.056874,38.9136973 C101.056874,40.2594917 101.056874,40.9323889 101.056874,40.9323889 M101.055405,43.8127465 L101.055405,58.4924176 C101.055405,60.3148382 99.579815,61.792202 97.7595823,61.792202 L8.295823,61.792202 C6.47559022,61.792202 5,60.3148382 5,58.4924176 L5,8.29978433 C5,6.47736377 6.47559022,5 8.295823,5 L97.7595823,5 C99.579815,5 101.055405,6.47736377 101.055405,8.29978433 L101.055405,34.9088329 L101.055405,36.2546273" id="Shape" fill="#DEDEDE"></path>
                    <path d="M96.0568739,33.9136973 L96.0568739,35.9323889 M96.0554053,38.8127465 L96.0554053,53.4924176 C96.0554053,55.3148382 94.579815,56.792202 92.7595823,56.792202 L3.295823,56.792202 C1.47559022,56.792202 1.44950718e-12,55.3148382 1.44950718e-12,53.4924176 L1.44950718e-12,3.29978433 C1.44950718e-12,1.47736377 1.47559022,0 3.295823,0 L92.7595823,0 C94.579815,0 96.0554053,1.47736377 96.0554053,3.29978433 L96.0554053,29.9088329 L96.0554053,31.2546273" id="Shape" stroke="#242424" stroke-width="1.5" fill="#F2F2F2" stroke-linecap="round" stroke-linejoin="round"></path>
                    <g id="Group-21" transform="translate(5.600000, 16.800000)">
                        <g id="Group-3" transform="translate(0.400000, -0.000000)" stroke="#242424" stroke-width="1.5">
                            <g id="Group-6" transform="translate(0.000000, 0.700000)">
                                <path d="M21.1133094,11.9903846 L21.1133094,13.0188362 M21.1133094,15.4462915 L21.1133094,17.0160428 C21.1133094,19.492464 19.1418801,21.5 16.7099988,21.5 L4.40331051,21.5 C1.97142927,21.5 0,19.492464 0,17.0160428 L0,4.48395722 C0,2.00753603 1.97142927,0 4.40331051,0 L16.7099988,0 C19.1418801,0 21.1133094,2.00753603 21.1133094,4.48395722 L21.1133094,9.74554639" id="Shape" fill="#F8F8F8" stroke-linecap="round" stroke-linejoin="round" transform="translate(10.750000, 10.750000) rotate(-180.000000) translate(-10.750000, -10.750000) "></path>
                                <g id="Group" transform="translate(2.000000, 3.000000)" fill="#00ADB2">
                                    <circle id="Oval" cx="8.86360434" cy="4.09089431" r="3.34089431"></circle>
                                    <path d="M8.86360434,8.32667717 C10.6320141,8.32667717 12.1228538,8.89781291 13.3304018,10.0538743 C14.5979332,11.2673616 15.5520928,13.0971299 16.227732,15.5199153 C16.283438,15.7196724 16.3116803,15.9260854 16.3116803,16.1334644 C16.3116803,16.7641968 16.0560255,17.3352178 15.6426875,17.7485552 C15.22935,18.1618922 14.6583297,18.4175459 14.0275964,18.4175444 L14.0275964,18.4175444 L3.6996055,18.4175444 C3.49222815,18.4175444 3.28581679,18.3893024 3.08606127,18.333597 C2.47851414,18.1641714 1.9971568,17.7645282 1.71004145,17.2553546 C1.42292521,16.7461794 1.33005197,16.127473 1.49947335,15.5199273 C2.17511223,13.0971378 3.12927196,11.2673665 4.39680396,10.0538771 C5.60435244,8.89781385 7.09519319,8.32667717 8.86360434,8.32667717 Z" id="Oval"></path>
                                </g>
                            </g>
                        </g>
                        <g id="Group-18" transform="translate(27.360000, 0.920000)">
                            <g id="Rectangle">
                                <mask id="mask-2" fill="white">
                                    <use xlink:href="#path-1"></use>
                                </mask>
                                <rect stroke="#1B1B1B" stroke-width="1.5" x="-0.75" y="-0.19" width="58.06" height="21.5" rx="2.8"></rect>
                                <path d="M41.44,-2.6 L50.96,-2.6 C54.0527946,-2.6 56.56,-0.0927945991 56.56,3 L56.56,18.12 C56.56,21.2127946 54.0527946,23.72 50.96,23.72 L41.44,23.72 L41.44,23.72 L41.44,-2.6 Z" fill="#66CED1" mask="url(#mask-2)"></path>
                            </g>
                            <g id="Group-15" transform="translate(45.360000, 4.680000)" stroke="#1B1B1B">
                                <path d="M4.08673303,4.28133937 C6.22740271,4.28133937 6.22740271,3.3229289 6.22740271,2.14066968 C6.22740271,0.958410463 5.26899225,0 4.08673303,0 C2.90447381,0 1.94606335,0.958410463 1.94606335,2.14066968 C1.94606335,3.3229289 1.94606335,4.28133937 4.08673303,4.28133937 Z" id="Oval" stroke-width="1.5"></path>
                                <path d="M8.17468235,6.53952802 L8.17468235,7.16825618 M8.17346606,9.18038861 L8.17346606,9.77714714 C8.17346606,10.7185864 7.41027873,11.4817738 6.46883945,11.4817738 L1.70462661,11.4817738 C0.76318733,11.4817738 0,10.7185864 0,9.77714714 L0,5.0129343 C0,4.07149502 0.76318733,3.30830769 1.70462661,3.30830769 L6.46883945,3.30830769 C7.41027873,3.30830769 8.17346606,4.07149502 8.17346606,5.0129343 L8.17346606,4.93140431" id="Shape-Copy" stroke-width="1.5" fill="#CCEFF0" stroke-linecap="round" stroke-linejoin="round"></path>
                                <path d="M3.49713396,5.63780364 C4.39278244,5.33958457 4.54132282,5.50279435 4.6763321,5.63780364 C4.82722367,5.7886952 4.92055204,5.99714995 4.92055204,6.22740271 C4.92055204,6.40589629 4.86440851,6.57125937 4.76894525,6.70690489 L4.76894525,6.70690489 L5.41443192,9.2018914 L2.75885646,9.2018914 L3.5841854,6.89278293 C3.3092331,6.57177744 3.25291403,6.40617583 3.25291403,6.22740271 C3.25291403,5.99714995 3.3462424,5.7886952 3.49713396,5.63780364 Z" id="Combined-Shape" stroke-width="0.5" fill="#1B1B1B" stroke-linejoin="round"></path>
                            </g>
                            <g id="Group-17" transform="translate(5.600000, 8.040000)" fill="#008A8E" stroke="#1B1B1B" stroke-width="1.5">
                                <circle id="Oval" cx="2.24" cy="2.24" r="2.24"></circle>
                                <circle id="Oval-Copy-4" cx="10.8266667" cy="2.24" r="2.24"></circle>
                                <circle id="Oval-Copy-5" cx="19.6" cy="2.24" r="2.24"></circle>
                                <circle id="Oval-Copy-12" cx="28.1866667" cy="2.24" r="2.24"></circle>
                            </g>
                        </g>
                    </g>
                </g>
                <g id="Group-10" transform="translate(26.000000, 44.000000)" stroke="#1B1B1B" stroke-width="1.5">
                    <path d="M46.4627582,26.0433068 L25.3904231,26.0433068 C11.8264653,18.1949624 4.10261931,13.7260814 2.21888511,12.6366635 C-0.606716192,11.0025368 -0.200887887,7.87596789 0.553759508,6.57079507 C1.24576349,5.37396489 3.24961896,3.19638103 6.17279058,4.61889703 C9.02455374,6.00666322 14.3942376,8.67925205 22.2818422,12.6366635 C24.298396,12.6366635 26.0879583,12.6366635 27.6505289,12.6366635 C30.0647986,12.6366635 34.2454401,12.6366635 40.1924536,12.6366635 C35.0930383,12.6366635 31.3098282,12.6366635 28.8428231,12.6366635 C23.1158807,12.6366635 23.0614549,9.29898698 23.0614549,7.79186627 C23.0614549,6.28474556 23.3579011,3.2564934 30.006024,3.2564934 C35.317059,3.2564934 38.4384239,3.2564934 39.3701186,3.2564934 C42.8830504,1.0854978 46.7524002,0 50.9781679,0 C55.2039357,0 58.7678168,1.53963234 61.6698113,4.61889703 L61.6698113,26.0433068 L50.4716414,26.0433068" id="Path-2" fill="#FFFFFF" stroke-linecap="round" stroke-linejoin="round"></path>
                    <rect id="Rectangle" fill="#CCEFF0" x="61.5131642" y="3.10747571" width="17.8248731" height="24.6091371" rx="2.46700508"></rect>
                    <circle id="Oval" fill="#00ADB2" cx="68.1641795" cy="21.0655975" r="1.71700508"></circle>
                </g>
            </g>
        </g>
    </g>
</svg>