<?xml version="1.0" encoding="UTF-8"?>
<svg width="208px" height="166px" viewBox="0 0 208 166" version="1.1" xmlns="http://www.w3.org/2000/svg" xmlns:xlink="http://www.w3.org/1999/xlink">
    <title>icon_whg_ummelden</title>
    <g id="icon_whg_ummelden" stroke="none" stroke-width="1" fill="none" fill-rule="evenodd">
        <g id="Group-24" transform="translate(42.000000, 34.000000)">
            <path d="M47.5978093,86.1842403 L47.5978093,84.9628925 L44.4399117,87.1174056 L42.9361515,88.1329068 L41.9928824,89.0249029 L41.5007419,88.3113071 L38.7119491,84.6060947 L38.9033381,84.4551406 L38.9716914,84.2492968 L38.8486555,84.0708965 L37.6046349,85.3334135 L36.292261,86.7057153 L35.5130396,87.4330342 L34.706477,87.8996169 L33.9272556,88.0505682 L33.4624563,88.0505682 L32.9703158,87.9682324 L32.3824834,87.6526011 L31.9586961,87.5290959 L31.3435198,87.5290959 L30.2772175,88.0642913 L30.2635469,87.8721707 C30.2635469,87.8721707 30.2498762,87.4742035 30.2498762,87.4193111 C30.2498762,87.3644187 30.0994991,86.9938977 30.0994991,86.9938977 L30.0721578,86.4998688 C30.0721578,86.4998688 30.017478,85.7862731 30.017478,85.7451038 C30.017478,85.7039345 29.8260889,84.9491694 29.8260889,84.9491694 L29.6073613,84.2492968 L29.58002,83.7415448 L29.2929364,83.1514542 L28.3359994,83.3161314 C28.3359994,83.3161314 27.4200715,83.3435776 27.3790596,83.3435776 C27.3380476,83.3435776 26.9689429,83.4945317 26.9689429,83.4945317 L25.3831586,83.3710238 L24.6449486,83.768991 L23.8383859,84.1806813 L22.6627182,84.8668308 L21.3640152,85.2510749 L20.6531465,85.4294752 L20.2020182,85.4569214 L19.5048199,85.9646734 L13.5171168,89.5738242 L13.5171168,90.1501889 L13.4624345,90.7814488 L13.2847172,91.6871679 L13.4897755,91.6597217 L14.3920322,91.4675983 L14.9798662,91.3303673 L15.8274405,91.0696312 L15.9094639,91.700891 L15.3216299,92.1537479 L14.5013968,92.2498096 L13.4214229,92.4007637 L12.6422012,92.1537479 L12.0543672,92.0851351 L11.2478045,92.0439658 L10.6189592,91.79695 L10.5369358,91.5911062 L9.93543121,92.0165196 L9.29291519,92.6614998 L8.67774019,93.3750956 L8.41799982,93.7730628 C8.41799982,93.7730628 8.69141084,94.074971 8.75976353,94.1024172 C8.82811648,94.1298634 8.9784925,94.4043226 8.9784925,94.4043226 L8.91013982,94.7199512 L8.52736417,94.7473974 L7.96687149,94.4043226 C7.96687149,94.4043226 7.66611918,94.1573096 7.66611918,94.1161403 C7.66611918,94.074971 7.76181316,93.4574342 7.76181316,93.4574342 L7.91218918,93.3064828 L8.47268186,93.2515904 L8.78710482,92.9085156 C8.78710482,92.9085156 9.27924454,92.4144868 9.29291519,92.3733175 C9.30658584,92.3321482 9.74404352,91.8930117 9.74404352,91.8930117 L9.26557417,91.9204579 L9.21089186,91.8106731 L9.08785686,91.5911062 L9.67569083,91.3715366 L8.78710482,91.0284619 L8.66406982,91.1108005 L8.50002315,91.3715366 L8.22661186,91.6459986 L7.84383649,91.8106731 L7.47473149,91.9753503 C7.47473149,91.9753503 7.14663816,91.7832269 7.10562649,91.7695038 C7.06461482,91.7557807 6.72285085,91.5087676 6.72285085,91.5087676 L6.36741649,90.9872926 L5.92995881,90.4658202 L5.7522415,90.301143 L5.43781881,90.163912 L4.8909965,89.9992375 L4.5218915,89.6424397 L4.46720919,89.3542546 L4.18012752,89.0111798 L3.98873984,88.8602257 L4.0297515,88.7778898 L4.22113919,88.5720433 L4.0297515,88.4348123 L3.66064651,88.4348123 L3.71532882,88.2152454 L3.85203419,87.9819555 L4.04342215,87.7349397 L4.20746882,87.3781418 L4.19379817,87.1585749 L3.64697613,86.9527284 L3.56790545,87.2017743 L3.64992878,87.7369725 L3.52689379,88.0251549 L3.15778879,87.9839856 L2.58365287,87.9839856 L2.58365287,87.5722953 L2.50162954,87.0782664 L2.33758287,86.9959823 L1.72243527,87.2841129 L1.8044586,87.5722953 L2.17356363,87.901647 L2.17356363,88.1486056 L1.76347427,88.3132828 L1.51740427,88.0663242 L0.984279969,87.9428163 C0.984279969,87.9428163 0.656186637,87.8604777 0.533151664,87.7369725 C0.410116665,87.6134646 0.574163331,87.2017743 0.574163331,87.2017743 L0.410116665,86.7078 L0.328093332,86.0902659 L0,85.3904478 L0.246069999,85.3081092 L0.984252633,84.7317962 L1.59940027,84.23777 L2.05052863,83.4967799 C2.05052863,83.4967799 2.25558696,83.6202878 2.37859454,83.6202878 C2.50160212,83.6202878 2.99374212,83.7437412 2.99374212,83.7437412 L3.23981212,83.2909361 L3.93698303,82.5911179 L4.47010755,82.0970891 L4.30606089,81.273763 L4.38808422,81.02675 L4.92120847,80.3681011 L5.65939105,79.7505643 L6.31555029,79.462382 L6.31555029,79.0919155 L6.47959696,78.7625638 L5.94644529,78.3097587 L5.37230938,77.4040396 L5.1262668,77.2805317 L4.7571618,77.1981958 L4.42909588,76.78656 L4.59314255,76.5395442 L4.14204137,76.0866847 L3.56790545,75.6750516 L3.64992878,75.3456972 L3.85203419,74.7392512 L3.92038715,73.833532 L3.85203419,73.215998 L3.45558817,72.8866436 L3.59229382,72.1867709 L3.49659984,71.5966831 L3.38723549,71.1987159 L3.98873984,70.0185348 C3.98873984,70.0185348 4.28949215,69.2363235 4.31683317,69.1951542 C4.34417419,69.1539877 4.56290317,68.4952816 4.56290317,68.4541123 C4.56290317,68.412943 4.56290317,68.0561451 4.56290317,68.0561451 L4.54923252,67.4935035 L6.13501714,66.9857515 L7.33802584,65.284098 L8.65039917,63.3903238 L10.1951719,61.139749 L11.3571692,59.6164958 L12.5054956,58.1893016 C12.5054956,58.1893016 12.8609302,57.8462269 12.8609302,57.8050576 C12.8609302,57.7638883 13.2026939,57.3247518 13.2026939,57.3247518 L13.4077522,57.256139 L11.6852625,56.364143 L11.1657812,56.1445734 L10.2088425,55.5544855 L9.23823315,55.0604566 L8.89646917,55.0330104 L8.74609315,54.6213202 L8.43167019,54.3743071 L7.92585982,54.4703661 L6.69550983,54.8683332 C6.69550983,54.8683332 5.60186548,55.1976876 5.54718316,55.1976876 C5.49250085,55.1976876 4.71327919,55.3074697 4.71327919,55.3074697 L3.74266984,55.3898083 L3.85203419,54.456643 L3.86570484,53.7430472 L3.86570484,52.4668071 L3.92038715,51.3140749 L4.00241048,50.6279253 L4.38518586,49.5712521 L4.5218915,48.9399949 L4.60391484,47.8558782 L4.71327919,47.2520645 L4.86365548,46.0307168 L5.23276048,44.425125 L5.45148919,43.3410083 L5.82059418,43.6154676 C5.82059418,43.6154676 6.1213465,43.9997116 6.16235816,44.0134347 C6.20336983,44.0271578 6.72285085,44.2192785 6.72285085,44.2192785 L7.36536686,44.3427864 C7.36536686,44.3427864 7.85750686,44.3839557 7.89851853,44.3839557 C7.9395302,44.3839557 8.10357686,44.3016171 8.10357686,44.3016171 L8.28129417,44.2467247 L8.36331751,44.0134347 L8.36331751,43.8213113 L8.54103482,43.5742983 L8.54103482,43.2723928 L8.41799982,42.3666736 L8.17192982,41.76286 L8.44534084,41.3786159 L8.50002315,40.3631147 L8.82811648,39.759301 L9.01950417,38.9359204 L9.29291519,38.5791226 L9.29291519,37.9753116 L9.40227954,37.755742 L9.37493852,36.5481174 C9.37493852,36.5481174 9.04684519,35.6149521 8.93748084,35.4502776 C8.82811648,35.2856004 8.66406982,34.9013563 8.66406982,34.9013563 L8.52736417,34.7366818 L7.43371982,35.3130466 L6.64082751,35.6698445 L6.25805214,35.6698445 C6.25805214,35.6698445 5.60186548,35.9991989 5.49250085,35.9991989 C5.3831365,35.9991989 5.19174881,35.6149521 5.19174881,35.6149521 L5.00036085,35.0385873 L4.67226752,35.0111411 L4.78163215,34.1877606 L4.56290317,34.0779758 L4.59024419,33.8035165 L4.75429086,33.6662855 L5.19174881,33.8858551 L6.01198214,33.5839469 L6.28539316,33.1173669 L7.35169649,32.8977973 L8.22661186,32.3214299 L9.01950417,31.086359 C9.01950417,31.086359 9.40227954,30.3727633 9.51164417,30.3178709 C9.62100852,30.2629812 10.3865595,29.9885192 10.3865595,29.9885192 L11.0974285,29.8787344 L11.6169095,30.3453171 L11.8629795,30.4276557 L12.2184139,30.4276557 L12.6832129,30.7844536 L13.0113062,30.9216846 L13.5034462,30.976577 L13.9409039,31.0589156 L14.2689972,31.1686976 L14.7884782,31.1686976 L15.1165716,31.5529417 L15.5813705,31.6901727 L16.0188282,32.0469706 L16.5656505,32.3214299 L17.3585428,32.3763223 L18.2607992,32.7605663 L19.0536915,33.1448104 L19.2177382,32.6233381 L20.2840415,32.5958919 L20.9675692,32.8154587 L21.2136392,31.8822961 L21.2136392,31.3882672 L20.8308636,30.839346 L20.2293592,30.3727633 L19.4911492,29.8238447 L18.4430825,28.5613269 L17.8233415,27.7196398 L17.7504229,27.0975209 L18.1514349,26.7681687 L18.6435749,26.4022309 L19.0810326,25.3592824 L19.5002539,24.4261176 L19.7919015,23.7308279 L20.047076,23.1270153 L20.4298516,22.6878791 L20.7214992,21.7730211 L20.9219916,21.041118 L20.9402282,20.3092151 L21.9427445,20.1994309 L21.9791902,20.364107 L22.7629778,20.3824135 L23.4373737,20.2726296 L23.9659868,20.2726296 C23.9659868,20.2726296 24.4945997,20.1628456 24.5674912,20.1628456 C24.6403826,20.1628456 24.9137937,19.9981695 24.9867125,19.9981695 C25.0596312,19.9981695 25.4241702,20.236044 25.4788525,20.236044 C25.5335346,20.236044 25.8251822,20.2909361 25.8251822,20.2909361 L26.1168026,20.1811519 L26.9188263,20.1994584 L27.6296944,20.0896744 C27.6296944,20.0896744 28.2312001,19.9798904 28.3770113,20.0164757 C28.5228198,20.0530613 29.106116,20.236044 29.0514335,20.2177374 C28.9967509,20.1994309 29.0149603,18.5160845 29.0149603,18.5160845 L28.9420683,17.7110105 L28.7415501,17.1437835 L28.4316912,16.5399712 L28.3952479,16.0093573 C28.3952479,16.0093573 29.3794991,16.247232 29.4524183,16.247232 C29.5253374,16.247232 30.017478,16.1923399 30.017478,16.1923399 L30.4549332,16.0276638 L31.0746755,16.0642494 C31.0746755,16.0642494 31.8401991,15.8446812 31.9131182,15.8446812 C31.9860374,15.8446812 32.3505762,15.7165906 32.3505762,15.7165906 L32.4234954,12.221807 L31.7673071,12.221807 L31.8949088,9.64188139 L32.9885524,9.91634148 L33.7723125,9.98953988 L34.8295128,9.95295458 L35.5403809,9.84317032 L36.4152968,9.75169289 L36.9438834,10.3555052 L35.2487342,11.6912206 L36.8527548,14.5456063 L37.0167998,14.5821919 C37.0167998,14.5821919 36.8709914,15.533663 36.8709914,15.5885549 C36.8709914,15.643447 36.6704705,15.9179071 36.6704705,15.9179071 L36.7069436,16.3753501 L36.652261,16.9425768 L37.162611,18.0038319 L37.3084493,18.5710589 L37.3631319,18.845519 L36.1236501,19.5957009 L37.2719762,19.4310248 L37.9463983,19.3029342 C37.9463983,19.3029342 38.8395508,19.668872 38.948916,19.668872 C39.0582784,19.668872 39.8420386,19.7054576 39.8420386,19.7054576 L41.4278254,20.1811794 L42.521469,20.6935143 L43.0682921,20.473946 L43.870316,20.2909634 L45.1826871,20.1628728 L45.2920523,20.4739185 L45.9664473,20.1811519 L46.4039053,20.2543505 L46.8413632,19.9798904 L47.2788212,19.7237366 L48.1355277,19.412691 L48.390704,19.3394923 L48.7187968,18.8820495 L48.9375244,18.8271577 L49.466111,18.516112 L49.8488863,18.04039 L49.6119493,17.6012538 L50.1405331,16.6315036 L50.2134523,16.7778732 L50.4686259,16.5217197 L50.7602754,16.3570436 L50.6873562,16.210674 L50.5050719,16.1374753 L50.8696379,15.8996008 L51.2706227,15.9179071 L51.7080806,15.6983391 L51.8903649,15.4421853 L51.9997301,14.8566795 L51.9632841,14.2162817 L52.3642689,13.6856677 L52.5829965,12.7341967 L52.6559157,12.4780428 L53.0751371,12.4780428 L53.1298197,12.3133667 L53.2574214,12.1121053 L54.3328284,13.1001617 L55.0072505,13.4844061 L55.3353433,13.8137583 C55.3353433,13.8137583 56.0826602,13.4112077 56.1373401,13.4844061 C56.1920226,13.5576045 56.3560704,13.7588661 56.3560704,13.7588661 L56.6294806,13.7588661 L56.6294806,14.2345879 C56.6294806,14.2345879 57.2492229,14.8932924 57.3039055,14.9298779 C57.3585881,14.9664635 58.5433602,15.6800601 58.5433602,15.6800601 L59.2724649,15.0579412 L59.9468871,15.1311396 L60.2749799,14.8017874 L60.0926982,13.9784069 L60.1109348,12.8805662 L61.2410244,12.5146284 L61.2957069,11.3802022 L61.8242935,11.1972196 C61.8242935,11.1972196 62.4257965,11.069129 62.4804791,11.069129 C62.5351617,11.069129 63.3371856,11.0325434 63.3371856,11.0325434 L63.3736316,11.3070038 C63.3736316,11.3070038 64.7407152,11.4533734 64.7771856,11.3984812 C64.8136588,11.3435894 65.2511167,11.2703907 65.2511167,11.1972196 C65.2511167,11.1240211 65.3604819,10.7397768 65.3604819,10.7397768 L65.7614667,10.5202088 L66.0531135,10.3189471 L66.5999366,10.2274694 L66.8369008,9.78833324 L67.2925682,9.55045873 L67.2196789,8.94664614 L66.982712,8.80027658 L65.1052811,8.67218605 C65.1052811,8.67218605 63.5924406,7.4096693 63.446605,7.4096693 C63.3007667,7.4096693 62.6445811,7.11690266 62.6445811,7.11690266 L64.3215209,5.12248279 L65.5062931,5.50672714 L66.1807152,4.40888639 L66.381209,4.46377844 L67.1285231,3.27446017 L67.4019333,3.45744275 L67.930547,3 L68.0945921,3.21956813 C68.0945921,3.21956813 67.2925682,4.81143712 67.3108048,4.86632917 C67.3290413,4.92122122 67.5112985,5.43355599 67.5112985,5.43355599 L69.6621423,4.22593125 L69.2611276,7.94020064 L70.4459025,9.14782553 L72.7425547,10.3920357 L73.2529318,10.5567118 L74.6564316,11.7277512 L75.8229943,11.1788307 L76.1328532,11.7643367 L76.4974191,11.7826433 L76.3698174,13.9966311 L75.8594403,16.4301872 L73.7450696,17.8207945 L73.7633062,19.6322317 L73.5081055,19.7969078 L72.6331895,22.3768334 L72.4144619,24.279748 L72.8519199,24.1516575 L74.8569525,28.0306855 L77.5545895,27.6464411 L78.2107778,27.7562254 L79.1768467,27.9757933 L80.470984,28.3783442 L82.0932141,28.8174804 L82.0750047,29.0004631 L83.1321751,29.5493827 L84.0982467,30.3178709 L84.9913721,31.0131628 L85.5746683,31.7267586 L86.0668062,32.4586609 L86.431345,33.2454556 L87.5432006,32.8063191 L87.925976,33.0807811 L88.1264942,33.6480062 L88.7279999,33.6114203 L89.1654579,34.7092629 L89.2019039,35.4045521 L89.4388681,35.9717799 L89.4935507,36.539005 L89.5846793,37.0879263 L89.9492181,37.6734307 L90.313784,38.2223519 L90.2226283,38.8627515 L90.2226283,39.4482559 L90.1314997,40.0703761 L95.3992019,41.3328931 L96.9667792,41.5158741 L98.0421862,41.55246 L99.6462068,41.7903334 L99.755572,42.1379944 L99.1540663,43.1443559 L98.7166083,43.0894635 C98.7166083,43.0894635 98.643662,43.2541407 98.5707727,43.2541407 C98.4978807,43.2541407 98.2973598,43.1626625 98.2973598,43.1626625 C98.2973598,43.1626625 98.0968688,43.2541407 98.0421862,43.2541407 C97.9875036,43.2541407 97.4771265,43.1992483 97.4771265,43.1992483 L97.73233,44.2970882 L97.6047282,44.4617654 L97.8416924,45.5412986 L98.5160902,45.4680997 L99.9013805,45.2851187 L101.32312,45.5046855 L102.270925,45.4497931 L103.601535,45.2851187 L103.966074,46.4561574 L103.127631,47.2612314 L102.434972,47.8284592 L101.760577,48.3956571 L101.031473,49.1092556 L100.247683,50.0424182 L99.5186051,51.2866559 L99.1905123,52.2563799 L98.9353115,53.1529866 L98.7165812,54.3239981 L98.5343267,55.3486663 L98.406725,56.2086054 L98.1879974,56.5379571 L99.2087217,56.8673115 L98.5160902,58.0749361 L96.8027043,60.7463653 L96.6751297,62.3199547 L97.1307971,62.5760829 C97.1307971,62.5760829 96.3105638,63.8203206 96.3652464,63.8203206 C96.419929,63.8203206 97.0579051,64.0216082 97.0579051,64.0216082 L97.4224439,63.6190303 L98.2062339,63.8752103 L98.2244407,64.4607447 L98.3155964,64.479024 L98.2973598,65.0462246 L98.5343267,65.0645584 L98.5890093,64.9364398 L98.4796441,64.3692392 L98.8624195,64.2960675 L98.8259464,62.868876 L99.4092426,62.8505422 C99.4092426,62.8505422 99.828464,62.3931264 99.8831439,62.3565133 C99.9378265,62.3199547 100.703377,62.0088823 100.703377,62.0088823 L101.341329,61.606359 C101.341329,61.606359 102.015778,60.8927632 102.08867,60.8927632 C102.161562,60.8927632 102.890667,60.9842115 102.890667,60.9842115 L103.820266,61.423348 L104.294169,61.4599611 L105.005038,61.9539899 L105.624777,62.3016209 C105.624777,62.3016209 105.934636,62.3199547 106.043999,62.3199547 C106.153364,62.3199547 106.663741,62.1369464 106.663741,62.1369464 L107.192325,62.4662981 L108.067241,63.0884429 L108.92392,63.5458586 L109.270249,64.131393 C109.270249,64.131393 109.744153,64.4424109 109.798836,64.4607447 C109.853518,64.479024 110.363896,64.6070881 110.363896,64.6070881 L111.530431,64.735204 L112.059045,64.826655 C112.059045,64.826655 112.423584,65.741541 112.423584,65.7964334 C112.423584,65.8513258 112.478263,66.4551368 112.478263,66.4551368 L112.769913,66.9491656 L112.751676,67.351689 L112.751676,67.6261483 L113.972922,67.6810407 L114.100494,67.1870118 L114.082287,66.619814 L113.972922,66.1257851 L113.535464,66.0342796 L113.316733,64.735204 L112.933958,64.1496723 L112.71523,63.600751 L113.043323,63.6190303 L113.699509,64.2045647 L114.556188,64.7534833 C114.556188,64.7534833 115.157694,65.1011142 115.212376,65.1011142 C115.267059,65.1011142 115.68628,65.1011142 115.68628,65.1011142 L116.324284,65.9062182 L116.816424,66.8942732 C116.816424,66.8942732 117.436137,67.5163662 117.490819,67.5163662 C117.545502,67.5163662 118.092325,68.138511 118.092325,68.138511 C118.092325,68.138511 118.438627,68.5593136 118.529783,68.5776474 C118.620939,68.5959267 119.422935,68.614206 119.422935,68.614206 L119.568744,68.4861419 L119.751028,68.522755 L119.805711,68.6874322 C119.805711,68.6874322 121.154528,68.9618915 121.227447,68.9618915 C121.300366,68.9618915 121.482621,68.797217 121.482621,68.797217 C121.482621,68.797217 122.649186,69.1997377 122.703866,69.1997377 C122.758549,69.1997377 123.451183,69.5839845 123.451183,69.5839845 L123.560545,69.8035514 L123.74283,69.6937666 L123.432973,70.5537602 L123.998003,70.6452112 L123.779276,71.9443413 L124.8,72.0724027 L124.50838,72.6030447 L123.469419,72.5847654 L123.706356,71.0294553 L122.722075,71.2124663 L121.591986,72.2370799 L121.464384,73.7557769 L120.71707,73.8106693 L120.589471,73.8655617 L119.823917,73.8655617 L119.131286,73.6093817 L118.383972,73.1519659 L117.764232,72.7128295 L117.581948,72.5481523 L117.600184,72.914117 L118.165244,73.3715328 L118.784956,73.7191638 L119.258888,73.8472824 L119.769238,73.9570672 L120.334295,73.9936258 L120.881118,74.1217444 L120.844672,75.0914656 L121.318576,75.3110352 L121.20921,75.750169 L120.516579,75.8599538 L119.514061,77.8177872 L119.568744,78.1837547 L119.459379,78.5313857 L119.33178,79.0436912 L119.550507,79.4645483 L119.860391,79.8854055 L120.224932,80.3794344 L120.17025,80.599004 L120.771753,80.9100219 L121.008719,81.2759866 L121.099845,81.7517362 L120.644151,82.0993672 L120.480106,82.8129629 L120.461896,83.2703787 L119.751028,84.0205875 L119.550507,83.9656951 L119.386462,84.0023082 L119.222414,84.0023082 L118.894322,84.1852647 L118.584465,84.4963371 L118.092325,84.5877881 L117.873595,84.459724 L117.509056,84.4780033 L117.290328,84.2584364 L116.85287,84.5512295 L116.524777,84.8988605 L116.233128,85.081817 L116.160209,85.337997 L115.923272,85.5392873 L115.595179,85.7588541 L115.303532,85.9235313 L115.048356,86.1979906 L114.811392,86.2162699 L114.228122,87.1494353 L114.17344,86.8383602 L113.954712,86.8018043 L113.881793,87.332389 L113.499018,87.7898593 L113.207371,88.2289958 L112.879275,88.5766268 L112.587656,88.8876991 L112.259563,88.8876991 L112.077279,88.9791501 L111.93147,89.3633942 L112.20488,89.65619 L112.4965,89.5646845 L113.535464,90.1684955 L114.39217,90.0221003 L114.064077,91.1565532 L114.556215,91.1748325 L114.68379,91.266338 L114.66558,91.5774104 L114.446853,92.0531055 L114.209886,92.6386371 L113.845347,93.3522356 L113.444335,93.864541 L113.5537,94.1938927 C113.5537,94.1938927 113.225608,94.2487851 113.28029,94.2671189 C113.33497,94.2853982 113.389653,94.4317961 113.389653,94.4317961 L113.098006,94.3220113 L112.824596,94.4317961 L112.551183,94.4500754 L111.93147,94.047552 L111.512222,93.864541 L110.910716,94.0841106 L110.108719,94.6330292 L109.561899,94.7794271 L109.343168,95.3283483 L109.25204,95.5113021 L109.033312,95.6394207 L108.796348,96.1517289 L108.705219,97.2129556 L108.741665,97.6704259 C108.741665,97.6704259 108.322444,97.7253183 108.322444,97.7802107 C108.322444,97.8351031 108.213079,98.146121 108.213079,98.146121 L108.121923,98.5852574 L107.957878,98.9512222 L107.538657,99.1525098 L107.52042,99.5184201 L107.155881,99.6830973 L107.137645,100.213739 L107.02828,100.652876 L107.064753,101.01884 L106.846022,101.274966 L106.645504,101.586038 L106.335648,102.171573 L106.317412,102.647268 C106.317412,102.647268 106.353885,103.269413 106.353885,103.342584 C106.353885,103.415756 106.135154,103.690215 106.135154,103.690215 L105.734142,103.8 L105.296684,103.708549 L104.950355,103.470648 L104.731625,103.452369 C104.731625,103.452369 104.203068,102.775329 104.111912,102.757053 C104.020757,102.738773 103.419254,101.695823 103.419254,101.695823 L103.309888,100.707768 L103.291679,98.9329429 C103.291679,98.9329429 103.328125,97.8899928 103.328125,97.8351031 C103.328125,97.7802107 103.674454,97.1031708 103.674454,97.1031708 L104.512897,96.0785572 C104.512897,96.0785572 104.986801,95.5479152 105.005038,95.4564097 C105.023274,95.3649614 105.005038,94.8892119 105.005038,94.8892119 L104.786307,94.1938927 L103.947865,94.0292182 L104.075439,93.2241715 L103.838502,91.8884283 L102.161562,92.3824571 L101.104389,90.9003705 L97.1672703,93.4802969 L97.2583989,92.8215936 L97.1672703,92.4739626 L97.0579051,92.2726723 L96.9667494,92.1812213 L97.1490337,91.870149 L96.9849859,91.339507 L96.583974,91.0650477 C96.583974,91.0650477 96.4381655,90.6808581 96.383483,90.6625243 C96.3288004,90.644245 96.0553902,90.4612368 96.0553902,90.4612368 L95.7272974,90.0404341 L95.1622377,89.9306493 L94.8888275,89.4548997 L94.907064,89.2170535 L94.8523815,88.9608708 L94.6518877,88.8876991 L94.5425225,88.6132399 L94.6518877,88.2655544 L94.6700971,87.9910951 L94.5425225,87.7349669 L94.3237949,87.5336793 L92.8838492,88.2838882 L91.9907238,88.5400137 C91.9907238,88.5400137 91.2251731,88.8328095 91.1522539,88.8328095 C91.0793347,88.8328095 90.6054308,88.9974839 90.6054308,88.9974839 C90.6054308,88.9974839 90.0039278,89.3451149 89.9492452,89.3451149 C89.8945626,89.3451149 89.0925659,89.6195769 89.0925659,89.6195769 L88.21765,89.6195769 C88.21765,89.6195769 87.3609435,89.6012976 87.2698149,89.6012976 C87.178689,89.6012976 86.4678181,89.6378562 86.4678181,89.6378562 L85.7022674,89.6744666 C85.7022674,89.6744666 85.1189738,89.6744666 85.0642912,89.6744666 C85.0096086,89.6744666 83.6607888,89.7110797 83.6607888,89.7110797 L83.6061062,89.1438273 L83.6061062,88.4851213 L83.6607888,87.9362027 L83.8430731,87.0945429 L83.9524383,86.4907292 L84.0800101,86.1796568 C84.0800101,86.1796568 83.442034,86.600514 83.369142,86.600514 C83.29625,86.600514 82.6035912,87.1128222 82.6035912,87.1128222 C82.6035912,87.1128222 81.4917383,86.6920195 81.3823731,86.6371271 C81.2730079,86.5822347 80.4163286,86.1430982 80.4163286,86.1430982 C80.4163286,86.1430982 80.0335532,86.0149796 79.9606341,86.0149796 C79.8877149,86.0149796 79.486703,86.252883 79.3955771,86.2711623 C79.3044485,86.2894416 78.3019308,86.600514 78.3019308,86.600514 L77.1900779,86.856694 L76.0235152,87.1494353 L74.4741771,87.7349669 L73.2711684,88.1374903 L72.9066296,86.4175575 L72.3415699,85.1184301 C72.3415699,85.1184301 70.7740224,81.0198612 70.5917652,81.0015274 C70.4095108,80.9832481 69.9720256,80.7453447 69.8262145,80.7453447 C69.680406,80.7453447 68.9148526,80.946635 68.9148526,80.946635 C68.9148526,80.946635 66.6181732,82.2823209 66.5452812,82.3006575 C66.4723891,82.318934 65.196464,82.9959194 65.196464,82.9959194 C65.196464,82.9959194 64.0298986,83.7461283 63.8840901,83.727849 C63.7382789,83.7095152 61.6421178,84.5328957 61.6421178,84.5328957 L61.6056717,85.3746101 L63.6835964,91.7054745 L63.5377608,92.4007909 L62.5717162,94.9441043 C62.5717162,94.9441043 60.0016511,94.8343195 59.7829235,94.8709326 C59.5641931,94.9074912 56.5931187,94.7794271 56.5931187,94.7794271 L56.1921068,91.5407973 L53.0570091,91.6505821 C53.0570091,91.6505821 53.2392663,90.0952693 53.1845837,90.07699 C53.1299011,90.0587134 51.2889434,89.0889349 51.2889434,89.0889349 L49.4023237,87.7623859 L47.5978093,86.1842403 Z" id="Berlin-Copy" stroke="#00ADB2" stroke-width="1.08" fill="#00ADB2" stroke-linecap="round" stroke-linejoin="round"></path>
            <g id="Group-17" transform="translate(69.101181, 23.449889)">
                <g id="Group" transform="translate(0.080000, 0.000000)">
                    <path d="M6.624,33.750327 C6.624,33.218988 6.624,32.4962414 6.624,31.5820871 C6.624,29.614258 6.624,24.6668956 6.624,16.74 L24.84,0 L42.66,16.74 L43.596,40.0051695 C42.866953,43.1430565 41.2702884,44.712 38.806006,44.712 C36.3417236,44.712 27.2703883,44.712 11.592,44.712 C8.28,44.2704 6.624,42.6144 6.624,39.744 C6.624,38.9093936 6.624,37.6691829 6.624,36.0233678" id="Path" fill="#F8F8F8"></path>
                    <path d="M43.056,37.5245087 L43.056,39.744 C43.056,42.4877506 40.8317506,44.712 38.088,44.712 L11.592,44.712 C8.84824936,44.712 6.624,42.4877506 6.624,39.744 C6.624,37.6011856 6.624,39.6759158 6.624,38.6045087 M6.624,33.2973974 C6.624,30.6792442 6.624,25.2792442 6.624,17.0973974" id="Shape" stroke="#242424" stroke-width="1.5"></path>
                    <line x1="43.0596" y1="17.1501114" x2="43.0596" y2="28.62" id="Path" stroke="#242424" stroke-width="1.5" fill="#FFFFFF" stroke-linecap="round" stroke-linejoin="round"></line>
                    <line x1="43.056" y1="31.9911289" x2="43.056" y2="34.3584" id="Path" stroke="#242424" stroke-width="1.5" stroke-linecap="round" stroke-linejoin="round"></line>
                    <polyline id="Path" stroke="#242424" stroke-width="1.5" stroke-linecap="round" stroke-linejoin="round" points="0 23.184 24.84 9.82254278e-13 49.68 23.184"></polyline>
                    <path d="M16.56,32.9786031 L16.56,28.485 C16.56,27.2920649 17.5270649,26.325 18.72,26.325 L29.304,26.325 C30.4969351,26.325 31.464,27.2920649 31.464,28.485 L31.464,42.5750587 C31.464,43.7679938 30.4969351,44.7350587 29.304,44.7350587 L18.72,44.7350587 C17.5270649,44.7350587 16.56,43.7679938 16.56,42.5750587 L16.56,41.7388528 L16.56,38.7371169" id="Shape" stroke="#242424" stroke-width="1.5" fill="#CCEFF0" stroke-linecap="round"></path>
                    <path d="M24.192,23.0099534 C24.4108956,23.0099534 24.626785,23.060918 24.8225712,23.1588111 L24.8225712,23.1588111 L31.3025712,26.3988111 C31.5414139,26.5182324 31.7362711,26.7000009 31.8714176,26.9186725 C32.0065642,27.1373442 32.082,27.3929191 32.082,27.6599534 L32.082,27.6599534 L32.082,43.9440466 C32.082,44.2110809 32.0065642,44.4666558 31.8714176,44.6853275 C31.7362711,44.9039991 31.5414139,45.0857676 31.3025712,45.2051889 L31.3025712,45.2051889 L24.8225712,48.4451889 C24.4743163,48.6193163 24.0884517,48.635801 23.7461188,48.52169 C23.403786,48.4075791 23.1049851,48.1628726 22.9308577,47.8146178 C22.8329646,47.6188316 22.782,47.4029422 22.782,47.1840466 L22.782,47.1840466 L22.782,24.4199534 C22.782,24.0305927 22.9398196,23.6780927 23.1949794,23.4229329 C23.4501393,23.167773 23.8026393,23.0099534 24.192,23.0099534 Z" id="Rectangle" stroke="#242424" stroke-width="1.5" fill="#00ADB2"></path>
                </g>
            </g>
            <g id="Group-18" transform="translate(52.000000, 36.600000)">
                <path d="M19.5692308,40.0879121 C29.4153846,31.4826533 34.3384615,23.9565791 34.3384615,17.5096895 C34.3384615,7.839355 27.7260517,8.18545232e-13 19.5692308,8.18545232e-13 C11.4124098,8.18545232e-13 4.8,7.839355 4.8,17.5096895 C4.8,23.9565791 9.72307692,31.4826533 19.5692308,40.0879121 Z" id="Oval" fill-opacity="0.15" fill="#000000"></path>
                <path d="M14.7692308,0.934615385 C18.6281733,0.934615385 22.1133749,2.8019621 24.6393617,5.79665049 C27.2076805,8.84152577 28.7884615,13.0499554 28.7884615,17.6943048 C28.7884615,23.8921165 24.0438205,31.0653192 14.7677935,39.2724766 C5.49405169,31.0644282 0.75,23.8917316 0.75,17.6943048 C0.75,13.0499554 2.33078103,8.84152577 4.89909989,5.79665049 C7.42508666,2.8019621 10.9102882,0.934615385 14.7692308,0.934615385 Z" id="Oval" stroke="#242424" stroke-width="1.5" fill="#CCEFF0"></path>
                <circle id="Oval" stroke="#242424" stroke-width="1.5" fill="#FFFFFF" cx="14.7692308" cy="14.6162637" r="5.57967033"></circle>
            </g>
            <g id="Group-17" transform="translate(16.200000, 0.000000)">
                <g id="Group" transform="translate(0.660000, 0.000000)">
                    <path d="M4.048,20.6251998 C4.048,20.3004927 4.048,19.8588142 4.048,19.3001643 C4.048,18.0976021 4.048,15.074214 4.048,10.23 L15.18,0 L26.6376,10.23 L26.642,24.4476036 C26.1964713,26.3652012 25.2207318,27.324 23.7147815,27.324 C23.4143761,27.324 22.9533055,27.324 22.3315697,27.324 C21.1881808,27.324 17.5042101,27.324 15.2740752,27.324 C12.6376862,27.324 11.2391337,27.324 7.084,27.324 C5.06,27.0541333 4.048,26.0421333 4.048,24.288 C4.048,23.7779628 4.048,23.0200562 4.048,22.0142803" id="Path" fill="#C8C8C8"></path>
                    <path d="M26.312,22.9316442 L26.312,24.288 C26.312,25.9647365 24.9527365,27.324 23.276,27.324 C20.6195874,27.324 12.2655467,27.324 11.1597515,27.324 M12.5989104,27.324 C11.4875098,27.324 9.30680122,27.324 7.084,27.324 C5.4072635,27.324 4.048,25.9647365 4.048,24.288 C4.048,22.9785023 4.048,24.246393 4.048,23.5916442 L4.048,10.2576846" id="Shape" stroke="#242424" stroke-width="1.5" stroke-linecap="round" stroke-linejoin="round"></path>
                    <line x1="26.3142" y1="10.5" x2="26.3142" y2="16.5" id="Path" stroke="#242424" stroke-width="1.5" fill="#FFFFFF" stroke-linecap="round" stroke-linejoin="round"></line>
                    <line x1="26.312" y1="19" x2="26.312" y2="19.9968" id="Path" stroke="#242424" stroke-width="1.5" stroke-linecap="round" stroke-linejoin="round"></line>
                    <polyline id="Path" stroke="#242424" stroke-width="1.5" stroke-linecap="round" stroke-linejoin="round" points="0 14.168 15.18 6.00266503e-13 30.36 14.168"></polyline>
                    <path d="M10.12,20.1535908 L10.12,17.4075 C10.12,16.6784841 10.7109841,16.0875 11.44,16.0875 L17.908,16.0875 C18.6370159,16.0875 19.228,16.6784841 19.228,17.4075 L19.228,26.0180914 C19.228,26.7471073 18.6370159,27.3380914 17.908,27.3380914 M11.44,27.3380914 C10.7109841,27.3380914 10.12,26.7471073 10.12,26.0180914 L10.12,25.5070767 L10.12,23.6726825" id="Shape" stroke="#242424" stroke-width="1.5" stroke-linecap="round"></path>
                </g>
            </g>
        </g>
    </g>
</svg>