<?xml version="1.0" encoding="UTF-8"?>
<svg width="208px" height="166px" viewBox="0 0 208 166" version="1.1" xmlns="http://www.w3.org/2000/svg" xmlns:xlink="http://www.w3.org/1999/xlink">
    <title>icon_buergeramt</title>
    <g id="icon_buergeramt" stroke="none" stroke-width="1" fill="none" fill-rule="evenodd">
        <g id="Group" transform="translate(27.000000, 28.000000)">
            <rect id="Rectangle-Copy-6" stroke="#DEDEDE" stroke-width="0.903614458" fill="#DEDEDE" transform="translate(79.698795, 9.036145) scale(-1, 1) translate(-79.698795, -9.036145) " x="79.8493976" y="3.46385542" width="1" height="11.1445783"></rect>
            <rect id="Rectangle-Copy-7" stroke="#DEDEDE" stroke-width="0.903614458" fill="#DEDEDE" x="79.8493976" y="0.451807229" width="8.73493976" height="5.72289157"></rect>
            <path d="M80.4014194,15.810241 L82.0176327,19.4242133 L89.7921687,19.4246561 L89.7921687,24.5508047 L87.9848193,24.5498409 L87.9848193,57.3761938 L92.2016535,57.3764589 L92.2006655,62.1951285 L95.8162281,62.1956707 L95.8157823,71.2312318 L151.839949,71.2319185 L151.839408,72.2184467 L152.442,72.218 L152.442771,111.081325 L9.94259265,111.081325 L9.94164083,107.08122 L6.95481928,107.081304 L6.95481928,68.2198795 L23.5270364,68.2198795 L23.5267473,71.231241 L63.5807773,71.231241 L63.5812833,62.1956706 L67.1946693,62.1951285 L67.1956331,57.3764589 L71.4118193,57.3761938 L71.4118193,24.5498407 L69.6054217,24.5508045 L69.6054217,19.4246561 L77.3765496,19.4242132 L78.9883381,15.810241 L80.4014194,15.810241 Z" id="Combined-Shape" stroke="#DEDEDE" stroke-width="1.5" fill="#DEDEDE"></path>
            <path d="M76.4014194,15.810241 L78.0176327,19.4242133 L85.7921687,19.4246561 L85.7921687,24.5508047 L83.9848193,24.5498409 L83.9848193,57.3761938 L88.2016535,57.3764589 L88.2006655,62.1951285 L91.8162281,62.1956707 L91.8157823,71.231241 L131.869654,71.231241 L131.870317,68.2198795 L148.442771,68.2198795 L148.442771,107.081325 L2.95481928,107.081325 L2.95481928,68.2198795 L19.5270364,68.2198795 L19.5267473,71.231241 L59.5807773,71.231241 L59.5812833,62.1956706 L63.1946693,62.1951285 L63.1956331,57.3764589 L67.4118193,57.3761938 L67.4118193,24.5498407 L65.6054217,24.5508045 L65.6054217,19.4246561 L73.3765496,19.4242132 L74.9883381,15.810241 L76.4014194,15.810241 Z" id="Combined-Shape" stroke="#242424" stroke-width="1.5" fill="#CCEFF0"></path>
            <path d="M75.6987952,84.5813253 C77.1485426,84.5813253 78.4610426,85.1689516 79.4111058,86.1190147 C80.3611689,87.0690778 80.9487952,88.3815778 80.9487952,89.8313253 L80.9487952,89.8313253 L80.9487952,107.081325 L70.4487952,107.081325 L70.4487952,89.8313253 C70.4487952,88.3815778 71.0364214,87.0690778 71.9864846,86.1190147 C72.9365477,85.1689516 74.2490477,84.5813253 75.6987952,84.5813253 Z" id="Rectangle" stroke="#242424" stroke-width="1.5" fill="#FFFFFF"></path>
            <rect id="Rectangle-Copy-6" stroke="#242424" stroke-width="0.903614458" fill="#FFFFFF" transform="translate(75.698795, 9.036145) scale(-1, 1) translate(-75.698795, -9.036145) " x="75.8493976" y="3.46385542" width="1" height="11.1445783"></rect>
            <rect id="Rectangle-Copy-7" stroke="#242424" stroke-width="0.903614458" fill="#242424" x="75.8493976" y="0.451807229" width="8.73493976" height="5.72289157"></rect>
            <g id="Group-21" transform="translate(0.879518, 84.216867)" fill="#FFFFFF" stroke="#242424" stroke-width="1.5">
                <path d="M20.8832135,0.883213482 C21.3304142,0.75 21.444119,0.800907382 21.5264251,0.883213482 C21.6087312,0.965519582 21.6596386,1.0792244 21.6596386,1.20481928 L21.6596386,1.20481928 L21.6596386,14.25 L20.75,14.25 L20.75,1.20481928 C20.75,1.0792244 20.8009074,0.965519582 20.8832135,0.883213482 Z" id="Rectangle-Copy-10"></path>
                <path d="M85.9434544,0.883213482 C86.3906551,0.75 86.5043599,0.800907382 86.586666,0.883213482 C86.6689721,0.965519582 86.7198795,1.0792244 86.7198795,1.20481928 L86.7198795,1.20481928 L86.7198795,14.25 L85.810241,14.25 L85.810241,1.20481928 C85.810241,1.0792244 85.8611483,0.965519582 85.9434544,0.883213482 Z" id="Rectangle-Copy-22"></path>
                <path d="M46.1844183,0.883213482 C46.631619,0.75 46.7453238,0.800907382 46.8276299,0.883213482 C46.909936,0.965519582 46.9608434,1.0792244 46.9608434,1.20481928 L46.9608434,1.20481928 L46.9608434,14.25 L46.0512048,14.25 L46.0512048,1.20481928 C46.0512048,1.0792244 46.1021122,0.965519582 46.1844183,0.883213482 Z" id="Rectangle-Copy-17"></path>
                <path d="M111.244659,0.883213482 C111.69186,0.75 111.805565,0.800907382 111.887871,0.883213482 C111.970177,0.965519582 112.021084,1.0792244 112.021084,1.20481928 L112.021084,1.20481928 L112.021084,14.25 L111.111446,14.25 L111.111446,1.20481928 C111.111446,1.0792244 111.162353,0.965519582 111.244659,0.883213482 Z" id="Rectangle-Copy-23"></path>
                <path d="M33.5338159,0.883213482 C33.9810166,0.75 34.0947214,0.800907382 34.1770275,0.883213482 C34.2593336,0.965519582 34.310241,1.0792244 34.310241,1.20481928 L34.310241,1.20481928 L34.310241,14.25 L33.4006024,14.25 L33.4006024,1.20481928 C33.4006024,1.0792244 33.4515098,0.965519582 33.5338159,0.883213482 Z" id="Rectangle-Copy-14"></path>
                <path d="M98.5940569,0.883213482 C99.0412575,0.75 99.1549623,0.800907382 99.2372684,0.883213482 C99.3195745,0.965519582 99.3704819,1.0792244 99.3704819,1.20481928 L99.3704819,1.20481928 L99.3704819,14.25 L98.4608434,14.25 L98.4608434,1.20481928 C98.4608434,1.0792244 98.5117508,0.965519582 98.5940569,0.883213482 Z" id="Rectangle-Copy-24"></path>
                <path d="M58.8350207,0.883213482 C59.2822214,0.75 59.3959262,0.800907382 59.4782323,0.883213482 C59.5605384,0.965519582 59.6114458,1.0792244 59.6114458,1.20481928 L59.6114458,1.20481928 L59.6114458,14.25 L58.7018072,14.25 L58.7018072,1.20481928 C58.7018072,1.0792244 58.7527146,0.965519582 58.8350207,0.883213482 Z" id="Rectangle-Copy-18"></path>
                <path d="M123.895262,0.883213482 C124.342462,0.75 124.456167,0.800907382 124.538473,0.883213482 C124.620779,0.965519582 124.671687,1.0792244 124.671687,1.20481928 L124.671687,1.20481928 L124.671687,14.25 L123.762048,14.25 L123.762048,1.20481928 C123.762048,1.0792244 123.812956,0.965519582 123.895262,0.883213482 Z" id="Rectangle-Copy-25"></path>
                <path d="M25.100081,0.883213482 C25.5472816,0.75 25.6609864,0.800907382 25.7432925,0.883213482 C25.8255986,0.965519582 25.876506,1.0792244 25.876506,1.20481928 L25.876506,1.20481928 L25.876506,14.25 L24.9668675,14.25 L24.9668675,1.20481928 C24.9668675,1.0792244 25.0177749,0.965519582 25.100081,0.883213482 Z" id="Rectangle-Copy-12"></path>
                <path d="M90.1603219,0.883213482 C90.6075226,0.75 90.7212274,0.800907382 90.8035335,0.883213482 C90.8858396,0.965519582 90.936747,1.0792244 90.936747,1.20481928 L90.936747,1.20481928 L90.936747,14.25 L90.0271084,14.25 L90.0271084,1.20481928 C90.0271084,1.0792244 90.0780158,0.965519582 90.1603219,0.883213482 Z" id="Rectangle-Copy-26"></path>
                <path d="M50.4012858,0.883213482 C50.8484864,0.75 50.9621913,0.800907382 51.0444974,0.883213482 C51.1268035,0.965519582 51.1777108,1.0792244 51.1777108,1.20481928 L51.1777108,1.20481928 L51.1777108,14.25 L50.2680723,14.25 L50.2680723,1.20481928 C50.2680723,1.0792244 50.3189797,0.965519582 50.4012858,0.883213482 Z" id="Rectangle-Copy-19"></path>
                <path d="M115.461527,0.883213482 C115.908727,0.75 116.022432,0.800907382 116.104738,0.883213482 C116.187044,0.965519582 116.237952,1.0792244 116.237952,1.20481928 L116.237952,1.20481928 L116.237952,14.25 L115.328313,14.25 L115.328313,1.20481928 C115.328313,1.0792244 115.379221,0.965519582 115.461527,0.883213482 Z" id="Rectangle-Copy-27"></path>
                <path d="M37.7506834,0.883213482 C38.197884,0.75 38.3115889,0.800907382 38.393895,0.883213482 C38.4762011,0.965519582 38.5271084,1.0792244 38.5271084,1.20481928 L38.5271084,1.20481928 L38.5271084,14.25 L37.6174699,14.25 L37.6174699,1.20481928 C37.6174699,1.0792244 37.6683773,0.965519582 37.7506834,0.883213482 Z" id="Rectangle-Copy-15"></path>
                <path d="M102.810924,0.883213482 C103.258125,0.75 103.37183,0.800907382 103.454136,0.883213482 C103.536442,0.965519582 103.587349,1.0792244 103.587349,1.20481928 L103.587349,1.20481928 L103.587349,14.25 L102.677711,14.25 L102.677711,1.20481928 C102.677711,1.0792244 102.728618,0.965519582 102.810924,0.883213482 Z" id="Rectangle-Copy-28"></path>
                <path d="M63.0518882,0.883213482 C63.4990889,0.75 63.6127937,0.800907382 63.6950998,0.883213482 C63.7774059,0.965519582 63.8283133,1.0792244 63.8283133,1.20481928 L63.8283133,1.20481928 L63.8283133,14.25 L62.9186747,14.25 L62.9186747,1.20481928 C62.9186747,1.0792244 62.9695821,0.965519582 63.0518882,0.883213482 Z" id="Rectangle-Copy-20"></path>
                <path d="M128.112129,0.883213482 C128.55933,0.75 128.673035,0.800907382 128.755341,0.883213482 C128.837647,0.965519582 128.888554,1.0792244 128.888554,1.20481928 L128.888554,1.20481928 L128.888554,14.25 L127.978916,14.25 L127.978916,1.20481928 C127.978916,1.0792244 128.029823,0.965519582 128.112129,0.883213482 Z" id="Rectangle-Copy-29"></path>
                <path d="M29.3169484,0.883213482 C29.7641491,0.75 29.8778539,0.800907382 29.96016,0.883213482 C30.0424661,0.965519582 30.0933735,1.0792244 30.0933735,1.20481928 L30.0933735,1.20481928 L30.0933735,14.25 L29.1837349,14.25 L29.1837349,1.20481928 C29.1837349,1.0792244 29.2346423,0.965519582 29.3169484,0.883213482 Z" id="Rectangle-Copy-13"></path>
                <path d="M94.3771894,0.883213482 C94.8243901,0.75 94.9380949,0.800907382 95.020401,0.883213482 C95.1027071,0.965519582 95.1536145,1.0792244 95.1536145,1.20481928 L95.1536145,1.20481928 L95.1536145,14.25 L94.2439759,14.25 L94.2439759,1.20481928 C94.2439759,1.0792244 94.2948833,0.965519582 94.3771894,0.883213482 Z" id="Rectangle-Copy-30"></path>
                <path d="M54.6181532,0.883213482 C55.0653539,0.75 55.1790587,0.800907382 55.2613648,0.883213482 C55.3436709,0.965519582 55.3945783,1.0792244 55.3945783,1.20481928 L55.3945783,1.20481928 L55.3945783,14.25 L54.4849398,14.25 L54.4849398,1.20481928 C54.4849398,1.0792244 54.5358471,0.965519582 54.6181532,0.883213482 Z" id="Rectangle-Copy-21"></path>
                <path d="M119.678394,0.883213482 C120.125595,0.75 120.2393,0.800907382 120.321606,0.883213482 C120.403912,0.965519582 120.454819,1.0792244 120.454819,1.20481928 L120.454819,1.20481928 L120.454819,14.25 L119.545181,14.25 L119.545181,1.20481928 C119.545181,1.0792244 119.596088,0.965519582 119.678394,0.883213482 Z" id="Rectangle-Copy-31"></path>
                <path d="M41.9675508,0.883213482 C42.4147515,0.75 42.5284563,0.800907382 42.6107624,0.883213482 C42.6930685,0.965519582 42.7439759,1.0792244 42.7439759,1.20481928 L42.7439759,1.20481928 L42.7439759,14.25 L41.8343373,14.25 L41.8343373,1.20481928 C41.8343373,1.0792244 41.8852447,0.965519582 41.9675508,0.883213482 Z" id="Rectangle-Copy-16"></path>
                <path d="M107.027792,0.883213482 C107.474992,0.75 107.588697,0.800907382 107.671003,0.883213482 C107.753309,0.965519582 107.804217,1.0792244 107.804217,1.20481928 L107.804217,1.20481928 L107.804217,14.25 L106.894578,14.25 L106.894578,1.20481928 C106.894578,1.0792244 106.945486,0.965519582 107.027792,0.883213482 Z" id="Rectangle-Copy-32"></path>
            </g>
            <path d="M10.939759,76.6536145 C11.8372218,76.6536145 12.6497218,77.0173831 13.2378561,77.6055174 C13.8259904,78.1936517 14.189759,79.0061517 14.189759,79.9036145 L14.189759,79.9036145 L14.189759,107.153614 L7.68975904,107.153614 L7.68975904,79.9036145 C7.68975904,79.0061517 8.05352768,78.1936517 8.641662,77.6055174 C9.22979632,77.0173831 10.0422963,76.6536145 10.939759,76.6536145 Z" id="Rectangle-Copy-8" stroke="#242424" stroke-width="1.5" fill="#FFFFFF"></path>
            <path d="M140.457831,76.6536145 C141.355294,76.6536145 142.167794,77.0173831 142.755928,77.6055174 C143.344063,78.1936517 143.707831,79.0061517 143.707831,79.9036145 L143.707831,79.9036145 L143.707831,107.153614 L137.207831,107.153614 L137.207831,79.9036145 C137.207831,79.0061517 137.5716,78.1936517 138.159734,77.6055174 C138.747869,77.0173831 139.560369,76.6536145 140.457831,76.6536145 Z" id="Rectangle-Copy-9" stroke="#242424" stroke-width="1.5" fill="#FFFFFF"></path>
            <path d="M120.971773,82 L151,82 L151,82.6024096 L121,82.6024096 M112.429583,82.6024096 L1,82.6024096 L1,82 L112.43299,82 M117.917492,82.6024096 L115.439213,82.6024096 M115.556256,82 L117.897535,82" id="Shape" stroke="#242424" stroke-width="0.903614458" fill="#FFFFFF" stroke-linecap="round" stroke-linejoin="round"></path>
            <rect id="Rectangle-Copy-11" stroke="#242424" stroke-width="0.903614458" fill="#FFFFFF" transform="translate(76.000000, 99.301205) scale(1, -1) translate(-76.000000, -99.301205) " x="1" y="99" width="150" height="1"></rect>
        </g>
    </g>
</svg>