<svg xmlns="http://www.w3.org/2000/svg" width="208" height="166" viewBox="0 0 208 166">
  <g fill="none" fill-rule="evenodd" transform="translate(64 56)">
    <rect width="75.429" height="50.286" x="4.571" y="4.571" fill="#DEDEDE" rx="8"/>
    <path fill="#FFC9AE" stroke="#242424" stroke-linecap="round" stroke-linejoin="round" stroke-width="1.5" d="M74.8571429,17.1428571 L74.8571429,24 M75.4285714,30.1233738 C75.4285714,33.3961245 75.4285714,35.1198046 75.4285714,41.6653061 C75.4285714,46.4262261 71.7445145,50.2857143 67.2,50.2857143 L8.22857143,50.2857143 C3.68405692,50.2857143 0,46.4262261 0,41.6653061 L0,8.62040816 C0,3.8594882 3.68405692,0 8.22857143,0 L65.077679,0 L67.2,0 C71.7445145,0 75.4285714,3.8594882 75.4285714,8.62040816 L75.4285714,10.2574893 L75.4285714,12.8219751"/>
    <rect width="18.286" height="1" x="41.125" y="14.857" stroke="#242424" stroke-width="1.5" rx=".5"/>
    <rect width="18.286" height="1" x="41.125" y="28.571" stroke="#242424" stroke-width="1.5" rx=".5"/>
    <rect width="18.286" height="1" x="41.125" y="21.714" stroke="#242424" stroke-width="1.5" rx=".5"/>
    <rect width="18.286" height="1" x="41.125" y="34.869" stroke="#242424" stroke-width="1.5" rx=".5"/>
    <rect width="19.071" height="22.5" x="13.321" y="14.712" fill="#FFF" stroke="#242424" stroke-width="1.5" rx="2.474"/>
    <circle cx="22.686" cy="25.143" r="3.821" fill="#D8D8D8" stroke="#242424" stroke-width="1.5"/>
    <path fill="#D8D8D8" stroke="#242424" stroke-width="1.5" d="M22.6863034,29.3214286 C21.0630835,29.3214286 19.7575928,29.9856154 18.7664472,31.3071429 C17.7915448,32.6070128 17.1138555,34.4979211 16.7011589,36.9642857 L28.6714478,36.9642857 C28.2587513,34.4979211 27.581062,32.6070128 26.6061595,31.3071429 C25.6150139,29.9856154 24.3095233,29.3214286 22.6863034,29.3214286 Z"/>
  </g>
</svg>
