<?xml version="1.0" encoding="UTF-8"?>
<svg width="208px" height="166px" viewBox="0 0 208 166" version="1.1" xmlns="http://www.w3.org/2000/svg" xmlns:xlink="http://www.w3.org/1999/xlink">
    <title>icon_reisepass_kinderpass</title>
    <defs>
        <rect id="path-1" x="0" y="0.8" width="38" height="40" rx="3.2"></rect>
    </defs>
    <g id="icon_reisepass_kinderpass" stroke="none" stroke-width="1" fill="none" fill-rule="evenodd">
        <g id="Group-9" transform="translate(50.000000, 28.000000)">
            <g id="Group-8">
                <line x1="61.9251068" y1="15.9506471" x2="61.9251068" y2="19.8549313" id="Path" stroke="#242424" stroke-width="1.5" fill="#D4D2D2" stroke-linecap="round"></line>
                <g id="Group-3" transform="translate(40.000000, 28.500000) rotate(-90.000000) translate(-40.000000, -28.500000) translate(12.000000, -10.000000)" stroke="#242424" stroke-linecap="round" stroke-width="1.5">
                    <path d="M54.3827056,38.2447519 L54.3827056,68.8847605 C54.3827056,72.8893923 51.1363101,76.1357879 47.1316782,76.1357879 L-1.10134124e-13,76.1357879 L-1.10134124e-13,-4.47641924e-13 L47.1316782,-4.47641924e-13 C51.1363101,-4.47641924e-13 54.3827056,3.24639555 54.3827056,7.25102742 L54.3827056,20.0192714 L54.3827056,25.457542" id="Path" fill="#CCEFF0"></path>
                    <line x1="54.3827056" y1="30.7857982" x2="54.3827056" y2="33.9285551" id="Path" fill="#F2F2F2"></line>
                </g>
                <g id="Group-3-Copy" transform="translate(39.000000, 84.500000) rotate(-270.000000) translate(-39.000000, -84.500000) translate(11.000000, 46.000000)" stroke="#242424" stroke-linecap="round" stroke-width="1.5">
                    <path d="M54.3827056,38.2447519 L54.3827056,68.8847605 C54.3827056,72.8893923 51.1363101,76.1357879 47.1316782,76.1357879 L-1.10134124e-13,76.1357879 L-1.10134124e-13,-4.47641924e-13 L47.1316782,-4.47641924e-13 C51.1363101,-4.47641924e-13 54.3827056,3.24639555 54.3827056,7.25102742 L54.3827056,20.0192714 L54.3827056,25.457542" id="Path" fill="#CCEFF0"></path>
                    <line x1="54.3827056" y1="30.7857982" x2="54.3827056" y2="33.9285551" id="Path" fill="#F2F2F2"></line>
                </g>
                <g id="Adler" transform="translate(39.000000, 30.500000) rotate(-360.000000) translate(-39.000000, -30.500000) translate(21.000000, 14.000000)">
                    <path d="M29.1488218,21.4203717 C29.6880182,22.2207824 30.5813561,23.4043471 31.8470845,24.3787103 C30.0293286,24.3787103 28.8240494,24.4214103 27.286014,21.9777648 L26.9401414,21.4203717 L23.0237684,15.1214719 C22.7714211,15.2191232 22.515367,15.30961 22.2547507,15.3953683 L26.0003259,21.4203717 L27.0727307,23.144708 C27.5432087,23.8975468 28.5480357,25.3874628 30.044726,26.54151 C28.2281106,26.54151 27.0231166,26.5830637 25.4850812,24.1394182 L23.7950672,21.4203717 L20.3505978,15.878896 C20.0554798,16.354113 19.9582477,16.7709398 19.9582477,17.1864771 C19.9582477,18.7182333 20.5473432,20.145962 21.4489501,21.4203717 C22.0745433,22.3041764 22.8532557,23.1174831 23.6861444,23.8428105 C23.5569768,23.9009858 23.3305771,23.9224791 23.1198599,23.9224791 C22.7015622,23.9224791 22.4289701,23.8975468 22.2393532,23.8654502 C22.7109718,24.9406886 23.7229272,26.330589 24.2336097,27.0510446 C24.8996925,26.9309687 25.8677367,26.8366847 26.5027394,26.8366847 C27.1665411,26.8366847 27.2409622,27.2261434 27.2409622,27.5740484 C27.2409622,28.1801596 26.9589605,28.6661949 26.6307665,28.9352911 C26.5087273,28.6194828 26.2598017,28.2088174 25.0345629,28.2088174 C25.2692316,28.6148976 26.3915355,29.5270735 26.3915355,30.2618579 C26.3915355,30.7478932 25.8617488,31.4766596 25.1614494,31.4766596 C25.2030796,31.3196152 25.1970916,31.1743204 25.1970916,31.0671405 C25.1970916,30.4739252 24.6732928,29.7784019 24.2313286,29.2926531 C24.2441598,29.436515 24.2373165,29.4221861 24.2373165,29.5889742 C24.2373165,30.9954961 24.11043,31.641155 23.2227948,31.641155 C22.7879591,31.641155 22.4871383,31.4015763 22.3839182,31.3313648 C22.9598974,30.7954651 22.9892666,30.3773486 22.9892666,29.5878279 L22.9847044,28.9054871 C22.9835639,28.7269493 22.9869855,28.4873706 23.0143588,28.3134181 C22.6967148,28.2695718 22.5686878,28.2707181 22.3234689,28.2707181 C22.3234689,28.2707181 21.0614473,28.1695563 20.7580603,28.8304038 C20.4167499,28.5137358 19.9191837,28.0692542 19.9191837,27.576341 C19.9191837,27.2525086 20.0720178,26.8845432 20.7215626,26.8845432 C20.967922,26.8845432 21.741787,27.0355695 22.3899061,27.0355695 C22.2156867,26.6461108 21.4395405,25.5078253 20.7700361,24.6810495 C20.6679566,25.0025893 20.5105603,25.3504943 20.1584147,25.6316267 C20.1099412,25.1014585 19.7994257,23.4224015 18.9722398,22.4397276 C18.8764334,23.102008 18.7461252,23.7832024 18.7461252,25.2195284 C18.7461252,28.7126205 19.5827207,31.2921037 21.3565653,31.7864497 C21.1256034,32.1925299 20.6371617,32.5533309 20.1313265,32.5533309 C19.4820669,32.5533309 19.1287807,31.8136746 18.7675106,31.1192975 C18.5801748,31.6339906 18.0612233,32.8914922 17.5421292,32.8914922 C17.0219658,32.8914922 16.5029431,31.6339906 16.3168904,31.1192975 C15.9554777,31.8136746 15.6024054,32.5533309 14.9530031,32.5533309 C14.4458136,32.5533309 13.957657,32.1925299 13.7265525,31.7864497 C15.501609,31.2921037 16.3382045,28.7126205 16.3382045,25.2195284 C16.3382045,23.7832024 16.2078963,23.102008 16.111876,22.4397276 C15.2848327,23.4224015 14.9743172,25.1014585 14.926913,25.6316267 C14.5749812,25.3504943 14.4162305,25.0025893 14.3142936,24.6810495 C13.6436486,25.5078253 12.8698548,26.6461108 12.6944235,27.0355695 C13.3426852,27.0355695 14.1164077,26.8845432 14.3629096,26.8845432 C15.0122406,26.8845432 15.1651459,27.2525086 15.1651459,27.576341 C15.1651459,28.0692542 14.6674372,28.5137358 14.3249863,28.8304038 C14.0228111,28.1695563 12.7608607,28.2707181 12.7608607,28.2707181 C12.5155706,28.2707181 12.3875435,28.2695718 12.0699709,28.3134181 C12.0972729,28.4873706 12.1019776,28.7269493 12.0996253,28.9054871 L12.0948492,29.5878279 C12.0948492,30.3773486 12.1232917,30.7954651 12.701552,31.3313648 C12.5961221,31.4015763 12.2962993,31.641155 11.8614636,31.641155 C10.9738997,31.641155 10.8459439,30.9954961 10.8459439,29.5889742 C10.8459439,29.4221861 10.8400273,29.436515 10.8530724,29.2926531 C10.4110369,29.7784019 9.88730932,30.4739252 9.88730932,31.0671405 C9.88730932,31.1743204 9.8813927,31.3196152 9.92280903,31.4766596 C9.22372147,31.4766596 8.69286544,30.7478932 8.69286544,30.2618579 C8.69286544,29.5270735 9.81502678,28.6148976 10.1728752,28.2148355 C8.82438543,28.2088174 8.57553106,28.6194828 8.45228009,28.9352911 C8.12522658,28.6661949 7.84322492,28.1801596 7.84322492,27.5740484 C7.84322492,27.2261434 7.91671929,26.8366847 8.58030714,26.8366847 C9.21545245,26.8366847 10.1847085,26.9309687 10.8506487,27.0510446 C11.3614025,26.330589 12.3721461,24.9406886 12.8449765,23.8654502 C12.6553596,23.8975468 12.3828388,23.9224791 11.9633292,23.9224791 C11.7536101,23.9224791 11.5272816,23.9009858 11.3969022,23.8428105 C12.2311452,23.1174831 13.0096438,22.3041764 13.6353083,21.4180791 C14.5359172,20.1413767 15.1260107,18.7182333 15.1260107,17.1864771 C15.1260107,16.7709398 15.027638,16.354113 14.887849,15.9086284 L11.2891199,21.4203717 L9.59931974,24.1394182 C8.06128433,26.5830637 6.85614777,26.54151 5.03846308,26.54151 C6.53622271,25.3874628 7.54104969,23.8975468 8.01145643,23.144708 L9.08393245,21.4203717 L12.829579,15.3953683 C12.5688914,15.30961 12.3117681,15.2191232 12.06049,15.1214719 L8.14418826,21.4203717 L7.79703251,21.9777648 C6.26013765,24.4214103 5.05500109,24.3787103 3.23845696,24.3787103 C4.50161915,23.4043471 5.39624021,22.2207824 5.93429598,21.4109147 L6.21038104,20.9821949 L10.3505876,14.3234971 C10.1147783,14.1936776 9.88495691,14.0567652 9.66333325,13.9150527 L6.27075909,19.3719164 C5.55627407,20.5081958 4.91285975,21.1059963 4.24684821,21.4203717 C3.4801829,21.7848982 2.68272266,21.7740082 1.71104299,21.7740082 L2.14352634,21.4192254 C3.41267643,20.32364 4.25276482,19.0647054 4.68410762,18.3752002 L8.16314997,12.7776986 C7.95813561,12.5907068 7.76381393,12.4001328 7.58018494,12.2024661 L5.11423859,16.1694855 C3.57734373,18.6144923 2.37227846,18.5703594 0.55452249,18.5703594 C2.06418664,17.4057088 3.05126378,15.9360682 3.52758712,15.1702617 L6.39286951,10.5636732 C6.2388236,10.2778838 6.10723232,9.98485844 5.99945009,9.68474024 L4.56085664,12.0011454 C3.02282124,14.4461522 1.81768468,14.402091 5.27577981e-14,14.402091 C1.50367625,13.2445332 2.50023423,11.7617817 2.97420518,11.0032112 L5.78381435,6.48710951 C6.05633517,5.09011628 6.77559626,3.78597414 7.84914156,2.81655441 C7.48894073,2.67842409 7.18797738,2.53434731 7.00662949,2.39621699 C8.8421353,2.39621699 10.6586794,1.45889393 11.6600135,1.45889393 C12.3034278,1.45889393 12.7181613,1.84598837 12.7181613,2.3581022 C12.6743213,2.92617026 12.0924968,3.50491335 11.0153873,3.50491335 C10.771309,3.50491335 10.459653,3.47281668 10.117202,3.41686243 C9.5341657,4.23382298 9.06254712,4.97218968 9.06254712,6.02378547 C9.06254712,8.00202933 11.4170757,9.54424566 13.7917779,9.54424566 L14.1886902,9.52877047 C14.659097,7.92572808 15.660431,6.87535024 16.4603149,5.84875832 C15.501609,5.49741441 14.431628,4.58158466 14.431628,4.16712208 C14.5525266,4.09691062 16.3915253,4.67572534 16.5811422,4.72687941 C16.9271574,4.66017852 17.1143506,4.33269219 17.1143506,4.29930591 C16.9176766,4.26599129 15.7647203,4.11711433 14.9778815,3.82767114 C14.3783071,3.60736476 14.0749201,3.20837736 14.0749201,3.05713614 C14.2681012,3.02618578 14.9957026,3.41091595 16.0680361,3.41091595 C16.4638079,3.41091595 16.5396546,3.39544076 16.9330741,3.34657931 C16.656989,2.68444221 16.1379662,2.1258312 15.5537893,2.1258312 C15.3191919,2.1258312 14.8048739,2.2723439 14.3759548,2.49028601 C14.076132,2.02223346 13.8142325,1.40888616 13.8142325,1.07301744 C13.8142325,0.675247993 14.2040877,0.211995606 15.3037944,0.211995606 C15.611815,0.211995606 15.8985927,0.238217434 16.1652682,0.288225204 C16.3808327,0.329922219 16.56104,0.378783665 16.7541498,0.45372366 C16.7304121,0.161987879 16.8690605,-2.3501201e-13 17.3845191,-2.3501201e-13 C18.2899041,-2.3501201e-13 19.2177438,0.300118198 20.35516,0.300118198 C20.650278,0.300118198 20.8504451,0.288225234 21.0201023,0.215577859 C20.9465366,0.444194991 20.6266116,0.778845758 20.3352003,1.0515958 C20.5162631,1.29934198 20.98446,1.8983604 20.98446,2.86663382 C20.98446,4.42317902 19.9653761,5.70697417 19.9653761,7.27906619 C19.9653761,8.21395333 20.681073,9.03929627 20.8954969,9.52877048 L21.2912687,9.54424567 C23.6673252,9.54424567 26.0205707,8.00202934 26.0205707,6.02378549 C26.0205707,4.97218968 25.5500927,4.23382298 24.9669851,3.41686245 C24.6245341,3.4728167 24.3131632,3.50491336 24.0687998,3.50491336 C22.9918329,3.50491336 22.4087252,2.92617029 22.3673802,2.35810221 C22.3673802,1.84598838 22.77969,1.45889395 23.4243875,1.45889395 C24.4255077,1.45889395 26.2421231,2.39621701 28.0775576,2.39621701 C27.8950692,2.53434732 27.5953889,2.6784241 27.2338337,2.81655442 C28.3088047,3.78597415 29.0279232,5.0901163 29.3005153,6.48710952 L32.1099819,11.0032113 C32.582741,11.7617817 33.5807247,13.2445332 35.0842584,14.402091 C33.2665024,14.402091 32.0615084,14.4461523 30.5246136,12.0011454 L29.0838103,9.68474024 C28.9771686,9.98485844 28.8442942,10.2778838 28.6914601,10.5636732 L31.5553881,15.1702617 C32.0329946,15.9360682 33.0190025,17.4057088 34.5296646,18.5703594 C32.7119086,18.5703594 31.5069147,18.6144923 29.9700198,16.1694855 L27.5030042,12.2024661 C27.3205157,12.4001328 27.1249109,12.5907068 26.9198966,12.7776986 L30.4002933,18.3752002 C30.8314223,19.0647054 31.6717245,20.3247863 32.9408746,21.4192254 L33.3731441,21.7740083 C32.4016783,21.7740083 31.6041468,21.7834653 30.8374102,21.4203717 C30.1701868,21.1071426 29.5280556,20.5081958 28.8134993,19.3719164 L25.4209251,13.9150527 C25.1982322,14.0567652 24.9695513,14.1936776 24.7337421,14.3234971 L28.8739486,20.9821949 L29.1488218,21.4203717 L29.1488218,21.4203717 Z" id="Path" fill="#99DEE0" fill-rule="nonzero"></path>
                    <path d="M14.2876417,23.8976 C14.1898294,23.5200063 14.0943292,23.2433212 13.7204564,23.2433212 C13.5294561,23.2433212 13.4385804,23.2788316 13.3233216,23.3244032 C12.9203012,24.5074908 11.3665849,26.729553 11.121984,27.0701568 C10.4511009,26.954748 9.51354601,26.8304617 8.75416932,26.8304617 C8.57711222,26.8304617 8.33251137,26.8121147 8.33251137,27.2633925 C8.33251137,27.5252815 8.44202472,27.9815899 8.5759211,28.132805 C8.91020658,27.7158539 9.48558963,27.5915676 10.1983723,27.5915676 C10.4755539,27.5915676 10.8110305,27.6936599 10.9379904,27.7256193 C10.030634,28.6971242 9.17456608,29.5014343 9.17456608,30.0388248 C9.17456608,30.3400712 9.47045534,30.7374916 9.71855949,30.8703596 C9.71855949,30.0769985 10.4965738,28.9812072 11.2582626,28.3689491 C11.2582626,28.4772557 11.2943467,28.8927272 11.2943467,29.344005 C11.2943467,30.8407676 11.4341286,31.1372793 11.9792431,31.1372793 C12.0781764,31.1372793 12.2494181,31.0991057 12.3135286,31.0582687 C12.0200215,30.7031649 11.896565,30.2320605 11.896565,29.3428213 C11.896565,29.0871465 11.9035016,28.8459719 11.9035016,28.6370525 C11.9035016,28.2422954 11.8604109,27.9644266 11.8324545,27.7466296 C12.0420924,27.7158539 12.5149687,27.6445373 12.8632674,27.6445373 C13.6051275,27.6445373 14.0652518,27.7208846 14.4006583,28.0736211 C14.6417559,27.8806813 14.9108098,27.5166999 14.9108098,27.2657598 C14.9108098,26.9041458 14.6801521,26.8795844 14.4379335,26.8795844 C14.0616784,26.8795844 13.7531072,27.0370138 12.3274717,27.0370138 C12.6081566,26.1886115 13.4304527,24.9969422 14.2876417,23.8976 L14.2876417,23.8976 L14.2876417,23.8976 Z" id="Path" fill="#FFFFFF"></path>
                    <path d="M22.7573396,27.0370138 C21.3314063,27.0370138 21.0216645,26.8795844 20.6466107,26.8795844 C20.4052644,26.8795844 20.1734486,26.9041458 20.1734486,27.2657598 C20.1734486,27.5166999 20.4425455,27.8806813 20.6824902,28.0736211 C21.0180205,27.7208846 21.4794096,27.6445373 22.2213883,27.6445373 C22.5684112,27.6445373 23.0426945,27.7158539 23.2512446,27.7466296 C23.2232137,27.9644266 23.1811673,28.2422954 23.1811673,28.6370525 C23.1811673,28.8459719 23.188175,29.0871465 23.188175,29.3428213 C23.188175,30.2320605 23.0648389,30.7031649 22.7713551,31.0582687 C22.8352656,31.0991057 23.0065346,31.1372793 23.1054838,31.1372793 C23.6506853,31.1372793 23.7905597,30.8407676 23.7905597,29.344005 C23.7905597,28.8927272 23.8267196,28.4772557 23.8267196,28.3689491 C24.5886002,28.9812072 25.3653373,30.0769985 25.3653373,30.8703596 C25.6148125,30.7374916 25.9105388,30.3400712 25.9105388,30.0388248 C25.9105388,29.5014343 25.053353,28.6971242 24.1468328,27.7256193 C24.2740932,27.6936599 24.6093431,27.5915676 24.886569,27.5915676 C25.5996758,27.5915676 26.1751508,27.7158539 26.5092795,28.132805 C26.6432673,27.9815899 26.751747,27.5252815 26.751747,27.2633925 C26.751747,26.8121147 26.507037,26.8304617 26.3298815,26.8304617 C25.5716449,26.8304617 24.6326088,26.954748 23.9629499,27.0701568 C23.7182399,26.729553 22.1642052,24.5074908 21.7614007,23.3244032 C21.6459133,23.2788316 21.5550931,23.2433212 21.3639221,23.2433212 C20.9899895,23.2433212 20.8946843,23.5200063 20.7968564,23.8976 C21.6540423,24.9969423 22.4764697,26.1886116 22.7573396,27.0370138 L22.7573396,27.0370138 Z" id="Path" fill="#FFFFFF" fill-rule="nonzero"></path>
                    <path d="M27.6288535,6.50450411 C27.6288535,4.80011065 26.3434524,3.44873716 25.890751,3.06987261 L25.5655007,3.14186824 C26.0461647,3.70959705 26.8950534,4.65739743 26.8950534,5.9143388 C26.8950534,8.38696959 24.1856151,10.533916 21.0944123,10.575168 C21.1191372,10.8301347 21.1176655,11.0531508 21.1176655,11.2455651 C21.1176655,11.5996501 21.0920576,11.9454989 21.050555,12.2794904 C24.5588435,12.2204171 27.6288535,9.46811098 27.6288535,6.50450411 L27.6288535,6.50450411 Z" id="Path" fill="#FFFFFF" fill-rule="nonzero"></path>
                    <path d="M8.1808953,5.91324276 C8.1808953,4.65678572 9.0189229,3.70935055 9.49533286,3.14184049 L9.17372522,3.06987261 C8.72626794,3.44859118 7.45540491,4.79944395 7.45540491,6.50318066 C7.45540491,9.48686689 10.5353018,12.2570626 14.0337034,12.2794904 C13.9962395,11.9550672 13.9744158,11.6093516 13.9744158,11.2424148 C13.9744158,11.0123163 13.9853276,10.7882506 14.0058418,10.5746181 C10.9126325,10.5746181 8.1808953,8.40734865 8.1808953,5.91324276 L8.1808953,5.91324276 Z" id="Path" fill="#FFFFFF" fill-rule="nonzero"></path>
                    <path d="M17.5817358,3.50842584 C17.7516073,3.16335221 17.9806824,2.75069822 17.9806824,2.29563411 C17.9806824,1.03925994 16.8111613,0.43855323 15.2443187,0.43855323 C14.4402342,0.43855323 14.0337034,0.67018838 14.0337034,0.903961288 C14.0337034,1.13552748 14.2987649,1.64679363 14.4029321,1.80498686 C14.6923716,1.69147944 15.21344,1.55507742 15.5157262,1.55507742 C16.5899026,1.55507742 17.3939871,2.62691582 17.5817358,3.50842584 L17.5817358,3.50842584 Z" id="Path" fill="#FFFFFF" fill-rule="nonzero"></path>
                    <path d="M17.9005958,2.17614409 C18.7064637,2.33646348 19.2575311,1.28890465 18.49122,1.10200416 C18.5976142,1.44700317 18.0806475,1.69268743 18.0806475,1.69268743 C18.0806475,1.69268743 17.8845003,1.22665075 18.1373911,0.962436069 C17.6703479,0.730562864 17.5511318,1.01316918 17.5421292,1.30965595 C17.7260002,1.55887973 17.8471259,1.85189638 17.9005958,2.17614409 L17.9005958,2.17614409 L17.9005958,2.17614409 Z" id="Path" fill="#FFFFFF"></path>
                </g>
                <g id="Group-15" transform="translate(6.000000, 62.000000)">
                    <mask id="mask-2" fill="white">
                        <use xlink:href="#path-1"></use>
                    </mask>
                    <rect stroke="#1B1B1B" stroke-width="1.2" x="0.6" y="1.4" width="36.8" height="38.8" rx="3.2"></rect>
                    <g id="icon_baby_l" mask="url(#mask-2)">
                        <g transform="translate(14.282878, 5.000000)">
                            <g id="Group-Copy" transform="translate(0.000000, 1.116625)">
                                <circle id="Oval-Copy" stroke="#242424" stroke-width="1.5" cx="2.8816137" cy="8.2846394" r="2.1316137"></circle>
                                <circle id="Oval-Copy-2" stroke="#242424" stroke-width="1.5" cx="19.4508925" cy="8.2846394" r="2.1316137"></circle>
                                <path d="M12.2115484,16.5039655 C12.3761399,16.4832439 12.539228,16.4576935 12.7006665,16.4274607 M14.3047802,15.954127 C17.3240757,14.7172679 19.4508925,11.749326 19.4508925,8.2846394 C19.4508925,3.7091594 15.7417331,0 11.1662531,0 C6.5907731,0 2.8816137,3.7091594 2.8816137,8.2846394 C2.8816137,12.2697871 5.69539947,15.59774 9.44462527,16.3901523" id="Shape" stroke="#242424" stroke-width="1.5" fill="#FFFFFF" stroke-linecap="round" stroke-linejoin="round"></path>
                                <circle id="Oval-Copy-6" stroke="#242424" stroke-width="0.75" fill="#1B1B1B" cx="8.2846394" cy="6.92443769" r="1"></circle>
                                <circle id="Oval-Copy-7" stroke="#242424" stroke-width="0.75" fill="#1B1B1B" cx="14.0478668" cy="6.92443769" r="1"></circle>
                                <circle id="Oval-Copy-4" stroke="#242424" stroke-width="1.5" fill="#66CED1" cx="12.9672617" cy="12.2468582" r="2.16121028"></circle>
                                <circle id="Oval-Copy-5" stroke="#242424" stroke-width="1.5" fill="#66CED1" cx="9.36524454" cy="12.2468582" r="2.16121028"></circle>
                                <circle id="Oval-Copy-3" stroke="#242424" stroke-width="1.5" fill="#66CED1" cx="11.1662531" cy="12.2468582" r="1.80100856"></circle>
                            </g>
                            <g id="Group-4" transform="translate(3.002481, 0.000000)">
                                <path d="M1.10735662,5.13817276 C-0.272137504,4.77943588 -0.371925457,1.2344176 1.10735662,0.473719829 C2.58663869,-0.286977945 7.13157104,0.794680826 7.13157104,2.0403143 C7.13157104,3.28594777 2.48685074,5.49690963 1.10735662,5.13817276 Z" id="Path-3" stroke="#242424" stroke-width="1.5" fill="#CCEFF0"></path>
                                <path d="M9.9518053,5.13817276 C8.54307585,4.77183325 8.40551952,1.26887321 9.9518053,0.473719829 C11.4980911,-0.321433553 15.9760197,0.783713107 15.9760197,2.0403143 C15.9760197,3.29691549 11.3605347,5.50451227 9.9518053,5.13817276 Z" id="Path-3-Copy" stroke="#242424" stroke-width="1.5" fill="#CCEFF0" transform="translate(12.409547, 2.691961) scale(-1, 1) translate(-12.409547, -2.691961) "></path>
                                <circle id="Oval" stroke="#242424" stroke-width="1.5" fill="#CCEFF0" cx="7.89563528" cy="1.89487931" r="1.14487931"></circle>
                            </g>
                        </g>
                    </g>
                    <g id="icon_baby_m" mask="url(#mask-2)">
                        <g transform="translate(2.000000, 20.632754)">
                            <circle id="Oval-Copy" stroke="#242424" stroke-width="1.5" fill="none" cx="2.8816137" cy="8.2846394" r="2.1316137"></circle>
                            <path d="M20.8589787,11.8658268 C20.0258812,13.9439009 18.3751543,15.605995 16.3047802,16.454127 L16.3047802,16.454127 L11.4446253,16.8901523 C8.69519302,16.3090499 6.44881963,14.3643902 5.446269,11.796937 L5.38156446,11.6230384 C5.21918414,11.6514428 5.05212849,11.6662531 4.8816137,11.6662531 C3.2901424,11.6662531 2,10.3761107 2,8.7846394 C2,7.19316809 3.2901424,5.90302569 4.8816137,5.90302569 C5.05178191,5.90302569 5.21850503,5.91777586 5.38057427,5.94606739 C6.53918705,2.76882876 9.5877634,0.5 13.1662531,0.5 C16.7447428,0.5 19.7933192,2.76882876 20.9519738,5.94647795 C21.1140012,5.91777586 21.2807243,5.90302569 21.4508925,5.90302569 C23.0423638,5.90302569 24.3325062,7.19316809 24.3325062,8.7846394 C24.3325062,10.3761107 23.0423638,11.6662531 21.4508925,11.6662531 C21.2803777,11.6662531 21.1133221,11.6514428 20.9509417,11.6230384 Z" id="Combined-Shape" stroke="none" fill-opacity="0.1" fill="#000000" fill-rule="evenodd"></path>
                            <circle id="Oval-Copy-2" stroke="#242424" stroke-width="1.5" fill="#FFFFFF" fill-rule="evenodd" cx="19.4508925" cy="8.2846394" r="2.1316137"></circle>
                            <path d="M12.2115484,16.5039655 C12.3761399,16.4832439 12.539228,16.4576935 12.7006665,16.4274607 M14.3047802,15.954127 C17.3240757,14.7172679 19.4508925,11.749326 19.4508925,8.2846394 C19.4508925,3.7091594 15.7417331,0 11.1662531,0 C6.5907731,0 2.8816137,3.7091594 2.8816137,8.2846394 C2.8816137,12.2697871 5.69539947,15.59774 9.44462527,16.3901523" id="Shape" stroke="#242424" stroke-width="1.5" fill="#FFFFFF" fill-rule="evenodd" stroke-linecap="round" stroke-linejoin="round"></path>
                            <path d="M11.1662531,0.360201713 C12.0416854,0.360201713 12.8839824,0.502074862 13.6712704,0.764275855 C13.6323578,1.33692058 13.4489232,1.83756454 13.1585805,2.23663888 C12.8168781,2.70630688 12.3281414,3.03328879 11.7650557,3.17036817 C11.4579124,3.61363643 11.3627561,3.77219255 11.2302263,3.89260984 C11.1786673,3.93945671 11.1214192,3.98049785 11.0594044,4.01455172 L11.056,4.015 L11.0675718,3.99928876 C11.0953012,3.95296232 11.1207478,3.90520656 11.1437817,3.85619398 L11.2055156,3.70555835 C10.2650901,3.16164898 9.69821696,2.85786629 9.29192459,2.40680191 C8.9324459,2.00770992 8.69876433,1.49315737 8.65319389,0.925570991 C9.44502652,0.501892002 10.2893656,0.360201713 11.1662531,0.360201713 Z" id="Combined-Shape" stroke="#242424" stroke-width="0.720403426" fill="#242424" fill-rule="evenodd"></path>
                            <circle id="Oval-Copy-6" stroke="#242424" stroke-width="0.75" fill="#1B1B1B" fill-rule="evenodd" cx="8.2846394" cy="6.92443769" r="1"></circle>
                            <circle id="Oval-Copy-7" stroke="#242424" stroke-width="0.75" fill="#1B1B1B" fill-rule="evenodd" cx="14.0478668" cy="6.92443769" r="1"></circle>
                            <circle id="Oval-Copy-4" stroke="#242424" stroke-width="1.5" fill="#66CED1" fill-rule="evenodd" cx="12.9672617" cy="12.2468582" r="2.16121028"></circle>
                            <circle id="Oval-Copy-5" stroke="#242424" stroke-width="1.5" fill="#66CED1" fill-rule="evenodd" cx="9.36524454" cy="12.2468582" r="2.16121028"></circle>
                            <circle id="Oval-Copy-3" stroke="#242424" stroke-width="1.5" fill="#66CED1" fill-rule="evenodd" cx="11.1662531" cy="12.2468582" r="1.80100856"></circle>
                        </g>
                    </g>
                </g>
            </g>
            <g id="Group-16" transform="translate(48.000000, 14.000000)">
                <g id="Group" transform="translate(0.000000, 4.000000)" fill="#000000" fill-opacity="0.2">
                    <path d="M2.30926389e-13,10.4255284 L43.2684259,0.182888548 C48.0441524,-0.677636596 49.9251068,1.44904339 49.9251068,7.61513537 L49.9260484,11.5580244 C52.5434741,12.6520917 54.3827056,15.2367718 54.3827056,18.2510274 L54.3827056,79.8847605 C54.3827056,83.8893923 51.1363101,87.1357879 47.1316782,87.1357879 L-1.10134124e-13,87.1357879 L2.30926389e-13,10.4255284 Z" id="Combined-Shape"></path>
                </g>
                <g id="icon_passport_hp" transform="translate(4.000000, 0.000000)">
                    <path d="M49.9251068,46.1190077 L49.9251068,74.0480927 C49.9251068,79.0230945 46.9448092,82.3506247 43.2684259,81.4803396 L0,81.3730616 L0,10.4255284 L43.2684259,0.182888548 C48.0441524,-0.677636596 49.9251068,1.44904339 49.9251068,7.61513537" id="Path" stroke="#242424" stroke-width="1.5" fill="#008A8E" stroke-linecap="round"></path>
                    <path d="M50,53.9850434 L50,79.0116512 C50,84.6194406 47.0152317,88.3702109 43.3333333,87.3892311 L0,87.0565153 L0,17.7515873 L43.3333333,6.20615077 C48.1162239,5.23617247 50,7.63335222 50,14.5837307" id="Path" fill-opacity="0.2" fill="#000000"></path>
                    <line x1="49.9251068" y1="36.9506471" x2="49.9251068" y2="40.8549313" id="Path" stroke="#242424" stroke-width="1.5" fill="#D4D2D2" stroke-linecap="round"></line>
                    <path d="M54.3827056,49.2447519 L54.3827056,79.8847605 C54.3827056,83.8893923 51.1363101,87.1357879 47.1316782,87.1357879 L0,87.1357879 L0,11 L47.1316782,11 C51.1363101,11 54.3827056,14.2463956 54.3827056,18.2510274 L54.3827056,31.0192714 L54.3827056,36.457542" id="Path" stroke="#242424" stroke-width="1.5" fill="#CCEFF0" stroke-linecap="round"></path>
                    <g id="Bundesadler_Bundesorgane" transform="translate(14.000000, 37.000000)">
                        <path d="M21.5917199,15.866942 C21.9911246,16.4598388 22.6528564,17.3365534 23.590433,18.0583039 C22.2439471,18.0583039 21.3511477,18.0899336 20.2118623,16.2798258 L19.9556603,15.866942 L17.0546432,11.2010903 C16.8677193,11.2734246 16.6780496,11.3404518 16.4850005,11.4039765 L19.2595007,15.866942 L20.0538746,17.1442281 C20.4023768,17.7018865 21.1466931,18.805528 22.2553526,19.6603778 C20.9097116,19.6603778 20.0171234,19.6911583 18.8778379,17.8810505 L17.6259757,15.866942 L15.0745169,11.7621452 C14.855911,12.1141578 14.7838872,12.4229184 14.7838872,12.7307238 C14.7838872,13.865358 15.2202542,14.9229348 15.8881112,15.866942 C16.3515136,16.5216122 16.9283376,17.1240616 17.5452921,17.6613411 C17.4496124,17.7044339 17.2819089,17.7203549 17.1258222,17.7203549 C16.815972,17.7203549 16.6140519,17.7018865 16.473595,17.6781112 C16.8229421,18.4745842 17.5725387,19.50414 17.950822,20.0378108 C18.4442167,19.9488657 19.1612864,19.8790257 19.6316588,19.8790257 C20.1233638,19.8790257 20.1784905,20.1675137 20.1784905,20.425221 C20.1784905,20.8741923 19.9696004,21.2342185 19.7264937,21.433549 C19.6360943,21.1996169 19.451705,20.8954203 18.5441207,20.8954203 C18.7179493,21.1962204 19.5492856,21.8719063 19.5492856,22.4161911 C19.5492856,22.7762172 19.1568509,23.3160441 18.6381106,23.3160441 C18.6689478,23.1997149 18.6645123,23.0920892 18.6645123,23.0126966 C18.6645123,22.5732779 18.2765132,22.0580754 17.9491323,21.6982616 C17.9586369,21.8048259 17.9535678,21.794212 17.9535678,21.9177587 C17.9535678,22.9596268 17.8595778,23.4378926 17.2020702,23.4378926 C16.8799697,23.4378926 16.6571395,23.2604269 16.5806802,23.2084184 C17.0073314,22.8114556 17.0290864,22.5017397 17.0290864,21.9169095 L17.025707,21.4114719 C17.0248621,21.2792217 17.0273967,21.101756 17.0476732,20.9729023 C16.8123814,20.9404236 16.7175465,20.9412727 16.5359029,20.9412727 C16.5359029,20.9412727 15.6010721,20.866338 15.3763409,21.3558547 C15.1235184,21.1212857 14.7549509,20.7920401 14.7549509,20.4269193 C14.7549509,20.1870434 14.8681613,19.9144764 15.3493056,19.9144764 C15.5317941,19.9144764 16.1050274,20.0263478 16.5851157,20.0263478 C16.4560642,19.7378598 15.8811411,18.8946854 15.3852119,18.2822589 C15.3095975,18.5204365 15.1930076,18.7781439 14.932159,18.9863902 C14.8962527,18.593673 14.6662412,17.349927 14.053511,16.6220204 C13.9825432,17.1125985 13.8860187,17.617187 13.8860187,18.6811322 C13.8860187,21.2686077 14.505719,23.1793361 15.819678,23.5455183 C15.6485951,23.8463185 15.2867864,24.1135784 14.9120937,24.1135784 C14.4311607,24.1135784 14.1694672,23.5656849 13.9018597,23.0513315 C13.7630924,23.4325856 13.3786839,24.3640683 12.9941698,24.3640683 C12.6088636,24.3640683 12.2244023,23.4325856 12.0865855,23.0513315 C11.8188724,23.5656849 11.5573373,24.1135784 11.0762986,24.1135784 C10.7006026,24.1135784 10.3390052,23.8463185 10.1678167,23.5455183 C11.4826733,23.1793361 12.1023737,21.2686077 12.1023737,18.6811322 C12.1023737,17.617187 12.0058491,17.1125985 11.934723,16.6220204 C11.3220983,17.349927 11.0920868,18.593673 11.0569726,18.9863902 C10.7962824,18.7781439 10.6786893,18.5204365 10.6031804,18.2822589 C10.1064063,18.8946854 9.53322577,19.7378598 9.40327669,20.0263478 C9.88347052,20.0263478 10.4565983,19.9144764 10.6391923,19.9144764 C11.1201782,19.9144764 11.2334414,20.1870434 11.2334414,20.4269193 C11.2334414,20.7920401 10.8647683,21.1212857 10.6111009,21.3558547 C10.3872675,20.866338 9.45248942,20.9412727 9.45248942,20.9412727 C9.27079303,20.9412727 9.17595818,20.9404236 8.94071917,20.9729023 C8.96094286,21.101756 8.96442789,21.2792217 8.96268537,21.4114719 L8.95914755,21.9169095 C8.95914755,22.5017397 8.98021609,22.8114556 9.40855702,23.2084184 C9.33046084,23.2604269 9.10836987,23.4378926 8.78626933,23.4378926 C8.12881459,23.4378926 8.03403253,22.9596268 8.03403253,21.9177587 C8.03403253,21.794212 8.02964986,21.8048259 8.03931287,21.6982616 C7.71187918,22.0580754 7.32393283,22.5732779 7.32393283,23.0126966 C7.32393283,23.0920892 7.31955015,23.1997149 7.35022891,23.3160441 C6.83238627,23.3160441 6.43915958,22.7762172 6.43915958,22.4161911 C6.43915958,21.8719063 7.27039021,21.1962204 7.53546312,20.8998781 C6.5365818,20.8954203 6.35224523,21.1996169 6.26094822,21.433549 C6.01868636,21.2342185 5.80979623,20.8741923 5.80979623,20.425221 C5.80979623,20.1675137 5.86423651,19.8790257 6.35578306,19.8790257 C6.82626107,19.8790257 7.54422848,19.9488657 8.03751755,20.0378108 C8.41585369,19.50414 9.16455265,18.4745842 9.51479739,17.6781112 C9.37434043,17.7018865 9.17247316,17.7203549 8.86172533,17.7203549 C8.70637782,17.7203549 8.53872712,17.7044339 8.44214976,17.6613411 C9.06010759,17.1240616 9.63677317,16.5216122 10.1002283,15.8652438 C10.7673461,14.9195383 11.2044524,13.865358 11.2044524,12.7307238 C11.2044524,12.4229184 11.1315837,12.1141578 11.0280363,11.7841692 L8.36231106,15.866942 L7.11060721,17.8810505 C5.97132172,19.6911583 5.07862797,19.6603778 3.73219488,19.6603778 C4.84164645,18.805528 5.58596274,17.7018865 5.93441217,17.1442281 L6.72883885,15.866942 L9.50339186,11.4039765 C9.31028994,11.3404518 9.11982819,11.2734246 8.93369631,11.2010903 L6.03273204,15.866942 L5.77557964,16.2798258 C4.637139,18.0899336 3.74444525,18.0583039 2.39885701,18.0583039 C3.33453271,17.3365534 3.99721497,16.4598388 4.3957748,15.8599368 L4.60028225,15.5423666 L7.6671019,10.6099979 C7.49242836,10.5138352 7.3221903,10.4124187 7.15802463,10.3074464 L4.64500674,14.3495677 C4.11575857,15.1912562 3.63915537,15.6340713 3.14581349,15.866942 C2.57791326,16.1369616 1.98720197,16.128895 1.26743925,16.128895 L1.58779729,15.8660929 C2.52790846,15.0545481 3.15019616,14.122004 3.46970935,13.6112594 L6.04677776,9.4649619 C5.89491527,9.32644948 5.75097328,9.18528358 5.61495181,9.03886374 L3.78832488,11.9773967 C2.64988425,13.7885128 1.7572433,13.7558218 0.4107574,13.7558218 C1.52902714,12.8931176 2.26019539,11.804495 2.6130275,11.2372309 L4.7354589,7.82494308 C4.62135082,7.61324729 4.5238758,7.39619144 4.44403711,7.17388166 L3.37841232,8.88973736 C2.23912685,10.7008535 1.3464331,10.6682155 0,10.6682155 C1.11383426,9.8107653 1.85202536,8.71243086 2.20311495,8.15052685 L4.28430693,4.8052663 C4.4861742,3.77045651 5.01896019,2.80442529 5.81417893,2.0863366 C5.5473635,1.98401784 5.32442769,1.8772943 5.19009592,1.77497555 C6.54972986,1.77497555 7.8953181,1.08066217 8.63704702,1.08066217 C9.11365023,1.08066217 9.42086022,1.36739879 9.42086022,1.74674237 C9.38838615,2.16753353 8.95740506,2.59623211 8.15954616,2.59623211 C7.97874742,2.59623211 7.7478911,2.5724568 7.49422371,2.53100921 C7.06234496,3.13616517 6.71299787,3.68310347 6.71299787,4.46206331 C6.71299787,5.92742913 8.45709314,7.0698116 10.2161318,7.0698116 L10.5101409,7.0583485 C10.8585903,5.87090969 11.6003193,5.09285203 12.1928259,4.33241357 C11.4826734,4.07215882 10.6900948,3.39376641 10.6900948,3.0867571 C10.7796493,3.03474861 12.1418706,3.46350025 12.2823276,3.50139215 C12.5386351,3.45198409 12.6772968,3.20940162 12.6772968,3.18467105 C12.5316123,3.15999355 11.6775706,3.04971432 11.094727,2.83531195 C10.6505979,2.67212205 10.4258667,2.37657582 10.4258667,2.26454529 C10.5689639,2.24161909 11.1079279,2.5266044 11.9022489,2.5266044 C12.1954132,2.5266044 12.251596,2.5151413 12.5430178,2.47894764 C12.3385104,1.98847571 11.954049,1.57468978 11.5213254,1.57468978 C11.3475496,1.57468978 10.9665733,1.68321771 10.6488554,1.84465631 C10.4267644,1.49795071 10.2327648,1.04361938 10.2327648,0.794827731 C10.2327648,0.500183699 10.5215465,0.157033782 11.336144,0.157033782 C11.5643074,0.157033782 11.7767353,0.176457358 11.9742727,0.213500151 C12.1339501,0.244386829 12.267437,0.280580493 12.4104814,0.3360916 C12.3928978,0.119991022 12.4956004,0 12.8774215,0 C13.5480771,0 14.2353658,0.222309776 15.0778963,0.222309776 C15.2965023,0.222309776 15.4447741,0.213500173 15.5704461,0.159687303 C15.5159531,0.329033327 15.2789715,0.576922783 15.0631114,0.778959855 C15.1972319,0.96247554 15.5440444,1.40619289 15.5440444,2.12343246 C15.5440444,3.2764289 14.7891675,4.22738828 14.7891675,5.39190088 C14.7891675,6.08440988 15.3193133,6.69577501 15.4781458,7.05834851 L15.7713101,7.06981161 C17.531352,7.06981161 19.2744968,5.92742914 19.2744968,4.46206332 C19.2744968,3.68310347 18.9259946,3.13616517 18.494063,2.53100922 C18.2403957,2.57245681 18.0097505,2.59623212 17.8287406,2.59623212 C17.0309873,2.59623212 16.5990557,2.16753355 16.5684298,1.74674238 C16.5684298,1.3673988 16.8738445,1.08066218 17.3513981,1.08066218 C18.0929687,1.08066218 19.4386097,1.77497556 20.7981908,1.77497556 C20.6630142,1.87729431 20.4410288,1.98401785 20.1732102,2.08633661 C20.969485,2.8044253 21.5021653,3.77045652 21.7040854,4.80526631 L23.7851718,8.15052686 C24.1353637,8.71243087 24.8746109,9.81076532 25.9883395,10.6682155 C24.6418536,10.6682155 23.7492655,10.7008535 22.6108249,8.88973736 L21.5435632,7.17388166 C21.4645693,7.39619144 21.3661439,7.61324729 21.2529334,7.82494308 L23.3743616,11.2372309 C23.7281442,11.804495 24.4585203,12.8931176 25.5775293,13.7558218 C24.2310434,13.7558218 23.3384553,13.7885128 22.2000147,11.9773967 L20.3725957,9.03886376 C20.2374191,9.18528359 20.0925266,9.32644949 19.9406641,9.46496191 L22.5187358,13.6112594 C22.8380906,14.122004 23.4605367,15.0553973 24.4006479,15.8660929 L24.7208475,16.128895 C24.0012432,16.128895 23.4104791,16.1359002 22.8425261,15.866942 C22.3482865,15.6349205 21.8726338,15.1912562 21.3433328,14.3495677 L18.8303149,10.3074464 C18.6653572,10.4124187 18.495964,10.5138352 18.3212904,10.6099979 L21.3881101,15.5423666 L21.5917199,15.866942 L21.5917199,15.866942 Z" id="Path" fill="#66CED1" fill-rule="nonzero"></path>
                        <path d="M10.5834383,17.7019259 C10.5109847,17.4222269 10.4402439,17.2172749 10.163301,17.2172749 C10.0218194,17.2172749 9.95450397,17.2435789 9.8691271,17.2773357 C9.5705935,18.1536969 8.41969249,19.7996689 8.23850668,20.051968 C7.74155619,19.96648 7.04707112,19.8744161 6.48456987,19.8744161 C6.35341646,19.8744161 6.17223064,19.8608257 6.17223064,20.1951055 C6.17223064,20.3890974 6.25335165,20.7271037 6.35253415,20.8391148 C6.60015302,20.5302622 7.02636269,20.4381982 7.55434987,20.4381982 C7.75966957,20.4381982 8.00817078,20.5138222 8.10221509,20.5374958 C7.43009927,21.257129 6.79597488,21.8529143 6.79597488,22.2509813 C6.79597488,22.4741268 7.0151521,22.7685123 7.19893296,22.866933 C7.19893296,22.2792581 7.77523982,21.4675609 8.3394538,21.0140363 C8.3394538,21.0942635 8.36618273,21.4020202 8.36618273,21.7363 C8.36618273,22.8450131 8.46972489,23.0646513 8.87351338,23.0646513 C8.94679736,23.0646513 9.073643,23.0363746 9.12113226,23.006125 C8.90371966,22.7430851 8.8122704,22.3941189 8.8122704,21.7354232 C8.8122704,21.5460345 8.81740857,21.3673866 8.81740857,21.2126314 C8.81740857,20.9202188 8.78548956,20.7143901 8.76478113,20.553059 C8.92006842,20.5302622 9.27034716,20.477435 9.52834621,20.477435 C10.0778723,20.477435 10.418705,20.5339886 10.6671543,20.7952749 C10.8457451,20.6523565 11.0450443,20.3827407 11.0450443,20.1968591 C11.0450443,19.9289969 10.8741868,19.9108033 10.6947656,19.9108033 C10.4160581,19.9108033 10.1874868,20.0274176 9.13146053,20.0274176 C9.33937529,19.3989715 9.94848348,18.5162535 10.5834383,17.7019259 L10.5834383,17.7019259 L10.5834383,17.7019259 Z" id="Path" fill="#FFFFFF"></path>
                        <path d="M16.8572886,20.0274176 C15.8010417,20.0274176 15.5716033,19.9108033 15.2937857,19.9108033 C15.1150106,19.9108033 14.9432952,19.9289969 14.9432952,20.1968591 C14.9432952,20.3827407 15.1426263,20.6523565 15.3203631,20.7952749 C15.568904,20.5339886 15.9106738,20.477435 16.4602876,20.477435 C16.7173416,20.477435 17.0686626,20.5302622 17.2231442,20.553059 C17.2023805,20.7143901 17.171235,20.9202188 17.171235,21.2126314 C17.171235,21.3673866 17.1764259,21.5460345 17.1764259,21.7354232 C17.1764259,22.3941189 17.0850659,22.7430851 16.8676704,23.006125 C16.9150116,23.0363746 17.0418775,23.0646513 17.1151732,23.0646513 C17.5190262,23.0646513 17.6226368,22.845013 17.6226368,21.7363 C17.6226368,21.4020202 17.6494219,21.0942635 17.6494219,21.0140363 C18.213778,21.4675609 18.7891387,22.2792581 18.7891387,22.866933 C18.9739352,22.7685123 19.1929917,22.4741268 19.1929917,22.2509813 C19.1929917,21.8529143 18.5580393,21.257129 17.8865428,20.5374958 C17.9808098,20.5138222 18.229143,20.4381982 18.4344956,20.4381982 C18.9627228,20.4381982 19.3890006,20.5302622 19.6365033,20.8391148 C19.7357536,20.7271037 19.8161089,20.3890974 19.8161089,20.1951055 C19.8161089,19.8608257 19.6348422,19.8744161 19.503616,19.8744161 C18.9419592,19.8744161 18.2463769,19.96648 17.7503332,20.051968 C17.5690666,19.7996689 16.4179297,18.1536969 16.1195561,17.2773357 C16.0340098,17.2435789 15.9667356,17.2172749 15.8251275,17.2172749 C15.5481404,17.2172749 15.477544,17.4222269 15.4050788,17.7019259 C16.0400313,18.5162536 16.6492368,19.3989715 16.8572886,20.0274176 L16.8572886,20.0274176 Z" id="Path" fill="#FFFFFF" fill-rule="nonzero"></path>
                        <path d="M20.4658174,4.81815119 C20.4658174,3.55563752 19.5136684,2.55462012 19.1783341,2.27397971 L18.9374079,2.3273098 C19.2934554,2.74784967 19.9222618,3.44992403 19.9222618,4.3809917 C19.9222618,6.21257006 17.9152704,7.80290077 15.6254906,7.83345775 C15.6438054,8.02232202 15.6427152,8.18751908 15.6427152,8.33004822 C15.6427152,8.5923334 15.6237463,8.8485177 15.5930037,9.09591884 C18.1917359,9.05216081 20.4658174,7.01341554 20.4658174,4.81815119 L20.4658174,4.81815119 Z" id="Path" fill="#FFFFFF" fill-rule="nonzero"></path>
                        <path d="M6.05992244,4.38017982 C6.05992244,3.44947091 6.68068363,2.74766707 7.0335799,2.32728925 L6.79535201,2.27397971 C6.46390218,2.55451198 5.52252215,3.55514367 5.52252215,4.81717086 C5.52252215,7.0273088 7.80392729,9.07930561 10.3953358,9.09591884 C10.3675848,8.85560531 10.3514191,8.59951972 10.3514191,8.32771466 C10.3514191,8.15727133 10.359502,7.99129675 10.3746977,7.83305047 C8.08343148,7.83305047 6.05992244,6.22766566 6.05992244,4.38017982 L6.05992244,4.38017982 Z" id="Path" fill="#FFFFFF" fill-rule="nonzero"></path>
                        <path d="M13.023508,2.59883395 C13.1493388,2.34322386 13.319024,2.03755424 13.319024,1.70046971 C13.319024,0.769822176 12.4527121,0.324854244 11.2920879,0.324854244 C10.6964698,0.324854244 10.3953358,0.496435837 10.3953358,0.669600954 C10.3953358,0.841131464 10.5916777,1.21984714 10.6688386,1.3370273 C10.8832382,1.25294773 11.2692148,1.1519092 11.4931305,1.1519092 C12.2888168,1.1519092 12.8844349,1.94586357 13.023508,2.59883395 L13.023508,2.59883395 Z" id="Path" fill="#FFFFFF" fill-rule="nonzero"></path>
                        <path d="M13.2597006,1.61195858 C13.8566398,1.73071369 14.2648378,0.954744184 13.6972,0.816299381 C13.7760105,1.0718542 13.3930722,1.25384254 13.3930722,1.25384254 C13.3930722,1.25384254 13.247778,0.908630187 13.4351045,0.712915607 C13.0891466,0.541157677 13.0008384,0.750495686 12.9941698,0.970115517 C13.1303705,1.15472573 13.2200933,1.3717751 13.2597006,1.61195858 L13.2597006,1.61195858 L13.2597006,1.61195858 Z" id="Path" fill="#FFFFFF"></path>
                    </g>
                    <line x1="54.3827056" y1="41.7857982" x2="54.3827056" y2="44.9285551" id="Path" stroke="#242424" stroke-width="1.5" fill="#F2F2F2" stroke-linecap="round"></line>
                    <rect id="Rectangle" fill="#242424" x="12.689298" y="20.0116512" width="29.0041097" height="2" rx="1"></rect>
                    <rect id="Rectangle-Copy" fill="#242424" x="15.1913528" y="24.0116512" width="24" height="2" rx="1"></rect>
                    <rect id="Rectangle-Copy-2" fill="#242424" x="12.689298" y="77.0116512" width="29.0041097" height="2" rx="1"></rect>
                </g>
            </g>
        </g>
    </g>
</svg>