<svg xmlns="http://www.w3.org/2000/svg" width="208" height="166" viewBox="0 0 208 166">
  <g fill="none" fill-rule="evenodd" transform="translate(66 43)">
    <path fill="#F8F8F8" d="M40,5.46571335e-15 L65.3846154,23.8461538 L66.7179487,56.9874209 C65.6794203,61.4573454 63.4049692,63.6923077 59.8945955,63.6923077 C56.3842217,63.6923077 43.4620916,63.6923077 21.1282051,63.6923077 C16.4102564,63.0632479 14.0512821,60.7042735 14.0512821,56.6153846 C14.0512821,52.5264957 14.0512821,41.6034188 14.0512821,23.8461538 L40,5.46571335e-15 Z"/>
    <path stroke="#242424" stroke-width="1.5" d="M65.9487179,53.453716 L65.9487179,56.6153846 C65.9487179,60.5238613 62.7802716,63.6923077 58.8717949,63.6923077 L21.1282051,63.6923077 C17.2197284,63.6923077 14.0512821,60.5238613 14.0512821,56.6153846 L14.0512821,24.3552669"/>
    <path fill="#DEDEDE" d="M16.3076923,79.4065934 C24.5128205,72.2355444 28.6153846,65.9638159 28.6153846,60.5914079 C28.6153846,52.5327958 23.1050431,46 16.3076923,46 C9.51034154,46 4,52.5327958 4,60.5914079 C4,65.9638159 8.1025641,72.2355444 16.3076923,79.4065934 Z" style="mix-blend-mode:darken"/>
    <line x1="65.385" x2="65.949" y1="23.846" y2="41.045" fill="#FFF" stroke="#242424" stroke-width="2"/>
    <line x1="65.949" x2="65.949" y1="45.571" y2="48.944" stroke="#242424" stroke-linecap="round" stroke-linejoin="round" stroke-width="2"/>
    <polyline stroke="#242424" stroke-linecap="round" stroke-linejoin="round" stroke-width="1.5" points="4.615 33.026 40 0 75.385 33.026"/>
    <rect width="19.731" height="25.5" x="28.955" y="38.25" fill="#FFE2D4" stroke="#242424" stroke-width="1.5" rx="3.077"/>
    <rect width="15.013" height="25.5" x="33.673" y="38.25" fill="#FF5300" stroke="#242424" stroke-width="1.5" rx="3.077"/>
    <path fill="#FFC9AE" stroke="#242424" stroke-width="1.25" d="M12.3076923,46.7788462 C9.09190683,46.7788462 6.18757222,48.3349684 4.08258324,50.8305421 C1.94231753,53.3679381 0.625,56.8749629 0.625,60.745254 C0.625,65.9097763 4.5783764,71.8870235 12.3064946,78.7270638 C20.0365171,71.887766 23.9903846,65.9100971 23.9903846,60.745254 C23.9903846,56.8749629 22.6730671,53.3679381 20.5328014,50.8305421 C18.4278124,48.3349684 15.5234778,46.7788462 12.3076923,46.7788462 Z"/>
    <circle cx="12.308" cy="58.18" r="4.591" fill="#FFF" stroke="#242424" stroke-width="1.368"/>
  </g>
</svg>
