<svg xmlns="http://www.w3.org/2000/svg" width="208" height="166" viewBox="0 0 208 166">
  <defs>
    <linearGradient id="icon_terminabsagen-a" x1="33.776%" x2="60.679%" y1="32.259%" y2="63.032%">
      <stop offset="0%" stop-color="#FF7735"/>
      <stop offset="100%" stop-color="#BC3E00"/>
    </linearGradient>
  </defs>
  <g fill="none" fill-rule="evenodd" transform="translate(63 38)">
    <rect width="75" height="81" x="7" y="9" fill="#DEDEDE" rx="5"/>
    <path fill="#F2F2F2" stroke="#242424" stroke-linecap="round" stroke-linejoin="round" stroke-width="1.5" d="M21.9661546,84 L5.84615385,84 C2.61741223,84 0,81.2346999 0,77.8235294 L0,15.1764706 C0,11.7653001 2.61741223,9 5.84615385,9 L70.1538462,9 C73.3825878,9 76,11.7653001 76,15.1764706 L76,77.8235294 C76,81.2346999 73.3825878,84 70.1538462,84 L41.607383,84 L36.9561774,84 M30,84.5 L28,84.5"/>
    <path fill="#FFC9AE" stroke="#242424" stroke-linejoin="round" stroke-width="1.5" d="M3.73333333,3 L72.2666667,3 C74.3285297,3 76,4.67147027 76,6.73333333 L76,21.7670922 L76,21.7670922 L22,79 L3.73333333,79 C1.67147027,79 1.58477303e-15,77.3285297 0,75.2666667 L0,6.73333333 C-2.525054e-16,4.67147027 1.67147027,3 3.73333333,3 Z"/>
    <rect width="1.5" height="4.9" x="32.75" y=".75" fill="#D8D8D8" stroke="#242424" stroke-width="1.5" rx=".75"/>
    <rect width="1.5" height="4.9" x="22.75" y=".75" fill="#D8D8D8" stroke="#242424" stroke-width="1.5" rx=".75"/>
    <rect width="1.5" height="4.9" x="13.75" y=".75" fill="#D8D8D8" stroke="#242424" stroke-width="1.5" rx=".75"/>
    <rect width="1.5" height="4.9" x="41.75" y=".75" fill="#D8D8D8" stroke="#242424" stroke-width="1.5" rx=".75"/>
    <rect width="1.5" height="4.9" x="51.75" y=".75" fill="#D8D8D8" stroke="#242424" stroke-width="1.5" rx=".75"/>
    <rect width="1.5" height="4.9" x="60.75" y=".75" fill="#D8D8D8" stroke="#242424" stroke-width="1.5" rx=".75"/>
    <g fill="#EFEFEF" stroke="#242424" stroke-width="1.5" transform="translate(10 30)">
      <circle cx="11.685" cy="5.393" r="4.643"/>
      <path d="M11.6853933,10.738764 C9.28795073,10.738764 7.26806025,11.5152868 5.63144369,13.0821222 C3.93484375,14.7063835 2.65159765,17.1523127 1.74685401,20.396646 C1.50577617,21.261125 1.63792098,22.1414782 2.04645465,22.8659811 C2.45498862,23.5904845 3.1399118,24.1591373 4.00439055,24.4002135 C4.28862333,24.4794772 4.58232679,24.5196629 4.87740475,24.5196629 L22.501666,24.5196629 C21.7927547,20.0124053 20.5686744,16.5879179 18.7920015,14.2645763 C16.9950775,11.9147527 14.6265615,10.738764 11.6853933,10.738764 Z"/>
    </g>
    <path fill="#F8F8F8" stroke="#242424" stroke-linejoin="round" stroke-width="1.5" d="M38.2717168,20.25 C36.5925331,20.25 35.0725802,20.9257098 33.9722509,22.0173751 C32.8697673,23.1111777 32.1883835,24.6223951 32.1883835,26.2913386 C32.1883835,26.8292878 32.2593093,27.350804 32.3922252,27.8472433 L29.5678129,34.5200613 L35.7209733,31.7773706 C36.4966496,32.133627 37.3607375,32.3326772 38.2717168,32.3326772 C39.9509006,32.3326772 41.4708535,31.6569674 42.5711828,30.5653021 C43.6736664,29.4714994 44.3550502,27.960282 44.3550502,26.2913386 C44.3550502,24.6223951 43.6736664,23.1111777 42.5711828,22.0173751 C41.4708535,20.9257098 39.9509006,20.25 38.2717168,20.25 Z" transform="rotate(-90 37.303 27.03)"/>
    <path fill="#000" fill-opacity=".3" d="M76,24.1191295 L23.5,79 L2.60621787,79 C12.9892358,79 18.1758546,72.8927632 18.1660743,60.6782896 C18.1646589,58.9106653 18.2019938,58.5221902 18.1833263,47.5847805 C18.1646589,36.6473708 22.0659922,28.7903674 34.5167989,28.7903674 C43.6402958,28.7903674 52.3596578,28.7903674 60.6748847,28.7903674 C70.8916282,27.6059453 76,23.275619 76,15.7993886 C76,8.32315823 76,11.0964052 76,24.1191295 Z"/>
    <path fill="url(#icon_terminabsagen-a)" stroke="#242424" stroke-width="1.5" d="M76,24.1191295 L24.1132416,79 L6,79 C18.0739499,79 24.1065362,72.6193048 24.097759,59.8579145 C24.0964888,58.0111429 24.1299944,57.6052734 24.1132416,46.1781289 C24.0964888,34.7509845 27.5976853,26.5421749 38.7714862,26.5421749 C46.9592399,26.5421749 54.7843083,26.5421749 62.2466914,26.5421749 C71.4155638,25.304719 76,20.7804975 76,12.9695105 C76,5.15852353 76,8.8750632 76,24.1191295 Z"/>
  </g>
</svg>
