<svg xmlns="http://www.w3.org/2000/svg" width="208" height="166" viewBox="0 0 208 166">
  <g fill="none" fill-rule="evenodd" transform="translate(27 29)">
    <rect width="1" height="11.145" x="79.849" y="3.464" fill="#DEDEDE" stroke="#DEDEDE" stroke-width=".904" transform="matrix(-1 0 0 1 159.398 0)"/>
    <rect width="8.735" height="5.723" x="79.849" y=".452" fill="#DEDEDE" stroke="#DEDEDE" stroke-width=".904"/>
    <path fill="#DEDEDE" stroke="#DEDEDE" stroke-width="1.5" d="M80.4014194,15.810241 L78.9883381,15.810241 L77.3765496,19.4242132 L69.6054217,19.4246561 L69.6054217,24.5508045 L71.4118193,24.5498407 L71.4118193,57.3761938 L67.1956331,57.3764589 L67.1946693,62.1951285 L63.5812833,62.1956706 L63.5807773,71.231241 L23.5267473,71.231241 L23.5270364,68.2198795 L6.95481928,68.2198795 L6.95481928,107.081325 L152.442771,107.081325 L152.442771,68.2198795 L135.870317,68.2198795 L135.869654,71.231241 L95.8157823,71.231241 L95.8162281,62.1956707 L92.2006655,62.1951285 L92.2016535,57.3764589 L87.9848193,57.3761938 L87.9848193,24.5498409 L89.7921687,24.5508047 L89.7921687,19.4246561 L82.0176327,19.4242133 L80.4014194,15.810241 Z"/>
    <path fill="#FFE2D4" stroke="#242424" stroke-width="1.5" d="M76.4014194,15.810241 L74.9883381,15.810241 L73.3765496,19.4242132 L65.6054217,19.4246561 L65.6054217,24.5508045 L67.4118193,24.5498407 L67.4118193,57.3761938 L63.1956331,57.3764589 L63.1946693,62.1951285 L59.5812833,62.1956706 L59.5807773,71.231241 L19.5267473,71.231241 L19.5270364,68.2198795 L2.95481928,68.2198795 L2.95481928,107.081325 L148.442771,107.081325 L148.442771,68.2198795 L131.870317,68.2198795 L131.869654,71.231241 L91.8157823,71.231241 L91.8162281,62.1956707 L88.2006655,62.1951285 L88.2016535,57.3764589 L83.9848193,57.3761938 L83.9848193,24.5498409 L85.7921687,24.5508047 L85.7921687,19.4246561 L78.0176327,19.4242133 L76.4014194,15.810241 Z"/>
    <path fill="#FFF" stroke="#242424" stroke-width="1.5" d="M75.6987952,84.5813253 C74.2490477,84.5813253 72.9365477,85.1689516 71.9864846,86.1190147 C71.0364214,87.0690778 70.4487952,88.3815778 70.4487952,89.8313253 L70.4487952,107.081325 L80.9487952,107.081325 L80.9487952,89.8313253 C80.9487952,88.3815778 80.3611689,87.0690778 79.4111058,86.1190147 C78.4610426,85.1689516 77.1485426,84.5813253 75.6987952,84.5813253 Z"/>
    <rect width="1" height="11.145" x="75.849" y="3.464" fill="#FFF" stroke="#242424" stroke-width=".904" transform="matrix(-1 0 0 1 151.398 0)"/>
    <rect width="8.735" height="5.723" x="75.849" y=".452" fill="#242424" stroke="#242424" stroke-width=".904"/>
    <path fill="#FFF" stroke="#242424" stroke-width="1.5" d="M20.8832135.883213482C20.8009074.965519582 20.75 1.0792244 20.75 1.20481928L20.75 14.25 21.6596386 14.25 21.6596386 1.20481928C21.6596386 1.0792244 21.6087312.965519582 21.5264251.883213482 21.444119.800907382 21.3304142.75 20.8832135.883213482zM85.9434544.883213482C85.8611483.965519582 85.810241 1.0792244 85.810241 1.20481928L85.810241 14.25 86.7198795 14.25 86.7198795 1.20481928C86.7198795 1.0792244 86.6689721.965519582 86.586666.883213482 86.5043599.800907382 86.3906551.75 85.9434544.883213482zM46.1844183.883213482C46.1021122.965519582 46.0512048 1.0792244 46.0512048 1.20481928L46.0512048 14.25 46.9608434 14.25 46.9608434 1.20481928C46.9608434 1.0792244 46.909936.965519582 46.8276299.883213482 46.7453238.800907382 46.631619.75 46.1844183.883213482zM111.244659.883213482C111.162353.965519582 111.111446 1.0792244 111.111446 1.20481928L111.111446 14.25 112.021084 14.25 112.021084 1.20481928C112.021084 1.0792244 111.970177.965519582 111.887871.883213482 111.805565.800907382 111.69186.75 111.244659.883213482zM33.5338159.883213482C33.4515098.965519582 33.4006024 1.0792244 33.4006024 1.20481928L33.4006024 14.25 34.310241 14.25 34.310241 1.20481928C34.310241 1.0792244 34.2593336.965519582 34.1770275.883213482 34.0947214.800907382 33.9810166.75 33.5338159.883213482zM98.5940569.883213482C98.5117508.965519582 98.4608434 1.0792244 98.4608434 1.20481928L98.4608434 14.25 99.3704819 14.25 99.3704819 1.20481928C99.3704819 1.0792244 99.3195745.965519582 99.2372684.883213482 99.1549623.800907382 99.0412575.75 98.5940569.883213482zM58.8350207.883213482C58.7527146.965519582 58.7018072 1.0792244 58.7018072 1.20481928L58.7018072 14.25 59.6114458 14.25 59.6114458 1.20481928C59.6114458 1.0792244 59.5605384.965519582 59.4782323.883213482 59.3959262.800907382 59.2822214.75 58.8350207.883213482zM123.895262.883213482C123.812956.965519582 123.762048 1.0792244 123.762048 1.20481928L123.762048 14.25 124.671687 14.25 124.671687 1.20481928C124.671687 1.0792244 124.620779.965519582 124.538473.883213482 124.456167.800907382 124.342462.75 123.895262.883213482zM25.100081.883213482C25.0177749.965519582 24.9668675 1.0792244 24.9668675 1.20481928L24.9668675 14.25 25.876506 14.25 25.876506 1.20481928C25.876506 1.0792244 25.8255986.965519582 25.7432925.883213482 25.6609864.800907382 25.5472816.75 25.100081.883213482zM90.1603219.883213482C90.0780158.965519582 90.0271084 1.0792244 90.0271084 1.20481928L90.0271084 14.25 90.936747 14.25 90.936747 1.20481928C90.936747 1.0792244 90.8858396.965519582 90.8035335.883213482 90.7212274.800907382 90.6075226.75 90.1603219.883213482zM50.4012858.883213482C50.3189797.965519582 50.2680723 1.0792244 50.2680723 1.20481928L50.2680723 14.25 51.1777108 14.25 51.1777108 1.20481928C51.1777108 1.0792244 51.1268035.965519582 51.0444974.883213482 50.9621913.800907382 50.8484864.75 50.4012858.883213482zM115.461527.883213482C115.379221.965519582 115.328313 1.0792244 115.328313 1.20481928L115.328313 14.25 116.237952 14.25 116.237952 1.20481928C116.237952 1.0792244 116.187044.965519582 116.104738.883213482 116.022432.800907382 115.908727.75 115.461527.883213482zM37.7506834.883213482C37.6683773.965519582 37.6174699 1.0792244 37.6174699 1.20481928L37.6174699 14.25 38.5271084 14.25 38.5271084 1.20481928C38.5271084 1.0792244 38.4762011.965519582 38.393895.883213482 38.3115889.800907382 38.197884.75 37.7506834.883213482zM102.810924.883213482C102.728618.965519582 102.677711 1.0792244 102.677711 1.20481928L102.677711 14.25 103.587349 14.25 103.587349 1.20481928C103.587349 1.0792244 103.536442.965519582 103.454136.883213482 103.37183.800907382 103.258125.75 102.810924.883213482zM63.0518882.883213482C62.9695821.965519582 62.9186747 1.0792244 62.9186747 1.20481928L62.9186747 14.25 63.8283133 14.25 63.8283133 1.20481928C63.8283133 1.0792244 63.7774059.965519582 63.6950998.883213482 63.6127937.800907382 63.4990889.75 63.0518882.883213482zM128.112129.883213482C128.029823.965519582 127.978916 1.0792244 127.978916 1.20481928L127.978916 14.25 128.888554 14.25 128.888554 1.20481928C128.888554 1.0792244 128.837647.965519582 128.755341.883213482 128.673035.800907382 128.55933.75 128.112129.883213482zM29.3169484.883213482C29.2346423.965519582 29.1837349 1.0792244 29.1837349 1.20481928L29.1837349 14.25 30.0933735 14.25 30.0933735 1.20481928C30.0933735 1.0792244 30.0424661.965519582 29.96016.883213482 29.8778539.800907382 29.7641491.75 29.3169484.883213482zM94.3771894.883213482C94.2948833.965519582 94.2439759 1.0792244 94.2439759 1.20481928L94.2439759 14.25 95.1536145 14.25 95.1536145 1.20481928C95.1536145 1.0792244 95.1027071.965519582 95.020401.883213482 94.9380949.800907382 94.8243901.75 94.3771894.883213482zM54.6181532.883213482C54.5358471.965519582 54.4849398 1.0792244 54.4849398 1.20481928L54.4849398 14.25 55.3945783 14.25 55.3945783 1.20481928C55.3945783 1.0792244 55.3436709.965519582 55.2613648.883213482 55.1790587.800907382 55.0653539.75 54.6181532.883213482zM119.678394.883213482C119.596088.965519582 119.545181 1.0792244 119.545181 1.20481928L119.545181 14.25 120.454819 14.25 120.454819 1.20481928C120.454819 1.0792244 120.403912.965519582 120.321606.883213482 120.2393.800907382 120.125595.75 119.678394.883213482zM41.9675508.883213482C41.8852447.965519582 41.8343373 1.0792244 41.8343373 1.20481928L41.8343373 14.25 42.7439759 14.25 42.7439759 1.20481928C42.7439759 1.0792244 42.6930685.965519582 42.6107624.883213482 42.5284563.800907382 42.4147515.75 41.9675508.883213482zM107.027792.883213482C106.945486.965519582 106.894578 1.0792244 106.894578 1.20481928L106.894578 14.25 107.804217 14.25 107.804217 1.20481928C107.804217 1.0792244 107.753309.965519582 107.671003.883213482 107.588697.800907382 107.474992.75 107.027792.883213482z" transform="translate(.88 84.217)"/>
    <path fill="#FFF" stroke="#242424" stroke-width="1.5" d="M10.939759 76.6536145C10.0422963 76.6536145 9.22979632 77.0173831 8.641662 77.6055174 8.05352768 78.1936517 7.68975904 79.0061517 7.68975904 79.9036145L7.68975904 107.153614 14.189759 107.153614 14.189759 79.9036145C14.189759 79.0061517 13.8259904 78.1936517 13.2378561 77.6055174 12.6497218 77.0173831 11.8372218 76.6536145 10.939759 76.6536145zM140.457831 76.6536145C139.560369 76.6536145 138.747869 77.0173831 138.159734 77.6055174 137.5716 78.1936517 137.207831 79.0061517 137.207831 79.9036145L137.207831 107.153614 143.707831 107.153614 143.707831 79.9036145C143.707831 79.0061517 143.344063 78.1936517 142.755928 77.6055174 142.167794 77.0173831 141.355294 76.6536145 140.457831 76.6536145z"/>
    <path fill="#FFF" stroke="#242424" stroke-linecap="round" stroke-linejoin="round" stroke-width=".904" d="M120.971773,82 L151,82 L151,82.6024096 L121,82.6024096 M112.429583,82.6024096 L1,82.6024096 L1,82 L112.43299,82 M117.917492,82.6024096 L115.439213,82.6024096 M115.556256,82 L117.897535,82"/>
    <rect width="150" height="1" x="1" y="99" fill="#FFF" stroke="#242424" stroke-width=".904" transform="matrix(1 0 0 -1 0 198.602)"/>
  </g>
</svg>
