<?xml version="1.0" encoding="UTF-8"?>
<svg width="208px" height="166px" viewBox="0 0 208 166" version="1.1" xmlns="http://www.w3.org/2000/svg" xmlns:xlink="http://www.w3.org/1999/xlink">
    <title>icon_perso_abholen</title>
    <g id="icon_perso_abholen" stroke="none" stroke-width="1" fill="none" fill-rule="evenodd">
        <g id="Group-9" transform="translate(45.000000, 60.000000)">
            <g id="Group-8">
                <rect id="Rectangle" fill="#DEDEDE" opacity="0.659999967" x="4.57142857" y="4.57142857" width="75.4285714" height="50.2857143" rx="8"></rect>
                <g id="Group" stroke="#242424" stroke-width="1.5">
                    <path d="M74.8571429,17.1428571 L74.8571429,24 M75.4285714,30.1233738 C75.4285714,33.3961245 75.4285714,35.1198046 75.4285714,41.6653061 C75.4285714,46.4262261 71.7445145,50.2857143 67.2,50.2857143 L8.22857143,50.2857143 C3.68405692,50.2857143 -3.90798505e-13,46.4262261 -3.90798505e-13,41.6653061 L-3.90798505e-13,8.62040816 C-3.90798505e-13,3.8594882 3.68405692,-2.55795385e-13 8.22857143,-2.55795385e-13 L65.077679,-2.55795385e-13 L67.2,-2.55795385e-13 C71.7445145,-2.55795385e-13 75.4285714,3.8594882 75.4285714,8.62040816 L75.4285714,10.2574893 L75.4285714,12.8219751" id="Shape" fill="#CCEFF0" stroke-linecap="round" stroke-linejoin="round"></path>
                    <rect id="Rectangle-Copy-3" x="41.1251841" y="14.8571429" width="18.2857143" height="1" rx="0.5"></rect>
                    <rect id="Rectangle-Copy-12" x="41.1251841" y="28.5714286" width="18.2857143" height="1" rx="0.5"></rect>
                    <rect id="Rectangle-Copy-5" x="41.1251841" y="21.7142857" width="18.2857143" height="1" rx="0.5"></rect>
                    <rect id="Rectangle-Copy-13" x="41.1251841" y="34.8689249" width="18.2857143" height="1" rx="0.5"></rect>
                    <rect id="Rectangle" fill="#FFFFFF" x="13.3214286" y="14.7117084" width="19.0714286" height="22.5" rx="2.4742268"></rect>
                    <circle id="Oval" fill="#00ADB2" cx="22.6863034" cy="25.1428571" r="3.82142857"></circle>
                    <path d="M22.6863034,29.3214286 C24.3095233,29.3214286 25.6150139,29.9856154 26.6061595,31.3071429 C27.581062,32.6070128 28.2587513,34.4979211 28.6714478,36.9642857 L28.6714478,36.9642857 L16.7011589,36.9642857 C17.1138555,34.4979211 17.7915448,32.6070128 18.7664472,31.3071429 C19.7575928,29.9856154 21.0630835,29.3214286 22.6863034,29.3214286 Z" id="Oval" fill="#00ADB2"></path>
                </g>
            </g>
            <g id="Group-6" transform="translate(46.141426, 32.751737)" stroke="#1B1B1B" stroke-width="1.5">
                <path d="M30.4253801,-13.889918 L37.9453962,-5.90724019 C40.5530946,-3.70435955 41.8230875,-1.20263738 41.8230875,1.57024147 L41.8230875,1.57024147 L41.8230875,22.4324935 C41.7423511,25.1264339 41.5332679,27.0319749 41.2140414,28.1528621 C40.8988482,29.2595872 40.2730969,30.3735547 39.3213794,31.4868664 L39.3213794,31.4868664 L39.3213794,41.403046 L15.8703005,41.403046 L15.8703005,32.8987225 C14.1254539,29.2014836 13.0989021,26.4595956 12.7718128,24.6780894 C12.4149712,22.7345357 12.5231921,19.9828454 13.1260782,16.4212278 L13.1260782,16.4212278 L20.9297536,16.4212278 L30.4253801,8.45177751 L30.4253801,-13.889918 Z" id="Path-5" fill="#FFFFFF" transform="translate(27.194827, 14.326523) scale(-1, 1) rotate(-270.000000) translate(-27.194827, -14.326523) "></path>
                <path d="M31.9273993,7.71498962 L22.729857,-0.914060358 C19.1340816,-4.28221072 16.2966996,-4.74991512 14.217711,-2.31717354 C12.1387225,0.115568035 12.7218147,3.0157463 15.9669876,6.38336127 L20.9770536,11.7240805 C19.8682638,13.0826627 19.4667013,15.2506223 19.7723661,18.2279593 C20.0780309,21.2052963 21.3304956,23.2500409 23.5297601,24.362193" id="Path-6" fill="#FFFFFF" transform="translate(22.463700, 10.257339) scale(-1, 1) rotate(-270.000000) translate(-22.463700, -10.257339) "></path>
                <rect id="Rectangle-Copy-7" fill="#CCEFF0" transform="translate(62.778486, 14.656859) scale(-1, 1) rotate(-540.000000) translate(-62.778486, -14.656859) " x="53.8660496" y="2.35229012" width="17.8248731" height="24.6091371" rx="2.46700508"></rect>
                <circle id="Oval-Copy-11" fill="#00ADB2" transform="translate(60.517065, 9.003305) scale(-1, 1) rotate(-540.000000) translate(-60.517065, -9.003305) " cx="60.5170648" cy="9.00330535" r="1.71700508"></circle>
            </g>
        </g>
    </g>
</svg>