<svg xmlns="http://www.w3.org/2000/svg" width="208" height="166" viewBox="0 0 208 166">
  <g fill="none" fill-rule="evenodd" transform="translate(63 40)">
    <path fill="#F8F8F8" d="M46.1115272,0.5 L74.5307468,25.8978288 L74.7176616,59.3034188 C74.2659108,64.2037037 72.0917267,66.6538462 68.1951093,66.6538462 C64.2984919,66.6538462 49.95455,66.6538462 25.1632836,66.6538462 C19.9262228,66.0004748 17.3076923,63.5503324 17.3076923,59.3034188 C17.3076923,55.0565052 17.3076923,44.1254554 17.3076923,26.5102693 L46.1115272,0.5 Z"/>
    <path stroke="#242424" stroke-linecap="round" stroke-linejoin="round" stroke-width="1.5" d="M74.5307468,56.5957838 L74.5307468,59.7017051 C74.5307468,63.5412666 71.0136787,66.6538462 66.6751554,66.6538462 L24.7786683,66.6538462 C20.440145,66.6538462 16.9230769,63.5412666 16.9230769,59.7017051 L16.9230769,28.0104056 M73.9045764,26.5102693 L74.5307468,44.4055634 M74.6153846,49.7307692 L74.6153846,52.8076923"/>
    <polyline stroke="#242424" stroke-linecap="round" stroke-linejoin="round" stroke-width="1.5" points="10.769 33.026 46.154 0 81.538 33.026"/>
    <g stroke="#242424" transform="translate(24.566 20.5)">
      <g transform="translate(0 2.233)">
        <circle cx="5.763" cy="16.569" r="5.013" stroke-width="1.5"/>
        <circle cx="38.902" cy="16.569" r="5.013" stroke-width="1.5"/>
        <path fill="#FFF" stroke-linecap="round" stroke-linejoin="round" stroke-width="1.5" d="M24.4230968,33.0079311 C24.7522798,32.9664877 25.0784561,32.9153869 25.4013329,32.8549214 M28.6095603,31.9082541 C34.6481514,29.4345357 38.901785,23.4986519 38.901785,16.5692788 C38.901785,7.4183188 31.4834662,0 22.3325062,0 C13.1815462,0 5.76322741,7.4183188 5.76322741,16.5692788 C5.76322741,24.5395743 11.3907989,31.19548 18.8892505,32.7803045"/>
        <circle cx="16.569" cy="15.849" r="1" stroke-width="1.441"/>
        <circle cx="28.096" cy="15.849" r="1" stroke-width="1.441"/>
        <circle cx="25.935" cy="24.494" r="3.572" fill="#FF9D6D" stroke-width="1.5"/>
        <circle cx="18.73" cy="24.494" r="3.572" fill="#FF9D6D" stroke-width="1.5"/>
        <circle cx="22.333" cy="24.494" r="2.852" fill="#FF9D6D" stroke-width="1.5"/>
      </g>
      <g fill="#FFE2D4" stroke-width="1.5" transform="translate(6.005)">
        <path d="M2.21471324,10.2763455 C-0.544275009,9.55887176 -0.743850915,2.4688352 2.21471324,0.947439657 C5.17327739,-0.573955889 14.2631421,1.58936165 14.2631421,4.0806286 C14.2631421,6.57189554 4.97370148,10.9938193 2.21471324,10.2763455 Z"/>
        <path d="M19.9036106,10.2763455 C17.0861517,9.54366649 16.811039,2.53774642 19.9036106,0.947439657 C22.9961821,-0.642867107 31.9520394,1.56742621 31.9520394,4.0806286 C31.9520394,6.59383098 22.7210695,11.0090245 19.9036106,10.2763455 Z" transform="matrix(-1 0 0 1 49.638 0)"/>
        <circle cx="15.791" cy="3.79" r="3.04"/>
      </g>
    </g>
    <g transform="translate(0 51.766)">
      <circle cx="5.763" cy="16.569" r="5.013" stroke="#242424" stroke-width="1.5"/>
      <path fill="#DEDEDE" d="M26.3325062,1 C33.4894681,1 39.5866085,5.53763535 41.9039307,11.8929093 C42.2267178,11.8356655 42.560793,11.8060514 42.901785,11.8060514 C46.0847276,11.8060514 48.6650124,14.3863362 48.6650124,17.5692788 C48.6650124,20.7522214 46.0847276,23.3325062 42.901785,23.3325062 C42.5611438,23.3325062 42.2274052,23.302953 41.9029932,23.2462707 C40.3059027,27.6282115 36.9104698,31.1463797 32.6095603,32.9082541 L32.6095603,32.9082541 L22.8892505,33.7803045 C17.2669123,32.5920033 12.6963826,28.5527407 10.7612475,23.2461029 C10.4371954,23.3029895 10.1036584,23.3325062 9.76322741,23.3325062 C6.5802848,23.3325062 4,20.7522214 4,17.5692788 C4,14.3863362 6.5802848,11.8060514 9.76322741,11.8060514 C10.1040076,11.8060514 10.4378796,11.8356287 10.7624164,11.8923563 C13.0784039,5.53763535 19.1755443,1 26.3325062,1 Z" style="mix-blend-mode:darken"/>
      <circle cx="38.902" cy="16.569" r="5.013" fill="#FFF" stroke="#242424" stroke-width="1.5"/>
      <path fill="#FFF" stroke="#242424" stroke-linecap="round" stroke-linejoin="round" stroke-width="1.5" d="M24.4230968,33.0079311 C24.7522798,32.9664877 25.0784561,32.9153869 25.4013329,32.8549214 M28.6095603,31.9082541 C34.6481514,29.4345357 38.901785,23.4986519 38.901785,16.5692788 C38.901785,7.4183188 31.4834662,0 22.3325062,0 C13.1815462,0 5.76322741,7.4183188 5.76322741,16.5692788 C5.76322741,24.5395743 11.3907989,31.19548 18.8892505,32.7803045"/>
      <path fill="#242424" stroke="#242424" stroke-width="1.441" d="M22.1163073,8.03048916 C22.2413608,7.96210102 22.3567949,7.87952719 22.4607499,7.78517943 C22.7268197,7.54369934 22.91813,7.22556901 23.5329391,6.34004707 C24.6583696,6.06537497 25.6351076,5.41135035 26.3181507,4.47229572 C26.8985131,3.67440757 27.2653499,2.67363088 27.3436233,1.52900729 C25.7687828,1.00428755 24.0837959,0.720403426 22.3325062,0.720403426 C20.5791855,0.720403426 18.8909388,1.00365847 17.3064811,1.85116935 C17.3976001,2.98651918 17.8649769,4.01558109 18.5838512,4.81379716 C19.3964842,5.7161199 20.5302719,6.32388433 21.8056586,6.45608497 C22.0700149,6.48348691 22.3326077,6.48964378 22.5915413,6.47580522 C22.5778517,6.79337215 22.5174759,7.10909083 22.4109243,7.41182413 C22.3345629,7.62878109 22.2355366,7.83608286 22.1163073,8.03048916 Z"/>
      <circle cx="16.569" cy="15.849" r="1" stroke="#242424" stroke-width="1.441"/>
      <circle cx="28.096" cy="15.849" r="1" stroke="#242424" stroke-width="1.441"/>
      <circle cx="25.935" cy="24.494" r="3.572" fill="#FF9D6D" stroke="#242424" stroke-width="1.5"/>
      <circle cx="18.73" cy="24.494" r="3.572" fill="#FF9D6D" stroke="#242424" stroke-width="1.5"/>
      <circle cx="22.333" cy="24.494" r="2.852" fill="#FF9D6D" stroke="#242424" stroke-width="1.5"/>
    </g>
  </g>
</svg>
