<?xml version="1.0" encoding="UTF-8"?>
<svg width="208px" height="166px" viewBox="0 0 208 166" version="1.1" xmlns="http://www.w3.org/2000/svg" xmlns:xlink="http://www.w3.org/1999/xlink">
    <title>icon_digitalfaehigkeit</title>
    <g id="icon_digitalfaehigkeit" stroke="none" stroke-width="1" fill="none" fill-rule="evenodd">
        <g id="icon_medienkompetenzen" transform="translate(52.000000, 53.000000)">
            <path d="M89.2313422,4 C91.4464938,4 93.2422289,5.79573514 93.2422289,8.01088669 L93.242,55.64 L101.765363,55.6401662 L101.765363,61.1551354 C101.765363,64.4778627 99.0717604,67.1714654 95.7490331,67.1714654 L10.01633,67.1714654 C6.69360271,67.1714654 4,64.4778627 4,61.1551354 L4,55.6401662 L12.021,55.64 L12.0217734,8.01088669 C12.0217734,5.79573514 13.8175085,4 16.0326601,4 L89.2313422,4 Z" id="Combined-Shape" fill="#DEDEDE"></path>
            <rect id="Rectangle" stroke="#242424" stroke-width="1.5" fill="#F8F8F8" x="8.77177338" y="0.75" width="79.7204555" height="58.6633004" rx="4.01088669"></rect>
            <rect id="Rectangle" stroke="#242424" stroke-width="1.5" fill="#66CED1" x="12.25" y="4.75" width="72.5" height="44.5" rx="4.01088669"></rect>
            <path d="M39.875,52.389 C39.9217007,53.4342682 40.0725228,53.9116969 40.2922731,54.3528965 C40.6837635,55.0886976 41.172583,55.5775171 41.7954371,55.9106231 C42.3313349,56.1972244 42.8746051,56.3787496 44.139647,56.3991737 L44.139647,56.3991737 L53.8824466,56.4010529 C55.3280402,56.4010529 55.9034928,56.2142827 56.4712869,55.9106231 C57.0941409,55.5775171 57.5829605,55.0886976 57.9160665,54.4658435 C58.1400999,54.0469374 58.2999277,53.6235265 58.3687538,52.8573877 L58.3687538,52.8573877 L97.0153631,52.3991125 L97.0153631,57.1551354 C97.0153631,58.6093923 96.4259091,59.9259748 95.4728908,60.878993 C94.5198725,61.8320113 93.20329,62.4214654 91.7490331,62.4214654 L91.7490331,62.4214654 L6.01633004,62.4214654 C4.56207315,62.4214654 3.24549065,61.8320113 2.29247236,60.878993 C1.33945407,59.9259748 0.75,58.6093923 0.75,57.1551354 L0.75,57.1551354 L0.75,52.390158 L39.875,52.389 Z" id="Combined-Shape" stroke="#242424" stroke-width="1.5" fill="#F8F8F8"></path>
            <g id="ICON-Mobil" transform="translate(77.000000, 25.000000)">
                <path d="M43.25,23.75 L43.25,26.75 M43.75,32.1222866 C43.75,34.0096968 43.75,35.003751 43.75,38.7785714 C43.75,41.5242156 41.3079168,43.75 38.2954545,43.75 L-0.795454545,43.75 C-3.80791682,43.75 -6.25,41.5242156 -6.25,38.7785714 L-6.25,19.7214286 C-6.25,16.9757844 -3.80791682,14.75 -0.795454545,14.75 L36.888613,14.75 L38.2954545,14.75 C41.3079168,14.75 43.75,16.9757844 43.75,19.7214286 L43.75,20.6655407 L43.75,22.1444913" id="Shape" fill="#DEDEDE" style="mix-blend-mode: darken;" transform="translate(19.000000, 29.250000) rotate(-90.000000) translate(-19.000000, -29.250000) "></path>
                <path d="M39.25,32.1222866 C39.25,34.0096968 39.25,31.003751 39.25,34.7785714 C39.25,37.5242156 36.8079168,39.75 33.7954545,39.75 L-5.29545455,39.75 C-8.30791682,39.75 -10.75,37.5242156 -10.75,34.7785714 L-10.75,15.7214286 C-10.75,12.9757844 -8.30791682,10.75 -5.29545455,10.75 L32.388613,10.75 L33.7954545,10.75 C36.8079168,10.75 39.25,12.9757844 39.25,15.7214286 L39.25,24.6655407 M39.25,28.25 L39.25,29.25" id="Shape" stroke="#242424" stroke-width="1.5" fill="#F8F8F8" stroke-linecap="round" stroke-linejoin="round" transform="translate(14.500000, 25.250000) rotate(-90.000000) translate(-14.500000, -25.250000) "></path>
                <rect id="Rectangle" fill="#CCEFF0" x="2" y="6" width="25" height="34"></rect>
                <line x1="0.5" y1="41.5" x2="25.5" y2="41.5" id="Line" stroke="#242424" stroke-width="1.5" stroke-linecap="round" transform="translate(13.000000, 41.500000) rotate(-360.000000) translate(-13.000000, -41.500000) "></line>
                <line x1="12" y1="4" x2="17.5" y2="4" id="Line-Copy" stroke="#242424" stroke-width="1.5" stroke-linecap="round" transform="translate(14.750000, 4.000000) rotate(-360.000000) translate(-14.750000, -4.000000) "></line>
                <circle id="Oval" fill="#242424" transform="translate(14.500000, 46.500000) rotate(-90.000000) translate(-14.500000, -46.500000) " cx="14.5" cy="46.5" r="1.5"></circle>
            </g>
        </g>
    </g>
</svg>