<?xml version="1.0" encoding="UTF-8"?>
<svg width="208px" height="166px" viewBox="0 0 208 166" version="1.1" xmlns="http://www.w3.org/2000/svg" xmlns:xlink="http://www.w3.org/1999/xlink">
    <title>icon_whg_abmelden</title>
    <g id="icon_whg_abmelden" stroke="none" stroke-width="1" fill="none" fill-rule="evenodd">
        <g id="Group-25" transform="translate(43.000000, 16.000000)">
            <path d="M50.7645504,0.000471781064 C50.6903247,0.0101312789 50.638489,0.166501315 50.5001145,0.146736164 C50.4325251,0.137081814 50.2128979,0.886650681 50.1794156,0.97369248 C50.0814875,1.22827189 49.9014658,1.47945149 49.7968275,1.67126107 C49.6263931,1.98368215 49.4858437,2.02529145 49.2904609,2.2450675 C49.1604979,2.39125717 48.9945105,2.50031352 48.8459835,2.62760511 C48.835208,2.63683984 48.8437078,2.62653293 48.7165787,2.88075501 C48.5819689,3.14994016 48.436535,3.48556138 48.3339906,3.70771132 C48.2000055,3.99797438 48.177142,4.26504613 48.0808072,4.60217428 C48.0057137,4.86496556 47.9864583,5.24565655 47.9514024,5.49101168 C47.9149836,5.7459099 47.828616,6.02114095 47.7601084,6.317968 C47.6374389,6.84946522 48.1324773,6.47592615 48.210212,6.5092368 C48.2715756,6.53553253 48.5860486,5.68471703 48.5871739,5.68228049 C48.6715557,5.49947503 48.6835555,5.06995514 48.7165787,4.85532417 C48.7476106,4.65364278 48.8132321,4.28673304 48.8459835,4.09024894 C48.8962853,3.7884777 49.160795,3.59641646 49.2904609,3.39268034 C49.646862,2.83269568 49.4583225,3.44487594 49.673049,3.51644251 C49.7477302,3.54133284 50.1846044,3.72553812 50.3088204,3.77521796 C50.6454494,3.90985158 50.4032972,3.3332448 50.432599,3.20141154 C50.5096999,2.85449654 50.2614695,2.59410076 50.1794156,2.30694858 C50.1777989,2.30129333 50.1753395,2.30082762 50.1737893,2.29569748 C50.1759048,2.18868415 50.1794156,2.09203769 50.1794156,1.93003652 C50.3783849,1.76425084 50.475366,1.5008763 50.623893,1.28872346 C50.7444578,1.1165106 51.1284556,0.940076515 51.2652908,0.844304757 C51.4596329,0.708282842 51.0506831,0.42077009 50.9445919,0.208617248 C50.8607916,0.0410370779 50.8090855,-0.00532391404 50.7645504,0.000471781064 Z M51.6760104,4.48396511 C51.1883032,4.47455577 51.60917,5.3976302 51.6084948,5.40100283 C51.5308429,5.78921154 52.2145702,6.30999573 52.3286607,6.48110904 C52.5720047,6.84607729 52.4427656,7.27973453 52.5087022,7.74123295 C52.5774078,8.22211477 52.5087022,8.64616969 52.5087022,9.00135686 C52.5087022,9.42645246 52.9797321,9.41999414 53.3188888,9.72142767 C53.6329207,10.0005298 54.0042869,10.1575324 54.3091169,10.3514896 C54.6304837,10.555969 54.4402447,11.2692607 54.4891583,11.6116135 C54.5782789,12.2353738 54.1666032,12.2566386 53.9490339,12.6917197 C53.7969133,12.995921 53.1179751,12.9687027 52.8687851,13.0517551 C52.4793518,13.1815492 52.0602189,13.4248903 51.6985155,13.5918082 C51.2780881,13.7858261 51.2028524,14.1493557 50.9783497,14.4018879 C50.7261836,14.6855377 51.2184044,15.1219587 51.3384326,15.4819941 C51.4273227,15.7486291 52.2942764,15.1634222 52.4186814,15.1219587 C52.7847489,14.9999517 53.1495202,14.6569408 53.4089095,14.4918968 C53.562899,14.3939165 53.7689925,14.5519026 53.9490339,14.5819056 C54.3103321,14.642114 53.5289378,15.181964 53.3188888,15.4819941 C53.0222146,15.9057594 52.9202374,16.1083639 52.6887436,16.4720915 C52.4388443,16.8647389 53.1168462,17.0428196 53.228868,17.1921623 C53.3462299,17.3486247 54.0443101,17.2662828 54.2190961,17.2821711 C54.4938862,17.3071486 54.8051959,17.8681936 54.939262,18.0022419 C55.3737471,18.4366697 54.996535,18.6894163 55.0292828,19.0823481 C55.0568075,19.412596 54.3691301,19.0223428 54.0390547,18.9923393 C53.0306496,18.9006779 54.1748023,18.9244744 53.4989303,19.2623658 C53.1251065,19.449253 53.799,20.042442 53.9490339,20.4324809 C54.2085403,21.107108 54.3383304,20.7784767 54.7592205,21.1525517 C54.8615489,21.2434985 55.8697001,21.4941929 55.9294901,21.5125871 C56.3994236,21.6571629 56.6298658,21.781926 57.0997597,21.9626314 C57.568197,22.1427751 57.8600658,22.4694352 58.1800085,22.6827022 C58.5181246,22.9080825 58.7152988,23.3517254 58.9001744,23.5827907 C59.1415362,23.8844517 59.1924825,24.2257833 59.3502781,24.572888 L59.8003817,25.5629854 C59.9666896,25.9288156 60.1996363,26.1903021 60.4305269,26.5530828 C60.5000409,26.6623031 60.5844389,26.7634766 60.6724576,26.8624882 C60.5597498,26.8062201 60.4426833,26.7545604 60.3517587,26.7049727 C60.1356982,26.5871367 60.0294953,26.3771263 59.9016551,26.2493029 C59.7990926,26.146754 59.7060166,25.9959856 59.558451,25.7992586 C59.3586032,25.5328288 59.2316145,25.3442927 59.1083473,25.1748222 C58.970639,24.9854994 58.6949271,24.8022306 58.5400914,24.6628969 C58.3686631,24.5086325 58.1607783,24.4013492 57.9718355,24.2691082 C57.8454644,24.1806601 57.6818643,23.8078722 57.5779948,23.6446718 L57.1785278,23.0202354 C57.0455474,22.8112942 56.9514289,22.8256056 56.7846871,22.6827022 C56.5928403,22.5182848 56.3356295,22.4997286 56.2164312,22.4520545 C55.8730687,22.314728 55.8497659,22.4219717 55.5356494,22.395799 C55.2572351,22.3726019 55.1366019,22.466987 54.8548676,22.5139356 C54.6219641,22.5527492 54.374742,22.6599173 54.1178228,22.7389577 C53.7846885,22.8414472 53.6283729,22.7067075 53.2682521,22.6827022 C52.9418297,22.6609434 52.8669523,22.5553469 52.5312073,22.4520545 C52.3334372,22.3912103 52.165689,22.0409013 52.0811037,21.9457547 C51.8290978,21.6622862 51.9607333,21.8062788 51.7378996,21.5463404 C51.4964748,21.2647171 51.3910389,21.4326107 51.0571178,21.3213183 C50.885162,21.2640079 50.5458774,21.574092 50.376336,21.6588515 C49.9809217,21.8565325 50.2079522,21.9731408 50.0387582,22.2832879 C49.965539,22.4175073 49.839609,23.0356251 49.8137064,23.1327464 C49.8012385,23.179497 49.4337667,23.6062002 49.3579764,23.7009273 C49.1798668,23.9235336 49.2855241,24.2136483 49.2454505,24.4941303 C49.2180428,24.6859626 49.1586687,25.0317226 49.2454505,25.3435888 C49.5407275,26.4047194 49.0832619,26.5379397 49.0710353,26.7612282 C48.7364949,26.6429926 48.2328397,26.2775837 48.1652017,26.1930474 C48.0427015,26.0399423 47.9046979,25.8209472 47.771361,25.630492 C47.5946034,25.3780136 47.1329519,25.8738382 47.0343162,25.9117697 C46.8215306,25.9935985 46.9480259,26.521351 46.9217903,26.7049727 C46.892692,26.9086285 47.198514,27.2639727 47.259368,27.3856646 C47.3682697,27.6034374 47.2966618,27.9879048 47.315631,28.2913787 C47.3371657,28.635875 47.128026,28.8222293 47.0343162,29.0845817 C46.9356445,29.3608279 46.6337797,29.3666064 46.4660603,29.483996 C46.2286216,29.6501811 46.2229719,29.3728458 45.9540674,29.2533483 C45.9051519,29.2316111 45.6472857,28.7421124 45.6164896,28.690793 L45.2789119,28.1226121 C45.1975439,27.9870156 44.9220967,27.7219503 44.8231819,27.6106868 C44.6204552,27.3826511 45.0872541,27.0241801 45.1044967,26.9862504 C45.21084,26.7523282 45.5211811,26.68734 45.7290155,26.5362061 C45.9032399,26.409515 45.4674351,26.1943057 45.3351748,26.0242808 C45.1402259,25.7736637 45.0724619,25.6147153 44.9357078,25.3998444 C44.8236662,25.2238014 44.8983384,24.9832168 44.8794448,24.775408 C44.850424,24.4562222 44.4844879,24.3861287 44.3674519,24.2691082 C44.2523514,24.1540229 43.8585359,24.230399 43.6304071,24.2128526 C43.434612,24.1977942 43.1535241,24.2128526 42.8933624,24.2128526 C42.5988253,24.2128526 42.488973,24.2741919 42.1563176,24.3253637 C42.0004215,24.3493439 41.5568173,24.0652543 41.3630099,23.982205 C41.1433503,24.0048728 40.8235264,24.2547248 40.5697021,24.3816192 C40.3925503,24.4701843 40.138528,24.6167746 39.9508096,24.7191524 C39.6024185,24.9091593 39.587765,24.6834153 39.3825537,24.6628969 C39.202595,24.6449041 38.977437,24.3832916 38.8142978,24.2691082 C38.5673385,24.0962588 38.4297706,24.2691082 38.2460419,24.2691082 C38.0038393,24.2691082 37.6536424,24.415783 37.5652601,24.4378748 C37.2227564,24.5234894 37.1070689,24.6461156 36.9463675,24.7191524 C36.7308435,24.8171055 36.7165284,25.1357818 36.6031635,25.3435888 C36.5844698,25.3778534 35.9898702,25.4448542 35.9223817,25.4560999 C35.6726695,25.4977146 35.7974851,25.6615325 35.6410669,25.9117697 C35.6021779,25.9739838 35.9615353,26.3980335 35.9786446,26.423695 C36.2375047,26.811932 35.9490998,26.7191095 35.9223817,26.9862504 C35.9022098,27.1879458 35.5123462,27.1148712 35.3597521,27.1606425 C35.1292198,27.2297927 35.0074757,27.2992849 34.7914962,27.3856646 C34.5453039,27.4841289 34.684656,27.8185928 34.6227073,28.0663566 C34.5771226,28.2486659 34.5741861,28.5866401 34.560818,28.7470485 C34.5374919,29.0269256 34.973727,28.8581104 35.1853369,28.9158151 C35.4986505,29.0012533 35.5573026,28.9439915 35.9223817,28.9720706 C36.1750357,28.9915035 36.5737699,29.0714062 36.6594264,29.0845817 C37.000362,29.1370262 37.0700452,29.2091791 37.3964712,29.3096038 C37.7595951,29.4213192 37.7747077,29.5325575 38.077253,29.7090181 C38.3458947,29.8657055 38.2910577,30.0120023 38.47672,30.277199 C38.6117295,30.4700447 38.6215742,30.7599812 38.6455089,30.8397543 C38.7389252,31.1510967 38.3124232,30.9681609 38.1897789,31.0141464 C37.9283335,31.1121751 37.6377484,30.7563665 37.4527342,30.6709877 C37.2326695,30.5694325 37.2621495,30.2898704 37.1714194,30.1084324 C36.9501808,29.6660155 36.9513691,30.1084324 36.8901046,30.1084324 C36.7838963,30.1084324 36.8349525,30.8073169 36.8282153,30.9016354 C36.8106019,31.1481822 36.7582998,31.361649 36.7156894,31.6385828 C36.6789141,31.8775869 36.6057309,32.1150087 36.5469005,32.3699047 C36.4789979,32.6641077 36.4452203,32.7821903 36.3781116,33.0505967 C36.3137378,33.3080544 36.3075696,33.5499568 36.2655857,33.8437997 C36.2340785,34.0643214 36.3887269,34.3419303 36.4343746,34.5244916 C36.5213598,34.872392 36.5464072,34.9035153 36.6031635,35.0926725 C36.6900389,35.3822238 36.5777758,35.3521392 36.5469005,35.6608533 C36.5286101,35.8437189 36.1180255,36.0311462 36.0911705,36.0546421 C35.8909014,36.2298551 35.7114487,36.4399412 35.5848039,36.5665674 C35.4155019,36.7358471 35.2604304,37.1564854 35.2415999,37.1910038 C35.0882387,37.4721303 35.0874141,37.7619047 35.072811,37.8154402 C35.0066835,38.0578737 34.9612051,38.3046275 34.9040221,38.5523877 C34.8502959,38.7851704 34.8164067,39.1712417 34.7914962,39.3455907 C34.7513613,39.6264939 34.5900298,39.7763802 34.5045551,39.9644015 C34.323671,40.3622911 34.4778981,40.0899657 34.3920292,40.4763269 C34.3118135,40.8372426 34.3920292,40.709943 34.3920292,41.0445077 C34.3920292,41.3224623 34.2522936,41.1243456 33.9981884,41.2695299 C33.8923133,41.3300212 33.5906772,41.1964697 33.3736696,41.1570188 C33.2349855,41.1318073 32.9128751,41.0053161 32.6928878,40.9319967 C32.404861,40.8360004 32.2770046,40.8978131 32.012106,40.8757411 C31.6420685,40.8449077 31.5623678,40.8757411 31.3313242,40.8757411 C30.8267435,40.8757411 31.3668427,41.1598415 31.3875871,41.3257854 C31.4107873,41.5113602 31.6547939,41.5929587 31.7870541,41.7251997 C32.0073619,41.9454783 31.6301246,42.1623187 31.5620023,42.3496361 C31.4724695,42.5958157 31.3187447,42.7625769 31.1625353,43.030328 C31.0356745,43.247775 31.1625353,43.360061 31.1625353,43.6491389 C31.1625353,43.8676515 31.5332551,43.9386901 31.6745282,44.0485531 C31.9379109,44.2533809 32.2385531,44.0056063 32.411573,43.9922976 C32.5624423,43.9806937 32.903169,43.7185645 33.0304655,43.6491389 C33.3263331,43.4877782 33.4680995,44.0867151 33.4861955,44.1048087 C33.541281,44.1598869 33.4488279,44.2542648 33.4299326,44.3298308 C33.4211177,44.3650855 33.4352636,44.3191719 33.3736696,44.4423419 C33.2931677,44.6033263 33.4581054,44.7293819 33.5424585,45.0105227 C33.6163043,45.2566375 33.7623089,45.4445382 33.8293996,45.5787036 C33.9319422,45.7837618 34.2679806,45.8178985 34.4482921,45.9162368 C34.4520265,45.9182728 34.4558051,45.9199055 34.4595447,45.9218623 L34.4595447,46.1300078 C34.444136,46.2548177 34.3911335,46.6430277 34.369524,46.8050742 C34.3416338,47.0142224 34.305395,47.2539159 34.2795032,47.4351361 C34.2446076,47.679368 34.1448682,47.7851392 34.0544514,48.0201937 C33.9829029,48.2061952 33.6894515,48.2524363 33.5593374,48.3352246 C33.4157057,48.4266142 33.2536305,48.3630122 33.0642233,48.3802291 C32.8643017,48.3984019 32.692787,48.5968714 32.5240989,48.6952601 C32.3363877,48.8047432 32.2585521,48.9902731 32.1190056,49.1453043 C31.9701707,49.3106542 31.8937449,49.4992407 31.803933,49.640353 C31.6690928,49.8522158 31.5348322,49.9692111 31.3988397,50.1354017 C31.2945471,50.2628542 30.9451658,50.2749748 30.8137049,50.3154194 C30.5669887,50.391322 30.6333484,50.4156046 30.4086116,50.5404415 C30.3088596,50.5958509 30.7839045,50.9573787 30.8137049,50.9904857 C30.9424346,51.133499 31.0316577,51.2706743 31.1287775,51.3955256 C31.2524192,51.5544722 31.0971856,51.7745816 31.0837671,51.9355787 C31.0689677,52.1131589 30.9521838,52.3302747 30.9037257,52.4756318 C30.8310627,52.6935936 30.6717476,52.8235538 30.5436427,53.0156849 C30.4466328,53.1611806 30.3418703,53.3384764 30.3185909,53.3757203 C30.2104994,53.5486435 29.8327634,53.4504528 29.7334561,53.4657291 C29.6981734,53.4711567 29.3646376,53.1707125 29.2833524,53.1056937 C29.0386278,52.9099407 28.8797373,53.1988241 28.6982177,53.240707 C28.5805262,53.2678627 28.346606,53.6313346 28.2931243,53.6907513 C28.0810414,53.9263674 27.9494765,53.7766521 27.7529999,53.8257645 C27.5870418,53.8672478 27.422924,53.7357557 27.2578859,53.6907513 C26.9966826,53.6195237 27.0468811,54.1548999 27.032834,54.1857999 C26.9034192,54.4704745 26.8077255,54.5073404 26.7177615,54.6358442 C26.6182684,54.7779592 26.2047382,54.4385538 26.1326267,54.4108221 C25.9529019,54.3417061 25.8510868,54.0237552 25.7725438,53.9157734 C25.6330163,53.7239483 25.5207964,53.7395739 25.3224401,53.6007424 C25.1583991,53.4859289 24.8554174,53.4211424 24.7373053,53.3757203 C24.4456734,53.2635693 24.51039,53.66743 24.4222327,53.7807601 C24.3630652,53.856823 24.2390947,53.9900325 24.1071601,54.1407955 C23.9423812,54.3290904 23.6296949,54.1726227 23.4320046,54.1857999 C23.2970092,54.194799 23.1884766,54.1857999 22.9368906,54.1857999 C22.6917618,54.1857999 22.6270943,54.2890509 22.3967662,54.3658177 C22.2256742,54.4228401 22.4382614,54.9051849 22.4417765,54.9508752 C22.4514738,55.0769218 22.7396595,55.3231788 22.8018595,55.4009194 C22.9364936,55.5691892 23.0281286,55.7241178 23.1169321,55.8509637 C23.2212357,55.9999481 23.3449368,56.0789381 23.477015,56.2109991 C23.6310525,56.3650168 23.6052161,56.6275979 23.6570565,56.7960566 C23.7589529,57.1271758 23.5744052,57.154164 23.5220254,57.3811142 C23.4679395,57.6154558 23.4348524,57.8459757 23.3869943,58.101185 C23.3515463,58.2902161 23.5203204,58.4677838 23.5670357,58.5962336 C23.6666712,58.8701954 23.8193322,58.8765266 23.972129,59.0462779 C24.1126678,59.2024108 24.3283816,59.1650122 24.5122535,59.2262956 C24.8297899,59.3321262 24.6792848,59.4141819 24.8723364,59.6313354 C25.0157301,59.7926313 24.7061187,60.1299232 24.6922949,60.1713885 C24.6302676,60.3574458 24.5233302,60.5655877 24.4222327,60.8014505 C24.3276875,61.0220262 24.4222327,60.9842333 24.4222327,61.2514947 L24.4222327,61.7915478 C24.4222327,62.0748255 24.2558569,62.0410794 24.1521705,62.1965877 C24.0603832,62.3342508 23.977901,62.3957269 23.8370979,62.5566231 C23.6998424,62.7134653 23.55457,62.839114 23.4320046,62.9616629 C23.3305918,63.0630633 23.2114546,63.245189 23.1169321,63.3667027 L22.8018595,63.7717426 C22.5558685,64.0879743 22.9509968,64.1445376 22.981901,64.2217868 C23.0387258,64.3638298 23.2819701,64.2817921 23.4320046,64.3117957 C23.6411527,64.3536192 23.6155906,64.6483262 23.7020668,64.8068443 C23.8077195,65.0005146 23.7253156,65.0625469 23.7470772,65.301893 C23.7608671,65.4535615 23.5215567,65.7528752 23.477015,65.8419461 C23.3763589,66.0432311 23.2512817,66.1240753 23.1169321,66.2919904 C22.9766263,66.4673492 22.7433368,66.3207248 22.5317973,66.3369948 C22.411789,66.3462243 22.1560792,66.3369948 21.9466625,66.3369948 C21.643329,66.3369948 21.7424832,66.6578062 21.6315899,66.8320435 C21.5009653,67.0372835 21.8149944,67.3088312 21.8566418,67.417101 C21.9307468,67.6097488 22.1361452,67.8207745 22.2617351,68.0021585 C22.3964234,68.1966821 22.359956,68.460462 22.3967662,68.6322205 L22.5317973,69.2622825 C22.6062529,69.6096968 22.4165079,69.4928311 22.3067454,69.7123267 C22.2638068,69.7981934 22.096776,69.892276 21.9916729,69.9823533 C21.8806915,70.0774674 22.0258379,70.4606009 22.0366832,70.6124152 C22.0561718,70.8852194 22.1549941,70.9968736 22.2167247,71.1974727 C22.2738875,71.3832276 22.47039,71.3559927 22.5768076,71.4224949 C22.7190163,71.5113642 22.7440865,71.7904601 22.8018595,71.9175436 C22.8538945,72.032006 22.8740747,72.3868803 22.8918802,72.5026011 C22.9332523,72.7714827 22.9737723,72.8847139 23.0269113,73.132663 C23.0878253,73.4168912 23.2914864,73.2796295 23.4320046,73.3576852 C23.6138188,73.4586805 23.767316,73.5588459 23.8821083,73.6277117 C23.9706273,73.6808169 23.8414215,74.2379357 23.8370979,74.3027781 C23.8303927,74.403345 23.5319476,74.5697497 23.477015,74.6178091 C23.2583397,74.8091247 23.3924841,74.9558877 23.3419839,75.1578622 C23.3183574,75.2523553 23.4484891,75.5838273 23.477015,75.6979153 C23.5762013,76.0946077 23.6960736,75.8856557 23.7920876,75.9679418 C23.945969,76.0998228 24.31539,75.847195 24.3772224,75.8329286 C24.6450295,75.7711357 24.7307734,75.9936124 24.8723364,76.0579507 C25.0304218,76.1297976 24.936335,76.473887 24.9623571,76.6430082 C24.9854152,76.7928658 24.8395521,77.1341631 24.827326,77.1830613 C24.8001153,77.2918892 24.8656992,77.6051092 24.8723364,77.67811 C24.88885,77.8597353 25.0305154,77.9944263 25.0973882,78.1281543 C25.18732,78.3079937 25.3206566,78.4470664 25.4124608,78.5781985 C25.4586649,78.6441948 25.5099009,78.7322001 25.5925023,78.786344 C25.5656363,78.776281 25.5442604,78.7674997 25.5024815,78.7582162 C25.182216,78.6870552 25.427594,78.7862954 25.1423986,78.8932295 C24.9592329,78.961908 24.9323502,79.2232613 24.827326,79.3882782 C24.7372686,79.5297793 24.4972501,79.3282729 24.332212,79.2982693 C24.1402457,79.2633711 24.3007935,79.3108346 24.1071601,79.3882782 C23.9173008,79.4642114 23.9886509,79.5660186 23.8370979,79.793318 C23.7774439,79.8827868 23.6783842,80.0789647 23.6120461,80.1983578 C23.5160583,80.3711136 23.3357051,80.4132612 23.2069528,80.5133888 C22.985123,80.6858998 23.0553069,80.8419121 22.9368906,81.0984463 C22.82609,81.3384819 22.7396676,81.3449428 22.5768076,81.5484906 C22.5441454,81.5893132 22.2087971,81.7937989 22.1717143,81.8185171 C22.0489309,81.9003622 22.3418573,82.3288781 22.3517558,82.3585702 C22.4126548,82.5412432 22.2087476,82.7517901 22.1717143,82.8536189 C22.0967928,83.0596258 22.0588073,83.2487416 21.9916729,83.4836809 C21.9153202,83.7508794 22.0262018,83.8979736 22.0366832,84.023734 C22.0576624,84.2754491 22.1662492,84.4123796 22.2167247,84.5637871 C22.2614843,84.6980479 22.4567799,84.7138012 22.5768076,84.7888092 C22.8167903,84.9387784 22.7222079,84.9160169 22.9368906,85.1038402 C23.0503662,85.2031182 22.9668976,85.4038703 22.981901,85.5538844 C22.9961784,85.6966403 23.3545274,85.8892034 23.4320046,85.9589243 C23.61206,86.1209528 23.5915846,86.2248554 23.7020668,86.4089685 C23.7989346,86.570394 23.8821288,86.6790257 23.972129,86.8140084 C24.0905445,86.9916084 24.3516975,87.0037668 24.5122535,87.0840349 C24.6691324,87.1624632 25.0142897,87.1509637 25.187409,87.1740438 C25.2637473,87.1842202 25.4239665,87.6076758 25.4574712,87.6690924 C25.5494673,87.8377294 25.4890166,88.1422114 25.5024815,88.3441588 C25.5178132,88.5741008 25.5024815,88.8204317 25.5024815,88.9742208 C25.5024815,89.0916715 25.2862057,89.3346324 25.2324193,89.424265 C25.1298762,89.5951486 24.9492939,89.7388082 24.827326,89.8743093 C24.6685525,90.0507014 24.6208134,90.2184509 24.5572638,90.3243535 C24.4700381,90.4697106 24.6196628,90.6986967 24.6472846,90.8644066 C24.6916606,91.1306276 24.7099448,91.0523613 24.7823157,91.2694465 C24.8113238,91.3564598 25.1901483,91.4393544 25.3224401,91.4944686 L25.4799764,91.5619752 C25.2468021,91.5044398 24.9973107,91.4778314 24.7148001,91.4213364 C24.3797604,91.3543374 24.3843882,91.5389132 24.0115131,91.6744863 C23.593201,91.8265797 23.8353996,92.05414 23.628925,92.5014426 C23.5228165,92.7313144 24.1189615,92.9388478 24.2028072,93.013368 C24.3431837,93.1381292 25.0647437,93.0689466 25.1592775,93.075249 C25.5884378,93.1038557 25.6098187,93.3624313 25.8569382,93.5196677 C26.0530876,93.644474 25.8569382,94.3204963 25.8569382,94.4085051 C25.8569382,94.7906323 25.9066583,95.0041531 25.9244537,95.2354615 C25.9429408,95.4757635 26.2670372,95.6250378 26.4308204,95.8092679 C26.648688,96.0543368 26.8105732,96.3155371 27.0047026,96.5743431 C27.1942401,96.827025 27.2833603,97.2207093 27.3872907,97.4631805 C27.4936214,97.7112539 27.6109249,97.9652373 27.7023633,98.1663747 C27.9041501,98.6102479 28.2516417,98.1184918 28.4056503,98.1044936 C28.6324206,98.0838797 28.8296166,97.4630023 28.9120169,97.3394183 C29.1912142,96.9206774 29.2300476,97.3098702 29.5534146,97.2775373 C29.614933,97.2713861 29.8823126,98.0003677 29.9303765,98.1044936 C30.0351372,98.3314455 30.1462102,98.7917922 30.1891861,98.9314499 C30.3179193,99.349775 30.5825047,98.878071 30.6955527,98.8639433 C30.923289,98.8354789 30.9508317,98.4867 31.0781408,98.2957624 C31.2279444,98.0710859 31.4610602,98.6730057 31.652023,98.8639433 C31.8974106,99.1092966 32.0555752,99.050933 32.3496837,99.1845998 C32.6909145,99.339685 33.133001,99.3060667 33.3455381,99.2352298 C33.6445942,99.1355576 33.6399149,98.83082 33.7506314,98.6726744 C33.8628135,98.5124353 33.4779946,97.9128935 33.4355589,97.721956 C33.4212582,97.6576122 33.4415974,97.698217 33.4974481,97.5306872 L33.514327,97.5644405 C33.5078401,97.545823 33.5058939,97.5309932 33.5030744,97.5138105 L33.5649637,97.5138105 C33.5631686,97.5215675 33.5609606,97.5281975 33.5593374,97.5363127 C33.5541938,97.5620282 33.5488894,97.5885484 33.5480848,97.6150704 L33.514327,97.5644405 C33.5224578,97.5877762 33.5336145,97.6125754 33.5480848,97.6375727 C33.5505512,97.8170377 33.649197,98.01296 33.7843892,98.200128 C33.8126125,98.2392026 33.8335881,98.2626535 33.8575311,98.2901368 C33.924025,98.3943131 33.9989716,98.4733444 34.0713303,98.4814056 L34.0600777,98.4589034 C34.1000982,98.4846568 34.1408321,98.5169249 34.1894825,98.5601634 C34.3102867,98.6675295 34.6242755,98.7050758 34.7296069,98.7401811 C34.9421999,98.8110361 34.8918729,99.0105893 34.9996691,99.1902253 C35.0699789,99.3073917 35.1210675,99.524025 35.1797106,99.685274 C35.2548437,99.8918641 35.4040441,100.037752 35.4947832,100.180323 C35.5919768,100.333035 35.7752662,100.376636 35.9448869,100.495354 C36.1622689,100.647501 36.3456826,100.662329 36.4850113,100.720376 C36.6219616,100.777431 36.8963862,100.843773 36.9351149,100.855389 C37.1036338,100.905938 37.4873183,100.855389 37.5652601,100.855389 C37.7653564,100.855389 38.0247655,100.916649 38.2404156,100.945398 C38.3072542,100.954309 38.6668798,100.635283 38.7355296,100.585363 C38.9714236,100.413825 39.1911174,100.455212 39.3656748,100.405345 C39.6409906,100.326693 39.6967044,100.525703 39.8607888,100.585363 C40.0077207,100.638785 40.1936909,100.818363 40.3108925,100.900394 C40.4409437,100.991418 40.6581961,101.089806 40.8060066,101.17042 C41.0027181,101.277703 41.0953908,101.344027 41.2561102,101.440447 C41.4896564,101.580556 41.5077488,101.486193 41.7512243,101.530455 C41.9900475,101.573872 42.1020765,101.721803 42.2463383,101.800482 C42.4278363,101.899468 42.4683421,102.07795 42.6064213,102.250526 C42.7300161,102.404999 42.9102016,102.476783 43.0734038,102.531804 L43.0734038,102.678068 L43.2815768,102.678068 C43.203284,102.784932 43.1131552,102.913134 43.0508987,102.998725 C42.8364405,103.293569 42.7989126,103.393846 42.6064213,103.696293 C42.4580329,103.929445 42.4815787,104.235331 42.4151272,104.52325 C42.381031,104.670978 42.3286785,105.030622 42.2857224,105.288325 C42.2148437,105.713543 42.0049945,105.772722 41.841245,106.0534 C41.7320121,106.240631 41.2918611,106.180597 41.0141795,106.244669 C40.684799,106.320669 40.6002948,106.533788 40.3784081,106.689088 C40.1422585,106.854371 39.9279713,107.235798 39.8045259,107.386656 C39.6725303,107.547961 39.2884658,107.8119 39.1068652,107.960463 C38.901906,108.128135 38.8633699,108.364361 38.7242771,108.59615 C38.579016,108.838222 38.4939824,109.056681 38.3416889,109.361225 C38.1946617,109.655241 38.2243613,109.904933 38.1503949,110.250063 C38.0748279,110.602665 37.933146,110.684503 37.7678067,111.015138 L37.3852186,111.780213 C37.226359,112.097891 37.2014755,112.230142 37.070146,112.545289 C37.0589871,112.572068 37.0104317,113.324922 37.0026305,113.434126 C36.9871001,113.651514 36.6201378,114.145983 36.5581531,114.261082 C36.3988578,114.556878 36.3924321,114.678142 36.3049698,114.89677 C36.2529702,115.026753 36.0572381,115.339252 35.9842709,115.470576 C35.8137338,115.777503 35.7921685,115.903269 35.6691983,116.17377 C35.5260978,116.488549 35.5237807,116.848549 35.4779043,117.062608 C35.4056861,117.399585 35.433904,117.583894 35.4103887,117.889564 C35.3852405,118.216426 35.4103887,118.381156 35.4103887,118.654639 C35.4103887,119.068529 35.2774677,119.208748 35.224721,119.419715 C35.1484788,119.724641 35.0496036,119.799613 34.9659114,119.987895 C34.9009902,120.133949 34.472045,120.174477 34.4595447,120.179164 C34.1909084,120.27989 34.3395525,120.320885 34.1388458,120.561702 C33.9580662,120.778609 34.1388458,121.376529 34.1388458,121.579927 C34.1388458,121.926209 34.2668193,122.21971 34.3301399,122.536271 C34.3880412,122.825741 34.4875106,123.266819 34.521434,123.425108 C34.6055836,123.817759 34.8913436,123.735202 34.9040221,123.745765 C35.018415,123.841081 35.5662848,123.564149 35.6016828,123.554496 C35.6835639,123.532167 35.7756191,123.554496 35.8604924,123.554496 L35.9223817,123.554496 C36.2532007,123.554496 36.1970313,124.059829 36.3049698,124.25769 C36.4388306,124.503069 36.4422478,124.850609 36.4962639,125.084647 C36.6251231,125.642964 36.7136261,125.178594 36.9407412,125.275915 C37.1297074,125.356891 37.557007,124.708588 37.6384019,124.634602 C37.9061308,124.391245 38.3302023,124.761902 38.3416889,124.76399 C38.5789224,124.807119 38.9349022,124.851135 39.2306437,124.893378 C39.4088595,124.918834 39.7670971,124.893378 40.0577092,124.893378 C40.4128896,124.893378 40.4894342,124.46171 40.6934806,124.25769 C40.9704997,123.980706 41.1128746,123.88366 41.3348784,123.683884 C41.3696768,123.65257 41.9349854,123.981086 41.9706498,123.998915 C42.2441922,124.135669 42.2958209,124.368905 42.4770165,124.572721 C42.70254,124.826402 42.8331727,124.847819 43.0508987,125.01714 C43.2148696,125.144655 43.8881311,125.01714 43.9398534,125.01714 L44.8344345,125.01714 C45.076358,125.01714 44.7067941,124.552939 44.6431404,124.319571 C44.5703478,124.052704 44.091911,124.278905 43.8160749,124.25769 C43.6749242,124.246833 43.4899046,123.768499 43.4334868,123.683884 C43.3449388,123.551079 43.6110383,123.237251 43.6866701,123.048196 C43.7562687,122.874224 44.149744,122.634753 44.2605523,122.536271 C44.4729958,122.347456 44.566621,122.098284 44.7050297,121.900583 C44.8702231,121.664625 45.0424724,121.523119 45.2170226,121.326777 C45.4894812,121.020301 45.5370247,121.423328 45.852794,121.518046 C45.9753159,121.554798 46.3924017,121.819664 46.4266762,121.838702 C46.7048007,121.993195 47.105654,121.882461 47.3775202,121.900583 C47.6542908,121.919034 47.8285871,122.291697 47.8895132,122.345002 C47.9938652,122.436298 47.5518454,122.965854 47.5069251,123.048196 C47.3187943,123.393058 47.254849,123.334637 47.0624477,123.554496 C46.8041548,123.849648 47.2255508,123.880661 47.2537417,123.937034 C47.3683975,124.166315 47.7180039,123.722454 47.9514024,123.616377 C48.334032,123.442478 48.1254647,123.312106 48.2721013,123.048196 C48.5707433,122.510712 48.526111,122.981889 48.7784679,122.918809 C49.078183,122.843889 49.3759968,123.087096 49.673049,123.171959 C49.8184721,123.213503 50.3678128,122.850476 50.5001145,122.789421 C50.8537051,122.626246 50.9660204,122.789421 51.2652908,122.789421 C51.5134815,122.789421 51.7388898,123.319949 51.8335466,123.425108 C52.0281751,123.641335 52.2472333,123.838742 52.4074288,123.998915 C52.8152516,124.406684 52.5950645,123.811306 52.6606122,123.745765 C52.7375547,123.668834 52.3005814,123.280518 52.2161348,123.171959 C52.0096074,122.906458 51.8143344,122.891298 51.5803633,122.72754 C51.3241103,122.548186 51.1258306,122.437819 50.8827026,122.283121 C50.6139259,122.112104 50.5500688,122.00126 50.432599,121.900583 C49.9409183,121.479198 50.6837712,121.499887 50.7532978,121.388658 C50.842557,121.245865 51.4746826,121.835558 51.5803633,121.900583 C51.8711609,122.079514 52.0113124,122.372878 52.2161348,122.598152 C52.3810276,122.779511 52.6764306,122.925379 52.8519062,123.048196 C53.0736291,123.203382 53.3279899,123.389278 53.5551932,123.554496 C53.6966968,123.657394 53.8918149,123.46754 54.0615598,123.425108 C54.3832147,123.344705 54.6366375,123.737724 54.7648468,123.807646 C54.9365812,123.901307 55.0607972,124.062893 55.2093242,124.190184 C55.2197306,124.199104 55.8878321,124.089273 56.0363897,124.066421 C56.2177653,124.038521 56.5701533,124.382137 56.6721612,124.443334 C56.8725113,124.563528 57.0414442,124.950326 57.1841541,125.146528 C57.4099711,125.456984 57.7282124,125.478693 58.0112196,125.652827 C58.1714547,125.751421 58.6802969,125.606649 58.9001744,125.590946 C59.2592545,125.565301 59.3626883,125.267793 59.5359458,125.146528 C59.6695582,125.053012 59.7417494,124.944821 59.8116343,124.825871 C59.8120862,124.825101 59.8168087,124.826643 59.8172606,124.825871 L59.9916758,124.825871 C59.9085128,125.077442 59.8249916,125.348403 59.8003817,125.382801 C59.5710017,125.703398 59.7820751,125.309582 59.9804232,126.102872 C60.0704439,126.462907 60.7005891,126.282889 61.060672,126.372898 C61.5112132,126.485519 61.5135375,126.825704 61.7808379,127.092969 C62.0097192,127.32182 62.3051331,127.486139 62.5010038,127.633022 C62.6844714,127.770606 62.5010038,128.198631 62.5010038,128.62312 C62.6755918,128.62312 63.4792897,128.644084 63.8513148,128.803137 C64.349684,128.893738 63.7755876,129.560302 63.7612941,129.703226 C63.7222881,130.09324 63.7612941,130.389977 63.7612941,130.693323 C63.7612941,130.933346 64.2414053,130.693323 64.48146,130.693323 C64.5092224,130.693323 65.0087492,129.940151 65.1116051,129.793235 C65.3861846,129.40103 65.7294516,129.17547 66.0118125,128.893146 L66.1918539,128.713128 C66.2396189,128.66537 66.1638395,128.685118 65.831771,128.353093 C65.3232349,127.844624 65.6674598,127.819151 65.4716881,127.182978 C65.3946249,126.932555 65.8150397,126.359041 65.9217917,126.102872 C66.0849345,125.711378 66.3480993,125.372155 66.5519369,125.022766 C66.7031339,124.763607 66.9120198,125.502813 67.0920613,125.742836 C67.2859714,126.001349 67.332116,126.342895 67.4521442,126.642925 C67.5825843,126.968984 68.1122969,126.402902 68.4423723,126.282889 C68.586166,126.230607 68.742442,126.342895 68.892476,126.372898 C68.988764,126.392153 69.8640986,126.291941 69.9727248,126.282889 C70.3214544,126.253833 70.5728625,126.642925 70.8729322,126.822943 C70.9396609,126.862975 71.4577123,127.082811 71.6831188,127.182978 C72.016705,127.331219 71.803147,127.903049 71.8631603,128.263084 C71.9123188,128.558 72.4647112,128.864556 72.6733469,129.073164 C72.9849915,129.384767 73.2745756,128.854565 73.663575,128.713128 C74.4853779,128.41433 73.9541799,128.742185 74.5637823,128.803137 C74.9751825,128.844271 75.1161676,128.582212 75.4639897,128.443102 C75.9258465,128.258384 76.0541854,128.067572 76.4542178,127.81304 C76.9345324,127.507426 77.0409981,127.587386 77.6244873,127.362996 C78.0689161,127.192085 78.7425575,127.26773 79.0479402,127.295489 C79.351762,127.074557 79.9264562,126.737211 80.2350887,126.462907 C80.2707225,126.431237 80.7450669,125.807158 81.0452753,125.742836 C81.4478444,125.656583 81.9889266,125.504469 82.3055656,125.47281 C82.6493764,125.438434 82.5498548,125.300823 83.2057729,125.382801 C83.5924336,125.431127 84.2994258,125.616147 84.6461047,125.562819 C85.0185403,125.505528 85.6261748,125.699756 85.8163743,125.382801 C85.9246998,125.202283 86.0860782,124.669902 86.3564987,124.482712 C86.4425657,124.423136 87.1701421,123.214174 87.5267682,123.672633 C87.7936905,124.015773 87.6174569,124.286572 88.1569134,124.482712 C88.658003,124.664903 88.7597246,124.631457 89.1471415,124.842748 C89.2682284,124.908786 89.6423599,125.787754 90.1373695,125.382801 C90.467445,125.112774 90.7230048,124.437875 91.1275976,124.572721 C91.3976598,124.66273 91.6631436,124.917641 91.9377843,124.842748 C92.2678597,124.752739 92.845033,124.24085 92.9280123,124.572721 C93.0039988,124.876624 93.2449249,124.608527 93.1080538,125.292792 C93.0480406,125.592822 92.6438871,126.079246 92.9280123,126.192881 C92.9609473,126.206052 93.6758776,126.299044 93.8282197,126.552916 C93.9691184,126.787717 94.0707734,127.25465 94.3683441,127.453004 C94.5512068,127.574896 94.7540938,128.417439 95.1785307,127.993058 C95.4900709,127.681559 95.7782453,127.758549 95.8086759,127.362996 C95.8445311,126.896939 95.8789533,126.469255 95.8986966,126.192881 C95.9169222,125.937758 96.1185236,125.010631 95.9887173,124.932757 C95.955028,124.912546 95.1659188,124.503272 95.08851,124.392704 C95.0249932,124.301978 94.0954931,124.010936 94.4583648,123.492615 C94.5615052,123.34529 95.0513206,122.741264 95.08851,122.592527 C95.1632308,122.293679 95.7838914,121.562139 95.4485929,121.152385 C95.1316767,120.765093 95.3472224,120.280408 94.6384063,120.162288 C94.4600554,120.132567 93.5870307,120.061661 93.5581575,119.98227 C93.4381292,119.652238 93.3994869,119.279866 93.1980746,118.992173 C92.9880256,118.692142 92.4270524,118.430145 92.5679294,118.092084 C92.8098655,117.511513 92.6658828,117.464685 93.0180331,117.011978 C93.0642605,116.95255 93.5880498,116.231957 93.6481782,116.201898 C94.0108772,116.020574 93.9533827,115.79 94.3683441,115.841863 C94.7759976,115.892813 95.0053434,116.114815 95.08851,115.931872 C95.261348,115.551676 95.2060465,115.207794 95.5386137,114.941774 C95.8232754,114.714075 96.0708199,114.278312 96.438821,114.221703 C96.8547258,114.157727 97.2941584,114.242071 97.6090906,114.041686 C98.1093448,113.723384 98.2941088,113.84758 98.5993187,113.411624 C98.8793462,113.011637 99.0049269,112.885715 99.2294638,112.511535 C99.4444675,112.153244 99.6702612,112.256988 99.7695882,111.611447 C99.8349181,111.186861 99.8141341,110.667128 99.9496297,110.441332 C100.066399,110.246743 100.176151,109.541243 100.489754,109.541243 C100.546098,109.541243 101.283852,109.565727 101.389961,109.541243 C101.662676,109.478318 102.473192,109.532298 102.560231,109.271217 C102.675425,108.925678 103.005481,108.744625 102.920314,108.19111 C102.846267,107.709869 102.830225,107.410734 102.740273,107.020995 C102.670458,106.718501 102.583725,106.267042 102.47021,105.85088 C102.287463,105.180892 102.864013,105.116082 102.200148,104.860783 C101.749762,104.687581 101.37569,104.583622 101.029879,104.410739 C100.740221,104.265929 100.251689,104.046864 99.9496297,103.870686 C99.6892861,103.718839 98.9744963,103.608475 98.8693809,103.240624 C98.744974,102.805254 98.814128,102.361486 98.5092979,101.9805 C98.1943874,101.586913 98.3289864,101.234636 97.7891321,101.080411 C97.4010185,100.969537 96.824297,101.015792 96.5288418,100.720376 C96.2496605,100.441231 95.8962048,100.300854 95.7186551,99.9102961 C95.5852786,99.6169069 95.5216988,99.2295592 95.2685515,98.9201988 C94.9973478,98.5887718 94.8180931,98.3257515 94.4583648,97.9301014 C94.290667,97.7456589 93.9276692,96.9092156 93.5581575,96.9400041 C93.4892448,96.9457466 92.6049099,97.1146698 92.4779087,97.0300129 C92.2096775,96.8512157 91.6030764,96.6864887 91.3976598,96.3099421 C91.2240891,95.9917698 91.1549567,95.8296423 90.8575354,95.3198448 C90.659407,94.9802414 90.4601659,94.6054823 90.2273903,94.2397385 C90.0437138,93.9511414 89.7152101,93.6034894 89.5972451,93.2496412 C89.4961699,92.9464572 89.4541608,92.5221104 89.2371622,92.169535 C89.0201834,91.8169901 88.7037947,91.4352248 88.5169963,90.9994199 C88.4198855,90.7728586 87.8950304,89.9643325 87.9768719,89.739296 C88.081566,89.4514261 88.1622966,89.1275743 88.3369548,88.7491986 C88.3822731,88.6510224 88.9515516,87.7131176 88.8770793,87.5790836 C88.7800477,87.4044502 88.6171048,87.0677379 88.4269756,86.7690039 C88.1633391,86.3547742 88.1733566,86.155383 87.7968304,85.7789066 C87.4082469,85.3903744 87.224682,85.2396347 86.8966231,84.8788181 C86.6638133,84.6227609 86.2327886,84.192587 85.9964157,83.8887207 C85.8320091,83.6773691 85.3662706,83.3630906 85.3662706,83.078641 C85.3662706,83.0150354 85.5045316,82.3057837 85.3662706,82.0885437 C85.1869385,81.8067746 85.1085592,81.4211803 84.7361254,81.0984463 C84.7136148,81.0789396 84.6917326,81.0530225 84.6686099,81.0309397 L84.6686099,80.7552876 C85.0385123,81.0575895 85.2573419,81.2406531 85.3662706,81.4584817 C85.6302636,81.986398 85.9878367,81.5714788 86.3564987,81.6384994 L87.3467268,81.8185171 C87.6827508,81.8796043 88.0808531,81.1512167 88.3369548,80.9184286 C88.6018445,80.6776514 88.8307258,80.4247229 89.0571207,80.1983578 C89.3961334,79.8593899 89.7031239,79.6698781 90.0473488,79.3882782 C90.4476368,79.0608134 90.6557468,79.0011681 91.0375769,78.7582162 C91.5709372,78.4188504 91.7596674,78.6550733 92.2978672,78.5781985 C92.673007,78.5246144 93.1724006,78.7239354 93.378116,78.7582162 C94.0170202,78.8646859 94.0503495,78.3915922 94.3683441,78.2181631 C94.5286872,78.1307159 94.9542711,77.7625023 95.1785307,77.5881012 C95.5795605,77.2762313 95.711963,77.1080749 96.0787381,76.7780215 C96.4891192,76.4087278 96.5825265,76.2742996 96.798904,76.0579507 C97.1455054,75.711395 97.3778939,75.768493 97.6991113,75.6079064 C98.0467804,75.4340957 98.3130113,75.328897 98.6893394,75.1578622 C98.7296003,75.1395634 99.5197231,74.9087789 99.5895468,74.8878356 C99.9108848,74.7914469 99.8896165,74.2877772 100.03965,73.9877471 C100.147333,73.7724099 101.059416,73.7692542 101.299941,73.7177206 C101.771361,73.6167144 102.098468,73.4106356 102.47021,73.2676763 C102.707608,73.1763821 103.312788,73.0570592 103.550459,72.9976498 C104.109292,72.8579596 103.929319,72.7030202 104.360646,72.3675878 C104.755792,72.0602922 104.854467,72.0384164 105.170832,71.8275347 C105.315049,71.7314034 106.416953,71.8275347 106.521143,71.8275347 C106.783304,71.8275347 107.319213,71.1093667 107.421351,71.017455 C107.5732,70.880809 108.227643,70.504428 108.411579,70.3873931 C108.831427,70.1202522 108.411579,69.7790143 108.411579,69.4873046 C108.411579,69.1113682 108.051496,68.8272391 107.871454,68.4972072 C107.676016,68.1389522 108.651634,68.2571842 109.041724,68.1371718 C109.326108,68.0496814 109.844529,68.3378466 110.121973,68.4071984 C110.738809,68.5613871 110.498634,68.6164257 110.932159,68.8572426 C111.274166,69.0472207 110.992173,69.6373187 111.02218,70.0273577 C111.035491,70.2003709 111.79629,70.2208605 112.102429,70.2973842 C112.257983,70.3362681 111.823599,71.064067 111.742346,71.2874816 C111.597668,71.6852901 112.51985,71.9235363 112.732574,72.0975613 C113.195974,72.4766569 113.445239,71.8837902 113.632781,71.8275347 C113.936927,71.7363035 114.066415,70.9603822 114.172906,70.7474285 C114.391786,70.3097245 114.413828,69.9043102 114.532989,69.4873046 C114.627496,69.1565725 114.728426,68.7056641 114.803051,68.4071984 C114.908546,67.9852729 114.803051,67.7979159 114.803051,67.2370833 L114.803051,65.8869506 C114.803051,65.5641212 115.045805,65.1587879 115.163134,64.8068443 C115.311097,64.3630107 114.971066,63.8466281 114.893072,63.4567116 C114.846203,63.2224023 114.477441,62.6948209 114.352947,62.4666142 C114.16091,62.1145932 114.650477,61.8716341 114.803051,61.5665257 C114.813218,61.0302692 114.341219,60.6972886 113.992864,60.1263841 C113.870393,59.9767174 112.92423,59.9620009 112.822595,59.9463664 C112.520014,59.8998228 112.244853,59.8285322 111.984277,59.7607231 L111.984277,59.3388067 C112.327022,59.364533 112.1566,59.2082398 112.372491,59.1362867 C112.429008,59.1174497 112.538248,58.1418798 112.552533,58.0561805 C112.614499,57.6844332 111.93359,57.5060824 111.742346,57.3361097 C111.376133,57.0106287 111.626277,57.0266323 111.472284,56.6160389 C111.257583,56.0435808 111.031641,56.0653072 110.752118,55.7159504 C110.380761,55.2518162 110.682912,55.1623816 110.662097,54.9958796 C110.648603,54.8879356 111.138348,54.202232 111.202222,54.0957911 C111.42362,53.726843 111.328335,53.2131067 111.382263,52.8356672 C111.417861,52.5865137 111.648553,52.0369016 111.742346,51.755561 C111.811563,51.5479358 111.607823,50.814018 111.562305,50.4954371 C111.539216,50.3338388 111.624041,49.6312495 111.652325,49.2353132 C111.698605,48.5874763 111.602637,48.6391305 111.562305,48.1552069 C111.552861,48.041911 110.603888,47.6325039 110.572076,47.6151538 C110.371228,47.5056149 110.218506,46.8374018 110.121973,46.6250565 C109.897373,46.1309997 109.949778,45.8215871 109.851911,45.3649326 C109.792907,45.0896207 110.301697,44.6903414 110.392035,44.5548529 C110.630491,44.1972171 110.513307,43.7060551 110.572076,43.294729 C110.614199,42.9999104 109.992816,42.4983505 109.851911,42.3046316 C109.572942,41.9211003 109.243453,41.7570916 108.951703,41.494552 C108.569554,41.1506624 108.490466,40.8604342 108.231537,40.5044546 C107.999489,40.1854291 107.422955,40.0691214 107.061268,39.8743927 C106.654813,39.6555614 106.342211,39.2752578 105.981019,38.9743042 C105.611433,38.6663569 105.462267,38.6861462 105.170832,38.5242599 C104.588454,38.2007591 105.170832,37.9835263 105.170832,37.4441537 C105.170832,37.1603954 105.93383,36.6812567 106.07104,36.5440652 C106.487416,36.1277437 106.464038,35.7581727 106.701185,35.2839413 C106.882051,34.9222569 107.128268,34.6128983 107.33133,34.2938439 C107.577465,33.9071101 107.627811,33.5230927 107.781434,33.1237289 C108.053233,32.417145 108.359478,32.1329258 108.411579,32.0436227 C108.429734,31.9347047 108.068231,31.0823749 107.961475,30.7834987 C107.724659,30.120499 107.659936,30.4455911 107.393219,30.3953356 C107.402974,30.3749144 107.410687,30.3530026 107.421351,30.3334545 C107.47927,30.2272837 107.558312,29.9226271 107.691413,29.5233748 C107.763127,29.3082591 107.322139,28.6372341 107.241309,28.4432686 C107.067778,28.0268481 107.181269,27.5427913 107.151289,27.0931359 C107.135139,26.8509166 106.840784,26.2393605 106.791206,26.1030385 C106.651484,25.7188573 106.648298,25.2457078 106.611164,25.0229323 C106.605338,24.9879837 106.604771,24.9803923 106.599912,24.9498001 C106.563251,24.8870819 106.512082,24.7752585 106.431123,24.572888 C106.72923,23.79791 105.896922,23.9794111 105.620936,23.6727995 C105.494914,23.5327944 104.688541,23.9835569 104.540687,24.0328349 C104.32571,24.1044838 103.965682,23.2936391 103.910542,23.2227553 C103.624791,22.8554094 103.209473,23.0609914 102.740273,22.9527287 C102.299558,22.8510385 102.409111,22.345682 102.200148,21.9626314 C101.971859,21.544155 101.885104,21.332627 101.750044,21.0625429 C101.615181,20.7928493 101.690031,20.4624845 101.660024,20.1624544 C101.65652,20.1274139 101.016156,19.19678 100.939858,19.0823481 C100.848949,18.9460045 101.295692,18.0067586 101.373083,17.8391009 C101.576917,17.3975175 100.955268,17.3220072 100.759816,17.1021534 C100.579228,16.8990179 99.8264597,17.030366 99.5895468,17.0121446 C99.2844359,16.9886775 98.9894091,16.8921322 98.6893394,16.8321269 C98.3538519,16.7650379 98.2692432,17.37218 98.0591943,17.6422065 C97.8232715,17.945495 97.5790831,17.0421481 97.3390284,16.742118 C97.1071638,16.4523255 96.6188625,16.5621003 96.2587796,16.4720915 C96.1368411,16.4416109 95.4928651,16.0543748 95.2685515,15.9320384 C94.9410434,15.7534212 94.5688113,15.6140173 94.2783234,15.4819941 C93.7738292,15.2527092 94.2029274,14.954292 94.1883026,14.8519322 C94.1572203,14.6343887 94.2233225,14.5367878 94.2783234,14.0418525 C94.3061956,13.7910392 93.962158,13.0934832 93.9182404,12.9617463 C93.8150011,12.6520714 93.4976077,13.2621589 93.2880953,13.4117905 C93.1103331,13.5387473 92.8679991,13.2917787 92.6579501,13.2317728 C92.328982,13.1377946 92.1178257,13.6518141 91.8477635,13.8618348 C91.7442811,13.9423101 90.8837513,13.4602162 90.7675147,13.4117905 C90.4826693,13.2931209 90.1678794,13.5208008 89.7772866,13.5918082 C89.4176214,13.6571932 89.4726996,13.9978717 89.2371622,14.3118791 C88.9916829,14.6391426 88.9585318,15.078011 88.8770793,15.3019764 C88.7385824,15.6827913 88.4461698,15.9913416 88.4269756,16.0220472 C88.2632369,16.2839928 88.1269059,15.4819941 87.9768719,15.2119676 C87.8988329,15.071516 88.4511479,14.2635391 88.5169963,14.1318614 C88.6642144,13.8374649 89.1838663,13.5317569 89.4172037,13.3217817 C89.7168143,13.0521679 90.1971019,13.0818446 90.5874732,12.9617463 C91.0253251,12.8270403 91.4624964,12.774266 91.8477635,12.6917197 C92.2987602,12.5950904 92.6872933,12.3688666 93.0180331,12.2416755 C93.1867121,12.1768077 92.1151881,12.2416755 91.9377843,12.2416755 C91.5757623,12.2416755 91.1036953,12.3608153 90.677494,12.4216932 C90.1528675,12.4966299 89.9518962,12.1194004 89.5972451,11.9716489 C88.9743881,11.7121595 89.1890821,12.0124598 88.6970378,12.0616578 C88.2879079,12.1025654 88.1015146,12.5909419 87.8868512,12.7817286 C87.6193473,13.0194789 87.6949972,13.67693 87.616789,14.0418525 C87.5912789,14.1608809 86.8573938,14.8011483 86.8066023,14.8519322 L86.0864365,15.572003 C85.671882,15.9865027 85.5618982,16.213019 85.2762498,16.5621003 C85.0292293,16.8639738 85.2762498,17.3421764 85.2762498,17.7322154 C85.2762498,18.0322455 84.6761122,17.7322154 84.3760425,17.7322154 C84.3533285,17.7322154 83.9481505,16.7909784 83.9259388,16.742118 C83.7669244,16.3923328 83.4458276,17.3421764 83.2057729,17.6422065 C82.8388538,18.1007944 82.6122482,17.7608958 82.3055656,17.8222242 C81.9512512,17.8930774 81.5853997,17.7622189 81.2253167,17.7322154 C80.9496228,17.7092433 80.6851923,17.8522278 80.4151301,17.9122331 C79.873488,18.0325821 79.8324997,18.2829489 79.424902,18.542295 C79.2271805,18.6681022 79.7249718,18.9023304 79.8750057,19.0823481 C80.3009874,19.593458 79.8035437,19.5110675 79.6949642,20.1624544 C79.6592476,20.3767312 79.4571169,20.8164515 79.3348813,21.1525517 C79.1112788,21.7673752 78.964653,21.6284969 78.7047362,21.9626314 C78.5608524,22.1476014 78.3446532,21.6626013 78.1646117,21.5125871 C77.9325815,21.3192535 77.6025295,20.9505791 77.5344666,20.8825252 C77.4395541,20.7876252 76.7025058,21.2606397 76.5442385,21.3325694 C76.1552067,21.5093792 76.4215078,21.3325694 76.2741763,21.3325694 C75.7275182,21.3325694 76.0683277,21.2443607 75.6440312,21.0625429 C75.3130627,20.9207177 75.6440312,20.3424721 75.6440312,19.9824367 C75.6440312,19.2244469 74.8173059,20.0575832 74.6538031,20.0724455 C74.6259038,20.074982 73.9961494,20.9766006 73.9336372,21.0625429 C73.7483313,21.3173057 73.1561821,21.698558 72.9434091,21.8726225 C72.5619804,22.184658 72.3592501,22.4567044 72.0432017,22.772711 C71.468603,23.3472339 71.8949142,23.1568202 71.7787658,23.5546629 C71.6375341,23.3189009 71.4936702,23.0909049 71.4130566,22.9527287 C71.2660815,22.7008066 71.2669817,22.7579892 71.1429944,22.5926933 C71.0058784,22.4098962 71.3230359,22.1726526 71.4130566,21.9626314 C71.653664,21.4012876 71.7085443,21.5827688 72.0432017,21.1525517 C72.284641,20.8421706 72.4526557,20.6846659 72.6733469,20.4324809 C72.7931483,20.2955828 72.4146453,19.7858141 72.3132639,19.5323924 C72.2341069,19.3345241 71.8117098,19.2458276 71.6831188,19.172357 C71.3404405,18.9765679 71.803147,18.3922809 71.8631603,18.0022419 C71.9977971,17.1272191 72.2755363,18.1396819 72.4032847,18.1822596 C73.2393955,18.460927 72.6038527,18.159977 73.2134713,18.0922508 C73.589758,18.0504471 73.6886638,17.3456184 73.8436164,17.1021534 C74.0769934,16.7354682 74.3254488,16.499942 74.5637823,16.2020649 C74.7687505,15.9458889 74.8213767,15.6869443 75.013886,15.3019764 C75.0979096,15.1339533 74.856897,14.3601695 74.8338445,14.2218702 C74.7320383,13.6111117 74.5631018,13.6804574 74.3837409,13.3217817 C74.2442033,13.0427435 73.3939143,13.3217817 73.303492,13.3217817 C72.8441576,13.3217817 72.8480555,13.9723187 72.6733469,14.2218702 C72.3923184,14.6232859 71.8140954,14.5798444 71.5930981,14.6719145 C71.3075793,14.7908649 71.2005464,14.5247268 70.8729322,14.4018879 C70.5983995,14.2989522 70.2088924,14.0397321 69.8827041,13.8618348 C69.3584539,13.5759177 69.5055514,13.4847314 69.0725175,13.0517551 C68.7708418,12.7501189 68.3538873,12.7523655 67.9922686,12.6017109 C67.3512706,12.3346635 67.6610554,13.0984663 67.4521442,13.4117905 C67.2200762,13.7598456 66.8662155,13.9976411 66.7319784,14.1318614 C66.623786,14.2400385 66.4319086,14.1918672 66.2818747,14.2218702 C65.8948593,14.2992631 66.4019029,13.4417936 66.4619161,13.0517551 C66.5146287,12.7091653 65.8842099,12.4741251 65.7417503,12.3316843 C65.4407191,12.0306926 65.0061314,12.3316843 64.6615014,12.3316843 C64.2409768,12.3316843 63.7510515,12.4530616 63.3111904,12.511702 C62.9530285,12.5594507 63.8513148,12.0316548 64.121377,11.7916312 C64.5576139,11.4039158 64.121377,11.2873984 64.121377,10.9815516 L64.121377,9.90144537 C64.121377,9.35221838 63.7211844,9.66136206 63.6712733,9.63141881 C63.3835959,9.45883476 63.3712036,10.2314778 63.2211697,10.5315073 C63.0810668,10.8116777 62.621032,10.711525 62.3209623,10.8015339 C62.0892417,10.8710409 61.8408511,10.741528 61.6007964,10.711525 C61.5710212,10.7078037 61.5407832,10.711525 61.5107757,10.711525 C61.180315,10.711525 61.5749389,10.6858631 61.9608794,10.5315073 C62.4093861,10.3521281 62.5978697,9.89460163 62.8610867,9.63141881 C63.1863965,9.30615203 63.3627219,9.24130965 63.6712733,9.00135686 C63.8750281,8.84290186 64.0913695,8.7013273 64.3014185,8.5513126 C64.5350403,8.20092669 64.3614317,7.71122994 64.3914392,7.29118869 C64.4311006,6.73600132 64.2376262,6.77854544 64.121377,6.39110019 C64.0103797,6.02115877 63.3093756,6.05281092 63.0411282,5.94105593 C62.679812,5.79052747 61.8974832,5.94105593 61.7808379,5.94105593 C61.3053106,5.94105593 61.2187988,5.49148459 60.8806306,5.22098513 C60.3727228,4.81471254 60.4856052,5.22098513 59.9804232,5.22098513 C59.6385244,5.22098513 59.4940664,5.91568784 59.3502781,6.12107363 C58.911436,6.74790769 59.0977951,6.26533046 58.7201329,6.48110904 C58.6307315,6.53218852 57.7754067,5.93009159 57.6398841,5.85104708 C57.3041986,5.65525677 56.6753983,5.43775056 56.3795938,5.31099398 C55.9970615,5.14707364 55.7094488,4.97596609 55.299345,4.77094087 C54.7077557,4.47518565 54.6254317,4.77094087 54.3991376,4.77094087 C54.1410085,4.77094087 54.0990679,5.19098212 53.9490339,5.40100283 C53.920708,5.44065371 53.0051989,4.80045945 52.9588058,4.77094087 C52.7010225,4.60691864 52.0130498,4.55271837 51.7885363,4.50091432 C51.747575,4.49146321 51.708524,4.48396511 51.6760104,4.48396511 Z M50.3031941,7.17305208 C50.2900781,7.17108322 50.2756262,7.17417719 50.2581838,7.17867763 C50.0488856,7.23268294 49.5380179,7.69622852 49.2679557,7.8312418 C48.9316634,7.99936537 49.9281083,8.1912772 50.2581838,8.3712949 C50.5753952,8.54429624 50.318197,7.6512241 50.3482045,7.29118869 C50.3617076,7.21693139 50.3425422,7.17895882 50.3031941,7.17305208 Z M48.4071324,7.58371746 C48.3005317,7.55722659 48.2027115,8.35254318 48.0976861,8.64132146 C47.9402129,9.07431641 48.2057038,9.18134126 48.2777276,9.54140996 C48.3306904,9.80619278 48.817852,9.54140996 49.0879142,9.54140996 C49.3298377,9.54140996 49.5080104,9.30138642 49.7180594,9.18137456 C50.0924628,9.38556774 49.0579067,8.64132146 48.7278313,8.3712949 C48.529404,8.20896736 48.5477898,7.89124764 48.4577691,7.6512241 C48.4423539,7.6101221 48.4223603,7.58750179 48.4071324,7.58371746 Z M97.4628069,7.9156251 C97.1850389,7.93722344 96.8834442,8.02426416 96.798904,8.0112595 C96.168658,7.91431133 96.2311972,8.45275129 95.9887173,8.64132146 C95.8037229,8.78518656 95.6886476,9.00135686 95.5386137,9.18137456 C94.977311,9.85484814 95.6747376,9.52163952 95.7186551,9.63141881 C95.8350051,9.92225487 96.3187928,9.81143652 96.6188625,9.90144537 C96.8269994,9.96387803 96.9849858,10.1203991 97.1477343,10.2727319 C96.9714917,10.279977 96.6582466,10.7452783 96.438821,10.8915427 C96.2255007,11.0337374 95.9587098,10.711525 95.7186551,10.6215162 C95.4081862,10.5051057 95.1436477,11.1245807 94.9984893,11.2515781 C94.7677967,11.4534071 95.4024357,12.0593658 95.4485929,12.1516666 L95.8986966,13.0517551 C96.089654,13.433619 95.3926595,13.5577255 95.2685515,13.6818171 C95.0060978,13.9442357 95.4485929,14.4018879 95.5386137,14.7619233 C95.7279291,15.5190832 95.7633972,15.0187834 96.1687588,15.4819941 C96.2186465,15.5390021 97.2108983,15.802611 97.3390284,15.8420295 C98.221084,16.1133954 97.7464874,15.5251588 98.149215,15.2119676 C98.4264537,14.9963658 98.3892697,14.5519026 98.5092979,14.2218702 C99.3966341,13.626208 99.5164139,13.6880698 100.03965,14.1318614 C100.348013,14.2639988 99.9196222,14.7919263 99.859609,15.1219587 C99.7995957,15.4519906 100.754842,15.3231753 100.9061,15.0206988 C100.985723,14.8880104 101.45171,14.4358094 101.479982,14.4018879 C101.557218,14.3092179 101.168309,13.5448969 101.119899,13.4117905 C101.044338,13.2040226 100.428392,12.7971988 100.309713,12.6917197 C99.9350842,12.3587599 99.9119128,12.1235086 99.6795675,11.7916312 C99.3112135,11.26548 100.104293,10.9422926 100.219692,10.711525 C100.526828,10.0973331 99.7537752,10.0460174 99.5895468,9.81143652 C99.5532144,9.75953957 98.8027745,9.66840597 98.5993187,9.63141881 C97.9419062,9.51190506 98.194499,9.32784362 97.8791528,9.09136571 C97.6379008,8.91045008 97.939166,8.49130676 97.9691735,8.1912772 C97.994518,7.9378706 97.7405749,7.89402675 97.4628069,7.9156251 Z M51.3946956,10.0983397 C51.3804489,10.0975873 51.3639049,10.1000917 51.3496852,10.1039653 C51.103212,10.1711086 50.85579,10.8340676 50.7983082,10.8915427 C50.476981,11.2128281 50.9659502,11.1848776 51.1583911,11.5216047 C51.352501,11.8612533 51.8185438,11.1015634 52.1486192,10.8915427 C52.4675969,10.8915427 51.7285231,10.4114955 51.5184741,10.1714719 C51.4777289,10.1249123 51.4374338,10.1005971 51.3946956,10.0983397 Z M97.2546339,10.3683663 C97.282481,10.3923349 97.3100507,10.4197685 97.3390284,10.4414985 C97.7498578,10.7495802 97.6099494,10.7510823 97.9691735,11.1615693 C98.2051539,11.4312255 98.1100686,11.936386 98.149215,12.1516666 C98.2118136,12.4959143 97.7891321,11.5516077 97.6090906,11.2515781 C97.3802957,10.8703051 97.2709853,10.4261545 97.2546339,10.3683663 Z M53.1782314,11.0715604 C52.9754003,11.1156221 53.4764251,11.6903713 53.588951,11.9716489 C53.6978653,12.2438982 53.9012689,11.586372 54.0728124,11.2572037 C53.9767297,11.2612062 53.7983176,11.2128207 53.6170825,11.1615693 L54.1290754,11.1615693 C54.2310257,11.0086651 53.8307845,11.1192595 53.588951,11.1503182 C53.4522671,11.1117829 53.3202463,11.080697 53.228868,11.0715604 C53.20877,11.0695509 53.1917543,11.0686229 53.1782314,11.0715604 Z M54.1290754,11.1615693 C54.111705,11.1876209 54.0911299,11.2220552 54.0728124,11.2572037 C54.1373969,11.2545133 54.1695865,11.2324561 54.1290754,11.1615693 Z M75.2389378,11.1165649 C75.0201857,11.1354417 74.7143204,11.4547078 74.5637823,11.5216047 C74.2210914,11.6738917 74.383361,12.2431947 74.2937201,12.6017109 C74.2733844,12.6830458 75.0626952,13.0288628 75.1039067,13.0517551 C75.2831416,13.1513168 75.5947412,13.9514993 75.6440312,14.0418525 C75.8046804,14.3363366 75.7640594,13.3817875 75.8240726,13.0517551 C75.839567,12.9665457 76.4068273,12.9826393 76.7411589,12.9617463 C77.3623307,12.4959292 76.3538393,12.2209634 76.1841556,11.8816401 C75.9906254,11.4946317 75.6571184,11.4132241 75.3739689,11.1615693 C75.3358236,11.1276667 75.2894197,11.1122086 75.2389378,11.1165649 Z M102.526473,17.32155 C102.311351,17.3415633 102.160206,17.6802538 102.048238,17.7209643 C101.668786,17.927972 101.69132,19.4816436 102.132633,18.9923393 C102.326543,19.2508519 102.372687,19.5923977 102.492715,19.8924278 C102.634559,20.2469907 102.830293,19.3523747 103.100355,19.0823481 C103.497158,18.6855981 103.408817,19.3467077 103.730501,19.6224013 C104.090555,19.9309786 103.485484,20.5206752 103.460438,20.6124986 C103.370418,20.9425305 102.800286,20.4324809 102.47021,20.3424721 C102.328077,20.3037142 102.640178,21.3621445 102.650252,21.4225783 C102.718198,21.8301977 103.317583,21.8896486 103.550459,22.0526402 C103.743878,22.1880153 104.583242,21.9051193 104.810749,21.8726225 C105.648896,21.7529035 105.114058,21.645172 105.530915,21.3325694 C105.543972,21.3227783 105.786583,20.2248179 105.800978,20.1624544 C106.1681,20.0957128 104.900651,19.180411 104.810749,19.0823481 C104.637508,18.8933818 104.330638,18.9023304 104.090584,18.8123216 C103.886967,18.7471372 103.746414,18.4190369 103.460438,18.0922508 C103.172903,17.7636825 103.005045,17.6706709 102.762778,17.4284355 C102.675402,17.3410711 102.59818,17.3148789 102.526473,17.32155 Z M72.6733469,25.5236065 C72.8197602,25.9566391 72.8435347,26.303796 72.4933054,26.6430916 C72.4839559,26.655556 72.4746729,26.6658008 72.4651739,26.6768449 C72.5057715,26.5308254 72.5340578,26.3671353 72.6733469,26.1930474 C72.7868972,26.0511286 72.7444345,25.7726484 72.6733469,25.5236065 Z M25.8231804,78.8313484 C25.830359,78.8316454 25.8384544,78.830812 25.8456856,78.8313484 L25.8456856,78.836974 C25.8388438,78.835361 25.8306831,78.8323457 25.8231804,78.8313484 Z M25.834433,91.7082396 L25.8625645,91.7194907 C25.975119,91.7663817 26.0430242,91.7845779 26.0932426,91.7869974 L26.0932426,91.8713807 C25.9970315,91.838036 25.9200476,91.7711954 25.834433,91.7082396 Z" id="path1891" fill="#00ADB2" fill-rule="nonzero"></path>
            <path d="M85.1497262,45.6931743 L85.1497262,45.5332359 L84.754989,45.8153745 L84.5670189,45.9483568 L84.4491103,46.0651659 L84.3875927,45.9717188 L84.0389936,45.4865124 L84.0629173,45.4667446 L84.0714614,45.4397889 L84.0560819,45.4164269 L83.9005794,45.5817565 L83.7365326,45.7614627 L83.63913,45.8567069 L83.5383096,45.917807 L83.4409069,45.9375744 L83.382807,45.9375744 L83.3212895,45.9267923 L83.2478104,45.8854597 L83.194837,45.8692864 L83.11794,45.8692864 L82.9846522,45.9393715 L82.9829434,45.9142128 C82.9829434,45.9142128 82.9812345,45.8620981 82.9812345,45.8549098 C82.9812345,45.8477215 82.9624374,45.7992009 82.9624374,45.7992009 L82.9590197,45.7345066 C82.9590197,45.7345066 82.9521847,45.6410596 82.9521847,45.6356684 C82.9521847,45.6302771 82.9282611,45.5314389 82.9282611,45.5314389 L82.9009202,45.4397889 L82.8975025,45.3732975 L82.8616171,45.2960238 L82.7419999,45.3175886 C82.7419999,45.3175886 82.6275089,45.3211828 82.6223824,45.3211828 C82.617256,45.3211828 82.5711179,45.3409506 82.5711179,45.3409506 L82.3728948,45.3247769 L82.2806186,45.3768917 L82.1797982,45.4308035 L82.0328398,45.5206564 L81.8705019,45.5709741 L81.7816433,45.594336 L81.7252523,45.5979302 L81.6381025,45.6644215 L80.8896396,46.1370484 L80.8896396,46.2125247 L80.8828043,46.2951897 L80.8605897,46.4137958 L80.8862219,46.4102017 L80.999004,46.3850426 L81.0724833,46.3670719 L81.1784301,46.3329279 L81.188683,46.4155929 L81.1152037,46.4748956 L81.0126746,46.4874751 L80.8776779,46.5072429 L80.7802751,46.4748956 L80.7067959,46.4659105 L80.6059756,46.4605193 L80.5273699,46.428172 L80.517117,46.4012163 L80.4419289,46.4569252 L80.3616144,46.5413869 L80.2847175,46.6348339 L80.25225,46.6869487 C80.25225,46.6869487 80.2864264,46.7264843 80.2949704,46.7300784 C80.3035146,46.7336726 80.3223116,46.7696137 80.3223116,46.7696137 L80.3137675,46.810946 L80.2659205,46.8145401 L80.1958589,46.7696137 C80.1958589,46.7696137 80.1582649,46.7372667 80.1582649,46.7318755 C80.1582649,46.7264843 80.1702266,46.6456164 80.1702266,46.6456164 L80.1890236,46.6258489 L80.2590852,46.6186607 L80.2983881,46.5737342 C80.2983881,46.5737342 80.3599056,46.5090399 80.3616144,46.5036487 C80.3633232,46.4982575 80.4180054,46.4407515 80.4180054,46.4407515 L80.3581968,46.4443457 L80.3513615,46.4299691 L80.3359821,46.4012163 L80.4094614,46.3724631 L80.2983881,46.3275367 L80.2830087,46.3383191 L80.2625029,46.3724631 L80.2283265,46.4084046 L80.1804796,46.4299691 L80.1343414,46.451534 C80.1343414,46.451534 80.0933298,46.426375 80.0882033,46.4245779 C80.0830769,46.4227808 80.0403564,46.3904339 80.0403564,46.3904339 L79.9959271,46.3221455 L79.9412449,46.2538574 L79.9190302,46.2322925 L79.8797274,46.2143218 L79.8113746,46.1927573 L79.7652364,46.1460338 L79.7584011,46.1082952 L79.7225159,46.0633688 L79.6985925,46.043601 L79.7037189,46.0328189 L79.7276424,46.0058628 L79.7037189,45.9878921 L79.6575808,45.9878921 L79.6644161,45.9591393 L79.6815043,45.9285894 L79.7054278,45.8962421 L79.7259336,45.8495186 L79.7242248,45.8207658 L79.655872,45.7938097 L79.6459882,45.8264228 L79.6562411,45.8965083 L79.6408617,45.9342465 L79.5947236,45.9288553 L79.5229566,45.9288553 L79.5229566,45.8749434 L79.5127037,45.8102492 L79.4921979,45.7994739 L79.4153044,45.8372053 L79.4255573,45.8749434 L79.4716955,45.9180728 L79.4716955,45.9504126 L79.4204343,45.9719775 L79.3896755,45.9396377 L79.323035,45.923464 C79.323035,45.923464 79.2820233,45.9126816 79.266644,45.8965083 C79.2512646,45.8803347 79.2717704,45.8264228 79.2717704,45.8264228 L79.2512646,45.7617357 L79.2410117,45.6808682 L79.2,45.5892253 L79.2307587,45.5784429 L79.3230316,45.5029733 L79.399925,45.4382794 L79.4563161,45.341245 C79.4563161,45.341245 79.4819484,45.3574186 79.4973243,45.3574186 C79.5127003,45.3574186 79.5742178,45.3735852 79.5742178,45.3735852 L79.6049765,45.3142893 L79.6921229,45.2226464 L79.7587634,45.1579521 L79.7382576,45.0501356 L79.7485105,45.0177887 L79.8151511,44.931537 L79.9074239,44.8506691 L79.9894438,44.812931 L79.9894438,44.7644175 L80.0099496,44.7212881 L79.9433057,44.6619922 L79.8715387,44.5433861 L79.8407833,44.5272125 L79.7946452,44.5164304 L79.753637,44.4625257 L79.7741428,44.4301784 L79.7177552,44.3708754 L79.6459882,44.316971 L79.6562411,44.2738413 L79.6815043,44.1944258 L79.6900484,44.0758197 L79.6815043,43.9949521 L79.6319485,43.9518224 L79.6490367,43.8601724 L79.637075,43.782899 L79.6234044,43.7307842 L79.6985925,43.5762367 C79.6985925,43.5762367 79.7361865,43.4738043 79.7396041,43.4684131 C79.7430218,43.4630222 79.7703629,43.3767631 79.7703629,43.3713718 C79.7703629,43.3659806 79.7703629,43.3192571 79.7703629,43.3192571 L79.7686541,43.2455778 L79.9668771,43.1790865 L80.1172532,42.9562509 L80.2812999,42.7082567 L80.4743965,42.4135386 L80.6196461,42.2140649 L80.7631869,42.0271705 C80.7631869,42.0271705 80.8076163,41.982244 80.8076163,41.9768528 C80.8076163,41.9714616 80.8503367,41.9139556 80.8503367,41.9139556 L80.875969,41.9049706 L80.6606578,41.7881616 L80.5957227,41.7594084 L80.4761053,41.682135 L80.3547791,41.6174407 L80.3120586,41.6138466 L80.2932616,41.5599348 L80.2539588,41.5275878 L80.1907325,41.540167 L80.0369387,41.5922817 C80.0369387,41.5922817 79.9002332,41.6354115 79.8933979,41.6354115 C79.8865626,41.6354115 79.7891599,41.6497877 79.7891599,41.6497877 L79.6678337,41.6605701 L79.6815043,41.5383699 L79.6832131,41.4449228 L79.6832131,41.2777962 L79.6900484,41.1268431 L79.7003013,41.0369902 L79.7481482,40.8986163 L79.7652364,40.8159517 L79.7754894,40.673984 L79.7891599,40.5949132 L79.8079569,40.4349748 L79.8540951,40.2247188 L79.8814361,40.0827511 L79.9275743,40.1186922 C79.9275743,40.1186922 79.9651683,40.1690099 79.9702948,40.1708069 C79.9754212,40.172604 80.0403564,40.1977627 80.0403564,40.1977627 L80.1206709,40.2139363 C80.1206709,40.2139363 80.1821884,40.2193275 80.1873148,40.2193275 C80.1924413,40.2193275 80.2129471,40.2085451 80.2129471,40.2085451 L80.2351618,40.2013568 L80.2454147,40.1708069 L80.2454147,40.1456479 L80.2676294,40.113301 L80.2676294,40.0737657 L80.25225,39.9551596 L80.2214912,39.8760888 L80.2556676,39.8257711 L80.2625029,39.6927888 L80.3035146,39.613718 L80.327438,39.5058943 L80.3616144,39.4591708 L80.3616144,39.3801003 L80.3752849,39.3513472 L80.3718673,39.1932058 C80.3718673,39.1932058 80.3308556,39.0710056 80.3171851,39.0494411 C80.3035146,39.0278762 80.2830087,38.9775586 80.2830087,38.9775586 L80.2659205,38.955994 L80.129215,39.0314704 L80.0301034,39.0781939 L79.9822565,39.0781939 C79.9822565,39.0781939 79.9002332,39.1213237 79.8865626,39.1213237 C79.8728921,39.1213237 79.8489686,39.0710056 79.8489686,39.0710056 L79.8250451,38.9955293 L79.7840334,38.9919351 L79.797704,38.8841115 L79.7703629,38.8697349 L79.7737805,38.8337938 L79.7942864,38.8158231 L79.8489686,38.8445763 L79.9514978,38.8050407 L79.9856741,38.7439409 L80.1189621,38.7151877 L80.2283265,38.6397111 L80.327438,38.4779756 C80.327438,38.4779756 80.3752849,38.3845285 80.3889555,38.3773402 C80.4026261,38.3701523 80.4983199,38.3342108 80.4983199,38.3342108 L80.5871786,38.3198343 L80.6521137,38.3809344 L80.6828724,38.3917168 L80.7273017,38.3917168 L80.7854016,38.4384403 L80.8264133,38.4564111 L80.8879308,38.4635994 L80.942613,38.4743818 L80.9836247,38.488758 L81.0485598,38.488758 L81.0895714,38.5390757 L81.1476713,38.5570464 L81.2023535,38.60377 L81.2707063,38.6397111 L81.3698179,38.6468993 L81.4825999,38.697217 L81.5817114,38.7475347 L81.6022173,38.6792467 L81.7355052,38.6756525 L81.8209462,38.7044053 L81.8517049,38.5822054 L81.8517049,38.5175112 L81.8038579,38.4456286 L81.7286699,38.3845285 L81.6363937,38.3126463 L81.5053853,38.1473166 L81.4279177,38.0370957 L81.4188029,37.9556277 L81.4689294,37.9124983 L81.5304469,37.8645779 L81.5851291,37.7280013 L81.6375317,37.6058011 L81.6739877,37.5147513 L81.7058845,37.4356806 L81.7537315,37.3781746 L81.7901874,37.2583718 L81.815249,37.1625274 L81.8175285,37.0666829 L81.9428431,37.0523064 L81.9473988,37.0738712 L82.0453722,37.0762684 L82.1296717,37.061892 L82.1957484,37.061892 C82.1957484,37.061892 82.261825,37.0475155 82.2709364,37.0475155 C82.2800478,37.0475155 82.3142242,37.0259508 82.3233391,37.0259508 C82.3324539,37.0259508 82.3780213,37.057101 82.3848566,37.057101 C82.3916918,37.057101 82.4281478,37.0642893 82.4281478,37.0642893 L82.4646003,37.0499127 L82.5648533,37.05231 L82.6537118,37.0379336 C82.6537118,37.0379336 82.7289,37.0235571 82.7471264,37.028348 C82.7653525,37.033139 82.8382645,37.057101 82.8314292,37.0547037 C82.8245939,37.0523064 82.82687,36.8318682 82.82687,36.8318682 L82.8177585,36.7264418 L82.7926938,36.6521621 L82.7539614,36.5730915 L82.749406,36.5036063 C82.749406,36.5036063 82.8724374,36.5347566 82.8815523,36.5347566 C82.8906672,36.5347566 82.9521847,36.5275683 82.9521847,36.5275683 L83.0068667,36.5060036 L83.0843344,36.5107946 C83.0843344,36.5107946 83.1800249,36.4820416 83.1891398,36.4820416 C83.1982547,36.4820416 83.243822,36.4652678 83.243822,36.4652678 L83.2529369,36.0076176 L83.1709134,36.0076176 L83.1868636,35.6697702 L83.323569,35.7057114 L83.4215391,35.7152969 L83.5536891,35.710506 L83.6425476,35.6961294 L83.7519121,35.6841503 L83.8179854,35.7632209 L83.6060918,35.938136 L83.8065944,36.3119246 L83.8271,36.3167156 C83.8271,36.3167156 83.8088739,36.441313 83.8088739,36.4485012 C83.8088739,36.4556895 83.7838088,36.4916307 83.7838088,36.4916307 L83.788368,36.5515339 L83.7815326,36.6258136 L83.8453264,36.7647875 L83.8635562,36.8390672 L83.8703915,36.8750084 L83.7154563,36.9732465 L83.858997,36.9516818 L83.9432998,36.9349081 C83.9432998,36.9349081 84.0549439,36.9828285 84.0686145,36.9828285 C84.0822848,36.9828285 84.1802548,36.9876194 84.1802548,36.9876194 L84.3784782,37.0499163 L84.5151836,37.1170078 L84.5835365,37.0882548 L84.6837895,37.0642928 L84.8478359,37.0475191 L84.8615065,37.0882512 L84.9458059,37.0499127 L85.0004882,37.0594983 L85.0551704,37.0235571 L85.1098526,36.9900131 L85.216941,36.949281 L85.248838,36.9396954 L85.2898496,36.8797922 L85.3171906,36.872604 L85.3832639,36.8318718 L85.4311108,36.7695749 L85.4014937,36.7120689 L85.4675666,36.5850779 L85.4766815,36.6042453 L85.5085782,36.5707014 L85.5450344,36.5491367 L85.5359195,36.5299692 L85.513134,36.5203837 L85.5587047,36.4892334 L85.6088278,36.4916307 L85.6635101,36.4628777 L85.6862956,36.4293338 L85.6999663,36.3526604 L85.6954105,36.2687988 L85.7455336,36.1993136 L85.7728746,36.0747162 L85.7819895,36.0411723 L85.8343921,36.0411723 L85.8412275,36.0196075 L85.8571777,35.9932519 L85.9916035,36.1226402 L86.0759063,36.1729579 L86.1169179,36.2160874 C86.1169179,36.2160874 86.2103325,36.1633724 86.2171675,36.1729579 C86.2240028,36.1825434 86.2445088,36.2088991 86.2445088,36.2088991 L86.2786851,36.2088991 L86.2786851,36.271196 C86.2786851,36.271196 86.3561529,36.357455 86.3629882,36.3622459 C86.3698235,36.3670369 86.51792,36.4604841 86.51792,36.4604841 L86.6090581,36.3790161 L86.6933609,36.3886016 L86.7343725,36.3454722 L86.7115873,36.2376485 L86.7138669,36.0938837 L86.855128,36.0459632 L86.8619634,35.8974074 L86.9280367,35.8734454 C86.9280367,35.8734454 87.0032246,35.8566717 87.0100599,35.8566717 C87.0168952,35.8566717 87.1171482,35.8518807 87.1171482,35.8518807 L87.1217039,35.8878219 C87.1217039,35.8878219 87.2925894,35.9069894 87.2971482,35.8998011 C87.3017073,35.8926129 87.3563896,35.8830274 87.3563896,35.8734454 C87.3563896,35.8638599 87.3700602,35.8135422 87.3700602,35.8135422 L87.4201833,35.7847893 L87.4566392,35.7584336 L87.5249921,35.7464543 L87.5546126,35.6889484 L87.611571,35.6577982 L87.6024599,35.5787275 L87.572839,35.55956 L87.3381601,35.5427863 C87.3381601,35.5427863 87.1490551,35.3774567 87.1308256,35.3774567 C87.1125958,35.3774567 87.0305726,35.3391182 87.0305726,35.3391182 L87.2401901,35.0779442 L87.3882866,35.1282619 L87.4725894,34.984497 L87.4976511,34.9916853 L87.5910654,34.8359412 L87.6252417,34.8599032 L87.6913184,34.8 L87.711824,34.828753 C87.711824,34.828753 87.611571,35.037212 87.6138506,35.0444002 C87.6161302,35.0515885 87.6389123,35.11868 87.6389123,35.11868 L87.9077678,34.9605386 L87.857641,35.446931 L88.0057378,35.6050724 L88.2928193,35.7680047 L88.3566165,35.7895694 L88.5320539,35.9429198 L88.6778743,35.8710374 L88.7166066,35.9477108 L88.7621774,35.950108 L88.7462272,36.240035 L88.68243,36.558715 L88.4181337,36.7408183 L88.4204133,36.9780303 L88.3885132,36.9995951 L88.2791487,37.3374425 L88.2518077,37.5866337 L88.30649,37.5698599 L88.5571191,38.0778279 L88.8943237,38.0275101 L88.9763472,38.0418867 L89.0971058,38.0706396 L89.258873,38.1233546 L89.4616518,38.1808605 L89.4593756,38.2048225 L89.5915219,38.2767049 L89.7122808,38.3773402 L89.8239215,38.4683904 L89.8968335,38.5618374 L89.9583508,38.6576818 L90.0039181,38.7607144 L90.1429001,38.7032085 L90.190747,38.7391499 L90.2158118,38.8134294 L90.291,38.8086384 L90.3456822,38.9524035 L90.350238,39.0434532 L90.3798585,39.1177331 L90.3866938,39.1920126 L90.3980849,39.2638951 L90.4436523,39.3405683 L90.489223,39.4124508 L90.4778285,39.4963127 L90.4778285,39.5729859 L90.4664375,39.654454 L91.1249002,39.8197836 L91.3208474,39.8437454 L91.4552733,39.8485364 L91.6557759,39.8796865 L91.6694465,39.9252135 L91.5942583,40.056999 L91.539576,40.0498107 C91.539576,40.0498107 91.5304578,40.0713756 91.5213466,40.0713756 C91.5122351,40.0713756 91.48717,40.0593963 91.48717,40.0593963 C91.48717,40.0593963 91.4621086,40.0713756 91.4552733,40.0713756 C91.448438,40.0713756 91.3846408,40.0641873 91.3846408,40.0641873 L91.4165412,40.207952 L91.400591,40.2295169 L91.4302116,40.3708843 L91.5145113,40.3612988 L91.6876726,40.337337 L91.8653899,40.3660898 L91.9838656,40.3589015 L92.1501919,40.337337 L92.1957592,40.4906873 L92.0909539,40.5961136 L92.0043716,40.6703935 L91.9200722,40.7446694 L91.8289341,40.8381168 L91.7309603,40.9603167 L91.6398256,41.1232526 L91.598814,41.2502402 L91.5669139,41.367653 L91.5395726,41.5209998 L91.5167908,41.6551825 L91.5008406,41.7677936 L91.4734997,41.810923 L91.6010902,41.8540527 L91.5145113,42.012194 L91.300338,42.362024 L91.2843912,42.5680893 L91.3413496,42.6016299 C91.3413496,42.6016299 91.2388205,42.7645658 91.2456558,42.7645658 C91.2524911,42.7645658 91.3322381,42.7909249 91.3322381,42.7909249 L91.3778055,42.7382064 L91.4757792,42.7717537 L91.4780551,42.8484309 L91.4894495,42.8508246 L91.48717,42.9251008 L91.5167908,42.9275017 L91.5236262,42.9107243 L91.5099555,42.836448 L91.5578024,42.826866 L91.5532433,42.6399719 L91.6261553,42.637571 C91.6261553,42.637571 91.678558,42.5776713 91.685393,42.5728767 C91.6922283,42.5680893 91.7879222,42.5273536 91.7879222,42.5273536 L91.8676661,42.4746422 C91.8676661,42.4746422 91.9519723,42.3811952 91.9610838,42.3811952 C91.9701953,42.3811952 92.0613334,42.3931706 92.0613334,42.3931706 L92.1775332,42.4506765 L92.2367712,42.4554711 L92.3256297,42.5201653 L92.4030972,42.5656885 C92.4030972,42.5656885 92.4418295,42.5680893 92.4554998,42.5680893 C92.4691705,42.5680893 92.5329676,42.5441239 92.5329676,42.5441239 L92.5990406,42.5872533 L92.7084051,42.6687247 L92.81549,42.7286243 L92.8587812,42.8053015 C92.8587812,42.8053015 92.9180192,42.84603 92.9248545,42.8484309 C92.9316898,42.8508246 92.9954869,42.8675949 92.9954869,42.8675949 L93.1413039,42.8843719 L93.2073806,42.8963477 C93.2073806,42.8963477 93.252948,43.0161542 93.252948,43.0233425 C93.252948,43.0305308 93.2597829,43.1096012 93.2597829,43.1096012 L93.2962391,43.1742955 L93.2939595,43.2270069 L93.2939595,43.262948 L93.4466152,43.2701363 L93.4625617,43.205442 L93.4602859,43.1311661 L93.4466152,43.0664719 L93.391933,43.054489 L93.3645917,42.8843719 L93.3167448,42.8076952 L93.2894038,42.7358126 L93.3304154,42.7382064 L93.4124386,42.8148835 L93.5195235,42.8867657 C93.5195235,42.8867657 93.5947117,42.9322888 93.601547,42.9322888 C93.6083824,42.9322888 93.660785,42.9322888 93.660785,42.9322888 L93.7405355,43.0377191 L93.802053,43.1671072 C93.802053,43.1671072 93.8795171,43.2485718 93.8863524,43.2485718 C93.8931877,43.2485718 93.9615406,43.3300431 93.9615406,43.3300431 C93.9615406,43.3300431 94.0048284,43.3851482 94.0162229,43.3875491 C94.0276173,43.3899428 94.1278669,43.3923365 94.1278669,43.3923365 L94.146093,43.3755662 L94.1688785,43.3803608 L94.1757138,43.4019256 C94.1757138,43.4019256 94.344316,43.4378667 94.3534309,43.4378667 C94.3625458,43.4378667 94.3853276,43.4163022 94.3853276,43.4163022 C94.3853276,43.4163022 94.5311483,43.4690133 94.5379832,43.4690133 C94.5448186,43.4690133 94.6313979,43.5193313 94.6313979,43.5193313 L94.6450682,43.5480841 L94.6678537,43.5337075 L94.6291217,43.6463257 L94.6997504,43.6583015 L94.6724095,43.8284256 L94.8,43.8451956 L94.7635475,43.9146844 L94.6336774,43.9122907 L94.6632946,43.7086191 L94.5402594,43.7325849 L94.3989982,43.8667605 L94.383048,44.0656375 L94.2896337,44.0728257 L94.2736839,44.080014 L94.1779897,44.080014 L94.0914107,44.0464667 L93.9979965,43.986567 L93.920529,43.929061 L93.8977435,43.9074961 L93.900023,43.9554201 L93.9706555,44.0153198 L94.0481196,44.0608429 L94.1073609,44.0776203 L94.1711547,44.0919969 L94.2417868,44.0967843 L94.3101397,44.1135618 L94.305584,44.2405491 L94.364822,44.2693022 L94.3511513,44.3268078 L94.2645724,44.3411844 L94.1392577,44.5975674 L94.146093,44.6454917 L94.1324223,44.6910148 L94.1164725,44.7581024 L94.1438134,44.8132147 L94.1825488,44.8683269 L94.2281165,44.9330212 L94.2212812,44.9617743 L94.2964691,45.0025029 L94.3260899,45.0504268 L94.3374807,45.1127274 L94.2805188,45.1582505 L94.2600132,45.2516975 L94.257737,45.3115972 L94.1688785,45.4098388 L94.1438134,45.4026506 L94.1233078,45.4074451 L94.1028018,45.4074451 L94.0617902,45.4314037 L94.0230582,45.4721394 L93.9615406,45.4841151 L93.9341993,45.4673448 L93.888632,45.4697385 L93.861291,45.4409857 L93.8066088,45.4793277 L93.7655972,45.5248508 L93.729141,45.5488094 L93.7200261,45.5823567 L93.690409,45.6087162 L93.6493974,45.637469 L93.6129415,45.6590339 L93.5810445,45.694975 L93.5514239,45.6973687 L93.4785153,45.8195689 L93.47168,45.7788329 L93.444339,45.7740458 L93.4352241,45.8435271 L93.3873772,45.903434 L93.3509214,45.9609399 L93.3099094,46.006463 L93.273457,46.0471987 L93.2324454,46.0471987 L93.2096598,46.0591744 L93.1914338,46.1094921 L93.2256101,46.1478344 L93.2620625,46.1358515 L93.391933,46.214922 L93.4990213,46.1957512 L93.4580097,46.3443105 L93.5195269,46.3467043 L93.5354737,46.3586871 L93.5331976,46.3994228 L93.5058566,46.4617162 L93.4762357,46.538393 L93.4306684,46.6318404 L93.3805419,46.698928 L93.3942125,46.7420574 C93.3942125,46.7420574 93.3532009,46.7492457 93.3600363,46.7516465 C93.3668712,46.7540402 93.3737066,46.7732114 93.3737066,46.7732114 L93.3372507,46.7588348 L93.3030744,46.7732114 L93.2688978,46.7756051 L93.1914338,46.7228937 L93.1390277,46.698928 L93.0638395,46.7276812 L92.9635899,46.7995633 L92.8952374,46.8187345 L92.8678961,46.890617 L92.856505,46.9145753 L92.829164,46.9313527 L92.7995435,46.9984407 L92.7881524,47.1374109 L92.7927082,47.1973177 C92.7927082,47.1973177 92.7403055,47.204506 92.7403055,47.2116943 C92.7403055,47.2188825 92.7266349,47.2596111 92.7266349,47.2596111 L92.7152404,47.317117 L92.6947348,47.365041 L92.6423321,47.3914001 L92.6400525,47.4393169 L92.5944852,47.4608818 L92.5922056,47.5303706 L92.578535,47.5878766 L92.5830941,47.6358005 L92.5557528,47.6693408 L92.530688,47.7100764 L92.491956,47.7867536 L92.4896764,47.849047 C92.4896764,47.849047 92.4942356,47.9305183 92.4942356,47.9401003 C92.4942356,47.9496823 92.4668943,47.9856234 92.4668943,47.9856234 L92.4167678,48 L92.3620856,47.9880243 L92.3187944,47.9568706 L92.2914531,47.9544769 C92.2914531,47.9544769 92.2253835,47.8658169 92.213989,47.8634236 C92.2025946,47.8610298 92.1274067,47.724453 92.1274067,47.724453 L92.113736,47.5950649 L92.1114599,47.3626473 C92.1114599,47.3626473 92.1160156,47.2260705 92.1160156,47.2188825 C92.1160156,47.2116943 92.1593068,47.1230343 92.1593068,47.1230343 L92.2641121,46.9888587 C92.2641121,46.9888587 92.3233501,46.9193699 92.3256297,46.907387 C92.3279093,46.8954116 92.3256297,46.8331111 92.3256297,46.8331111 L92.2982884,46.7420574 L92.1934831,46.7204929 L92.2094299,46.6150701 L92.1798128,46.4401513 L91.9701953,46.5048456 L91.8380486,46.3107628 L91.3459088,46.6486103 L91.3572999,46.5623515 L91.3459088,46.5168284 L91.3322381,46.490469 L91.3208437,46.4784933 L91.3436292,46.4377576 L91.3231232,46.3682688 L91.2729967,46.3323277 C91.2729967,46.3323277 91.2547707,46.2820171 91.2479354,46.2796163 C91.2411,46.2772226 91.2069238,46.2532572 91.2069238,46.2532572 L91.1659122,46.1981521 L91.0952797,46.1837755 L91.0611034,46.121475 L91.063383,46.0903284 L91.0565477,46.0567807 L91.031486,46.0471987 L91.0178153,46.0112576 L91.031486,45.9657274 L91.0337621,45.9297863 L91.0178153,45.8962457 L90.9904744,45.8698866 L90.8104811,45.9681282 L90.6988405,46.0016685 C90.6988405,46.0016685 90.6031466,46.0400108 90.5940317,46.0400108 C90.5849168,46.0400108 90.5256788,46.0615753 90.5256788,46.0615753 C90.5256788,46.0615753 90.450491,46.1070984 90.4436557,46.1070984 C90.4368203,46.1070984 90.3365707,46.1430398 90.3365707,46.1430398 L90.2272062,46.1430398 C90.2272062,46.1430398 90.1201179,46.1406461 90.1087269,46.1406461 C90.0973361,46.1406461 90.0084773,46.1454336 90.0084773,46.1454336 L89.9127834,46.1502278 C89.9127834,46.1502278 89.8398717,46.1502278 89.8330364,46.1502278 C89.8262011,46.1502278 89.6575986,46.1550223 89.6575986,46.1550223 L89.6507633,46.0807393 L89.6507633,45.9944802 L89.6575986,45.922598 L89.6803841,45.8123806 L89.6940548,45.7333098 L89.7100013,45.6925741 C89.7100013,45.6925741 89.6302543,45.7476864 89.6211427,45.7476864 C89.6120312,45.7476864 89.5254489,45.8147743 89.5254489,45.8147743 C89.5254489,45.8147743 89.3864673,45.7596692 89.3727966,45.7524809 C89.359126,45.7452926 89.2520411,45.6877867 89.2520411,45.6877867 C89.2520411,45.6877867 89.2041942,45.6710092 89.1950793,45.6710092 C89.1859644,45.6710092 89.1358379,45.7021633 89.1244471,45.704557 C89.1130561,45.7069507 88.9877414,45.7476864 88.9877414,45.7476864 L88.8487597,45.7812337 L88.7029394,45.8195689 L88.5092721,45.8962457 L88.358896,45.9489571 L88.3133287,45.7237278 L88.2426962,45.5536039 C88.2426962,45.5536039 88.0467528,45.0168866 88.0239707,45.0144857 C88.0011888,45.012092 87.9465032,44.980938 87.9282768,44.980938 C87.9100508,44.980938 87.8143566,45.0072974 87.8143566,45.0072974 C87.8143566,45.0072974 87.5272716,45.1822087 87.5181601,45.1846099 C87.5090486,45.1870033 87.349558,45.2756561 87.349558,45.2756561 C87.349558,45.2756561 87.2037373,45.3738977 87.1855113,45.371504 C87.1672849,45.3691032 86.9052647,45.4769268 86.9052647,45.4769268 L86.900709,45.5871513 L87.1604495,46.4161931 L87.1422201,46.5072464 L87.0214645,46.8402994 C87.0214645,46.8402994 86.7002064,46.8259228 86.6728654,46.8307174 C86.6455241,46.8355048 86.2741398,46.8187345 86.2741398,46.8187345 L86.2240133,46.3946282 L85.8321261,46.4090048 C85.8321261,46.4090048 85.8549083,46.2053329 85.848073,46.2029392 C85.8412376,46.2005458 85.6111179,46.073551 85.6111179,46.073551 L85.3752905,45.8998362 L85.1497262,45.6931743 Z" id="Berlin-Copy-2" stroke="#F8F8F8" stroke-width="0.6" fill="#F8F8F8" stroke-linecap="round" stroke-linejoin="round"></path>
            <g id="Group-23" transform="translate(0.000000, 60.049889)">
                <g id="Group-17-Copy-2" transform="translate(0.501181, 0.000000)">
                    <g id="Group" transform="translate(1.200000, 0.000000)">
                        <path d="M7.36,37.5003633 C7.36,36.9099867 7.36,36.1069348 7.36,35.0912079 C7.36,32.9047311 7.36,27.4076618 7.36,18.6 L27.6,0 L47.4,18.6 L48.44,44.4501883 C47.6299478,47.9367294 45.855876,49.68 43.1177845,49.68 C40.3796929,49.68 30.3004315,49.68 12.88,49.68 C9.2,49.1893333 7.36,47.3493333 7.36,44.16 C7.36,43.2326596 7.36,41.8546477 7.36,40.0259643" id="Path" fill="#F8F8F8"></path>
                        <path d="M47.84,41.6938985 L47.84,44.16 C47.84,47.2086118 45.3686118,49.68 42.32,49.68 L12.88,49.68 C9.83138818,49.68 7.36,47.2086118 7.36,44.16 C7.36,42.9633316 7.36,41.024977 7.36,39.2416449 M7.36,35.0339515 C7.36,34.1668118 7.36,32.9668118 7.36,31.4339515 M7.36,27.9590178 C7.36,25.4107963 7.36,22.4234931 7.36,18.9971082" id="Shape" stroke="#242424" stroke-width="1.5" stroke-linecap="round" stroke-linejoin="round"></path>
                        <line x1="47.844" y1="18.6" x2="47.844" y2="31.8" id="Path" stroke="#242424" stroke-width="1.8" fill="#FFFFFF"></line>
                        <line x1="47.84" y1="35.5456988" x2="47.84" y2="38.176" id="Path" stroke="#242424" stroke-width="1.8" stroke-linecap="round" stroke-linejoin="round"></line>
                        <polyline id="Path" stroke="#242424" stroke-width="1.5" stroke-linecap="round" stroke-linejoin="round" points="0 25.76 27.6 1.09139364e-12 55.2 25.76"></polyline>
                        <path d="M18.4,36.6428924 L18.4,31.65 C18.4,30.3245166 19.4745166,29.25 20.8,29.25 L32.56,29.25 C33.8854834,29.25 34.96,30.3245166 34.96,31.65 L34.96,47.3056208 C34.96,48.6311042 33.8854834,49.7056208 32.56,49.7056208 L20.8,49.7056208 C19.4745166,49.7056208 18.4,48.6311042 18.4,47.3056208 L18.4,46.3765031 L18.4,43.041241" id="Shape" stroke="#242424" stroke-width="1.5" fill="#CCEFF0" stroke-linecap="round"></path>
                        <path d="M26.88,25.4832816 C27.1361544,25.4832816 27.388791,25.542921 27.6179024,25.6574767 L27.6179024,25.6574767 L34.8179024,29.2574767 C35.0973993,29.3972251 35.3254236,29.6099329 35.4835738,29.8658252 C35.641724,30.1217176 35.73,30.4207946 35.73,30.7332816 L35.73,30.7332816 L35.73,48.8267184 C35.73,49.1392054 35.641724,49.4382824 35.4835738,49.6941748 C35.3254236,49.9500671 35.0973993,50.1627749 34.8179024,50.3025233 L34.8179024,50.3025233 L27.6179024,53.9025233 C27.2103702,54.1062894 26.7588264,54.1255799 26.3582242,53.9920459 C25.957622,53.8585118 25.6079613,53.5721531 25.4041951,53.1646209 C25.2896394,52.9355094 25.23,52.6828728 25.23,52.4267184 L25.23,52.4267184 L25.23,27.1332816 C25.23,26.6776467 25.4146825,26.2651467 25.7132738,25.9665554 C26.0118651,25.6679641 26.4243651,25.4832816 26.88,25.4832816 Z" id="Rectangle" stroke="#242424" stroke-width="1.5" fill="#00ADB2"></path>
                    </g>
                </g>
                <g id="Group-18" transform="translate(42.000000, 16.750111)">
                    <path d="M19.5692308,40.0879121 C29.4153846,31.4826533 34.3384615,23.9565791 34.3384615,17.5096895 C34.3384615,7.839355 27.7260517,8.18545232e-13 19.5692308,8.18545232e-13 C11.4124098,8.18545232e-13 4.8,7.839355 4.8,17.5096895 C4.8,23.9565791 9.72307692,31.4826533 19.5692308,40.0879121 Z" id="Oval" fill-opacity="0.15" fill="#000000"></path>
                    <path d="M14.7692308,0.934615385 C18.6281733,0.934615385 22.1133749,2.8019621 24.6393617,5.79665049 C27.2076805,8.84152577 28.7884615,13.0499554 28.7884615,17.6943048 C28.7884615,23.8921165 24.0438205,31.0653192 14.7677935,39.2724766 C5.49405169,31.0644282 0.75,23.8917316 0.75,17.6943048 C0.75,13.0499554 2.33078103,8.84152577 4.89909989,5.79665049 C7.42508666,2.8019621 10.9102882,0.934615385 14.7692308,0.934615385 Z" id="Oval" stroke="#242424" stroke-width="1.5" fill="#CCEFF0"></path>
                    <circle id="Oval" stroke="#242424" stroke-width="1.5" fill="#FFFFFF" cx="14.7692308" cy="14.6162637" r="5.57967033"></circle>
                </g>
            </g>
        </g>
    </g>
</svg>