<svg xmlns="http://www.w3.org/2000/svg" width="37" height="37" viewBox="0 0 37 37">
  <g fill="none" fill-rule="evenodd" stroke="#242424" stroke-width="1.5" transform="translate(1 1)">
    <g stroke-linecap="round" stroke-linejoin="round">
      <path fill="#FFE3AA" d="M35,16.1557544 L35,33.3191524 C35,34.2474589 34.03308,35 32.8403238,35 L2.15967619,35 C0.966919964,35 -2.39340711e-13,34.2474589 -2.39340711e-13,33.3191524 L-2.39340711e-13,1.68084758 C-2.39340711e-13,0.752541096 0.966919964,3.04162154e-13 2.15967619,3.04162154e-13 L32.8403238,3.04162154e-13 C34.03308,3.04162154e-13 35,0.752541096 35,1.68084758 L35,3.7869363 L35,9.47245845"/>
      <line x1="35" x2="35" y1="12.707" y2="13.1" fill="#FFC03D"/>
    </g>
    <g transform="translate(5 5)">
      <path stroke-linecap="round" stroke-linejoin="round" d="M14.1935484,21 L6.64516129,21 C4.07970955,21 2,18.873419 2,16.2501484 C2,13.6268778 4.07970955,11.5002969 6.64516129,11.5002969 L11.0794109,11.5 M2,2 L15.3548387,2 C17.9202905,2 20,4.12664744 20,6.75 C20,9.37335256 17.9202905,11.5 15.3548387,11.5 L14.0382258,11.5"/>
      <circle cx="2.5" cy="2.5" r="3.25" fill="#FFFAF0"/>
      <circle cx="22.684" cy="21" r="4.75" fill="#FFAB00"/>
      <polyline stroke-linecap="round" stroke-linejoin="round" points="15 19 11.633 19 11 23" transform="rotate(135 13 21)"/>
    </g>
  </g>
</svg>
