<?xml version="1.0" encoding="UTF-8"?>
<svg width="83px" height="90px" viewBox="0 0 83 90" version="1.1" xmlns="http://www.w3.org/2000/svg" xmlns:xlink="http://www.w3.org/1999/xlink">
    <title>icon_terminbuchung</title>
    <defs>
        <linearGradient x1="33.7762241%" y1="32.2587076%" x2="54.6540179%" y2="56.4815848%" id="linearGradient-1">
            <stop stop-color="#66CED1" offset="0%"></stop>
            <stop stop-color="#007996" offset="100%"></stop>
        </linearGradient>
    </defs>
    <g id="01_Design" stroke="none" stroke-width="1" fill="none" fill-rule="evenodd">
        <g id="01_all-services" transform="translate(-444.000000, -688.000000)">
            <g id="termin_buergeramt_aendern" transform="translate(378.000000, 646.000000)">
                <g id="icon_terminbuchung" transform="translate(67.000000, 42.000000)">
                    <rect id="Rectangle" fill="#DEDEDE" x="7" y="9" width="75" height="81" rx="5"></rect>
                    <path d="M21.9661546,84 L5.84615385,84 C2.61741223,84 0,81.2346999 0,77.8235294 L0,15.1764706 C0,11.7653001 2.61741223,9 5.84615385,9 L70.1538462,9 C73.3825878,9 76,11.7653001 76,15.1764706 L76,77.8235294 C76,81.2346999 73.3825878,84 70.1538462,84 L41.607383,84 L36.9561774,84 M30,84.5 L28,84.5" id="Shape" stroke="#242424" stroke-width="1.5" fill="#F2F2F2" stroke-linecap="round" stroke-linejoin="round"></path>
                    <path d="M3.73333333,3 L72.2666667,3 C74.3285297,3 76,4.67147027 76,6.73333333 L76,21.7670922 L76,21.7670922 L22,79 L3.73333333,79 C1.67147027,79 1.58477303e-15,77.3285297 0,75.2666667 L0,6.73333333 C-2.525054e-16,4.67147027 1.67147027,3 3.73333333,3 Z" id="Rectangle" stroke="#242424" stroke-width="1.5" fill="#99DEE0" stroke-linejoin="round"></path>
                    <rect id="Rectangle-Copy-8" stroke="#242424" stroke-width="1.5" fill="#D8D8D8" x="32.75" y="0.75" width="1.5" height="4.9" rx="0.75"></rect>
                    <rect id="Rectangle-Copy-11" stroke="#242424" stroke-width="1.5" fill="#D8D8D8" x="22.75" y="0.75" width="1.5" height="4.9" rx="0.75"></rect>
                    <rect id="Rectangle-Copy-20" stroke="#242424" stroke-width="1.5" fill="#D8D8D8" x="13.75" y="0.75" width="1.5" height="4.9" rx="0.75"></rect>
                    <rect id="Rectangle-Copy-9" stroke="#242424" stroke-width="1.5" fill="#D8D8D8" x="41.75" y="0.75" width="1.5" height="4.9" rx="0.75"></rect>
                    <rect id="Rectangle-Copy-10" stroke="#242424" stroke-width="1.5" fill="#D8D8D8" x="51.75" y="0.75" width="1.5" height="4.9" rx="0.75"></rect>
                    <rect id="Rectangle-Copy-14" stroke="#242424" stroke-width="1.5" fill="#D8D8D8" x="60.75" y="0.75" width="1.5" height="4.9" rx="0.75"></rect>
                    <g id="Group-2" transform="translate(10.000000, 30.000000)" fill="#EFEFEF" stroke="#242424" stroke-width="1.5">
                        <circle id="Oval" cx="11.6853933" cy="5.39325843" r="4.64325843"></circle>
                        <path d="M11.6853933,10.738764 C14.6265615,10.738764 16.9950775,11.9147527 18.7920015,14.2645763 C20.5686744,16.5879179 21.7927547,20.0124053 22.501666,24.5196629 L22.501666,24.5196629 L4.87740475,24.5196629 C4.58232679,24.5196629 4.28862333,24.4794772 4.00439055,24.4002135 C3.1399118,24.1591373 2.45498862,23.5904845 2.04645465,22.8659811 C1.63792098,22.1414782 1.50577617,21.261125 1.74685401,20.396646 C2.65159765,17.1523127 3.93484375,14.7063835 5.63144369,13.0821222 C7.26806025,11.5152868 9.28795073,10.738764 11.6853933,10.738764 Z" id="Oval"></path>
                    </g>
                    <path d="M38.2717168,20.25 C39.9509006,20.25 41.4708535,20.9257098 42.5711828,22.0173751 C43.6736664,23.1111777 44.3550502,24.6223951 44.3550502,26.2913386 C44.3550502,27.960282 43.6736664,29.4714994 42.5711828,30.5653021 C41.4708535,31.6569674 39.9509006,32.3326772 38.2717168,32.3326772 C37.3607375,32.3326772 36.4966496,32.133627 35.7209733,31.7773706 L35.7209733,31.7773706 L29.5678129,34.5200613 L32.3922252,27.8472433 C32.2593093,27.350804 32.1883835,26.8292878 32.1883835,26.2913386 C32.1883835,24.6223951 32.8697673,23.1111777 33.9722509,22.0173751 C35.0725802,20.9257098 36.5925331,20.25 38.2717168,20.25 Z" id="Combined-Shape" stroke="#242424" stroke-width="1.5" fill="#F8F8F8" stroke-linejoin="round" transform="translate(37.302525, 27.030275) rotate(-90.000000) translate(-37.302525, -27.030275) "></path>
                    <path d="M76,24.1191295 L23.5,79 L2.60621787,79 C12.9892358,79 18.1758546,72.8927632 18.1660743,60.6782896 C18.1646589,58.9106653 18.2019938,58.5221902 18.1833263,47.5847805 C18.1646589,36.6473708 22.0659922,28.7903674 34.5167989,28.7903674 C43.6402958,28.7903674 52.3596578,28.7903674 60.6748847,28.7903674 C70.8916282,27.6059453 76,23.275619 76,15.7993886 C76,8.32315823 76,11.0964052 76,24.1191295 Z" id="Path-4" fill="#C8C8C8" style="mix-blend-mode: normal;"></path>
                    <path d="M76,24.1191295 L24.1132416,79 L6,79 C18.0739499,79 24.1065362,72.6193048 24.097759,59.8579145 C24.0964888,58.0111429 24.1299944,57.6052734 24.1132416,46.1781289 C24.0964888,34.7509845 27.5976853,26.5421749 38.7714862,26.5421749 C46.9592399,26.5421749 54.7843083,26.5421749 62.2466914,26.5421749 C71.4155638,25.304719 76,20.7804975 76,12.9695105 C76,5.15852353 76,8.8750632 76,24.1191295 Z" id="Path-4" stroke="#242424" stroke-width="1.5" fill="url(#linearGradient-1)"></path>
                </g>
            </g>
        </g>
    </g>
</svg>