<svg xmlns="http://www.w3.org/2000/svg" width="208" height="166" viewBox="0 0 208 166">
  <g fill="none" fill-rule="evenodd" stroke-width="1.5" transform="translate(46 35)">
    <g stroke="#242424" transform="translate(36 28.333)">
      <path fill="#9F9F9F" d="M15.0961538,65.1346154 L8.28846154,65.3076923 C8.28846154,65.6103868 8.41115274,65.8844253 8.60951757,66.0827901 C8.8078824,66.281155 9.08192086,66.4038462 9.38461538,66.4038462 L14,66.4038462 C14.3026945,66.4038462 14.576733,66.281155 14.7750978,66.0827901 C14.9734626,65.8844253 15.0961538,65.6103868 15.0961538,65.1346154 Z"/>
      <path d="M56.25,5.31410256 L23.75,5.31410256 L23.75,15.025641 C23.75,15.9231037 24.1137686,16.7356037 24.701903,17.3237381 C25.2900373,17.9118724 26.1025373,18.275641 27,18.275641 L53,18.275641 C53.8974627,18.275641 54.7099627,17.9118724 55.298097,17.3237381 C55.8862314,16.7356037 56.25,15.9231037 56.25,15.025641 L56.25,5.31410256 Z" transform="rotate(-180 40 11.795)"/>
      <path d="M59.25,2.23717949 L20.75,2.23717949 L20.75,12.2564103 C20.75,13.9185749 21.4237254,15.4233826 22.5129919,16.5126492 C23.6022584,17.6019157 25.1070661,18.275641 26.7692308,18.275641 L53.2307692,18.275641 C54.8929339,18.275641 56.3977416,17.6019157 57.4870081,16.5126492 C58.5762746,15.4233826 59.25,13.9185749 59.25,12.2564103 L59.25,2.23717949 Z" transform="rotate(-180 40 10.256)"/>
      <rect width="12.5" height="4.5" x="33.75" y="1.417" fill="#FF7735" rx="1.333"/>
      <path fill="#9F9F9F" d="M71.7115385,65.1346154 L64.9038462,65.3076923 C64.9038462,65.6103868 65.0265374,65.8844253 65.2249022,66.0827901 C65.423267,66.281155 65.6973055,66.4038462 66,66.4038462 L70.6153846,66.4038462 C70.9180791,66.4038462 71.1921176,66.281155 71.3904824,66.0827901 C71.5888473,65.8844253 71.7115385,65.6103868 71.7115385,65.1346154 Z"/>
      <path fill="#FFF" stroke-linecap="round" stroke-linejoin="round" d="M80,40.1721736 L80,54.5128205 C80,59.9507011 75.5917268,64.3589744 70.1538462,64.3589744 L9.84615385,64.3589744 C4.40827323,64.3589744 0,59.9507011 0,54.5128205 L0,21.5897436 C0,16.151863 4.40827323,11.7435897 9.84615385,11.7435897 L70.1538462,11.7435897 C75.5917268,11.7435897 80,16.151863 80,21.5897436 L80,28.6201215 M80,32.5516672 L80,35.9048791"/>
      <path fill="#FF7735" d="M45.4038462,11.7666667 L34.9038462,11.7666667 L34.9038462,14.1705128 C34.9038462,14.4732073 35.0265374,14.7472458 35.2249022,14.9456106 C35.423267,15.1439755 35.6973055,15.2666667 36,15.2666667 L44.3076923,15.2666667 C44.6103868,15.2666667 44.8844253,15.1439755 45.0827901,14.9456106 C45.281155,14.7472458 45.4038462,14.4732073 45.4038462,14.1705128 L45.4038462,11.7666667 Z"/>
      <circle cx="40" cy="37.897" r="15.25" fill="#F8F8F8"/>
      <path fill="#FF7735" d="M42.0125078,28.8012821 L37.8144153,29.2820513 L37.813771,35.7112069 L30.9038462,36.1926204 L31.3846154,40.3907129 L37.813771,40.3902252 L38.2951845,47.3012821 L42.493277,46.8205128 L42.4927893,40.3902252 L49.4038462,39.9099437 L48.9230769,35.7118512 L42.4927893,35.7112069 L42.0125078,28.8012821 Z"/>
    </g>
    <g stroke="#C8C8C8" opacity=".766" transform="translate(3 1)" style="mix-blend-mode:multiply">
      <path d="M63.8196916,3.67734282 L63.8196916,24.6547047 C63.8196916,27.3513244 61.6888176,29.5373665 59.0602513,29.5373665 C55.3761644,29.5373665 52.6130992,29.5373665 50.7710558,29.5373665 M36.5361803,29.5373665 C34.963404,29.5373665 32.4093612,29.5373665 28.8740519,29.5373665 C26.2922512,29.5373665 24.1992883,27.3513244 24.1992883,24.6547047 L24.1992883,3.67734282" transform="rotate(-180 44.01 16.607)"/>
      <path fill="#C8C8C8" d="M56.7826216,1.93623962 L50.9279359,1.93623962 L50.9279359,4.98220641 C50.9279359,5.16818486 51.0033186,5.33655674 51.1251959,5.45843402 C51.2470732,5.58031129 51.415445,5.65569395 51.6014235,5.65569395 L56.109134,5.65569395 C56.2951125,5.65569395 56.4634844,5.58031129 56.5853617,5.45843402 C56.7072389,5.33655674 56.7826216,5.16818486 56.7826216,4.98220641 L56.7826216,1.93623962 Z" transform="rotate(-90 53.855 3.796)"/>
      <path fill="#C8C8C8" d="M37.8027877,1.93623962 L31.948102,1.93623962 L31.948102,4.98220641 C31.948102,5.16818486 32.0234847,5.33655674 32.145362,5.45843402 C32.2672392,5.58031129 32.4356111,5.65569395 32.6215896,5.65569395 L37.1293001,5.65569395 C37.3152786,5.65569395 37.4836505,5.58031129 37.6055277,5.45843402 C37.727405,5.33655674 37.8027877,5.16818486 37.8027877,4.98220641 L37.8027877,1.93623962 Z" transform="rotate(90 34.875 3.796)"/>
      <path fill="#C8C8C8" stroke-linejoin="round" d="M66.6666667,17.4377224 C66.6666667,34.0783305 56.5758129,47.5682088 44.1281139,47.5682088 C31.6804149,47.5682088 21.5895611,34.0783305 21.5895611,17.4377224 L27.7665359,17.4362699 C27.7608645,17.6730713 27.7580071,17.9108226 27.7580071,18.1494662 C27.7580071,30.2358026 35.0871536,40.0337142 44.1281139,40.0337142 C53.1690742,40.0337142 60.4982206,30.2358026 60.4982206,18.1494662 C60.4982206,17.9108226 60.4953633,17.6730713 60.4896918,17.4362699 L66.6666667,17.4377224 L66.6666667,17.4377224 Z"/>
      <path fill="#C8C8C8" d="M6.16844603,41.6752669 C7.66470858,41.6752669 9.01932009,42.2817471 9.99986595,43.262293 C10.9804118,44.2428389 11.5868921,45.5974504 11.5868921,47.0937129 C11.5868921,48.5899755 10.9804118,49.944587 9.99986595,50.9251329 C9.01932009,51.9056787 7.66470858,52.512159 6.16844603,52.512159 C4.67218347,52.512159 3.31757197,51.9056787 2.3370261,50.9251329 C1.35648023,49.944587 0.75,48.5899755 0.75,47.0937129 C0.75,45.5974504 1.35648023,44.2428389 2.3370261,43.262293 C3.31757197,42.2817471 4.67218347,41.6752669 6.16844603,41.6752669 Z M6.16844603,44.4457295 C5.4372256,44.4457295 4.77522976,44.7421152 4.29603901,45.2213059 C3.81684827,45.7004967 3.52046263,46.3624925 3.52046263,47.0937129 C3.52046263,47.8249334 3.81684827,48.4869292 4.29603901,48.9661199 C4.77522976,49.4453107 5.4372256,49.7416963 6.16844603,49.7416963 C6.89966645,49.7416963 7.5616623,49.4453107 8.04085304,48.9661199 C8.52004378,48.4869292 8.81642942,47.8249334 8.81642942,47.0937129 C8.81642942,46.3624925 8.52004378,45.7004967 8.04085304,45.2213059 C7.5616623,44.7421152 6.89966645,44.4457295 6.16844603,44.4457295 Z"/>
      <path stroke-linecap="round" stroke-linejoin="round" d="M23.0130486,53.8045426 L23.0130486,78.7565533 C23.0130486,83.4134508 19.2422559,87.1886121 14.5907473,87.1886121 C9.93923876,87.1886121 6.16844603,83.4134508 6.16844603,78.7565533 C6.16844603,76.5889222 6.16844603,74.715149 6.16844603,73.1352337 M6.16844603,69.7624912 C6.16844603,68.0112403 6.16844603,65.841787 6.16844603,63.2541313 M6.16844603,59.8029984 C6.16844603,58.5497031 6.16844603,56.3694233 6.16844603,53.262159 M44.1281139,52.3164262 L44.1281139,61.601586 C44.1281139,64.464467 41.7912846,66.7852906 38.9086595,66.7852906 C36.0260345,66.7852906 33.6892052,64.464467 33.6892052,61.601586 L33.6892052,53.7366548 M23.0130486,53.262159 C23.0130486,50.3795339 25.4029877,48.0427046 28.3511269,48.0427046 C31.2992662,48.0427046 33.6892052,50.3795339 33.6892052,53.262159 L33.6892052,53.262159"/>
      <circle cx="44.128" cy="48.517" r="3.995" fill="#C8C8C8"/>
    </g>
    <g stroke="#242424">
      <path d="M63.8196916,3.67734282 L63.8196916,24.6547047 C63.8196916,27.3513244 61.6888176,29.5373665 59.0602513,29.5373665 C55.3761644,29.5373665 52.6130992,29.5373665 50.7710558,29.5373665 M36.5361803,29.5373665 C34.963404,29.5373665 32.4093612,29.5373665 28.8740519,29.5373665 C26.2922512,29.5373665 24.1992883,27.3513244 24.1992883,24.6547047 L24.1992883,3.67734282" transform="rotate(-180 44.01 16.607)"/>
      <path fill="#FFF" d="M56.7826216,1.93623962 L50.9279359,1.93623962 L50.9279359,4.98220641 C50.9279359,5.16818486 51.0033186,5.33655674 51.1251959,5.45843402 C51.2470732,5.58031129 51.415445,5.65569395 51.6014235,5.65569395 L56.109134,5.65569395 C56.2951125,5.65569395 56.4634844,5.58031129 56.5853617,5.45843402 C56.7072389,5.33655674 56.7826216,5.16818486 56.7826216,4.98220641 L56.7826216,1.93623962 Z" transform="rotate(-90 53.855 3.796)"/>
      <path fill="#FFF" d="M37.8027877,1.93623962 L31.948102,1.93623962 L31.948102,4.98220641 C31.948102,5.16818486 32.0234847,5.33655674 32.145362,5.45843402 C32.2672392,5.58031129 32.4356111,5.65569395 32.6215896,5.65569395 L37.1293001,5.65569395 C37.3152786,5.65569395 37.4836505,5.58031129 37.6055277,5.45843402 C37.727405,5.33655674 37.8027877,5.16818486 37.8027877,4.98220641 L37.8027877,1.93623962 Z" transform="rotate(90 34.875 3.796)"/>
      <path fill="#FFB692" stroke-linejoin="round" d="M66.6666667,17.4377224 C66.6666667,34.0783305 56.5758129,47.5682088 44.1281139,47.5682088 C31.6804149,47.5682088 21.5895611,34.0783305 21.5895611,17.4377224 L27.7665359,17.4362699 C27.7608645,17.6730713 27.7580071,17.9108226 27.7580071,18.1494662 C27.7580071,30.2358026 35.0871536,40.0337142 44.1281139,40.0337142 C53.1690742,40.0337142 60.4982206,30.2358026 60.4982206,18.1494662 C60.4982206,17.9108226 60.4953633,17.6730713 60.4896918,17.4362699 L66.6666667,17.4377224 L66.6666667,17.4377224 Z"/>
      <path fill="#FF7735" d="M6.16844603,41.6752669 C7.66470858,41.6752669 9.01932009,42.2817471 9.99986595,43.262293 C10.9804118,44.2428389 11.5868921,45.5974504 11.5868921,47.0937129 C11.5868921,48.5899755 10.9804118,49.944587 9.99986595,50.9251329 C9.01932009,51.9056787 7.66470858,52.512159 6.16844603,52.512159 C4.67218347,52.512159 3.31757197,51.9056787 2.3370261,50.9251329 C1.35648023,49.944587 0.75,48.5899755 0.75,47.0937129 C0.75,45.5974504 1.35648023,44.2428389 2.3370261,43.262293 C3.31757197,42.2817471 4.67218347,41.6752669 6.16844603,41.6752669 Z M6.16844603,44.4457295 C5.4372256,44.4457295 4.77522976,44.7421152 4.29603901,45.2213059 C3.81684827,45.7004967 3.52046263,46.3624925 3.52046263,47.0937129 C3.52046263,47.8249334 3.81684827,48.4869292 4.29603901,48.9661199 C4.77522976,49.4453107 5.4372256,49.7416963 6.16844603,49.7416963 C6.89966645,49.7416963 7.5616623,49.4453107 8.04085304,48.9661199 C8.52004378,48.4869292 8.81642942,47.8249334 8.81642942,47.0937129 C8.81642942,46.3624925 8.52004378,45.7004967 8.04085304,45.2213059 C7.5616623,44.7421152 6.89966645,44.4457295 6.16844603,44.4457295 Z"/>
      <path stroke-linecap="round" stroke-linejoin="round" d="M23.0130486,53.8045426 L23.0130486,78.7565533 C23.0130486,83.4134508 19.2422559,87.1886121 14.5907473,87.1886121 C9.93923876,87.1886121 6.16844603,83.4134508 6.16844603,78.7565533 C6.16844603,76.5889222 6.16844603,74.715149 6.16844603,73.1352337 M6.16844603,69.7624912 C6.16844603,68.0112403 6.16844603,65.841787 6.16844603,63.2541313 M6.16844603,59.8029984 C6.16844603,58.5497031 6.16844603,56.3694233 6.16844603,53.262159 M44.1281139,52.3164262 L44.1281139,61.601586 C44.1281139,64.464467 41.7912846,66.7852906 38.9086595,66.7852906 C36.0260345,66.7852906 33.6892052,64.464467 33.6892052,61.601586 L33.6892052,53.7366548 M23.0130486,53.262159 C23.0130486,50.3795339 25.4029877,48.0427046 28.3511269,48.0427046 C31.2992662,48.0427046 33.6892052,50.3795339 33.6892052,53.262159 L33.6892052,53.262159"/>
      <circle cx="44.128" cy="48.517" r="3.995" fill="#FFB692"/>
    </g>
  </g>
</svg>
