<?xml version="1.0" encoding="UTF-8"?>
<svg width="52px" height="46px" viewBox="0 0 52 46" version="1.1" xmlns="http://www.w3.org/2000/svg" xmlns:xlink="http://www.w3.org/1999/xlink">
    <title>ICON_Drucken</title>
    <g id="01_Design" stroke="none" stroke-width="1" fill="none" fill-rule="evenodd">
        <g id="05_Reisepass_beantragen_01" transform="translate(-1225.000000, -641.000000)" stroke="#242424">
            <g id="Button-Drucken" transform="translate(1188.000000, 614.000000)">
                <g id="Group-40" transform="translate(13.000000, 0.000000)">
                    <g id="ICON_Drucken" transform="translate(25.000000, 28.000000)">
                        <g id="Group-20" transform="translate(7.792208, 0.000000)" stroke-width="1.5">
                            <g id="Group-5" transform="translate(17.000000, 10.331169) scale(-1, 1) rotate(-180.000000) translate(-17.000000, -10.331169) translate(0.000000, 0.831169)">
                                <polygon id="Rectangle" fill="#FFFFFF" stroke-linejoin="round" points="-1.32880719e-12 0.335618404 33.7662338 0.335618404 33.7662338 12.377056 26.6233766 18.8311688 -3.10793238e-11 18.8311688"></polygon>
                                <path d="M33.7662338,12.377056 L27.0276937,18.8311688 L25.3246753,18.8311688 C26.4598203,18.8311688 27.0268229,18.0025071 27.025683,16.3451837 C27.025518,16.1053432 27.0298694,16.0526329 27.0276937,14.5685882 C27.025518,13.0845434 27.4802189,12.0184643 28.9313618,12.0184643 C29.9947065,12.0184643 31.0109491,12.0184643 31.9800898,12.0184643 C33.1708524,11.8577557 33.7662338,11.2701945 33.7662338,10.2557806 C33.7662338,9.24136669 33.7662338,9.9484585 33.7662338,12.377056 Z" id="Path-4" fill="#C8C8C8"></path>
                            </g>
                        </g>
                        <path d="M49.3304787,26.8560347 L49.3304787,28.8040867 M49.3304787,31.5836526 L49.3304787,34.6805412 C49.3304787,36.4391902 47.9065235,37.8648569 46.1499857,37.8648569 L3.18049298,37.8648569 C1.42395521,37.8648569 0,36.4391902 0,34.6805412 L0,21.7167832 C0,19.9581342 1.42395521,18.5324675 3.18049298,18.5324675 L46.1499857,18.5324675 C47.9065235,18.5324675 49.3304787,19.9581342 49.3304787,21.7167832 L49.3304787,22.9913117 L49.3304787,24.290013" id="Shape" stroke-width="1.5" fill="#DEDEDE" stroke-linecap="round" stroke-linejoin="round"></path>
                        <rect id="Rectangle" stroke-width="3.5" fill="#242424" x="7.59415584" y="30.3214286" width="34.1623377" height="1"></rect>
                        <rect id="Rectangle-Copy-45" stroke-width="0.649350649" fill="#242424" x="35.3896104" y="22.7532468" width="1.2987013" height="1.2987013"></rect>
                        <rect id="Rectangle-Copy-46" stroke-width="0.649350649" fill="#242424" x="39.2857143" y="22.7532468" width="1.2987013" height="1.2987013"></rect>
                        <rect id="Rectangle-Copy-47" stroke-width="0.649350649" fill="#242424" x="43.1818182" y="22.7532468" width="1.2987013" height="1.2987013"></rect>
                        <g id="Group-20-Copy" transform="translate(7.792208, 29.220779)" stroke-linejoin="round">
                            <g id="Group-5" transform="translate(17.000000, 7.487013) scale(-1, 1) rotate(-180.000000) translate(-17.000000, -7.487013) translate(0.000000, 0.987013)" fill="#FFFFFF" stroke-width="1.5">
                                <polygon id="Rectangle" points="3.45555231e-11 0 33.7662338 5.16758353e-12 33.7303767 12.987013 3.84531236e-12 12.987013"></polygon>
                            </g>
                            <g id="Group-19" transform="translate(17.071429, 6.740260) rotate(-180.000000) translate(-17.071429, -6.740260) translate(5.571429, 2.740260)" fill="#F2F2F2" stroke-width="0.649350649">
                                <rect id="Rectangle-Copy-23" x="-1.77174293e-12" y="6.94805195" width="22.7272727" height="1"></rect>
                                <rect id="Rectangle-Copy-21" x="-1.77174293e-12" y="0.454545455" width="22.7272727" height="1"></rect>
                                <rect id="Rectangle-Copy-22" x="-1.77174293e-12" y="3.7012987" width="22.7272727" height="1"></rect>
                            </g>
                        </g>
                    </g>
                </g>
            </g>
        </g>
    </g>
</svg>