<svg xmlns="http://www.w3.org/2000/svg" xmlns:xlink="http://www.w3.org/1999/xlink" width="208" height="166" viewBox="0 0 208 166">
  <defs>
    <path id="icon_perso_verloren-a" d="M7.904,22.844 C7.904,21.948 8.05333333,21.212 8.352,20.636 C8.65066667,20.06 9.01333333,19.5533333 9.44,19.116 C9.86666667,18.6786667 10.336,18.268 10.848,17.884 C11.36,17.5 11.8293333,17.0573333 12.256,16.556 C12.6826667,16.0546667 13.04,15.4466667 13.328,14.732 C13.616,14.0173333 13.76,13.116 13.76,12.028 C13.76,10.3853333 13.1946667,9.07866667 12.064,8.108 C10.9333333,7.13733333 9.36533333,6.652 7.36,6.652 C5.86666667,6.652 4.592,6.83333333 3.536,7.196 C2.48,7.55866667 1.54666667,8.01733333 0.736,8.572 L0.736,8.572 L2.336,11.644 C2.61333333,11.452 2.928,11.2653333 3.28,11.084 C3.632,10.9026667 4,10.7426667 4.384,10.604 C4.768,10.4653333 5.152,10.3586667 5.536,10.284 C5.92,10.2093333 6.28266667,10.172 6.624,10.172 C7.69066667,10.172 8.432,10.396 8.848,10.844 C9.264,11.292 9.472,11.8893333 9.472,12.636 C9.472,13.212 9.33333333,13.708 9.056,14.124 C8.77866667,14.54 8.432,14.94 8.016,15.324 C7.6,15.708 7.152,16.108 6.672,16.524 C6.192,16.94 5.76533333,17.4306667 5.392,17.996 C5.01866667,18.5613333 4.72533333,19.2333333 4.512,20.012 C4.29866667,20.7906667 4.24533333,21.7346667 4.352,22.844 L4.352,22.844 L7.904,22.844 Z M6.272,29.852 C7.08266667,29.852 7.72266667,29.628 8.192,29.18 C8.66133333,28.732 8.896,28.1346667 8.896,27.388 C8.896,26.6413333 8.66133333,26.0493333 8.192,25.612 C7.72266667,25.1746667 7.08266667,24.956 6.272,24.956 C5.504,24.956 4.88533333,25.1746667 4.416,25.612 C3.94666667,26.0493333 3.712,26.6413333 3.712,27.388 C3.712,28.1346667 3.94666667,28.732 4.416,29.18 C4.88533333,29.628 5.504,29.852 6.272,29.852 Z"/>
  </defs>
  <g fill="none" fill-rule="evenodd" transform="translate(53 51)">
    <g transform="translate(0 8)">
      <rect width="75.429" height="50.286" x="4.571" y="4.571" fill="#DEDEDE" fill-rule="nonzero" opacity=".66" rx="8"/>
      <g stroke="#242424" stroke-width="1.5">
        <path fill="#CCEFF0" fill-rule="nonzero" stroke-linecap="round" stroke-linejoin="round" d="M74.8571429,17.1428571 L74.8571429,24 M75.4285714,30.1233738 C75.4285714,33.3961245 75.4285714,35.1198046 75.4285714,41.6653061 C75.4285714,46.4262261 71.7445145,50.2857143 67.2,50.2857143 L8.22857143,50.2857143 C3.68405692,50.2857143 -3.90798505e-13,46.4262261 -3.90798505e-13,41.6653061 L-3.90798505e-13,8.62040816 C-3.90798505e-13,3.8594882 3.68405692,-2.55795385e-13 8.22857143,-2.55795385e-13 L65.077679,-2.55795385e-13 L67.2,-2.55795385e-13 C71.7445145,-2.55795385e-13 75.4285714,3.8594882 75.4285714,8.62040816 L75.4285714,10.2574893 L75.4285714,12.8219751"/>
        <rect width="18.286" height="1" x="41.125" y="14.857" rx=".5"/>
        <rect width="18.286" height="1" x="41.125" y="28.571" rx=".5"/>
        <rect width="18.286" height="1" x="41.125" y="21.714" rx=".5"/>
        <rect width="18.286" height="1" x="41.125" y="34.869" rx=".5"/>
        <rect width="19.071" height="22.5" x="13.321" y="14.712" fill="#FFF" fill-rule="nonzero" rx="2.474"/>
        <circle cx="22.686" cy="25.143" r="3.821" fill="#00ADB2" fill-rule="nonzero"/>
        <path fill="#00ADB2" fill-rule="nonzero" d="M22.6863034,29.3214286 C24.3095233,29.3214286 25.6150139,29.9856154 26.6061595,31.3071429 C27.581062,32.6070128 28.2587513,34.4979211 28.6714478,36.9642857 L28.6714478,36.9642857 L16.7011589,36.9642857 C17.1138555,34.4979211 17.7915448,32.6070128 18.7664472,31.3071429 C19.7575928,29.9856154 21.0630835,29.3214286 22.6863034,29.3214286 Z"/>
      </g>
    </g>
    <g transform="rotate(-90 49.5 12)">
      <path fill="#00ADB2" fill-rule="nonzero" stroke="#242424" stroke-width="1.2" d="M15.6965231,31.0078543 C16.9543327,31.0210286 18.0149361,31.4956817 18.7849939,32.2646525 C19.5534363,33.0320102 20.0328646,34.0887905 20.0461605,35.2581253 L20.0461605,35.2581253 L20.3453511,61.5710094 C20.3582078,62.7017113 19.9115398,63.7305809 19.1789821,64.4799893 C18.4464245,65.2293976 17.4279772,65.6993446 16.3036734,65.7121626 C15.0405909,65.7006188 13.9831344,65.2226838 13.214692,64.4553261 C12.4462497,63.6879685 11.9668214,62.6311881 11.9535255,61.4618534 L11.9535255,61.4618534 L11.6543349,35.1489693 C11.6414782,34.0182674 12.0881462,32.9893977 12.8207039,32.2399894 C13.5519649,31.4919075 14.5681043,31.0222986 15.6965231,31.0078543 Z" transform="rotate(45 16 48.36)"/>
      <path fill="#00ADB2" fill-rule="nonzero" stroke="#242424" stroke-width="1.2" d="M39.2032076,0.06666741 C44.6772212,0.06666741 50.1499356,2.25208923 54.3259716,6.61794503 C58.5121927,10.9944489 60.6032076,16.7310843 60.6032076,22.4666674 C60.6032076,28.2022506 58.5121927,33.9388859 54.3259716,38.3153898 C50.1499356,42.6812456 44.6772212,44.8666674 39.2032076,44.8666674 C33.7291939,44.8666674 28.2564795,42.6812456 24.0804435,38.3153898 C19.8942224,33.9388859 17.8032076,28.2022506 17.8032076,22.4666674 C17.8032076,16.7310843 19.8942224,10.9944489 24.0804435,6.61794503 C28.2564795,2.25208923 33.7291939,0.06666741 39.2032076,0.06666741 Z M39.2032076,7.55916005 C35.5445202,7.55916005 31.8845337,9.0161102 29.0925537,11.9349983 C26.3107589,14.8432385 24.9177657,18.6544268 24.9177657,22.4666674 C24.9177657,26.278908 26.3107589,30.0900964 29.0925537,32.9983365 C31.8845337,35.9172246 35.5445202,37.3741748 39.2032076,37.3741748 C42.8618949,37.3741748 46.5218814,35.9172246 49.3138614,32.9983365 C52.0956563,30.0900964 53.4886494,26.278908 53.4886494,22.4666674 C53.4886494,18.6544268 52.0956563,14.8432385 49.3138614,11.9349983 C46.5218814,9.0161102 42.8618949,7.55916005 39.2032076,7.55916005 Z"/>
      <circle cx="39.203" cy="22.467" r="14" fill="#FFF" fill-opacity=".7" fill-rule="nonzero" transform="rotate(45 39.203 22.467)"/>
      <path stroke="#242424" stroke-linecap="round" stroke-width=".5" d="M11.1003365,50.2955162 C11.8116978,50.7108302 12.5376975,50.9319296 13.2746626,50.9446146 C14.2428524,50.9612796 15.1873791,50.6174995 16.1003365,49.9451929" transform="rotate(45 13.6 50.445)"/>
      <g fill-rule="nonzero" transform="rotate(90 21 36)">
        <use fill="#000" xlink:href="#icon_perso_verloren-a"/>
        <use fill="#007996" xlink:href="#icon_perso_verloren-a"/>
      </g>
    </g>
  </g>
</svg>
