<?xml version="1.0" encoding="UTF-8"?>
<svg width="208px" height="166px" viewBox="0 0 208 166" version="1.1" xmlns="http://www.w3.org/2000/svg" xmlns:xlink="http://www.w3.org/1999/xlink">
    <title>icon_whg_anmelden</title>
    <g id="icon_whg_anmelden" stroke="none" stroke-width="1" fill="none" fill-rule="evenodd">
        <g id="Group-22" transform="translate(42.000000, 17.000000)">
            <path d="M47.5978093,102.534352 L47.5978093,101.313004 L44.4399117,103.467517 L42.9361515,104.483018 L41.9928824,105.375014 L41.5007419,104.661419 L38.7119491,100.956206 L38.9033381,100.805252 L38.9716914,100.599408 L38.8486555,100.421008 L37.6046349,101.683525 L36.292261,103.055827 L35.5130396,103.783146 L34.706477,104.249728 L33.9272556,104.40068 L33.4624563,104.40068 L32.9703158,104.318344 L32.3824834,104.002712 L31.9586961,103.879207 L31.3435198,103.879207 L30.2772175,104.414403 L30.2635469,104.222282 C30.2635469,104.222282 30.2498762,103.824315 30.2498762,103.769422 C30.2498762,103.71453 30.0994991,103.344009 30.0994991,103.344009 L30.0721578,102.84998 C30.0721578,102.84998 30.017478,102.136384 30.017478,102.095215 C30.017478,102.054046 29.8260889,101.299281 29.8260889,101.299281 L29.6073613,100.599408 L29.58002,100.091656 L29.2929364,99.5015656 L28.3359994,99.6662428 C28.3359994,99.6662428 27.4200715,99.693689 27.3790596,99.693689 C27.3380476,99.693689 26.9689429,99.8446431 26.9689429,99.8446431 L25.3831586,99.7211352 L24.6449486,100.119102 L23.8383859,100.530793 L22.6627182,101.216942 L21.3640152,101.601186 L20.6531465,101.779587 L20.2020182,101.807033 L19.5048199,102.314785 L13.5171168,105.923936 L13.5171168,106.5003 L13.4624345,107.13156 L13.2847172,108.037279 L13.4897755,108.009833 L14.3920322,107.81771 L14.9798662,107.680479 L15.8274405,107.419743 L15.9094639,108.051002 L15.3216299,108.503859 L14.5013968,108.599921 L13.4214229,108.750875 L12.6422012,108.503859 L12.0543672,108.435246 L11.2478045,108.394077 L10.6189592,108.147061 L10.5369358,107.941218 L9.93543121,108.366631 L9.29291519,109.011611 L8.67774019,109.725207 L8.41799982,110.123174 C8.41799982,110.123174 8.69141084,110.425082 8.75976353,110.452529 C8.82811648,110.479975 8.9784925,110.754434 8.9784925,110.754434 L8.91013982,111.070063 L8.52736417,111.097509 L7.96687149,110.754434 C7.96687149,110.754434 7.66611918,110.507421 7.66611918,110.466252 C7.66611918,110.425082 7.76181316,109.807546 7.76181316,109.807546 L7.91218918,109.656594 L8.47268186,109.601702 L8.78710482,109.258627 C8.78710482,109.258627 9.27924454,108.764598 9.29291519,108.723429 C9.30658584,108.68226 9.74404352,108.243123 9.74404352,108.243123 L9.26557417,108.270569 L9.21089186,108.160784 L9.08785686,107.941218 L9.67569083,107.721648 L8.78710482,107.378573 L8.66406982,107.460912 L8.50002315,107.721648 L8.22661186,107.99611 L7.84383649,108.160784 L7.47473149,108.325462 C7.47473149,108.325462 7.14663816,108.133338 7.10562649,108.119615 C7.06461482,108.105892 6.72285085,107.858879 6.72285085,107.858879 L6.36741649,107.337404 L5.92995881,106.815932 L5.7522415,106.651254 L5.43781881,106.514023 L4.8909965,106.349349 L4.5218915,105.992551 L4.46720919,105.704366 L4.18012752,105.361291 L3.98873984,105.210337 L4.0297515,105.128001 L4.22113919,104.922155 L4.0297515,104.784924 L3.66064651,104.784924 L3.71532882,104.565357 L3.85203419,104.332067 L4.04342215,104.085051 L4.20746882,103.728253 L4.19379817,103.508686 L3.64697613,103.30284 L3.56790545,103.551886 L3.64992878,104.087084 L3.52689379,104.375266 L3.15778879,104.334097 L2.58365287,104.334097 L2.58365287,103.922407 L2.50162954,103.428378 L2.33758287,103.346094 L1.72243527,103.634224 L1.8044586,103.922407 L2.17356363,104.251758 L2.17356363,104.498717 L1.76347427,104.663394 L1.51740427,104.416436 L0.984279969,104.292928 C0.984279969,104.292928 0.656186637,104.210589 0.533151664,104.087084 C0.410116665,103.963576 0.574163331,103.551886 0.574163331,103.551886 L0.410116665,103.057911 L0.328093332,102.440377 L0,101.740559 L0.246069999,101.658221 L0.984252633,101.081908 L1.59940027,100.587881 L2.05052863,99.8468913 C2.05052863,99.8468913 2.25558696,99.9703992 2.37859454,99.9703992 C2.50160212,99.9703992 2.99374212,100.093853 2.99374212,100.093853 L3.23981212,99.6410475 L3.93698303,98.9412293 L4.47010755,98.4472005 L4.30606089,97.6238744 L4.38808422,97.3768613 L4.92120847,96.7182125 L5.65939105,96.1006757 L6.31555029,95.8124933 L6.31555029,95.4420269 L6.47959696,95.1126752 L5.94644529,94.6598701 L5.37230938,93.754151 L5.1262668,93.6306431 L4.7571618,93.5483072 L4.42909588,93.1366714 L4.59314255,92.8896556 L4.14204137,92.436796 L3.56790545,92.025163 L3.64992878,91.6958086 L3.85203419,91.0893626 L3.92038715,90.1836434 L3.85203419,89.5661094 L3.45558817,89.236755 L3.59229382,88.5368823 L3.49659984,87.9467945 L3.38723549,87.5488273 L3.98873984,86.3686462 C3.98873984,86.3686462 4.28949215,85.5864349 4.31683317,85.5452656 C4.34417419,85.504099 4.56290317,84.845393 4.56290317,84.8042237 C4.56290317,84.7630544 4.56290317,84.4062565 4.56290317,84.4062565 L4.54923252,83.8436148 L6.13501714,83.3358629 L7.33802584,81.6342094 L8.65039917,79.7404352 L10.1951719,77.4898604 L11.3571692,75.9666072 L12.5054956,74.539413 C12.5054956,74.539413 12.8609302,74.1963382 12.8609302,74.1551689 C12.8609302,74.1139996 13.2026939,73.6748632 13.2026939,73.6748632 L13.4077522,73.6062504 L11.6852625,72.7142543 L11.1657812,72.4946847 L10.2088425,71.9045969 L9.23823315,71.410568 L8.89646917,71.3831218 L8.74609315,70.9714315 L8.43167019,70.7244185 L7.92585982,70.8204774 L6.69550983,71.2184446 C6.69550983,71.2184446 5.60186548,71.547799 5.54718316,71.547799 C5.49250085,71.547799 4.71327919,71.6575811 4.71327919,71.6575811 L3.74266984,71.7399197 L3.85203419,70.8067543 L3.86570484,70.0931586 L3.86570484,68.8169185 L3.92038715,67.6641862 L4.00241048,66.9780367 L4.38518586,65.9213635 L4.5218915,65.2901063 L4.60391484,64.2059896 L4.71327919,63.6021759 L4.86365548,62.3808282 L5.23276048,60.7752364 L5.45148919,59.6911197 L5.82059418,59.9655789 C5.82059418,59.9655789 6.1213465,60.349823 6.16235816,60.3635461 C6.20336983,60.3772692 6.72285085,60.5693899 6.72285085,60.5693899 L7.36536686,60.6928978 C7.36536686,60.6928978 7.85750686,60.7340671 7.89851853,60.7340671 C7.9395302,60.7340671 8.10357686,60.6517285 8.10357686,60.6517285 L8.28129417,60.5968361 L8.36331751,60.3635461 L8.36331751,60.1714227 L8.54103482,59.9244096 L8.54103482,59.6225042 L8.41799982,58.716785 L8.17192982,58.1129713 L8.44534084,57.7287273 L8.50002315,56.713226 L8.82811648,56.1094124 L9.01950417,55.2860318 L9.29291519,54.929234 L9.29291519,54.325423 L9.40227954,54.1058534 L9.37493852,52.8982288 C9.37493852,52.8982288 9.04684519,51.9650634 8.93748084,51.800389 C8.82811648,51.6357118 8.66406982,51.2514677 8.66406982,51.2514677 L8.52736417,51.0867932 L7.43371982,51.663158 L6.64082751,52.0199558 L6.25805214,52.0199558 C6.25805214,52.0199558 5.60186548,52.3493102 5.49250085,52.3493102 C5.3831365,52.3493102 5.19174881,51.9650634 5.19174881,51.9650634 L5.00036085,51.3886987 L4.67226752,51.3612525 L4.78163215,50.5378719 L4.56290317,50.4280871 L4.59024419,50.1536279 L4.75429086,50.0163969 L5.19174881,50.2359665 L6.01198214,49.9340583 L6.28539316,49.4674783 L7.35169649,49.2479087 L8.22661186,48.6715412 L9.01950417,47.4364704 C9.01950417,47.4364704 9.40227954,46.7228747 9.51164417,46.6679823 C9.62100852,46.6130926 10.3865595,46.3386306 10.3865595,46.3386306 L11.0974285,46.2288458 L11.6169095,46.6954285 L11.8629795,46.7777671 L12.2184139,46.7777671 L12.6832129,47.1345649 L13.0113062,47.2717959 L13.5034462,47.3266883 L13.9409039,47.4090269 L14.2689972,47.518809 L14.7884782,47.518809 L15.1165716,47.9030531 L15.5813705,48.0402841 L16.0188282,48.397082 L16.5656505,48.6715412 L17.3585428,48.7264336 L18.2607992,49.1106777 L19.0536915,49.4949218 L19.2177382,48.9734494 L20.2840415,48.9460032 L20.9675692,49.1655701 L21.2136392,48.2324075 L21.2136392,47.7383786 L20.8308636,47.1894573 L20.2293592,46.7228747 L19.4911492,46.1739561 L18.4430825,44.9114383 L17.8233415,44.0697512 L17.7504229,43.4476323 L18.1514349,43.1182801 L18.6435749,42.7523423 L19.0810326,41.7093938 L19.5002539,40.776229 L19.7919015,40.0809392 L20.047076,39.4771267 L20.4298516,39.0379905 L20.7214992,38.1231325 L20.9219916,37.3912294 L20.9402282,36.6593265 L21.9427445,36.5495423 L21.9791902,36.7142184 L22.7629778,36.7325249 L23.4373737,36.6227409 L23.9659868,36.6227409 C23.9659868,36.6227409 24.4945997,36.512957 24.5674912,36.512957 C24.6403826,36.512957 24.9137937,36.3482809 24.9867125,36.3482809 C25.0596312,36.3482809 25.4241702,36.5861554 25.4788525,36.5861554 C25.5335346,36.5861554 25.8251822,36.6410475 25.8251822,36.6410475 L26.1168026,36.5312632 L26.9188263,36.5495698 L27.6296944,36.4397858 C27.6296944,36.4397858 28.2312001,36.3300018 28.3770113,36.3665871 C28.5228198,36.4031727 29.106116,36.5861554 29.0514335,36.5678488 C28.9967509,36.5495423 29.0149603,34.8661959 29.0149603,34.8661959 L28.9420683,34.0611219 L28.7415501,33.4938949 L28.4316912,32.8900825 L28.3952479,32.3594686 C28.3952479,32.3594686 29.3794991,32.5973434 29.4524183,32.5973434 C29.5253374,32.5973434 30.017478,32.5424513 30.017478,32.5424513 L30.4549332,32.3777752 L31.0746755,32.4143608 C31.0746755,32.4143608 31.8401991,32.1947925 31.9131182,32.1947925 C31.9860374,32.1947925 32.3505762,32.066702 32.3505762,32.066702 L32.4234954,28.5719184 L31.7673071,28.5719184 L31.8949088,25.9919928 L32.9885524,26.2664529 L33.7723125,26.3396513 L34.8295128,26.303066 L35.5403809,26.1932817 L36.4152968,26.1018043 L36.9438834,26.7056166 L35.2487342,28.041332 L36.8527548,30.8957177 L37.0167998,30.9323033 C37.0167998,30.9323033 36.8709914,31.8837744 36.8709914,31.9386662 C36.8709914,31.9935584 36.6704705,32.2680185 36.6704705,32.2680185 L36.7069436,32.7254615 L36.652261,33.2926882 L37.162611,34.3539433 L37.3084493,34.9211703 L37.3631319,35.1956304 L36.1236501,35.9458122 L37.2719762,35.7811361 L37.9463983,35.6530456 C37.9463983,35.6530456 38.8395508,36.0189834 38.948916,36.0189834 C39.0582784,36.0189834 39.8420386,36.055569 39.8420386,36.055569 L41.4278254,36.5312908 L42.521469,37.0436256 L43.0682921,36.8240574 L43.870316,36.6410747 L45.1826871,36.5129842 L45.2920523,36.8240299 L45.9664473,36.5312632 L46.4039053,36.6044619 L46.8413632,36.3300018 L47.2788212,36.073848 L48.1355277,35.7628023 L48.390704,35.6896037 L48.7187968,35.2321609 L48.9375244,35.1772691 L49.466111,34.8662234 L49.8488863,34.3905013 L49.6119493,33.9513651 L50.1405331,32.981615 L50.2134523,33.1279846 L50.4686259,32.871831 L50.7602754,32.7071549 L50.6873562,32.5607854 L50.5050719,32.4875867 L50.8696379,32.2497122 L51.2706227,32.2680185 L51.7080806,32.0484505 L51.8903649,31.7922967 L51.9997301,31.2067909 L51.9632841,30.566393 L52.3642689,30.0357791 L52.5829965,29.084308 L52.6559157,28.8281542 L53.0751371,28.8281542 L53.1298197,28.6634781 L53.2574214,28.4622167 L54.3328284,29.4502731 L55.0072505,29.8345174 L55.3353433,30.1638697 C55.3353433,30.1638697 56.0826602,29.761319 56.1373401,29.8345174 C56.1920226,29.9077158 56.3560704,30.1089775 56.3560704,30.1089775 L56.6294806,30.1089775 L56.6294806,30.5846993 C56.6294806,30.5846993 57.2492229,31.2434037 57.3039055,31.2799893 C57.3585881,31.3165749 58.5433602,32.0301715 58.5433602,32.0301715 L59.2724649,31.4080526 L59.9468871,31.481251 L60.2749799,31.1518988 L60.0926982,30.3285182 L60.1109348,29.2306776 L61.2410244,28.8647398 L61.2957069,27.7303136 L61.8242935,27.5473309 C61.8242935,27.5473309 62.4257965,27.4192404 62.4804791,27.4192404 C62.5351617,27.4192404 63.3371856,27.3826548 63.3371856,27.3826548 L63.3736316,27.6571152 C63.3736316,27.6571152 64.7407152,27.8034847 64.7771856,27.7485926 C64.8136588,27.6937008 65.2511167,27.6205021 65.2511167,27.5473309 C65.2511167,27.4741325 65.3604819,27.0898882 65.3604819,27.0898882 L65.7614667,26.8703202 L66.0531135,26.6690585 L66.5999366,26.5775808 L66.8369008,26.1384446 L67.2925682,25.9005701 L67.2196789,25.2967575 L66.982712,25.150388 L65.1052811,25.0222974 C65.1052811,25.0222974 63.5924406,23.7597807 63.446605,23.7597807 C63.3007667,23.7597807 62.6445811,23.467014 62.6445811,23.467014 L64.3215209,21.4725942 L65.5062931,21.8568385 L66.1807152,20.7589978 L66.381209,20.8138898 L67.1285231,19.6245716 L67.4019333,19.8075541 L67.930547,19.3501114 L68.0945921,19.5696795 C68.0945921,19.5696795 67.2925682,21.1615485 67.3108048,21.2164406 C67.3290413,21.2713326 67.5112985,21.7836674 67.5112985,21.7836674 L69.6621423,20.5760426 L69.2611276,24.290312 L70.4459025,25.4979369 L72.7425547,26.7421471 L73.2529318,26.9068232 L74.6564316,28.0778625 L75.8229943,27.5289421 L76.1328532,28.1144481 L76.4974191,28.1327547 L76.3698174,30.3467425 L75.8594403,32.7802986 L73.7450696,34.1709058 L73.7633062,35.9823431 L73.5081055,36.1470192 L72.6331895,38.7269448 L72.4144619,40.6298594 L72.8519199,40.5017689 L74.8569525,44.3807969 L77.5545895,43.9965525 L78.2107778,44.1063368 L79.1768467,44.3259047 L80.470984,44.7284556 L82.0932141,45.1675918 L82.0750047,45.3505745 L83.1321751,45.8994941 L84.0982467,46.6679823 L84.9913721,47.3632742 L85.5746683,48.0768699 L86.0668062,48.8087722 L86.431345,49.5955669 L87.5432006,49.1564305 L87.925976,49.4308925 L88.1264942,49.9981176 L88.7279999,49.9615317 L89.1654579,51.0593743 L89.2019039,51.7546635 L89.4388681,52.3218913 L89.4935507,52.8891164 L89.5846793,53.4380377 L89.9492181,54.0235421 L90.313784,54.5724633 L90.2226283,55.2128628 L90.2226283,55.7983672 L90.1314997,56.4204875 L95.3992019,57.6830045 L96.9667792,57.8659855 L98.0421862,57.9025714 L99.6462068,58.1404448 L99.755572,58.4881057 L99.1540663,59.4944673 L98.7166083,59.4395749 C98.7166083,59.4395749 98.643662,59.6042521 98.5707727,59.6042521 C98.4978807,59.6042521 98.2973598,59.5127739 98.2973598,59.5127739 C98.2973598,59.5127739 98.0968688,59.6042521 98.0421862,59.6042521 C97.9875036,59.6042521 97.4771265,59.5493597 97.4771265,59.5493597 L97.73233,60.6471995 L97.6047282,60.8118767 L97.8416924,61.89141 L98.5160902,61.8182111 L99.9013805,61.63523 L101.32312,61.8547969 L102.270925,61.7999045 L103.601535,61.63523 L103.966074,62.8062688 L103.127631,63.6113428 L102.434972,64.1785706 L101.760577,64.7457685 L101.031473,65.459367 L100.247683,66.3925296 L99.5186051,67.6367673 L99.1905123,68.6064912 L98.9353115,69.503098 L98.7165812,70.6741095 L98.5343267,71.6987776 L98.406725,72.5587168 L98.1879974,72.8880685 L99.2087217,73.2174229 L98.5160902,74.4250475 L96.8027043,77.0964767 L96.6751297,78.6700661 L97.1307971,78.9261943 C97.1307971,78.9261943 96.3105638,80.170432 96.3652464,80.170432 C96.419929,80.170432 97.0579051,80.3717196 97.0579051,80.3717196 L97.4224439,79.9691417 L98.2062339,80.2253217 L98.2244407,80.8108561 L98.3155964,80.8291354 L98.2973598,81.3963359 L98.5343267,81.4146697 L98.5890093,81.2865511 L98.4796441,80.7193506 L98.8624195,80.6461789 L98.8259464,79.2189874 L99.4092426,79.2006536 C99.4092426,79.2006536 99.828464,78.7432378 99.8831439,78.7066247 C99.9378265,78.6700661 100.703377,78.3589937 100.703377,78.3589937 L101.341329,77.9564703 C101.341329,77.9564703 102.015778,77.2428746 102.08867,77.2428746 C102.161562,77.2428746 102.890667,77.3343229 102.890667,77.3343229 L103.820266,77.7734593 L104.294169,77.8100724 L105.005038,78.3041013 L105.624777,78.6517323 C105.624777,78.6517323 105.934636,78.6700661 106.043999,78.6700661 C106.153364,78.6700661 106.663741,78.4870578 106.663741,78.4870578 L107.192325,78.8164095 L108.067241,79.4385542 L108.92392,79.89597 L109.270249,80.4815044 C109.270249,80.4815044 109.744153,80.7925223 109.798836,80.8108561 C109.853518,80.8291354 110.363896,80.9571995 110.363896,80.9571995 L111.530431,81.0853153 L112.059045,81.1767663 C112.059045,81.1767663 112.423584,82.0916524 112.423584,82.1465448 C112.423584,82.2014372 112.478263,82.8052481 112.478263,82.8052481 L112.769913,83.299277 L112.751676,83.7018004 L112.751676,83.9762597 L113.972922,84.0311521 L114.100494,83.5371232 L114.082287,82.9699253 L113.972922,82.4758965 L113.535464,82.384391 L113.316733,81.0853153 L112.933958,80.4997837 L112.71523,79.9508624 L113.043323,79.9691417 L113.699509,80.5546761 L114.556188,81.1035946 C114.556188,81.1035946 115.157694,81.4512256 115.212376,81.4512256 C115.267059,81.4512256 115.68628,81.4512256 115.68628,81.4512256 L116.324284,82.2563296 L116.816424,83.2443846 C116.816424,83.2443846 117.436137,83.8664776 117.490819,83.8664776 C117.545502,83.8664776 118.092325,84.4886223 118.092325,84.4886223 C118.092325,84.4886223 118.438627,84.909425 118.529783,84.9277588 C118.620939,84.9460381 119.422935,84.9643174 119.422935,84.9643174 L119.568744,84.8362533 L119.751028,84.8728664 L119.805711,85.0375436 C119.805711,85.0375436 121.154528,85.3120029 121.227447,85.3120029 C121.300366,85.3120029 121.482621,85.1473284 121.482621,85.1473284 C121.482621,85.1473284 122.649186,85.5498491 122.703866,85.5498491 C122.758549,85.5498491 123.451183,85.9340959 123.451183,85.9340959 L123.560545,86.1536627 L123.74283,86.0438779 L123.432973,86.9038716 L123.998003,86.9953226 L123.779276,88.2944527 L124.8,88.4225141 L124.50838,88.953156 L123.469419,88.9348767 L123.706356,87.3795667 L122.722075,87.5625777 L121.591986,88.5871913 L121.464384,90.1058883 L120.71707,90.1607807 L120.589471,90.2156731 L119.823917,90.2156731 L119.131286,89.9594931 L118.383972,89.5020773 L117.764232,89.0629408 L117.581948,88.8982636 L117.600184,89.2642284 L118.165244,89.7216442 L118.784956,90.0692752 L119.258888,90.1973938 L119.769238,90.3071786 L120.334295,90.3437372 L120.881118,90.4718558 L120.844672,91.441577 L121.318576,91.6611466 L121.20921,92.1002803 L120.516579,92.2100651 L119.514061,94.1678986 L119.568744,94.5338661 L119.459379,94.8814971 L119.33178,95.3938025 L119.550507,95.8146597 L119.860391,96.2355169 L120.224932,96.7295458 L120.17025,96.9491154 L120.771753,97.2601332 L121.008719,97.626098 L121.099845,98.1018476 L120.644151,98.4494786 L120.480106,99.1630743 L120.461896,99.6204901 L119.751028,100.370699 L119.550507,100.315807 L119.386462,100.35242 L119.222414,100.35242 L118.894322,100.535376 L118.584465,100.846448 L118.092325,100.937899 L117.873595,100.809835 L117.509056,100.828115 L117.290328,100.608548 L116.85287,100.901341 L116.524777,101.248972 L116.233128,101.431928 L116.160209,101.688108 L115.923272,101.889399 L115.595179,102.108966 L115.303532,102.273643 L115.048356,102.548102 L114.811392,102.566381 L114.228122,103.499547 L114.17344,103.188472 L113.954712,103.151916 L113.881793,103.6825 L113.499018,104.139971 L113.207371,104.579107 L112.879275,104.926738 L112.587656,105.237811 L112.259563,105.237811 L112.077279,105.329262 L111.93147,105.713506 L112.20488,106.006301 L112.4965,105.914796 L113.535464,106.518607 L114.39217,106.372212 L114.064077,107.506665 L114.556215,107.524944 L114.68379,107.616449 L114.66558,107.927522 L114.446853,108.403217 L114.209886,108.988748 L113.845347,109.702347 L113.444335,110.214652 L113.5537,110.544004 C113.5537,110.544004 113.225608,110.598896 113.28029,110.61723 C113.33497,110.63551 113.389653,110.781907 113.389653,110.781907 L113.098006,110.672123 L112.824596,110.781907 L112.551183,110.800187 L111.93147,110.397663 L111.512222,110.214652 L110.910716,110.434222 L110.108719,110.983141 L109.561899,111.129538 L109.343168,111.67846 L109.25204,111.861413 L109.033312,111.989532 L108.796348,112.50184 L108.705219,113.563067 L108.741665,114.020537 C108.741665,114.020537 108.322444,114.07543 108.322444,114.130322 C108.322444,114.185214 108.213079,114.496232 108.213079,114.496232 L108.121923,114.935369 L107.957878,115.301334 L107.538657,115.502621 L107.52042,115.868531 L107.155881,116.033209 L107.137645,116.563851 L107.02828,117.002987 L107.064753,117.368952 L106.846022,117.625077 L106.645504,117.93615 L106.335648,118.521684 L106.317412,118.997379 C106.317412,118.997379 106.353885,119.619524 106.353885,119.692696 C106.353885,119.765867 106.135154,120.040327 106.135154,120.040327 L105.734142,120.150111 L105.296684,120.05866 L104.950355,119.82076 L104.731625,119.80248 C104.731625,119.80248 104.203068,119.125441 104.111912,119.107164 C104.020757,119.088885 103.419254,118.045935 103.419254,118.045935 L103.309888,117.057879 L103.291679,115.283054 C103.291679,115.283054 103.328125,114.240104 103.328125,114.185214 C103.328125,114.130322 103.674454,113.453282 103.674454,113.453282 L104.512897,112.428669 C104.512897,112.428669 104.986801,111.898027 105.005038,111.806521 C105.023274,111.715073 105.005038,111.239323 105.005038,111.239323 L104.786307,110.544004 L103.947865,110.37933 L104.075439,109.574283 L103.838502,108.23854 L102.161562,108.732569 L101.104389,107.250482 L97.1672703,109.830408 L97.2583989,109.171705 L97.1672703,108.824074 L97.0579051,108.622784 L96.9667494,108.531333 L97.1490337,108.22026 L96.9849859,107.689618 L96.583974,107.415159 C96.583974,107.415159 96.4381655,107.03097 96.383483,107.012636 C96.3288004,106.994356 96.0553902,106.811348 96.0553902,106.811348 L95.7272974,106.390545 L95.1622377,106.280761 L94.8888275,105.805011 L94.907064,105.567165 L94.8523815,105.310982 L94.6518877,105.237811 L94.5425225,104.963351 L94.6518877,104.615666 L94.6700971,104.341206 L94.5425225,104.085078 L94.3237949,103.883791 L92.8838492,104.634 L91.9907238,104.890125 C91.9907238,104.890125 91.2251731,105.182921 91.1522539,105.182921 C91.0793347,105.182921 90.6054308,105.347595 90.6054308,105.347595 C90.6054308,105.347595 90.0039278,105.695226 89.9492452,105.695226 C89.8945626,105.695226 89.0925659,105.969688 89.0925659,105.969688 L88.21765,105.969688 C88.21765,105.969688 87.3609435,105.951409 87.2698149,105.951409 C87.178689,105.951409 86.4678181,105.987968 86.4678181,105.987968 L85.7022674,106.024578 C85.7022674,106.024578 85.1189738,106.024578 85.0642912,106.024578 C85.0096086,106.024578 83.6607888,106.061191 83.6607888,106.061191 L83.6061062,105.493939 L83.6061062,104.835233 L83.6607888,104.286314 L83.8430731,103.444654 L83.9524383,102.840841 L84.0800101,102.529768 C84.0800101,102.529768 83.442034,102.950625 83.369142,102.950625 C83.29625,102.950625 82.6035912,103.462934 82.6035912,103.462934 C82.6035912,103.462934 81.4917383,103.042131 81.3823731,102.987238 C81.2730079,102.932346 80.4163286,102.49321 80.4163286,102.49321 C80.4163286,102.49321 80.0335532,102.365091 79.9606341,102.365091 C79.8877149,102.365091 79.486703,102.602994 79.3955771,102.621274 C79.3044485,102.639553 78.3019308,102.950625 78.3019308,102.950625 L77.1900779,103.206805 L76.0235152,103.499547 L74.4741771,104.085078 L73.2711684,104.487602 L72.9066296,102.767669 L72.3415699,101.468541 C72.3415699,101.468541 70.7740224,97.3699725 70.5917652,97.3516387 C70.4095108,97.3333594 69.9720256,97.095456 69.8262145,97.095456 C69.680406,97.095456 68.9148526,97.2967463 68.9148526,97.2967463 C68.9148526,97.2967463 66.6181732,98.6324323 66.5452812,98.6507689 C66.4723891,98.6690454 65.196464,99.3460308 65.196464,99.3460308 C65.196464,99.3460308 64.0298986,100.09624 63.8840901,100.07796 C63.7382789,100.059627 61.6421178,100.883007 61.6421178,100.883007 L61.6056717,101.724721 L63.6835964,108.055586 L63.5377608,108.750902 L62.5717162,111.294216 C62.5717162,111.294216 60.0016511,111.184431 59.7829235,111.221044 C59.5641931,111.257603 56.5931187,111.129538 56.5931187,111.129538 L56.1921068,107.890909 L53.0570091,108.000693 C53.0570091,108.000693 53.2392663,106.445381 53.1845837,106.427101 C53.1299011,106.408825 51.2889434,105.439046 51.2889434,105.439046 L49.4023237,104.112497 L47.5978093,102.534352 Z" id="Berlin" stroke="#00ADB2" stroke-width="1.08" fill="#00ADB2" stroke-linecap="round" stroke-linejoin="round"></path>
            <g id="Group-17" transform="translate(33.501181, 0.000000)">
                <g id="Group" transform="translate(1.200000, 0.000000)">
                    <path d="M7.36,37.5003633 C7.36,36.9099867 7.36,36.1069348 7.36,35.0912079 C7.36,32.9047311 7.36,27.4076618 7.36,18.6 L27.6,0 L47.4,18.6 L48.44,44.4501883 C47.6299478,47.9367294 45.855876,49.68 43.1177845,49.68 C40.3796929,49.68 30.3004315,49.68 12.88,49.68 C9.2,49.1893333 7.36,47.3493333 7.36,44.16 C7.36,43.2326596 7.36,41.8546477 7.36,40.0259643" id="Path" fill="#F8F8F8"></path>
                    <path d="M47.84,41.6938985 L47.84,44.16 C47.84,47.2086118 45.3686118,49.68 42.32,49.68 L12.88,49.68 C9.83138818,49.68 7.36,47.2086118 7.36,44.16 C7.36,41.7790951 7.36,44.0843509 7.36,42.8938985 M7.36,36.9971082 C7.36,34.0880491 7.36,28.0880491 7.36,18.9971082" id="Shape" stroke="#242424" stroke-width="1.5"></path>
                    <line x1="47.844" y1="18.6" x2="47.844" y2="31.8" id="Path" stroke="#242424" stroke-width="1.5" fill="#FFFFFF"></line>
                    <line x1="47.84" y1="35.5456988" x2="47.84" y2="38.176" id="Path" stroke="#242424" stroke-width="1.5" stroke-linecap="round" stroke-linejoin="round"></line>
                    <polyline id="Path" stroke="#242424" stroke-width="1.5" stroke-linecap="round" stroke-linejoin="round" points="0 25.76 27.6 1.09139364e-12 55.2 25.76"></polyline>
                    <path d="M18.4,36.6428924 L18.4,31.65 C18.4,30.3245166 19.4745166,29.25 20.8,29.25 L32.56,29.25 C33.8854834,29.25 34.96,30.3245166 34.96,31.65 L34.96,47.3056208 C34.96,48.6311042 33.8854834,49.7056208 32.56,49.7056208 L20.8,49.7056208 C19.4745166,49.7056208 18.4,48.6311042 18.4,47.3056208 L18.4,46.3765031 L18.4,43.041241" id="Shape" stroke="#242424" stroke-width="1.5" fill="#CCEFF0" stroke-linecap="round"></path>
                    <path d="M26.88,25.4832816 C27.1361544,25.4832816 27.388791,25.542921 27.6179024,25.6574767 L27.6179024,25.6574767 L34.8179024,29.2574767 C35.0973993,29.3972251 35.3254236,29.6099329 35.4835738,29.8658252 C35.641724,30.1217176 35.73,30.4207946 35.73,30.7332816 L35.73,30.7332816 L35.73,48.8267184 C35.73,49.1392054 35.641724,49.4382824 35.4835738,49.6941748 C35.3254236,49.9500671 35.0973993,50.1627749 34.8179024,50.3025233 L34.8179024,50.3025233 L27.6179024,53.9025233 C27.2103702,54.1062894 26.7588264,54.1255799 26.3582242,53.9920459 C25.957622,53.8585118 25.6079613,53.5721531 25.4041951,53.1646209 C25.2896394,52.9355094 25.23,52.6828728 25.23,52.4267184 L25.23,52.4267184 L25.23,27.1332816 C25.23,26.6776467 25.4146825,26.2651467 25.7132738,25.9665554 C26.0118651,25.6679641 26.4243651,25.4832816 26.88,25.4832816 Z" id="Rectangle" stroke="#242424" stroke-width="1.5" fill="#00ADB2"></path>
                </g>
            </g>
            <g id="Group-18" transform="translate(19.800000, 16.750111)">
                <path d="M19.5692308,40.0879121 C29.4153846,31.4826533 34.3384615,23.9565791 34.3384615,17.5096895 C34.3384615,7.839355 27.7260517,8.18545232e-13 19.5692308,8.18545232e-13 C11.4124098,8.18545232e-13 4.8,7.839355 4.8,17.5096895 C4.8,23.9565791 9.72307692,31.4826533 19.5692308,40.0879121 Z" id="Oval" fill-opacity="0.15" fill="#000000"></path>
                <path d="M14.7692308,0.934615385 C18.6281733,0.934615385 22.1133749,2.8019621 24.6393617,5.79665049 C27.2076805,8.84152577 28.7884615,13.0499554 28.7884615,17.6943048 C28.7884615,23.8921165 24.0438205,31.0653192 14.7677935,39.2724766 C5.49405169,31.0644282 0.75,23.8917316 0.75,17.6943048 C0.75,13.0499554 2.33078103,8.84152577 4.89909989,5.79665049 C7.42508666,2.8019621 10.9102882,0.934615385 14.7692308,0.934615385 Z" id="Oval" stroke="#242424" stroke-width="1.5" fill="#CCEFF0"></path>
                <circle id="Oval" stroke="#242424" stroke-width="1.5" fill="#FFFFFF" cx="14.7692308" cy="14.6162637" r="5.57967033"></circle>
            </g>
        </g>
    </g>
</svg>