<?xml version="1.0" encoding="UTF-8"?>
<svg width="137px" height="107px" viewBox="0 0 137 107" version="1.1" xmlns="http://www.w3.org/2000/svg" xmlns:xlink="http://www.w3.org/1999/xlink">
    <title>icon_voraussetzung</title>
    <g id="icon_voraussetzung" stroke="none" stroke-width="1" fill="none" fill-rule="evenodd">
        <g id="Group-16" transform="translate(11.000000, 0.000000)">
            <path d="M47.5978093,85.1842403 L47.5978093,83.9628925 L44.4399117,86.1174056 L42.9361515,87.1329068 L41.9928824,88.0249029 L41.5007419,87.3113071 L38.7119491,83.6060947 L38.9033381,83.4551406 L38.9716914,83.2492968 L38.8486555,83.0708965 L37.6046349,84.3334135 L36.292261,85.7057153 L35.5130396,86.4330342 L34.706477,86.8996169 L33.9272556,87.0505682 L33.4624563,87.0505682 L32.9703158,86.9682324 L32.3824834,86.6526011 L31.9586961,86.5290959 L31.3435198,86.5290959 L30.2772175,87.0642913 L30.2635469,86.8721707 C30.2635469,86.8721707 30.2498762,86.4742035 30.2498762,86.4193111 C30.2498762,86.3644187 30.0994991,85.9938977 30.0994991,85.9938977 L30.0721578,85.4998688 C30.0721578,85.4998688 30.017478,84.7862731 30.017478,84.7451038 C30.017478,84.7039345 29.8260889,83.9491694 29.8260889,83.9491694 L29.6073613,83.2492968 L29.58002,82.7415448 L29.2929364,82.1514542 L28.3359994,82.3161314 C28.3359994,82.3161314 27.4200715,82.3435776 27.3790596,82.3435776 C27.3380476,82.3435776 26.9689429,82.4945317 26.9689429,82.4945317 L25.3831586,82.3710238 L24.6449486,82.768991 L23.8383859,83.1806813 L22.6627182,83.8668308 L21.3640152,84.2510749 L20.6531465,84.4294752 L20.2020182,84.4569214 L19.5048199,84.9646734 L13.5171168,88.5738242 L13.5171168,89.1501889 L13.4624345,89.7814488 L13.2847172,90.6871679 L13.4897755,90.6597217 L14.3920322,90.4675983 L14.9798662,90.3303673 L15.8274405,90.0696312 L15.9094639,90.700891 L15.3216299,91.1537479 L14.5013968,91.2498096 L13.4214229,91.4007637 L12.6422012,91.1537479 L12.0543672,91.0851351 L11.2478045,91.0439658 L10.6189592,90.79695 L10.5369358,90.5911062 L9.93543121,91.0165196 L9.29291519,91.6614998 L8.67774019,92.3750956 L8.41799982,92.7730628 C8.41799982,92.7730628 8.69141084,93.074971 8.75976353,93.1024172 C8.82811648,93.1298634 8.9784925,93.4043226 8.9784925,93.4043226 L8.91013982,93.7199512 L8.52736417,93.7473974 L7.96687149,93.4043226 C7.96687149,93.4043226 7.66611918,93.1573096 7.66611918,93.1161403 C7.66611918,93.074971 7.76181316,92.4574342 7.76181316,92.4574342 L7.91218918,92.3064828 L8.47268186,92.2515904 L8.78710482,91.9085156 C8.78710482,91.9085156 9.27924454,91.4144868 9.29291519,91.3733175 C9.30658584,91.3321482 9.74404352,90.8930117 9.74404352,90.8930117 L9.26557417,90.9204579 L9.21089186,90.8106731 L9.08785686,90.5911062 L9.67569083,90.3715366 L8.78710482,90.0284619 L8.66406982,90.1108005 L8.50002315,90.3715366 L8.22661186,90.6459986 L7.84383649,90.8106731 L7.47473149,90.9753503 C7.47473149,90.9753503 7.14663816,90.7832269 7.10562649,90.7695038 C7.06461482,90.7557807 6.72285085,90.5087676 6.72285085,90.5087676 L6.36741649,89.9872926 L5.92995881,89.4658202 L5.7522415,89.301143 L5.43781881,89.163912 L4.8909965,88.9992375 L4.5218915,88.6424397 L4.46720919,88.3542546 L4.18012752,88.0111798 L3.98873984,87.8602257 L4.0297515,87.7778898 L4.22113919,87.5720433 L4.0297515,87.4348123 L3.66064651,87.4348123 L3.71532882,87.2152454 L3.85203419,86.9819555 L4.04342215,86.7349397 L4.20746882,86.3781418 L4.19379817,86.1585749 L3.64697613,85.9527284 L3.56790545,86.2017743 L3.64992878,86.7369725 L3.52689379,87.0251549 L3.15778879,86.9839856 L2.58365287,86.9839856 L2.58365287,86.5722953 L2.50162954,86.0782664 L2.33758287,85.9959823 L1.72243527,86.2841129 L1.8044586,86.5722953 L2.17356363,86.901647 L2.17356363,87.1486056 L1.76347427,87.3132828 L1.51740427,87.0663242 L0.984279969,86.9428163 C0.984279969,86.9428163 0.656186637,86.8604777 0.533151664,86.7369725 C0.410116665,86.6134646 0.574163331,86.2017743 0.574163331,86.2017743 L0.410116665,85.7078 L0.328093332,85.0902659 L-3.62376795e-13,84.3904478 L0.246069999,84.3081092 L0.984252633,83.7317962 L1.59940027,83.23777 L2.05052863,82.4967799 C2.05052863,82.4967799 2.25558696,82.6202878 2.37859454,82.6202878 C2.50160212,82.6202878 2.99374212,82.7437412 2.99374212,82.7437412 L3.23981212,82.2909361 L3.93698303,81.5911179 L4.47010755,81.0970891 L4.30606089,80.273763 L4.38808422,80.02675 L4.92120847,79.3681011 L5.65939105,78.7505643 L6.31555029,78.462382 L6.31555029,78.0919155 L6.47959696,77.7625638 L5.94644529,77.3097587 L5.37230938,76.4040396 L5.1262668,76.2805317 L4.7571618,76.1981958 L4.42909588,75.78656 L4.59314255,75.5395442 L4.14204137,75.0866847 L3.56790545,74.6750516 L3.64992878,74.3456972 L3.85203419,73.7392512 L3.92038715,72.833532 L3.85203419,72.215998 L3.45558817,71.8866436 L3.59229382,71.1867709 L3.49659984,70.5966831 L3.38723549,70.1987159 L3.98873984,69.0185348 C3.98873984,69.0185348 4.28949215,68.2363235 4.31683317,68.1951542 C4.34417419,68.1539877 4.56290317,67.4952816 4.56290317,67.4541123 C4.56290317,67.412943 4.56290317,67.0561451 4.56290317,67.0561451 L4.54923252,66.4935035 L6.13501714,65.9857515 L7.33802584,64.284098 L8.65039917,62.3903238 L10.1951719,60.139749 L11.3571692,58.6164958 L12.5054956,57.1893016 C12.5054956,57.1893016 12.8609302,56.8462269 12.8609302,56.8050576 C12.8609302,56.7638883 13.2026939,56.3247518 13.2026939,56.3247518 L13.4077522,56.256139 L11.6852625,55.364143 L11.1657812,55.1445734 L10.2088425,54.5544855 L9.23823315,54.0604566 L8.89646917,54.0330104 L8.74609315,53.6213202 L8.43167019,53.3743071 L7.92585982,53.4703661 L6.69550983,53.8683332 C6.69550983,53.8683332 5.60186548,54.1976876 5.54718316,54.1976876 C5.49250085,54.1976876 4.71327919,54.3074697 4.71327919,54.3074697 L3.74266984,54.3898083 L3.85203419,53.456643 L3.86570484,52.7430472 L3.86570484,51.4668071 L3.92038715,50.3140749 L4.00241048,49.6279253 L4.38518586,48.5712521 L4.5218915,47.9399949 L4.60391484,46.8558782 L4.71327919,46.2520645 L4.86365548,45.0307168 L5.23276048,43.425125 L5.45148919,42.3410083 L5.82059418,42.6154676 C5.82059418,42.6154676 6.1213465,42.9997116 6.16235816,43.0134347 C6.20336983,43.0271578 6.72285085,43.2192785 6.72285085,43.2192785 L7.36536686,43.3427864 C7.36536686,43.3427864 7.85750686,43.3839557 7.89851853,43.3839557 C7.9395302,43.3839557 8.10357686,43.3016171 8.10357686,43.3016171 L8.28129417,43.2467247 L8.36331751,43.0134347 L8.36331751,42.8213113 L8.54103482,42.5742983 L8.54103482,42.2723928 L8.41799982,41.3666736 L8.17192982,40.76286 L8.44534084,40.3786159 L8.50002315,39.3631147 L8.82811648,38.759301 L9.01950417,37.9359204 L9.29291519,37.5791226 L9.29291519,36.9753116 L9.40227954,36.755742 L9.37493852,35.5481174 C9.37493852,35.5481174 9.04684519,34.6149521 8.93748084,34.4502776 C8.82811648,34.2856004 8.66406982,33.9013563 8.66406982,33.9013563 L8.52736417,33.7366818 L7.43371982,34.3130466 L6.64082751,34.6698445 L6.25805214,34.6698445 C6.25805214,34.6698445 5.60186548,34.9991989 5.49250085,34.9991989 C5.3831365,34.9991989 5.19174881,34.6149521 5.19174881,34.6149521 L5.00036085,34.0385873 L4.67226752,34.0111411 L4.78163215,33.1877606 L4.56290317,33.0779758 L4.59024419,32.8035165 L4.75429086,32.6662855 L5.19174881,32.8858551 L6.01198214,32.5839469 L6.28539316,32.1173669 L7.35169649,31.8977973 L8.22661186,31.3214299 L9.01950417,30.086359 C9.01950417,30.086359 9.40227954,29.3727633 9.51164417,29.3178709 C9.62100852,29.2629812 10.3865595,28.9885192 10.3865595,28.9885192 L11.0974285,28.8787344 L11.6169095,29.3453171 L11.8629795,29.4276557 L12.2184139,29.4276557 L12.6832129,29.7844536 L13.0113062,29.9216846 L13.5034462,29.976577 L13.9409039,30.0589156 L14.2689972,30.1686976 L14.7884782,30.1686976 L15.1165716,30.5529417 L15.5813705,30.6901727 L16.0188282,31.0469706 L16.5656505,31.3214299 L17.3585428,31.3763223 L18.2607992,31.7605663 L19.0536915,32.1448104 L19.2177382,31.6233381 L20.2840415,31.5958919 L20.9675692,31.8154587 L21.2136392,30.8822961 L21.2136392,30.3882672 L20.8308636,29.839346 L20.2293592,29.3727633 L19.4911492,28.8238447 L18.4430825,27.5613269 L17.8233415,26.7196398 L17.7504229,26.0975209 L18.1514349,25.7681687 L18.6435749,25.4022309 L19.0810326,24.3592824 L19.5002539,23.4261176 L19.7919015,22.7308279 L20.047076,22.1270153 L20.4298516,21.6878791 L20.7214992,20.7730211 L20.9219916,20.041118 L20.9402282,19.3092151 L21.9427445,19.1994309 L21.9791902,19.364107 L22.7629778,19.3824135 L23.4373737,19.2726296 L23.9659868,19.2726296 C23.9659868,19.2726296 24.4945997,19.1628456 24.5674912,19.1628456 C24.6403826,19.1628456 24.9137937,18.9981695 24.9867125,18.9981695 C25.0596312,18.9981695 25.4241702,19.236044 25.4788525,19.236044 C25.5335346,19.236044 25.8251822,19.2909361 25.8251822,19.2909361 L26.1168026,19.1811519 L26.9188263,19.1994584 L27.6296944,19.0896744 C27.6296944,19.0896744 28.2312001,18.9798904 28.3770113,19.0164757 C28.5228198,19.0530613 29.106116,19.236044 29.0514335,19.2177374 C28.9967509,19.1994309 29.0149603,17.5160845 29.0149603,17.5160845 L28.9420683,16.7110105 L28.7415501,16.1437835 L28.4316912,15.5399712 L28.3952479,15.0093573 C28.3952479,15.0093573 29.3794991,15.247232 29.4524183,15.247232 C29.5253374,15.247232 30.017478,15.1923399 30.017478,15.1923399 L30.4549332,15.0276638 L31.0746755,15.0642494 C31.0746755,15.0642494 31.8401991,14.8446812 31.9131182,14.8446812 C31.9860374,14.8446812 32.3505762,14.7165906 32.3505762,14.7165906 L32.4234954,11.221807 L31.7673071,11.221807 L31.8949088,8.64188139 L32.9885524,8.91634148 L33.7723125,8.98953988 L34.8295128,8.95295458 L35.5403809,8.84317032 L36.4152968,8.75169289 L36.9438834,9.3555052 L35.2487342,10.6912206 L36.8527548,13.5456063 L37.0167998,13.5821919 C37.0167998,13.5821919 36.8709914,14.533663 36.8709914,14.5885549 C36.8709914,14.643447 36.6704705,14.9179071 36.6704705,14.9179071 L36.7069436,15.3753501 L36.652261,15.9425768 L37.162611,17.0038319 L37.3084493,17.5710589 L37.3631319,17.845519 L36.1236501,18.5957009 L37.2719762,18.4310248 L37.9463983,18.3029342 C37.9463983,18.3029342 38.8395508,18.668872 38.948916,18.668872 C39.0582784,18.668872 39.8420386,18.7054576 39.8420386,18.7054576 L41.4278254,19.1811794 L42.521469,19.6935143 L43.0682921,19.473946 L43.870316,19.2909634 L45.1826871,19.1628728 L45.2920523,19.4739185 L45.9664473,19.1811519 L46.4039053,19.2543505 L46.8413632,18.9798904 L47.2788212,18.7237366 L48.1355277,18.412691 L48.390704,18.3394923 L48.7187968,17.8820495 L48.9375244,17.8271577 L49.466111,17.516112 L49.8488863,17.04039 L49.6119493,16.6012538 L50.1405331,15.6315036 L50.2134523,15.7778732 L50.4686259,15.5217197 L50.7602754,15.3570436 L50.6873562,15.210674 L50.5050719,15.1374753 L50.8696379,14.8996008 L51.2706227,14.9179071 L51.7080806,14.6983391 L51.8903649,14.4421853 L51.9997301,13.8566795 L51.9632841,13.2162817 L52.3642689,12.6856677 L52.5829965,11.7341967 L52.6559157,11.4780428 L53.0751371,11.4780428 L53.1298197,11.3133667 L53.2574214,11.1121053 L54.3328284,12.1001617 L55.0072505,12.4844061 L55.3353433,12.8137583 C55.3353433,12.8137583 56.0826602,12.4112077 56.1373401,12.4844061 C56.1920226,12.5576045 56.3560704,12.7588661 56.3560704,12.7588661 L56.6294806,12.7588661 L56.6294806,13.2345879 C56.6294806,13.2345879 57.2492229,13.8932924 57.3039055,13.9298779 C57.3585881,13.9664635 58.5433602,14.6800601 58.5433602,14.6800601 L59.2724649,14.0579412 L59.9468871,14.1311396 L60.2749799,13.8017874 L60.0926982,12.9784069 L60.1109348,11.8805662 L61.2410244,11.5146284 L61.2957069,10.3802022 L61.8242935,10.1972196 C61.8242935,10.1972196 62.4257965,10.069129 62.4804791,10.069129 C62.5351617,10.069129 63.3371856,10.0325434 63.3371856,10.0325434 L63.3736316,10.3070038 C63.3736316,10.3070038 64.7407152,10.4533734 64.7771856,10.3984812 C64.8136588,10.3435894 65.2511167,10.2703907 65.2511167,10.1972196 C65.2511167,10.1240211 65.3604819,9.7397768 65.3604819,9.7397768 L65.7614667,9.52020883 L66.0531135,9.31894715 L66.5999366,9.22746944 L66.8369008,8.78833324 L67.2925682,8.55045873 L67.2196789,7.94664614 L66.982712,7.80027658 L65.1052811,7.67218605 C65.1052811,7.67218605 63.5924406,6.4096693 63.446605,6.4096693 C63.3007667,6.4096693 62.6445811,6.11690266 62.6445811,6.11690266 L64.3215209,4.12248279 L65.5062931,4.50672714 L66.1807152,3.40888639 L66.381209,3.46377844 L67.1285231,2.27446017 L67.4019333,2.45744275 L67.930547,2 L68.0945921,2.21956813 C68.0945921,2.21956813 67.2925682,3.81143712 67.3108048,3.86632917 C67.3290413,3.92122122 67.5112985,4.43355599 67.5112985,4.43355599 L69.6621423,3.22593125 L69.2611276,6.94020064 L70.4459025,8.14782553 L72.7425547,9.39203573 L73.2529318,9.55671184 L74.6564316,10.7277512 L75.8229943,10.1788307 L76.1328532,10.7643367 L76.4974191,10.7826433 L76.3698174,12.9966311 L75.8594403,15.4301872 L73.7450696,16.8207945 L73.7633062,18.6322317 L73.5081055,18.7969078 L72.6331895,21.3768334 L72.4144619,23.279748 L72.8519199,23.1516575 L74.8569525,27.0306855 L77.5545895,26.6464411 L78.2107778,26.7562254 L79.1768467,26.9757933 L80.470984,27.3783442 L82.0932141,27.8174804 L82.0750047,28.0004631 L83.1321751,28.5493827 L84.0982467,29.3178709 L84.9913721,30.0131628 L85.5746683,30.7267586 L86.0668062,31.4586609 L86.431345,32.2454556 L87.5432006,31.8063191 L87.925976,32.0807811 L88.1264942,32.6480062 L88.7279999,32.6114203 L89.1654579,33.7092629 L89.2019039,34.4045521 L89.4388681,34.9717799 L89.4935507,35.539005 L89.5846793,36.0879263 L89.9492181,36.6734307 L90.313784,37.2223519 L90.2226283,37.8627515 L90.2226283,38.4482559 L90.1314997,39.0703761 L95.3992019,40.3328931 L96.9667792,40.5158741 L98.0421862,40.55246 L99.6462068,40.7903334 L99.755572,41.1379944 L99.1540663,42.1443559 L98.7166083,42.0894635 C98.7166083,42.0894635 98.643662,42.2541407 98.5707727,42.2541407 C98.4978807,42.2541407 98.2973598,42.1626625 98.2973598,42.1626625 C98.2973598,42.1626625 98.0968688,42.2541407 98.0421862,42.2541407 C97.9875036,42.2541407 97.4771265,42.1992483 97.4771265,42.1992483 L97.73233,43.2970882 L97.6047282,43.4617654 L97.8416924,44.5412986 L98.5160902,44.4680997 L99.9013805,44.2851187 L101.32312,44.5046855 L102.270925,44.4497931 L103.601535,44.2851187 L103.966074,45.4561574 L103.127631,46.2612314 L102.434972,46.8284592 L101.760577,47.3956571 L101.031473,48.1092556 L100.247683,49.0424182 L99.5186051,50.2866559 L99.1905123,51.2563799 L98.9353115,52.1529866 L98.7165812,53.3239981 L98.5343267,54.3486663 L98.406725,55.2086054 L98.1879974,55.5379571 L99.2087217,55.8673115 L98.5160902,57.0749361 L96.8027043,59.7463653 L96.6751297,61.3199547 L97.1307971,61.5760829 C97.1307971,61.5760829 96.3105638,62.8203206 96.3652464,62.8203206 C96.419929,62.8203206 97.0579051,63.0216082 97.0579051,63.0216082 L97.4224439,62.6190303 L98.2062339,62.8752103 L98.2244407,63.4607447 L98.3155964,63.479024 L98.2973598,64.0462246 L98.5343267,64.0645584 L98.5890093,63.9364398 L98.4796441,63.3692392 L98.8624195,63.2960675 L98.8259464,61.868876 L99.4092426,61.8505422 C99.4092426,61.8505422 99.828464,61.3931264 99.8831439,61.3565133 C99.9378265,61.3199547 100.703377,61.0088823 100.703377,61.0088823 L101.341329,60.606359 C101.341329,60.606359 102.015778,59.8927632 102.08867,59.8927632 C102.161562,59.8927632 102.890667,59.9842115 102.890667,59.9842115 L103.820266,60.423348 L104.294169,60.4599611 L105.005038,60.9539899 L105.624777,61.3016209 C105.624777,61.3016209 105.934636,61.3199547 106.043999,61.3199547 C106.153364,61.3199547 106.663741,61.1369464 106.663741,61.1369464 L107.192325,61.4662981 L108.067241,62.0884429 L108.92392,62.5458586 L109.270249,63.131393 C109.270249,63.131393 109.744153,63.4424109 109.798836,63.4607447 C109.853518,63.479024 110.363896,63.6070881 110.363896,63.6070881 L111.530431,63.735204 L112.059045,63.826655 C112.059045,63.826655 112.423584,64.741541 112.423584,64.7964334 C112.423584,64.8513258 112.478263,65.4551368 112.478263,65.4551368 L112.769913,65.9491656 L112.751676,66.351689 L112.751676,66.6261483 L113.972922,66.6810407 L114.100494,66.1870118 L114.082287,65.619814 L113.972922,65.1257851 L113.535464,65.0342796 L113.316733,63.735204 L112.933958,63.1496723 L112.71523,62.600751 L113.043323,62.6190303 L113.699509,63.2045647 L114.556188,63.7534833 C114.556188,63.7534833 115.157694,64.1011142 115.212376,64.1011142 C115.267059,64.1011142 115.68628,64.1011142 115.68628,64.1011142 L116.324284,64.9062182 L116.816424,65.8942732 C116.816424,65.8942732 117.436137,66.5163662 117.490819,66.5163662 C117.545502,66.5163662 118.092325,67.138511 118.092325,67.138511 C118.092325,67.138511 118.438627,67.5593136 118.529783,67.5776474 C118.620939,67.5959267 119.422935,67.614206 119.422935,67.614206 L119.568744,67.4861419 L119.751028,67.522755 L119.805711,67.6874322 C119.805711,67.6874322 121.154528,67.9618915 121.227447,67.9618915 C121.300366,67.9618915 121.482621,67.797217 121.482621,67.797217 C121.482621,67.797217 122.649186,68.1997377 122.703866,68.1997377 C122.758549,68.1997377 123.451183,68.5839845 123.451183,68.5839845 L123.560545,68.8035514 L123.74283,68.6937666 L123.432973,69.5537602 L123.998003,69.6452112 L123.779276,70.9443413 L124.8,71.0724027 L124.50838,71.6030447 L123.469419,71.5847654 L123.706356,70.0294553 L122.722075,70.2124663 L121.591986,71.2370799 L121.464384,72.7557769 L120.71707,72.8106693 L120.589471,72.8655617 L119.823917,72.8655617 L119.131286,72.6093817 L118.383972,72.1519659 L117.764232,71.7128295 L117.581948,71.5481523 L117.600184,71.914117 L118.165244,72.3715328 L118.784956,72.7191638 L119.258888,72.8472824 L119.769238,72.9570672 L120.334295,72.9936258 L120.881118,73.1217444 L120.844672,74.0914656 L121.318576,74.3110352 L121.20921,74.750169 L120.516579,74.8599538 L119.514061,76.8177872 L119.568744,77.1837547 L119.459379,77.5313857 L119.33178,78.0436912 L119.550507,78.4645483 L119.860391,78.8854055 L120.224932,79.3794344 L120.17025,79.599004 L120.771753,79.9100219 L121.008719,80.2759866 L121.099845,80.7517362 L120.644151,81.0993672 L120.480106,81.8129629 L120.461896,82.2703787 L119.751028,83.0205875 L119.550507,82.9656951 L119.386462,83.0023082 L119.222414,83.0023082 L118.894322,83.1852647 L118.584465,83.4963371 L118.092325,83.5877881 L117.873595,83.459724 L117.509056,83.4780033 L117.290328,83.2584364 L116.85287,83.5512295 L116.524777,83.8988605 L116.233128,84.081817 L116.160209,84.337997 L115.923272,84.5392873 L115.595179,84.7588541 L115.303532,84.9235313 L115.048356,85.1979906 L114.811392,85.2162699 L114.228122,86.1494353 L114.17344,85.8383602 L113.954712,85.8018043 L113.881793,86.332389 L113.499018,86.7898593 L113.207371,87.2289958 L112.879275,87.5766268 L112.587656,87.8876991 L112.259563,87.8876991 L112.077279,87.9791501 L111.93147,88.3633942 L112.20488,88.65619 L112.4965,88.5646845 L113.535464,89.1684955 L114.39217,89.0221003 L114.064077,90.1565532 L114.556215,90.1748325 L114.68379,90.266338 L114.66558,90.5774104 L114.446853,91.0531055 L114.209886,91.6386371 L113.845347,92.3522356 L113.444335,92.864541 L113.5537,93.1938927 C113.5537,93.1938927 113.225608,93.2487851 113.28029,93.2671189 C113.33497,93.2853982 113.389653,93.4317961 113.389653,93.4317961 L113.098006,93.3220113 L112.824596,93.4317961 L112.551183,93.4500754 L111.93147,93.047552 L111.512222,92.864541 L110.910716,93.0841106 L110.108719,93.6330292 L109.561899,93.7794271 L109.343168,94.3283483 L109.25204,94.5113021 L109.033312,94.6394207 L108.796348,95.1517289 L108.705219,96.2129556 L108.741665,96.6704259 C108.741665,96.6704259 108.322444,96.7253183 108.322444,96.7802107 C108.322444,96.8351031 108.213079,97.146121 108.213079,97.146121 L108.121923,97.5852574 L107.957878,97.9512222 L107.538657,98.1525098 L107.52042,98.5184201 L107.155881,98.6830973 L107.137645,99.2137392 L107.02828,99.6528757 L107.064753,100.01884 L106.846022,100.274966 L106.645504,100.586038 L106.335648,101.171573 L106.317412,101.647268 C106.317412,101.647268 106.353885,102.269413 106.353885,102.342584 C106.353885,102.415756 106.135154,102.690215 106.135154,102.690215 L105.734142,102.8 L105.296684,102.708549 L104.950355,102.470648 L104.731625,102.452369 C104.731625,102.452369 104.203068,101.775329 104.111912,101.757053 C104.020757,101.738773 103.419254,100.695823 103.419254,100.695823 L103.309888,99.7077681 L103.291679,97.9329429 C103.291679,97.9329429 103.328125,96.8899928 103.328125,96.8351031 C103.328125,96.7802107 103.674454,96.1031708 103.674454,96.1031708 L104.512897,95.0785572 C104.512897,95.0785572 104.986801,94.5479152 105.005038,94.4564097 C105.023274,94.3649614 105.005038,93.8892119 105.005038,93.8892119 L104.786307,93.1938927 L103.947865,93.0292182 L104.075439,92.2241715 L103.838502,90.8884283 L102.161562,91.3824571 L101.104389,89.9003705 L97.1672703,92.4802969 L97.2583989,91.8215936 L97.1672703,91.4739626 L97.0579051,91.2726723 L96.9667494,91.1812213 L97.1490337,90.870149 L96.9849859,90.339507 L96.583974,90.0650477 C96.583974,90.0650477 96.4381655,89.6808581 96.383483,89.6625243 C96.3288004,89.644245 96.0553902,89.4612368 96.0553902,89.4612368 L95.7272974,89.0404341 L95.1622377,88.9306493 L94.8888275,88.4548997 L94.907064,88.2170535 L94.8523815,87.9608708 L94.6518877,87.8876991 L94.5425225,87.6132399 L94.6518877,87.2655544 L94.6700971,86.9910951 L94.5425225,86.7349669 L94.3237949,86.5336793 L92.8838492,87.2838882 L91.9907238,87.5400137 C91.9907238,87.5400137 91.2251731,87.8328095 91.1522539,87.8328095 C91.0793347,87.8328095 90.6054308,87.9974839 90.6054308,87.9974839 C90.6054308,87.9974839 90.0039278,88.3451149 89.9492452,88.3451149 C89.8945626,88.3451149 89.0925659,88.6195769 89.0925659,88.6195769 L88.21765,88.6195769 C88.21765,88.6195769 87.3609435,88.6012976 87.2698149,88.6012976 C87.178689,88.6012976 86.4678181,88.6378562 86.4678181,88.6378562 L85.7022674,88.6744666 C85.7022674,88.6744666 85.1189738,88.6744666 85.0642912,88.6744666 C85.0096086,88.6744666 83.6607888,88.7110797 83.6607888,88.7110797 L83.6061062,88.1438273 L83.6061062,87.4851213 L83.6607888,86.9362027 L83.8430731,86.0945429 L83.9524383,85.4907292 L84.0800101,85.1796568 C84.0800101,85.1796568 83.442034,85.600514 83.369142,85.600514 C83.29625,85.600514 82.6035912,86.1128222 82.6035912,86.1128222 C82.6035912,86.1128222 81.4917383,85.6920195 81.3823731,85.6371271 C81.2730079,85.5822347 80.4163286,85.1430982 80.4163286,85.1430982 C80.4163286,85.1430982 80.0335532,85.0149796 79.9606341,85.0149796 C79.8877149,85.0149796 79.486703,85.252883 79.3955771,85.2711623 C79.3044485,85.2894416 78.3019308,85.600514 78.3019308,85.600514 L77.1900779,85.856694 L76.0235152,86.1494353 L74.4741771,86.7349669 L73.2711684,87.1374903 L72.9066296,85.4175575 L72.3415699,84.1184301 C72.3415699,84.1184301 70.7740224,80.0198612 70.5917652,80.0015274 C70.4095108,79.9832481 69.9720256,79.7453447 69.8262145,79.7453447 C69.680406,79.7453447 68.9148526,79.946635 68.9148526,79.946635 C68.9148526,79.946635 66.6181732,81.2823209 66.5452812,81.3006575 C66.4723891,81.318934 65.196464,81.9959194 65.196464,81.9959194 C65.196464,81.9959194 64.0298986,82.7461283 63.8840901,82.727849 C63.7382789,82.7095152 61.6421178,83.5328957 61.6421178,83.5328957 L61.6056717,84.3746101 L63.6835964,90.7054745 L63.5377608,91.4007909 L62.5717162,93.9441043 C62.5717162,93.9441043 60.0016511,93.8343195 59.7829235,93.8709326 C59.5641931,93.9074912 56.5931187,93.7794271 56.5931187,93.7794271 L56.1921068,90.5407973 L53.0570091,90.6505821 C53.0570091,90.6505821 53.2392663,89.0952693 53.1845837,89.07699 C53.1299011,89.0587134 51.2889434,88.0889349 51.2889434,88.0889349 L49.4023237,86.7623859 L47.5978093,85.1842403 Z" id="Berlin-Copy" stroke="#99DEE0" stroke-width="1.5" fill="#99DEE0" stroke-linecap="round" stroke-linejoin="round"></path>
            <g id="Group-15" transform="translate(66.000000, 0.000000)">
                <circle id="Oval" stroke="#1B1B1B" stroke-width="1.5" fill="#FFFFFF" cx="21" cy="21" r="20.25"></circle>
                <g id="Bundesadler_Bundesorgane" transform="translate(8.000000, 9.000000)">
                    <path d="M21.5917199,15.866942 C21.9911246,16.4598388 22.6528564,17.3365534 23.590433,18.0583039 C22.2439471,18.0583039 21.3511477,18.0899336 20.2118623,16.2798258 L19.9556603,15.866942 L17.0546432,11.2010903 C16.8677193,11.2734246 16.6780496,11.3404518 16.4850005,11.4039765 L19.2595007,15.866942 L20.0538746,17.1442281 C20.4023768,17.7018865 21.1466931,18.805528 22.2553526,19.6603778 C20.9097116,19.6603778 20.0171234,19.6911583 18.8778379,17.8810505 L17.6259757,15.866942 L15.0745169,11.7621452 C14.855911,12.1141578 14.7838872,12.4229184 14.7838872,12.7307238 C14.7838872,13.865358 15.2202542,14.9229348 15.8881112,15.866942 C16.3515136,16.5216122 16.9283376,17.1240616 17.5452921,17.6613411 C17.4496124,17.7044339 17.2819089,17.7203549 17.1258222,17.7203549 C16.815972,17.7203549 16.6140519,17.7018865 16.473595,17.6781112 C16.8229421,18.4745842 17.5725387,19.50414 17.950822,20.0378108 C18.4442167,19.9488657 19.1612864,19.8790257 19.6316588,19.8790257 C20.1233638,19.8790257 20.1784905,20.1675137 20.1784905,20.425221 C20.1784905,20.8741923 19.9696004,21.2342185 19.7264937,21.433549 C19.6360943,21.1996169 19.451705,20.8954203 18.5441207,20.8954203 C18.7179493,21.1962204 19.5492856,21.8719063 19.5492856,22.4161911 C19.5492856,22.7762172 19.1568509,23.3160441 18.6381106,23.3160441 C18.6689478,23.1997149 18.6645123,23.0920892 18.6645123,23.0126966 C18.6645123,22.5732779 18.2765132,22.0580754 17.9491323,21.6982616 C17.9586369,21.8048259 17.9535678,21.794212 17.9535678,21.9177587 C17.9535678,22.9596268 17.8595778,23.4378926 17.2020702,23.4378926 C16.8799697,23.4378926 16.6571395,23.2604269 16.5806802,23.2084184 C17.0073314,22.8114556 17.0290864,22.5017397 17.0290864,21.9169095 L17.025707,21.4114719 C17.0248621,21.2792217 17.0273967,21.101756 17.0476732,20.9729023 C16.8123814,20.9404236 16.7175465,20.9412727 16.5359029,20.9412727 C16.5359029,20.9412727 15.6010721,20.866338 15.3763409,21.3558547 C15.1235184,21.1212857 14.7549509,20.7920401 14.7549509,20.4269193 C14.7549509,20.1870434 14.8681613,19.9144764 15.3493056,19.9144764 C15.5317941,19.9144764 16.1050274,20.0263478 16.5851157,20.0263478 C16.4560642,19.7378598 15.8811411,18.8946854 15.3852119,18.2822589 C15.3095975,18.5204365 15.1930076,18.7781439 14.932159,18.9863902 C14.8962527,18.593673 14.6662412,17.349927 14.053511,16.6220204 C13.9825432,17.1125985 13.8860187,17.617187 13.8860187,18.6811322 C13.8860187,21.2686077 14.505719,23.1793361 15.819678,23.5455183 C15.6485951,23.8463185 15.2867864,24.1135784 14.9120937,24.1135784 C14.4311607,24.1135784 14.1694672,23.5656849 13.9018597,23.0513315 C13.7630924,23.4325856 13.3786839,24.3640683 12.9941698,24.3640683 C12.6088636,24.3640683 12.2244023,23.4325856 12.0865855,23.0513315 C11.8188724,23.5656849 11.5573373,24.1135784 11.0762986,24.1135784 C10.7006026,24.1135784 10.3390052,23.8463185 10.1678167,23.5455183 C11.4826733,23.1793361 12.1023737,21.2686077 12.1023737,18.6811322 C12.1023737,17.617187 12.0058491,17.1125985 11.934723,16.6220204 C11.3220983,17.349927 11.0920868,18.593673 11.0569726,18.9863902 C10.7962824,18.7781439 10.6786893,18.5204365 10.6031804,18.2822589 C10.1064063,18.8946854 9.53322577,19.7378598 9.40327669,20.0263478 C9.88347052,20.0263478 10.4565983,19.9144764 10.6391923,19.9144764 C11.1201782,19.9144764 11.2334414,20.1870434 11.2334414,20.4269193 C11.2334414,20.7920401 10.8647683,21.1212857 10.6111009,21.3558547 C10.3872675,20.866338 9.45248942,20.9412727 9.45248942,20.9412727 C9.27079303,20.9412727 9.17595818,20.9404236 8.94071917,20.9729023 C8.96094286,21.101756 8.96442789,21.2792217 8.96268537,21.4114719 L8.95914755,21.9169095 C8.95914755,22.5017397 8.98021609,22.8114556 9.40855702,23.2084184 C9.33046084,23.2604269 9.10836987,23.4378926 8.78626933,23.4378926 C8.12881459,23.4378926 8.03403253,22.9596268 8.03403253,21.9177587 C8.03403253,21.794212 8.02964986,21.8048259 8.03931287,21.6982616 C7.71187918,22.0580754 7.32393283,22.5732779 7.32393283,23.0126966 C7.32393283,23.0920892 7.31955015,23.1997149 7.35022891,23.3160441 C6.83238627,23.3160441 6.43915958,22.7762172 6.43915958,22.4161911 C6.43915958,21.8719063 7.27039021,21.1962204 7.53546312,20.8998781 C6.5365818,20.8954203 6.35224523,21.1996169 6.26094822,21.433549 C6.01868636,21.2342185 5.80979623,20.8741923 5.80979623,20.425221 C5.80979623,20.1675137 5.86423651,19.8790257 6.35578306,19.8790257 C6.82626107,19.8790257 7.54422848,19.9488657 8.03751755,20.0378108 C8.41585369,19.50414 9.16455265,18.4745842 9.51479739,17.6781112 C9.37434043,17.7018865 9.17247316,17.7203549 8.86172533,17.7203549 C8.70637782,17.7203549 8.53872712,17.7044339 8.44214976,17.6613411 C9.06010759,17.1240616 9.63677317,16.5216122 10.1002283,15.8652438 C10.7673461,14.9195383 11.2044524,13.865358 11.2044524,12.7307238 C11.2044524,12.4229184 11.1315837,12.1141578 11.0280363,11.7841692 L8.36231106,15.866942 L7.11060721,17.8810505 C5.97132172,19.6911583 5.07862797,19.6603778 3.73219488,19.6603778 C4.84164645,18.805528 5.58596274,17.7018865 5.93441217,17.1442281 L6.72883885,15.866942 L9.50339186,11.4039765 C9.31028994,11.3404518 9.11982819,11.2734246 8.93369631,11.2010903 L6.03273204,15.866942 L5.77557964,16.2798258 C4.637139,18.0899336 3.74444525,18.0583039 2.39885701,18.0583039 C3.33453271,17.3365534 3.99721497,16.4598388 4.3957748,15.8599368 L4.60028225,15.5423666 L7.6671019,10.6099979 C7.49242836,10.5138352 7.3221903,10.4124187 7.15802463,10.3074464 L4.64500674,14.3495677 C4.11575857,15.1912562 3.63915537,15.6340713 3.14581349,15.866942 C2.57791326,16.1369616 1.98720197,16.128895 1.26743925,16.128895 L1.58779729,15.8660929 C2.52790846,15.0545481 3.15019616,14.122004 3.46970935,13.6112594 L6.04677776,9.4649619 C5.89491527,9.32644948 5.75097328,9.18528358 5.61495181,9.03886374 L3.78832488,11.9773967 C2.64988425,13.7885128 1.7572433,13.7558218 0.4107574,13.7558218 C1.52902714,12.8931176 2.26019539,11.804495 2.6130275,11.2372309 L4.7354589,7.82494308 C4.62135082,7.61324729 4.5238758,7.39619144 4.44403711,7.17388166 L3.37841232,8.88973736 C2.23912685,10.7008535 1.3464331,10.6682155 0,10.6682155 C1.11383426,9.8107653 1.85202536,8.71243086 2.20311495,8.15052685 L4.28430693,4.8052663 C4.4861742,3.77045651 5.01896019,2.80442529 5.81417893,2.0863366 C5.5473635,1.98401784 5.32442769,1.8772943 5.19009592,1.77497555 C6.54972986,1.77497555 7.8953181,1.08066217 8.63704702,1.08066217 C9.11365023,1.08066217 9.42086022,1.36739879 9.42086022,1.74674237 C9.38838615,2.16753353 8.95740506,2.59623211 8.15954616,2.59623211 C7.97874742,2.59623211 7.7478911,2.5724568 7.49422371,2.53100921 C7.06234496,3.13616517 6.71299787,3.68310347 6.71299787,4.46206331 C6.71299787,5.92742913 8.45709314,7.0698116 10.2161318,7.0698116 L10.5101409,7.0583485 C10.8585903,5.87090969 11.6003193,5.09285203 12.1928259,4.33241357 C11.4826734,4.07215882 10.6900948,3.39376641 10.6900948,3.0867571 C10.7796493,3.03474861 12.1418706,3.46350025 12.2823276,3.50139215 C12.5386351,3.45198409 12.6772968,3.20940162 12.6772968,3.18467105 C12.5316123,3.15999355 11.6775706,3.04971432 11.094727,2.83531195 C10.6505979,2.67212205 10.4258667,2.37657582 10.4258667,2.26454529 C10.5689639,2.24161909 11.1079279,2.5266044 11.9022489,2.5266044 C12.1954132,2.5266044 12.251596,2.5151413 12.5430178,2.47894764 C12.3385104,1.98847571 11.954049,1.57468978 11.5213254,1.57468978 C11.3475496,1.57468978 10.9665733,1.68321771 10.6488554,1.84465631 C10.4267644,1.49795071 10.2327648,1.04361938 10.2327648,0.794827731 C10.2327648,0.500183699 10.5215465,0.157033782 11.336144,0.157033782 C11.5643074,0.157033782 11.7767353,0.176457358 11.9742727,0.213500151 C12.1339501,0.244386829 12.267437,0.280580493 12.4104814,0.3360916 C12.3928978,0.119991022 12.4956004,0 12.8774215,0 C13.5480771,0 14.2353658,0.222309776 15.0778963,0.222309776 C15.2965023,0.222309776 15.4447741,0.213500173 15.5704461,0.159687303 C15.5159531,0.329033327 15.2789715,0.576922783 15.0631114,0.778959855 C15.1972319,0.96247554 15.5440444,1.40619289 15.5440444,2.12343246 C15.5440444,3.2764289 14.7891675,4.22738828 14.7891675,5.39190088 C14.7891675,6.08440988 15.3193133,6.69577501 15.4781458,7.05834851 L15.7713101,7.06981161 C17.531352,7.06981161 19.2744968,5.92742914 19.2744968,4.46206332 C19.2744968,3.68310347 18.9259946,3.13616517 18.494063,2.53100922 C18.2403957,2.57245681 18.0097505,2.59623212 17.8287406,2.59623212 C17.0309873,2.59623212 16.5990557,2.16753355 16.5684298,1.74674238 C16.5684298,1.3673988 16.8738445,1.08066218 17.3513981,1.08066218 C18.0929687,1.08066218 19.4386097,1.77497556 20.7981908,1.77497556 C20.6630142,1.87729431 20.4410288,1.98401785 20.1732102,2.08633661 C20.969485,2.8044253 21.5021653,3.77045652 21.7040854,4.80526631 L23.7851718,8.15052686 C24.1353637,8.71243087 24.8746109,9.81076532 25.9883395,10.6682155 C24.6418536,10.6682155 23.7492655,10.7008535 22.6108249,8.88973736 L21.5435632,7.17388166 C21.4645693,7.39619144 21.3661439,7.61324729 21.2529334,7.82494308 L23.3743616,11.2372309 C23.7281442,11.804495 24.4585203,12.8931176 25.5775293,13.7558218 C24.2310434,13.7558218 23.3384553,13.7885128 22.2000147,11.9773967 L20.3725957,9.03886376 C20.2374191,9.18528359 20.0925266,9.32644949 19.9406641,9.46496191 L22.5187358,13.6112594 C22.8380906,14.122004 23.4605367,15.0553973 24.4006479,15.8660929 L24.7208475,16.128895 C24.0012432,16.128895 23.4104791,16.1359002 22.8425261,15.866942 C22.3482865,15.6349205 21.8726338,15.1912562 21.3433328,14.3495677 L18.8303149,10.3074464 C18.6653572,10.4124187 18.495964,10.5138352 18.3212904,10.6099979 L21.3881101,15.5423666 L21.5917199,15.866942 L21.5917199,15.866942 Z" id="Path" fill="#66CED1" fill-rule="nonzero"></path>
                    <path d="M10.5834383,17.7019259 C10.5109847,17.4222269 10.4402439,17.2172749 10.163301,17.2172749 C10.0218194,17.2172749 9.95450397,17.2435789 9.8691271,17.2773357 C9.5705935,18.1536969 8.41969249,19.7996689 8.23850668,20.051968 C7.74155619,19.96648 7.04707112,19.8744161 6.48456987,19.8744161 C6.35341646,19.8744161 6.17223064,19.8608257 6.17223064,20.1951055 C6.17223064,20.3890974 6.25335165,20.7271037 6.35253415,20.8391148 C6.60015302,20.5302622 7.02636269,20.4381982 7.55434987,20.4381982 C7.75966957,20.4381982 8.00817078,20.5138222 8.10221509,20.5374958 C7.43009927,21.257129 6.79597488,21.8529143 6.79597488,22.2509813 C6.79597488,22.4741268 7.0151521,22.7685123 7.19893296,22.866933 C7.19893296,22.2792581 7.77523982,21.4675609 8.3394538,21.0140363 C8.3394538,21.0942635 8.36618273,21.4020202 8.36618273,21.7363 C8.36618273,22.8450131 8.46972489,23.0646513 8.87351338,23.0646513 C8.94679736,23.0646513 9.073643,23.0363746 9.12113226,23.006125 C8.90371966,22.7430851 8.8122704,22.3941189 8.8122704,21.7354232 C8.8122704,21.5460345 8.81740857,21.3673866 8.81740857,21.2126314 C8.81740857,20.9202188 8.78548956,20.7143901 8.76478113,20.553059 C8.92006842,20.5302622 9.27034716,20.477435 9.52834621,20.477435 C10.0778723,20.477435 10.418705,20.5339886 10.6671543,20.7952749 C10.8457451,20.6523565 11.0450443,20.3827407 11.0450443,20.1968591 C11.0450443,19.9289969 10.8741868,19.9108033 10.6947656,19.9108033 C10.4160581,19.9108033 10.1874868,20.0274176 9.13146053,20.0274176 C9.33937529,19.3989715 9.94848348,18.5162535 10.5834383,17.7019259 L10.5834383,17.7019259 L10.5834383,17.7019259 Z" id="Path" fill="#FFFFFF"></path>
                    <path d="M16.8572886,20.0274176 C15.8010417,20.0274176 15.5716033,19.9108033 15.2937857,19.9108033 C15.1150106,19.9108033 14.9432952,19.9289969 14.9432952,20.1968591 C14.9432952,20.3827407 15.1426263,20.6523565 15.3203631,20.7952749 C15.568904,20.5339886 15.9106738,20.477435 16.4602876,20.477435 C16.7173416,20.477435 17.0686626,20.5302622 17.2231442,20.553059 C17.2023805,20.7143901 17.171235,20.9202188 17.171235,21.2126314 C17.171235,21.3673866 17.1764259,21.5460345 17.1764259,21.7354232 C17.1764259,22.3941189 17.0850659,22.7430851 16.8676704,23.006125 C16.9150116,23.0363746 17.0418775,23.0646513 17.1151732,23.0646513 C17.5190262,23.0646513 17.6226368,22.845013 17.6226368,21.7363 C17.6226368,21.4020202 17.6494219,21.0942635 17.6494219,21.0140363 C18.213778,21.4675609 18.7891387,22.2792581 18.7891387,22.866933 C18.9739352,22.7685123 19.1929917,22.4741268 19.1929917,22.2509813 C19.1929917,21.8529143 18.5580393,21.257129 17.8865428,20.5374958 C17.9808098,20.5138222 18.229143,20.4381982 18.4344956,20.4381982 C18.9627228,20.4381982 19.3890006,20.5302622 19.6365033,20.8391148 C19.7357536,20.7271037 19.8161089,20.3890974 19.8161089,20.1951055 C19.8161089,19.8608257 19.6348422,19.8744161 19.503616,19.8744161 C18.9419592,19.8744161 18.2463769,19.96648 17.7503332,20.051968 C17.5690666,19.7996689 16.4179297,18.1536969 16.1195561,17.2773357 C16.0340098,17.2435789 15.9667356,17.2172749 15.8251275,17.2172749 C15.5481404,17.2172749 15.477544,17.4222269 15.4050788,17.7019259 C16.0400313,18.5162536 16.6492368,19.3989715 16.8572886,20.0274176 L16.8572886,20.0274176 Z" id="Path" fill="#FFFFFF" fill-rule="nonzero"></path>
                    <path d="M20.4658174,4.81815119 C20.4658174,3.55563752 19.5136684,2.55462012 19.1783341,2.27397971 L18.9374079,2.3273098 C19.2934554,2.74784967 19.9222618,3.44992403 19.9222618,4.3809917 C19.9222618,6.21257006 17.9152704,7.80290077 15.6254906,7.83345775 C15.6438054,8.02232202 15.6427152,8.18751908 15.6427152,8.33004822 C15.6427152,8.5923334 15.6237463,8.8485177 15.5930037,9.09591884 C18.1917359,9.05216081 20.4658174,7.01341554 20.4658174,4.81815119 L20.4658174,4.81815119 Z" id="Path" fill="#FFFFFF" fill-rule="nonzero"></path>
                    <path d="M6.05992244,4.38017982 C6.05992244,3.44947091 6.68068363,2.74766707 7.0335799,2.32728925 L6.79535201,2.27397971 C6.46390218,2.55451198 5.52252215,3.55514367 5.52252215,4.81717086 C5.52252215,7.0273088 7.80392729,9.07930561 10.3953358,9.09591884 C10.3675848,8.85560531 10.3514191,8.59951972 10.3514191,8.32771466 C10.3514191,8.15727133 10.359502,7.99129675 10.3746977,7.83305047 C8.08343148,7.83305047 6.05992244,6.22766566 6.05992244,4.38017982 L6.05992244,4.38017982 Z" id="Path" fill="#FFFFFF" fill-rule="nonzero"></path>
                    <path d="M13.023508,2.59883395 C13.1493388,2.34322386 13.319024,2.03755424 13.319024,1.70046971 C13.319024,0.769822176 12.4527121,0.324854244 11.2920879,0.324854244 C10.6964698,0.324854244 10.3953358,0.496435837 10.3953358,0.669600954 C10.3953358,0.841131464 10.5916777,1.21984714 10.6688386,1.3370273 C10.8832382,1.25294773 11.2692148,1.1519092 11.4931305,1.1519092 C12.2888168,1.1519092 12.8844349,1.94586357 13.023508,2.59883395 L13.023508,2.59883395 Z" id="Path" fill="#FFFFFF" fill-rule="nonzero"></path>
                    <path d="M13.2597006,1.61195858 C13.8566398,1.73071369 14.2648378,0.954744184 13.6972,0.816299381 C13.7760105,1.0718542 13.3930722,1.25384254 13.3930722,1.25384254 C13.3930722,1.25384254 13.247778,0.908630187 13.4351045,0.712915607 C13.0891466,0.541157677 13.0008384,0.750495686 12.9941698,0.970115517 C13.1303705,1.15472573 13.2200933,1.3717751 13.2597006,1.61195858 L13.2597006,1.61195858 L13.2597006,1.61195858 Z" id="Path" fill="#FFFFFF"></path>
                </g>
            </g>
            <g id="Group-17" transform="translate(59.000000, 22.000000)" fill="#D8D8D8" stroke="#242424" stroke-width="1.5">
                <circle id="Oval" cx="11.5" cy="6.5" r="5.75"></circle>
                <path d="M11.7142857,12.75 C15.8582342,12.75 18.4535568,14.0515818 20.0515301,15.9561578 C22.5345166,18.9155543 22.6517457,23.207152 22.678747,25.9693571 C22.6817889,26.2823998 22.4788188,26.5340455 22.1978588,26.7634636 C21.7309952,27.1446815 21.0352403,27.4518336 20.190545,27.7099641 C18.1139235,28.344559 15.1794608,28.642474 12.2032015,28.642474 C9.0738396,28.642474 5.89579863,28.3116221 3.60911016,27.6688182 C2.64650343,27.3982228 1.84865252,27.0783707 1.30722803,26.6923063 C1.00311229,26.4754556 0.752475712,26.2510998 0.749973083,25.9557156 C0.728736587,23.4491808 0.864837403,19.0568896 3.42098101,16.0102629 C5.03275656,14.0892135 7.62385316,12.75 11.7142857,12.75 Z" id="Oval"></path>
            </g>
            <g id="Group-14" transform="translate(28.000000, 38.000000)">
                <path d="M16.3076923,33.4065934 C24.5128205,26.2355444 28.6153846,19.9638159 28.6153846,14.5914079 C28.6153846,6.53279583 23.1050431,6.82121026e-13 16.3076923,6.82121026e-13 C9.51034154,6.82121026e-13 4,6.53279583 4,14.5914079 C4,19.9638159 8.1025641,26.2355444 16.3076923,33.4065934 Z" id="Oval" fill-opacity="0.1" fill="#000000"></path>
                <path d="M12.3076923,0.903846154 C15.4868998,0.903846154 18.3567167,2.44455308 20.4372527,4.91113638 C22.5601207,7.42790656 23.8653846,10.9067658 23.8653846,14.745254 C23.8653846,19.8683018 19.9420676,25.7871718 12.30647,32.5600322 C4.67282786,25.7864338 0.75,19.8679824 0.75,14.745254 C0.75,10.9067658 2.05526395,7.42790656 4.17813196,4.91113638 C6.25866789,2.44455308 9.12848481,0.903846154 12.3076923,0.903846154 Z" id="Oval" stroke="#242424" stroke-width="1.5" fill="#CCEFF0"></path>
                <circle id="Oval" stroke="#242424" stroke-width="1.5" fill="#FFFFFF" cx="12.3076923" cy="12.1802198" r="4.52472527"></circle>
            </g>
        </g>
    </g>
</svg>