<svg xmlns="http://www.w3.org/2000/svg" xmlns:xlink="http://www.w3.org/1999/xlink" width="208" height="166" viewBox="0 0 208 166">
  <defs>
    <path id="icon_kfz_anmelden-a" d="M20.4246225,18.81625 C21.0876225,18.81625 21.7314975,18.73975 22.3562475,18.58675 C22.9809975,18.43375 23.53881,18.197875 24.029685,17.879125 C24.52056,17.560375 24.9126225,17.1491875 25.2058725,16.6455625 C25.4991225,16.1419375 25.6457475,15.545875 25.6457475,14.857375 C25.6457475,14.334625 25.572435,13.882 25.42581,13.4995 C25.279185,13.117 25.0783725,12.791875 24.8233725,12.524125 C24.5683725,12.256375 24.2687475,12.046 23.9244975,11.893 C23.5802475,11.74 23.2168725,11.631625 22.8343725,11.567875 L22.8343725,11.567875 L22.8343725,11.453125 C23.2678725,11.351125 23.6376225,11.1949375 23.9436225,10.9845625 C24.2496225,10.7741875 24.4982475,10.5319375 24.6894975,10.2578125 C24.8807475,9.9836875 25.01781,9.680875 25.100685,9.349375 C25.18356,9.017875 25.2249975,8.686375 25.2249975,8.354875 C25.2249975,7.691875 25.0847475,7.143625 24.8042475,6.710125 C24.5237475,6.276625 24.15081,5.93875 23.685435,5.6965 C23.22006,5.45425 22.690935,5.2853125 22.09806,5.1896875 C21.505185,5.0940625 20.8963725,5.04625 20.2716225,5.04625 C19.9018725,5.04625 19.528935,5.052625 19.15281,5.065375 C18.776685,5.078125 18.4101225,5.09725 18.0531225,5.12275 C17.6961225,5.14825 17.361435,5.180125 17.04906,5.218375 C16.736685,5.256625 16.4593725,5.294875 16.2171225,5.333125 L16.2171225,5.333125 L16.2171225,18.529375 C16.5486225,18.605875 16.915185,18.66325 17.31681,18.7015 C17.718435,18.73975 18.113685,18.7684375 18.50256,18.7875625 C18.891435,18.8066875 19.25481,18.81625 19.592685,18.81625 L19.592685,18.81625 L20.4246225,18.81625 Z M19.5831225,10.86025 L18.7416225,10.86025 L18.7416225,7.283875 C18.8946225,7.258375 19.1113725,7.23925 19.3918725,7.2265 C19.6723725,7.21375 19.9783725,7.207375 20.3098725,7.207375 C20.6031225,7.207375 20.8836225,7.232875 21.1513725,7.283875 C21.4191225,7.334875 21.658185,7.424125 21.86856,7.551625 C22.078935,7.679125 22.2478725,7.85125 22.3753725,8.068 C22.5028725,8.28475 22.5666225,8.558875 22.5666225,8.890375 C22.5666225,9.387625 22.39131,9.78925 22.040685,10.09525 C21.69006,10.40125 21.2724975,10.63075 20.7879975,10.78375 C20.6349975,10.80925 20.44056,10.828375 20.204685,10.841125 C19.96881,10.853875 19.7616225,10.86025 19.5831225,10.86025 L19.5831225,10.86025 Z M20.4437475,16.655125 C20.3162475,16.655125 20.166435,16.6519375 19.99431,16.6455625 C19.822185,16.6391875 19.656435,16.6328125 19.49706,16.6264375 C19.337685,16.6200625 19.1878725,16.6105 19.0476225,16.59775 C18.9073725,16.585 18.8053725,16.565875 18.7416225,16.540375 L18.7416225,16.540375 L18.7416225,12.84925 L20.1377475,12.84925 C20.4692475,12.84925 20.8007475,12.868375 21.1322475,12.906625 C21.4637475,12.944875 21.7633725,13.0309375 22.0311225,13.1648125 C22.2988725,13.2986875 22.5156225,13.48675 22.6813725,13.729 C22.8471225,13.97125 22.9299975,14.30275 22.9299975,14.7235 C22.9299975,15.055 22.8598725,15.341875 22.7196225,15.584125 C22.5793725,15.826375 22.3944975,16.0271875 22.1649975,16.1865625 C21.9354975,16.3459375 21.670935,16.463875 21.37131,16.540375 C21.071685,16.616875 20.7624975,16.655125 20.4437475,16.655125 Z M50.4699975,18.625 L50.4699975,16.29175 L43.7953725,16.29175 L44.7707475,15.565 L50.4699975,7.57075 L50.4699975,5.2375 L41.1943725,5.2375 L41.1943725,7.57075 L47.8498725,7.57075 L46.8553725,8.374 L41.1943725,16.29175 L41.1943725,18.625 L50.4699975,18.625 Z M60.6062475,18.625 L60.6062475,16.29175 L54.7539975,16.29175 L54.7539975,5.2375 L52.1338725,5.2375 L52.1338725,18.625 L60.6062475,18.625 Z M66.1716225,18.81625 C66.8346225,18.81625 67.4784975,18.73975 68.1032475,18.58675 C68.7279975,18.43375 69.28581,18.197875 69.776685,17.879125 C70.26756,17.560375 70.6596225,17.1491875 70.9528725,16.6455625 C71.2461225,16.1419375 71.3927475,15.545875 71.3927475,14.857375 C71.3927475,14.334625 71.319435,13.882 71.17281,13.4995 C71.026185,13.117 70.8253725,12.791875 70.5703725,12.524125 C70.3153725,12.256375 70.0157475,12.046 69.6714975,11.893 C69.3272475,11.74 68.9638725,11.631625 68.5813725,11.567875 L68.5813725,11.567875 L68.5813725,11.453125 C69.0148725,11.351125 69.3846225,11.1949375 69.6906225,10.9845625 C69.9966225,10.7741875 70.2452475,10.5319375 70.4364975,10.2578125 C70.6277475,9.9836875 70.76481,9.680875 70.847685,9.349375 C70.93056,9.017875 70.9719975,8.686375 70.9719975,8.354875 C70.9719975,7.691875 70.8317475,7.143625 70.5512475,6.710125 C70.2707475,6.276625 69.89781,5.93875 69.432435,5.6965 C68.96706,5.45425 68.437935,5.2853125 67.84506,5.1896875 C67.252185,5.0940625 66.6433725,5.04625 66.0186225,5.04625 C65.6488725,5.04625 65.275935,5.052625 64.89981,5.065375 C64.523685,5.078125 64.1571225,5.09725 63.8001225,5.12275 C63.4431225,5.14825 63.108435,5.180125 62.79606,5.218375 C62.483685,5.256625 62.2063725,5.294875 61.9641225,5.333125 L61.9641225,5.333125 L61.9641225,18.529375 C62.2956225,18.605875 62.662185,18.66325 63.06381,18.7015 C63.465435,18.73975 63.860685,18.7684375 64.24956,18.7875625 C64.638435,18.8066875 65.00181,18.81625 65.339685,18.81625 L65.339685,18.81625 L66.1716225,18.81625 Z M65.3301225,10.86025 L64.4886225,10.86025 L64.4886225,7.283875 C64.6416225,7.258375 64.8583725,7.23925 65.1388725,7.2265 C65.4193725,7.21375 65.7253725,7.207375 66.0568725,7.207375 C66.3501225,7.207375 66.6306225,7.232875 66.8983725,7.283875 C67.1661225,7.334875 67.405185,7.424125 67.61556,7.551625 C67.825935,7.679125 67.9948725,7.85125 68.1223725,8.068 C68.2498725,8.28475 68.3136225,8.558875 68.3136225,8.890375 C68.3136225,9.387625 68.13831,9.78925 67.787685,10.09525 C67.43706,10.40125 67.0194975,10.63075 66.5349975,10.78375 C66.3819975,10.80925 66.18756,10.828375 65.951685,10.841125 C65.71581,10.853875 65.5086225,10.86025 65.3301225,10.86025 L65.3301225,10.86025 Z M66.1907475,16.655125 C66.0632475,16.655125 65.913435,16.6519375 65.74131,16.6455625 C65.569185,16.6391875 65.403435,16.6328125 65.24406,16.6264375 C65.084685,16.6200625 64.9348725,16.6105 64.7946225,16.59775 C64.6543725,16.585 64.5523725,16.565875 64.4886225,16.540375 L64.4886225,16.540375 L64.4886225,12.84925 L65.8847475,12.84925 C66.2162475,12.84925 66.5477475,12.868375 66.8792475,12.906625 C67.2107475,12.944875 67.5103725,13.0309375 67.7781225,13.1648125 C68.0458725,13.2986875 68.2626225,13.48675 68.4283725,13.729 C68.5941225,13.97125 68.6769975,14.30275 68.6769975,14.7235 C68.6769975,15.055 68.6068725,15.341875 68.4666225,15.584125 C68.3263725,15.826375 68.1414975,16.0271875 67.9119975,16.1865625 C67.6824975,16.3459375 67.417935,16.463875 67.11831,16.540375 C66.818685,16.616875 66.5094975,16.655125 66.1907475,16.655125 Z M77.9526225,14.22625 L77.9526225,12.026875 L73.1522475,12.026875 L73.1522475,14.22625 L77.9526225,14.22625 Z M88.3757475,18.625 L88.3757475,16.52125 L84.7037475,16.52125 L83.3267475,16.789 L83.3267475,16.693375 L84.3403725,15.90925 C84.7611225,15.412 85.191435,14.8669375 85.63131,14.2740625 C86.071185,13.6811875 86.47281,13.066 86.836185,12.4285 C87.19956,11.791 87.499185,11.14075 87.73506,10.47775 C87.970935,9.81475 88.0888725,9.158125 88.0888725,8.507875 C88.0888725,7.921375 87.9932475,7.4081875 87.8019975,6.9683125 C87.6107475,6.5284375 87.3493725,6.161875 87.0178725,5.868625 C86.6863725,5.575375 86.2911225,5.35225 85.8321225,5.19925 C85.3731225,5.04625 84.8694975,4.96975 84.3212475,4.96975 C83.4669975,4.96975 82.72431,5.0940625 82.093185,5.3426875 C81.46206,5.5913125 80.8978725,5.919625 80.4006225,6.327625 L80.4006225,6.327625 L81.3951225,8.087125 C81.6883725,7.819375 82.04856,7.5994375 82.475685,7.4273125 C82.90281,7.2551875 83.3203725,7.169125 83.7283725,7.169125 C84.3786225,7.169125 84.85356,7.3380625 85.153185,7.6759375 C85.45281,8.0138125 85.6026225,8.444125 85.6026225,8.966875 C85.6026225,9.400375 85.51656,9.859375 85.344435,10.343875 C85.17231,10.828375 84.9396225,11.3288125 84.6463725,11.8451875 C84.3531225,12.3615625 84.0216225,12.87475 83.6518725,13.38475 C83.2821225,13.89475 82.90281,14.3888125 82.513935,14.8669375 C82.12506,15.3450625 81.7393725,15.7976875 81.3568725,16.2248125 C80.9743725,16.6519375 80.6301225,17.024875 80.3241225,17.343625 L80.3241225,17.343625 L80.3241225,18.625 L88.3757475,18.625 Z M95.2607475,18.89275 C96.7652475,18.89275 97.92231,18.319 98.731935,17.1715 C99.54156,16.024 99.9463725,14.270875 99.9463725,11.912125 C99.9463725,9.540625 99.5702475,7.7906875 98.8179975,6.6623125 C98.0657475,5.5339375 96.8863725,4.96975 95.2798725,4.96975 C93.7753725,4.96975 92.6214975,5.5403125 91.8182475,6.6814375 C91.0149975,7.8225625 90.6133725,9.566125 90.6133725,11.912125 C90.6133725,14.156125 90.9894975,15.8805625 91.7417475,17.0854375 C92.4939975,18.2903125 93.6669975,18.89275 95.2607475,18.89275 Z M95.2798725,16.789 C94.5021225,16.789 93.94431,16.3650625 93.606435,15.5171875 C93.26856,14.6693125 93.0996225,13.467625 93.0996225,11.912125 C93.0996225,10.267375 93.26856,9.04975 93.606435,8.25925 C93.94431,7.46875 94.4957475,7.0735 95.2607475,7.0735 C96.0639975,7.0735 96.6313725,7.49425 96.9628725,8.33575 C97.2943725,9.17725 97.4601225,10.369375 97.4601225,11.912125 C97.4601225,13.607875 97.28481,14.844625 96.934185,15.622375 C96.58356,16.400125 96.0321225,16.789 95.2798725,16.789 Z M110.063497,18.625 L110.063497,16.52125 L106.391497,16.52125 L105.014497,16.789 L105.014497,16.693375 L106.028122,15.90925 C106.448872,15.412 106.879185,14.8669375 107.31906,14.2740625 C107.758935,13.6811875 108.16056,13.066 108.523935,12.4285 C108.88731,11.791 109.186935,11.14075 109.42281,10.47775 C109.658685,9.81475 109.776622,9.158125 109.776622,8.507875 C109.776622,7.921375 109.680997,7.4081875 109.489747,6.9683125 C109.298497,6.5284375 109.037122,6.161875 108.705622,5.868625 C108.374122,5.575375 107.978872,5.35225 107.519872,5.19925 C107.060873,5.04625 106.557248,4.96975 106.008997,4.96975 C105.154747,4.96975 104.41206,5.0940625 103.780935,5.3426875 C103.14981,5.5913125 102.585622,5.919625 102.088372,6.327625 L102.088372,6.327625 L103.082872,8.087125 C103.376122,7.819375 103.73631,7.5994375 104.163435,7.4273125 C104.59056,7.2551875 105.008122,7.169125 105.416122,7.169125 C106.066372,7.169125 106.54131,7.3380625 106.840935,7.6759375 C107.14056,8.0138125 107.290372,8.444125 107.290372,8.966875 C107.290372,9.400375 107.20431,9.859375 107.032185,10.343875 C106.86006,10.828375 106.627372,11.3288125 106.334122,11.8451875 C106.040872,12.3615625 105.709372,12.87475 105.339622,13.38475 C104.969872,13.89475 104.59056,14.3888125 104.201685,14.8669375 C103.81281,15.3450625 103.427122,15.7976875 103.044622,16.2248125 C102.662122,16.6519375 102.317872,17.024875 102.011872,17.343625 L102.011872,17.343625 L102.011872,18.625 L110.063497,18.625 Z M116.948497,18.89275 C118.452997,18.89275 119.61006,18.319 120.419685,17.1715 C121.22931,16.024 121.634122,14.270875 121.634122,11.912125 C121.634122,9.540625 121.257997,7.7906875 120.505747,6.6623125 C119.753497,5.5339375 118.574122,4.96975 116.967622,4.96975 C115.463122,4.96975 114.309247,5.5403125 113.505997,6.6814375 C112.702747,7.8225625 112.301122,9.566125 112.301122,11.912125 C112.301122,14.156125 112.677247,15.8805625 113.429497,17.0854375 C114.181747,18.2903125 115.354747,18.89275 116.948497,18.89275 Z M116.967622,16.789 C116.189872,16.789 115.63206,16.3650625 115.294185,15.5171875 C114.95631,14.6693125 114.787372,13.467625 114.787372,11.912125 C114.787372,10.267375 114.95631,9.04975 115.294185,8.25925 C115.63206,7.46875 116.183497,7.0735 116.948497,7.0735 C117.751747,7.0735 118.319122,7.49425 118.650622,8.33575 C118.982122,9.17725 119.147872,10.369375 119.147872,11.912125 C119.147872,13.607875 118.97256,14.844625 118.621935,15.622375 C118.27131,16.400125 117.719872,16.789 116.967622,16.789 Z"/>
  </defs>
  <g fill="none" fill-rule="evenodd" transform="translate(17 46)">
    <g stroke="#1B1B1B" transform="translate(37.22 13.5)">
      <path fill="#99DEE0" fill-rule="nonzero" stroke-width="1.5" d="M73.4500852,0.25 C76.6387367,0.25 83.3654085,3.7169724 90.1125716,7.61699393 L90.1125716,7.61699393 L91.078431,8.17760704 C92.8865819,9.2312178 94.6840314,10.3003422 96.4001797,11.3211195 C100.155209,13.5546382 103.517798,15.5562685 105.739711,16.6454613 C109.255565,18.3689501 113.592772,18.8553451 117.850784,19.34917 C122.23871,19.8580615 126.544852,20.3768785 129.88681,22.0851438 C131.86779,23.0977354 133.586771,24.6718229 134.795981,27.1378924 C135.818223,29.2226576 136.476826,31.9617855 136.592541,35.5720307 C136.713686,39.3517232 136.157213,42.4200305 135.173111,44.576615 C134.6193,45.79025 133.926329,46.7255637 133.145504,47.3641879 C132.301951,48.0541165 131.352286,48.409642 130.336548,48.4130926 L130.336548,48.4130926 L129.204588,48.4130926 C117.070305,48.3954438 32.8276722,47.9441262 18.2646246,47.6222962 C11.1059578,47.4640962 6.81961743,46.523727 4.25291333,44.9614686 C1.07016952,43.0242495 0.347101381,40.1510386 0.29700853,36.3926185 C0.266196947,34.0808541 0.253054614,32.8792117 0.250480621,32.030313 L0.250480621,31.3548801 C0.252635906,30.9290082 0.25759234,30.5519797 0.264115319,30.0567916 C0.273408419,29.3513114 0.285881475,28.4044174 0.296958271,26.7267864 C0.313030869,24.2925184 1.31992236,22.5476589 3.31504468,21.0355745 C5.54277771,19.3471965 9.08785498,17.9545845 13.8977847,16.0873336 C14.7746337,15.7469342 15.6940499,15.3900125 16.655598,15.0115437 C21.5188033,13.0973687 26.6477086,9.76848067 31.2351725,6.79706051 C36.56253,3.34639189 41.1954215,0.437866211 43.9349722,0.437866678 L43.9349722,0.437866678 L44.4829891,0.437255478 C47.1128741,0.431872213 52.2221227,0.391803514 57.5386906,0.350116758 C63.3818992,0.304300658 69.4753761,0.256529999 72.8072244,0.250612646 L72.8072244,0.250612646 L73.4500852,0.25 Z"/>
      <circle cx="114.313" cy="47.126" r="11.4" fill="#D8D8D8" fill-rule="nonzero" stroke-width="1.5"/>
      <circle cx="114.313" cy="47.126" r="4.559" fill="#D8D8D8" fill-rule="nonzero" stroke-width=".5"/>
      <circle cx="114.313" cy="47.126" r="4.059" fill="#FFF" fill-rule="nonzero" stroke-width="1.5"/>
      <circle cx="29.263" cy="47.126" r="11.4" fill="#D8D8D8" fill-rule="nonzero" stroke-width="1.5"/>
      <circle cx="29.263" cy="47.126" r="4.559" fill="#D8D8D8" fill-rule="nonzero" stroke-width=".5"/>
      <circle cx="29.263" cy="47.126" r="4.059" fill="#FFF" fill-rule="nonzero" stroke-width="1.5"/>
      <path fill="#FFF" fill-rule="nonzero" stroke-width="1.5" d="M20.0239012,20.5306702 C21.6266966,19.1083252 39.1140745,5.49272156 44.6951841,5.49272156 C50.2762937,5.49272156 67.0297575,5.30485535 73.0464201,5.30485535 C79.0630827,5.30485535 96.6697396,17.9310752 101.931344,21.7518005 C103.23479,22.6983002 102.658998,24.194436 100.288643,24.1863205 C97.9182887,24.1779367 28.7081174,23.0164869 23.9992491,22.8876495 C18.4848793,22.7367731 18.4211057,21.9530151 20.0239012,20.5306702 Z"/>
      <path stroke-linecap="round" stroke-linejoin="round" stroke-width="1.5" d="M55.2829283,16 L55.2829283,23.1035156 M55.2829283,27.5703125 L55.2829283,29.3195957 M55.2829283,31.796875 C55.2829283,32.475177 55.2829283,32.9839035 55.2829283,33.3230545 C55.2829283,34.1068893 55.2829283,35.2826416 55.2829283,36.8503113 C55.584503,39.5661316 56.9424131,40.9240417 59.3566587,40.9240417 C60.9694743,40.9240417 67.412768,40.9240417 78.6865397,40.9240417 C79.3234831,40.9240417 80.0494331,40.9240417 80.8643897,40.9240417 M83.8763549,40.9240417 C84.6516561,40.9240417 85.4793272,40.9240417 86.3593682,40.9240417 M89.3564438,40.9240417 C90.7567008,40.9240417 93.3282466,40.9240417 97.0710813,40.9240417"/>
    </g>
    <rect width="129" height="23.4" x="3.945" y="3.975" fill="#000" fill-opacity=".1" fill-rule="nonzero" rx="3.15"/>
    <rect width="128" height="23.5" x=".945" y=".375" fill="#FFF" rx="3.15"/>
    <rect width="127.5" height="23" x="1.195" y=".625" stroke="#FFF" stroke-width=".5" rx="3.15"/>
    <path fill="#00ADB2" fill-rule="nonzero" d="M3.5946225,0.5 L11.0446225,0.5 L11.0446225,0.5 L11.0446225,23.9 L3.5946225,23.9 C1.85492553,23.9 0.444622496,22.489697 0.444622496,20.75 L0.444622496,3.65 C0.444622496,1.91030304 1.85492553,0.5 3.5946225,0.5 Z"/>
    <path stroke="#1B1B1B" stroke-linecap="round" stroke-linejoin="round" stroke-width="1.5" d="M110.920316,0.5 L116.141089,0.5 L125.094622,0.5 C126.834319,0.5 128.244622,1.91030304 128.244622,3.65 L128.244622,20.75 C128.244622,22.489697 126.834319,23.9 125.094622,23.9 L3.15,23.9 C1.41030304,23.9 2.7000624e-13,22.489697 2.7000624e-13,20.75 L2.7000624e-13,3.65 C2.7000624e-13,1.91030304 1.41030304,0.5 3.15,0.5 L101.070727,0.5"/>
    <line x1="104.465" x2="107.954" y1=".5" y2=".5" stroke="#1B1B1B" stroke-linecap="round" stroke-linejoin="round" stroke-width="1.5"/>
    <g fill-rule="nonzero">
      <use fill="#000" xlink:href="#icon_kfz_anmelden-a"/>
      <use fill="#242424" xlink:href="#icon_kfz_anmelden-a"/>
    </g>
    <circle cx="32.945" cy="14.9" r="3.35" fill="#99DEE0" fill-rule="nonzero" stroke="#1B1B1B" stroke-width=".5"/>
    <circle cx="32.945" cy="7.475" r="2" fill="#00ADB2" fill-rule="nonzero" stroke="#1B1B1B" stroke-width=".5"/>
  </g>
</svg>
