<svg xmlns="http://www.w3.org/2000/svg" width="208" height="166" viewBox="0 0 208 166">
  <g fill="none" fill-rule="evenodd" transform="translate(64 56)">
    <rect width="75.429" height="50.286" x="4.571" y="4.571" fill="#DEDEDE" rx="8"/>
    <path fill="#F8F8F8" stroke="#242424" stroke-linecap="round" stroke-linejoin="round" stroke-width="1.5" d="M74.8571429,17.1428571 L74.8571429,24 M75.4285714,30.1233738 C75.4285714,33.3961245 75.4285714,35.1198046 75.4285714,41.6653061 C75.4285714,46.4262261 71.7445145,50.2857143 67.2,50.2857143 L8.22857143,50.2857143 C3.68405692,50.2857143 0,46.4262261 0,41.6653061 L0,8.62040816 C0,3.8594882 3.68405692,0 8.22857143,0 L65.077679,0 L67.2,0 C71.7445145,0 75.4285714,3.8594882 75.4285714,8.62040816 L75.4285714,10.2574893 L75.4285714,12.8219751"/>
    <g stroke="#242424" transform="translate(20.571 8)">
      <g fill="#FFC9AE" stroke-width="1.5" transform="translate(10.286 5.714)">
        <path stroke-linecap="round" stroke-linejoin="round" d="M14.3448276,10.7067669 L14.3448276,10.8270677 M14.3448276,14.3045722 L14.3448276,15.839599 C14.3448276,19.7152815 11.1336286,22.8571429 7.17241379,22.8571429 C3.21119904,22.8571429 0,19.7152815 0,15.839599 L0,7.01754386 C0,3.1418614 3.21119904,0 7.17241379,0 C11.1336286,0 14.3448276,3.1418614 14.3448276,7.01754386 L14.3448276,7.3069725"/>
        <path stroke-linecap="round" stroke-linejoin="round" d="M2.76691729,8.42546835 L2.76691729,7.76835706 C2.76691729,5.47122005 4.70589462,3.60902256 7.09774436,3.60902256 C9.4895941,3.60902256 11.4285714,5.47122005 11.4285714,7.76835706 L11.4285714,11.6966793 L11.4285714,15.0887858 C11.4285714,17.3859228 9.4895941,19.2481203 7.09774436,19.2481203 C4.70589462,19.2481203 2.76691729,17.3859228 2.76691729,15.0887858 L2.76691729,14.6045813 L2.76691729,14.7787411 M2.76691729,11.4285714 L2.76691729,11.4801289"/>
        <rect width="2.286" height="8.421" x="5.714" y="7.218" rx="1.143"/>
      </g>
      <path stroke-linecap="round" stroke-linejoin="round" stroke-width="1.5" d="M9.14285714,32 L7.42921437,32 C4.58853771,32 2.28571429,29.3137085 2.28571429,26 L2.28571429,24 M32,24 L32,26 C32,29.3137085 29.3140442,32 26.0007499,32 L24,32 M2.28571429,9.14285714 L2.28571429,7.42857143 C2.28571429,4.58824986 4.58824986,2.28571429 7.42857143,2.28571429 L9.14285714,2.28571429 M24,2.28571429 L26,2.28571429 C29.3137085,2.28571429 32,4.58824986 32,7.42857143 L32,9.14285714"/>
      <rect width="2.42" height="1" x="15.933" y=".807" fill="#242424" stroke-linejoin="round" stroke-width=".5" transform="rotate(90 15.933 0)"/>
      <rect width="2.42" height="1" x="16" y="32.807" fill="#242424" stroke-linejoin="round" stroke-width=".5" transform="matrix(0 1 1 0 -16 16)"/>
      <rect width="2.42" height="1" y="16.743" fill="#242424" stroke-linejoin="round" stroke-width=".5" transform="matrix(1 0 0 -1 0 34.292)"/>
      <rect width="2.42" height="1" x="32" y="16.743" fill="#242424" stroke-linejoin="round" stroke-width=".5" transform="matrix(1 0 0 -1 0 34.292)"/>
    </g>
  </g>
</svg>
