<svg xmlns="http://www.w3.org/2000/svg" width="208" height="166" viewBox="0 0 208 166">
  <g fill="none" fill-rule="evenodd" transform="translate(49 31)">
    <g transform="translate(69)">
      <path fill="#DEDEDE" d="M40.6844106,24.7148289 L40.6844106,25.095057 L38.3987218,25.0956847 C38.3988972,25.1033831 38.3990673,25.1110827 38.399232,25.1187837 L38.4030418,25.4752852 L38.4030418,90.1140684 L5.70342205,90.1140684 L5.70342205,25.4752852 L5.70645239,25.1573071 L5.70805323,25.095 L38.3987218,25.0956847 C38.3958155,24.9681129 38.3914479,24.840902 38.3856352,24.7140681 L40.6844106,24.7148289 Z M22.4334601,-3.83693077e-13 L22.4341743,5.72438655 C24.1448382,5.91385355 25.4752852,7.36429315 25.4752852,9.12547529 C25.4752852,9.24534225 25.4691222,9.36376977 25.4570959,9.48045829 C32.6125285,10.9949714 38.0408789,17.1914334 38.3856352,24.7140681 L5.72080492,24.7145882 C5.71406923,24.8616626 5.70927669,25.009244 5.70645239,25.1573071 L5.70805323,25.095 L3.42205323,25.095057 L3.42205323,24.7148289 L5.72080492,24.7145882 C6.06532034,17.1920628 11.4933136,10.9955599 18.6496192,9.48024498 C18.6373416,9.36376977 18.6311787,9.24534225 18.6311787,9.12547529 C18.6311787,7.363947 19.9621487,5.91328342 21.6732982,5.72427498 L21.6730038,-3.83693077e-13 L22.4334601,-3.83693077e-13 Z" style="mix-blend-mode:multiply"/>
      <path fill="#FFC9AE" stroke="#242424" stroke-width="1.5" d="M37.2623574,24.7148289 L37.2623574,25.095057 L34.9766686,25.0956847 C34.976844,25.1033831 34.9770141,25.1110827 34.9771788,25.1187837 L34.9809886,25.4752852 L34.9809886,90.1140684 L2.28136882,90.1140684 L2.28136882,25.4752852 L2.28439916,25.1573071 L2.286,25.095 L34.9766686,25.0956847 C34.9737622,24.9681129 34.9693946,24.840902 34.9635819,24.7140681 L37.2623574,24.7148289 Z M19.0114068,-3.83693077e-13 L19.0121211,5.72438655 C20.722785,5.91385355 22.0532319,7.36429315 22.0532319,9.12547529 C22.0532319,9.24534225 22.047069,9.36376977 22.0350427,9.48045829 C29.1904753,10.9949714 34.6188257,17.1914334 34.9635819,24.7140681 L2.29875169,24.7145882 C2.29201599,24.8616626 2.28722346,25.009244 2.28439916,25.1573071 L2.286,25.095 L1.98951966e-13,25.095057 L1.98951966e-13,24.7148289 L2.29875169,24.7145882 C2.64326711,17.1920628 8.07126036,10.9955599 15.2275659,9.48024498 C15.2152884,9.36376977 15.2091255,9.24534225 15.2091255,9.12547529 C15.2091255,7.363947 16.5400955,5.91328342 18.251245,5.72427498 L18.2509506,-3.83693077e-13 L19.0114068,-3.83693077e-13 Z"/>
      <rect width="3.422" height="17.49" x="21.954" y="30.038" fill="#F8F8F8" stroke="#242424" stroke-width="1.5"/>
      <rect width="3.422" height="4.943" x="21.954" y="71.103" fill="#F8F8F8" stroke="#242424" stroke-width="1.5"/>
      <rect width="3.422" height="4.943" x="21.954" y="62.738" fill="#F8F8F8" stroke="#242424" stroke-width="1.5"/>
      <rect width="3.422" height="4.943" x="21.954" y="54.373" fill="#F8F8F8" stroke="#242424" stroke-width="1.5"/>
      <rect width="3.422" height="10.646" x="21.954" y="79.468" fill="#F8F8F8" stroke="#242424" stroke-width="1.5"/>
      <rect width="3.422" height="17.49" x="11.886" y="30.038" fill="#F8F8F8" stroke="#242424" stroke-width="1.5"/>
      <rect width="3.422" height="4.943" x="11.886" y="71.103" fill="#F8F8F8" stroke="#242424" stroke-width="1.5"/>
      <rect width="3.422" height="4.943" x="11.886" y="62.738" fill="#F8F8F8" stroke="#242424" stroke-width="1.5"/>
      <rect width="3.422" height="4.943" x="11.886" y="54.373" fill="#F8F8F8" stroke="#242424" stroke-width="1.5"/>
      <rect width="3.422" height="10.646" x="11.886" y="79.468" fill="#F8F8F8" stroke="#242424" stroke-width="1.5"/>
    </g>
    <path fill="#DEDEDE" d="M18.6311787,4.97379915e-13 L19.6311787,4.97379915e-13 L19.6311787,9.88593156 L24.7148289,9.88593156 L24.7148289,19.391635 L31.1787072,19.391635 L31.1787072,28.8973384 L35.3612167,28.8973384 L35.3612167,94.6768061 L2.66159696,94.6768061 L2.66159696,28.8973384 L6.84410646,28.8973384 L6.84410646,19.391635 L13.3079848,19.391635 L13.3079848,9.88593156 L18.6311787,9.88593156 L18.6311787,4.97379915e-13 Z" style="mix-blend-mode:multiply"/>
    <g stroke="#242424">
      <rect width="32.7" height="65.779" y="28.897" fill="#FFE2D4" stroke-width="1.5"/>
      <rect width="24.335" height="9.506" x="4.183" y="19.392" fill="#FFE2D4" stroke-width="1.5"/>
      <rect width="11.407" height="9.506" x="10.646" y="9.886" fill="#FFE2D4" stroke-width="1.5"/>
      <rect width="4.943" height="4.943" x="6.464" y="34.981" fill="#F8F8F8" stroke-width="1.5"/>
      <rect width="4.943" height="4.943" x="6.464" y="44.867" fill="#F8F8F8" stroke-width="1.5"/>
      <rect width="4.943" height="4.943" x="6.464" y="54.753" fill="#F8F8F8" stroke-width="1.5"/>
      <rect width="4.943" height="4.943" x="6.464" y="64.639" fill="#F8F8F8" stroke-width="1.5"/>
      <rect width="4.943" height="4.943" x="6.464" y="74.525" fill="#F8F8F8" stroke-width="1.5"/>
      <rect width="4.943" height="4.943" x="21.293" y="34.981" fill="#F8F8F8" stroke-width="1.5"/>
      <rect width="4.943" height="4.943" x="21.293" y="44.867" fill="#F8F8F8" stroke-width="1.5"/>
      <rect width="4.943" height="4.943" x="21.293" y="54.753" fill="#F8F8F8" stroke-width="1.5"/>
      <rect width="4.943" height="4.943" x="21.293" y="64.639" fill="#F8F8F8" stroke-width="1.5"/>
      <rect width="4.943" height="4.943" x="21.293" y="74.525" fill="#F8F8F8" stroke-width="1.5"/>
      <rect width="1" height="9.886" x="15.97" fill="#F8F8F8" stroke-width="1.25" transform="matrix(-1 0 0 1 32.32 0)"/>
      <rect width="8.365" height="9.506" x="12.167" y="84.791" fill="#F8F8F8" stroke-width="1.5"/>
    </g>
    <g transform="translate(30.095 29)">
      <polygon fill="#000" fill-opacity=".3" points="1.901 9.068 41.392 10.167 41.186 .431 57.905 .431 57.156 61.754 46.376 75.378 1.901 75.378"/>
      <path fill="#FF7735" stroke="#242424" stroke-linecap="round" stroke-linejoin="round" stroke-width="1.5" d="M45.6273764,31.9851014 L45.6273764,34.3154739 M45.6273764,38.142657 L45.6273764,50.603243 L45.6273764,74.8060837 L0,74.8060837 L0,10.1673004 L45.6273764,10.1673004 L45.6273764,26.4004024"/>
      <rect width="32.7" height="4.943" x="6.464" y="15.871" fill="#F8F8F8" stroke="#242424" stroke-width="1.5"/>
      <rect width="32.7" height="4.943" x="6.464" y="25.757" fill="#F8F8F8" stroke="#242424" stroke-width="1.5"/>
      <rect width="32.7" height="4.943" x="6.464" y="35.643" fill="#F8F8F8" stroke="#242424" stroke-width="1.5"/>
      <rect width="32.7" height="4.943" x="6.464" y="45.529" fill="#F8F8F8" stroke="#242424" stroke-width="1.5"/>
      <rect width="32.7" height="4.943" x="6.464" y="55.414" fill="#F8F8F8" stroke="#242424" stroke-width="1.5"/>
      <rect width="8.365" height="9.506" x="22.814" y="65.3" fill="#F8F8F8" stroke="#242424" stroke-width="1.5"/>
      <rect width="8.365" height="9.506" x="14.449" y="65.3" fill="#F8F8F8" stroke="#242424" stroke-width="1.5"/>
    </g>
  </g>
</svg>
