<?xml version="1.0" encoding="UTF-8"?>
<svg width="208px" height="166px" viewBox="0 0 208 166" version="1.1" xmlns="http://www.w3.org/2000/svg" xmlns:xlink="http://www.w3.org/1999/xlink">
    <title>icon_perso_verloren</title>
    <g id="icon_perso_verloren" stroke="none" stroke-width="1" fill="none" fill-rule="evenodd">
        <g id="Group-17" transform="translate(54.000000, 44.000000)">
            <g id="Group-8" transform="translate(0.000000, 16.000000)">
                <rect id="Rectangle" fill="#DEDEDE" opacity="0.659999967" x="4.57142857" y="4.57142857" width="75.4285714" height="50.2857143" rx="8"></rect>
                <g id="Group" stroke="#242424" stroke-width="1.5">
                    <path d="M74.8571429,17.1428571 L74.8571429,24 M75.4285714,30.1233738 C75.4285714,33.3961245 75.4285714,35.1198046 75.4285714,41.6653061 C75.4285714,46.4262261 71.7445145,50.2857143 67.2,50.2857143 L8.22857143,50.2857143 C3.68405692,50.2857143 -3.90798505e-13,46.4262261 -3.90798505e-13,41.6653061 L-3.90798505e-13,8.62040816 C-3.90798505e-13,3.8594882 3.68405692,-2.55795385e-13 8.22857143,-2.55795385e-13 L65.077679,-2.55795385e-13 L67.2,-2.55795385e-13 C71.7445145,-2.55795385e-13 75.4285714,3.8594882 75.4285714,8.62040816 L75.4285714,10.2574893 L75.4285714,12.8219751" id="Shape" fill="#CCEFF0" stroke-linecap="round" stroke-linejoin="round"></path>
                    <rect id="Rectangle-Copy-3" x="41.1251841" y="14.8571429" width="18.2857143" height="1" rx="0.5"></rect>
                    <rect id="Rectangle-Copy-12" x="41.1251841" y="28.5714286" width="18.2857143" height="1" rx="0.5"></rect>
                    <rect id="Rectangle-Copy-5" x="41.1251841" y="21.7142857" width="18.2857143" height="1" rx="0.5"></rect>
                    <rect id="Rectangle-Copy-13" x="41.1251841" y="34.8689249" width="18.2857143" height="1" rx="0.5"></rect>
                    <rect id="Rectangle" fill="#FFFFFF" x="13.3214286" y="14.7117084" width="19.0714286" height="22.5" rx="2.4742268"></rect>
                    <circle id="Oval" fill="#00ADB2" cx="22.6863034" cy="25.1428571" r="3.82142857"></circle>
                    <path d="M22.6863034,29.3214286 C24.3095233,29.3214286 25.6150139,29.9856154 26.6061595,31.3071429 C27.581062,32.6070128 28.2587513,34.4979211 28.6714478,36.9642857 L28.6714478,36.9642857 L16.7011589,36.9642857 C17.1138555,34.4979211 17.7915448,32.6070128 18.7664472,31.3071429 C19.7575928,29.9856154 21.0630835,29.3214286 22.6863034,29.3214286 Z" id="Oval" fill="#00ADB2"></path>
                </g>
            </g>
            <g id="ICON-Search" transform="translate(69.500000, 35.500000) rotate(-90.000000) translate(-69.500000, -35.500000) translate(34.500000, 2.500000)">
                <path d="M16.6965367,32.0078603 C17.9543463,32.0210346 19.0149497,32.4956877 19.7850075,33.2646585 C20.5534499,34.0320162 21.0328782,35.0887965 21.0461741,36.2581313 L21.0461741,36.2581313 L21.3453647,62.5710154 C21.3582214,63.7017173 20.9115534,64.7305869 20.1789957,65.4799953 C19.4464381,66.2294036 18.4279908,66.6993506 17.303687,66.7121686 C16.0406045,66.7006248 14.983148,66.2226898 14.2147056,65.4553321 C13.4462633,64.6879745 12.966835,63.6311941 12.9535391,62.4618594 L12.9535391,62.4618594 L12.6543485,36.1489753 C12.6414918,35.0182734 13.0881598,33.9894037 13.8207175,33.2399954 C14.5519785,32.4919135 15.5681179,32.0223046 16.6965367,32.0078603 Z" id="Rectangle" stroke="#242424" stroke-width="1.20000002" fill="#00ADB2" transform="translate(16.999857, 49.359995) rotate(-315.000000) translate(-16.999857, -49.359995) "></path>
                <path d="M40.2032076,1.06666741 C45.6772212,1.06666741 51.1499356,3.25208923 55.3259716,7.61794503 C59.5121927,11.9944489 61.6032076,17.7310843 61.6032076,23.4666674 C61.6032076,29.2022506 59.5121927,34.9388859 55.3259716,39.3153898 C51.1499356,43.6812456 45.6772212,45.8666674 40.2032076,45.8666674 C34.7291939,45.8666674 29.2564795,43.6812456 25.0804435,39.3153898 C20.8942224,34.9388859 18.8032076,29.2022506 18.8032076,23.4666674 C18.8032076,17.7310843 20.8942224,11.9944489 25.0804435,7.61794503 C29.2564795,3.25208923 34.7291939,1.06666741 40.2032076,1.06666741 Z M40.2032076,8.55916005 C36.5445202,8.55916005 32.8845337,10.0161102 30.0925537,12.9349983 C27.3107589,15.8432385 25.9177657,19.6544268 25.9177657,23.4666674 C25.9177657,27.278908 27.3107589,31.0900964 30.0925537,33.9983365 C32.8845337,36.9172246 36.5445202,38.3741748 40.2032076,38.3741748 C43.8618949,38.3741748 47.5218814,36.9172246 50.3138614,33.9983365 C53.0956563,31.0900964 54.4886494,27.278908 54.4886494,23.4666674 C54.4886494,19.6544268 53.0956563,15.8432385 50.3138614,12.9349983 C47.5218814,10.0161102 43.8618949,8.55916005 40.2032076,8.55916005 Z" id="Combined-Shape" stroke="#242424" stroke-width="1.20000002" fill="#00ADB2"></path>
                <circle id="Oval" fill-opacity="0.7" fill="#FFFFFF" transform="translate(40.203208, 23.466667) rotate(-315.000000) translate(-40.203208, -23.466667) " cx="40.2032076" cy="23.4666674" r="14"></circle>
                <path d="M12.1003366,51.2955166 C12.8116979,51.7108306 13.5376976,51.93193 14.2746627,51.944615 C15.2428525,51.96128 16.1873792,51.6174999 17.1003366,50.9451933" id="Path" stroke="#242424" stroke-width="0.5" stroke-linecap="round" transform="translate(14.600337, 51.445193) rotate(-315.000000) translate(-14.600337, -51.445193) "></path>
                <text id="?" transform="translate(43.000000, 24.000000) rotate(-270.000000) translate(-43.000000, -24.000000) " font-family="PTSans-Bold, PT Sans" font-size="32" font-weight="bold" line-spacing="54" letter-spacing="0.8" fill="#007996">
                    <tspan x="35" y="26">?</tspan>
                </text>
            </g>
        </g>
    </g>
</svg>