<svg xmlns="http://www.w3.org/2000/svg" width="208" height="166" viewBox="0 0 208 166">
  <g fill="none" fill-rule="evenodd" transform="translate(55 45)">
    <rect width="75.429" height="50.286" x="4.571" y="4.571" fill="#DEDEDE" fill-rule="nonzero" opacity=".66" rx="8"/>
    <g stroke="#242424" stroke-width="1.5">
      <path fill="#CCEFF0" fill-rule="nonzero" stroke-linecap="round" stroke-linejoin="round" d="M74.8571429,17.1428571 L74.8571429,24 M75.4285714,30.1233738 C75.4285714,33.3961245 75.4285714,35.1198046 75.4285714,41.6653061 C75.4285714,46.4262261 71.7445145,50.2857143 67.2,50.2857143 L8.22857143,50.2857143 C3.68405692,50.2857143 -3.90798505e-13,46.4262261 -3.90798505e-13,41.6653061 L-3.90798505e-13,8.62040816 C-3.90798505e-13,3.8594882 3.68405692,-2.55795385e-13 8.22857143,-2.55795385e-13 L65.077679,-2.55795385e-13 L67.2,-2.55795385e-13 C71.7445145,-2.55795385e-13 75.4285714,3.8594882 75.4285714,8.62040816 L75.4285714,10.2574893 L75.4285714,12.8219751"/>
      <rect width="18.286" height="1" x="41.125" y="14.857" rx=".5"/>
      <rect width="18.286" height="1" x="41.125" y="28.571" rx=".5"/>
      <rect width="18.286" height="1" x="41.125" y="21.714" rx=".5"/>
      <rect width="18.286" height="1" x="41.125" y="34.869" rx=".5"/>
      <rect width="19.071" height="22.5" x="13.321" y="14.712" fill="#FFF" fill-rule="nonzero" rx="2.474"/>
      <circle cx="22.686" cy="25.143" r="3.821" fill="#00ADB2" fill-rule="nonzero"/>
      <path fill="#00ADB2" fill-rule="nonzero" d="M22.6863034,29.3214286 C24.3095233,29.3214286 25.6150139,29.9856154 26.6061595,31.3071429 C27.581062,32.6070128 28.2587513,34.4979211 28.6714478,36.9642857 L28.6714478,36.9642857 L16.7011589,36.9642857 C17.1138555,34.4979211 17.7915448,32.6070128 18.7664472,31.3071429 C19.7575928,29.9856154 21.0630835,29.3214286 22.6863034,29.3214286 Z"/>
    </g>
    <g transform="translate(47 8.999)">
      <path fill="#000" fill-opacity=".15" fill-rule="nonzero" d="M47.885,0.00142114485 C49.2187677,0.00142114485 50.3,1.08265347 50.3,2.41642114 C50.3,3.75018882 49.2187677,4.83142114 47.885,4.83142114 L45.3246792,4.83181214 C45.5070628,6.17732192 45.6020703,7.56046382 45.6020703,8.97160765 C45.6020703,18.2922302 41.4572535,26.3912357 35.3666452,30.4936636 L35.4681978,30.4931502 C35.3667827,30.5307372 35.2679127,30.573567 35.1719171,30.6213105 C34.9985085,30.7366515 34.8227062,30.8475745 34.6454016,30.9551824 C33.9355267,31.5124586 33.4797174,32.3788031 33.4797174,33.3516076 C33.4797174,34.3243155 33.9354361,35.1905845 34.6450141,35.7485552 C34.8230463,35.8558472 34.999183,35.9669894 35.1737609,36.0813953 C35.2681312,36.1297025 35.365914,36.1720745 35.4661888,36.2093197 L35.3656491,36.2088808 C41.4568015,40.3110966 45.6020703,48.410477 45.6020703,57.7316076 C45.6020703,59.2236619 45.4958556,60.684411 45.292447,62.1024717 L47.885,62.1014211 C49.2187677,62.1014211 50.3,63.1826535 50.3,64.5164211 C50.3,65.8501888 49.2187677,66.9314211 47.885,66.9314211 L4.415,66.9314211 C3.60992909,66.9314211 2.89686712,66.537484 2.45805994,65.9318556 L41.885,65.9314211 C43.2187677,65.9314211 44.3,64.8501888 44.3,63.5164211 C44.3,62.1826535 43.2187677,61.1014211 41.885,61.1014211 L41.885,61.1014211 L39.292447,61.1024717 C39.4958556,59.684411 39.6020703,58.2236619 39.6020703,56.7316076 C39.6020703,47.410477 35.4568015,39.3110966 29.3656491,35.2088808 L29.3656491,35.2088808 L29.4661888,35.2093197 C29.365914,35.1720745 29.2681312,35.1297025 29.1737609,35.0813953 C28.999183,34.9669894 28.8230463,34.8558472 28.6450141,34.7485552 C27.9354361,34.1905845 27.4797174,33.3243155 27.4797174,32.3516076 C27.4797174,31.3788031 27.9355267,30.5124586 28.6454016,29.9551824 C28.8227062,29.8475745 28.9985085,29.7366515 29.1719171,29.6213105 C29.2679127,29.573567 29.3667827,29.5307372 29.4681978,29.4931502 L29.4681978,29.4931502 L29.3666452,29.4936636 C35.4572535,25.3912357 39.6020703,17.2922302 39.6020703,7.97160765 C39.6020703,6.56046382 39.5070628,5.17732192 39.3246792,3.83181214 L39.3246792,3.83181214 L41.885,3.83142114 C43.2187677,3.83142114 44.3,2.75018882 44.3,1.41642114 C44.3,0.887323226 44.1298505,0.397965859 43.8412839,8.15323938e-05 L47.885,0.00142114485 Z"/>
      <g transform="translate(0 .001)">
        <path stroke="#1B1B1B" stroke-width="1.5" d="M42.2636217,3.05006377 C42.6479042,4.94270709 42.8520703,6.9263467 42.8520703,8.9701865 C42.8520703,14.1735793 41.5290851,18.9873491 39.279039,22.9000507 C36.9962907,26.8696194 33.7593998,29.9122918 29.9829713,31.4636875 C29.3660455,32.3690755 29.25,32.9209769 29.25,33.5 C29.25,33.9184876 29.3106493,34.3228154 29.4233789,34.7047581 C33.6704199,36.7162366 36.9367032,39.756256 39.2414115,43.7353581 C41.5143884,47.6596758 42.8520703,52.4979618 42.8520703,57.7301865 C42.8520703,59.7743231 42.6478449,61.758242 42.2634543,63.6511337 L42.2634543,63.6511337 L6.3006863,63.6511337 C5.91629574,61.758242 5.71207031,59.7743231 5.71207031,57.7301865 C5.71207031,52.3864524 7.10735528,47.4535692 9.46916407,43.4857338 C11.8589652,39.4708713 15.2385149,36.4433652 19.1615261,35.0116414 C19.7100389,34.1698007 19.75,33.8395547 19.75,33.5 C19.75,33.0135507 19.6680775,32.5462345 19.5176095,32.1109651 C15.1699083,30.2023922 11.8128841,27.1726087 9.44005389,23.1651135 C7.09582431,19.2059223 5.71207031,14.2917871 5.71207031,8.9701865 C5.71207031,6.9263467 5.91623645,4.94270709 6.30051889,3.05006377 L6.30051889,3.05006377 L42.2636217,3.05006377 Z"/>
        <path fill="#00ADB2" fill-rule="nonzero" d="M0.256904216,0.983544431 C11.8329843,2.40936473 41.1640557,1.75020986 41.1640557,1.75020986 C41.1640557,1.75020986 44.4850822,1.04025986 37.085551,7.54996346 C29.6860197,14.0596671 25.3573478,11.8877463 24.6767916,16.3357091 C23.9962353,20.7836719 20.4893392,21.0352344 19.3878549,16.3357091 C18.2863705,11.6361838 13.9862736,14.6609616 5.84822676,7.48007336 C0.422862177,2.69281456 0.915654136,3.74508283 0.256904216,0.983544431 Z" transform="rotate(-180 23.002 33.525)"/>
        <path fill="#00ADB2" fill-rule="nonzero" d="M8.88562002,16.8245274 C13.7444254,18.366746 18.3082161,18.2057264 22.5769922,16.3414686 C26.8457682,14.4772107 32.663151,14.0208045 40.0291406,14.9722498 C38.0622633,22.2512143 34.7192164,27.0069204 30,29.2393681 C27.6248236,30.3629565 26.7017187,31.4053221 26.7644445,34.8793787 C26.8271703,38.3534353 27.392168,41.2403162 24.1452148,41.2021326 C20.8982617,41.163949 21.5553608,38.6821066 21.4755078,36 C21.3956548,33.3178934 22.1795348,30.2041656 17.0844233,28.5180877 C13.6876822,27.3940357 10.9547478,23.4961823 8.88562002,16.8245274 Z"/>
        <rect width="48.3" height="4.83" fill="#008A8E" fill-rule="nonzero" stroke="#1B1B1B" stroke-width="1.5" rx="2.415"/>
        <rect width="48.3" height="4.83" y="62.1" fill="#008A8E" fill-rule="nonzero" stroke="#1B1B1B" stroke-width="1.5" rx="2.415"/>
        <path fill="#CCEFF0" fill-opacity=".4" fill-rule="nonzero" d="M31.697939,7.98887623 C31.7256875,6.23162927 39.8761712,5.36178354 39.9664739,9.15426544 C40.0567766,12.9467473 37.9334442,18.0867779 35.4979809,21.8975306 C33.0625176,25.7082834 26.2122552,31.3671881 25.4320703,29.3026865 C24.6518854,27.2381849 30.0371101,24.6305634 31.6329125,18.6516677 C33.228715,12.6727721 31.6393249,11.7007673 31.697939,7.98887623 Z"/>
        <path fill="#CCEFF0" fill-opacity=".4" fill-rule="nonzero" d="M8.63284144,46.8711902 C8.65182912,45.6621054 14.2290177,45.0636026 14.2908097,47.6730435 C14.3526018,50.2824844 14.1637439,53.8191145 12.4972124,56.4411267 C10.8306809,59.063139 8.74093896,61.568294 7.80380591,60.4827502 C6.86667285,59.3972065 7.4963744,58.321607 8.58834533,54.2077905 C9.68031626,50.093974 8.59273314,49.42518 8.63284144,46.8711902 Z" transform="rotate(-180 10.824 53.29)"/>
      </g>
    </g>
  </g>
</svg>
