<svg xmlns="http://www.w3.org/2000/svg" width="208" height="166" viewBox="0 0 208 166">
  <g fill="none" fill-rule="evenodd" transform="translate(40 19)">
    <g transform="translate(70.919 72.649)">
      <circle cx="30.27" cy="27.676" r="26.811" fill="#DEDEDE" style="mix-blend-mode:multiply"/>
      <circle cx="26.811" cy="26.811" r="26.811" fill="#F8F8F8"/>
      <path fill="#F8F8F8" stroke="#242424" stroke-linecap="round" stroke-linejoin="round" stroke-width="1.5" d="M36.1787453,1.80081051 C33.2729713,0.637833166 30.1139752,0 26.8108108,0 C12.4812605,0 0.864864865,12.0036089 0.864864865,26.8108108 C0.864864865,41.6180128 12.4812605,53.6216216 26.8108108,53.6216216 C41.1403611,53.6216216 52.7567568,41.6180128 52.7567568,26.8108108 C52.7567568,21.9562642 51.5081584,17.4030642 49.3247056,13.4754128 M46.462467,9.30420911 C45.204809,7.79811968 43.7877518,6.43815249 42.2383746,5.25228921"/>
      <g stroke="#242424" stroke-width="1.5" transform="translate(14.703 7.784)">
        <g transform="translate(.402)">
          <path fill="#FFE2D4" stroke-linecap="round" stroke-linejoin="round" d="M25.5442324,19.4576034 L25.5442324,25.9984141 L16.0307189,34.5945946 L3.14770432e-12,34.5945946 L3.14770432e-12,-3.14770432e-12 L25.5442324,-3.14770432e-12 L25.5442324,12.747035 M25.5442324,15.8301341 L25.5442324,16.5923447" transform="matrix(1 0 0 -1 0 34.595)"/>
          <g fill="#F8F8F8" transform="translate(5.652 12.108)">
            <path d="M11.920094 8.8774289C12.7917596 8.8774289 13.5809048 9.2307412 14.1521335 9.80196992 14.7233622 10.3731986 15.0766745 11.1623438 15.0766745 12.0340094 15.0766745 12.905675 14.7233622 13.6948201 14.1521335 14.2660489 13.5809048 14.8372776 12.7917596 15.1905899 11.920094 15.1905899 11.0484284 15.1905899 10.2592832 14.8372776 9.68805453 14.2660489 9.11682582 13.6948201 8.76351351 12.905675 8.76351351 12.0340094 8.76351351 11.1623438 9.11682582 10.3731986 9.68805453 9.80196992 10.2592832 9.2307412 11.0484284 8.8774289 11.920094 8.8774289zM11.5995694 11.7134848C11.51754 11.7955142 11.4668038 11.9088367 11.4668038 12.0340094 11.4668038 12.159182 11.51754 12.2725046 11.5995694 12.354534 11.6815988 12.4365634 11.7949214 12.4872996 11.920094 12.4872996 12.0452667 12.4872996 12.1585892 12.4365634 12.2406186 12.354534 12.322648 12.2725046 12.3733843 12.159182 12.3733843 12.0340094 12.3733843 11.9088367 12.322648 11.7955142 12.2406186 11.7134848 12.1585892 11.6314554 12.0452667 11.5807191 11.5995694 11.7134848zM2.40658049-.410467694C3.27824613-.410467694 4.06739125-.0571553881 4.63861997.514073327 5.20984868 1.08530204 5.56316099 1.87444717 5.56316099 2.7461128 5.56316099 3.61777843 5.20984868 4.40692356 4.63861997 4.97815227 4.06739125 5.54938099 3.27824613 5.90269329 2.40658049 5.90269329 1.53491486 5.90269329.745769736 5.54938099.174541021 4.97815227-.396687694 4.40692356-.75 3.61777843-.75 2.7461128-.75 1.87444717-.396687694 1.08530204.174541021.514073327.745769736-.0571553881 1.53491486-.410467694 2.40658049-.410467694zM2.08605589 2.42558819C2.00402649 2.50761759 1.95329025 2.62094015 1.95329025 2.7461128 1.95329025 2.87128544 2.00402649 2.98460801 2.08605589 3.06663741 2.16808529 3.14866681 2.28140785 3.19940305 2.40658049 3.19940305 2.53175314 3.19940305 2.6450757 3.14866681 2.7271051 3.06663741 2.8091345 2.98460801 2.85987074 2.87128544 2.85987074 2.7461128 2.85987074 2.62094015 2.8091345 2.50761759 2.7271051 2.42558819 2.6450757 2.34355879 2.53175314 2.29282255 2.08605589 2.42558819z"/>
            <rect width="2.703" height="18.346" x="5.582" y="-1.615" transform="rotate(45 6.934 7.558)"/>
          </g>
        </g>
        <path fill="#E44500" d="M25.9459459,3.42241652 L16.9709391,12.0185971 L14.7027027,12.0185971 C16.2145931,12.0185971 16.9697792,10.9149092 16.968261,8.70753362 C16.9680413,8.38809204 16.9738369,8.31788759 16.9709391,6.34130044 C16.9680413,4.36471329 17.5736537,2.94481109 19.5064192,2.94481109 C20.9226793,2.94481109 22.2762047,2.94481109 23.5669953,2.94481109 C25.1529624,2.73076466 25.9459459,1.94819663 25.9459459,0.597106985 C25.9459459,-0.753982657 25.9459459,0.187787187 25.9459459,3.42241652 Z" transform="matrix(1 0 0 -1 0 12.019)"/>
      </g>
    </g>
    <g transform="translate(45.838 18.162)">
      <circle cx="29.405" cy="29.405" r="26.811" fill="#DEDEDE" style="mix-blend-mode:multiply"/>
      <g fill="#F8F8F8">
        <circle cx="26.5" cy="26.811" r="26.5"/>
        <path stroke="#242424" stroke-linecap="round" stroke-linejoin="round" stroke-width="1.5" d="M36.1787453,1.80081051 C33.2729713,0.637833166 30.1139752,0 26.8108108,0 C12.4812605,0 0.864864865,12.0036089 0.864864865,26.8108108 C0.864864865,41.6180128 12.4812605,53.6216216 26.8108108,53.6216216 C41.1403611,53.6216216 52.7567568,41.6180128 52.7567568,26.8108108 C52.7567568,21.9562642 51.5081584,17.4030642 49.3247056,13.4754128 M46.462467,9.30420911 C45.204809,7.79811968 43.7877518,6.43815249 42.2383746,5.25228921"/>
      </g>
      <g stroke="#242424" stroke-width="1.5" transform="translate(6.919 14.703)">
        <circle cx="7.748" cy="3.576" r="2.826" fill="#EFEFEF"/>
        <path fill="#EFEFEF" d="M7.74815265,6.71011742 C6.51213336,6.71011742 5.43291996,7.03170023 4.51529622,7.68903604 C3.56823081,8.36746226 2.79706671,9.39288799 2.18134668,10.7473461 C1.80994102,11.5643549 1.80485615,12.4545563 2.09687426,13.2333565 C2.38889282,14.012158 2.97801515,14.679558 3.79502415,15.0509603 C4.21740911,15.2429713 4.67601077,15.342317 5.1399906,15.342317 L10.3563128,15.342317 C11.2537777,15.342319 12.0662783,14.9785513 12.6544131,14.3904172 C13.2425485,13.8022825 13.6063177,12.9897812 13.6063177,12.092317 C13.6063177,11.6283384 13.5069724,11.1697379 13.3149622,10.7473539 C12.6992421,9.39289315 11.9280777,8.36746542 10.9810116,7.68903786 C10.0633873,7.03170083 8.98417308,6.71011742 7.74815265,6.71011742 Z"/>
        <circle cx="31.964" cy="7.9" r="2.826" fill="#EFEFEF"/>
        <path fill="#FF7735" d="M31.9643689,11.0344417 C30.0971373,11.0344417 28.593693,11.7813721 27.4529758,13.2730792 C26.3334538,14.7370696 25.5568615,16.8737792 25.0894597,19.6666414 L34.5725289,19.6666414 C35.4699939,19.6666434 36.2824945,19.3028756 36.8706293,18.7147415 C37.4587647,18.1266069 37.8225339,17.3141055 37.8225339,16.4166414 C37.8225339,15.9526627 37.7231886,15.4940622 37.5311784,15.0716782 C36.9154583,13.7172175 36.1442939,12.6917897 35.1972278,12.0133622 C34.2796035,11.3560251 33.2003893,11.0344417 31.9643689,11.0344417 Z"/>
        <circle cx="15.532" cy="7.9" r="2.826" fill="#EFEFEF"/>
        <path fill="#E44500" d="M15.5319364,11.0344417 C13.6647048,11.0344417 12.1612606,11.7813721 11.0205434,13.2730792 C9.90102132,14.7370696 9.12442904,16.8737792 8.65702732,19.6666414 L22.4068455,19.6666414 C21.9394438,16.8737792 21.1628515,14.7370696 20.0433295,13.2730792 C18.9026122,11.7813721 17.399168,11.0344417 15.5319364,11.0344417 Z"/>
        <circle cx="23.316" cy="11.36" r="2.826" fill="#F2F2F2"/>
        <path fill="#FFB692" d="M23.3157202,14.4939012 C22.0797009,14.4939012 21.0004875,14.815484 20.0828638,15.4728198 C19.1357984,16.151246 18.3646343,17.1766718 17.7489142,18.5311298 C17.3775086,19.3481387 17.3724237,20.23834 17.6644418,21.0171403 C17.9564604,21.7959418 18.5455827,22.4633418 19.3625917,22.834744 C19.7849767,23.0267551 20.2435783,23.1261008 20.7075582,23.1261008 L25.9238803,23.1261008 C26.8213453,23.1261028 27.6338458,22.762335 28.2219807,22.174201 C28.810116,21.5860663 29.1738853,20.773565 29.1738853,19.8761008 C29.1738853,19.4121222 29.07454,18.9535217 28.8825297,18.5311377 C28.2668097,17.1766769 27.4956453,16.1512492 26.5485792,15.4728216 C25.6309549,14.8154846 24.5517406,14.4939012 23.3157202,14.4939012 Z"/>
        <circle cx="10.343" cy="12.225" r="2.826" fill="#F2F2F2"/>
        <path fill="#FFE2D4" d="M10.3427472,15.3587661 C9.10672795,15.3587661 8.02751455,15.6803489 7.10989081,16.3376847 C6.1628254,17.0161109 5.39166131,18.0415366 4.77594128,19.3959947 C4.40453561,20.2130036 4.39945075,21.1032049 4.69146886,21.8820052 C4.98348741,22.6608066 5.57260975,23.3282066 6.38961875,23.6996089 C6.81200371,23.8916199 7.27060536,23.9909657 7.7345852,23.9909657 L12.9509074,23.9909657 C13.8483723,23.9909677 14.6608729,23.6271999 15.2490077,23.0390658 C15.8371431,22.4509312 16.2009123,21.6384298 16.2009123,20.7409657 C16.2009123,20.276987 16.101567,19.8183865 15.9095568,19.3960025 C15.2938367,18.0415418 14.5226723,17.0161141 13.5756062,16.3376865 C12.6579819,15.6803495 11.5787677,15.3587661 10.3427472,15.3587661 Z"/>
      </g>
    </g>
    <g transform="translate(25.081 59.676)">
      <circle cx="29.405" cy="28.541" r="26.811" fill="#DEDEDE" style="mix-blend-mode:multiply"/>
      <g fill="#F8F8F8" transform="matrix(-1 0 0 1 53.622 0)">
        <circle cx="27" cy="26.811" r="26"/>
        <path stroke="#242424" stroke-linecap="round" stroke-linejoin="round" stroke-width="1.5" d="M36.1787453,1.80081051 C33.2729713,0.637833166 30.1139752,0 26.8108108,0 C12.4812605,0 0.864864865,12.0036089 0.864864865,26.8108108 C0.864864865,41.6180128 12.4812605,53.6216216 26.8108108,53.6216216 C41.1403611,53.6216216 52.7567568,41.6180128 52.7567568,26.8108108 C52.7567568,21.9562642 51.5081584,17.4030642 49.3247056,13.4754128 M46.462467,9.30420911 C45.204809,7.79811968 43.7877518,6.43815249 42.2383746,5.25228921"/>
      </g>
      <g stroke="#242424" stroke-width="1.5" transform="translate(5.694 .288)">
        <path fill="#FFF" stroke-linecap="round" stroke-linejoin="round" d="M36.5278219,33.9586575 L36.5278219,38.0365072 L5.18918919,38.0365072 L5.18918919,17.2125066 L20.8585056,7.90634152 L36.5278219,17.2125066 L36.5278219,26.5032964 M36.5278219,29.1942592 L36.5278219,31.5424352"/>
        <rect width="6.919" height="11.158" x="17.399" y="26.861" fill="#F2F2F2"/>
        <rect width="5.698" height="5.461" x="7.568" y="24.776" fill="#FF7735"/>
        <rect width="5.698" height="5.461" x="28.468" y="24.776" fill="#FF7735"/>
        <path fill="#FF9D6D" d="M35.1033386,9.14043455 L12.9616627,12.4020442 L9.70005299,34.5437202 L6.6136725,34.5437202 L9.87528215,9.31566371 L35.1033386,6.05405405 L35.1033386,9.14043455 Z" transform="rotate(45 20.859 20.299)"/>
      </g>
    </g>
    <circle cx="29.405" cy="29.405" r="26.811" fill="#DEDEDE" style="mix-blend-mode:multiply"/>
    <g fill="#F8F8F8">
      <circle cx="26.5" cy="26.811" r="26.5"/>
      <path stroke="#242424" stroke-linecap="round" stroke-linejoin="round" stroke-width="1.5" d="M36.1787453,1.80081051 C33.2729713,0.637833166 30.1139752,0 26.8108108,0 C12.4812605,0 0.864864865,12.0036089 0.864864865,26.8108108 C0.864864865,41.6180128 12.4812605,53.6216216 26.8108108,53.6216216 C41.1403611,53.6216216 52.7567568,41.6180128 52.7567568,26.8108108 C52.7567568,21.9562642 51.5081584,17.4030642 49.3247056,13.4754128 M46.462467,9.30420911 C45.204809,7.79811968 43.7877518,6.43815249 42.2383746,5.25228921"/>
    </g>
    <g stroke="#242424" stroke-width="1.5" transform="translate(8.649 5.222)">
      <path fill="#FFC9AE" stroke-linejoin="round" d="M12.0462277,26.4148182 L24.8546732,26.4148182 C25.2499519,26.4148182 25.6243579,26.5922414 25.8746633,26.8981702 L27.6717851,29.0946524 C28.1326873,29.6579773 28.0496573,30.4882775 27.4863324,30.9491798 C27.2508754,31.1418263 26.9560197,31.247079 26.651795,31.247079 L10.2491059,31.247079 C9.52125569,31.247079 8.93121655,30.6570399 8.93121655,29.9291897 C8.93121655,29.624965 9.03646924,29.3301093 9.22911581,29.0946524 L11.0262376,26.8981702 C11.276543,26.5922414 11.650949,26.4148182 12.0462277,26.4148182 Z"/>
      <path fill="#FFC9AE" stroke-linecap="round" stroke-linejoin="round" d="M26.4868629,35.5366795 L23.2577158,35.5366795 M19.246528,35.5366795 L1.31788932,35.5366795 C0.590039146,35.5366795 9.09494702e-13,34.9466404 9.09494702e-13,34.2187902 L9.09494702e-13,32.022308 C9.09494702e-13,31.2944579 0.590039146,30.7044187 1.31788932,30.7044187 L35.5830116,30.7044187 C36.3108618,30.7044187 36.9009009,31.2944579 36.9009009,32.022308 L36.9009009,34.2187902 C36.9009009,34.9466404 36.3108618,35.5366795 35.5830116,35.5366795 L29.3872241,35.5366795 L29.3872241,35.5366795"/>
      <circle cx="28.554" cy="17.965" r="4.082" fill="#FF7735"/>
      <circle cx="8.347" cy="17.965" r="4.082" fill="#FF7735"/>
      <rect width="1" height="22.363" x="18.45" y="3.427" stroke-linejoin="round" transform="matrix(-1 0 0 1 37.34 0)"/>
      <rect width="1" height="19.768" x="18.45" y="-4" stroke-linejoin="round" transform="rotate(90 18.67 5.884)"/>
      <polygon fill="#FFF" stroke-linejoin="round" points="28.784 5.665 33.387 17.965 23.722 17.965"/>
      <polygon fill="#FFF" stroke-linejoin="round" points="8.577 5.665 13.179 17.965 3.514 17.965"/>
      <circle cx="18.67" cy="6.104" r="1.757" fill="#FFF" stroke-linejoin="round"/>
      <path stroke-linejoin="round" d="M23.7220077,5.88416988 C23.7220077,3.09407756 21.460191,0.832260832 18.6700987,0.832260832 C15.8800063,0.832260832 13.6181896,3.09407756 13.6181896,5.88416988"/>
    </g>
  </g>
</svg>
