<?xml version="1.0" encoding="UTF-8"?>
<svg width="208px" height="166px" viewBox="0 0 208 166" version="1.1" xmlns="http://www.w3.org/2000/svg" xmlns:xlink="http://www.w3.org/1999/xlink">
    <title>icon_servicetel</title>
    <defs>
        <path d="M18.0035225,27 C20.8258863,27 23.4633016,27.7943705 25.7057199,29.1723965 C26.4929428,29.656166 27.231485,30.2118669 27.9122587,30.8303825 C28.3162401,31.197419 28.6998788,31.5865751 29.0612757,31.9959458 C29.7602116,32.7876622 30.3759569,33.6549869 30.8947743,34.5841394 C32.0886194,36.7222019 32.7692308,39.1876427 32.7692308,41.8125531 C32.7692308,49.9933003 26.158398,56.6251063 18.0035225,56.6251063 C15.256375,56.6251063 12.6844494,55.8725116 10.4814446,54.5616357 L2,58.3846154 L5.58228426,49.8248728 C4.09866785,47.5150314 3.23781424,44.7646427 3.23781424,41.8125531 C3.23781424,33.6318059 9.84864701,27 18.0035225,27 Z" id="path-1"></path>
    </defs>
    <g id="icon_servicetel" stroke="none" stroke-width="1" fill="none" fill-rule="evenodd">
        <g id="Group-15" transform="translate(51.000000, 38.000000)">
            <g id="Group-14" transform="translate(69.848076, 51.472756) rotate(-240.000000) translate(-69.848076, -51.472756) translate(27.848076, 32.972756)" fill="#DEDEDE">
                <path d="M41.5980762,0.232050808 C63.5910154,0.232050808 81.4383729,10.1110142 81.5970104,22.3310762 L81.5980762,22.4309798 C81.5980762,22.4389923 81.5980464,22.4470013 81.5979868,22.4550067 C81.598054,22.4679295 81.5980762,22.4816255 81.5980762,22.4953245 C81.5285182,25.9131036 76.0347534,28.6724178 69.267801,28.6724178 C62.457978,28.6724178 56.9375258,25.8780308 56.9375258,22.4309798 L56.9390762,22.4950508 L56.9375258,22.4953245 C56.9375258,16.972477 50.0698203,12.4953245 41.5980762,12.4953245 C33.1263322,12.4953245 26.2586267,16.972477 26.2586267,22.4953245 C26.1890687,25.9131036 20.6953039,28.6724178 13.9283514,28.6724178 C7.11852847,28.6724178 1.59807621,25.8780308 1.59807621,22.4309798 L1.59907621,22.4950508 L1.59807621,22.4953245 L1.59907621,22.4550508 L1.59807621,22.4309798 C1.59807621,22.3977382 1.5985896,22.3645573 1.59961257,22.3314391 L1.59807621,22.4953245 C1.59807621,17.9151281 4.0830736,13.657973 8.34359728,10.118738 C9.1098034,9.48224729 9.93343338,8.86897551 10.8103607,8.28121935 C12.3465603,7.25158927 14.0463186,6.30026144 15.8874519,5.43958293 C17.3249677,4.76758435 18.8486677,4.15084685 20.4479929,3.5952473 C26.58369,1.46372927 33.832454,0.232050808 41.5980762,0.232050808 Z" id="Combined-Shape" style="mix-blend-mode: darken;"></path>
                <path d="M26.044899,25.9158186 C26.6690153,26.851761 27.0131397,27.8766308 27.0131397,28.9509619 C27.0131397,33.3692399 21.1928415,36.9509619 14.0131397,36.9509619 C6.83343797,36.9509619 1.01313972,33.3692399 1.01313972,28.9509619 C1.01313972,27.8766308 1.35726409,26.851761 1.98138047,25.9158186 C3.92199774,28.2832758 8.57805977,29.9509619 14.0131397,29.9509619 C19.397916,29.9509619 24.0180279,28.314003 25.9915353,25.9810552 Z" id="Combined-Shape" style="mix-blend-mode: darken;"></path>
                <path d="M82.007678,25.9158461 C82.6557868,26.8517812 83.0131397,27.8766414 83.0131397,28.9509619 C83.0131397,33.3692399 76.9689838,36.9509619 69.5131397,36.9509619 C62.0572956,36.9509619 56.0131397,33.3692399 56.0131397,28.9509619 C56.0131397,27.8766414 56.3704926,26.8517812 57.0186014,25.9158461 C59.0354379,28.2838141 63.8699293,29.9509619 69.5131397,29.9509619 C75.1355796,29.9509619 79.9552426,28.2960639 81.9855932,25.942748 Z" id="Combined-Shape-Copy-3" style="mix-blend-mode: darken;"></path>
            </g>
            <g id="Group-14" transform="translate(66.500000, 45.807692) rotate(-240.000000) translate(-66.500000, -45.807692) translate(25.000000, 27.307692)" fill="#F8F8F8" stroke="#242424" stroke-width="1.5">
                <path d="M40.6339746,0.0980762114 C62.6269138,0.0980762114 80.4742713,9.97703962 80.6329088,22.1971016 L80.6339746,22.2970052 C80.6339746,22.3050177 80.6339448,22.3130267 80.6338852,22.3210321 C80.6339524,22.3339549 80.6339746,22.3476509 80.6339746,22.3613499 C80.5644166,25.7791291 75.0706518,28.5384432 68.3036994,28.5384432 C61.4938764,28.5384432 55.9734241,25.7440562 55.9734241,22.2970052 L55.9749746,22.3610762 L55.9734241,22.3613499 C55.9734241,16.8385024 49.1057186,12.3613499 40.6339746,12.3613499 C32.1622305,12.3613499 25.2945251,16.8385024 25.2945251,22.3613499 C25.224967,25.7791291 19.7312022,28.5384432 12.9642498,28.5384432 C6.15442686,28.5384432 0.633974596,25.7440562 0.633974596,22.2970052 L0.634974596,22.3610762 L0.633974596,22.3613499 L0.634974596,22.3210762 L0.633974596,22.2970052 C0.633974596,22.2637636 0.63448798,22.2305827 0.635510954,22.1974645 L0.633974596,22.3613499 C0.633974596,17.7811535 3.11897198,13.5239984 7.37949566,9.98476335 C8.14570178,9.34827269 8.96933177,8.73500091 9.8462591,8.14724476 C11.3824587,7.11761467 13.082217,6.16628684 14.9233503,5.30560833 C16.3608661,4.63360976 17.8845661,4.01687226 19.4838913,3.4612727 C25.6195884,1.32975468 32.8683524,0.0980762114 40.6339746,0.0980762114 Z" id="Combined-Shape" stroke-linejoin="round"></path>
                <path d="M1.18400987,27.0295432 C3.51856071,29.1089565 7.93320592,30.5669873 13.0490381,30.5669873 C18.1511295,30.5669873 22.5578488,29.1173341 24.8962892,27.0468649 C25.1637526,27.5987776 25.2990381,28.1981353 25.2990381,28.8169873 C25.2990381,30.7988097 23.9352537,32.5508513 21.8483532,33.8350978 C19.5964121,35.2209077 16.4830865,36.0669873 13.0490381,36.0669873 C9.61498973,36.0669873 6.50166413,35.2209077 4.24972302,33.8350978 C2.1628225,32.5508513 0.799038106,30.7988097 0.799038106,28.8169873 C0.799038106,28.1980067 0.934038345,27.5991642 1.18400987,27.0295432 Z" id="Combined-Shape"></path>
                <path d="M56.2142432,27.0011885 C58.6225704,29.0957768 63.2198822,30.5669873 68.5490381,30.5669873 C73.8724759,30.5669873 78.4664965,29.099193 80.876347,27.0091966 C81.1528203,27.5793722 81.2990381,28.187682 81.2990381,28.8169873 C81.2990381,30.7993547 79.8769975,32.5460335 77.7126279,33.8286229 C75.3674607,35.2183516 72.1254344,36.0669873 68.5490381,36.0669873 C64.9726418,36.0669873 61.7306155,35.2183516 59.3854484,33.8286229 C57.2210787,32.5460335 55.7990381,30.7993547 55.7990381,28.8169873 C55.7990381,28.1874593 55.9450627,27.5791127 56.2142432,27.0011885 Z" id="Combined-Shape-Copy-3"></path>
            </g>
            <g id="Combined-Shape" stroke-linejoin="round" transform="translate(17.384615, 42.692308) rotate(-90.000000) translate(-17.384615, -42.692308) ">
                <use fill="#DEDEDE" fill-rule="evenodd" style="mix-blend-mode: darken;" xlink:href="#path-1"></use>
                <path stroke="#DEDEDE" stroke-width="1.5" d="M18.0035225,26.25 C20.9698263,26.25 23.7416535,27.0851274 26.0983953,28.5334082 C26.9254524,29.0416569 27.701376,29.6254637 28.4165983,30.2752775 C28.8409403,30.6608126 29.2439149,31.0695818 29.6235263,31.4995848 C30.3577601,32.3312846 31.004588,33.2424204 31.5496064,34.2184962 C32.8038411,36.4647108 33.5192308,39.0548018 33.5192308,41.8125531 C33.5192308,46.1097611 31.7827715,50.0000463 28.9756243,52.8160994 C26.1676186,55.6330136 22.2883381,57.3751063 18.0035225,57.3751063 C15.2569582,57.3751063 12.6771291,56.6591091 10.4391468,55.4033703 L10.4391468,55.4033703 L0.573605332,59.8502265 L4.74071923,49.8930541 C3.31140273,47.5377398 2.48781424,44.771658 2.48781424,41.8125531 C2.48781424,37.5153452 4.22427347,33.6250599 7.03142073,30.8090069 C9.83942645,27.9920926 13.7187069,26.25 18.0035225,26.25 Z"></path>
            </g>
            <path d="M16.6189071,22.25 C19.5852109,22.25 22.3570381,23.0851274 24.7137799,24.5334082 C25.540837,25.0416569 26.3167606,25.6254637 27.0319829,26.2752775 C27.456325,26.6608126 27.8592996,27.0695818 28.238911,27.4995848 C28.9731447,28.3312846 29.6199727,29.2424204 30.164991,30.2184962 C31.4192257,32.4647108 32.1346154,35.0548018 32.1346154,37.8125531 C32.1346154,42.1097611 30.3981562,46.0000463 27.5910089,48.8160994 C24.7830032,51.6330136 20.9037227,53.3751063 16.6189071,53.3751063 C13.8723428,53.3751063 11.2925137,52.6591091 9.05453146,51.4033703 L9.05453146,51.4033703 L-0.811010052,55.8502265 L3.35610384,45.8930541 C1.92678735,43.5377398 1.10319886,40.771658 1.10319886,37.8125531 C1.10319886,33.5153452 2.83965808,29.6250599 5.64680535,26.8090069 C8.45481106,23.9920926 12.3340915,22.25 16.6189071,22.25 Z" id="Combined-Shape" stroke="#242424" stroke-width="1.5" fill="#CCEFF0" stroke-linejoin="round" transform="translate(16.000000, 38.692308) rotate(-90.000000) translate(-16.000000, -38.692308) "></path>
            <text id="115" font-family="PTSans-Bold, PT Sans" font-size="12.3076923" font-weight="bold" line-spacing="17.2307692" letter-spacing="0.43956045" fill="#242424">
                <tspan x="4.37296702" y="40">115</tspan>
            </text>
        </g>
    </g>
</svg>