<?xml version="1.0" encoding="UTF-8"?>
<svg width="37px" height="33px" viewBox="0 0 37 33" version="1.1" xmlns="http://www.w3.org/2000/svg" xmlns:xlink="http://www.w3.org/1999/xlink">
    <title>icon_rollstuhl_wc</title>
    <g id="01_Design" stroke="none" stroke-width="1" fill="none" fill-rule="evenodd">
        <g id="10_termin_lichtenberg" transform="translate(-132.000000, -515.000000)">
            <g id="dropdown_buergeramt_off" transform="translate(25.000000, 0.000000)">
                <g id="Group-9-Copy" transform="translate(29.000000, 515.000000)">
                    <g id="icon_rollstuhl_wc" transform="translate(78.000000, 0.000000)">
                        <g id="Group-Copy-2" transform="translate(11.000000, 7.000000)">
                            <circle id="Oval" stroke="#979797" stroke-width="0.5" fill="#FFFFFF" cx="13" cy="13" r="12.75"></circle>
                            <g id="icon" transform="translate(13.000000, 13.000000) scale(-1, 1) translate(-13.000000, -13.000000) translate(5.000000, 3.000000)" fill="#8A8A8A" fill-rule="nonzero">
                                <path d="M7.14312526,4 C8.24646544,4 9.14285714,3.10456566 9.14285714,2.00002063 C9.14285714,0.895145571 8.24646544,0 7.14312526,0 C6.03850636,0 5.14285714,0.895145571 5.14285714,2.00002063 C5.14285714,3.10456566 6.03850636,4 7.14312526,4 Z" id="XMLID_31_"></path>
                                <path d="M10.1085401,15.0802025 C9.59350439,16.9097633 7.94489442,18.2533854 5.99297188,18.2533854 C3.62923666,18.2533854 1.70697775,16.2866852 1.70697775,13.8691389 C1.70697775,12.0795787 2.76223525,10.5393071 4.26820395,9.85868198 L4.26820395,8 C1.80196532,8.75997205 0,11.1021797 0,13.8691389 C0,17.2495237 2.68839601,20 5.9929319,20 C8.40112258,20 10.4768168,18.5357215 11.4285714,16.434745 L10.7519049,15.0745991 C10.5619698,15.0761942 10.3419313,15.0782392 10.1085401,15.0802025 Z" id="XMLID_30_"></path>
                                <path d="M15.8777399,17.1838245 L13.3281505,12.0217912 C13.137851,11.6355444 12.7531688,11.3924268 12.3323663,11.3924268 L9.0668864,11.3924268 L9.0668864,10.6255937 L11.8772886,10.6255937 C12.1579283,10.6255937 12.3938102,10.4745398 12.5461833,10.2569348 C12.6452003,10.1151802 12.715635,9.95050073 12.715635,9.76220895 C12.715635,9.2855562 12.3407289,8.89894549 11.8772886,8.89894549 L10.1841451,8.89894549 L9.0668864,8.89894549 L9.0668864,6.29803634 C9.0668864,5.58271354 8.5518567,4.57142857 7.39086088,4.57142857 C6.46492245,4.57142857 5.71428571,5.34456911 5.71428571,6.29803634 L5.71428571,11.9331239 C5.71428571,12.9058367 6.47999879,13.6943819 7.42458634,13.6943819 L10.4973718,13.6943819 L11.6470996,13.6943819 L13.8859358,18.2274955 C14.0826741,18.6267614 14.4752871,18.8571429 14.8827409,18.8571429 C15.0535275,18.8571429 15.2267091,18.8169535 15.3885441,18.731642 C15.9395372,18.443847 16.1583797,17.7504384 15.8777399,17.1838245 Z" id="XMLID_29_"></path>
                            </g>
                        </g>
                        <g id="Group-3">
                            <circle id="Oval" stroke="#979797" stroke-width="0.5" fill="#9F9F9F" cx="10" cy="10" r="9.75"></circle>
                            <text id="WC" font-family="PTSans-Bold, PT Sans" font-size="10" font-weight="bold" letter-spacing="0.183333333" fill="#FFFFFF">
                                <tspan x="3" y="13">WC</tspan>
                            </text>
                        </g>
                    </g>
                </g>
            </g>
        </g>
    </g>
</svg>