<?xml version="1.0" encoding="UTF-8"?>
<svg width="137px" height="107px" viewBox="0 0 137 107" version="1.1" xmlns="http://www.w3.org/2000/svg" xmlns:xlink="http://www.w3.org/1999/xlink">
    <title>icon_unterlagen</title>
    <defs>
        <rect id="path-1" x="0" y="0" width="59.4" height="73.8" rx="3.6"></rect>
    </defs>
    <g id="icon_unterlagen" stroke="none" stroke-width="1" fill="none" fill-rule="evenodd">
        <g id="Group-5-Copy-2" transform="translate(23.000000, 0.000000)">
            <rect id="Rectangle" fill-opacity="0.2" fill="#1B1B1B" transform="translate(71.500000, 47.000000) rotate(-7.000000) translate(-71.500000, -47.000000) " x="42" y="10" width="59" height="74" rx="3.6"></rect>
            <g id="Rectangle" transform="translate(69.000000, 44.000000) rotate(-7.000000) translate(-69.000000, -44.000000) translate(39.000000, 7.000000)">
                <mask id="mask-2" fill="white">
                    <use xlink:href="#path-1"></use>
                </mask>
                <rect stroke="#1B1B1B" stroke-width="1.5" x="0.75" y="0.75" width="57.9" height="72.3" rx="3.6"></rect>
                <rect fill-opacity="0.2" fill="#1B1B1B" mask="url(#mask-2)" transform="translate(32.400000, 39.600000) rotate(-9.000000) translate(-32.400000, -39.600000) " x="2.7" y="2.7" width="59.4" height="73.8" rx="3.6"></rect>
            </g>
            <rect id="Rectangle" stroke="#1B1B1B" stroke-width="1.5" fill="#CCEFF0" transform="translate(68.500000, 44.000000) rotate(-16.000000) translate(-68.500000, -44.000000) " x="39.75" y="7.75" width="57.5" height="72.5" rx="3.6"></rect>
            <g id="Group-12" transform="translate(72.500000, 19.000000) rotate(-53.000000) translate(-72.500000, -19.000000) translate(62.000000, 7.000000)" stroke="#242424">
                <rect id="Rectangle" stroke-width="1.5" fill="#FFFFFF" x="0.75" y="0.75" width="19.0714286" height="22.5" rx="2.4742268"></rect>
                <circle id="Oval" stroke-width="1.3125" fill="#00ADB2" cx="9.5" cy="12.5" r="3.5"></circle>
                <path d="M10.1148748,16.5025773 C12.0719686,16.5025773 13.6584722,17.0836694 14.8577102,18.2829074 C15.9496892,19.3748864 16.7179574,20.9544842 17.1945211,23.0025773 L17.1945211,23.0025773 L3.0352285,23.0025773 C3.5117922,20.9544842 4.28006044,19.3748864 5.37203939,18.2829074 C6.57127741,17.0836694 8.15778105,16.5025773 10.1148748,16.5025773 Z" id="Oval" stroke-width="1.5" fill="#00ADB2"></path>
            </g>
            <g id="Group-3" transform="translate(0.000000, 17.928101)" stroke="#1B1B1B" stroke-width="1.5">
                <path d="M33.7311368,21.8491506 C32.4117902,15.832394 34.350989,11.6298995 39.5487331,9.24166694 L34.4582216,2.39010797 C33.5796748,-0.0938332318 33.9941679,-1.87383409 35.7017009,-2.94989461 C37.492074,-4.07815968 39.5967531,-3.52952418 42.0157382,-1.30398811 C43.595741,0.282004146 45.3427799,2.73149231 47.256855,6.04447639 C50.1279676,11.0139525 49.8226045,11.2354467 49.8226045,17.6726253 C49.7262816,19.5250233 49.0829065,21.3167924 47.8924793,23.0479328 C46.7020521,24.7790731 45.8207266,25.9153496 45.2485027,26.4567622 L45.2485027,35.9044435 L23.2974238,35.9044435 L23.2974238,27.9817163 C21.5479342,24.2900707 20.5109948,21.5608482 20.1866058,19.7940488 C19.9703464,18.6161825 19.7184208,16.104737 19.4308291,12.2597121" id="Path" fill="#FFFFFF" stroke-linejoin="round" transform="translate(34.631414, 16.192601) scale(-1, 1) rotate(-450.000000) translate(-34.631414, -16.192601) "></path>
                <rect id="Rectangle-Copy-7" fill="#CCEFF0" transform="translate(9.662437, 16.621729) scale(-1, 1) rotate(-720.000000) translate(-9.662437, -16.621729) " x="0.75" y="4.31716079" width="17.8248731" height="24.6091371" rx="2.46700508"></rect>
                <circle id="Oval-Copy-11" fill="#00ADB2" transform="translate(11.923858, 11.275283) scale(-1, 1) rotate(-720.000000) translate(-11.923858, -11.275283) " cx="11.9238579" cy="11.2752826" r="1.71700508"></circle>
            </g>
            <path d="M64.4739398,7.47455518 C64.0933891,6.21200052 64.589942,5.58072319 65.9635985,5.58072319 C67.337255,5.58072319 67.9508832,6.20272911 67.8044832,7.44674097 L67.8044832,13.8213632 C67.7063781,15.0222683 66.8032342,15.6227209 65.0950516,15.6227209 C63.3868689,15.6227209 62.4012533,15.0222683 62.1382047,13.8213632 L62.1382047,6.5688657 C62.3788556,4.1896219 63.7502585,3 66.2524134,3 C68.7545682,3 70.0498694,4.1896219 70.1383168,6.5688657 L70.1104218,7.47455518" id="Path-7" stroke="#1B1B1B" stroke-width="1.5" transform="translate(66.138261, 9.311360) rotate(-19.000000) translate(-66.138261, -9.311360) "></path>
        </g>
    </g>
</svg>