<?xml version="1.0" encoding="UTF-8"?>
<svg width="208px" height="166px" viewBox="0 0 208 166" version="1.1" xmlns="http://www.w3.org/2000/svg" xmlns:xlink="http://www.w3.org/1999/xlink">
    <title>icon_arzttermin</title>
    <g id="icon_arzttermin" stroke="none" stroke-width="1" fill="none" fill-rule="evenodd">
        <g id="Group" transform="translate(46.000000, 40.000000)" stroke-width="1.5">
            <g id="Group-3">
                <g id="Group-2" transform="translate(36.000000, 28.333333)" stroke="#242424">
                    <path d="M15.0961538,65.1346154 C15.0961538,65.6103868 14.9734626,65.8844253 14.7750978,66.0827901 C14.576733,66.281155 14.3026945,66.4038462 14,66.4038462 L14,66.4038462 L9.38461538,66.4038462 C9.08192086,66.4038462 8.8078824,66.281155 8.60951757,66.0827901 C8.41115274,65.8844253 8.28846154,65.6103868 8.28846154,65.3076923 L8.28846154,65.3076923 Z" id="Rectangle" fill="#9F9F9F"></path>
                    <path d="M56.25,5.31410256 L56.25,15.025641 C56.25,15.9231037 55.8862314,16.7356037 55.298097,17.3237381 C54.7099627,17.9118724 53.8974627,18.275641 53,18.275641 L53,18.275641 L27,18.275641 C26.1025373,18.275641 25.2900373,17.9118724 24.701903,17.3237381 C24.1137686,16.7356037 23.75,15.9231037 23.75,15.025641 L23.75,15.025641 L23.75,5.31410256 L56.25,5.31410256 Z" id="Rectangle-Copy-4" transform="translate(40.000000, 11.794872) rotate(-180.000000) translate(-40.000000, -11.794872) "></path>
                    <path d="M59.25,2.23717949 L59.25,12.2564103 C59.25,13.9185749 58.5762746,15.4233826 57.4870081,16.5126492 C56.3977416,17.6019157 54.8929339,18.275641 53.2307692,18.275641 L53.2307692,18.275641 L26.7692308,18.275641 C25.1070661,18.275641 23.6022584,17.6019157 22.5129919,16.5126492 C21.4237254,15.4233826 20.75,13.9185749 20.75,12.2564103 L20.75,12.2564103 L20.75,2.23717949 L59.25,2.23717949 Z" id="Rectangle-Copy-4" transform="translate(40.000000, 10.256410) rotate(-180.000000) translate(-40.000000, -10.256410) "></path>
                    <rect id="Rectangle" fill="#00ADB2" x="33.75" y="1.41666667" width="12.5" height="4.5" rx="1.33333333"></rect>
                    <path d="M71.7115385,65.1346154 C71.7115385,65.6103868 71.5888473,65.8844253 71.3904824,66.0827901 C71.1921176,66.281155 70.9180791,66.4038462 70.6153846,66.4038462 L70.6153846,66.4038462 L66,66.4038462 C65.6973055,66.4038462 65.423267,66.281155 65.2249022,66.0827901 C65.0265374,65.8844253 64.9038462,65.6103868 64.9038462,65.3076923 L64.9038462,65.3076923 Z" id="Rectangle-Copy-2" fill="#9F9F9F"></path>
                    <path d="M80,40.1721736 L80,54.5128205 C80,59.9507011 75.5917268,64.3589744 70.1538462,64.3589744 L9.84615385,64.3589744 C4.40827323,64.3589744 0,59.9507011 0,54.5128205 L0,21.5897436 C0,16.151863 4.40827323,11.7435897 9.84615385,11.7435897 L70.1538462,11.7435897 C75.5917268,11.7435897 80,16.151863 80,21.5897436 L80,28.6201215 M80,32.5516672 L80,35.9048791" id="Shape" fill="#FFFFFF" stroke-linecap="round" stroke-linejoin="round"></path>
                    <path d="M45.4038462,11.7666667 L45.4038462,14.1705128 C45.4038462,14.4732073 45.281155,14.7472458 45.0827901,14.9456106 C44.8844253,15.1439755 44.6103868,15.2666667 44.3076923,15.2666667 L44.3076923,15.2666667 L36,15.2666667 C35.6973055,15.2666667 35.423267,15.1439755 35.2249022,14.9456106 C35.0265374,14.7472458 34.9038462,14.4732073 34.9038462,14.1705128 L34.9038462,14.1705128 L34.9038462,11.7666667 L45.4038462,11.7666667 Z" id="Rectangle-Copy-3" fill="#00ADB2"></path>
                    <circle id="Oval" fill="#F8F8F8" cx="40" cy="37.8974359" r="15.25"></circle>
                    <path d="M42.0125078,28.8012821 L42.4927893,35.7112069 L48.9230769,35.7118512 L49.4038462,39.9099437 L42.4927893,40.3902252 L42.493277,46.8205128 L38.2951845,47.3012821 L37.813771,40.3902252 L31.3846154,40.3907129 L30.9038462,36.1926204 L37.813771,35.7112069 L37.8144153,29.2820513 L42.0125078,28.8012821 Z" id="Combined-Shape" fill="#00ADB2"></path>
                </g>
                <g id="Group" opacity="0.766415551" style="mix-blend-mode: multiply;" transform="translate(3.000000, 1.000000)" stroke="#C8C8C8">
                    <path d="M63.8196916,3.67734282 L63.8196916,24.6547047 C63.8196916,27.3513244 61.6888176,29.5373665 59.0602513,29.5373665 C55.3761644,29.5373665 52.6130992,29.5373665 50.7710558,29.5373665 M36.5361803,29.5373665 C34.963404,29.5373665 32.4093612,29.5373665 28.8740519,29.5373665 C26.2922512,29.5373665 24.1992883,27.3513244 24.1992883,24.6547047 L24.1992883,3.67734282" id="Shape" transform="translate(44.009490, 16.607355) rotate(-180.000000) translate(-44.009490, -16.607355) "></path>
                    <path d="M56.7826216,1.93623962 L56.7826216,4.98220641 C56.7826216,5.16818486 56.7072389,5.33655674 56.5853617,5.45843402 C56.4634844,5.58031129 56.2951125,5.65569395 56.109134,5.65569395 L56.109134,5.65569395 L51.6014235,5.65569395 C51.415445,5.65569395 51.2470732,5.58031129 51.1251959,5.45843402 C51.0033186,5.33655674 50.9279359,5.16818486 50.9279359,4.98220641 L50.9279359,4.98220641 L50.9279359,1.93623962 L56.7826216,1.93623962 Z" id="Rectangle-Copy" fill="#C8C8C8" transform="translate(53.855279, 3.795967) rotate(-90.000000) translate(-53.855279, -3.795967) "></path>
                    <path d="M37.8027877,1.93623962 L37.8027877,4.98220641 C37.8027877,5.16818486 37.727405,5.33655674 37.6055277,5.45843402 C37.4836505,5.58031129 37.3152786,5.65569395 37.1293001,5.65569395 L37.1293001,5.65569395 L32.6215896,5.65569395 C32.4356111,5.65569395 32.2672392,5.58031129 32.145362,5.45843402 C32.0234847,5.33655674 31.948102,5.16818486 31.948102,4.98220641 L31.948102,4.98220641 L31.948102,1.93623962 L37.8027877,1.93623962 Z" id="Rectangle-Copy-5" fill="#C8C8C8" transform="translate(34.875445, 3.795967) rotate(-270.000000) translate(-34.875445, -3.795967) "></path>
                    <path d="M66.6666667,17.4377224 C66.6666667,34.0783305 56.5758129,47.5682088 44.1281139,47.5682088 C31.6804149,47.5682088 21.5895611,34.0783305 21.5895611,17.4377224 L27.7665359,17.4362699 C27.7608645,17.6730713 27.7580071,17.9108226 27.7580071,18.1494662 C27.7580071,30.2358026 35.0871536,40.0337142 44.1281139,40.0337142 C53.1690742,40.0337142 60.4982206,30.2358026 60.4982206,18.1494662 C60.4982206,17.9108226 60.4953633,17.6730713 60.4896918,17.4362699 L66.6666667,17.4377224 L66.6666667,17.4377224 Z" id="Combined-Shape" fill="#C8C8C8" stroke-linejoin="round"></path>
                    <path d="M6.16844603,41.6752669 C7.66470858,41.6752669 9.01932009,42.2817471 9.99986595,43.262293 C10.9804118,44.2428389 11.5868921,45.5974504 11.5868921,47.0937129 C11.5868921,48.5899755 10.9804118,49.944587 9.99986595,50.9251329 C9.01932009,51.9056787 7.66470858,52.512159 6.16844603,52.512159 C4.67218347,52.512159 3.31757197,51.9056787 2.3370261,50.9251329 C1.35648023,49.944587 0.75,48.5899755 0.75,47.0937129 C0.75,45.5974504 1.35648023,44.2428389 2.3370261,43.262293 C3.31757197,42.2817471 4.67218347,41.6752669 6.16844603,41.6752669 Z M6.16844603,44.4457295 C5.4372256,44.4457295 4.77522976,44.7421152 4.29603901,45.2213059 C3.81684827,45.7004967 3.52046263,46.3624925 3.52046263,47.0937129 C3.52046263,47.8249334 3.81684827,48.4869292 4.29603901,48.9661199 C4.77522976,49.4453107 5.4372256,49.7416963 6.16844603,49.7416963 C6.89966645,49.7416963 7.5616623,49.4453107 8.04085304,48.9661199 C8.52004378,48.4869292 8.81642942,47.8249334 8.81642942,47.0937129 C8.81642942,46.3624925 8.52004378,45.7004967 8.04085304,45.2213059 C7.5616623,44.7421152 6.89966645,44.4457295 6.16844603,44.4457295 Z" id="Combined-Shape" fill="#C8C8C8"></path>
                    <path d="M23.0130486,53.8045426 L23.0130486,78.7565533 C23.0130486,83.4134508 19.2422559,87.1886121 14.5907473,87.1886121 C9.93923876,87.1886121 6.16844603,83.4134508 6.16844603,78.7565533 C6.16844603,76.5889222 6.16844603,74.715149 6.16844603,73.1352337 M6.16844603,69.7624912 C6.16844603,68.0112403 6.16844603,65.841787 6.16844603,63.2541313 M6.16844603,59.8029984 C6.16844603,58.5497031 6.16844603,56.3694233 6.16844603,53.262159 M44.1281139,52.3164262 L44.1281139,61.601586 C44.1281139,64.464467 41.7912846,66.7852906 38.9086595,66.7852906 C36.0260345,66.7852906 33.6892052,64.464467 33.6892052,61.601586 L33.6892052,53.7366548 M23.0130486,53.262159 C23.0130486,50.3795339 25.4029877,48.0427046 28.3511269,48.0427046 C31.2992662,48.0427046 33.6892052,50.3795339 33.6892052,53.262159 L33.6892052,53.262159" id="Shape" stroke-linecap="round" stroke-linejoin="round"></path>
                    <circle id="Oval" fill="#C8C8C8" cx="44.1281139" cy="48.5172005" r="3.99495848"></circle>
                </g>
                <g id="Group" stroke="#242424">
                    <path d="M63.8196916,3.67734282 L63.8196916,24.6547047 C63.8196916,27.3513244 61.6888176,29.5373665 59.0602513,29.5373665 C55.3761644,29.5373665 52.6130992,29.5373665 50.7710558,29.5373665 M36.5361803,29.5373665 C34.963404,29.5373665 32.4093612,29.5373665 28.8740519,29.5373665 C26.2922512,29.5373665 24.1992883,27.3513244 24.1992883,24.6547047 L24.1992883,3.67734282" id="Shape" transform="translate(44.009490, 16.607355) rotate(-180.000000) translate(-44.009490, -16.607355) "></path>
                    <path d="M56.7826216,1.93623962 L56.7826216,4.98220641 C56.7826216,5.16818486 56.7072389,5.33655674 56.5853617,5.45843402 C56.4634844,5.58031129 56.2951125,5.65569395 56.109134,5.65569395 L56.109134,5.65569395 L51.6014235,5.65569395 C51.415445,5.65569395 51.2470732,5.58031129 51.1251959,5.45843402 C51.0033186,5.33655674 50.9279359,5.16818486 50.9279359,4.98220641 L50.9279359,4.98220641 L50.9279359,1.93623962 L56.7826216,1.93623962 Z" id="Rectangle-Copy" fill="#FFFFFF" transform="translate(53.855279, 3.795967) rotate(-90.000000) translate(-53.855279, -3.795967) "></path>
                    <path d="M37.8027877,1.93623962 L37.8027877,4.98220641 C37.8027877,5.16818486 37.727405,5.33655674 37.6055277,5.45843402 C37.4836505,5.58031129 37.3152786,5.65569395 37.1293001,5.65569395 L37.1293001,5.65569395 L32.6215896,5.65569395 C32.4356111,5.65569395 32.2672392,5.58031129 32.145362,5.45843402 C32.0234847,5.33655674 31.948102,5.16818486 31.948102,4.98220641 L31.948102,4.98220641 L31.948102,1.93623962 L37.8027877,1.93623962 Z" id="Rectangle-Copy-5" fill="#FFFFFF" transform="translate(34.875445, 3.795967) rotate(-270.000000) translate(-34.875445, -3.795967) "></path>
                    <path d="M66.6666667,17.4377224 C66.6666667,34.0783305 56.5758129,47.5682088 44.1281139,47.5682088 C31.6804149,47.5682088 21.5895611,34.0783305 21.5895611,17.4377224 L27.7665359,17.4362699 C27.7608645,17.6730713 27.7580071,17.9108226 27.7580071,18.1494662 C27.7580071,30.2358026 35.0871536,40.0337142 44.1281139,40.0337142 C53.1690742,40.0337142 60.4982206,30.2358026 60.4982206,18.1494662 C60.4982206,17.9108226 60.4953633,17.6730713 60.4896918,17.4362699 L66.6666667,17.4377224 L66.6666667,17.4377224 Z" id="Combined-Shape" fill="#66CED1" stroke-linejoin="round"></path>
                    <path d="M6.16844603,41.6752669 C7.66470858,41.6752669 9.01932009,42.2817471 9.99986595,43.262293 C10.9804118,44.2428389 11.5868921,45.5974504 11.5868921,47.0937129 C11.5868921,48.5899755 10.9804118,49.944587 9.99986595,50.9251329 C9.01932009,51.9056787 7.66470858,52.512159 6.16844603,52.512159 C4.67218347,52.512159 3.31757197,51.9056787 2.3370261,50.9251329 C1.35648023,49.944587 0.75,48.5899755 0.75,47.0937129 C0.75,45.5974504 1.35648023,44.2428389 2.3370261,43.262293 C3.31757197,42.2817471 4.67218347,41.6752669 6.16844603,41.6752669 Z M6.16844603,44.4457295 C5.4372256,44.4457295 4.77522976,44.7421152 4.29603901,45.2213059 C3.81684827,45.7004967 3.52046263,46.3624925 3.52046263,47.0937129 C3.52046263,47.8249334 3.81684827,48.4869292 4.29603901,48.9661199 C4.77522976,49.4453107 5.4372256,49.7416963 6.16844603,49.7416963 C6.89966645,49.7416963 7.5616623,49.4453107 8.04085304,48.9661199 C8.52004378,48.4869292 8.81642942,47.8249334 8.81642942,47.0937129 C8.81642942,46.3624925 8.52004378,45.7004967 8.04085304,45.2213059 C7.5616623,44.7421152 6.89966645,44.4457295 6.16844603,44.4457295 Z" id="Combined-Shape" fill="#00ADB2"></path>
                    <path d="M23.0130486,53.8045426 L23.0130486,78.7565533 C23.0130486,83.4134508 19.2422559,87.1886121 14.5907473,87.1886121 C9.93923876,87.1886121 6.16844603,83.4134508 6.16844603,78.7565533 C6.16844603,76.5889222 6.16844603,74.715149 6.16844603,73.1352337 M6.16844603,69.7624912 C6.16844603,68.0112403 6.16844603,65.841787 6.16844603,63.2541313 M6.16844603,59.8029984 C6.16844603,58.5497031 6.16844603,56.3694233 6.16844603,53.262159 M44.1281139,52.3164262 L44.1281139,61.601586 C44.1281139,64.464467 41.7912846,66.7852906 38.9086595,66.7852906 C36.0260345,66.7852906 33.6892052,64.464467 33.6892052,61.601586 L33.6892052,53.7366548 M23.0130486,53.262159 C23.0130486,50.3795339 25.4029877,48.0427046 28.3511269,48.0427046 C31.2992662,48.0427046 33.6892052,50.3795339 33.6892052,53.262159 L33.6892052,53.262159" id="Shape" stroke-linecap="round" stroke-linejoin="round"></path>
                    <circle id="Oval" fill="#66CED1" cx="44.1281139" cy="48.5172005" r="3.99495848"></circle>
                </g>
            </g>
        </g>
    </g>
</svg>