<?xml version="1.0" encoding="UTF-8"?>
<svg width="100px" height="78px" viewBox="0 0 100 78" version="1.1" xmlns="http://www.w3.org/2000/svg" xmlns:xlink="http://www.w3.org/1999/xlink">
    <title>icon_fachwoerte</title>
    <g id="01_Design" stroke="none" stroke-width="1" fill="none" fill-rule="evenodd">
        <g id="01_all-services" transform="translate(-194.000000, -1320.000000)">
            <g id="fachwoerter_erklaeren" transform="translate(140.000000, 1279.000000)">
                <g id="Group-38" transform="translate(54.000000, 42.000000)">
                    <path d="M45.9745763,6.4420904 C46.8790596,6.4420904 47.6979155,6.80870468 48.2906506,7.40143979 C48.8833857,7.9941749 49.25,8.81303084 49.25,9.71751412 L49.25,9.71751412 L50.75,9.71751412 C50.75,8.81303084 51.1166143,7.9941749 51.7093494,7.40143979 C52.3020845,6.80870468 53.1209404,6.4420904 54.0254237,6.4420904 L54.0254237,6.4420904 L95.9745763,6.4420904 C96.8790596,6.4420904 97.6979155,6.80870468 98.2906506,7.40143979 C98.8833857,7.9941749 99.25,8.81303084 99.25,9.71751412 L99.25,9.71751412 L99.25,68.1920904 C99.25,69.0965737 98.8833857,69.9154296 98.2906506,70.5081647 C97.6979155,71.1008998 96.8790596,71.4675141 95.9745858,71.4675141 L95.9745858,71.4675141 L57.2272539,71.4670227 C57.471512,72.7472984 57.0788577,73.9124745 56.314933,74.6963309 C55.7036541,75.3235588 54.856039,75.7048023 53.9194915,75.7048023 L53.9194915,75.7048023 L46.0805085,75.7048023 C45.1467728,75.7048023 44.3014338,75.3263311 43.6895288,74.714426 C42.9176888,73.9425861 42.5172561,72.7993388 42.7793085,71.5757622 L42.7793085,71.5757622 L4.02542373,71.4675141 C3.12094044,71.4675141 2.30208451,71.1008998 1.7093494,70.5081647 C1.11661429,69.9154296 0.75,69.0965737 0.75,68.1920904 L0.75,68.1920904 L0.75,9.71751412 C0.75,8.81303084 1.11661429,7.9941749 1.7093494,7.40143979 C2.30208451,6.80870468 3.12094044,6.4420904 4.02542373,6.4420904 L4.02542373,6.4420904 Z" id="Combined-Shape" stroke="#242424" stroke-width="1.5" fill="#D8D8D8"></path>
                    <g id="Group-37" transform="translate(8.160609, 0.000000)" fill="#F8F8F8" stroke="#242424" stroke-width="1.5">
                        <path d="M41.8393915,4.43184836 C36.4362726,1.47728279 31.8587662,9.63447777e-14 28.1068723,9.63447777e-14 C19.7266154,9.63447777e-14 11.3463586,9.63447777e-14 2.96610169,9.63447777e-14 C1.32796896,9.7089787e-14 2.46392186e-15,1.32796896 0,2.96610169 L0,64.4691898 C7.30604076e-15,66.1073226 1.32796896,67.4352915 2.96610169,67.4352915 L24.6783745,67.4352915 L24.6783745,67.4352915 C28.5163806,67.609998 31.4891953,68.0112017 33.5968188,68.6389027 C35.7044423,69.2666037 38.4519665,70.5690545 41.8393915,72.5462551 L41.8393915,4.43184836 Z" id="Path-6"></path>
                        <path d="M42.3393915,41.8069948 L42.3393915,64.4691898 C42.3393915,66.1073226 43.6673604,67.4352915 45.3054932,67.4352915 L67.017766,67.4352915 C70.855772,67.609998 73.8285868,68.0112017 75.9362103,68.6389027 C78.0438337,69.2666037 80.7913579,70.5690545 84.1787829,72.5462551 L84.1787829,4.43184836 C78.7756641,1.47728279 74.1981577,9.9475983e-14 70.4462638,9.9475983e-14 C62.0660069,9.9475983e-14 53.68575,9.9475983e-14 45.3054932,9.9475983e-14 C43.6673604,9.9475983e-14 42.3393915,1.32796896 42.3393915,2.96610169 L42.3393915,20.4747205 L42.3393915,25.9690076 M42.3393915,33.2075764 L42.3393915,36.1743063" id="Shape" stroke-linecap="round" stroke-linejoin="round" transform="translate(63.009087, 36.273128) scale(-1, 1) translate(-63.009087, -36.273128) "></path>
                    </g>
                    <g id="icon_leichte_sprache" transform="translate(27.000000, 14.000000)">
                        <g id="Group-18" transform="translate(18.028617, 14.165342)">
                            <path d="M7.37307452,1.23239284 C9.04211276,0.442071037 10.9082225,0 12.8775835,0 C19.9896764,0 25.7551669,5.7654905 25.7551669,12.8775835 C25.7551669,19.9896764 19.9896764,25.7551669 12.8775835,25.7551669 C10.3726478,25.7551669 8.03475873,25.0399553 6.05698437,23.8026001 L0.487647888,25.267519 L1.95256683,19.6981826 C0.715211635,17.7204082 0,15.3825191 0,12.8775835 C0,10.6010467 0.590732339,8.46248288 1.62727154,6.60681745 M3.83509214,3.70885638 C4.00050479,3.54570703 4.17031084,3.38700065 4.34431677,3.23293076" id="Shape-Copy" stroke="#242424" stroke-width="1.5" fill="#66CED1" stroke-linecap="round" stroke-linejoin="round" transform="translate(12.877583, 12.877583) scale(-1, 1) translate(-12.877583, -12.877583) "></path>
                            <text id="A" font-family="PTSans-Bold, PT Sans" font-size="18.4615385" font-weight="bold" letter-spacing="0.65934062" fill="#242424">
                                <tspan x="7.35599853" y="20.1423505">A</tspan>
                            </text>
                        </g>
                        <g id="Group-17" transform="translate(0.000000, 3.863275)">
                            <path d="M7.37307452,1.23239284 C9.04211276,0.442071037 10.9082225,0 12.8775835,0 C19.9896764,0 25.7551669,5.7654905 25.7551669,12.8775835 C25.7551669,19.9896764 19.9896764,25.7551669 12.8775835,25.7551669 C10.3726478,25.7551669 8.03475873,25.0399553 6.05698437,23.8026001 L0.487647888,25.267519 L1.95256683,19.6981826 C0.715211635,17.7204082 0,15.3825191 0,12.8775835 C0,10.6121639 0.584976899,8.48337296 1.61211805,6.63402337 M3.83509214,3.70885638 C4.00466944,3.54159937 4.17886416,3.37901186 4.35746777,3.22130237" id="Shape" stroke="#242424" stroke-width="1.5" fill="#FFFFFF" stroke-linecap="round" stroke-linejoin="round"></path>
                            <text id="ยง" font-family="PTSans-Bold, PT Sans" font-size="18.4615385" font-weight="bold" letter-spacing="0.65934062" fill="#242424">
                                <tspan x="7.72655008" y="20.0598019">ยง</tspan>
                            </text>
                        </g>
                    </g>
                </g>
            </g>
        </g>
    </g>
</svg>