<?xml version="1.0" encoding="UTF-8"?>
<svg width="208px" height="166px" viewBox="0 0 208 166" version="1.1" xmlns="http://www.w3.org/2000/svg" xmlns:xlink="http://www.w3.org/1999/xlink">
    <title>icon_kita_beantragen</title>
    <g id="icon_kita_beantragen" stroke="none" stroke-width="1" fill="none" fill-rule="evenodd">
        <g id="Group-6" transform="translate(42.000000, 33.000000)">
            <g id="icon_kita" transform="translate(13.000000, 0.000000)">
                <path d="M45.5005243,0.63 L81.3087409,32.6312643 L81.5442536,74.7223077 C80.9750476,80.8966667 78.2355757,83.9838462 73.3258378,83.9838462 C68.4160998,83.9838462 50.3427331,83.9838462 19.1057374,83.9838462 C12.5070407,83.1605983 9.20769231,80.0734188 9.20769231,74.7223077 C9.20769231,69.3711966 9.20769231,55.5980738 9.20769231,33.4029394 L45.5005243,0.63 Z" id="Path-2" fill="#F8F8F8"></path>
                <path d="M81.3087409,71.3106876 L81.3087409,75.2241484 C81.3087409,80.0619959 76.8772352,83.9838462 71.4106958,83.9838462 L18.621122,83.9838462 C13.1545827,83.9838462 8.72307692,80.0619959 8.72307692,75.2241484 L8.72307692,35.2931111 M81.4996027,33.7188452 L81.3087409,58.2126853 M81.4153846,62.6607692 L81.4153846,66.5376923" id="Shape" stroke="#242424" stroke-width="1.5" stroke-linecap="round" stroke-linejoin="round"></path>
                <polyline id="Path" stroke="#242424" stroke-width="1.5" stroke-linecap="round" stroke-linejoin="round" points="0.969230769 41.6123077 45.5538462 0 90.1384615 41.6123077"></polyline>
                <g id="icon_baby_l" transform="translate(49.072854, 2.190000)">
                    <path d="M32.4661042,5.37454094 C41.4836373,5.37454094 49.165866,11.0916585 52.085867,19.0989702 C52.4939436,19.0273791 52.9143237,18.9901657 53.3433955,18.9901657 C57.3539032,18.9901657 60.605062,22.2413245 60.605062,26.2518322 C60.605062,30.2623399 57.3539032,33.5134988 53.3433955,33.5134988 C52.9143237,33.5134988 52.4939436,33.4762854 52.0853066,33.40491 C50.0725549,38.9261174 45.7943201,43.3589869 40.3751924,45.5789411 C38.8503561,46.2456001 37.2938805,46.6801734 35.7057657,46.8826612 L35.5951464,46.8945409 L35.5137425,46.908273 L35.5137425,46.908273 L35.1002484,46.9645341 L35.4081464,46.9155409 L35.228382,46.936445 L35.228382,46.936445 L34.7491,46.9763036 C33.2461116,47.0792589 31.0389456,46.9797326 28.1276021,46.6777246 C21.0432494,45.1804214 15.2842527,40.0906975 12.846105,33.4040458 C12.4382648,33.4762854 12.0178847,33.5134988 11.5888129,33.5134988 C7.57830525,33.5134988 4.3271464,30.2623399 4.3271464,26.2518322 C4.3271464,22.2413245 7.57830525,18.9901657 11.5888129,18.9901657 C12.0178847,18.9901657 12.4382648,19.0273791 12.8469019,19.0987545 C15.7663424,11.0916585 23.4485711,5.37454094 32.4661042,5.37454094 Z" id="Combined-Shape" fill-opacity="0.1" fill="#000000"></path>
                    <g id="Group-Copy" transform="translate(0.000000, 2.813896)" stroke="#242424">
                        <circle id="Oval-Copy" stroke-width="1.5" fill="#FFFFFF" cx="7.26166653" cy="20.8772913" r="6.51166653"></circle>
                        <circle id="Oval-Copy-2" stroke-width="1.5" fill="#FFFFFF" cx="49.0162491" cy="20.8772913" r="6.51166653"></circle>
                        <path d="M30.773102,41.5899932 C31.1878726,41.5377746 31.5988547,41.4733876 32.0056795,41.397201 M36.048046,40.2044001 C43.6566708,37.087515 49.0162491,29.6083014 49.0162491,20.8772913 C49.0162491,9.34708169 39.6691674,0 28.1389578,0 C16.6087482,0 7.26166653,9.34708169 7.26166653,20.8772913 C7.26166653,30.9198636 14.3524067,39.3063048 23.8004557,41.3031837" id="Shape" stroke-width="1.5" fill="#FFFFFF" stroke-linecap="round" stroke-linejoin="round"></path>
                        <circle id="Oval-Copy-6" stroke-width="1.81541663" cx="20.8772913" cy="19.969583" r="1"></circle>
                        <circle id="Oval-Copy-7" stroke-width="1.81541663" cx="35.4006243" cy="19.969583" r="1"></circle>
                        <circle id="Oval-Copy-4" stroke-width="1.5" fill="#66CED1" cx="32.6774994" cy="30.8620828" r="4.6962499"></circle>
                        <circle id="Oval-Copy-5" stroke-width="1.5" fill="#66CED1" cx="23.6004162" cy="30.8620828" r="4.6962499"></circle>
                        <circle id="Oval-Copy-3" stroke-width="1.5" fill="#66CED1" cx="28.1389578" cy="30.8620828" r="3.78854158"></circle>
                    </g>
                    <g id="Group-4" transform="translate(7.566253, 0.000000)" fill="#CCEFF0" stroke="#242424" stroke-width="1.5">
                        <path d="M2.79053868,12.9481953 C-0.685786511,12.0441784 -0.937252152,3.11073236 2.79053868,1.19377397 C6.51832951,-0.72318442 17.971559,2.00259568 17.971559,5.14159203 C17.971559,8.28058838 6.26686387,13.8522123 2.79053868,12.9481953 Z" id="Path-3"></path>
                        <path d="M25.0785494,12.9481953 C21.5285511,12.0250198 21.1819092,3.19756049 25.0785494,1.19377397 C28.9751895,-0.810012554 40.2595697,1.97495703 40.2595697,5.14159203 C40.2595697,8.30822703 28.6285476,13.8713709 25.0785494,12.9481953 Z" id="Path-3-Copy" transform="translate(31.272059, 6.783743) scale(-1, 1) translate(-31.272059, -6.783743) "></path>
                        <circle id="Oval" cx="19.8970009" cy="4.77509587" r="4.02509587"></circle>
                    </g>
                </g>
                <g id="icon_baby_m" transform="translate(17.600000, 27.464541)">
                    <path d="M33.1789578,1.26 C42.1964909,1.26 49.8787196,6.97711758 52.7987206,14.9844293 C53.2067972,14.9128382 53.6271773,14.8756247 54.0562491,14.8756247 C58.0667568,14.8756247 61.3179156,18.1267836 61.3179156,22.1372913 C61.3179156,26.147799 58.0667568,29.3989578 54.0562491,29.3989578 C53.6271773,29.3989578 53.2067972,29.3617444 52.7981602,29.2903691 C50.7854085,34.8115765 46.5071737,39.2444459 41.088046,41.4644001 C39.0924053,42.3051246 37.1876426,42.8083236 35.3737579,42.9739969 C33.5598731,43.1396703 31.3821057,43.0027326 28.8404557,42.5631837 C21.756103,41.0658804 15.9971063,35.9761565 13.5589586,29.2895049 C13.1511184,29.3617444 12.7307383,29.3989578 12.3016665,29.3989578 C8.29115885,29.3989578 5.04,26.147799 5.04,22.1372913 C5.04,18.1267836 8.29115885,14.8756247 12.3016665,14.8756247 C12.7307383,14.8756247 13.1511184,14.9128382 13.5597555,14.9842135 C16.479196,6.97711758 24.1614247,1.26 33.1789578,1.26 Z" id="Combined-Shape" fill-opacity="0.1" fill="#000000"></path>
                    <circle id="Oval-Copy" stroke="#242424" stroke-width="1.5" fill="#FFFFFF" cx="7.26166653" cy="20.8772913" r="6.51166653"></circle>
                    <circle id="Oval-Copy-2" stroke="#242424" stroke-width="1.5" fill="#FFFFFF" cx="49.0162491" cy="20.8772913" r="6.51166653"></circle>
                    <path d="M30.773102,41.5899932 C31.1878726,41.5377746 31.5988547,41.4733876 32.0056795,41.397201 M36.048046,40.2044001 C43.6566708,37.087515 49.0162491,29.6083014 49.0162491,20.8772913 C49.0162491,9.34708169 39.6691674,0 28.1389578,0 C16.6087482,0 7.26166653,9.34708169 7.26166653,20.8772913 C7.26166653,30.9198636 14.3524067,39.3063048 23.8004557,41.3031837" id="Shape" stroke="#242424" stroke-width="1.5" fill="#FFFFFF" stroke-linecap="round" stroke-linejoin="round"></path>
                    <path d="M28.1389578,0.907708317 C30.2264228,0.907708317 32.2391252,1.2278137 34.1305386,1.82189371 L34.464,1.931 L34.4604935,2.01955974 C34.375532,3.50369049 33.951123,4.62280026 33.2875605,5.53973504 L33.1417445,5.73318589 C32.2770432,6.83559774 31.0560849,7.64558932 29.6517846,7.98839063 C29.4510479,8.03739214 29.2492375,8.07619509 29.0471343,8.10509009 C29.0490277,8.28982097 29.0284367,8.4754739 28.9845553,8.65772104 C28.8770886,9.10404945 28.6359438,9.50498359 28.3005988,9.80930965 C28.2076665,9.89364584 28.1074572,9.97051616 28.0008069,10.0388354 L27.866,10.117 L27.9543933,9.96805113 C28.028712,9.83445882 28.0956611,9.69651217 28.1547758,9.55482411 L28.2375138,9.33956257 C28.3718438,8.95814148 28.4480007,8.56032638 28.4654947,8.16009971 C28.1391466,8.17752487 27.8081928,8.16974155 27.4750248,8.13517434 C25.8681293,7.96845395 24.4395513,7.20252907 23.4156197,6.06547472 C22.4018428,4.93969698 21.7849996,3.44957548 21.7849996,1.81541663 L21.787,1.94 L22.1466805,1.82274841 C23.8807449,1.27745233 25.7166424,0.962977873 27.618624,0.914352243 Z" id="Combined-Shape" stroke="#242424" stroke-width="1.81541663" fill="#242424"></path>
                    <circle id="Oval-Copy-6" stroke="#242424" stroke-width="1.81541663" cx="20.8772913" cy="19.969583" r="1"></circle>
                    <circle id="Oval-Copy-7" stroke="#242424" stroke-width="1.81541663" cx="35.4006243" cy="19.969583" r="1"></circle>
                    <circle id="Oval-Copy-4" stroke="#242424" stroke-width="1.5" fill="#66CED1" cx="32.6774994" cy="30.8620828" r="4.6962499"></circle>
                    <circle id="Oval-Copy-5" stroke="#242424" stroke-width="1.5" fill="#66CED1" cx="23.6004162" cy="30.8620828" r="4.6962499"></circle>
                    <circle id="Oval-Copy-3" stroke="#242424" stroke-width="1.5" fill="#66CED1" cx="28.1389578" cy="30.8620828" r="3.78854158"></circle>
                </g>
            </g>
            <g id="Group-19" transform="translate(40.500000, 84.500000) scale(-1, 1) translate(-40.500000, -84.500000) translate(0.000000, 70.000000)" stroke="#1B1B1B" stroke-width="1.5">
                <path d="M46.4627582,26.0433068 L25.3904231,26.0433068 C11.8264653,18.1949624 4.10261931,13.7260814 2.21888511,12.6366635 C-0.606716192,11.0025368 -0.200887887,7.87596789 0.553759508,6.57079507 C1.24576349,5.37396489 3.24961896,3.19638103 6.17279058,4.61889703 C9.02455374,6.00666322 14.3942376,8.67925205 22.2818422,12.6366635 C24.298396,12.6366635 26.0879583,12.6366635 27.6505289,12.6366635 C30.0647986,12.6366635 34.2454401,12.6366635 40.1924536,12.6366635 C35.0930383,12.6366635 31.3098282,12.6366635 28.8428231,12.6366635 C23.1158807,12.6366635 23.0614549,9.29898698 23.0614549,7.79186627 C23.0614549,6.28474556 23.3579011,3.2564934 30.006024,3.2564934 C35.317059,3.2564934 38.4384239,3.2564934 39.3701186,3.2564934 C42.8830504,1.0854978 46.7524002,0 50.9781679,0 C55.2039357,0 58.7678168,1.53963234 61.6698113,4.61889703 L61.6698113,26.0433068 L50.4716414,26.0433068" id="Path-2" fill="#FFFFFF" stroke-linecap="round" stroke-linejoin="round"></path>
                <rect id="Rectangle" fill="#CCEFF0" x="61.5131642" y="3.10747571" width="17.8248731" height="24.6091371" rx="2.46700508"></rect>
                <circle id="Oval" fill="#00ADB2" cx="68.1641795" cy="21.0655975" r="1.71700508"></circle>
            </g>
        </g>
    </g>
</svg>