<?xml version="1.0" encoding="UTF-8"?>
<svg width="102px" height="92px" viewBox="0 0 102 92" version="1.1" xmlns="http://www.w3.org/2000/svg" xmlns:xlink="http://www.w3.org/1999/xlink">
    <title>ICON Archivformulare</title>
    <defs>
        <path d="M13.0472992,33 L93.8493221,33 C96.0584611,33 97.8493221,34.790861 97.8493221,37 C97.8493221,37.292236 97.8172967,37.583592 97.7538193,37.8688507 L87.0725887,85.8688507 C86.6654537,87.6984605 85.042453,89 83.1680915,89 L9.32243152,89 C7.11329252,89 5.32243152,87.209139 5.32243152,85 C5.32243152,84.8967255 5.32643113,84.7934897 5.33442136,84.6905248 L9.05928908,36.6905248 C9.22092088,34.6076787 10.9581911,33 13.0472992,33 Z" id="path-1"></path>
    </defs>
    <g id="01_Design" stroke="none" stroke-width="1" fill="none" fill-rule="evenodd">
        <g id="03_Andere_dienstleistungen-Copy" transform="translate(-194.000000, -962.000000)">
            <g id="formular_button_off" transform="translate(140.000000, 926.000000)">
                <g id="ICON-Archivformulare" transform="translate(56.000000, 37.000000)">
                    <g id="Rectangle">
                        <use fill="#DEDEDE" fill-rule="evenodd" style="mix-blend-mode: multiply;" xlink:href="#path-1"></use>
                        <path stroke="#DEDEDE" stroke-width="1.5" d="M93.8493221,32.25 C95.1609984,32.25 96.3484984,32.7816619 97.2080793,33.6412428 C98.0676603,34.5008237 98.5993221,35.6883237 98.5993221,37 C98.5993221,37.3470303 98.5612919,37.6930155 98.4859125,38.0317602 L98.4859125,38.0317602 L87.804682,86.0317602 C87.5629455,87.1180911 86.960249,88.047651 86.139761,88.7056282 C85.319273,89.3636055 84.2809937,89.75 83.1680915,89.75 L83.1680915,89.75 L9.32243152,89.75 C8.01075524,89.75 6.82325524,89.2183381 5.96367431,88.3587572 C5.09750641,87.4925893 4.56430253,86.2934574 4.57252528,84.9698241 L4.57252528,84.9698241 L8.31153718,36.6324982 C8.40750606,35.3958083 8.9712426,34.3001838 9.82108891,33.5137317 C10.6709352,32.7272796 11.8068913,32.25 13.0472992,32.25 L13.0472992,32.25 Z"></path>
                    </g>
                    <path d="M88.2390197,31.25 C89.550696,31.25 90.738196,31.7816619 91.5977769,32.6412428 C92.4573578,33.5008237 92.9890197,34.6883237 92.9890197,36 C92.9890197,36.2745404 92.965218,36.5485639 92.9178819,36.8189926 L92.9178819,36.8189926 L84.3408736,85.8189926 C84.1419548,86.9554055 83.5490847,87.9381573 82.7175217,88.6368059 C81.8859586,89.3354546 80.8157024,89.75 79.6620115,89.75 L79.6620115,89.75 L4.33524983,89.75 C3.02357354,89.75 1.83607354,89.2183381 0.976492615,88.3587572 C0.110073971,87.4923386 -0.423187853,86.2927631 -0.414649145,84.9686745 L-0.414649145,84.9686745 L3.54861142,35.6185202 C3.64801407,34.384805 4.21282161,33.292675 5.06220679,32.5089737 C5.91159197,31.7252725 7.04555479,31.25 8.28326802,31.25 L8.28326802,31.25 Z" id="Rectangle" stroke="#242424" stroke-width="1.5" fill="#FF5300"></path>
                    <rect id="Rectangle-Copy-23" stroke="#242424" fill="#F2F2F2" stroke-linejoin="round" x="39" y="38" width="25" height="1"></rect>
                    <g id="ICON-formular" transform="translate(24.000000, 0.000000)">
                        <polygon id="Rectangle" fill="#DEDEDE" style="mix-blend-mode: multiply;" transform="translate(31.000000, 20.000000) scale(-1, 1) rotate(-180.000000) translate(-31.000000, -20.000000) " points="5 1 57 1 57 29.0606663 46 39 5 39"></polygon>
                        <path d="M52,20.4978539 L52,28.0606663 L41,38 L0,38 L0,-3.55271368e-15 L52,-3.55271368e-15 L52,12.7387592 M52,16.3035926 L52,17.1848986" id="Shape" stroke="#242424" stroke-width="1.5" fill="#FFFFFF" stroke-linecap="round" stroke-linejoin="round" transform="translate(26.250000, 19.000000) scale(-1, 1) rotate(-180.000000) translate(-26.250000, -19.000000) "></path>
                        <path d="M52,3.9571691 L41.6226483,13.8965028 L39,13.8965028 C40.7481233,13.8965028 41.6213072,12.6203638 41.6195518,10.0680858 C41.6192978,9.69873142 41.6259989,9.61755752 41.6226483,7.33212863 C41.6192978,5.04669974 42.3195371,3.40493782 44.5542972,3.40493782 C46.191848,3.40493782 47.7568617,3.40493782 49.2493383,3.40493782 C51.0831128,3.15744664 52,2.25260235 52,0.690404952 C52,-0.871792447 52,0.217128936 52,3.9571691 Z" id="Path-4" stroke="#242424" stroke-width="1.5" fill="#C8C8C8" transform="translate(45.500000, 6.948251) scale(-1, 1) rotate(-180.000000) translate(-45.500000, -6.948251) "></path>
                        <rect id="Rectangle" stroke="#242424" stroke-width="1.5" fill="#F2F2F2" x="14.75" y="8.75" width="16.5" height="6.5"></rect>
                        <rect id="Rectangle-Copy-21" stroke="#242424" fill="#F2F2F2" stroke-linejoin="round" x="15" y="22" width="25" height="1"></rect>
                        <rect id="Rectangle-Copy-22" stroke="#242424" fill="#F2F2F2" stroke-linejoin="round" x="15" y="29" width="25" height="1"></rect>
                    </g>
                    <path d="M0,31 C-1.3527075e-16,29.8954305 0.8954305,29 2,29 L30.6705143,29 C31.3812721,29 32.0386325,29.3772156 32.3972582,29.990864 L37.078,38 L87.4299824,38 C88.5345519,38 89.4299824,38.8954305 89.4299824,40 C89.4299824,40.0802214 89.4251558,40.1603701 89.4155288,40.2400117 L83.7341958,87.2400117 C83.612781,88.2444411 82.7603905,89 81.7486494,89 L2,89 C0.8954305,89 1.3527075e-16,88.1045695 0,87 L0,31 Z" id="Combined-Shape" fill="#DEDEDE" style="mix-blend-mode: normal;"></path>
                    <path d="M29.0500948,28.25 C29.5495854,28.25 30.0294337,28.3854361 30.4450228,28.6300473 C30.8606119,28.8746584 31.2119418,29.2284446 31.4544286,29.6652045 L31.4544286,29.6652045 L35.1094877,36.25 L81,36.25 C81.7593915,36.25 82.4468915,36.5578042 82.9445436,37.0554564 C83.4421958,37.5531085 83.75,38.2406085 83.75,39 L83.75,39 L83.75,87 C83.75,87.7593915 83.4421958,88.4468915 82.9445436,88.9445436 C82.4468915,89.4421958 81.7593915,89.75 81,89.75 L81,89.75 L2,89.75 C1.24060847,89.75 0.553108469,89.4421958 0.0554563517,88.9445436 C-0.442195766,88.4468915 -0.75,87.7593915 -0.75,87 L-0.75,87 L-0.75,31 C-0.75,30.2406085 -0.442195766,29.5531085 0.0554563517,29.0554564 C0.553108469,28.5578042 1.24060847,28.25 2,28.25 L2,28.25 Z" id="Combined-Shape" stroke="#242424" stroke-width="1.5" fill="#FFC9AE"></path>
                </g>
            </g>
        </g>
    </g>
</svg>