<svg xmlns="http://www.w3.org/2000/svg" xmlns:xlink="http://www.w3.org/1999/xlink" width="208" height="166" viewBox="0 0 208 166">
  <defs>
    <path id="icon_servicetel-a" d="M18.0035225,27 C20.8258863,27 23.4633016,27.7943705 25.7057199,29.1723965 C26.4929428,29.656166 27.231485,30.2118669 27.9122587,30.8303825 C28.3162401,31.197419 28.6998788,31.5865751 29.0612757,31.9959458 C29.7602116,32.7876622 30.3759569,33.6549869 30.8947743,34.5841394 C32.0886194,36.7222019 32.7692308,39.1876427 32.7692308,41.8125531 C32.7692308,49.9933003 26.158398,56.6251063 18.0035225,56.6251063 C15.256375,56.6251063 12.6844494,55.8725116 10.4814446,54.5616357 L2,58.3846154 L5.58228426,49.8248728 C4.09866785,47.5150314 3.23781424,44.7646427 3.23781424,41.8125531 C3.23781424,33.6318059 9.84864701,27 18.0035225,27 Z"/>
  </defs>
  <g fill="none" fill-rule="evenodd" transform="translate(51 34)">
    <g fill="#DEDEDE" transform="rotate(120 46.406 43.025)">
      <path d="M41.5980762,0.232050808 C63.5910154,0.232050808 81.4383729,10.1110142 81.5970104,22.3310762 L81.5980762,22.4309798 C81.5980762,22.4389923 81.5980464,22.4470013 81.5979868,22.4550067 C81.598054,22.4679295 81.5980762,22.4816255 81.5980762,22.4953245 C81.5285182,25.9131036 76.0347534,28.6724178 69.267801,28.6724178 C62.457978,28.6724178 56.9375258,25.8780308 56.9375258,22.4309798 L56.9390762,22.4950508 L56.9375258,22.4953245 C56.9375258,16.972477 50.0698203,12.4953245 41.5980762,12.4953245 C33.1263322,12.4953245 26.2586267,16.972477 26.2586267,22.4953245 C26.1890687,25.9131036 20.6953039,28.6724178 13.9283514,28.6724178 C7.11852847,28.6724178 1.59807621,25.8780308 1.59807621,22.4309798 L1.59907621,22.4950508 L1.59807621,22.4953245 L1.59907621,22.4550508 L1.59807621,22.4309798 C1.59807621,22.3977382 1.5985896,22.3645573 1.59961257,22.3314391 L1.59807621,22.4953245 C1.59807621,17.9151281 4.0830736,13.657973 8.34359728,10.118738 C9.1098034,9.48224729 9.93343338,8.86897551 10.8103607,8.28121935 C12.3465603,7.25158927 14.0463186,6.30026144 15.8874519,5.43958293 C17.3249677,4.76758435 18.8486677,4.15084685 20.4479929,3.5952473 C26.58369,1.46372927 33.832454,0.232050808 41.5980762,0.232050808 Z" style="mix-blend-mode:darken"/>
      <path d="M26.044899 25.9158186C26.6690153 26.851761 27.0131397 27.8766308 27.0131397 28.9509619 27.0131397 33.3692399 21.1928415 36.9509619 14.0131397 36.9509619 6.83343797 36.9509619 1.01313972 33.3692399 1.01313972 28.9509619 1.01313972 27.8766308 1.35726409 26.851761 1.98138047 25.9158186 3.92199774 28.2832758 8.57805977 29.9509619 14.0131397 29.9509619 19.397916 29.9509619 24.0180279 28.314003 25.9915353 25.9810552zM82.007678 25.9158461C82.6557868 26.8517812 83.0131397 27.8766414 83.0131397 28.9509619 83.0131397 33.3692399 76.9689838 36.9509619 69.5131397 36.9509619 62.0572956 36.9509619 56.0131397 33.3692399 56.0131397 28.9509619 56.0131397 27.8766414 56.3704926 26.8517812 57.0186014 25.9158461 59.0354379 28.2838141 63.8699293 29.9509619 69.5131397 29.9509619 75.1355796 29.9509619 79.9552426 28.2960639 81.9855932 25.942748z" style="mix-blend-mode:darken"/>
    </g>
    <g fill="#F8F8F8" stroke="#242424" stroke-width="1.5" transform="rotate(120 46.117 39.37)">
      <path stroke-linejoin="round" d="M40.6339746,0.0980762114 C62.6269138,0.0980762114 80.4742713,9.97703962 80.6329088,22.1971016 L80.6339746,22.2970052 C80.6339746,22.3050177 80.6339448,22.3130267 80.6338852,22.3210321 C80.6339524,22.3339549 80.6339746,22.3476509 80.6339746,22.3613499 C80.5644166,25.7791291 75.0706518,28.5384432 68.3036994,28.5384432 C61.4938764,28.5384432 55.9734241,25.7440562 55.9734241,22.2970052 L55.9749746,22.3610762 L55.9734241,22.3613499 C55.9734241,16.8385024 49.1057186,12.3613499 40.6339746,12.3613499 C32.1622305,12.3613499 25.2945251,16.8385024 25.2945251,22.3613499 C25.224967,25.7791291 19.7312022,28.5384432 12.9642498,28.5384432 C6.15442686,28.5384432 0.633974596,25.7440562 0.633974596,22.2970052 L0.634974596,22.3610762 L0.633974596,22.3613499 L0.634974596,22.3210762 L0.633974596,22.2970052 C0.633974596,22.2637636 0.63448798,22.2305827 0.635510954,22.1974645 L0.633974596,22.3613499 C0.633974596,17.7811535 3.11897198,13.5239984 7.37949566,9.98476335 C8.14570178,9.34827269 8.96933177,8.73500091 9.8462591,8.14724476 C11.3824587,7.11761467 13.082217,6.16628684 14.9233503,5.30560833 C16.3608661,4.63360976 17.8845661,4.01687226 19.4838913,3.4612727 C25.6195884,1.32975468 32.8683524,0.0980762114 40.6339746,0.0980762114 Z"/>
      <path d="M24.8962892 27.0468649C22.5578488 29.1173341 18.1511295 30.5669873 13.0490381 30.5669873 7.93320592 30.5669873 3.51856071 29.1089565 1.18400987 27.0295432.934038345 27.5991642.799038106 28.1980067.799038106 28.8169873.799038106 30.7988097 2.1628225 32.5508513 4.24972302 33.8350978 6.50166413 35.2209077 9.61498973 36.0669873 13.0490381 36.0669873 16.4830865 36.0669873 19.5964121 35.2209077 21.8483532 33.8350978 23.9352537 32.5508513 25.2990381 30.7988097 25.2990381 28.8169873 25.2990381 28.1981353 25.1637526 27.5987776 24.8962892 27.0468649zM80.876347 27.0091966C78.4664965 29.099193 73.8724759 30.5669873 68.5490381 30.5669873 63.2198822 30.5669873 58.6225704 29.0957768 56.2142432 27.0011885 55.9450627 27.5791127 55.7990381 28.1874593 55.7990381 28.8169873 55.7990381 30.7993547 57.2210787 32.5460335 59.3854484 33.8286229 61.7306155 35.2183516 64.9726418 36.0669873 68.5490381 36.0669873 72.1254344 36.0669873 75.3674607 35.2183516 77.7126279 33.8286229 79.8769975 32.5460335 81.2990381 30.7993547 81.2990381 28.8169873 81.2990381 28.187682 81.1528203 27.5793722 80.876347 27.0091966z"/>
    </g>
    <g stroke-linejoin="round" transform="rotate(-90 17.385 42.692)">
      <use fill="#DEDEDE" xlink:href="#icon_servicetel-a" style="mix-blend-mode:darken"/>
      <path stroke="#DEDEDE" stroke-width="1.5" d="M18.0035225,26.25 C13.7187069,26.25 9.83942645,27.9920926 7.03142073,30.8090069 C4.22427347,33.6250599 2.48781424,37.5153452 2.48781424,41.8125531 C2.48781424,44.771658 3.31140273,47.5377398 4.74071923,49.8930541 L0.573605332,59.8502265 L10.4391468,55.4033703 C12.6771291,56.6591091 15.2569582,57.3751063 18.0035225,57.3751063 C22.2883381,57.3751063 26.1676186,55.6330136 28.9756243,52.8160994 C31.7827715,50.0000463 33.5192308,46.1097611 33.5192308,41.8125531 C33.5192308,39.0548018 32.8038411,36.4647108 31.5496064,34.2184962 C31.004588,33.2424204 30.3577601,32.3312846 29.6235263,31.4995848 C29.2439149,31.0695818 28.8409403,30.6608126 28.4165983,30.2752775 C27.701376,29.6254637 26.9254524,29.0416569 26.0983953,28.5334082 C23.7416535,27.0851274 20.9698263,26.25 18.0035225,26.25 Z"/>
    </g>
    <path fill="#FFC9AE" stroke="#242424" stroke-linejoin="round" stroke-width="1.5" d="M16.6189071,22.25 C12.3340915,22.25 8.45481106,23.9920926 5.64680535,26.8090069 C2.83965808,29.6250599 1.10319886,33.5153452 1.10319886,37.8125531 C1.10319886,40.771658 1.92678735,43.5377398 3.35610384,45.8930541 L-0.811010052,55.8502265 L9.05453146,51.4033703 C11.2925137,52.6591091 13.8723428,53.3751063 16.6189071,53.3751063 C20.9037227,53.3751063 24.7830032,51.6330136 27.5910089,48.8160994 C30.3981562,46.0000463 32.1346154,42.1097611 32.1346154,37.8125531 C32.1346154,35.0548018 31.4192257,32.4647108 30.164991,30.2184962 C29.6199727,29.2424204 28.9731447,28.3312846 28.238911,27.4995848 C27.8592996,27.0695818 27.456325,26.6608126 27.0319829,26.2752775 C26.3167606,25.6254637 25.540837,25.0416569 24.7137799,24.5334082 C22.3570381,23.0851274 19.5852109,22.25 16.6189071,22.25 Z" transform="rotate(-90 16 38.692)"/>
    <text fill="#242424" font-family="PTSans-Bold, PT Sans" font-size="12.308" font-weight="bold" letter-spacing=".44">
      <tspan x="4.373" y="40">115</tspan>
    </text>
  </g>
</svg>
