<?xml version="1.0" encoding="UTF-8"?>
<svg width="32px" height="32px" viewBox="0 0 32 32" version="1.1" xmlns="http://www.w3.org/2000/svg" xmlns:xlink="http://www.w3.org/1999/xlink">
    <title>icon_gebrauchsanleitung</title>
    <g id="icon_gebrauchsanleitung" stroke="none" stroke-width="1" fill="none" fill-rule="evenodd">
        <g id="ICON_Gebrauchsanleitung" stroke="#242424" stroke-width="1.33333333">
            <g id="Group-3" stroke-linecap="round" stroke-linejoin="round">
                <path d="M32,14.7709755 L32,30.4632251 C32,31.3119624 31.1159589,32 30.0254389,32 L1.97456109,32 C0.88404111,32 -2.12747299e-13,31.3119624 -2.12747299e-13,30.4632251 L-2.12747299e-13,1.53677493 C-2.12747299e-13,0.688037574 0.88404111,2.70366359e-13 1.97456109,2.70366359e-13 L30.0254389,2.70366359e-13 C31.1159589,2.70366359e-13 32,0.688037574 32,1.53677493 L32,3.46234176 L32,8.66053344" id="Path" fill="#CCEFF0"></path>
                <line x1="31.1111111" y1="11.2950384" x2="31.1111111" y2="11.6443562" id="Path" fill="#FFC03D"></line>
            </g>
            <g id="Group" transform="translate(4.000000, 5.000000)">
                <path d="M12.6164875,18.6666667 L5.90681004,18.6666667 C3.62640849,18.6666667 1.77777778,16.7763725 1.77777778,14.4445764 C1.77777778,12.1127803 3.62640849,10.2224861 5.90681004,10.2224861 L9.84836521,10.2222222 M1.77777778,1.77777778 L13.6487455,1.77777778 C15.9291471,1.77777778 17.7777778,3.66813106 17.7777778,6 C17.7777778,8.33186894 15.9291471,10.2222222 13.6487455,10.2222222 L12.4784229,10.2222222" id="Shape" stroke-linecap="round" stroke-linejoin="round"></path>
                <circle id="Oval-Copy-18" fill="#FFFAF0" cx="2.22222222" cy="2.22222222" r="2.88888889"></circle>
                <circle id="Oval-Copy-15" fill="#00ADB2" cx="20.1637427" cy="18.6666667" r="4.22222222"></circle>
                <polyline id="Combined-Shape" stroke-linecap="round" stroke-linejoin="round" transform="translate(11.555556, 18.666667) rotate(-225.000000) translate(-11.555556, -18.666667) " points="13.3333333 16.8888889 10.340135 16.8888889 9.77777778 20.4444444"></polyline>
            </g>
        </g>
    </g>
</svg>