<?xml version="1.0" encoding="UTF-8"?>
<svg width="149px" height="46px" viewBox="0 0 149 46" version="1.1" xmlns="http://www.w3.org/2000/svg" xmlns:xlink="http://www.w3.org/1999/xlink">
    <title>tsb-logo-coloured</title>
    <defs>
        <polygon id="path-1" points="0.121282651 0.258510802 84.5608753 0.258510802 84.5608753 39.2409712 0.121282651 39.2409712"></polygon>
        <polygon id="path-3" points="0 0.254549726 15.7661375 0.254549726 15.7661375 14.470938 0 14.470938"></polygon>
        <polygon id="path-5" points="0 0.0751476819 50.3052811 0.0751476819 50.3052811 35.3899899 0 35.3899899"></polygon>
        <polygon id="path-7" points="0 0.0603731589 50.3052811 0.0603731589 50.3052811 24.431977 0 24.431977"></polygon>
        <polygon id="path-9" points="0 0.0751476819 43.8684966 0.0751476819 43.8684966 29.6317132 0 29.6317132"></polygon>
        <polygon id="path-11" points="0 0.0603731589 31.2340016 0.0603731589 31.2340016 18.6737002 0 18.6737002"></polygon>
    </defs>
    <g id="01_Design" stroke="none" stroke-width="1" fill="none" fill-rule="evenodd">
        <g id="03_Andere_dienstleistungen-Copy" transform="translate(-258.000000, -1707.000000)">
            <g id="footer" transform="translate(0.000000, 1622.000000)">
                <g id="logos" transform="translate(116.000000, 36.000000)">
                    <g id="tsb-logo-coloured" transform="translate(142.000000, 49.000000)">
                        <g id="Fill-1-Clipped" transform="translate(63.601290, 0.205239)">
                            <mask id="mask-2" fill="white">
                                <use xlink:href="#path-1"></use>
                            </mask>
                            <g id="path-1"></g>
                            <path d="M70.1927519,7.08050417 C69.9605085,7.14674377 69.6986655,7.16730089 69.4140535,7.16730089 C68.1594839,7.16730089 67.7245968,6.63281584 67.7245968,4.49715983 C67.7245968,2.39119745 68.1708684,1.82245055 69.6349124,1.82245055 C70.2451205,1.82245055 70.9099741,1.95492975 71.4245525,2.16278504 L71.5953197,0.632421913 C71.0306495,0.401725382 70.2451205,0.257825565 69.5370059,0.257825565 C67.0142053,0.257825565 65.9235722,1.58261753 65.9235722,4.51771695 C65.9235722,7.3865768 66.8958067,8.76618772 69.4618683,8.76618772 C70.2906584,8.76618772 71.174094,8.58117369 71.7296566,8.3162153 L71.7296566,4.16596186 L70.1927519,4.16596186 L70.1927519,7.08050417 Z M63.589754,4.50629635 C63.589754,7.60585271 62.6311808,8.75476712 60.3041933,8.75476712 C58.0227437,8.75476712 57.0186326,7.5396131 57.0186326,4.50629635 C57.0186326,1.47297957 57.9817595,0.269246184 60.3041933,0.269246184 C62.6311808,0.269246184 63.589754,1.47297957 63.589754,4.50629635 L63.589754,4.50629635 Z M61.7910063,4.50629635 C61.7910063,2.32724198 61.4175953,1.86584891 60.3041933,1.86584891 C59.2021757,1.86584891 58.8196572,2.33866259 58.8196572,4.50629635 C58.8196572,6.68535072 59.2021757,7.16958501 60.3133009,7.16958501 C61.4175953,7.16958501 61.7910063,6.67393008 61.7910063,4.50629635 L61.7910063,4.50629635 Z M19.0445639,8.75476712 C19.6912023,8.75476712 20.4015938,8.59031018 20.8820188,8.35047715 L20.7089748,6.89320599 C20.3036873,7.08050417 19.8346468,7.20156274 19.2995762,7.20156274 C17.9562077,7.20156274 17.4871672,6.59855399 17.4871672,4.45147738 C17.4871672,2.43687994 17.9334387,1.85442829 19.2676997,1.85442829 C19.8004933,1.85442829 20.3127949,1.96635037 20.6839289,2.10796606 L20.8615268,0.584455307 C20.442578,0.401725382 19.7253558,0.257825565 19.1470242,0.257825565 C16.7540067,0.257825565 15.6884195,1.63515238 15.6884195,4.45147738 C15.6884195,7.44367989 16.7653912,8.75476712 19.0445639,8.75476712 L19.0445639,8.75476712 Z M74.6418063,8.6108673 L76.397293,8.6108673 L76.397293,0.401725382 L75.5206881,0.401725382 L74.6418063,0.401725382 L74.6418063,8.6108673 Z M44.4501676,8.75476712 C42.168718,8.75476712 41.1691607,7.5396131 41.1691607,4.50629635 C41.1691607,1.47297957 42.1300108,0.269246184 44.4501676,0.269246184 C46.7771551,0.269246184 47.7380052,1.47297957 47.7380052,4.50629635 C47.7380052,7.60585271 46.7771551,8.75476712 44.4501676,8.75476712 L44.4501676,8.75476712 Z M45.9392575,4.50629635 C45.9392575,2.32724198 45.5681235,1.86584891 44.4501676,1.86584891 C43.3504269,1.86584891 42.9679084,2.33866259 42.9679084,4.50629635 C42.9679084,6.68535072 43.3504269,7.16730089 44.4615521,7.16730089 C45.5681235,7.16730089 45.9392575,6.67393008 45.9392575,4.50629635 L45.9392575,4.50629635 Z M13.3568781,7.05766292 L9.9825185,7.05766292 L9.9825185,5.1093051 L12.6783632,5.1093051 L12.6783632,3.66573869 L9.9825185,3.66573869 L9.9825185,1.97548687 L13.1929416,1.97548687 L13.1587882,0.401725382 L8.27256973,0.401725382 L8.27256973,8.6108673 L13.3136171,8.6108673 L13.3568781,7.05766292 Z M25.1648599,5.20752243 L27.699045,5.20752243 L27.699045,8.6108673 L29.4112706,8.6108673 L29.4112706,0.401725382 L27.699045,0.401725382 L27.699045,3.60863557 L25.1648599,3.60863557 L25.1648599,0.401725382 L23.4526342,0.401725382 L23.4526342,8.6108673 L25.1648599,8.6108673 L25.1648599,5.20752243 Z M55.2312694,7.01426456 L52.2166593,7.01426456 L52.2166593,0.399441258 L50.4976029,0.399441258 L50.4976029,8.6108673 L55.1857315,8.6108673 L55.2312694,7.01426456 Z M81.1901588,7.05766292 L81.1901588,5.1093051 L83.8860034,5.1093051 L83.8860034,3.66573869 L81.1901588,3.66573869 L81.1901588,1.97548687 L84.3960281,1.97548687 L84.3641515,0.401725382 L79.4733793,0.401725382 L79.4733793,8.6108673 L84.5189805,8.6108673 L84.5622415,7.05766292 L81.1901588,7.05766292 Z M2.11128961,8.6108673 L3.84173044,8.6108673 L3.84173044,2.00974873 L5.82718361,2.00974873 L5.79986086,0.401725382 L0.162266776,0.401725382 L0.121282651,2.00974873 L2.11128961,2.00974873 L2.11128961,8.6108673 Z M38.4847005,8.6108673 L38.4847005,0.401725382 L36.9819493,0.401725382 L36.9819493,4.49487571 L37.0024413,5.36969525 L36.9819493,5.38111585 L33.9468471,0.401725382 L32.4736955,0.401725382 L32.4736955,8.6108673 L33.9878313,8.6108673 L33.9878313,4.29844104 L33.9787237,3.4122009 L33.9992157,3.4007803 L34.4568718,4.16596186 L37.2642844,8.6108673 L38.4847005,8.6108673 Z M33.1772563,15.9429056 L27.5487698,15.9429056 L27.5032319,17.5509289 L29.490962,17.5509289 L29.490962,24.1543316 L31.2259566,24.1543316 L31.2259566,17.5509289 L33.2136867,17.5509289 L33.1772563,15.9429056 Z M41.4173424,21.3654161 L41.4173424,15.9429056 L39.7051167,15.9429056 L39.7051167,21.3425749 C39.7051167,22.2950546 39.3317058,22.687924 38.4163936,22.687924 C37.4988046,22.687924 37.1162861,22.283634 37.1162861,21.3425749 L37.1162861,15.9429056 L35.3949529,15.9429056 L35.3949529,21.3654161 C35.3949529,23.3343311 36.4286636,24.2959473 38.4163936,24.2959473 C40.4041237,24.2959473 41.4173424,23.3343311 41.4173424,21.3654161 L41.4173424,21.3654161 Z M25.1694137,19.3827964 L22.496338,19.3827964 L22.496338,17.5509289 L25.6953766,17.5509289 L25.6703308,15.9429056 L20.7841123,15.9429056 L20.7841123,24.1543316 L22.496338,24.1543316 L22.496338,20.9040231 L25.1489216,20.9040231 L25.1694137,19.3827964 Z M48.8627917,20.03834 L48.8855607,20.9131596 L48.8627917,20.9245802 L45.8276896,15.9429056 L44.3522611,15.9429056 L44.3522611,24.1543316 L45.8686737,24.1543316 L45.8686737,19.8419054 L45.8572892,18.9533811 L45.8800582,18.9442446 L46.3399911,19.7094262 L49.1474037,24.1543316 L50.3678199,24.1543316 L50.3678199,15.9429056 L48.8627917,15.9429056 L48.8627917,20.03834 Z M3.11540067,22.7541636 C2.38224021,22.7541636 1.71738663,22.5463083 1.08213269,22.2082579 L0.854443109,23.7180639 C1.48742015,24.0903761 2.29571817,24.2959473 3.14727721,24.2959473 C4.91642527,24.2959473 5.9387515,23.3343311 5.9387515,21.7240236 C5.9387515,19.0310413 2.53479223,19.5129915 2.53479223,18.1996202 C2.53479223,17.7382271 2.79663525,17.3887561 3.72560875,17.3887561 C4.28344823,17.3887561 4.87316425,17.4961099 5.48337234,17.7039652 L5.67918538,16.2192846 C5.11223832,15.9543262 4.36086269,15.8127105 3.61631775,15.8127105 C1.72649421,15.8127105 0.886319651,16.8839647 0.886319651,18.2749963 C0.886319651,20.958842 4.29483271,20.4883125 4.29483271,21.8359457 C4.29483271,22.4366703 3.93052938,22.7541636 3.11540067,22.7541636 L3.11540067,22.7541636 Z M9.79125925,24.1543316 L11.523977,24.1543316 L11.523977,17.5509289 L13.511707,17.5509289 L13.4821074,15.9429056 L7.84679021,15.9429056 L7.80580608,17.5509289 L9.79125925,17.5509289 L9.79125925,24.1543316 Z M17.6579343,15.9429056 L16.7813295,15.9429056 L15.9001708,15.9429056 L15.9001708,24.1543316 L17.6579343,24.1543316 L17.6579343,15.9429056 Z M57.3783821,22.6239685 C57.1484157,22.6902081 56.8865726,22.7107652 56.6019607,22.7107652 C55.3451142,22.7107652 54.9102271,22.173996 54.9102271,20.03834 C54.9102271,17.9346618 55.3564986,17.3659149 56.8228196,17.3659149 C57.4330276,17.3659149 58.0978812,17.4961099 58.6101828,17.7039652 L58.7832269,16.1736021 C58.2162798,15.9429056 57.4330276,15.8012899 56.7226361,15.8012899 C54.2021125,15.8012899 53.1114793,17.1260818 53.1114793,20.0611813 C53.1114793,22.9300411 54.0791601,24.3073679 56.6474986,24.3073679 C57.4785656,24.3073679 58.3597242,24.1200698 58.9152868,23.8596796 L58.9152868,19.7094262 L57.3783821,19.7094262 L57.3783821,22.6239685 Z M41.9683511,31.0295452 L41.9683511,36.3812477 L41.9888432,37.2583514 L41.9683511,37.269772 L41.5198027,36.5045905 L38.2752261,31.0295452 L37.3303143,31.0295452 L37.3303143,39.2409712 L38.2570109,39.2409712 L38.2570109,33.7225274 L38.2456265,32.8362872 L38.2683954,32.8248666 L38.7055594,33.5923323 L42.1209032,39.2409712 L42.8722788,39.2409712 L42.8722788,31.0295452 L41.9683511,31.0295452 Z M32.6444627,39.2409712 L33.7009424,39.2409712 L33.7009424,31.0295452 L33.1704257,31.0295452 L32.6444627,31.0295452 L32.6444627,39.2409712 Z M5.04393144,34.8942829 C5.90687496,35.1112747 6.41689963,35.7371248 6.41689963,36.9088803 C6.41689963,38.3867087 5.7224464,39.2409712 3.9737904,39.2409712 L1.19825438,39.2409712 L1.19825438,31.0295452 L3.87588388,31.0295452 C5.36952754,31.0295452 6.12318006,31.6965093 6.12318006,33.0669838 C6.12318006,34.0719984 5.68829296,34.6407451 5.04393144,34.8714417 L5.04393144,34.8942829 Z M2.20464234,34.5653692 L3.88726836,34.5653692 C4.7388274,34.5653692 5.1213459,34.1496584 5.1213459,33.2497135 C5.1213459,32.297234 4.72971982,31.96832 3.84173044,31.96832 L2.20464234,31.96832 L2.20464234,34.5653692 Z M3.98745177,38.3227531 C4.87999494,38.3227531 5.38091202,37.948157 5.38091202,36.8312203 C5.38091202,35.8239216 4.92553286,35.4082108 3.93736007,35.4082108 L2.20464234,35.4082108 L2.20464234,38.3227531 L3.98745177,38.3227531 Z M20.7089748,35.5269855 L22.6625514,39.2409712 L21.4398583,39.2409712 L19.7572323,35.72342 L18.3273417,35.72342 L18.3273417,39.2409712 L17.2913541,39.2409712 L17.2913541,31.0295452 L19.7481247,31.0295452 C21.3943204,31.0295452 22.168465,31.7399076 22.168465,33.3502151 C22.168465,34.6407451 21.6561634,35.3533919 20.7089748,35.5269855 L20.7089748,35.5269855 Z M21.1006008,33.3913295 C21.1006008,32.317791 20.6862058,31.9591836 19.7572323,31.9591836 L18.3273417,31.9591836 L18.3273417,34.8714417 L19.7162482,34.8714417 C20.6748213,34.8714417 21.1006008,34.4991295 21.1006008,33.3913295 L21.1006008,33.3913295 Z M9.57950794,31.0295452 L9.57950794,39.2409712 L14.2630827,39.2409712 L14.2926823,38.2679343 L10.6177724,38.2679343 L10.6177724,35.4173475 L13.6141674,35.4173475 L13.6141674,34.5105501 L10.6177724,34.5105501 L10.6177724,32.0140024 L14.1196382,32.0140024 L14.0968693,31.0295452 L9.57950794,31.0295452 Z M26.4763519,31.0295452 L26.4763519,38.2450931 L29.8575422,38.2450931 L29.8256657,39.2409712 L25.4312567,39.2409712 L25.4312567,31.0295452 L26.4763519,31.0295452 Z" id="Fill-1" fill="#000000" fill-rule="nonzero" mask="url(#mask-2)"></path>
                        </g>
                        <g id="Fill-4-Clipped" transform="translate(0.000000, 30.809610)">
                            <mask id="mask-4" fill="white">
                                <use xlink:href="#path-3"></use>
                            </mask>
                            <g id="path-3"></g>
                            <polygon id="Fill-4" fill="#E40134" fill-rule="nonzero" mask="url(#mask-4)" points="4.68676238 14.470938 -0.0013661375 0.389313045 0.221769654 0.254549726 15.7661375 2.86073531 15.6431851 2.98864624"></polygon>
                        </g>
                        <polygon id="Fill-7" fill="#71CBF4" fill-rule="nonzero" points="10.8525963 8.46115308 55.4569856 28.1799962 50.3066473 39.5549342 0.000910758333 31.1996084"></polygon>
                        <g id="Fill-9-Clipped" transform="translate(0.000000, 4.166315)">
                            <mask id="mask-6" fill="white">
                                <use xlink:href="#path-5"></use>
                            </mask>
                            <g id="path-5"></g>
                            <polygon id="Fill-9" fill="#63B9E9" fill-rule="nonzero" mask="url(#mask-6)" points="-0.000455379166 27.03238 43.8684966 0.0751476819 50.3052811 35.3899899"></polygon>
                        </g>
                        <g id="Fill-12-Clipped" transform="translate(0.000000, 15.124328)">
                            <mask id="mask-8" fill="white">
                                <use xlink:href="#path-7"></use>
                            </mask>
                            <g id="path-7"></g>
                            <polygon id="Fill-12" fill="#3192D0" fill-rule="nonzero" mask="url(#mask-8)" points="-0.000455379166 16.074367 26.0608943 0.0603731589 47.598052 9.5806023 50.3052811 24.431977"></polygon>
                        </g>
                        <g id="Fill-15-Clipped" transform="translate(0.000000, 4.166315)">
                            <mask id="mask-10" fill="white">
                                <use xlink:href="#path-9"></use>
                            </mask>
                            <g id="path-9"></g>
                            <polygon id="Fill-15" fill="#3A5BA7" fill-rule="nonzero" mask="url(#mask-10)" points="-0.000455379166 27.03238 43.8684966 0.0751476819 15.6440959 29.6317132"></polygon>
                        </g>
                        <g id="Fill-18-Clipped" transform="translate(0.000000, 15.124328)">
                            <mask id="mask-12" fill="white">
                                <use xlink:href="#path-11"></use>
                            </mask>
                            <g id="path-11"></g>
                            <polygon id="Fill-18" fill="#213A8F" fill-rule="nonzero" mask="url(#mask-12)" points="-0.000455379166 16.074367 26.0608943 0.0603731589 31.2340016 2.34678135 15.6440959 18.6737002"></polygon>
                        </g>
                    </g>
                </g>
            </g>
        </g>
    </g>
</svg>