<?xml version="1.0" encoding="UTF-8"?>
<svg width="140px" height="140px" viewBox="0 0 140 140" version="1.1" xmlns="http://www.w3.org/2000/svg" xmlns:xlink="http://www.w3.org/1999/xlink">
    <title>icon_reispepass_content copy 13</title>
    <g id="01_Design" stroke="none" stroke-width="1" fill="none" fill-rule="evenodd">
        <g id="icon_reispepass_content-copy-13">
            <circle id="Oval" fill="#F8F8F8" cx="70" cy="70" r="70"></circle>
            <g id="ICON-Behörden" transform="translate(25.000000, 27.000000)">
                <g id="Group-23" transform="translate(56.454545, 0.000000)">
                    <path d="M33.2872451,20.2212236 L33.2872451,20.5323194 L31.4158617,20.532 L31.4206706,20.8434151 L31.4206706,73.7296924 L4.66643623,73.7296924 L4.66643623,20.8434151 L4.66998766,20.5320924 L31.4158617,20.532 L31.4167715,20.517224 C31.4144085,20.4184821 31.4109756,20.3200053 31.4064839,20.2218047 L33.2872451,20.2212236 Z M18.3546492,-3.139307e-13 L18.3551877,4.68358392 C19.7548438,4.83858153 20.8434151,6.02531502 20.8434151,7.46629796 C20.8434151,7.56447707 20.8383618,7.66147591 20.8285011,7.75704857 C26.6833169,8.99592651 31.1249331,14.0663487 31.4064839,20.2218047 L4.68086174,20.221 L4.66998766,20.5320924 L2.79986174,20.5323194 L2.79986174,20.2212236 L4.68086174,20.221 L4.68128607,20.2074736 C4.96907066,14.0584793 9.40836953,8.99494262 15.259671,7.75637529 C15.248745,7.66147591 15.2436917,7.56447707 15.2436917,7.46629796 C15.2436917,6.02497412 16.3327781,4.83802005 17.7329125,4.68347409 L17.7324577,-3.139307e-13 L18.3546492,-3.139307e-13 Z" id="Combined-Shape" fill="#DEDEDE" style="mix-blend-mode: multiply;"></path>
                    <path d="M30.4873833,20.2212236 L30.4873833,20.5323194 L28.616,20.532 L28.6208088,20.8434151 L28.6208088,73.7296924 L1.86657449,73.7296924 L1.86657449,20.8434151 L1.87012592,20.5320924 L28.616,20.532 L28.6169097,20.517224 C28.6145468,20.4184821 28.6111139,20.3200053 28.6066221,20.2218047 L30.4873833,20.2212236 Z M15.5547874,-3.139307e-13 L15.555326,4.68358392 C16.9549821,4.83858153 18.0435534,6.02531502 18.0435534,7.46629796 C18.0435534,7.56447707 18.0385001,7.66147591 18.0286393,7.75704857 C23.8834552,8.99592651 28.3250713,14.0663487 28.6066221,20.2218047 L1.881,20.221 L1.87012592,20.5320924 L1.62778881e-13,20.5323194 L1.62778881e-13,20.2212236 L1.881,20.221 L1.88142434,20.2074736 C2.16920893,14.0584793 6.6085078,8.99494262 12.4598093,7.75637529 C12.4488833,7.66147591 12.4438299,7.56447707 12.4438299,7.46629796 C12.4438299,6.02497412 13.5329163,4.83802005 14.9330508,4.68347409 L14.9325959,-3.139307e-13 L15.5547874,-3.139307e-13 Z" id="Combined-Shape" stroke="#242424" stroke-width="1.5" fill="#FFC9AE"></path>
                    <rect id="Rectangle-Copy-24" stroke="#242424" stroke-width="1.5" fill="#F8F8F8" x="17.9626685" y="24.5765641" width="2.79986174" height="14.3104044"></rect>
                    <rect id="Rectangle-Copy-26" stroke="#242424" stroke-width="1.5" fill="#F8F8F8" x="17.9626685" y="58.1749049" width="2.79986174" height="4.04424473"></rect>
                    <rect id="Rectangle-Copy-32" stroke="#242424" stroke-width="1.5" fill="#F8F8F8" x="17.9626685" y="51.3307985" width="2.79986174" height="4.04424473"></rect>
                    <rect id="Rectangle-Copy-34" stroke="#242424" stroke-width="1.5" fill="#F8F8F8" x="17.9626685" y="44.486692" width="2.79986174" height="4.04424473"></rect>
                    <rect id="Rectangle-Copy-28" stroke="#242424" stroke-width="1.5" fill="#F8F8F8" x="17.9626685" y="65.0190114" width="2.79986174" height="8.71068095"></rect>
                    <rect id="Rectangle-Copy-25" stroke="#242424" stroke-width="1.5" fill="#F8F8F8" x="9.72485309" y="24.5765641" width="2.79986174" height="14.3104044"></rect>
                    <rect id="Rectangle-Copy-27" stroke="#242424" stroke-width="1.5" fill="#F8F8F8" x="9.72485309" y="58.1749049" width="2.79986174" height="4.04424473"></rect>
                    <rect id="Rectangle-Copy-33" stroke="#242424" stroke-width="1.5" fill="#F8F8F8" x="9.72485309" y="51.3307985" width="2.79986174" height="4.04424473"></rect>
                    <rect id="Rectangle-Copy-35" stroke="#242424" stroke-width="1.5" fill="#F8F8F8" x="9.72485309" y="44.486692" width="2.79986174" height="4.04424473"></rect>
                    <rect id="Rectangle-Copy-29" stroke="#242424" stroke-width="1.5" fill="#F8F8F8" x="9.72485309" y="65.0190114" width="2.79986174" height="8.71068095"></rect>
                </g>
                <g id="Group-22">
                    <path d="M15.2436917,4.05009359e-13 L16.0618735,4.05009359e-13 L16.0618735,8.08848946 L20.2212236,8.08848946 L20.2212236,15.8658832 L25.5098514,15.8658832 L25.5098514,23.6432769 L28.9319046,23.6432769 L28.9319046,77.4628413 L2.17767024,77.4628413 L2.17767024,23.6432769 L5.59972347,23.6432769 L5.59972347,15.8658832 L10.8883512,15.8658832 L10.8883512,8.08848946 L15.2436917,8.08848946 L15.2436917,4.05009359e-13 Z" id="Combined-Shape" fill="#DEDEDE" style="mix-blend-mode: multiply;"></path>
                    <g id="Group-2" stroke="#242424" stroke-width="1.5">
                        <rect id="Rectangle-Copy-2" fill="#FFE2D4" x="0" y="23.6432769" width="26.7542344" height="53.8195645"></rect>
                        <rect id="Rectangle-Copy-3" fill="#FFE2D4" x="3.42205323" y="15.8658832" width="19.9101279" height="7.77739371"></rect>
                        <rect id="Rectangle-Copy-4" fill="#FFE2D4" x="8.71068095" y="8.08848946" width="9.33287245" height="7.77739371"></rect>
                        <rect id="Rectangle-Copy-13" fill="#F8F8F8" x="5.28862772" y="28.6208088" width="4.04424473" height="4.04424473"></rect>
                        <rect id="Rectangle-Copy-15" fill="#F8F8F8" x="5.28862772" y="36.7092983" width="4.04424473" height="4.04424473"></rect>
                        <rect id="Rectangle-Copy-17" fill="#F8F8F8" x="5.28862772" y="44.7977878" width="4.04424473" height="4.04424473"></rect>
                        <rect id="Rectangle-Copy-19" fill="#F8F8F8" x="5.28862772" y="52.8862772" width="4.04424473" height="4.04424473"></rect>
                        <rect id="Rectangle-Copy-21" fill="#F8F8F8" x="5.28862772" y="60.9747667" width="4.04424473" height="4.04424473"></rect>
                        <rect id="Rectangle-Copy-14" fill="#F8F8F8" x="17.4213619" y="28.6208088" width="4.04424473" height="4.04424473"></rect>
                        <rect id="Rectangle-Copy-16" fill="#F8F8F8" x="17.4213619" y="36.7092983" width="4.04424473" height="4.04424473"></rect>
                        <rect id="Rectangle-Copy-18" fill="#F8F8F8" x="17.4213619" y="44.7977878" width="4.04424473" height="4.04424473"></rect>
                        <rect id="Rectangle-Copy-20" fill="#F8F8F8" x="17.4213619" y="52.8862772" width="4.04424473" height="4.04424473"></rect>
                        <rect id="Rectangle-Copy-22" fill="#F8F8F8" x="17.4213619" y="60.9747667" width="4.04424473" height="4.04424473"></rect>
                        <rect id="Rectangle-Copy-30" fill="#F8F8F8" transform="translate(13.221569, 4.044245) scale(-1, 1) translate(-13.221569, -4.044245) " x="13.0660214" y="0" width="1" height="8.08848946"></rect>
                        <rect id="Rectangle-Copy-23" fill="#F8F8F8" x="9.95506395" y="69.3743519" width="6.84410646" height="7.77739371"></rect>
                    </g>
                </g>
                <g id="Group" transform="translate(24.623228, 23.727273)">
                    <polygon id="Rectangle" fill="#DEDEDE" style="mix-blend-mode: normal;" points="1.55547874 7.4196336 33.8658775 8.31870031 33.6978915 0.352727083 47.3767715 0.352727083 46.7639129 50.5259801 37.9443325 61.6729824 1.55547874 61.6729824"></polygon>
                    <path d="M37.3314898,26.1696284 L37.3314898,28.0762968 M37.3314898,31.2076285 L37.3314898,41.4026534 L37.3314898,61.2049775 L0,61.2049775 L0,8.31870031 L37.3314898,8.31870031 L37.3314898,21.6003292" id="Shape" stroke="#242424" stroke-width="1.5" fill="#FF7735" stroke-linecap="round" stroke-linejoin="round"></path>
                    <rect id="Rectangle-Copy-5" stroke="#242424" stroke-width="1.5" fill="#F8F8F8" x="5.28862772" y="12.9851365" width="26.7542344" height="4.04424473"></rect>
                    <rect id="Rectangle-Copy-6" stroke="#242424" stroke-width="1.5" fill="#F8F8F8" x="5.28862772" y="21.073626" width="26.7542344" height="4.04424473"></rect>
                    <rect id="Rectangle-Copy-7" stroke="#242424" stroke-width="1.5" fill="#F8F8F8" x="5.28862772" y="29.1621155" width="26.7542344" height="4.04424473"></rect>
                    <rect id="Rectangle-Copy-8" stroke="#242424" stroke-width="1.5" fill="#F8F8F8" x="5.28862772" y="37.2506049" width="26.7542344" height="4.04424473"></rect>
                    <rect id="Rectangle-Copy-9" stroke="#242424" stroke-width="1.5" fill="#F8F8F8" x="5.28862772" y="45.3390944" width="26.7542344" height="4.04424473"></rect>
                    <rect id="Rectangle-Copy-10" stroke="#242424" stroke-width="1.5" fill="#F8F8F8" x="18.6657449" y="53.4275838" width="6.84410646" height="7.77739371"></rect>
                    <rect id="Rectangle-Copy-11" stroke="#242424" stroke-width="1.5" fill="#F8F8F8" x="11.8216384" y="53.4275838" width="6.84410646" height="7.77739371"></rect>
                </g>
            </g>
        </g>
    </g>
</svg>