<?xml version="1.0" encoding="UTF-8"?>
<svg width="140px" height="140px" viewBox="0 0 140 140" version="1.1" xmlns="http://www.w3.org/2000/svg" xmlns:xlink="http://www.w3.org/1999/xlink">
    <title>vignette_sewrvicekonto</title>
    <defs>
        <rect id="path-1" x="5.95826607e-13" y="0.507663551" width="51.2740187" height="18.1308411" rx="2.53831776"></rect>
    </defs>
    <g id="vignette_sewrvicekonto" stroke="none" stroke-width="1" fill="none" fill-rule="evenodd">
        <g id="vignette_mailaccount">
            <circle id="Oval" fill="#F8F8F8" cx="70" cy="70" r="70"></circle>
            <g id="Group-5" transform="translate(22.000000, 37.000000)">
                <g id="Group-4">
                    <path d="M91.6123063,35.2769032 C91.6123063,36.4969224 91.6123063,37.106932 91.6123063,37.106932 M91.6109749,39.7180973 L91.6109749,53.0258366 C91.6109749,54.6779374 90.2732903,56.0172298 88.6231727,56.0172298 L7.52051244,56.0172298 C5.87039487,56.0172298 4.53271028,54.6779374 4.53271028,53.0258366 L4.53271028,7.52410355 C4.53271028,5.87200267 5.87039487,4.53271028 7.52051244,4.53271028 L88.6231727,4.53271028 C90.2732903,4.53271028 91.6109749,5.87200267 91.6109749,7.52410355 L91.6109749,31.6463252 L91.6109749,32.8663444" id="Shape" fill="#DEDEDE"></path>
                    <path d="M87.079596,30.7441929 L87.079596,32.5742217 M87.0782646,35.185387 L87.0782646,48.4931263 C87.0782646,50.1452272 85.74058,51.4845195 84.0904624,51.4845195 L2.98780216,51.4845195 C1.33768459,51.4845195 1.77635684e-12,50.1452272 1.77635684e-12,48.4931263 L1.77635684e-12,2.99139327 C1.77635684e-12,1.33929239 1.33768459,0 2.98780216,0 L84.0904624,0 C85.74058,0 87.0782646,1.33929239 87.0782646,2.99139327 L87.0782646,27.1136149 L87.0782646,28.3336341" id="Shape" stroke="#242424" stroke-width="1.5" fill="#F2F2F2" stroke-linecap="round" stroke-linejoin="round"></path>
                    <g id="Group-21" transform="translate(5.076636, 15.229907)">
                        <g id="Group-3" transform="translate(0.362617, -0.000000)" stroke="#242424" stroke-width="1.5">
                            <g id="Group-6" transform="translate(0.000000, 0.634579)">
                                <path d="M19.1401029,10.8697879 L19.1401029,11.8021225 M19.1401029,14.0027129 L19.1401029,15.4257584 C19.1401029,17.6707384 17.3529193,19.4906542 15.1483167,19.4906542 L3.99178616,19.4906542 C1.78718354,19.4906542 -1.0125234e-13,17.6707384 -1.0125234e-13,15.4257584 L-1.0125234e-13,4.0648958 C-1.0125234e-13,1.81991584 1.78718354,5.32907052e-15 3.99178616,5.32907052e-15 L15.1483167,5.32907052e-15 C17.3529193,5.32907052e-15 19.1401029,1.81991584 19.1401029,4.0648958 L19.1401029,8.83474766" id="Shape" fill="#F8F8F8" stroke-linecap="round" stroke-linejoin="round" transform="translate(9.745327, 9.745327) rotate(-180.000000) translate(-9.745327, -9.745327) "></path>
                                <g id="Group" transform="translate(1.813084, 2.719626)" fill="#00ADB2">
                                    <circle id="Oval" cx="8.03523011" cy="3.70856774" r="2.95856774"></circle>
                                    <path d="M8.03523011,7.6185765 C9.61897867,7.6185765 10.9545084,8.12941805 12.0360974,9.1648911 C13.1776699,10.25779 14.0352217,11.9066757 14.6436042,14.0882844 C14.6923946,14.2632425 14.7171307,14.4440302 14.7171307,14.625664 C14.7171307,15.1780936 14.4932144,15.6782248 14.1311906,16.0402482 C13.7691672,16.402271 13.2690367,16.6261864 12.7166061,16.6261851 L12.7166061,16.6261851 L3.35384798,16.6261851 C3.17221568,16.6261851 2.99142944,16.6014492 2.81647275,16.5526594 C2.28435006,16.4042673 1.86275125,16.0542381 1.61128007,15.6082763 C1.35980805,15.162313 1.27846463,14.6204163 1.42685293,14.0882952 C2.03523519,11.9066829 2.89278712,10.2577944 4.03436015,9.16489361 C5.11594966,8.1294189 6.45148026,7.6185765 8.03523011,7.6185765 Z" id="Oval"></path>
                                </g>
                            </g>
                        </g>
                        <g id="Group-18" transform="translate(24.802991, 0.834019)">
                            <g id="Rectangle">
                                <mask id="mask-2" fill="white">
                                    <use xlink:href="#path-1"></use>
                                </mask>
                                <rect stroke="#1B1B1B" stroke-width="1.5" x="-0.75" y="-0.242336449" width="52.7740187" height="19.6308411" rx="2.53831776"></rect>
                                <path d="M37.5671028,-2.35700935 L46.1973832,-2.35700935 C49.0011316,-2.35700935 51.2740187,-0.0841222066 51.2740187,2.71962617 L51.2740187,16.4265421 C51.2740187,19.2302904 49.0011316,21.5031776 46.1973832,21.5031776 L37.5671028,21.5031776 L37.5671028,21.5031776 L37.5671028,-2.35700935 Z" fill="#66CED1" mask="url(#mask-2)"></path>
                            </g>
                            <g id="Group-15" transform="translate(41.120748, 4.242617)" stroke="#1B1B1B">
                                <path d="M3.70479537,3.88121419 C5.64540246,3.88121419 5.64540246,3.0123748 5.64540246,1.9406071 C5.64540246,0.868839392 4.77656307,0 3.70479537,0 C2.63302766,0 1.76418827,0.868839392 1.76418827,1.9406071 C1.76418827,3.0123748 1.76418827,3.88121419 3.70479537,3.88121419 Z" id="Oval" stroke-width="1.5"></path>
                                <path d="M7.41069335,6.49832569 C7.41069335,6.49832569 7.41069335,6.49832569 7.41069335,6.49832569 M7.40959073,8.32240837 L7.40959073,8.86339507 C7.40959073,9.71684938 6.71772932,10.4087108 5.86427502,10.4087108 L1.54531571,10.4087108 C0.691861411,10.4087108 0,9.71684938 0,8.86339507 L0,4.54443577 C0,3.69098147 0.691861411,2.99912006 1.54531571,2.99912006 L5.86427502,2.99912006 C6.71772932,2.99912006 7.40959073,3.69098147 7.40959073,4.54443577 L7.40959073,4.4705254" id="Shape-Copy" stroke-width="1.5" fill="#CCEFF0" stroke-linecap="round" stroke-linejoin="round"></path>
                                <path d="M3.18913316,5.12974026 C3.9668113,4.87294667 4.10119392,5.01047661 4.22045757,5.12974026 C4.35242703,5.26170972 4.43405185,5.44402384 4.43405185,5.64540246 L4.43405185,5.64540246 L4.87057006,8.31526604 L2.53887165,8.31526604 L3.28071965,6.23871383 C2.97553888,5.44402384 3.0571637,5.26170972 3.18913316,5.12974026 Z" id="Combined-Shape" stroke-width="0.4" fill="#1B1B1B" stroke-linejoin="round"></path>
                            </g>
                            <g id="Group-17" transform="translate(5.076636, 7.288598)" fill="#008A8E" stroke="#1B1B1B" stroke-width="1.5">
                                <circle id="Oval" cx="2.03065421" cy="2.03065421" r="2.03065421"></circle>
                                <circle id="Oval-Copy-4" cx="9.81482866" cy="2.03065421" r="2.03065421"></circle>
                                <circle id="Oval-Copy-5" cx="17.7682243" cy="2.03065421" r="2.03065421"></circle>
                                <circle id="Oval-Copy-12" cx="25.5523988" cy="2.03065421" r="2.03065421"></circle>
                            </g>
                        </g>
                    </g>
                </g>
                <g id="Group-10" transform="translate(23.570093, 39.887850)" stroke="#1B1B1B" stroke-width="1.5">
                    <path d="M42.1204443,23.6093529 L23.0174864,23.6093529 C10.7211882,16.4944987 3.71919695,12.44327 2.01151267,11.4556669 C-0.550013744,9.97426232 -0.182113318,7.13989612 0.502006283,5.95670207 C1.12933699,4.87172518 2.94591625,2.89765383 5.59589426,4.18722441 C8.18113751,5.44529283 13.0489818,7.868107 20.199427,11.4556669 C22.0275179,11.4556669 23.6498313,11.4556669 25.0663673,11.4556669 C27.2550043,11.4556669 31.0449317,11.4556669 36.4361495,11.4556669 C31.8133151,11.4556669 28.383676,11.4556669 26.1472321,11.4556669 C20.9555181,11.4556669 20.9061788,8.42992277 20.9061788,7.06365447 C20.9061788,5.69738616 21.1749197,2.95214822 27.2017227,2.95214822 C32.0163993,2.95214822 34.8460478,2.95214822 35.6906682,2.95214822 C38.8752887,0.984049407 42.383017,0 46.2138532,0 C50.0446894,0 53.2754975,1.39574147 55.9062775,4.18722441 L55.9062775,23.6093529 L45.7546656,23.6093529" id="Path-2" fill="#FFFFFF" stroke-linecap="round" stroke-linejoin="round"></path>
                    <rect id="Rectangle" fill="#CCEFF0" x="55.8343638" y="2.88715088" width="16.0188102" height="22.1690308" rx="2.23644385"></rect>
                    <circle id="Oval" fill="#00ADB2" cx="61.7936954" cy="19.0968501" r="1.48644385"></circle>
                </g>
            </g>
        </g>
    </g>
</svg>