<?xml version="1.0" encoding="UTF-8"?>
<svg width="140px" height="140px" viewBox="0 0 140 140" version="1.1" xmlns="http://www.w3.org/2000/svg" xmlns:xlink="http://www.w3.org/1999/xlink">
    <title>icon_reispepass_content copy 9</title>
    <g id="01_Design" stroke="none" stroke-width="1" fill="none" fill-rule="evenodd">
        <g id="icon_reispepass_content-copy-9">
            <circle id="Oval" fill="#F8F8F8" cx="70" cy="70" r="70"></circle>
            <g id="icon_personalausweis" transform="translate(30.000000, 43.000000)">
                <rect id="Rectangle" fill="#DEDEDE" x="4.57142857" y="4.57142857" width="75.4285714" height="50.2857143" rx="8"></rect>
                <path d="M74.8571429,17.1428571 L74.8571429,24 M75.4285714,30.1233738 C75.4285714,33.3961245 75.4285714,35.1198046 75.4285714,41.6653061 C75.4285714,46.4262261 71.7445145,50.2857143 67.2,50.2857143 L8.22857143,50.2857143 C3.68405692,50.2857143 0,46.4262261 0,41.6653061 L0,8.62040816 C0,3.8594882 3.68405692,0 8.22857143,0 L65.077679,0 L67.2,0 C71.7445145,0 75.4285714,3.8594882 75.4285714,8.62040816 L75.4285714,10.2574893 L75.4285714,12.8219751" id="Shape" stroke="#242424" stroke-width="1.5" fill="#F8F8F8" stroke-linecap="round" stroke-linejoin="round"></path>
                <g id="ICON-Fingerprint" transform="translate(20.571429, 8.000000)" stroke="#242424">
                    <g id="Group-12" transform="translate(10.285714, 5.714286)" fill="#FFC9AE" stroke-width="1.5">
                        <path d="M14.3448276,10.7067669 L14.3448276,10.8270677 M14.3448276,14.3045722 L14.3448276,15.839599 C14.3448276,19.7152815 11.1336286,22.8571429 7.17241379,22.8571429 C3.21119904,22.8571429 0,19.7152815 0,15.839599 L0,7.01754386 C0,3.1418614 3.21119904,0 7.17241379,0 C11.1336286,0 14.3448276,3.1418614 14.3448276,7.01754386 L14.3448276,7.3069725" id="Shape" stroke-linecap="round" stroke-linejoin="round"></path>
                        <path d="M2.76691729,8.42546835 L2.76691729,7.76835706 C2.76691729,5.47122005 4.70589462,3.60902256 7.09774436,3.60902256 C9.4895941,3.60902256 11.4285714,5.47122005 11.4285714,7.76835706 L11.4285714,11.6966793 L11.4285714,15.0887858 C11.4285714,17.3859228 9.4895941,19.2481203 7.09774436,19.2481203 C4.70589462,19.2481203 2.76691729,17.3859228 2.76691729,15.0887858 L2.76691729,14.6045813 L2.76691729,14.7787411 M2.76691729,11.4285714 L2.76691729,11.4801289" id="Shape" stroke-linecap="round" stroke-linejoin="round"></path>
                        <rect id="Rectangle" x="5.71428571" y="7.21804511" width="2.28571429" height="8.42105263" rx="1.14285714"></rect>
                    </g>
                    <path d="M9.14285714,32 L7.42921437,32 C4.58853771,32 2.28571429,29.3137085 2.28571429,26 L2.28571429,24 M32,24 L32,26 C32,29.3137085 29.3140442,32 26.0007499,32 L24,32 M2.28571429,9.14285714 L2.28571429,7.42857143 C2.28571429,4.58824986 4.58824986,2.28571429 7.42857143,2.28571429 L9.14285714,2.28571429 M24,2.28571429 L26,2.28571429 C29.3137085,2.28571429 32,4.58824986 32,7.42857143 L32,9.14285714" id="Shape" stroke-width="1.5" stroke-linecap="round" stroke-linejoin="round"></path>
                    <rect id="Rectangle" stroke-width="0.5" fill="#242424" stroke-linejoin="round" transform="translate(17.142857, 1.210084) scale(1, -1) rotate(270.000000) translate(-17.142857, -1.210084) " x="15.9327731" y="0.806722689" width="2.42016807" height="1"></rect>
                    <rect id="Rectangle-Copy-19" stroke-width="0.5" fill="#242424" stroke-linejoin="round" transform="translate(17.210084, 33.210084) scale(1, -1) rotate(270.000000) translate(-17.210084, -33.210084) " x="16" y="32.8067227" width="2.42016807" height="1"></rect>
                    <rect id="Rectangle" stroke-width="0.5" fill="#242424" stroke-linejoin="round" transform="translate(1.210084, 17.146218) scale(1, -1) rotate(360.000000) translate(-1.210084, -17.146218) " x="0" y="16.7428571" width="2.42016807" height="1"></rect>
                    <rect id="Rectangle-Copy-19" stroke-width="0.5" fill="#242424" stroke-linejoin="round" transform="translate(33.210084, 17.146218) scale(1, -1) rotate(360.000000) translate(-33.210084, -17.146218) " x="32" y="16.7428571" width="2.42016807" height="1"></rect>
                </g>
            </g>
        </g>
    </g>
</svg>