<?xml version="1.0" encoding="UTF-8"?>
<svg width="140px" height="140px" viewBox="0 0 140 140" version="1.1" xmlns="http://www.w3.org/2000/svg" xmlns:xlink="http://www.w3.org/1999/xlink">
    <title>icon_reispepass_content copy 11</title>
    <defs>
        <radialGradient cx="27.2760882%" cy="22.9774573%" fx="27.2760882%" fy="22.9774573%" r="80.379992%" gradientTransform="translate(0.272761,0.229775),rotate(53.095042),scale(1.000000,1.083038),translate(-0.272761,-0.229775)" id="radialGradient-1">
            <stop stop-color="#FFC9AE" offset="0%"></stop>
            <stop stop-color="#FFB692" offset="100%"></stop>
        </radialGradient>
    </defs>
    <g id="01_Design" stroke="none" stroke-width="1" fill="none" fill-rule="evenodd">
        <g id="icon_reispepass_content-copy-11">
            <circle id="Oval" fill="#F8F8F8" cx="70" cy="70" r="70"></circle>
            <g id="icon_passport_hp" transform="translate(46.000000, 28.000000)">
                <path d="M54.6944444,44.9029564 L54.6944444,72.5387591 C54.6944444,77.6792327 51.7030433,81.1174388 48.012963,80.2182073 L4.58333333,75.2184724 L4.58333333,11.688955 L48.012963,1.10563821 C52.8064822,0.216491429 54.6944444,2.4139062 54.6944444,8.78508647" id="Path" fill="#DEDEDE"></path>
                <path d="M45.7646812,42.2757571 L45.7646812,67.8774183 C45.7646812,72.4378366 43.0327418,75.4880727 39.6627237,74.6903113 L0,74.5919732 L0,9.55673434 L39.6627237,0.167647836 C44.040473,-0.62116688 45.7646812,1.32828978 45.7646812,6.98054075" id="Path" stroke="#242424" stroke-width="1.5" fill="#D14000" stroke-linecap="round"></path>
                <line x1="45.7646812" y1="33.8714265" x2="45.7646812" y2="37.4503537" id="Path" stroke="#242424" stroke-width="1.375" fill="#D4D2D2" stroke-linecap="round"></line>
                <path d="M49.8508135,45.0687214 L49.8508135,73.1553959 C49.8508135,76.8263084 46.8749509,79.802171 43.2040384,79.802171 L1.73688224e-13,79.802171 L1.73688224e-13,10.0110321 L43.2040384,10.0110321 C46.8749509,10.0110321 49.8508135,12.9868947 49.8508135,16.6578073 L49.8508135,28.3620309 L49.8508135,33.3471123" id="Path" stroke="#242424" stroke-width="1.5" fill="#FFC9AE" stroke-linecap="round"></path>
                <line x1="49.8508135" y1="38.3036484" x2="49.8508135" y2="41.1845089" id="Path" stroke="#242424" stroke-width="1.375" fill="#F2F2F2" stroke-linecap="round"></line>
                <circle id="Oval" stroke="#242424" stroke-width="1.5" fill="url(#radialGradient-1)" cx="24.9254067" cy="36.5981327" r="10.8818565"></circle>
                <ellipse id="Oval" stroke="#242424" stroke-width="0.830846891" cx="24.9254067" cy="36.5981327" rx="6.23135169" ry="11.216433"></ellipse>
                <line x1="24.9254067" y1="26.62797" x2="24.9254067" y2="46.5682954" id="Line-4" stroke="#242424" stroke-width="0.830846891" stroke-linecap="square"></line>
                <path d="M15.0332374,31.6130513 C19.3715091,31.6130513 22.6525503,31.6130513 24.8763611,31.6130513 C27.1001719,31.6130513 30.3805087,31.6130513 34.7173714,31.6130513 L15.0332374,31.6130513 Z" id="Line-4-Copy" stroke="#242424" stroke-width="0.830846891" stroke-linecap="round" stroke-linejoin="round"></path>
                <path d="M15.7860909,42.4140609 C19.6224603,42.4140609 22.6525503,42.4140609 24.8763611,42.4140609 C27.1001719,42.4140609 30.162959,42.4140609 34.0647226,42.4140609" id="Line-4-Copy-2" stroke="#242424" stroke-width="0.830846891" stroke-linecap="round"></path>
                <line x1="14.4394131" y1="36.5981327" x2="35.9080627" y2="36.5981327" id="Line-4" stroke="#242424" stroke-width="0.830846891" stroke-linecap="round"></line>
                <rect id="Rectangle" fill="#242424" x="11.6318565" y="57.7606803" width="26.5871005" height="1.83333333" rx="0.916666667"></rect>
                <rect id="Rectangle-Copy-2" fill="#242424" x="11.6318565" y="61.4273469" width="26.5871005" height="1.83333333" rx="0.916666667"></rect>
            </g>
        </g>
    </g>
</svg>