<?xml version="1.0" encoding="UTF-8"?>
<svg width="140px" height="140px" viewBox="0 0 140 140" version="1.1" xmlns="http://www.w3.org/2000/svg" xmlns:xlink="http://www.w3.org/1999/xlink">
    <title>vignette_reisepass</title>
    <g id="vignette_reisepass" stroke="none" stroke-width="1" fill="none" fill-rule="evenodd">
        <g>
            <circle id="Oval" fill="#F8F8F8" cx="70" cy="70" r="70"></circle>
            <g id="icon_passport_hp" transform="translate(46.000000, 28.000000)">
                <path d="M54.3802015,44.6449697 L54.3802015,72.1219929 C54.3802015,77.2329323 51.4059872,80.6513844 47.737108,79.7573194 L4.55700012,74.7863101 L4.55700012,11.621797 L47.737108,1.09928584 C52.5030864,0.215247593 54.3802015,2.40003728 54.3802015,8.73461239" id="Path" fill="#DEDEDE"></path>
                <path d="M45.5017436,42.0328648 L45.5017436,67.4874336 C45.5017436,72.0216503 42.7855003,75.0543614 39.4348444,74.2611835 L0,74.1634104 L0,9.50182681 L39.4348444,0.166684627 C43.7874416,-0.617598011 45.5017436,1.32065818 45.5017436,6.94043456" id="Path" stroke="#242424" stroke-width="1.5" fill="#008A8E" stroke-linecap="round"></path>
                <line x1="45.5017436" y1="33.6768207" x2="45.5017436" y2="37.2351854" id="Path" stroke="#242424" stroke-width="1.5" fill="#D4D2D2" stroke-linecap="round"></line>
                <path d="M49.5643993,44.8816681 L49.5643993,72.8069727 C49.5643993,76.4567942 46.6056343,79.4155592 42.9558127,79.4155592 L0,79.4155592 L0,10.0254003 L42.9558127,10.0254003 C46.6056343,10.0254003 49.5643993,12.9841653 49.5643993,16.6339868 L49.5643993,28.2709647 L49.5643993,33.2274047" id="Path" stroke="#242424" stroke-width="1.5" fill="#CCEFF0" stroke-linecap="round"></path>
                <g id="Bundesadler_Bundesorgane" transform="translate(12.759600, 33.721801)">
                    <path d="M19.678694,14.4611313 C20.0427115,15.0014975 20.6458139,15.8005352 21.5003212,16.4583387 C20.2731339,16.4583387 19.4594366,16.4871659 18.4210918,14.8374336 L18.1875893,14.4611313 L15.5436023,10.208674 C15.3732398,10.2745994 15.2003748,10.3356881 15.0244299,10.3935845 L17.5531094,14.4611313 L18.2771018,15.6252499 C18.5947267,16.1334998 19.2730966,17.1393587 20.2835289,17.9184688 C19.0571116,17.9184688 18.2436068,17.9465222 17.205262,16.2967899 L16.0643147,14.4611313 L13.7389151,10.7200194 C13.5396776,11.0408437 13.4740351,11.3222481 13.4740351,11.6027819 C13.4740351,12.6368876 13.8717401,13.6007631 14.4804249,14.4611313 C14.9027699,15.0577978 15.4284873,15.6068702 15.9907797,16.0965468 C15.9035772,16.1358215 15.7507322,16.1503319 15.6084747,16.1503319 C15.3260773,16.1503319 15.1420473,16.1334998 15.0140349,16.111831 C15.3324298,16.8377365 16.0156122,17.7760737 16.3603796,18.2624613 C16.8100595,18.1813967 17.4635969,18.1177445 17.8922944,18.1177445 C18.3404343,18.1177445 18.3906768,18.3806725 18.3906768,18.615547 C18.3906768,19.0247394 18.2002943,19.3528672 17.9787268,19.5345371 C17.8963369,19.3213314 17.7282844,19.0440866 16.901112,19.0440866 C17.0595395,19.3182358 17.8172194,19.9340559 17.8172194,20.4301171 C17.8172194,20.7582449 17.4595544,21.2502432 16.9867745,21.2502432 C17.0148795,21.1442208 17.010837,21.0461307 17.010837,20.9737723 C17.010837,20.5732861 16.6572146,20.1037305 16.3588396,19.7757961 C16.3675021,19.8729189 16.3628821,19.8632453 16.3628821,19.9758458 C16.3628821,20.9254044 16.2772196,21.3612959 15.6779672,21.3612959 C15.3844048,21.3612959 15.1813173,21.1995536 15.1116323,21.1521531 C15.5004823,20.7903612 15.5203098,20.5080862 15.5203098,19.9750719 L15.5172298,19.514416 C15.5164598,19.3938832 15.5187698,19.232141 15.5372497,19.1147037 C15.3228048,19.0851025 15.2363723,19.0858764 15.0708223,19.0858764 C15.0708223,19.0858764 14.2188175,19.017581 14.0139975,19.4637265 C13.7835751,19.2499404 13.4476626,18.9498659 13.4476626,18.6170948 C13.4476626,18.3984718 13.5508426,18.1500543 13.9893575,18.1500543 C14.1556775,18.1500543 14.6781224,18.2520138 15.1156748,18.2520138 C14.9980573,17.9890859 14.4740724,17.2206167 14.0220825,16.6624512 C13.9531675,16.8795263 13.8469075,17.1144008 13.6091701,17.3041965 C13.5764451,16.946274 13.3668126,15.8127239 12.8083702,15.1493098 C12.7436902,15.5964227 12.6557178,16.0563047 12.6557178,17.0259843 C12.6557178,19.3842096 13.2205127,21.1256475 14.4180549,21.459386 C14.26213,21.7335352 13.9323775,21.977116 13.5908826,21.977116 C13.1525602,21.977116 12.9140527,21.4777658 12.6701553,21.0089841 C12.5436828,21.3564591 12.1933328,22.2054125 11.8428867,22.2054125 C11.4917186,22.2054125 11.1413205,21.3564591 11.0157143,21.0089841 C10.7717206,21.4777658 10.5333575,21.977116 10.0949388,21.977116 C9.75252952,21.977116 9.42296958,21.7335352 9.26694836,21.459386 C10.4653088,21.1256475 11.0301037,19.3842096 11.0301037,17.0259843 C11.0301037,16.0563047 10.9421312,15.5964227 10.8773068,15.1493098 C10.3189607,15.8127239 10.1093282,16.946274 10.0773251,17.3041965 C9.83973201,17.1144008 9.73255765,16.8795263 9.66373891,16.6624512 C9.21097899,17.2206167 8.6885822,17.9890859 8.57014661,18.2520138 C9.00779528,18.2520138 9.53014394,18.1500543 9.69656015,18.1500543 C10.1349307,18.1500543 10.2381588,18.3984718 10.2381588,18.6170948 C10.2381588,18.9498659 9.90215012,19.2499404 9.67095766,19.4637265 C9.46695582,19.017581 8.6149991,19.0858764 8.6149991,19.0858764 C8.449401,19.0858764 8.36296852,19.0851025 8.14857168,19.1147037 C8.16700354,19.232141 8.1701798,19.3938832 8.16859167,19.514416 L8.1653673,19.9750719 C8.1653673,20.5080862 8.18456917,20.7903612 8.5749591,21.1521531 C8.50378224,21.1995536 8.30136853,21.3612959 8.00780608,21.3612959 C7.40860182,21.3612959 7.32221745,20.9254044 7.32221745,19.9758458 C7.32221745,19.8632453 7.31822308,19.8729189 7.32702995,19.7757961 C7.02860688,20.1037305 6.67503256,20.5732861 6.67503256,20.9737723 C6.67503256,21.0461307 6.67103819,21.1442208 6.69899881,21.2502432 C6.22703702,21.2502432 5.8686502,20.7582449 5.8686502,20.4301171 C5.8686502,19.9340559 6.62623382,19.3182358 6.86782128,19.0481495 C5.95744081,19.0440866 5.78943646,19.3213314 5.70622836,19.5345371 C5.4854309,19.3528672 5.29504843,19.0247394 5.29504843,18.615547 C5.29504843,18.3806724 5.3446653,18.1177445 5.79266084,18.1177445 C6.22145451,18.1177445 6.87581003,18.1813967 7.32539369,18.2624613 C7.67020926,17.7760737 8.35257351,16.8377365 8.67178658,16.111831 C8.5437741,16.1334998 8.35979226,16.1503319 8.07657668,16.1503319 C7.93499296,16.1503319 7.78219611,16.1358215 7.6941755,16.0965468 C8.25738228,15.6068701 8.78295531,15.0577978 9.20534836,14.4595836 C9.8133595,13.5976676 10.2117382,12.6368876 10.2117382,11.6027819 C10.2117382,11.3222481 10.1453257,11.0408437 10.0509526,10.7400921 L7.62141051,14.4611313 L6.48060759,16.2967899 C5.44226277,17.9465222 4.62866166,17.9184688 3.4015225,17.9184688 C4.41267669,17.1393587 5.09104658,16.1334998 5.4086234,15.6252499 L6.13266389,14.4611313 L8.66139157,10.3935845 C8.48539848,10.3356881 8.31181164,10.2745994 8.14217104,10.208674 L5.49823213,14.4611313 L5.26386342,14.8374336 C4.2262886,16.4871659 3.4126875,16.4583387 2.18631834,16.4583387 C3.03909319,15.8005352 3.64306183,15.0014975 4.00630926,14.4547468 L4.19269736,14.1653133 L6.98779686,9.66995232 C6.82859939,9.58230968 6.67344442,9.48987862 6.52382382,9.39420692 L4.23345925,13.0781964 C3.75110246,13.8453112 3.31672629,14.248893 2.86709449,14.4611313 C2.34951021,14.7072272 1.81113592,14.6998753 1.15514417,14.6998753 L1.44711849,14.4603575 C2.30393584,13.7207155 2.87108886,12.8707948 3.16229319,12.4053021 L5.5110334,8.62636651 C5.37262592,8.50012629 5.24143719,8.37146768 5.11746721,8.23802064 L3.45267939,10.9161996 C2.41510457,12.5668509 1.60155159,12.5370563 0.374364305,12.5370563 C1.39355537,11.7507877 2.05994213,10.758617 2.38151333,10.2416125 L4.31589736,7.13165332 C4.21189925,6.93871377 4.12306051,6.74088906 4.05029553,6.53827592 L3.07908508,8.10210685 C2.04074026,9.75275816 1.22713916,9.7230119 0,9.7230119 C1.01514857,8.94153174 1.68793596,7.9405097 2.00791902,7.42839037 L3.90471744,4.37951983 C4.08869928,3.43639415 4.57428044,2.55595328 5.29904282,1.90148723 C5.05586724,1.80823391 4.85268352,1.71096607 4.73025355,1.61771276 C5.96942395,1.61771276 7.19579311,0.984915529 7.87180487,0.984915529 C8.30618104,0.984915529 8.58617224,1.24624729 8.58617224,1.59198104 C8.55657537,1.97549011 8.16377919,2.36620601 7.43661057,2.36620601 C7.2718306,2.36620601 7.06142814,2.34453719 6.83023567,2.30676186 C6.43662137,2.85830102 6.11822642,3.35678059 6.11822642,4.06672461 C6.11822642,5.40225906 7.70779489,6.44342647 9.31098274,6.44342647 L9.57894269,6.43297899 C9.89651951,5.35074724 10.5725313,4.64162546 11.1125418,3.94856183 C10.4653088,3.71136565 9.74295266,3.09307879 9.74295266,2.8132705 C9.82457265,2.76586996 11.0661012,3.15663422 11.1941137,3.1911689 C11.4277124,3.14613839 11.5540886,2.92504872 11.5540886,2.90250927 C11.4213117,2.8800182 10.6429381,2.7795097 10.1117345,2.58410338 C9.70695518,2.4353721 9.50213521,2.16601126 9.50213521,2.06390663 C9.63255394,2.0430117 10.1237657,2.30274732 10.84771,2.30274732 C11.1148999,2.30274732 11.1661049,2.29229985 11.4317068,2.25931294 C11.2453187,1.81229681 10.8949206,1.4351723 10.5005363,1.4351723 C10.3421569,1.4351723 9.99493514,1.53408466 9.70536706,1.6812198 C9.50295335,1.36523232 9.32614212,0.951154727 9.32614212,0.724406014 C9.32614212,0.455867435 9.5893377,0.143120593 10.3317619,0.143120593 C10.53971,0.143120593 10.7333169,0.160823241 10.9133525,0.194584043 C11.0588824,0.222734162 11.1805424,0.255721068 11.310913,0.306313892 C11.2948874,0.10935982 11.3884905,0 11.7364823,0 C12.3477178,0 12.9741127,0.202613136 13.7419951,0.202613136 C13.9412325,0.202613136 14.0763675,0.194584063 14.190905,0.145539012 C14.14124,0.299880982 13.925255,0.525807439 13.7285201,0.709944031 C13.8507575,0.877200231 14.1668425,1.28160424 14.1668425,1.9352964 C14.1668425,2.98613738 13.4788476,3.85284178 13.4788476,4.91417859 C13.4788476,5.54533131 13.9620225,6.10252951 14.1067825,6.432979 L14.3739725,6.44342648 C15.9780747,6.44342648 17.5667769,5.40225907 17.5667769,4.06672462 C17.5667769,3.35678059 17.2491519,2.85830102 16.8554895,2.30676187 C16.6242971,2.3445372 16.4140871,2.36620602 16.2491146,2.36620602 C15.5220422,2.36620602 15.1283798,1.97549013 15.1004673,1.59198105 C15.1004673,1.2462473 15.3788223,0.984915539 15.8140647,0.984915539 C16.4899321,0.984915539 17.7163494,1.61771277 18.9554716,1.61771277 C18.8322717,1.71096608 18.6299542,1.80823392 18.3858642,1.90148724 C19.1115891,2.55595329 19.597074,3.43639416 19.781104,4.37951984 L21.6778062,7.42839038 C21.9969711,7.94050971 22.670721,8.94153175 23.6857733,9.72301191 C22.458586,9.72301191 21.6450812,9.75275817 20.6075063,8.10210685 L19.634804,6.53827592 C19.562809,6.74088906 19.473104,6.93871377 19.3699241,7.13165332 L21.3033937,10.2416125 C21.6258312,10.758617 22.291496,11.7507877 23.3113609,12.5370563 C22.0841736,12.5370563 21.2706687,12.5668509 20.2330939,10.9161996 L18.5675842,8.23802065 C18.4443842,8.37146769 18.3123292,8.5001263 18.1739218,8.62636652 L20.5235764,12.4053021 C20.8146363,12.8707948 21.3819337,13.7214894 22.2387511,14.4603575 L22.530581,14.6998753 C21.8747336,14.6998753 21.3363112,14.7062599 20.8186788,14.4611314 C20.3682289,14.2496669 19.934719,13.8453113 19.4523141,13.0781964 L17.1619495,9.39420693 C17.011607,9.48987863 16.857222,9.58230969 16.6980245,9.66995233 L19.493124,14.1653133 L19.678694,14.4611313 L19.678694,14.4611313 Z" id="Path" fill="#66CED1" fill-rule="nonzero"></path>
                    <path d="M9.64574592,16.1335357 C9.57971174,15.878618 9.51523853,15.6918248 9.26283281,15.6918248 C9.13388641,15.6918248 9.07253517,15.7157983 8.99472269,15.7465642 C8.72263915,16.5452798 7.67370794,18.0454187 7.50857519,18.2753641 C7.0556545,18.1974504 6.42270079,18.1135433 5.91003714,18.1135433 C5.79050392,18.1135433 5.62537116,18.101157 5.62537116,18.4058197 C5.62537116,18.5826239 5.69930485,18.8906828 5.78969978,18.9927698 C6.01537963,18.7112814 6.40382713,18.6273744 6.88503466,18.6273744 C7.07216304,18.6273744 7.29864704,18.696298 7.38435903,18.7178741 C6.77179266,19.3737479 6.19385167,19.9167467 6.19385167,20.2795449 C6.19385167,20.4829197 6.3936098,20.7512227 6.56110767,20.8409233 C6.56110767,20.3053164 7.08635377,19.5655355 7.6005784,19.1521932 C7.6005784,19.2253123 7.62493914,19.5058017 7.62493914,19.8104643 C7.62493914,20.8209455 7.71930748,21.0211238 8.08732032,21.0211238 C8.15411133,21.0211238 8.26971846,20.9953523 8.31300017,20.9677829 C8.11485032,20.7280483 8.03150346,20.4100005 8.03150346,19.8096652 C8.03150346,19.6370564 8.03618639,19.4742366 8.03618639,19.3331928 C8.03618639,19.0666879 8.0070954,18.8790956 7.98822174,18.7320585 C8.12975058,18.7112815 8.44899463,18.6631348 8.68413497,18.6631348 C9.18497302,18.6631348 9.49560802,18.7146777 9.72204472,18.952814 C9.88481235,18.8225582 10.0664537,18.5768303 10.0664537,18.4074179 C10.0664537,18.1632882 9.91073408,18.1467066 9.7472096,18.1467066 C9.4931956,18.1467066 9.28487574,18.2529889 8.32241335,18.2529889 C8.51190687,17.6802231 9.06704809,16.8757139 9.64574592,16.1335357 L9.64574592,16.1335357 L9.64574592,16.1335357 Z" id="Path" fill="#FFFFFF"></path>
                    <path d="M15.3637333,18.2529889 C14.4010698,18.2529889 14.1919597,18.1467066 13.9387566,18.1467066 C13.7758211,18.1467066 13.6193197,18.1632882 13.6193197,18.4074179 C13.6193197,18.5768303 13.80099,18.8225582 13.9629794,18.952814 C14.1894995,18.7146777 14.5009885,18.6631348 15.0019065,18.6631348 C15.2361856,18.6631348 15.5563795,18.7112815 15.697174,18.7320585 C15.67825,18.8790956 15.649864,19.0666879 15.649864,19.3331928 C15.649864,19.4742367 15.654595,19.6370564 15.654595,19.8096652 C15.654595,20.4100005 15.5713295,20.7280483 15.3731953,20.9677829 C15.416342,20.9953523 15.5319676,21.0211238 15.5987692,21.0211238 C15.9668409,21.0211238 16.0612716,20.8209455 16.0612716,19.8104643 C16.0612716,19.5058017 16.0856836,19.2253123 16.0856836,19.1521932 C16.6000377,19.5655355 17.1244215,20.3053164 17.1244215,20.8409233 C17.292845,20.7512227 17.4924931,20.4829197 17.4924931,20.2795449 C17.4924931,19.9167467 16.9137975,19.3737479 16.3017955,18.7178741 C16.3877105,18.696298 16.6140414,18.6273744 16.8011997,18.6273744 C17.2826261,18.6273744 17.6711356,18.7112814 17.8967096,18.9927698 C17.9871663,18.8906828 18.0604021,18.5826239 18.0604021,18.4058197 C18.0604021,18.101157 17.8951957,18.1135433 17.7755961,18.1135433 C17.2637021,18.1135433 16.6297483,18.1974504 16.1776542,18.2753641 C16.0124477,18.0454187 14.9633016,16.5452798 14.6913638,15.7465642 C14.613397,15.7157983 14.5520832,15.6918248 14.4230216,15.6918248 C14.1705755,15.6918248 14.1062339,15.878618 14.0401892,16.1335357 C14.6188849,16.8757139 15.1741149,17.6802231 15.3637333,18.2529889 L15.3637333,18.2529889 Z" id="Path" fill="#FFFFFF" fill-rule="nonzero"></path>
                    <path d="M18.6525465,4.39126312 C18.6525465,3.24060812 17.7847579,2.32828084 17.4791342,2.07250516 L17.259554,2.12111021 C17.5840557,2.50439025 18.1571499,3.14426084 18.1571499,3.99283595 C18.1571499,5.66213651 16.3279779,7.11156395 14.2410725,7.13941359 C14.2577646,7.31154449 14.256771,7.46210509 14.256771,7.59200616 C14.256771,7.83105287 14.2394828,8.06453925 14.211464,8.29002066 C16.5799486,8.25013958 18.6525465,6.3920271 18.6525465,4.39126312 L18.6525465,4.39126312 Z" id="Path" fill="#FFFFFF" fill-rule="nonzero"></path>
                    <path d="M5.52301346,3.992096 C5.52301346,3.14384787 6.08877522,2.50422384 6.41040489,2.12109148 L6.19328399,2.07250516 C5.89120061,2.32818229 5.03322683,3.24015803 5.03322683,4.39036964 C5.03322683,6.40468942 7.11249953,8.27487936 9.47430932,8.29002066 C9.44901703,8.0709989 9.43428364,7.83760249 9.43428364,7.58987935 C9.43428364,7.43453729 9.44165033,7.28326806 9.45549971,7.13904239 C7.36723965,7.13904239 5.52301346,5.67589464 5.52301346,3.992096 L5.52301346,3.992096 Z" id="Path" fill="#FFFFFF" fill-rule="nonzero"></path>
                    <path d="M11.8696255,2.36857733 C11.9843077,2.13561428 12.1389588,1.85702698 12.1389588,1.54980814 C12.1389588,0.70161595 11.3494021,0.296072166 10.2916092,0.296072166 C9.74876284,0.296072166 9.47430932,0.452451634 9.47430932,0.610274326 C9.47430932,0.766607237 9.65325532,1.11176871 9.72357978,1.21856672 C9.91898358,1.14193659 10.2707627,1.04985007 10.4748395,1.04985007 C11.2000279,1.04985007 11.7428743,1.77346011 11.8696255,2.36857733 L11.8696255,2.36857733 Z" id="Path" fill="#FFFFFF" fill-rule="nonzero"></path>
                    <path d="M12.0848915,1.46913909 C12.6289418,1.5773725 13.0009735,0.870153873 12.4836284,0.743975276 C12.5554563,0.976887943 12.2064464,1.14275212 12.2064464,1.14275212 C12.2064464,1.14275212 12.0740252,0.828125575 12.2447546,0.649751302 C11.9294485,0.493211121 11.8489644,0.684001787 11.8428867,0.884163306 C11.96702,1.05241706 12.0487933,1.25023586 12.0848915,1.46913909 L12.0848915,1.46913909 L12.0848915,1.46913909 Z" id="Path" fill="#FFFFFF"></path>
                </g>
                <line x1="49.5643993" y1="38.0835775" x2="49.5643993" y2="40.9478862" id="Path" stroke="#242424" stroke-width="1.5" fill="#F2F2F2" stroke-linecap="round"></line>
                <rect id="Rectangle" fill="#242424" x="11.5650265" y="18.2386194" width="26.4343463" height="1.82280005" rx="0.911400025"></rect>
                <rect id="Rectangle-Copy" fill="#242424" x="13.8453993" y="21.8842195" width="21.8736006" height="1.82280005" rx="0.911400025"></rect>
                <rect id="Rectangle-Copy-2" fill="#242424" x="11.5650265" y="70.1884208" width="26.4343463" height="1.82280005" rx="0.911400025"></rect>
            </g>
        </g>
    </g>
</svg>