<?xml version="1.0" encoding="UTF-8"?>
<svg width="140px" height="140px" viewBox="0 0 140 140" version="1.1" xmlns="http://www.w3.org/2000/svg" xmlns:xlink="http://www.w3.org/1999/xlink">
    <title>icon_reispepass_content copy 12</title>
    <g id="01_Design" stroke="none" stroke-width="1" fill="none" fill-rule="evenodd">
        <g id="icon_reispepass_content-copy-12">
            <circle id="Oval" fill="#F8F8F8" cx="70" cy="70" r="70"></circle>
            <g id="Group" transform="translate(14.000000, 21.000000)">
                <rect id="Rectangle-Copy-6" stroke="#DEDEDE" stroke-width="0.75" fill="#DEDEDE" transform="translate(57.962760, 6.571742) scale(-1, 1) translate(-57.962760, -6.571742) " x="57.3687021" y="1.8155805" width="1.1881161" height="9.51232202"></rect>
                <rect id="Rectangle-Copy-7" stroke="#DEDEDE" stroke-width="0.657174151" fill="#DEDEDE" x="58.0722892" y="0.328587076" width="6.35268346" height="4.16210296"></rect>
                <path d="M58.4737572,11.4983571 L59.6489934,14.1263149 L65.3033954,14.1269887 L65.3033954,17.8550177 L63.9881413,17.854044 L63.9881413,41.7283551 L67.0557479,41.7283661 L67.0550295,45.2321621 L69.684522,45.2331019 L69.6841068,51.8043571 L98.8138398,51.8043571 L98.8146854,49.6144578 L110.86747,49.6144578 L110.86747,77.8773275 L5.05805038,77.8773275 L5.05805038,49.6144578 L17.110504,49.6144578 L17.110021,51.8043571 L46.2399746,51.8043571 L46.2408881,45.2331018 L48.8689555,45.2321621 L48.8695655,41.7283661 L51.9360504,41.7283551 L51.9360504,17.8540436 L50.6221249,17.8550173 L50.6221249,14.1269886 L56.2735379,14.1263149 L57.4460105,11.4983571 L58.4737572,11.4983571 Z" id="Combined-Shape" stroke="#DEDEDE" stroke-width="1.09090909" fill="#DEDEDE"></path>
                <path d="M55.4320725,11.7029025 L56.6073016,14.3308446 L62.189759,14.3315098 L62.189759,17.6503208 L60.8745049,17.6493471 L60.8745049,41.9328998 L63.9420696,41.9329108 L63.9413512,45.4366345 L66.5708727,45.4375743 L66.5704575,52.0089025 L96.1092154,52.0089025 L96.110061,49.8190033 L107.753834,49.8190033 L107.753834,77.672782 L2.35350493,77.672782 L2.35350493,49.8190033 L13.9968225,49.8190033 L13.9963395,52.0089025 L43.5354007,52.0089025 L43.5363142,45.4375742 L46.1643744,45.4366344 L46.1649844,41.9329108 L49.2315049,41.9328998 L49.2315049,17.6493465 L47.9175794,17.6503202 L47.9175794,14.3315097 L53.4971752,14.3308445 L54.6696408,11.7029025 L55.4320725,11.7029025 Z" id="Combined-Shape" stroke="#242424" stroke-width="1.5" fill="#FFE2D4"></path>
                <path d="M55.0536692,61.7182366 C56.0515473,61.7182366 56.9549564,62.1227066 57.608896,62.7766462 C58.2628356,63.4305857 58.6673056,64.3339948 58.6673056,65.3318729 L58.6673056,65.3318729 L58.6673056,77.672782 L51.4400329,77.672782 L51.4400329,65.3318729 C51.4400329,64.3339948 51.8445029,63.4305857 52.4984424,62.7766462 C53.152382,62.1227066 54.0557911,61.7182366 55.0536692,61.7182366 Z" id="Rectangle" stroke="#242424" stroke-width="1.5" fill="#FFFFFF"></path>
                <rect id="Rectangle-Copy-6" stroke="#242424" stroke-width="1.5" fill="#FFFFFF" transform="translate(55.053669, 6.000000) scale(-1, 1) translate(-55.053669, -6.000000) " x="54.8346112" y="0.75" width="1" height="10.5"></rect>
                <rect id="Rectangle-Copy-7" stroke="#242424" stroke-width="0.657174151" fill="#242424" x="55.1631982" y="0.328587076" width="6.35268346" height="4.16210296"></rect>
                <g id="Group-21" transform="translate(0.639650, 61.248631)" fill="#FFFFFF" stroke="#242424" stroke-width="1.5">
                    <path d="M15.3324271,0.786972556 C15.4565448,0.75 15.4881029,0.76412902 15.5109464,0.786972556 C15.5337899,0.809816091 15.5479189,0.841374142 15.5479189,0.876232202 L15.5479189,0.876232202 L15.5479189,10.1590909 L15.2954545,10.1590909 L15.2954545,0.876232202 C15.2954545,0.841374142 15.3095836,0.809816091 15.3324271,0.786972556 Z" id="Rectangle-Copy-10"></path>
                    <path d="M62.648966,0.786972556 C62.7730837,0.75 62.8046417,0.76412902 62.8274853,0.786972556 C62.8503288,0.809816091 62.8644578,0.841374142 62.8644578,0.876232202 L62.8644578,0.876232202 L62.8644578,10.1590909 L62.6119934,10.1590909 L62.6119934,0.876232202 C62.6119934,0.841374142 62.6261224,0.809816091 62.648966,0.786972556 Z" id="Rectangle-Copy-22"></path>
                    <path d="M33.7333033,0.786972556 C33.857421,0.75 33.8889791,0.76412902 33.9118226,0.786972556 C33.9346662,0.809816091 33.9487952,0.841374142 33.9487952,0.876232202 L33.9487952,0.876232202 L33.9487952,10.1590909 L33.6963308,10.1590909 L33.6963308,0.876232202 C33.6963308,0.841374142 33.7104598,0.809816091 33.7333033,0.786972556 Z" id="Rectangle-Copy-17"></path>
                    <path d="M81.0498422,0.786972556 C81.1739599,0.75 81.205518,0.76412902 81.2283615,0.786972556 C81.251205,0.809816091 81.2653341,0.841374142 81.2653341,0.876232202 L81.2653341,0.876232202 L81.2653341,10.1590909 L81.0128697,10.1590909 L81.0128697,0.876232202 C81.0128697,0.841374142 81.0269987,0.809816091 81.0498422,0.786972556 Z" id="Rectangle-Copy-23"></path>
                    <path d="M24.5328652,0.786972556 C24.6569829,0.75 24.688541,0.76412902 24.7113845,0.786972556 C24.734228,0.809816091 24.7483571,0.841374142 24.7483571,0.876232202 L24.7483571,0.876232202 L24.7483571,10.1590909 L24.4958927,10.1590909 L24.4958927,0.876232202 C24.4958927,0.841374142 24.5100217,0.809816091 24.5328652,0.786972556 Z" id="Rectangle-Copy-14"></path>
                    <path d="M71.8494041,0.786972556 C71.9735218,0.75 72.0050799,0.76412902 72.0279234,0.786972556 C72.0507669,0.809816091 72.0648959,0.841374142 72.0648959,0.876232202 L72.0648959,0.876232202 L72.0648959,10.1590909 L71.8124315,10.1590909 L71.8124315,0.876232202 C71.8124315,0.841374142 71.8265606,0.809816091 71.8494041,0.786972556 Z" id="Rectangle-Copy-24"></path>
                    <path d="M42.9337414,0.786972556 C43.0578592,0.75 43.0894172,0.76412902 43.1122607,0.786972556 C43.1351043,0.809816091 43.1492333,0.841374142 43.1492333,0.876232202 L43.1492333,0.876232202 L43.1492333,10.1590909 L42.8967689,10.1590909 L42.8967689,0.876232202 C42.8967689,0.841374142 42.9108979,0.809816091 42.9337414,0.786972556 Z" id="Rectangle-Copy-18"></path>
                    <path d="M90.2502803,0.786972556 C90.374398,0.75 90.4059561,0.76412902 90.4287996,0.786972556 C90.4516432,0.809816091 90.4657722,0.841374142 90.4657722,0.876232202 L90.4657722,0.876232202 L90.4657722,10.1590909 L90.2133078,10.1590909 L90.2133078,0.876232202 C90.2133078,0.841374142 90.2274368,0.809816091 90.2502803,0.786972556 Z" id="Rectangle-Copy-25"></path>
                    <path d="M18.3992398,0.786972556 C18.5233575,0.75 18.5549156,0.76412902 18.5777591,0.786972556 C18.6006026,0.809816091 18.6147317,0.841374142 18.6147317,0.876232202 L18.6147317,0.876232202 L18.6147317,10.1590909 L18.3622673,10.1590909 L18.3622673,0.876232202 C18.3622673,0.841374142 18.3763963,0.809816091 18.3992398,0.786972556 Z" id="Rectangle-Copy-12"></path>
                    <path d="M65.7157787,0.786972556 C65.8398964,0.75 65.8714544,0.76412902 65.894298,0.786972556 C65.9171415,0.809816091 65.9312705,0.841374142 65.9312705,0.876232202 L65.9312705,0.876232202 L65.9312705,10.1590909 L65.6788061,10.1590909 L65.6788061,0.876232202 C65.6788061,0.841374142 65.6929352,0.809816091 65.7157787,0.786972556 Z" id="Rectangle-Copy-26"></path>
                    <path d="M36.800116,0.786972556 C36.9242337,0.75 36.9557918,0.76412902 36.9786353,0.786972556 C37.0014789,0.809816091 37.0156079,0.841374142 37.0156079,0.876232202 L37.0156079,0.876232202 L37.0156079,10.1590909 L36.7631435,10.1590909 L36.7631435,0.876232202 C36.7631435,0.841374142 36.7772725,0.809816091 36.800116,0.786972556 Z" id="Rectangle-Copy-19"></path>
                    <path d="M84.1166549,0.786972556 C84.2407726,0.75 84.2723307,0.76412902 84.2951742,0.786972556 C84.3180177,0.809816091 84.3321468,0.841374142 84.3321468,0.876232202 L84.3321468,0.876232202 L84.3321468,10.1590909 L84.0796824,10.1590909 L84.0796824,0.876232202 C84.0796824,0.841374142 84.0938114,0.809816091 84.1166549,0.786972556 Z" id="Rectangle-Copy-27"></path>
                    <path d="M27.5996779,0.786972556 C27.7237956,0.75 27.7553537,0.76412902 27.7781972,0.786972556 C27.8010407,0.809816091 27.8151698,0.841374142 27.8151698,0.876232202 L27.8151698,0.876232202 L27.8151698,10.1590909 L27.5627054,10.1590909 L27.5627054,0.876232202 C27.5627054,0.841374142 27.5768344,0.809816091 27.5996779,0.786972556 Z" id="Rectangle-Copy-15"></path>
                    <path d="M74.9162168,0.786972556 C75.0403345,0.75 75.0718926,0.76412902 75.0947361,0.786972556 C75.1175796,0.809816091 75.1317087,0.841374142 75.1317087,0.876232202 L75.1317087,0.876232202 L75.1317087,10.1590909 L74.8792442,10.1590909 L74.8792442,0.876232202 C74.8792442,0.841374142 74.8933733,0.809816091 74.9162168,0.786972556 Z" id="Rectangle-Copy-28"></path>
                    <path d="M46.0005542,0.786972556 C46.1246719,0.75 46.1562299,0.76412902 46.1790734,0.786972556 C46.201917,0.809816091 46.216046,0.841374142 46.216046,0.876232202 L46.216046,0.876232202 L46.216046,10.1590909 L45.9635816,10.1590909 L45.9635816,0.876232202 C45.9635816,0.841374142 45.9777106,0.809816091 46.0005542,0.786972556 Z" id="Rectangle-Copy-20"></path>
                    <path d="M93.317093,0.786972556 C93.4412107,0.75 93.4727688,0.76412902 93.4956123,0.786972556 C93.5184559,0.809816091 93.5325849,0.841374142 93.5325849,0.876232202 L93.5325849,0.876232202 L93.5325849,10.1590909 L93.2801205,10.1590909 L93.2801205,0.876232202 C93.2801205,0.841374142 93.2942495,0.809816091 93.317093,0.786972556 Z" id="Rectangle-Copy-29"></path>
                    <path d="M21.4660525,0.786972556 C21.5901702,0.75 21.6217283,0.76412902 21.6445718,0.786972556 C21.6674153,0.809816091 21.6815444,0.841374142 21.6815444,0.876232202 L21.6815444,0.876232202 L21.6815444,10.1590909 L21.42908,10.1590909 L21.42908,0.876232202 C21.42908,0.841374142 21.443209,0.809816091 21.4660525,0.786972556 Z" id="Rectangle-Copy-13"></path>
                    <path d="M68.7825914,0.786972556 C68.9067091,0.75 68.9382672,0.76412902 68.9611107,0.786972556 C68.9839542,0.809816091 68.9980832,0.841374142 68.9980832,0.876232202 L68.9980832,0.876232202 L68.9980832,10.1590909 L68.7456188,10.1590909 L68.7456188,0.876232202 C68.7456188,0.841374142 68.7597479,0.809816091 68.7825914,0.786972556 Z" id="Rectangle-Copy-30"></path>
                    <path d="M39.8669287,0.786972556 C39.9910464,0.75 40.0226045,0.76412902 40.045448,0.786972556 C40.0682916,0.809816091 40.0824206,0.841374142 40.0824206,0.876232202 L40.0824206,0.876232202 L40.0824206,10.1590909 L39.8299562,10.1590909 L39.8299562,0.876232202 C39.8299562,0.841374142 39.8440852,0.809816091 39.8669287,0.786972556 Z" id="Rectangle-Copy-21"></path>
                    <path d="M87.1834676,0.786972556 C87.3075853,0.75 87.3391434,0.76412902 87.3619869,0.786972556 C87.3848305,0.809816091 87.3989595,0.841374142 87.3989595,0.876232202 L87.3989595,0.876232202 L87.3989595,10.1590909 L87.1464951,10.1590909 L87.1464951,0.876232202 C87.1464951,0.841374142 87.1606241,0.809816091 87.1834676,0.786972556 Z" id="Rectangle-Copy-31"></path>
                    <path d="M30.6664906,0.786972556 C30.7906083,0.75 30.8221664,0.76412902 30.8450099,0.786972556 C30.8678535,0.809816091 30.8819825,0.841374142 30.8819825,0.876232202 L30.8819825,0.876232202 L30.8819825,10.1590909 L30.6295181,10.1590909 L30.6295181,0.876232202 C30.6295181,0.841374142 30.6436471,0.809816091 30.6664906,0.786972556 Z" id="Rectangle-Copy-16"></path>
                    <path d="M77.9830295,0.786972556 C78.1071472,0.75 78.1387053,0.76412902 78.1615488,0.786972556 C78.1843923,0.809816091 78.1985214,0.841374142 78.1985214,0.876232202 L78.1985214,0.876232202 L78.1985214,10.1590909 L77.946057,10.1590909 L77.946057,0.876232202 C77.946057,0.841374142 77.960186,0.809816091 77.9830295,0.786972556 Z" id="Rectangle-Copy-32"></path>
                </g>
                <path d="M7.95618839,55.9526287 C8.55240488,55.9526287 9.09217761,56.1942932 9.48289621,56.5850118 C9.87361482,56.9757304 10.1152793,57.5155031 10.1152793,58.1117196 L10.1152793,58.1117196 L10.1152793,77.725356 L5.79709748,77.725356 L5.79709748,58.1117196 C5.79709748,57.5155031 6.03876196,56.9757304 6.42948057,56.5850118 C6.82019917,56.1942932 7.3599719,55.9526287 7.95618839,55.9526287 Z" id="Rectangle-Copy-8" stroke="#242424" stroke-width="1.5" fill="#FFFFFF"></path>
                <path d="M102.15115,55.9526287 C102.747367,55.9526287 103.287139,56.1942932 103.677858,56.5850118 C104.068576,56.9757304 104.310241,57.5155031 104.310241,58.1117196 L104.310241,58.1117196 L104.310241,77.725356 L99.9920591,77.725356 L99.9920591,58.1117196 C99.9920591,57.5155031 100.233724,56.9757304 100.624442,56.5850118 C101.015161,56.1942932 101.554934,55.9526287 102.15115,55.9526287 Z" id="Rectangle-Copy-9" stroke="#242424" stroke-width="1.5" fill="#FFFFFF"></path>
                <path d="M87.9794711,59.6363636 L109.818182,59.6363636 L109.818182,60.0744797 L88,60.0744797 M81.7669691,60.0744797 L0.727272727,60.0744797 L0.727272727,59.6363636 L81.7694475,59.6363636 M85.7581757,60.0744797 L83.955791,60.0744797 M84.0409131,59.6363636 L85.7436615,59.6363636" id="Shape" stroke="#242424" stroke-width="0.7" fill="#FFFFFF" stroke-linecap="round" stroke-linejoin="round"></path>
                <rect id="Rectangle-Copy-11" stroke="#242424" stroke-width="0.7" fill="#FFFFFF" transform="translate(55.272727, 72.219058) scale(1, -1) translate(-55.272727, -72.219058) " x="0.727272727" y="72" width="109.090909" height="1"></rect>
            </g>
        </g>
    </g>
</svg>