<?xml version="1.0" encoding="UTF-8"?>
<svg width="140px" height="140px" viewBox="0 0 140 140" version="1.1" xmlns="http://www.w3.org/2000/svg" xmlns:xlink="http://www.w3.org/1999/xlink">
    <title>vignette_wohnung</title>
    <g id="vignette_wohnung" stroke="none" stroke-width="1" fill="none" fill-rule="evenodd">
        <g>
            <circle id="Oval" fill="#F8F8F8" cx="70" cy="70" r="70"></circle>
            <g id="icon_wohnung" transform="translate(31.000000, 30.000000)">
                <path d="M40,5.46571335e-15 L65.3846154,23.8461538 L66.7179487,56.9874209 C65.6794203,61.4573454 63.4049692,63.6923077 59.8945955,63.6923077 C56.3842217,63.6923077 43.4620916,63.6923077 21.1282051,63.6923077 C16.4102564,63.0632479 14.0512821,60.7042735 14.0512821,56.6153846 C14.0512821,52.5264957 14.0512821,41.6034188 14.0512821,23.8461538 L40,5.46571335e-15 Z" id="Path-2" fill="#F8F8F8"></path>
                <path d="M65.9487179,53.453716 L65.9487179,56.6153846 C65.9487179,60.5238613 62.7802716,63.6923077 58.8717949,63.6923077 L21.1282051,63.6923077 C17.2197284,63.6923077 14.0512821,60.5238613 14.0512821,56.6153846 L14.0512821,24.3552669" id="Path" stroke="#242424" stroke-width="1.5"></path>
                <path d="M16.3076923,79.4065934 C24.5128205,72.2355444 28.6153846,65.9638159 28.6153846,60.5914079 C28.6153846,52.5327958 23.1050431,46 16.3076923,46 C9.51034154,46 4,52.5327958 4,60.5914079 C4,65.9638159 8.1025641,72.2355444 16.3076923,79.4065934 Z" id="Oval" fill-opacity="0.1" fill="#000000" style="mix-blend-mode: darken;"></path>
                <line x1="65.3846154" y1="23.8461538" x2="65.9487179" y2="41.0446968" id="Path" stroke="#242424" stroke-width="2" fill="#FFFFFF"></line>
                <line x1="65.9487179" y1="45.5714087" x2="65.9487179" y2="48.9435897" id="Path" stroke="#242424" stroke-width="2" stroke-linecap="round" stroke-linejoin="round"></line>
                <polyline id="Path" stroke="#242424" stroke-width="1.5" stroke-linecap="round" stroke-linejoin="round" points="4.61538462 33.025641 40 3.71668508e-13 75.3846154 33.025641"></polyline>
                <rect id="Rectangle" stroke="#242424" stroke-width="1.5" fill="#CCEFF0" x="28.9551282" y="38.25" width="19.7307692" height="25.5" rx="3.07692308"></rect>
                <rect id="Rectangle" stroke="#242424" stroke-width="1.5" fill="#00ADB2" x="33.6730769" y="38.25" width="15.0128205" height="25.5" rx="3.07692308"></rect>
                <path d="M12.3076923,46.7788462 C15.5234778,46.7788462 18.4278124,48.3349684 20.5328014,50.8305421 C22.6730671,53.3679381 23.9903846,56.8749629 23.9903846,60.745254 C23.9903846,65.9100971 20.0365171,71.887766 12.3064946,78.7270638 C4.5783764,71.8870235 0.625,65.9097763 0.625,60.745254 C0.625,56.8749629 1.94231753,53.3679381 4.08258324,50.8305421 C6.18757222,48.3349684 9.09190683,46.7788462 12.3076923,46.7788462 Z" id="Oval" stroke="#242424" stroke-width="1.25" fill="#CCEFF0"></path>
                <circle id="Oval" stroke="#242424" stroke-width="1.36752137" fill="#FFFFFF" cx="12.3076923" cy="58.1802198" r="4.59096459"></circle>
            </g>
        </g>
    </g>
</svg>