<?xml version="1.0" encoding="UTF-8"?>
<svg width="140px" height="140px" viewBox="0 0 140 140" version="1.1" xmlns="http://www.w3.org/2000/svg" xmlns:xlink="http://www.w3.org/1999/xlink">
    <title>vignette_mailaccount</title>
    <g id="vignette_mailaccount" stroke="none" stroke-width="1" fill="none" fill-rule="evenodd">
        <g>
            <circle id="Oval" fill="#EFEFEF" cx="70" cy="70" r="70"></circle>
            <g id="Group-16" transform="translate(21.000000, 38.000000)" stroke-width="1.5">
                <g id="Group-8">
                    <rect id="Rectangle" stroke="#DEDEDE" fill="#DEDEDE" x="12.7717734" y="4.84798023" width="79.7204555" height="58.6633004" rx="4.01088669"></rect>
                    <path d="M43.875,56.487 C43.9217007,57.5322484 44.0725228,58.0096771 44.2922731,58.4508767 C44.6837635,59.1866778 45.172583,59.6754974 45.7954371,60.0086034 C46.3313349,60.2952046 46.8746051,60.4767299 48.139647,60.4971539 L48.139647,60.4971539 L57.8824466,60.4990331 C59.3280402,60.4990331 59.9034928,60.312263 60.4712869,60.0086034 C61.0941409,59.6754974 61.5829605,59.1866778 61.9160665,58.5638238 C62.1400999,58.1449177 62.2999277,57.7215067 62.3687538,56.955368 L62.3687538,56.955368 L101.015363,56.4970927 L101.015363,61.2531156 C101.015363,62.7073725 100.425909,64.023955 99.4728908,64.9769733 C98.5198725,65.9299916 97.20329,66.5194456 95.7490331,66.5194456 L95.7490331,66.5194456 L10.01633,66.5194456 C8.56207315,66.5194456 7.24549065,65.9299916 6.29247236,64.9769733 C5.33945407,64.023955 4.75,62.7073725 4.75,61.2531156 L4.75,61.2531156 L4.75,56.4881382 L43.875,56.487 Z" id="Combined-Shape" stroke="#DEDEDE" fill="#DEDEDE"></path>
                    <rect id="Rectangle" stroke="#242424" fill="#F8F8F8" x="8.77177338" y="0.847980232" width="79.7204555" height="58.6633004" rx="4.01088669"></rect>
                    <rect id="Rectangle" stroke="#242424" fill="#DEDEDE" x="12.3820011" y="4.75" width="72.5" height="44.5" rx="4.01088669"></rect>
                    <g id="Group-13" transform="translate(28.076207, 11.000000)" stroke="#242424">
                        <rect id="Rectangle-Copy-33" fill="#66CED1" x="0.75" y="1.67304803" width="39.6115886" height="26.8172043" rx="3.4428212"></rect>
                        <path d="M1.532079,25.9515721 C3.54110946,23.840477 6.14744727,21.1017295 9.35109244,17.7353296 M31.8938149,17.9126918 C35.0127954,21.1901257 37.5612146,23.8680122 39.5390725,25.9463511" id="Shape" stroke-linecap="round" stroke-linejoin="round"></path>
                        <path d="M39.5390725,5.95601941 C36.0697509,9.60876055 30.835153,15.1451417 23.8352788,22.5651627 C21.9927588,24.5050949 18.9024989,24.3967076 16.9329901,22.3230729 C10.091249,15.1196159 4.95994308,9.71702305 1.53907251,6.11529452" id="Path" stroke-linecap="round" stroke-linejoin="round"></path>
                    </g>
                    <path d="M39.875,52.487 C39.9217007,53.5322484 40.0725228,54.0096771 40.2922731,54.4508767 C40.6837635,55.1866778 41.172583,55.6754974 41.7954371,56.0086034 C42.3313349,56.2952046 42.8746051,56.4767299 44.139647,56.4971539 L44.139647,56.4971539 L53.8824466,56.4990331 C55.3280402,56.4990331 55.9034928,56.312263 56.4712869,56.0086034 C57.0941409,55.6754974 57.5829605,55.1866778 57.9160665,54.5638238 C58.1400999,54.1449177 58.2999277,53.7215067 58.3687538,52.955368 L58.3687538,52.955368 L97.0153631,52.4970927 L97.0153631,57.2531156 C97.0153631,58.7073725 96.4259091,60.023955 95.4728908,60.9769733 C94.5198725,61.9299916 93.20329,62.5194456 91.7490331,62.5194456 L91.7490331,62.5194456 L6.01633004,62.5194456 C4.56207315,62.5194456 3.24549065,61.9299916 2.29247236,60.9769733 C1.33945407,60.023955 0.75,58.7073725 0.75,57.2531156 L0.75,57.2531156 L0.75,52.4881382 L39.875,52.487 Z" id="Combined-Shape" stroke="#242424" fill="#F8F8F8"></path>
                </g>
            </g>
        </g>
    </g>
</svg>