<?xml version="1.0" encoding="UTF-8"?>
<svg width="140px" height="140px" viewBox="0 0 140 140" version="1.1" xmlns="http://www.w3.org/2000/svg" xmlns:xlink="http://www.w3.org/1999/xlink">
    <title>vignette_expresstermin</title>
    <defs>
        <linearGradient x1="64.1561707%" y1="61.9555903%" x2="34.3821013%" y2="29.1576955%" id="linearGradient-1">
            <stop stop-color="#008A8E" offset="0%"></stop>
            <stop stop-color="#66CED1" offset="100%"></stop>
        </linearGradient>
    </defs>
    <g id="vignette_expresstermin" stroke="none" stroke-width="1" fill="none" fill-rule="evenodd">
        <g>
            <circle id="Oval" fill="#F8F8F8" cx="70" cy="70" r="70"></circle>
            <g id="icon_terminbuchung" transform="translate(38.000000, 36.000000)">
                <rect id="Rectangle" fill="#DEDEDE" x="5.78512397" y="7.43801653" width="61.9834711" height="66.9421488" rx="4.1322314"></rect>
                <path d="M18.1538468,69.4214876 L4.8315321,69.4214876 C2.1631506,69.4214876 0,67.1361156 0,64.3169665 L0,12.5425377 C0,9.72338849 2.1631506,7.43801653 4.8315321,7.43801653 L57.9783853,7.43801653 C60.6467668,7.43801653 62.8099174,9.72338849 62.8099174,12.5425377 L62.8099174,64.3169665 C62.8099174,67.1361156 60.6467668,69.4214876 57.9783853,69.4214876 L34.386267,69.4214876 L30.5422954,69.4214876 M24.7933884,69.5 L23.1404959,69.5" id="Shape" stroke="#242424" stroke-width="1.5" fill="#F2F2F2" stroke-linecap="round" stroke-linejoin="round"></path>
                <path d="M3.08539945,2.47933884 L59.7245179,2.47933884 C61.428537,2.47933884 62.8099174,3.86071923 62.8099174,5.56473829 L62.8099174,51.6824288 L62.8099174,51.6824288 L49.9454318,65.2892562 L3.08539945,65.2892562 C1.38138039,65.2892562 6.52771359e-16,63.9078758 0,62.2038567 L0,5.56473829 C-6.52771359e-16,3.86071923 1.38138039,2.47933884 3.08539945,2.47933884 Z" id="Rectangle" stroke="#242424" stroke-width="1.5" fill="#CCEFF0" stroke-linejoin="round"></path>
                <rect id="Rectangle-Copy-8" stroke="#242424" stroke-width="1.5" fill="#D8D8D8" x="27.196281" y="0.75" width="1" height="3.7892562" rx="0.5"></rect>
                <rect id="Rectangle-Copy-11" stroke="#242424" stroke-width="1.5" fill="#D8D8D8" x="18.9318182" y="0.75" width="1" height="3.7892562" rx="0.5"></rect>
                <rect id="Rectangle-Copy-20" stroke="#242424" stroke-width="1.5" fill="#D8D8D8" x="11.4938017" y="0.75" width="1" height="3.7892562" rx="0.5"></rect>
                <rect id="Rectangle-Copy-9" stroke="#242424" stroke-width="1.5" fill="#D8D8D8" x="34.6342975" y="0.75" width="1" height="3.7892562" rx="0.5"></rect>
                <rect id="Rectangle-Copy-10" stroke="#242424" stroke-width="1.5" fill="#D8D8D8" x="42.8987603" y="0.75" width="1" height="3.7892562" rx="0.5"></rect>
                <rect id="Rectangle-Copy-14" stroke="#242424" stroke-width="1.5" fill="#D8D8D8" x="50.3367769" y="0.75" width="1" height="3.7892562" rx="0.5"></rect>
                <g id="Group-2" transform="translate(8.264463, 24.793388)" fill="#EFEFEF" stroke="#242424" stroke-width="1.5">
                    <circle id="Oval" cx="9.6573498" cy="4.45723837" r="3.70723837"></circle>
                    <path d="M9.6573498,9.0051769 C11.6027012,9.0051769 13.2423586,9.63408632 14.5706,10.9056951 C15.9588247,12.2347298 17.0055536,14.2378191 17.7456379,16.8916993 C17.8079705,17.1152187 17.8395724,17.3461858 17.8395724,17.5782338 C17.8395724,18.2839956 17.5535059,18.922943 17.0909989,19.3854494 C16.6284924,19.8479553 15.9895457,20.1340206 15.283783,20.1340189 L15.283783,20.1340189 L4.03090922,20.1340189 C3.79886305,20.1340189 3.56789777,20.1024174 3.3443801,20.0400854 C2.66456152,19.8505057 2.12594376,19.4033225 1.80467428,18.8335795 C1.48340387,18.2638349 1.3794828,17.5715298 1.56905799,16.8917124 C2.30914195,14.2378278 3.35587095,12.2347351 4.74409642,10.9056982 C6.07233837,9.63408736 7.71199678,9.0051769 9.6573498,9.0051769 Z" id="Oval"></path>
                </g>
                <g id="Group-2-Copy" transform="translate(35.537190, 24.793388)" fill="#F2F2F2" stroke="#242424" stroke-width="1.5">
                    <circle id="Oval" cx="9.6573498" cy="4.45723837" r="3.70723837"></circle>
                    <path d="M9.6573498,9.0051769 C11.6027012,9.0051769 13.2423586,9.63408632 14.5706,10.9056951 C15.9588247,12.2347298 17.0055536,14.2378191 17.7456379,16.8916993 C17.8079705,17.1152187 17.8395724,17.3461858 17.8395724,17.5782338 C17.8395724,18.2839956 17.5535059,18.922943 17.0909989,19.3854494 C16.6284924,19.8479553 15.9895457,20.1340206 15.283783,20.1340189 L15.283783,20.1340189 L4.03090922,20.1340189 C3.79886305,20.1340189 3.56789777,20.1024174 3.3443801,20.0400854 C2.66456152,19.8505057 2.12594376,19.4033225 1.80467428,18.8335795 C1.48340387,18.2638349 1.3794828,17.5715298 1.56905799,16.8917124 C2.30914195,14.2378278 3.35587095,12.2347351 4.74409642,10.9056982 C6.07233837,9.63408736 7.71199678,9.0051769 9.6573498,9.0051769 Z" id="Oval"></path>
                </g>
                <path d="M31.2672178,14.1260331 C33.0331239,14.1260331 34.6315893,14.8366173 35.7887504,15.9846669 C36.9480659,17.1348539 37.6646008,18.7239655 37.6646008,20.4789485 C37.6646008,22.2339316 36.9480659,23.8230432 35.7887504,24.9732302 C34.6315893,26.1212798 33.0331239,26.831864 31.2672178,26.831864 C30.8637823,26.831864 30.4690901,26.7947061 30.0864055,26.7237354 L30.0864055,26.7237354 L25.6691305,30.1779293 L26.5235598,24.7415458 C25.4955281,23.6140771 24.8698347,22.1189268 24.8698347,20.4789485 C24.8698347,18.7239655 25.5863697,17.1348539 26.7456851,15.9846669 C27.9028462,14.8366173 29.5013116,14.1260331 31.2672178,14.1260331 Z" id="Combined-Shape" stroke="#242424" stroke-width="1.5" fill="#F8F8F8" stroke-linejoin="round" transform="translate(31.267218, 21.645802) rotate(-90.000000) translate(-31.267218, -21.645802) "></path>
                <path d="M62.8099174,53.6262613 L46.2698645,65.2892562 L40.4958678,65.2892562 C44.3447066,65.2892562 46.267727,63.9332643 46.2649291,61.2212805 C46.2645242,60.8288143 46.2752048,60.742561 46.2698645,58.3141242 C46.2645242,55.8856874 47.3806081,54.1411942 50.9425045,54.1411942 C53.5525322,54.1411942 56.046946,54.1411942 58.4257458,54.1411942 C61.3485268,53.8782165 62.8099174,52.9167527 62.8099174,51.2568027 C62.8099174,49.5968527 62.8099174,50.3866722 62.8099174,53.6262613 Z" id="Path-4" fill="#DEDEDE" style="mix-blend-mode: normal;"></path>
                <path d="M62.8099174,51.6824288 L49.9454318,65.2892562 L45.4545455,65.2892562 C48.4480867,65.2892562 49.9437693,63.7072657 49.9415931,60.5432846 C49.9412782,60.0854073 49.9495854,59.9847785 49.9454318,57.1516022 C49.9412782,54.3184259 50.8093435,52.2831839 53.5797073,52.2831839 C55.6097289,52.2831839 57.5498285,52.2831839 59.4000061,52.2831839 C61.6732803,51.9763766 62.8099174,50.8546688 62.8099174,48.9180605 C62.8099174,46.9814521 62.8099174,47.9029082 62.8099174,51.6824288 Z" id="Path-4" stroke="#242424" stroke-width="1.5" fill="url(#linearGradient-1)"></path>
            </g>
        </g>
    </g>
</svg>