<?xml version="1.0" encoding="UTF-8"?>
<svg width="140px" height="140px" viewBox="0 0 140 140" version="1.1" xmlns="http://www.w3.org/2000/svg" xmlns:xlink="http://www.w3.org/1999/xlink">
    <title>vignette_otherservices</title>
    <g id="vignette_otherservices" stroke="none" stroke-width="1" fill="none" fill-rule="evenodd">
        <g>
            <circle id="Oval" fill="#F8F8F8" cx="70" cy="70" r="70"></circle>
            <g id="ICON-WEITERE-SERVICES" transform="translate(9.000000, 12.000000)">
                <g id="Group-28" transform="translate(0.000000, 36.000000)">
                    <circle id="Oval-Copy-13" fill="#DEDEDE" style="mix-blend-mode: multiply;" cx="29.4054054" cy="28.5405405" r="26.8108108"></circle>
                    <g id="Group-27-Copy" transform="translate(27.121622, 27.000000) scale(-1, 1) translate(-27.121622, -27.000000) translate(0.621622, 0.000000)" fill="#F8F8F8">
                        <circle id="Oval" cx="27" cy="26.8108108" r="26"></circle>
                        <path d="M36.1787453,1.80081051 C33.2729713,0.637833166 30.1139752,0 26.8108108,0 C12.4812605,0 0.864864865,12.0036089 0.864864865,26.8108108 C0.864864865,41.6180128 12.4812605,53.6216216 26.8108108,53.6216216 C41.1403611,53.6216216 52.7567568,41.6180128 52.7567568,26.8108108 C52.7567568,21.9562642 51.5081584,17.4030642 49.3247056,13.4754128 M46.462467,9.30420911 C45.204809,7.79811968 43.7877518,6.43815249 42.2383746,5.25228921" id="Shape" stroke="#242424" stroke-width="1.5" stroke-linecap="round" stroke-linejoin="round"></path>
                    </g>
                    <g id="Group-24" transform="translate(5.693694, 0.288288)" stroke="#242424" stroke-width="1.5">
                        <path d="M36.5278219,33.9586575 L36.5278219,38.0365072 L5.18918919,38.0365072 L5.18918919,17.2125066 L20.8585056,7.90634152 L36.5278219,17.2125066 L36.5278219,26.5032964 M36.5278219,29.1942592 L36.5278219,31.5424352" id="Shape" fill="#FFFFFF" stroke-linecap="round" stroke-linejoin="round"></path>
                        <rect id="Rectangle" fill="#F2F2F2" x="17.3990461" y="26.8612965" width="6.91891892" height="11.1584526"></rect>
                        <rect id="Rectangle-Copy-2" fill="#00ADB2" x="7.56756757" y="24.7758347" width="5.69793323" height="5.46051934"></rect>
                        <rect id="Rectangle-Copy-3" fill="#00ADB2" x="28.4684685" y="24.7758347" width="5.69793323" height="5.46051934"></rect>
                        <path d="M35.1033386,9.14043455 L12.9616627,12.4020442 L9.70005299,34.5437202 L6.6136725,34.5437202 L9.87528215,9.31566371 L35.1033386,6.05405405 L35.1033386,9.14043455 Z" id="Combined-Shape" fill="#66CED1" transform="translate(20.858506, 20.298887) rotate(-315.000000) translate(-20.858506, -20.298887) "></path>
                    </g>
                </g>
                <g id="Group-33" transform="translate(70.000000, 32.000000)">
                    <circle id="Oval-Copy-12" fill="#DEDEDE" style="mix-blend-mode: multiply;" cx="29.4054054" cy="29.4054054" r="26.8108108"></circle>
                    <g id="Group-27" fill="#F8F8F8">
                        <circle id="Oval" cx="26.5" cy="26.8108108" r="26.5"></circle>
                        <path d="M36.1787453,1.80081051 C33.2729713,0.637833166 30.1139752,0 26.8108108,0 C12.4812605,0 0.864864865,12.0036089 0.864864865,26.8108108 C0.864864865,41.6180128 12.4812605,53.6216216 26.8108108,53.6216216 C41.1403611,53.6216216 52.7567568,41.6180128 52.7567568,26.8108108 C52.7567568,21.9562642 51.5081584,17.4030642 49.3247056,13.4754128 M46.462467,9.30420911 C45.204809,7.79811968 43.7877518,6.43815249 42.2383746,5.25228921" id="Shape" stroke="#242424" stroke-width="1.5" stroke-linecap="round" stroke-linejoin="round"></path>
                    </g>
                    <g id="Group-32" transform="translate(6.918919, 14.702703)" stroke="#242424" stroke-width="1.5">
                        <circle id="Oval" fill="#EFEFEF" cx="7.74815265" cy="3.57607045" r="2.82607045"></circle>
                        <path d="M7.74815265,6.71011742 C8.98417308,6.71011742 10.0633873,7.03170083 10.9810116,7.68903786 C11.9280777,8.36746542 12.6992421,9.39289315 13.3149622,10.7473539 C13.5069724,11.1697379 13.6063177,11.6283384 13.6063177,12.092317 C13.6063177,12.9897812 13.2425485,13.8022825 12.6544131,14.3904172 C12.0662783,14.9785513 11.2537777,15.342319 10.3563128,15.342317 L10.3563128,15.342317 L5.1399906,15.342317 C4.67601077,15.342317 4.21740911,15.2429713 3.79502415,15.0509603 C2.97801515,14.679558 2.38889282,14.012158 2.09687426,13.2333565 C1.80485615,12.4545563 1.80994102,11.5643549 2.18134668,10.7473461 C2.79706671,9.39288799 3.56823081,8.36746226 4.51529622,7.68903604 C5.43291996,7.03170023 6.51213336,6.71011742 7.74815265,6.71011742 Z" id="Oval" fill="#EFEFEF"></path>
                        <circle id="Oval" fill="#EFEFEF" cx="31.9643689" cy="7.90039478" r="2.82607045"></circle>
                        <path d="M31.9643689,11.0344417 C33.2003893,11.0344417 34.2796035,11.3560251 35.1972278,12.0133622 C36.1442939,12.6917897 36.9154583,13.7172175 37.5311784,15.0716782 C37.7231886,15.4940622 37.8225339,15.9526627 37.8225339,16.4166414 C37.8225339,17.3141055 37.4587647,18.1266069 36.8706293,18.7147415 C36.2824945,19.3028756 35.4699939,19.6666434 34.5725289,19.6666414 L34.5725289,19.6666414 L25.0894597,19.6666414 C25.5568615,16.8737792 26.3334538,14.7370696 27.4529758,13.2730792 C28.593693,11.7813721 30.0971373,11.0344417 31.9643689,11.0344417 Z" id="Oval" fill="#00ADB2"></path>
                        <circle id="Oval" fill="#EFEFEF" cx="15.5319364" cy="7.90039478" r="2.82607045"></circle>
                        <path d="M15.5319364,11.0344417 C17.399168,11.0344417 18.9026122,11.7813721 20.0433295,13.2730792 C21.1628515,14.7370696 21.9394438,16.8737792 22.4068455,19.6666414 L22.4068455,19.6666414 L8.65702732,19.6666414 C9.12442904,16.8737792 9.90102132,14.7370696 11.0205434,13.2730792 C12.1612606,11.7813721 13.6647048,11.0344417 15.5319364,11.0344417 Z" id="Oval" fill="#008A8E"></path>
                        <circle id="Oval" fill="#F2F2F2" cx="23.3157202" cy="11.3598542" r="2.82607045"></circle>
                        <path d="M23.3157202,14.4939012 C24.5517406,14.4939012 25.6309549,14.8154846 26.5485792,15.4728216 C27.4956453,16.1512492 28.2668097,17.1766769 28.8825297,18.5311377 C29.07454,18.9535217 29.1738853,19.4121222 29.1738853,19.8761008 C29.1738853,20.773565 28.810116,21.5860663 28.2219807,22.174201 C27.6338458,22.762335 26.8213453,23.1261028 25.9238803,23.1261008 L25.9238803,23.1261008 L20.7075582,23.1261008 C20.2435783,23.1261008 19.7849767,23.0267551 19.3625917,22.834744 C18.5455827,22.4633418 17.9564604,21.7959418 17.6644418,21.0171403 C17.3724237,20.23834 17.3775086,19.3481387 17.7489142,18.5311298 C18.3646343,17.1766718 19.1357984,16.151246 20.0828638,15.4728198 C21.0004875,14.815484 22.0797009,14.4939012 23.3157202,14.4939012 Z" id="Oval" fill="#66CED1"></path>
                        <circle id="Oval" fill="#F2F2F2" cx="10.3427472" cy="12.2247191" r="2.82607045"></circle>
                        <path d="M10.3427472,15.3587661 C11.5787677,15.3587661 12.6579819,15.6803495 13.5756062,16.3376865 C14.5226723,17.0161141 15.2938367,18.0415418 15.9095568,19.3960025 C16.101567,19.8183865 16.2009123,20.276987 16.2009123,20.7409657 C16.2009123,21.6384298 15.8371431,22.4509312 15.2490077,23.0390658 C14.6608729,23.6271999 13.8483723,23.9909677 12.9509074,23.9909657 L12.9509074,23.9909657 L7.7345852,23.9909657 C7.27060536,23.9909657 6.81200371,23.8916199 6.38961875,23.6996089 C5.57260975,23.3282066 4.98348741,22.6608066 4.69146886,21.8820052 C4.39945075,21.1032049 4.40453561,20.2130036 4.77594128,19.3959947 C5.39166131,18.0415366 6.1628254,17.0161109 7.10989081,16.3376847 C8.02751455,15.6803489 9.10672795,15.3587661 10.3427472,15.3587661 Z" id="Oval" fill="#CCEFF0"></path>
                    </g>
                </g>
                <g id="Group-30" transform="translate(33.000000, 0.000000)">
                    <circle id="Oval-Copy-12" fill-opacity="0.1" fill="#000000" style="mix-blend-mode: multiply;" cx="29.4054054" cy="29.4054054" r="26.8108108"></circle>
                    <g id="Group-27" fill="#F8F8F8">
                        <circle id="Oval" cx="26.5" cy="26.8108108" r="26.5"></circle>
                        <path d="M36.1787453,1.80081051 C33.2729713,0.637833166 30.1139752,0 26.8108108,0 C12.4812605,0 0.864864865,12.0036089 0.864864865,26.8108108 C0.864864865,41.6180128 12.4812605,53.6216216 26.8108108,53.6216216 C41.1403611,53.6216216 52.7567568,41.6180128 52.7567568,26.8108108 C52.7567568,21.9562642 51.5081584,17.4030642 49.3247056,13.4754128 M46.462467,9.30420911 C45.204809,7.79811968 43.7877518,6.43815249 42.2383746,5.25228921" id="Shape" stroke="#242424" stroke-width="1.5" stroke-linecap="round" stroke-linejoin="round"></path>
                    </g>
                    <g id="Group-35" transform="translate(8.648649, 5.221793)" stroke="#242424" stroke-width="1.5">
                        <path d="M12.0462277,26.4148182 L24.8546732,26.4148182 C25.2499519,26.4148182 25.6243579,26.5922414 25.8746633,26.8981702 L27.6717851,29.0946524 C28.1326873,29.6579773 28.0496573,30.4882775 27.4863324,30.9491798 C27.2508754,31.1418263 26.9560197,31.247079 26.651795,31.247079 L10.2491059,31.247079 C9.52125569,31.247079 8.93121655,30.6570399 8.93121655,29.9291897 C8.93121655,29.624965 9.03646924,29.3301093 9.22911581,29.0946524 L11.0262376,26.8981702 C11.276543,26.5922414 11.650949,26.4148182 12.0462277,26.4148182 Z" id="Rectangle-Copy" fill="#CCEFF0" stroke-linejoin="round"></path>
                        <path d="M26.4868629,35.5366795 L23.2577158,35.5366795 M19.246528,35.5366795 L1.31788932,35.5366795 C0.590039146,35.5366795 9.09494702e-13,34.9466404 9.09494702e-13,34.2187902 L9.09494702e-13,32.022308 C9.09494702e-13,31.2944579 0.590039146,30.7044187 1.31788932,30.7044187 L35.5830116,30.7044187 C36.3108618,30.7044187 36.9009009,31.2944579 36.9009009,32.022308 L36.9009009,34.2187902 C36.9009009,34.9466404 36.3108618,35.5366795 35.5830116,35.5366795 L29.3872241,35.5366795 L29.3872241,35.5366795" id="Shape" fill="#CCEFF0" stroke-linecap="round" stroke-linejoin="round"></path>
                        <circle id="Oval" fill="#00ADB2" cx="28.5542686" cy="17.964822" r="4.08226083"></circle>
                        <circle id="Oval-Copy" fill="#00ADB2" cx="8.34663235" cy="17.964822" r="4.08226083"></circle>
                        <rect id="Rectangle-Copy-5" stroke-linejoin="round" transform="translate(18.670099, 14.608323) scale(-1, 1) translate(-18.670099, -14.608323) " x="18.4504505" y="3.42685543" width="1" height="22.3629345"></rect>
                        <rect id="Rectangle-Copy-3" stroke-linejoin="round" transform="translate(18.670099, 5.884170) rotate(-270.000000) translate(-18.670099, -5.884170) " x="18.4504505" y="-4" width="1" height="19.7683398"></rect>
                        <polygon id="Rectangle" fill="#FFFFFF" stroke-linejoin="round" points="28.7843762 5.66452166 33.3865294 17.964822 23.7220077 17.964822"></polygon>
                        <polygon id="Rectangle-Copy-4" fill="#FFFFFF" stroke-linejoin="round" points="8.57674001 5.66452166 13.1788932 17.964822 3.51437151 17.964822"></polygon>
                        <circle id="Oval-Copy-2" fill="#FFFFFF" stroke-linejoin="round" cx="18.6700987" cy="6.1038181" r="1.75718576"></circle>
                        <path d="M23.7220077,5.88416988 C23.7220077,3.09407756 21.460191,0.832260832 18.6700987,0.832260832 C15.8800063,0.832260832 13.6181896,3.09407756 13.6181896,5.88416988" id="Path" stroke-linejoin="round"></path>
                    </g>
                </g>
                <g id="Group-29" transform="translate(33.000000, 62.000000)">
                    <circle id="Oval" fill="#DEDEDE" style="mix-blend-mode: multiply;" cx="30.2702703" cy="27.6756757" r="26.8108108"></circle>
                    <circle id="Oval" fill="#F8F8F8" cx="26.8108108" cy="26.8108108" r="26.8108108"></circle>
                    <path d="M36.1787453,1.80081051 C33.2729713,0.637833166 30.1139752,0 26.8108108,0 C12.4812605,0 0.864864865,12.0036089 0.864864865,26.8108108 C0.864864865,41.6180128 12.4812605,53.6216216 26.8108108,53.6216216 C41.1403611,53.6216216 52.7567568,41.6180128 52.7567568,26.8108108 C52.7567568,21.9562642 51.5081584,17.4030642 49.3247056,13.4754128 M46.462467,9.30420911 C45.204809,7.79811968 43.7877518,6.43815249 42.2383746,5.25228921" id="Shape" stroke="#242424" stroke-width="1.5" fill="#F8F8F8" stroke-linecap="round" stroke-linejoin="round"></path>
                    <g id="ICON-formular" transform="translate(14.702703, 7.783784)" stroke="#242424" stroke-width="1.5">
                        <g id="Group-26" transform="translate(0.401714, -0.000000)">
                            <path d="M25.5442324,19.4576034 L25.5442324,25.9984141 L16.0307189,34.5945946 L3.14770432e-12,34.5945946 L3.14770432e-12,-3.14770432e-12 L25.5442324,-3.14770432e-12 L25.5442324,12.747035 M25.5442324,15.8301341 L25.5442324,16.5923447" id="Shape" fill="#CCEFF0" stroke-linecap="round" stroke-linejoin="round" transform="translate(12.988332, 17.297297) scale(-1, 1) rotate(-180.000000) translate(-12.988332, -17.297297) "></path>
                            <g id="Group-25" transform="translate(5.652341, 12.108108)" fill="#F8F8F8">
                                <path d="M11.920094,8.8774289 C12.7917596,8.8774289 13.5809048,9.2307412 14.1521335,9.80196992 C14.7233622,10.3731986 15.0766745,11.1623438 15.0766745,12.0340094 C15.0766745,12.905675 14.7233622,13.6948201 14.1521335,14.2660489 C13.5809048,14.8372776 12.7917596,15.1905899 11.920094,15.1905899 C11.0484284,15.1905899 10.2592832,14.8372776 9.68805453,14.2660489 C9.11682582,13.6948201 8.76351351,12.905675 8.76351351,12.0340094 C8.76351351,11.1623438 9.11682582,10.3731986 9.68805453,9.80196992 C10.2592832,9.2307412 11.0484284,8.8774289 11.920094,8.8774289 Z M12.2406186,11.7134848 C12.1585892,11.6314554 12.0452667,11.5807191 11.5995694,11.7134848 C11.51754,11.7955142 11.4668038,11.9088367 11.4668038,12.0340094 C11.4668038,12.159182 11.51754,12.2725046 11.5995694,12.354534 C11.6815988,12.4365634 11.7949214,12.4872996 11.920094,12.4872996 C12.0452667,12.4872996 12.1585892,12.4365634 12.2406186,12.354534 C12.322648,12.2725046 12.3733843,12.159182 12.3733843,12.0340094 C12.3733843,11.9088367 12.322648,11.7955142 12.2406186,11.7134848 Z" id="Combined-Shape"></path>
                                <path d="M2.40658049,-0.410467694 C3.27824613,-0.410467694 4.06739125,-0.0571553881 4.63861997,0.514073327 C5.20984868,1.08530204 5.56316099,1.87444717 5.56316099,2.7461128 C5.56316099,3.61777843 5.20984868,4.40692356 4.63861997,4.97815227 C4.06739125,5.54938099 3.27824613,5.90269329 2.40658049,5.90269329 C1.53491486,5.90269329 0.745769736,5.54938099 0.174541021,4.97815227 C-0.396687694,4.40692356 -0.75,3.61777843 -0.75,2.7461128 C-0.75,1.87444717 -0.396687694,1.08530204 0.174541021,0.514073327 C0.745769736,-0.0571553881 1.53491486,-0.410467694 2.40658049,-0.410467694 Z M2.7271051,2.42558819 C2.6450757,2.34355879 2.53175314,2.29282255 2.08605589,2.42558819 C2.00402649,2.50761759 1.95329025,2.62094015 1.95329025,2.7461128 C1.95329025,2.87128544 2.00402649,2.98460801 2.08605589,3.06663741 C2.16808529,3.14866681 2.28140785,3.19940305 2.40658049,3.19940305 C2.53175314,3.19940305 2.6450757,3.14866681 2.7271051,3.06663741 C2.8091345,2.98460801 2.85987074,2.87128544 2.85987074,2.7461128 C2.85987074,2.62094015 2.8091345,2.50761759 2.7271051,2.42558819 Z" id="Combined-Shape-Copy-5"></path>
                                <rect id="Rectangle" transform="translate(6.934036, 7.558167) rotate(-315.000000) translate(-6.934036, -7.558167) " x="5.58239089" y="-1.61486486" width="2.70329025" height="18.3460635"></rect>
                            </g>
                        </g>
                        <path d="M25.9459459,3.42241652 L16.9709391,12.0185971 L14.7027027,12.0185971 C16.2145931,12.0185971 16.9697792,10.9149092 16.968261,8.70753362 C16.9680413,8.38809204 16.9738369,8.31788759 16.9709391,6.34130044 C16.9680413,4.36471329 17.5736537,2.94481109 19.5064192,2.94481109 C20.9226793,2.94481109 22.2762047,2.94481109 23.5669953,2.94481109 C25.1529624,2.73076466 25.9459459,1.94819663 25.9459459,0.597106985 C25.9459459,-0.753982657 25.9459459,0.187787187 25.9459459,3.42241652 Z" id="Path-4" fill="#008A8E" transform="translate(20.324324, 6.009299) scale(-1, 1) rotate(-180.000000) translate(-20.324324, -6.009299) "></path>
                    </g>
                </g>
            </g>
        </g>
    </g>
</svg>