<?xml version="1.0" encoding="UTF-8"?>
<svg width="140px" height="140px" viewBox="0 0 140 140" version="1.1" xmlns="http://www.w3.org/2000/svg" xmlns:xlink="http://www.w3.org/1999/xlink">
    <title>vignette_onlineverfahren</title>
    <g id="vignette_onlineverfahren" stroke="none" stroke-width="1" fill="none" fill-rule="evenodd">
        <g>
            <circle id="Oval" fill="#F8F8F8" cx="70" cy="70" r="70"></circle>
            <g id="Group-8" transform="translate(25.000000, 33.000000)">
                <rect id="Rectangle" stroke="#DEDEDE" stroke-width="1.26168224" fill="#DEDEDE" x="14.9482206" y="9.96559085" width="67.0545888" height="49.3429629" rx="3.37364301"></rect>
                <path d="M52.982189,57.9462617 L51.1183017,72.8573604 C50.9834842,73.9359007 50.4576564,74.879855 49.6937996,75.5541742 C48.9299428,76.2284934 47.9280569,76.6331776 46.8411231,76.6331776 L46.8411231,76.6331776 L42.3177554,76.6331776 C41.2308216,76.6331776 40.2289357,76.2284934 39.4650789,75.5541742 C38.7012221,74.879855 38.1753943,73.9359007 38.0405768,72.8573604 L38.0405768,72.8573604 L36.1766895,57.9462617 L52.982189,57.9462617 Z" id="Combined-Shape-Copy-4" stroke="#242424" stroke-width="1.5" fill="#F8F8F8" transform="translate(44.579439, 67.289720) rotate(-180.000000) translate(-44.579439, -67.289720) "></path>
                <path d="M41.1098632,53.4008793 C41.1487586,54.2801599 41.2751707,54.6759829 41.4547818,55.0400202 C41.7975988,55.6859427 42.2087105,56.0861903 42.725134,56.3623767 C43.1747372,56.6028271 43.6305444,56.7552786 44.6825778,56.7730942 L44.6825778,56.7730942 L52.8917775,56.7748876 C54.1076974,56.7748876 54.5917229,56.6177913 55.0693067,56.3623767 C55.5932027,56.082194 56.0043593,55.6710374 56.2845419,55.1471415 C56.4717014,54.7971836 56.6055459,54.443467 56.664082,53.8077465 L56.664082,53.8077465 L89.1718008,53.4090295 L89.1718008,57.4091627 C89.1718008,58.6323694 88.6759983,59.7397752 87.8743941,60.5413794 C87.0727899,61.3429836 85.9653841,61.8387861 84.7421774,61.8387861 L84.7421774,61.8387861 L12.630558,61.8387861 C11.4073513,61.8387861 10.2999454,61.3429836 9.49834123,60.5413794 C8.69673707,59.7397752 8.20093458,58.6323694 8.20093458,57.4091627 L8.20093458,57.4091627 L8.20093458,53.4012378 Z" id="Combined-Shape" stroke="#DEDEDE" stroke-width="1.26168224" fill="#DEDEDE"></path>
                <rect id="Rectangle" stroke="#242424" stroke-width="1.5" fill="#F8F8F8" x="0.75" y="0.901091012" width="87.6588785" height="60.7429907" rx="7.57009346"></rect>
                <path d="M84.953271,19.3457944 L84.953271,21.8691589 M84.953271,25.4696059 L84.953271,43.8191948 C84.953271,46.0972205 83.1087833,47.9439252 80.8334923,47.9439252 L8.32538623,47.9439252 C6.05009525,47.9439252 4.20560748,46.0972205 4.20560748,43.8191948 L4.20560748,9.17145938 C4.20560748,6.89343368 6.05009525,5.04672897 8.32538623,5.04672897 L80.8334923,5.04672897 C83.1087833,5.04672897 84.953271,6.89343368 84.953271,9.17145938 L84.953271,14.3397139 L84.953271,16.0219569" id="Shape" stroke="#242424" stroke-width="1.5" fill="#CCEFF0" stroke-linecap="round" stroke-linejoin="round"></path>
                <g id="Group-20" transform="translate(22.710280, 15.072218)" stroke="#242424" stroke-width="1.5">
                    <g id="Group-5" transform="translate(22.000000, 16.871708) scale(-1, 1) rotate(-180.000000) translate(-22.000000, -16.871708) translate(0.000000, 0.871708)">
                        <polygon id="Rectangle" fill="#FFFFFF" stroke-linejoin="round" points="-5.34899228e-13 0 43.7383178 1.27180509e-11 43.7383178 23.6024296 34.4859813 31.9626168 -4.03146675e-11 31.9626168"></polygon>
                        <path d="M43.7383178,23.6024296 L35.0097042,31.9626168 L32.8037383,31.9626168 C34.2741224,31.9626168 35.0085762,30.8892289 35.0070996,28.7424529 C35.006886,28.431781 35.0125224,28.3635039 35.0097042,26.4411806 C35.006886,24.5188572 35.5958723,23.137936 37.4755771,23.137936 C38.8529562,23.137936 40.1693229,23.137936 41.4246771,23.137936 C42.9671042,22.9297658 43.7383178,22.1686818 43.7383178,20.854684 C43.7383178,19.5406862 43.7383178,20.4566014 43.7383178,23.6024296 Z" id="Path-4" fill="#C8C8C8"></path>
                    </g>
                    <g id="Group-19" transform="translate(5.887850, 5.114698)">
                        <rect id="Rectangle" fill="#00ADB2" x="0.75" y="0.75" width="21.2102804" height="4.38785047"></rect>
                        <rect id="Rectangle-Copy-23" fill="#F2F2F2" stroke-linejoin="round" x="0" y="21.8691589" width="29.4392523" height="1"></rect>
                        <rect id="Rectangle-Copy-21" fill="#F2F2F2" stroke-linejoin="round" x="0" y="10.0934579" width="29.4392523" height="1"></rect>
                        <rect id="Rectangle-Copy-22" fill="#F2F2F2" stroke-linejoin="round" x="0" y="15.9813084" width="29.4392523" height="1"></rect>
                    </g>
                </g>
                <path d="M56.7757009,76.4509346 C57.1492674,76.4509346 57.4874683,76.6023523 57.7322776,76.8471616 C57.977087,77.0919709 58.1285047,77.4301719 58.1285047,77.8037383 C58.1285047,78.1773048 57.977087,78.5155057 57.7322776,78.760315 C57.4874683,79.0051243 57.1492674,79.1565421 56.7757009,79.1565421 L56.7757009,79.1565421 L32.3831776,79.1565421 C32.0096111,79.1565421 31.6714102,79.0051243 31.4266009,78.760315 C31.1817915,78.5155057 31.0303738,78.1773048 31.0303738,77.8037383 C31.0303738,77.4301719 31.1817915,77.0919709 31.4266009,76.8471616 C31.6714102,76.6023523 32.0096111,76.4509346 32.3831776,76.4509346 L32.3831776,76.4509346 Z" id="Combined-Shape" stroke="#242424" stroke-width="1.5" fill="#F8F8F8" transform="translate(44.579439, 77.803738) rotate(-360.000000) translate(-44.579439, -77.803738) "></path>
            </g>
        </g>
    </g>
</svg>