<?xml version="1.0" encoding="UTF-8"?>
<svg width="140px" height="140px" viewBox="0 0 140 140" version="1.1" xmlns="http://www.w3.org/2000/svg" xmlns:xlink="http://www.w3.org/1999/xlink">
    <title>vignette_terminabsage</title>
    <defs>
        <linearGradient x1="33.7762241%" y1="32.2587076%" x2="60.6791674%" y2="63.03218%" id="linearGradient-1">
            <stop stop-color="#63CCCF" offset="0%"></stop>
            <stop stop-color="#007996" offset="100%"></stop>
        </linearGradient>
    </defs>
    <g id="vignette_terminabsage" stroke="none" stroke-width="1" fill="none" fill-rule="evenodd">
        <g>
            <circle id="Oval" fill="#EFEFEF" cx="70" cy="70" r="70"></circle>
            <g id="icon_terminbuchung" transform="translate(39.000000, 36.000000)">
                <rect id="Rectangle" fill="#DEDEDE" x="5.78512397" y="7.43801653" width="61.9834711" height="66.9421488" rx="4.1322314"></rect>
                <path d="M18.1538468,69.4214876 L4.8315321,69.4214876 C2.1631506,69.4214876 0,67.1361156 0,64.3169665 L0,12.5425377 C0,9.72338849 2.1631506,7.43801653 4.8315321,7.43801653 L57.9783853,7.43801653 C60.6467668,7.43801653 62.8099174,9.72338849 62.8099174,12.5425377 L62.8099174,64.3169665 C62.8099174,67.1361156 60.6467668,69.4214876 57.9783853,69.4214876 L34.386267,69.4214876 L30.5422954,69.4214876 M24.7933884,69.8347107 L23.1404959,69.8347107" id="Shape" stroke="#242424" stroke-width="1.5" fill="#F2F2F2" stroke-linecap="round" stroke-linejoin="round"></path>
                <path d="M3.08539945,2.47933884 L59.7245179,2.47933884 C61.428537,2.47933884 62.8099174,3.86071923 62.8099174,5.56473829 L62.8099174,17.9893324 L62.8099174,17.9893324 L18.1818182,65.2892562 L3.08539945,65.2892562 C1.38138039,65.2892562 6.52771359e-16,63.9078758 0,62.2038567 L0,5.56473829 C-6.52771359e-16,3.86071923 1.38138039,2.47933884 3.08539945,2.47933884 Z" id="Rectangle" stroke="#242424" stroke-width="1.5" fill="#CCEFF0" stroke-linejoin="round"></path>
                <rect id="Rectangle-Copy-8" stroke="#242424" stroke-width="1.5" fill="#D8D8D8" x="27.196281" y="0.75" width="1" height="3.7892562" rx="0.5"></rect>
                <rect id="Rectangle-Copy-11" stroke="#242424" stroke-width="1.5" fill="#D8D8D8" x="18.9318182" y="0.75" width="1" height="3.7892562" rx="0.5"></rect>
                <rect id="Rectangle-Copy-20" stroke="#242424" stroke-width="1.5" fill="#D8D8D8" x="11.4938017" y="0.75" width="1" height="3.7892562" rx="0.5"></rect>
                <rect id="Rectangle-Copy-9" stroke="#242424" stroke-width="1.5" fill="#D8D8D8" x="34.6342975" y="0.75" width="1" height="3.7892562" rx="0.5"></rect>
                <rect id="Rectangle-Copy-10" stroke="#242424" stroke-width="1.5" fill="#D8D8D8" x="42.8987603" y="0.75" width="1" height="3.7892562" rx="0.5"></rect>
                <rect id="Rectangle-Copy-14" stroke="#242424" stroke-width="1.5" fill="#D8D8D8" x="50.3367769" y="0.75" width="1" height="3.7892562" rx="0.5"></rect>
                <g id="Group-2" transform="translate(8.264463, 24.793388)" fill="#EFEFEF" stroke="#242424" stroke-width="1.5">
                    <circle id="Oval" cx="9.6573498" cy="4.45723837" r="3.70723837"></circle>
                    <path d="M9.6573498,9.0051769 C12.0453412,9.0051769 13.9682652,9.96016078 15.4271819,11.867975 C16.8654639,13.7488052 17.8590703,16.5100279 18.443894,20.1340189 L18.443894,20.1340189 L4.03090922,20.1340189 C3.79886305,20.1340189 3.56789777,20.1024174 3.3443801,20.0400854 C2.66456152,19.8505057 2.12594376,19.4033225 1.80467428,18.8335795 C1.48340387,18.2638349 1.3794828,17.5715298 1.56905799,16.8917124 C2.30914195,14.2378278 3.35587095,12.2347351 4.74409642,10.9056982 C6.07233837,9.63408736 7.71199678,9.0051769 9.6573498,9.0051769 Z" id="Oval"></path>
                </g>
                <path d="M31.6295181,16.6053719 C33.0530989,16.6053719 34.3416469,17.178294 35.274472,18.1037739 C36.2094513,19.0313913 36.7872316,20.3130258 36.7872316,21.728379 C36.7872316,23.1437322 36.2094513,24.4253667 35.274472,25.3529841 C34.3416469,26.278464 33.0530989,26.8513861 31.6295181,26.8513861 C30.8781084,26.8513861 30.1643448,26.6916016 29.5206281,26.4047774 L29.5206281,26.4047774 L24.1878741,28.7823704 L26.6330243,23.0035148 C26.5278225,22.5958357 26.4718046,22.1685966 26.4718046,21.728379 C26.4718046,20.3130258 27.0495848,19.0313913 27.9845642,18.1037739 C28.9173892,17.178294 30.2059372,16.6053719 31.6295181,16.6053719 Z" id="Combined-Shape" stroke="#242424" stroke-width="1.5" fill="#F8F8F8" stroke-linejoin="round" transform="translate(30.828533, 22.339070) rotate(-90.000000) translate(-30.828533, -22.339070) "></path>
                <path d="M62.8099174,19.9331649 L19.4214876,65.2892562 L2.15389906,65.2892562 C10.7349056,65.2892562 15.0213675,60.2419531 15.0132845,50.1473468 C15.0121148,48.6865003 15.0429701,48.3654465 15.0275424,39.3262649 C15.0121148,30.2870833 18.2363572,23.793692 28.5262801,23.793692 C36.0663602,23.793692 43.2724444,23.793692 50.1445328,23.793692 C58.5881225,22.8148308 62.8099174,19.2360488 62.8099174,13.057346 C62.8099174,6.87864317 62.8099174,9.17058281 62.8099174,19.9331649 Z" id="Path-4" fill-opacity="0.2" fill="#000000"></path>
                <path d="M62.8099174,19.9331649 L19.9282988,65.2892562 L4.95867769,65.2892562 C14.9371487,65.2892562 19.9227572,60.0159544 19.9155033,49.4693508 C19.9144535,47.9430933 19.9421441,47.607664 19.9282988,38.1637429 C19.9144535,28.7198219 22.8080044,21.9356817 32.0425506,21.9356817 C38.8092891,21.9356817 45.2762878,21.9356817 51.4435466,21.9356817 C59.0211271,20.9129909 62.8099174,17.1739649 62.8099174,10.7186037 C62.8099174,4.26324258 62.8099174,7.33476297 62.8099174,19.9331649 Z" id="Path-4" stroke="#242424" stroke-width="1.5" fill="url(#linearGradient-1)"></path>
            </g>
        </g>
    </g>
</svg>