<?xml version="1.0" encoding="UTF-8"?>
<svg width="140px" height="140px" viewBox="0 0 140 140" version="1.1" xmlns="http://www.w3.org/2000/svg" xmlns:xlink="http://www.w3.org/1999/xlink">
    <title>vignette_fuehungszeugnis</title>
    <g id="vignette_fuehungszeugnis" stroke="none" stroke-width="1" fill="none" fill-rule="evenodd">
        <g>
            <circle id="Oval" fill="#EFEFEF" cx="70" cy="70" r="70"></circle>
            <g id="icon_führungszeugnis" transform="translate(36.000000, 23.000000)">
                <rect id="Rectangle" fill="#DEDEDE" x="4.52941176" y="4.11764706" width="65.0588235" height="90.5882353" rx="3.29411765"></rect>
                <path d="M65.4705882,37.358874 L65.4705882,87.2122762 C65.4705882,89.0767669 63.9768535,90.5882353 62.1342383,90.5882353 L3.74811463,90.5882353 C1.90549945,90.5882353 0.411764706,89.0767669 0.411764706,87.2122762 L0.411764706,3.37595908 C0.411764706,1.51146836 1.90549945,0 3.74811463,0 L62.1342383,0 C63.9768535,0 65.4705882,1.51146836 65.4705882,3.37595908 L65.4705882,23.5923153 M65.0588235,28 L65.0588235,32.1176471" id="Shape" stroke="#242424" stroke-width="1.5" fill="#CCEFF0" stroke-linecap="round"></path>
                <rect id="Rectangle-Copy-4" stroke="#242424" stroke-width="1.5" x="12.4227318" y="15.6470588" width="14.2372881" height="1" rx="0.209371884"></rect>
                <rect id="Rectangle-Copy-6" stroke="#242424" stroke-width="1.5" x="23.3100698" y="26.3529412" width="19.2622134" height="1" rx="0.209371884"></rect>
                <rect id="Rectangle-Copy-7" stroke="#242424" stroke-width="1.5" x="23.3100698" y="79.8823529" width="19.2622134" height="1" rx="0.209371884"></rect>
                <g id="Bundesadler_Bundesorgane" transform="translate(14.823529, 34.588235)">
                    <path d="M30.6153863,22.4980947 C31.1817112,23.3387765 32.1199957,24.5818899 33.4494067,25.6052762 C31.540194,25.6052762 30.2742736,25.6501246 28.6588551,23.0835319 L28.2955806,22.4980947 L24.1821631,15.8822784 C23.9171194,15.9848428 23.6481825,16.0798823 23.3744538,16.1699553 L27.3084802,22.4980947 L28.4348408,24.3091875 C28.92899,25.099904 29.9843728,26.664782 31.5563661,27.8768928 C29.6483514,27.8768928 28.3827305,27.9205372 26.7673119,25.3539445 L24.9922682,22.4980947 L21.3744973,16.6778108 C21.064531,17.1769374 20.9624069,17.614736 20.9624069,18.0511802 C20.9624069,19.6600037 21.5811415,21.1595656 22.528111,22.4980947 C23.1851797,23.4263663 24.0030714,24.2805929 24.8778652,25.0424137 C24.7421988,25.1035159 24.5044082,25.1260906 24.2830893,25.1260906 C23.8437457,25.1260906 23.5574387,25.099904 23.3582816,25.0661924 C23.8536287,26.1955293 24.9164987,27.6553598 25.4528752,28.4120637 C26.1524706,28.2859464 27.1692199,28.1869187 27.8361716,28.1869187 C28.5333712,28.1869187 28.6115366,28.5959722 28.6115366,28.9613813 C28.6115366,29.5979878 28.3153465,30.108477 27.9706401,30.3911122 C27.8424608,30.0594146 27.5810109,29.6280874 26.2941267,29.6280874 C26.5406023,30.0545987 27.7193727,31.0126689 27.7193727,31.7844226 C27.7193727,32.2949118 27.1629308,33.0603445 26.4273972,33.0603445 C26.4711219,32.8953987 26.4648327,32.7427938 26.4648327,32.6302213 C26.4648327,32.0071596 25.91468,31.2766424 25.4504793,30.7664542 C25.4639561,30.9175542 25.4567684,30.9025044 25.4567684,31.0776841 C25.4567684,32.5549723 25.3234979,33.2331162 24.3912031,33.2331162 C23.9344895,33.2331162 23.6185335,32.9814836 23.5101202,32.9077396 C24.1150785,32.3448771 24.1459254,31.905724 24.1459254,31.0764801 L24.1411337,30.3598087 C24.1399357,30.1722882 24.1435296,29.9206555 24.1722801,29.737951 C23.8386545,29.6918986 23.704186,29.6931026 23.4466295,29.6931026 C23.4466295,29.6931026 22.1211118,29.586851 21.8024604,30.2809477 C21.4439776,29.9483472 20.9213775,29.4815024 20.9213775,28.9637893 C20.9213775,28.6236638 21.0819011,28.237185 21.7641264,28.237185 C22.0228809,28.237185 22.8356814,28.3958099 23.5164093,28.3958099 C23.3334244,27.9867564 22.518228,26.7912003 21.8150388,25.922827 C21.7078234,26.2605445 21.542508,26.6259536 21.1726448,26.9212306 C21.1217325,26.364388 20.795594,24.6008526 19.92679,23.5687374 C19.8261632,24.2643391 19.6892989,24.9798066 19.6892989,26.4883984 C19.6892989,30.1572383 20.567986,32.8665031 22.4310781,33.3857212 C22.1884957,33.8122325 21.6754791,34.1911864 21.1441938,34.1911864 C20.462268,34.1911864 20.0912069,33.4143158 19.7117602,32.6850025 C19.514999,33.2255913 18.9699375,34.5463617 18.4247262,34.5463617 C17.8783919,34.5463617 17.3332555,33.2255913 17.137842,32.6850025 C16.7582456,33.4143158 16.3874091,34.1911864 15.7053335,34.1911864 C15.1726257,34.1911864 14.6599085,33.8122325 14.4171764,33.3857212 C16.2815414,32.8665031 17.1602284,30.1572383 17.1602284,26.4883984 C17.1602284,24.9798066 17.0233641,24.2643391 16.9225127,23.5687374 C16.0538584,24.6008526 15.7277199,26.364388 15.6779307,26.9212306 C15.3082921,26.6259536 15.1415542,26.2605444 15.0344885,25.922827 C14.3301014,26.7912003 13.5173757,27.9867564 13.333118,28.3958099 C14.0139956,28.3958099 14.8266464,28.237185 15.0855506,28.237185 C15.7675514,28.237185 15.9281498,28.6236638 15.9281498,28.9637893 C15.9281498,29.4815024 15.4053999,29.9483472 15.0457192,30.2809477 C14.7283407,29.586851 13.4028978,29.6931026 13.4028978,29.6931026 C13.1452664,29.6931026 13.0107979,29.6918986 12.6772472,29.737951 C12.7059229,29.9206555 12.7108644,30.1722882 12.7083936,30.3598087 L12.7033773,31.0764801 C12.7033773,31.905724 12.7332508,32.3448771 13.3406051,32.9077396 C13.2298707,32.9814836 12.914963,33.2331162 12.4582493,33.2331162 C11.5260294,33.2331162 11.3916358,32.5549723 11.3916358,31.0776841 C11.3916358,30.9025044 11.3854215,30.9175542 11.3991229,30.7664542 C10.9348473,31.2766424 10.3847694,32.0071596 10.3847694,32.6302213 C10.3847694,32.7427938 10.3785551,32.8953987 10.4220552,33.0603445 C9.68779451,33.0603445 9.13022952,32.2949118 9.13022952,31.7844226 C9.13022952,31.0126689 10.3088502,30.0545987 10.684703,29.6344083 C9.26836667,29.6280874 9.0069917,30.0594146 8.8775396,30.3911122 C8.53403105,30.108477 8.23784104,29.5979878 8.23784104,28.9613813 C8.23784104,28.5959722 8.31503313,28.1869187 9.01200807,28.1869187 C9.67910945,28.1869187 10.6971316,28.2859464 11.3965773,28.4120637 C11.9330286,27.6553598 12.9946258,26.1955293 13.4912457,25.0661924 C13.2920886,25.099904 13.0058564,25.1260906 12.5652401,25.1260906 C12.3449694,25.1260906 12.1072537,25.1035159 11.9703144,25.0424137 C12.8465308,24.2805929 13.6641979,23.4263663 14.3213414,22.4956868 C15.2672627,21.1547497 15.8870456,19.6600037 15.8870456,18.0511802 C15.8870456,17.614736 15.7837235,17.1769374 15.6369013,16.7090391 L11.8571093,22.4980947 L10.0822902,25.3539445 C8.46687167,27.9205372 7.20110108,27.8768928 5.29196324,27.8768928 C6.86507964,26.664782 7.92046247,25.0999039 8.41453678,24.3091875 L9.54097228,22.4980947 L13.4750735,16.1699553 C13.20127,16.0798823 12.93121,15.9848428 12.6672894,15.8822784 L8.55394675,22.4980947 L8.18932455,23.0835319 C6.57510392,25.6501246 5.30933333,25.6052762 3.40139342,25.6052762 C4.72810909,24.5818899 5.66774121,23.3387765 6.23286818,22.4881619 L6.5228439,22.0378719 L10.8713566,15.0441551 C10.6236831,14.907804 10.3822987,14.7640031 10.1495245,14.6151606 L6.58625975,20.3465755 C5.83582685,21.5400245 5.16004043,22.1679022 4.46051985,22.4980947 C3.65528132,22.8809616 2.81769847,22.8695238 1.79713069,22.8695238 L2.25137356,22.4968908 C3.58437839,21.3461831 4.46673415,20.0239078 4.9197791,19.2997115 L8.57386248,13.4205828 C8.35853323,13.2241829 8.15443465,13.0240206 7.96156673,12.8164086 L5.37155124,16.9830207 C3.75733061,19.5510431 2.49163489,19.5046898 0.582422177,19.5046898 C2.16804205,18.2814421 3.20478199,16.7378595 3.70507059,15.933523 L6.71451391,11.0951632 C6.55271749,10.7949949 6.41450546,10.4872266 6.30130039,10.1720085 L4.79032699,12.604959 C3.17490843,15.1729814 1.90913784,15.1267033 0,15.1267033 C1.5793307,13.9109053 2.6260285,12.3535521 3.12384635,11.5568157 L6.07481536,6.8134954 C6.36104752,5.34621527 7.11649679,3.97645783 8.24405536,2.95826369 C7.86573176,2.81318362 7.54962603,2.66185791 7.35915399,2.51677784 C9.2870096,2.51677784 11.1949495,1.53229525 12.2466637,1.53229525 C12.9224501,1.53229525 13.3580501,1.93886557 13.3580501,2.47674538 C13.3120043,3.07339465 12.7009065,3.68125603 11.5696044,3.68125603 C11.3132458,3.68125603 10.9859094,3.64754448 10.6262287,3.58877501 C10.0138581,4.44683929 9.51851099,5.22235543 9.51851099,6.32686015 C9.51851099,8.40463538 11.991503,10.0244452 14.4856835,10.0244452 L14.9025657,10.0081914 C15.39664,8.32449519 16.4483542,7.22126969 17.2884826,6.14302686 C16.2815414,5.77400578 15.1577264,4.81209789 15.1577264,4.37678247 C15.2847077,4.30303846 17.216232,4.91097508 17.4153891,4.96470286 C17.7788134,4.89464605 17.9754249,4.5506829 17.9754249,4.51561686 C17.7688555,4.48062608 16.5578906,4.32425867 15.7314635,4.02025273 C15.1017228,3.78886208 14.7830715,3.36980043 14.7830715,3.21094981 C14.9859721,3.17844224 15.7501813,3.58252934 16.8764671,3.58252934 C17.2921513,3.58252934 17.3718142,3.56627555 17.7850277,3.51495573 C17.495052,2.81950453 16.9499156,2.23278813 16.336347,2.23278813 C16.0899463,2.23278813 15.5497514,2.38667233 15.0992521,2.61557976 C14.7843443,2.12397808 14.5092679,1.47977144 14.5092679,1.12700416 C14.5092679,0.709221741 14.9187379,0.22266174 16.0737741,0.22266174 C16.3972921,0.22266174 16.6984985,0.250202866 16.9785912,0.302726677 C17.2050014,0.346521593 17.3942755,0.397841405 17.5971013,0.476551855 C17.5721692,0.170137975 17.7177934,0 18.2591863,0 C19.2101239,0 20.184646,0.315218043 21.379289,0.315218043 C21.6892553,0.315218043 21.8994934,0.302726708 22.0776865,0.226424226 C22.0004196,0.466543771 21.6643981,0.818031819 21.3583251,1.10450474 C21.5484977,1.36471576 22.040251,1.9938726 22.040251,3.01086275 C22.040251,4.64572239 20.9698939,5.99410913 20.9698939,7.64529779 C20.9698939,8.62722191 21.7215996,9.49409032 21.9468119,10.0081914 L22.3624961,10.0244452 C24.8580992,10.0244452 27.3297435,8.40463539 27.3297435,6.32686017 C27.3297435,5.22235543 26.8355943,4.44683929 26.2231489,3.58877503 C25.8634682,3.6475445 25.5364313,3.68125605 25.2797732,3.68125605 C24.1486208,3.68125605 23.5361753,3.07339468 23.4927501,2.4767454 C23.4927501,1.93886558 23.9258044,1.53229527 24.6029385,1.53229527 C25.6544281,1.53229527 27.5624429,2.51677786 29.4902236,2.51677786 C29.2985536,2.66185792 28.9837956,2.81318364 28.6040494,2.95826371 C29.7331054,3.97645784 30.4884049,5.34621528 30.774712,6.81349542 L33.7255312,11.5568158 C34.2220763,12.3535521 35.2702715,13.9109053 36.8494524,15.1267033 C34.9402397,15.1267033 33.6746189,15.1729814 32.0603983,12.604959 L30.5471039,10.1720085 C30.4350967,10.4872266 30.295537,10.7949949 30.1350134,11.0951632 L33.1430342,15.933523 C33.6446705,16.7378595 34.6802873,18.2814421 36.2669554,19.5046898 C34.3577427,19.5046898 33.0921218,19.5510431 31.4779012,16.9830207 L28.8867626,12.8164087 C28.6950927,13.0240206 28.4896464,13.224183 28.2743171,13.4205828 L31.9298231,19.2997115 C32.3826434,20.0239078 33.2652238,21.3473871 34.5982286,22.4968908 L35.0522469,22.8695238 C34.0319037,22.8695238 33.194246,22.8794567 32.3889326,22.4980947 C31.6881392,22.1691062 31.0137005,21.5400246 30.2631927,20.3465755 L26.6999279,14.6151606 C26.4660307,14.7640031 26.2258442,14.907804 25.9781707,15.0441551 L30.3266834,22.0378719 L30.6153863,22.4980947 L30.6153863,22.4980947 Z" id="Path" fill="#66CED1" fill-rule="nonzero"></path>
                    <path d="M15.0064957,25.0999598 C14.9037622,24.7033682 14.8034571,24.4127622 14.4107736,24.4127622 C14.2101636,24.4127622 14.1147156,24.4500593 13.9936578,24.4979238 C13.5703603,25.740536 11.9384718,28.0743969 11.6815643,28.4321374 C10.976927,28.3109221 9.99220098,28.1803825 9.19461779,28.1803825 C9.00865241,28.1803825 8.75174496,28.1611124 8.75174496,28.6350953 C8.75174496,28.9101608 8.86676826,29.3894275 9.00740136,29.5482506 C9.35850575,29.1103215 9.96283803,28.9797819 10.711483,28.9797819 C11.0026104,28.9797819 11.3549659,29.0870109 11.4883134,29.1205782 C10.5353052,30.1409624 9.63616597,30.9857398 9.63616597,31.550168 C9.63616597,31.866571 9.94694229,32.2839868 10.2075293,32.4235398 C10.2075293,31.5902623 11.0246878,30.4393385 11.8246995,29.7962758 C11.8246995,29.9100317 11.8625991,30.3464068 11.8625991,30.8203897 C11.8625991,32.392459 12.0094138,32.703889 12.5819546,32.703889 C12.6858656,32.703889 12.8657229,32.6637948 12.933059,32.6209032 C12.6247848,32.247933 12.4951168,31.7531259 12.4951168,30.8191465 C12.4951168,30.550608 12.5024024,30.2972991 12.5024024,30.0778683 C12.5024024,29.6632498 12.4571437,29.3714006 12.4277807,29.1426456 C12.6479661,29.1103215 13.1446342,29.0354167 13.5104569,29.0354167 C14.2896422,29.0354167 14.7729167,29.1156053 15.1251986,29.486089 C15.3784265,29.2834418 15.6610173,28.9011474 15.6610173,28.6375818 C15.6610173,28.2577739 15.4187545,28.2319768 15.1643492,28.2319768 C14.7691636,28.2319768 14.4450672,28.3973269 12.9477037,28.3973269 C13.2425107,27.506239 14.106179,26.2546132 15.0064957,25.0999598 L15.0064957,25.0999598 L15.0064957,25.0999598 Z" id="Path" fill="#FFFFFF"></path>
                    <path d="M23.9023295,28.3973269 C22.4046532,28.3973269 22.0793274,28.2319768 21.6854034,28.2319768 C21.4319143,28.2319768 21.1884352,28.2577739 21.1884352,28.6375818 C21.1884352,28.9011474 21.4710711,29.2834418 21.7230882,29.486089 C22.0755,29.1156053 22.560103,29.0354167 23.3394128,29.0354167 C23.7038955,29.0354167 24.2020414,29.1103215 24.4210843,29.1426456 C24.3916431,29.3714006 24.3474812,29.6632498 24.3474812,30.0778683 C24.3474812,30.2972991 24.3548415,30.550608 24.3548415,30.8191465 C24.3548415,31.7531259 24.2253,32.247933 23.9170501,32.6209032 C23.9841762,32.6637948 24.1640622,32.703889 24.2679898,32.703889 C24.8406221,32.703889 24.9875339,32.3924589 24.9875339,30.8203897 C24.9875339,30.3464068 25.0255132,29.9100317 25.0255132,29.7962758 C25.8257263,30.4393385 26.6415433,31.5902623 26.6415433,32.4235398 C26.9035704,32.2839868 27.2141756,31.866571 27.2141756,31.550168 C27.2141756,30.9857398 26.3138622,30.1409624 25.3617322,29.1205782 C25.4953955,29.0870109 25.8475128,28.9797819 26.1386868,28.9797819 C26.8876722,28.9797819 27.492101,29.1103215 27.8430407,29.5482506 C27.9837699,29.3894275 28.0977075,28.9101608 28.0977075,28.6350953 C28.0977075,28.1611124 27.8406854,28.1803825 27.6546167,28.1803825 C26.8582309,28.1803825 25.8719491,28.3109221 25.1685976,28.4321374 C24.9115755,28.0743969 23.2793527,25.740536 22.8562819,24.4979238 C22.734984,24.4500593 22.6395943,24.4127622 22.438805,24.4127622 C22.0460587,24.4127622 21.9459585,24.7033682 21.8432085,25.0999598 C22.7435219,26.2546133 23.6073282,27.506239 23.9023295,28.3973269 L23.9023295,28.3973269 Z" id="Path" fill="#FFFFFF" fill-rule="nonzero"></path>
                    <path d="M29.0189438,6.83176518 C29.0189438,5.04161859 27.6688703,3.62225345 27.1933922,3.22432709 L26.8517775,3.29994503 C27.3566252,3.89623798 28.248224,4.89172504 28.248224,6.21190689 C28.248224,8.80894313 25.4024658,11.0639089 22.1557353,11.1072363 C22.1817042,11.3750312 22.1801585,11.6092679 22.1801585,11.8113631 C22.1801585,12.1832632 22.1532621,12.5465127 22.1096715,12.8973084 C25.7944724,12.8352629 29.0189438,9.94447999 29.0189438,6.83176518 L29.0189438,6.83176518 Z" id="Path" fill="#FFFFFF" fill-rule="nonzero"></path>
                    <path d="M8.59250062,6.2107557 C8.59250062,4.89108255 9.4726919,3.89597908 9.97307148,3.29991589 L9.63528279,3.22432709 C9.1653126,3.62210012 7.83050864,5.04091834 7.83050864,6.83037515 C7.83050864,9.96417956 11.0653644,12.8737521 14.739781,12.8973084 C14.7004322,12.5565624 14.6775105,12.1934529 14.6775105,11.8080543 C14.6775105,11.5663789 14.6889713,11.3310398 14.7105177,11.1066588 C11.4616797,11.1066588 8.59250062,8.83034752 8.59250062,6.2107557 L8.59250062,6.2107557 Z" id="Path" fill="#FFFFFF" fill-rule="nonzero"></path>
                    <path d="M18.4663256,3.68494524 C18.6447438,3.32250993 18.8853444,2.88909408 18.8853444,2.41113434 C18.8853444,1.09154822 17.6569811,0.460618156 16.011306,0.460618156 C15.1667656,0.460618156 14.739781,0.703907563 14.739781,0.949442286 C14.739781,1.19265926 15.0181786,1.72964875 15.1275868,1.89580115 C15.4315888,1.77658283 15.9788737,1.63331802 16.2963689,1.63331802 C17.4245903,1.63331802 18.2691307,2.75908382 18.4663256,3.68494524 L18.4663256,3.68494524 Z" id="Path" fill="#FFFFFF" fill-rule="nonzero"></path>
                    <path d="M18.8012284,2.28563241 C19.6476419,2.45401795 20.2264351,1.3537533 19.4215686,1.15744929 C19.5333159,1.51980623 18.990339,1.7778516 18.990339,1.7778516 C18.990339,1.7778516 18.784323,1.28836722 19.0499375,1.01085911 C18.5593959,0.767319669 18.4341818,1.06414475 18.4247262,1.37554866 C18.6178483,1.63731164 18.7450682,1.94507083 18.8012284,2.28563241 L18.8012284,2.28563241 L18.8012284,2.28563241 Z" id="Path" fill="#FFFFFF"></path>
                </g>
            </g>
        </g>
    </g>
</svg>