<?xml version="1.0" encoding="UTF-8"?>
<svg width="140px" height="140px" viewBox="0 0 140 140" version="1.1" xmlns="http://www.w3.org/2000/svg" xmlns:xlink="http://www.w3.org/1999/xlink">
    <title>vignette_kfz</title>
    <defs>
        <rect id="path-1" x="0.60928151" y="1.241875" width="82.56" height="15.1575" rx="2.03175"></rect>
    </defs>
    <g id="vignette_kfz" stroke="none" stroke-width="1" fill="none" fill-rule="evenodd">
        <g id="vignette_faehigkeit">
            <circle id="Oval" fill="#F8F8F8" cx="70" cy="70" r="70"></circle>
            <g id="icon_kfz" transform="translate(13.000000, 48.000000)">
                <g id="Auto" transform="translate(24.651657, 10.352500)" stroke="#1B1B1B">
                    <path d="M46.730305,-0.75 C48.8898218,-0.75 53.5607177,1.70742918 58.1303116,4.34751831 L58.8506037,4.7655608 C59.8088549,5.32409031 60.7565217,5.8854092 61.6692257,6.42829203 C64.0836982,7.86443759 66.245616,9.15190053 67.6743072,9.85225201 C69.9167159,10.9514918 72.6843759,11.2558579 75.3994287,11.5707373 C78.2637775,11.9029314 81.0722665,12.2480574 83.2531746,13.3628439 C84.5780823,14.0400798 85.7286114,15.0921398 86.5374655,16.7417212 C87.21,18.1132916 87.6471514,19.9145555 87.7233022,22.2904304 C87.8030723,24.7792237 87.431619,26.7979762 86.7838792,28.2174487 C86.4071517,29.0430183 85.9332116,29.6768657 85.4024131,30.1109974 C84.8079244,30.5972203 84.1380803,30.8452691 83.4245162,30.8476312 C83.3053008,30.8480258 83.1366478,30.8481327 82.9205237,30.8479581 C78.5123292,30.8394604 63.937213,30.7688578 48.9430066,30.6750098 L45.1913651,30.651086 C30.1950038,30.5536335 15.5918716,30.4361737 11.1298004,30.337566 C6.44095521,30.2339468 3.63955802,29.6050495 1.95969861,28.5825809 C-0.176449529,27.2823861 -0.685903678,25.3641816 -0.719655853,22.8317873 C-0.739064807,21.3755516 -0.74760784,20.6016703 -0.749556559,20.0534556 L-0.749148623,19.8592008 C-0.747639473,19.251367 -0.744658903,19.0255645 -0.740872522,18.7381237 C-0.734883354,18.2834595 -0.726844827,17.6732102 -0.719706112,16.5920193 C-0.708758521,14.9339569 -0.0282261515,13.7419458 1.33238426,12.7107519 C2.7832482,11.6111557 5.08951992,10.6994574 8.22271672,9.48312682 C8.78791515,9.26371252 9.3805519,9.03364913 10.0003456,8.78969612 C13.1217272,7.56110911 16.4126513,5.42272949 19.3569405,3.51563651 C22.8538006,1.25062891 25.8979488,-0.628826294 27.6935969,-0.628826294 C29.2499675,-0.628826294 32.7804365,-0.656523274 36.4653747,-0.685416561 L36.4653747,-0.685416561 L37.4769646,-0.693339081 C40.8435935,-0.719644084 44.2006806,-0.744946723 46.1791103,-0.749332182 L46.1791103,-0.749332182 Z" id="Path-2" stroke-width="1.5" fill="#99DEE0"></path>
                    <circle id="Oval" stroke-width="1.5" fill="#D8D8D8" cx="73.0868616" cy="29.7510147" r="7.08675"></circle>
                    <circle id="Oval" stroke-width="0.5" fill="#D8D8D8" cx="73.0868616" cy="29.7510147" r="2.85204688"></circle>
                    <circle id="Oval" stroke-width="1.5" fill="#FFFFFF" cx="73.0868616" cy="29.7510147" r="2.35204688"></circle>
                    <circle id="Oval" stroke-width="1.5" fill="#D8D8D8" cx="18.2296116" cy="29.7510147" r="7.08675"></circle>
                    <circle id="Oval" stroke-width="0.5" fill="#D8D8D8" cx="18.2296116" cy="29.7510147" r="2.85204688"></circle>
                    <circle id="Oval" stroke-width="1.5" fill="#FFFFFF" cx="18.2296116" cy="29.7510147" r="2.35204688"></circle>
                    <path d="M12.2704162,12.5972823 C13.3042193,11.6798698 24.583578,2.8978054 28.1833938,2.8978054 C31.7832095,2.8978054 42.5891936,2.7766317 46.4699409,2.7766317 C50.3506883,2.7766317 61.7069821,10.9205435 65.1007171,13.3849113 C65.9414394,13.9954036 65.5700537,14.9604112 64.041175,14.9551554 C62.5122962,14.9497692 17.8717357,14.2006341 14.8345156,14.117534 C11.2777472,14.0202187 11.2366132,13.5146948 12.2704162,12.5972823 Z" id="Path" stroke-width="1.5" fill="#FFFFFF"></path>
                    <path d="M35.0124887,9.675 L35.0124887,14.2567676 M35.0124887,17.1378516 L35.0124887,18.2661393 M35.0124887,20.8483701 C35.0124887,21.3539436 35.0124887,22.1123038 35.0124887,23.1234508 C35.2070044,24.8751549 36.0828565,25.7510069 37.6400449,25.7510069 C38.6803109,25.7510069 42.8362354,25.7510069 50.1078181,25.7510069 C50.5186466,25.7510069 50.9868843,25.7510069 51.5125314,25.7510069 M53.4552489,25.7510069 C53.9553182,25.7510069 54.489166,25.7510069 55.0567925,25.7510069 M56.9899062,25.7510069 C57.893072,25.7510069 59.5517191,25.7510069 61.9658475,25.7510069" id="Shape" stroke-width="1.5" stroke-linecap="round" stroke-linejoin="round"></path>
                </g>
                <g id="KFZ-Kennzeichen">
                    <rect id="Rectangle" fill-opacity="0.1" fill="#000000" x="2.54428151" y="3.563875" width="83.205" height="15.093" rx="2.03175"></rect>
                    <g id="Rectangle">
                        <use fill="#FFFFFF" fill-rule="evenodd" style="mix-blend-mode: normal;" xlink:href="#path-1"></use>
                        <rect stroke="#FFFFFF" stroke-width="0.5" stroke-linejoin="square" x="0.85928151" y="1.491875" width="82.06" height="14.6575" rx="2.03175"></rect>
                    </g>
                    <path d="M2.31853151,1.3225 L7.12378151,1.3225 L7.12378151,1.3225 L7.12378151,16.4155 L2.31853151,16.4155 C1.19642697,16.4155 0.28678151,15.5058545 0.28678151,14.38375 L0.28678151,3.35425 C0.28678151,2.23214546 1.19642697,1.3225 2.31853151,1.3225 Z" id="Rectangle" fill="#00ADB2"></path>
                    <path d="M71.5436036,1.3225 L74.9110023,1.3225 L80.6860315,1.3225 C81.8081361,1.3225 82.7177815,2.23214546 82.7177815,3.35425 L82.7177815,14.38375 C82.7177815,15.5058545 81.8081361,16.4155 80.6860315,16.4155 L2.03175,16.4155 C0.90964546,16.4155 0,15.5058545 0,14.38375 L0,3.35425 C0,2.23214546 0.90964546,1.3225 2.03175,1.3225 L64.1906191,1.3225" id="Path" stroke="#1B1B1B" stroke-width="1.5" stroke-linecap="round" stroke-linejoin="round"></path>
                    <line x1="67.3801015" y1="1.3225" x2="68.630579" y2="1.3225" id="Path" stroke="#1B1B1B" stroke-width="1.5" stroke-linecap="round" stroke-linejoin="round"></line>
                    <text id="B-ZLB-2020" font-family="PTSans-Bold, PT Sans" font-size="12.335625" font-weight="bold" letter-spacing="0.440558021" fill="#242424">
                        <tspan x="9.71990651" y="13.048125">B  ZLB-2020</tspan>
                    </text>
                    <circle id="Oval" stroke="#1B1B1B" stroke-width="0.5" fill="#99DEE0" cx="20.6042815" cy="10.6105" r="2.072"></circle>
                    <circle id="Oval-Copy-4" stroke="#1B1B1B" stroke-width="0.5" fill="#00ADB2" cx="20.6042815" cy="5.821375" r="1.20125"></circle>
                </g>
            </g>
        </g>
    </g>
</svg>