<?xml version="1.0" encoding="UTF-8"?>
<svg width="140px" height="140px" viewBox="0 0 140 140" version="1.1" xmlns="http://www.w3.org/2000/svg" xmlns:xlink="http://www.w3.org/1999/xlink">
    <title>vignette_archivformular</title>
    <defs>
        <path d="M11.7293902,29.6666667 L84.3695926,29.6666667 C86.3555863,29.6666667 87.9655522,31.2766326 87.9655522,33.2626263 C87.9655522,33.5253435 87.9367617,33.7872696 87.8796962,34.0437143 L78.2773778,77.1952294 C77.9113674,78.8400302 76.4523062,80.010101 74.7672742,80.010101 L8.38077177,80.010101 C6.39477813,80.010101 4.78481218,78.4001351 4.78481218,76.4141414 C4.78481218,76.3212987 4.78840779,76.2284908 4.79559092,76.1359263 L8.14420938,32.9844112 C8.28951473,31.1119535 9.85130312,29.6666667 11.7293902,29.6666667 Z" id="path-1"></path>
    </defs>
    <g id="vignette_archivformular" stroke="none" stroke-width="1" fill="none" fill-rule="evenodd">
        <g>
            <circle id="Oval" fill="#EFEFEF" cx="70" cy="70" r="70"></circle>
            <g id="ICON-Archivformulare" transform="translate(32.000000, 29.000000)">
                <g id="Rectangle">
                    <use fill="#DEDEDE" fill-rule="evenodd" style="mix-blend-mode: multiply;" xlink:href="#path-1"></use>
                    <path stroke="#DEDEDE" stroke-width="1.34848485" d="M84.3695926,28.9924242 C85.5487763,28.9924242 86.6163268,29.4703829 87.3890814,30.2431375 C88.161836,31.015892 88.6397946,32.0834425 88.6397946,33.2626263 C88.6397946,33.574603 88.6056059,33.8856402 88.5378406,34.1901683 L88.5378406,34.1901683 L78.9355222,77.3416834 C78.7182035,78.3182839 78.1763854,79.1539489 77.438775,79.7454638 C76.7011647,80.3369787 75.767762,80.6843434 74.7672742,80.6843434 L74.7672742,80.6843434 L8.38077177,80.6843434 C7.20158805,80.6843434 6.13403754,80.2063848 5.36128297,79.4336302 C4.58260677,78.654954 4.10326187,77.5769465 4.11065404,76.3870136 L4.11065404,76.3870136 L7.47198797,32.9322458 C7.55826302,31.8204741 8.06505648,30.8355187 8.82905972,30.1285063 C9.59306297,29.4214938 10.614276,28.9924242 11.7293902,28.9924242 L11.7293902,28.9924242 Z"></path>
                </g>
                <path d="M79.3259874,28.0176768 C80.526091,28.0176768 81.6125809,28.5041149 82.3990449,29.2905789 C83.1855089,30.0770429 83.671947,31.1635328 83.671947,32.3636364 C83.671947,32.614824 83.6501699,32.8655388 83.6068602,33.1129646 L83.6068602,33.1129646 L75.8962165,77.1634696 C75.7142179,78.2032179 75.171778,79.1023757 74.4109487,79.7415965 C73.6501193,80.3808173 72.6709003,80.760101 71.6153436,80.760101 L71.6153436,80.760101 L3.8973458,80.760101 C2.6972422,80.760101 1.6107523,80.2736629 0.824288302,79.4871989 C0.0309591124,78.6938697 -0.45708335,77.5952538 -0.448502471,76.3826878 L-0.448502471,76.3826878 L3.11465295,32.0146057 C3.2056003,30.8858317 3.72236467,29.8865995 4.49950018,29.1695607 C5.27663569,28.452522 6.31414235,28.0176768 7.44657428,28.0176768 L7.44657428,28.0176768 Z" id="Rectangle" stroke="#242424" stroke-width="1.5" fill="#007996"></path>
                <rect id="Rectangle-Copy-23" stroke="#242424" stroke-width="0.898989899" fill="#F2F2F2" stroke-linejoin="round" x="35.0606061" y="34.1616162" width="22.4747475" height="1"></rect>
                <g id="ICON-formular" transform="translate(21.575758, 0.000000)">
                    <polygon id="Rectangle" fill="#DEDEDE" style="mix-blend-mode: multiply;" transform="translate(27.868687, 17.979798) scale(-1, 1) rotate(-180.000000) translate(-27.868687, -17.979798) " points="4.4949495 0.898989899 51.2424242 0.898989899 51.2424242 26.1252454 41.3535354 35.0606061 4.49494949 35.0606061"></polygon>
                    <path d="M46.7474747,18.4273636 L46.7474747,25.2262555 L36.8585859,34.1616162 L0,34.1616162 L0,-3.19385371e-15 L46.7474747,-3.19385371e-15 L46.7474747,11.4520158 M46.7474747,14.6567651 L46.7474747,15.4490503" id="Shape" stroke="#242424" stroke-width="1.5" fill="#FFFFFF" stroke-linecap="round" stroke-linejoin="round" transform="translate(23.598485, 17.080808) scale(-1, 1) rotate(-180.000000) translate(-23.598485, -17.080808) "></path>
                    <path d="M46.7474747,3.55745505 L37.4183404,12.4928157 L35.0606061,12.4928157 C36.6321513,12.4928157 37.4171348,11.3455796 37.4155567,9.05110739 C37.4153283,8.71906158 37.4213525,8.64608707 37.4183404,6.59150958 C37.4153283,4.53693209 38.0448363,3.06100471 40.0538632,3.06100471 C41.5260047,3.06100471 42.9329362,3.06100471 44.2746576,3.06100471 C45.9232024,2.83851264 46.7474747,2.02506676 46.7474747,0.620667078 C46.7474747,-0.783732604 46.7474747,0.19519672 46.7474747,3.55745505 Z" id="Path-4" stroke="#242424" stroke-width="1.5" fill="#C8C8C8" transform="translate(40.904040, 6.246408) scale(-1, 1) rotate(-180.000000) translate(-40.904040, -6.246408) "></path>
                    <rect id="Rectangle" stroke="#242424" stroke-width="1.5" fill="#F2F2F2" x="13.3358586" y="7.94191919" width="14.6818182" height="5.69191919"></rect>
                    <rect id="Rectangle-Copy-21" stroke="#242424" stroke-width="0.898989899" fill="#F2F2F2" stroke-linejoin="round" x="13.4848485" y="19.7777778" width="22.4747475" height="1"></rect>
                    <rect id="Rectangle-Copy-22" stroke="#242424" stroke-width="0.898989899" fill="#F2F2F2" stroke-linejoin="round" x="13.4848485" y="26.0707071" width="22.4747475" height="1"></rect>
                </g>
                <path d="M0,27.8686869 C-3.43651643e-16,26.87569 0.804982975,26.0707071 1.7979798,26.0707071 L27.5724825,26.0707071 C28.2114466,26.0707071 28.802407,26.4098201 29.1248078,26.9614838 L33.332,34.1607071 L78.598671,34.1616162 C79.5916679,34.1616162 80.3966508,34.9665991 80.3966508,35.959596 C80.3966508,36.0317142 80.3923118,36.103767 80.3836572,36.1753641 L75.2761962,78.4278893 C75.1670455,79.3308612 74.4007551,80.010101 73.4912101,80.010101 L1.7979798,80.010101 C0.804982975,80.010101 1.45387467e-15,79.205118 0,78.2121212 L0,27.8686869 Z" id="Combined-Shape" fill-opacity="0.3" fill="#000000"></path>
                <path d="M26.1157418,25.3207071 C26.5785388,25.3207071 27.0231366,25.4461938 27.4081958,25.6728354 C27.7932549,25.8994769 28.1187754,26.2272733 28.3434366,26.6319261 L28.3434366,26.6319261 L31.6074729,32.5117168 L72.8181818,32.5126263 C73.521787,32.5126263 74.158782,32.7978186 74.6198756,33.2589123 C75.0809693,33.7200059 75.3661616,34.3570009 75.3661616,35.0606061 L75.3661616,35.0606061 L75.3661616,78.2121212 C75.3661616,78.9157264 75.0809693,79.5527214 74.6198756,80.013815 C74.158782,80.4749087 73.521787,80.760101 72.8181818,80.760101 L72.8181818,80.760101 L1.7979798,80.760101 C1.09437461,80.760101 0.457379656,80.4749087 -0.0037139955,80.013815 C-0.464807647,79.5527214 -0.75,78.9157264 -0.75,78.2121212 L-0.75,78.2121212 L-0.75,27.8686869 C-0.75,27.1650817 -0.464807647,26.5280867 -0.0037139955,26.0669931 C0.457379656,25.6058994 1.09437461,25.3207071 1.7979798,25.3207071 L1.7979798,25.3207071 Z" id="Combined-Shape" stroke="#242424" stroke-width="1.5" fill="#99DEE0"></path>
            </g>
        </g>
    </g>
</svg>