<?xml version="1.0" encoding="UTF-8"?>
<svg width="140px" height="140px" viewBox="0 0 140 140" version="1.1" xmlns="http://www.w3.org/2000/svg" xmlns:xlink="http://www.w3.org/1999/xlink">
    <title>vignette_arzttermin</title>
    <g id="vignette_arzttermin" stroke="none" stroke-width="1" fill="none" fill-rule="evenodd">
        <g>
            <circle id="Oval" fill="#F8F8F8" cx="70" cy="70" r="70"></circle>
            <g id="Group-3" transform="translate(18.000000, 21.000000)">
                <g id="Group-2" transform="translate(32.000000, 25.185185)" stroke="#242424" stroke-width="1.5">
                    <path d="M13.3354701,57.9807692 C13.3354701,58.297332 13.2357386,58.5200884 13.0744947,58.6813323 C12.9132508,58.8425763 12.6904944,58.9423077 12.4444444,58.9423077 L12.4444444,58.9423077 L8.34188034,58.9423077 C8.09583041,58.9423077 7.873074,58.8425763 7.71183007,58.6813323 C7.55058614,58.5200884 7.4508547,58.297332 7.4508547,58.0512821 L7.4508547,58.0512821 Z" id="Rectangle" fill="#9F9F9F"></path>
                    <path d="M49.9166667,4.80698006 L49.9166667,13.3561254 C49.9166667,14.1308581 49.6026442,14.832247 49.0949385,15.3399527 C48.5872328,15.8476584 47.8858439,16.1616809 47.1111111,16.1616809 L47.1111111,16.1616809 L24,16.1616809 C23.2252672,16.1616809 22.5238783,15.8476584 22.0161726,15.3399527 C21.5084669,14.832247 21.1944444,14.1308581 21.1944444,13.3561254 L21.1944444,13.3561254 L21.1944444,4.80698006 L49.9166667,4.80698006 Z" id="Rectangle-Copy-4" transform="translate(35.555556, 10.484330) rotate(-180.000000) translate(-35.555556, -10.484330) "></path>
                    <path d="M52.5833333,2.07193732 L52.5833333,10.8945869 C52.5833333,12.3490547 51.9937938,13.6658282 51.0406372,14.6189848 C50.0874807,15.5721413 48.7707072,16.1616809 47.3162393,16.1616809 L47.3162393,16.1616809 L23.7948718,16.1616809 C22.3404039,16.1616809 21.0236304,15.5721413 20.0704739,14.6189848 C19.1173174,13.6658282 18.5277778,12.3490547 18.5277778,10.8945869 L18.5277778,10.8945869 L18.5277778,2.07193732 L52.5833333,2.07193732 Z" id="Rectangle-Copy-4" transform="translate(35.555556, 9.116809) rotate(-180.000000) translate(-35.555556, -9.116809) "></path>
                    <rect id="Rectangle" fill="#00ADB2" x="30.0833333" y="1.34259259" width="10.9444444" height="3.83333333" rx="1.18518519"></rect>
                    <path d="M63.6602564,57.9807692 C63.6602564,58.297332 63.560525,58.5200884 63.399281,58.6813323 C63.2380371,58.8425763 63.0152807,58.9423077 62.7692308,58.9423077 L62.7692308,58.9423077 L58.6666667,58.9423077 C58.4206167,58.9423077 58.1978603,58.8425763 58.0366164,58.6813323 C57.8753725,58.5200884 57.775641,58.297332 57.775641,58.0512821 L57.775641,58.0512821 Z" id="Rectangle-Copy-2" fill="#9F9F9F"></path>
                    <path d="M71.1111111,35.7085988 L71.1111111,48.4558405 C71.1111111,53.2895121 67.192646,57.2079772 62.3589744,57.2079772 L8.75213675,57.2079772 C3.9184651,57.2079772 0,53.2895121 0,48.4558405 L0,19.1908832 C0,14.3572115 3.9184651,10.4387464 8.75213675,10.4387464 L62.3589744,10.4387464 C67.192646,10.4387464 71.1111111,14.3572115 71.1111111,19.1908832 L71.1111111,25.440108 M71.1111111,28.9348153 L71.1111111,31.9154481" id="Shape" fill="#FFFFFF" stroke-linecap="round" stroke-linejoin="round"></path>
                    <path d="M40.275641,10.5425926 L40.275641,12.5960114 C40.275641,12.8420613 40.1759096,13.0648177 40.0146657,13.2260617 C39.8534217,13.3873056 39.6306653,13.487037 39.3846154,13.487037 L39.3846154,13.487037 L32,13.487037 C31.7539501,13.487037 31.5311937,13.3873056 31.3699497,13.2260617 C31.2087058,13.0648177 31.1089744,12.8420613 31.1089744,12.5960114 L31.1089744,12.5960114 L31.1089744,10.5425926 L40.275641,10.5425926 Z" id="Rectangle-Copy-3" fill="#00ADB2"></path>
                    <circle id="Oval" fill="#F8F8F8" cx="35.5555556" cy="33.6866097" r="13.4722222"></circle>
                    <path d="M37.3444514,25.6844729 L37.6884114,31.8263648 L43.4871795,31.827201 L43.8311966,35.4755055 L37.6884114,35.8194656 L37.6884685,41.6182336 L34.040164,41.9622507 L33.6953107,35.8194656 L27.8974359,35.8195226 L27.5534188,32.1712181 L33.6953107,31.8263648 L33.6961469,26.02849 L37.3444514,25.6844729 Z" id="Combined-Shape" fill="#00ADB2"></path>
                </g>
                <g id="Group" opacity="0.766415551" style="mix-blend-mode: multiply;" transform="translate(2.666667, 0.888889)" stroke="#C8C8C8">
                    <path d="M56.7286147,3.26874918 L56.7286147,21.9152931 C56.7286147,24.3122883 54.8345045,26.2554369 52.4980012,26.2554369 C49.2232572,26.2554369 46.7671993,26.2554369 45.1298273,26.2554369 M32.4766047,26.2554369 C31.0785814,26.2554369 28.8083211,26.2554369 25.6658239,26.2554369 C23.37089,26.2554369 21.5104784,24.3122883 21.5104784,21.9152931 L21.5104784,3.26874918" id="Shape" stroke-width="1.5" transform="translate(39.119547, 14.762093) rotate(-180.000000) translate(-39.119547, -14.762093) "></path>
                    <path d="M50.4734414,1.72110188 L50.4734414,4.42862792 L45.867932,5.02728351 L45.2692764,1.72110188 L50.4734414,1.72110188 Z" id="Rectangle-Copy" stroke-width="1.33333333" fill="#C8C8C8" transform="translate(47.871359, 3.374193) rotate(-90.000000) translate(-47.871359, -3.374193) "></path>
                    <path d="M33.6024779,1.72110188 L33.6024779,4.42862792 L28.9969685,5.02728351 L28.3983129,1.72110188 L33.6024779,1.72110188 Z" id="Rectangle-Copy-5" stroke-width="1.33333333" fill="#C8C8C8" transform="translate(31.000395, 3.374193) rotate(-270.000000) translate(-31.000395, -3.374193) "></path>
                    <path d="M59.2592593,15.5001977 C59.2592593,30.2918494 50.2896114,42.2828522 39.2249901,42.2828522 C28.1603688,42.2828522 19.190721,30.2918494 19.190721,15.5001977 L24.6813548,15.4993423 C24.6763205,15.7096883 24.6737841,15.9208776 24.6737841,16.1328588 C24.6737841,26.876269 31.1885809,35.5855237 39.2249901,35.5855237 C47.2613993,35.5855237 53.7761961,26.876269 53.7761961,16.1328588 C53.7761961,15.9208776 53.7736598,15.7096883 53.7686254,15.4993423 L59.2592593,15.5001977 L59.2592593,15.5001977 Z" id="Combined-Shape" stroke-width="1.33333333" fill="#C8C8C8" stroke-linejoin="round"></path>
                    <path d="M5.48306313,37.0446817 C6.81307429,37.0446817 8.01717341,37.5837752 8.88876974,38.4553716 C9.76036606,39.3269679 10.2994596,40.531067 10.2994596,41.8610782 C10.2994596,43.1910893 9.76036606,44.3951884 8.88876974,45.2667848 C8.01717341,46.1383811 6.81307429,46.6774746 5.48306313,46.6774746 C4.15305198,46.6774746 2.94895286,46.1383811 2.07735653,45.2667848 C1.2057602,44.3951884 0.666666667,43.1910893 0.666666667,41.8610782 C0.666666667,40.531067 1.2057602,39.3269679 2.07735653,38.4553716 C2.94895286,37.5837752 4.15305198,37.0446817 5.48306313,37.0446817 Z M5.48306313,39.5073151 C4.83308943,39.5073151 4.24464867,39.770769 3.81870134,40.1967164 C3.39275402,40.6226637 3.12930012,41.2111045 3.12930012,41.8610782 C3.12930012,42.5110519 3.39275402,43.0994926 3.81870134,43.5254399 C4.24464867,43.9513873 4.83308943,44.2148412 5.48306313,44.2148412 C6.13303684,44.2148412 6.7214776,43.9513873 7.14742492,43.5254399 C7.57337225,43.0994926 7.83682615,42.5110519 7.83682615,41.8610782 C7.83682615,41.2111045 7.57337225,40.6226637 7.14742492,40.1967164 C6.7214776,39.770769 6.13303684,39.5073151 5.48306313,39.5073151 Z" id="Combined-Shape" stroke-width="1.33333333" fill="#C8C8C8"></path>
                    <path d="M20.4560432,47.8262601 L20.4560432,70.0058252 C20.4560432,74.1452896 17.1042275,77.5009885 12.9695532,77.5009885 C8.8348789,77.5009885 5.48306313,74.1452896 5.48306313,70.0058252 C5.48306313,68.0790419 5.48306313,66.4134657 5.48306313,65.0090966 M5.48306313,62.0111033 C5.48306313,60.4544359 5.48306313,58.5260329 5.48306313,56.2258945 M5.48306313,53.1582208 C5.48306313,52.0441805 5.48306313,50.106154 5.48306313,47.3441413 M39.2249901,46.5034899 L39.2249901,54.7569653 C39.2249901,57.3017485 37.1478085,59.3647028 34.5854752,59.3647028 C32.0231418,59.3647028 29.9459602,57.3017485 29.9459602,54.7569653 L29.9459602,47.7659154 M20.4560432,47.3441413 C20.4560432,44.7818079 22.5804335,42.7046263 25.2010017,42.7046263 C27.8215699,42.7046263 29.9459602,44.7818079 29.9459602,47.3441413 L29.9459602,47.3441413" id="Shape" stroke-width="1.5" stroke-linecap="round" stroke-linejoin="round"></path>
                    <circle id="Oval" stroke-width="1.33333333" fill="#C8C8C8" cx="39.2249901" cy="43.1264004" r="3.55107421"></circle>
                </g>
                <g id="Group" stroke="#242424" stroke-width="1.5">
                    <path d="M56.7286147,3.26874918 L56.7286147,21.9152931 C56.7286147,24.3122883 54.8345045,26.2554369 52.4980012,26.2554369 C49.2232572,26.2554369 46.7671993,26.2554369 45.1298273,26.2554369 M32.4766047,26.2554369 C31.0785814,26.2554369 28.8083211,26.2554369 25.6658239,26.2554369 C23.37089,26.2554369 21.5104784,24.3122883 21.5104784,21.9152931 L21.5104784,3.26874918" id="Shape" transform="translate(39.119547, 14.762093) rotate(-180.000000) translate(-39.119547, -14.762093) "></path>
                    <path d="M50.3901081,1.80443522 L50.3901081,4.42862792 L45.867932,4.94395018 L45.3526097,1.80443522 L50.3901081,1.80443522 Z" id="Rectangle-Copy" fill="#FFFFFF" transform="translate(47.871359, 3.374193) rotate(-90.000000) translate(-47.871359, -3.374193) "></path>
                    <path d="M33.5191446,1.80443522 L33.5191446,4.42862792 L28.9969685,4.94395018 L28.4816462,1.80443522 L33.5191446,1.80443522 Z" id="Rectangle-Copy-5" fill="#FFFFFF" transform="translate(31.000395, 3.374193) rotate(-270.000000) translate(-31.000395, -3.374193) "></path>
                    <path d="M59.2592593,15.5001977 C59.2592593,30.2918494 50.2896114,42.2828522 39.2249901,42.2828522 C28.1603688,42.2828522 19.190721,30.2918494 19.190721,15.5001977 L24.6813548,15.4993423 C24.6763205,15.7096883 24.6737841,15.9208776 24.6737841,16.1328588 C24.6737841,26.876269 31.1885809,35.5855237 39.2249901,35.5855237 C47.2613993,35.5855237 53.7761961,26.876269 53.7761961,16.1328588 C53.7761961,15.9208776 53.7736598,15.7096883 53.7686254,15.4993423 L59.2592593,15.5001977 L59.2592593,15.5001977 Z" id="Combined-Shape" fill="#66CED1" stroke-linejoin="round"></path>
                    <path d="M5.48306313,37.128015 C6.79006243,37.128015 7.97332821,37.6577812 8.82984417,38.5142971 C9.68636013,39.3708131 10.2161263,40.5540789 10.2161263,41.8610782 C10.2161263,43.1680775 9.68636013,44.3513432 8.82984417,45.2078592 C7.97332821,46.0643752 6.79006243,46.5941413 5.48306313,46.5941413 C4.17606384,46.5941413 2.99279806,46.0643752 2.1362821,45.2078592 C1.27976614,44.3513432 0.75,43.1680775 0.75,41.8610782 C0.75,40.5540789 1.27976614,39.3708131 2.1362821,38.5142971 C2.99279806,37.6577812 4.17606384,37.128015 5.48306313,37.128015 Z M5.48306313,39.4239818 C4.81007756,39.4239818 4.20080347,39.6967631 3.75977578,40.1377908 C3.31874809,40.5788185 3.04596679,41.1880926 3.04596679,41.8610782 C3.04596679,42.5340637 3.31874809,43.1433378 3.75977578,43.5843655 C4.20080347,44.0253932 4.81007756,44.2981745 5.48306313,44.2981745 C6.15604871,44.2981745 6.7653228,44.0253932 7.20635049,43.5843655 C7.64737818,43.1433378 7.92015948,42.5340637 7.92015948,41.8610782 C7.92015948,41.1880926 7.64737818,40.5788185 7.20635049,40.1377908 C6.7653228,39.6967631 6.15604871,39.4239818 5.48306313,39.4239818 Z" id="Combined-Shape" fill="#00ADB2"></path>
                    <path d="M20.4560432,47.8262601 L20.4560432,70.0058252 C20.4560432,74.1452896 17.1042275,77.5009885 12.9695532,77.5009885 C8.8348789,77.5009885 5.48306313,74.1452896 5.48306313,70.0058252 C5.48306313,68.0790419 5.48306313,66.4134657 5.48306313,65.0090966 M5.48306313,62.0111033 C5.48306313,60.4544359 5.48306313,58.5260329 5.48306313,56.2258945 M5.48306313,53.1582208 C5.48306313,52.0441805 5.48306313,50.106154 5.48306313,47.3441413 M39.2249901,46.5034899 L39.2249901,54.7569653 C39.2249901,57.3017485 37.1478085,59.3647028 34.5854752,59.3647028 C32.0231418,59.3647028 29.9459602,57.3017485 29.9459602,54.7569653 L29.9459602,47.7659154 M20.4560432,47.3441413 C20.4560432,44.7818079 22.5804335,42.7046263 25.2010017,42.7046263 C27.8215699,42.7046263 29.9459602,44.7818079 29.9459602,47.3441413 L29.9459602,47.3441413" id="Shape" stroke-linecap="round" stroke-linejoin="round"></path>
                    <circle id="Oval" fill="#66CED1" cx="39.2249901" cy="43.1264004" r="3.46774087"></circle>
                </g>
            </g>
        </g>
    </g>
</svg>